<svg width="257" height="485" viewBox="0 0 257 485" fill="none" xmlns="http://www.w3.org/2000/svg">
<path d="M0.75 0.75H255.957V483.584H4C2.20508 483.584 0.75 482.129 0.75 480.334V0.75Z" fill="#202125" stroke="#1767D2" stroke-width="1.5"/>
<g opacity="0.5">
<path fill-rule="evenodd" clip-rule="evenodd" d="M220.075 428.225H223.556V426.68H222.779C222.499 426.68 222.27 426.451 222.27 426.171V425.572C222.27 425.292 222.499 425.064 222.779 425.064H225.948C226.228 425.064 226.456 425.292 226.456 425.572V426.171C226.456 426.451 226.228 426.68 225.948 426.68H225.171V428.225H228.884V425.022C228.884 424.555 228.503 424.174 228.037 424.174H220.922C220.456 424.174 220.075 424.555 220.075 425.022V428.225H220.075ZM211.332 444.373H212.866V441.885H235.862V444.373H237.396C237.81 444.373 238.148 444.711 238.148 445.124V446.009C238.148 446.423 237.81 446.761 237.396 446.761H211.332C210.919 446.761 210.58 446.423 210.58 446.009V445.124C210.58 444.711 210.919 444.373 211.332 444.373H211.332ZM211.332 440.692H237.396C237.809 440.692 238.147 440.354 238.147 439.94V439.056C238.147 438.642 237.809 438.304 237.396 438.304H235.861V434.656C235.861 432.121 234.374 429.916 232.229 428.87V423.343C232.229 422.877 231.848 422.496 231.381 422.496H217.578C217.111 422.496 216.73 422.877 216.73 423.343V428.763C214.461 429.759 212.866 432.031 212.866 434.657V438.304H211.332C210.918 438.304 210.58 438.642 210.58 439.056V439.941C210.58 440.354 210.918 440.693 211.332 440.693L211.332 440.692ZM235.862 447.953V452.793C235.862 456.33 232.968 459.224 229.43 459.224H219.298C215.76 459.224 212.866 456.33 212.866 452.793V447.953H235.862H235.862Z" fill="white"/>
</g>
</svg>
