<svg width="726" height="153" viewBox="0 0 726 153" fill="none" xmlns="http://www.w3.org/2000/svg">
<g id="basse-emissioni-sub-layer">
<g id="basse-emissioni-sub-layer_2">
<g id="Group 64">
<path id="Rectangle 458" d="M0.500007 152.148L0.5 4.00003C0.5 2.06703 2.067 0.50003 4 0.50003L722 0.499998C723.933 0.499998 725.5 2.067 725.5 4L725.5 152.148L0.500007 152.148Z" fill="#1767D2" stroke="#1767D2"/>
</g>
</g>
<g id="icona-basse-emissioni" opacity="0.5">
<path id="Vector" d="M697.693 121.549C697.363 121.219 697.363 120.684 697.694 120.355C698.023 120.025 698.558 120.025 698.889 120.355L701.925 123.393V122.199V122.19L701.924 118.771L697.696 114.54C697.366 114.209 697.367 113.675 697.697 113.345C698.027 113.015 698.561 113.015 698.892 113.346L701.924 116.38V115.189V115.184L701.922 109.356C701.921 108.889 702.3 108.512 702.766 108.512C703.233 108.512 703.611 108.889 703.611 109.356L703.612 113.145L706.648 110.106C706.979 109.775 707.514 109.774 707.843 110.105C708.174 110.434 708.174 110.969 707.844 111.3L703.613 115.536L703.614 118.404V118.447V120.153L706.652 117.115C706.981 116.785 707.516 116.786 707.846 117.114C708.176 117.445 708.176 117.979 707.847 118.309L703.614 122.543L703.615 125.429V125.44L703.616 130.522C709.15 128.09 712.832 122.417 712.829 116.202C712.829 109.789 708.907 103.942 703.07 101.652C702.872 101.573 702.652 101.575 702.453 101.652C696.62 103.945 692.701 109.794 692.703 116.206C692.703 122.421 696.39 128.093 701.927 130.523L701.926 125.783L697.693 121.549Z" fill="white"/>
<path id="Vector_2" d="M680.845 132.823C680.379 132.823 680 133.202 680 133.669C680 134.134 680.379 134.513 680.845 134.513H682.856C683 135.822 684.099 136.847 685.446 136.847H688.156C689.6 136.847 690.774 135.672 690.774 134.227V132.745C692.277 132.814 692.687 133.194 693.66 135.276C694.732 137.569 696.045 138.987 697.561 139.491C697.962 139.625 698.369 139.69 698.782 139.69C699.494 139.69 700.222 139.492 700.958 139.097C702.818 138.1 703.712 135.336 703.616 130.88V130.523C703.437 130.601 703.261 130.686 703.078 130.759C702.98 130.798 702.875 130.816 702.77 130.816C702.666 130.816 702.561 130.798 702.461 130.759C702.28 130.687 702.105 130.602 701.927 130.524V130.898C701.927 130.9 701.928 130.901 701.928 130.904C701.928 130.908 701.927 130.912 701.927 130.917C702.033 135.857 700.866 137.229 700.16 137.608C699.413 138.008 698.736 138.099 698.094 137.886C696.776 137.449 695.789 135.835 695.192 134.559C693.964 131.931 693.094 131.183 690.776 131.06V129.364C690.776 127.92 689.601 126.745 688.158 126.745L685.446 126.746C684.103 126.746 683.006 127.765 682.857 129.068H680.845C680.379 129.068 680 129.447 680 129.913C680 130.379 680.379 130.757 680.845 130.757H682.827V132.824H680.845L680.845 132.823Z" fill="white"/>
</g>
<g id="28,7% Fonti a bassa emissione di carbonio">
<text fill="white" xml:space="preserve" style="white-space: pre" font-family="Sole24Sans" font-size="18" letter-spacing="0em"><tspan x="82.1172" y="139.54">Fonti a bassa emissione di carbonio</tspan></text>
<text fill="white" xml:space="preserve" style="white-space: pre" font-family="Sole24Sans" font-size="24" letter-spacing="0em"><tspan x="13" y="139.54">28,7% </tspan></text>
</g>
</g>
</svg>
