<svg width="734" height="498" viewBox="0 0 734 498" fill="none" xmlns="http://www.w3.org/2000/svg">
<g id="combustibili-sub-layer">
<g id="combustibili-sub-layer_2">
<g id="Group 82">
<g id="Rectangle 460" filter="url(#filter0_d_2_105)">
<path d="M4 0.000213623H730V485.421C730 487.63 728.209 489.421 726 489.421H7.99998C5.79084 489.421 4 487.63 4 485.421V0.000213623Z" fill="#202125"/>
<path d="M4.5 0.500214H729.5V485.421C729.5 487.354 727.933 488.921 726 488.921H7.99998C6.06699 488.921 4.5 487.354 4.5 485.421V0.500214Z" stroke="#202125"/>
</g>
</g>
</g>
<g id="71% Combustibili fossili">
<text fill="white" xml:space="preserve" style="white-space: pre" font-family="Sole24Sans" font-size="18" letter-spacing="0em"><tspan x="64.1562" y="473.54">Combustibili fossili</tspan></text>
<text fill="white" xml:space="preserve" style="white-space: pre" font-family="Sole24Sans" font-size="24" letter-spacing="0em"><tspan x="17" y="473.54">71% </tspan></text>
</g>
<g id="icona-combustibili-fossili" opacity="0.5">
<path id="Vector" d="M715.123 469.275C715.311 469.275 715.498 469.298 715.681 469.342V451.532H713.124V468.621C713.273 468.843 713.431 469.06 713.595 469.275L715.123 469.275Z" fill="white"/>
<path id="Vector_2" d="M689.695 469.275C690.12 468.808 690.515 468.316 690.88 467.801V445.425H688.323V469.343C688.51 469.218 689.695 469.275 689.695 469.275V469.275Z" fill="white"/>
<path id="Vector_3" d="M713.595 469.274C713.431 469.059 713.273 468.842 713.124 468.62C710.452 464.634 710.18 459.627 710.167 457.992H704.593C704.571 459.625 704.379 461.251 704.02 462.844C704.81 465.097 706.018 467.393 707.861 469.275L713.595 469.274Z" fill="white"/>
<path id="Vector_4" d="M704.168 456.233H710.559C710.684 456.233 710.786 456.358 710.786 456.46V457.214C710.786 457.339 710.684 457.441 710.559 457.441H704.168C704.042 457.441 703.941 457.315 703.941 457.214V456.46C703.941 456.334 704.043 456.233 704.168 456.233Z" fill="white"/>
<path id="Vector_5" d="M706.416 469.275C701.793 463.903 701.462 456.246 701.467 454.094H694.816C694.813 456.015 694.522 462.68 690.879 467.8C690.515 468.315 690.119 468.808 689.694 469.275L706.416 469.275Z" fill="white"/>
<path id="Vector_6" d="M708.881 444.418C705.15 444.418 705.269 448.282 706.494 449.14C705.549 449.58 705.686 451.071 706.425 451.444C706.096 451.616 705.851 451.914 705.744 452.269C705.637 452.624 705.678 453.007 705.857 453.332C706.036 453.657 706.338 453.896 706.695 453.995C706.338 454.471 706.774 455.226 707.391 455.226V455.226C707.746 455.246 708.071 455.028 708.188 454.693C708.306 454.358 708.187 453.985 707.898 453.779C708.254 453.519 708.464 453.106 708.464 452.665C710.432 453.047 711.494 450.964 710.693 449.729C713.122 447.899 711.759 444.418 708.881 444.418L708.881 444.418Z" fill="white"/>
<path id="Vector_7" d="M691.251 431.613C687.52 431.613 687.638 435.478 688.864 436.336C687.919 436.776 688.055 438.266 688.794 438.64C688.466 438.812 688.221 439.109 688.114 439.465C688.007 439.82 688.048 440.203 688.227 440.527C688.406 440.852 688.708 441.091 689.065 441.191C688.708 441.667 689.143 442.422 689.761 442.422C690.116 442.441 690.441 442.224 690.558 441.889C690.675 441.553 690.557 441.181 690.268 440.975C690.623 440.715 690.834 440.301 690.834 439.861C692.802 440.243 693.864 438.159 693.062 436.925C695.492 435.094 694.129 431.613 691.251 431.613L691.251 431.613Z" fill="white"/>
<path id="Vector_8" d="M715.742 450.99C715.915 450.995 716.082 450.93 716.206 450.81C716.33 450.69 716.4 450.524 716.4 450.351C716.4 450.179 716.33 450.013 716.206 449.893C716.082 449.773 715.915 449.708 715.742 449.713H713.06C712.887 449.708 712.72 449.773 712.596 449.893C712.472 450.013 712.402 450.179 712.402 450.351C712.402 450.524 712.472 450.69 712.596 450.81C712.72 450.93 712.887 450.995 713.06 450.99H715.742Z" fill="white"/>
<path id="Vector_9" d="M694.066 452.041H702.047H702.046C702.203 452.041 702.33 452.168 702.33 452.324V453.266C702.33 453.422 702.203 453.549 702.046 453.549H694.066C693.909 453.549 693.782 453.422 693.782 453.266V452.324C693.782 452.168 693.909 452.041 694.066 452.041H694.066Z" fill="white"/>
<path id="Vector_10" d="M690.939 444.884C691.111 444.889 691.279 444.824 691.403 444.703C691.527 444.583 691.596 444.418 691.596 444.246C691.596 444.073 691.527 443.908 691.403 443.787C691.279 443.667 691.111 443.602 690.939 443.607H688.257C688.084 443.602 687.917 443.667 687.793 443.787C687.669 443.908 687.599 444.073 687.599 444.246C687.599 444.418 687.669 444.583 687.793 444.703C687.917 444.824 688.084 444.889 688.257 444.884H690.939Z" fill="white"/>
<path id="Vector_11" d="M715.064 473.578C717.684 473.578 717.606 469.82 715.064 469.82H688.936C686.316 469.82 686.394 473.578 688.936 473.578H715.064Z" fill="white"/>
</g>
</g>
<defs>
<filter id="filter0_d_2_105" x="0" y="0.000213623" width="734" height="497.421" filterUnits="userSpaceOnUse" color-interpolation-filters="sRGB">
<feFlood flood-opacity="0" result="BackgroundImageFix"/>
<feColorMatrix in="SourceAlpha" type="matrix" values="0 0 0 0 0 0 0 0 0 0 0 0 0 0 0 0 0 0 127 0" result="hardAlpha"/>
<feOffset dy="4"/>
<feGaussianBlur stdDeviation="2"/>
<feComposite in2="hardAlpha" operator="out"/>
<feColorMatrix type="matrix" values="0 0 0 0 0 0 0 0 0 0 0 0 0 0 0 0 0 0 0.25 0"/>
<feBlend mode="normal" in2="BackgroundImageFix" result="effect1_dropShadow_2_105"/>
<feBlend mode="normal" in="SourceGraphic" in2="effect1_dropShadow_2_105" result="shape"/>
</filter>
</defs>
</svg>
