<svg width="258" height="154" viewBox="0 0 258 154" fill="none" xmlns="http://www.w3.org/2000/svg">
<path d="M0 0H254C256.209 0 258 1.79086 258 4V154H0V0Z" fill="#1767D2"/>
<path d="M219.365 104.985L218.25 105.413L221.253 113.263L222.368 112.83C223.865 112.252 225.351 112.249 226.852 112.832L227.966 113.263L230.969 105.413L229.853 104.985C226.452 103.672 222.765 103.672 219.366 104.985L219.365 104.985Z" fill="white" fill-opacity="0.5"/>
<path d="M218.446 119.672L218.261 118.487L210 119.797L210.184 120.98C210.746 124.581 212.605 127.827 215.421 130.118L216.348 130.873L221.618 124.321L220.693 123.567C219.482 122.58 218.685 121.198 218.446 119.672L218.446 119.672Z" fill="white" fill-opacity="0.5"/>
<path d="M224.608 114.494C222.306 114.494 220.432 116.378 220.432 118.693C220.432 121.009 222.306 122.892 224.608 122.892C226.911 122.892 228.785 121.009 228.785 118.693C228.785 116.378 226.911 114.494 224.608 114.494Z" fill="white" fill-opacity="0.5"/>
<path d="M230.772 119.67C230.534 121.197 229.736 122.581 228.527 123.565L227.602 124.319L232.871 130.873L233.799 130.119C236.613 127.827 238.473 124.582 239.035 120.98L239.219 119.795L230.957 118.485L230.772 119.67Z" fill="white" fill-opacity="0.5"/>
</svg>
