<svg width="478" height="67" viewBox="0 0 478 67" fill="none" xmlns="http://www.w3.org/2000/svg">
<g id="Group 126">
<g id="Group 83">
<g id="Rectangle 432">
<path d="M0 4C0 1.79086 1.79086 0 4 0H474C476.209 0 478 1.79086 478 4V63C478 65.2091 476.209 67 474 67H4C1.79086 67 0 65.2091 0 63V4Z" fill="#1767D2" fill-opacity="0.7"/>
<path d="M0 4C0 1.79086 1.79086 0 4 0H474C476.209 0 478 1.79086 478 4V63C478 65.2091 476.209 67 474 67H4C1.79086 67 0 65.2091 0 63V4Z" stroke="#1767D2"/>
</g>
<text id="55 anni per cambiare poco!" fill="white" xml:space="preserve" style="white-space: pre" font-family="Sole24Sans" font-size="18" letter-spacing="0em"><tspan x="27" y="39.03">55 anni per cambiare poco!&#10;</tspan><tspan x="27" y="61.03">&#10;</tspan></text>
<g id="Action Buttons">
<path id="Line 1" opacity="0.15" d="M395 0L395 67" stroke="white"/>
<text id="Heading" opacity="0.6" fill="white" xml:space="preserve" style="white-space: pre" font-family="Sole24Sans" font-size="12" letter-spacing="0px"><tspan x="417.064" y="37.28">Mostra</tspan></text>
</g>
</g>
</g>
</svg>
