<svg width="390" height="2310" viewBox="0 0 390 2310" fill="none" xmlns="http://www.w3.org/2000/svg">
<g id="Group 127">
<g id="Group 106">
<text id="Ridurre a zero le emissioni &#226;&#128;&#168;di carbonio e raggiungere &#226;&#128;&#168;la neutralit&#195;&#160;" transform="translate(53 2248)" fill="white" xml:space="preserve" style="white-space: pre" font-family="Sole24Sans" font-size="18" font-weight="600" letter-spacing="0em"><tspan x="33.5078" y="17.03">Ridurre a zero le emissioni &#x2028;</tspan><tspan x="36.6191" y="39.03">di carbonio e raggiungere &#x2028;</tspan><tspan x="92.6055" y="61.03">la neutralit&#xe0;</tspan></text>
<g id="Group 105">
<path id="Vector 347" d="M201 1604C201 1600.69 198.314 1598 195 1598C191.686 1598 189 1600.69 189 1604H201ZM189 2180C189 2183.31 191.686 2186 195 2186C198.314 2186 201 2183.31 201 2180L189 2180ZM201 2179.5C201 2176.18 198.314 2173.5 195 2173.5C191.686 2173.5 189 2176.18 189 2179.5L201 2179.5ZM189 2154.32C189 2157.64 191.686 2160.32 195 2160.32C198.314 2160.32 201 2157.64 201 2154.32L189 2154.32ZM201 2153.31C201 2150 198.314 2147.31 195 2147.31C191.686 2147.31 189 2150 189 2153.31L201 2153.31ZM189 2128.14C189 2131.45 191.686 2134.14 195 2134.14C198.314 2134.14 201 2131.45 201 2128.14L189 2128.14ZM201 2127.13C201 2123.82 198.314 2121.13 195 2121.13C191.686 2121.13 189 2123.82 189 2127.13L201 2127.13ZM189 2101.96C189 2105.27 191.686 2107.96 195 2107.96C198.314 2107.96 201 2105.27 201 2101.96L189 2101.96ZM201 2100.95C201 2097.64 198.314 2094.95 195 2094.95C191.686 2094.95 189 2097.64 189 2100.95L201 2100.95ZM189 2075.78C189 2079.09 191.686 2081.78 195 2081.78C198.314 2081.78 201 2079.09 201 2075.78L189 2075.78ZM201 2074.77C201 2071.46 198.314 2068.77 195 2068.77C191.686 2068.77 189 2071.46 189 2074.77L201 2074.77ZM189 2049.59C189 2052.91 191.686 2055.59 195 2055.59C198.314 2055.59 201 2052.91 201 2049.59L189 2049.59ZM201 2048.59C201 2045.27 198.314 2042.59 195 2042.59C191.686 2042.59 189 2045.27 189 2048.59L201 2048.59ZM189 2023.41C189 2026.73 191.686 2029.41 195 2029.41C198.314 2029.41 201 2026.73 201 2023.41L189 2023.41ZM201 2022.41C201 2019.09 198.314 2016.41 195 2016.41C191.686 2016.41 189 2019.09 189 2022.41L201 2022.41ZM189 1997.23C189 2000.54 191.686 2003.23 195 2003.23C198.314 2003.23 201 2000.54 201 1997.23L189 1997.23ZM201 1996.22C201 1992.91 198.314 1990.22 195 1990.22C191.686 1990.22 189 1992.91 189 1996.22L201 1996.22ZM189 1971.05C189 1974.36 191.686 1977.05 195 1977.05C198.314 1977.05 201 1974.36 201 1971.05L189 1971.05ZM201 1970.04C201 1966.73 198.314 1964.04 195 1964.04C191.686 1964.04 189 1966.73 189 1970.04L201 1970.04ZM189 1944.87C189 1948.18 191.686 1950.87 195 1950.87C198.314 1950.87 201 1948.18 201 1944.87L189 1944.87ZM201 1943.86C201 1940.55 198.314 1937.86 195 1937.86C191.686 1937.86 189 1940.55 189 1943.86L201 1943.86ZM189 1918.69C189 1922 191.686 1924.69 195 1924.69C198.314 1924.69 201 1922 201 1918.69L189 1918.69ZM201 1917.68C201 1914.36 198.314 1911.68 195 1911.68C191.686 1911.68 189 1914.36 189 1917.68L201 1917.68ZM189 1892.5C189 1895.82 191.686 1898.5 195 1898.5C198.314 1898.5 201 1895.82 201 1892.5L189 1892.5ZM201 1891.5C201 1888.18 198.314 1885.5 195 1885.5C191.686 1885.5 189 1888.18 189 1891.5L201 1891.5ZM189 1866.32C189 1869.64 191.686 1872.32 195 1872.32C198.314 1872.32 201 1869.64 201 1866.32L189 1866.32ZM201 1865.31C201 1862 198.314 1859.31 195 1859.31C191.686 1859.31 189 1862 189 1865.31L201 1865.31ZM189 1840.14C189 1843.45 191.686 1846.14 195 1846.14C198.314 1846.14 201 1843.45 201 1840.14L189 1840.14ZM201 1839.13C201 1835.82 198.314 1833.13 195 1833.13C191.686 1833.13 189 1835.82 189 1839.13L201 1839.13ZM189 1813.96C189 1817.27 191.686 1819.96 195 1819.96C198.314 1819.96 201 1817.27 201 1813.96L189 1813.96ZM201 1812.95C201 1809.64 198.314 1806.95 195 1806.95C191.686 1806.95 189 1809.64 189 1812.95L201 1812.95ZM189 1787.78C189 1791.09 191.686 1793.78 195 1793.78C198.314 1793.78 201 1791.09 201 1787.78L189 1787.78ZM201 1786.77C201 1783.46 198.314 1780.77 195 1780.77C191.686 1780.77 189 1783.46 189 1786.77L201 1786.77ZM189 1761.59C189 1764.91 191.686 1767.59 195 1767.59C198.314 1767.59 201 1764.91 201 1761.59L189 1761.59ZM201 1760.59C201 1757.27 198.314 1754.59 195 1754.59C191.686 1754.59 189 1757.27 189 1760.59L201 1760.59ZM189 1735.41C189 1738.73 191.686 1741.41 195 1741.41C198.314 1741.41 201 1738.73 201 1735.41L189 1735.41ZM201 1734.41C201 1731.09 198.314 1728.41 195 1728.41C191.686 1728.41 189 1731.09 189 1734.41L201 1734.41ZM189 1709.23C189 1712.54 191.686 1715.23 195 1715.23C198.314 1715.23 201 1712.54 201 1709.23L189 1709.23ZM201 1708.22C201 1704.91 198.314 1702.22 195 1702.22C191.686 1702.22 189 1704.91 189 1708.22L201 1708.22ZM189 1683.05C189 1686.36 191.686 1689.05 195 1689.05C198.314 1689.05 201 1686.36 201 1683.05L189 1683.05ZM201 1682.04C201 1678.73 198.314 1676.04 195 1676.04C191.686 1676.04 189 1678.73 189 1682.04L201 1682.04ZM189 1656.87C189 1660.18 191.686 1662.87 195 1662.87C198.314 1662.87 201 1660.18 201 1656.87L189 1656.87ZM201 1655.86C201 1652.55 198.314 1649.86 195 1649.86C191.686 1649.86 189 1652.55 189 1655.86L201 1655.86ZM189 1630.69C189 1634 191.686 1636.69 195 1636.69C198.314 1636.69 201 1634 201 1630.69L189 1630.69ZM201 1629.68C201 1626.36 198.314 1623.68 195 1623.68C191.686 1623.68 189 1626.36 189 1629.68L201 1629.68ZM189 1604.5C189 1607.82 191.686 1610.5 195 1610.5C198.314 1610.5 201 1607.82 201 1604.5L189 1604.5ZM201 2180L201 2179.5L189 2179.5L189 2180L201 2180ZM201 2154.32L201 2153.31L189 2153.31L189 2154.32L201 2154.32ZM201 2128.14L201 2127.13L189 2127.13L189 2128.14L201 2128.14ZM201 2101.96L201 2100.95L189 2100.95L189 2101.96L201 2101.96ZM201 2075.78L201 2074.77L189 2074.77L189 2075.78L201 2075.78ZM201 2049.59L201 2048.59L189 2048.59L189 2049.59L201 2049.59ZM201 2023.41L201 2022.41L189 2022.41L189 2023.41L201 2023.41ZM201 1997.23L201 1996.22L189 1996.22L189 1997.23L201 1997.23ZM201 1971.05L201 1970.04L189 1970.04L189 1971.05L201 1971.05ZM201 1944.87L201 1943.86L189 1943.86L189 1944.87L201 1944.87ZM201 1918.69L201 1917.68L189 1917.68L189 1918.69L201 1918.69ZM201 1892.5L201 1891.5L189 1891.5L189 1892.5L201 1892.5ZM201 1866.32L201 1865.31L189 1865.31L189 1866.32L201 1866.32ZM201 1840.14L201 1839.13L189 1839.13L189 1840.14L201 1840.14ZM201 1813.96L201 1812.95L189 1812.95L189 1813.96L201 1813.96ZM201 1787.78L201 1786.77L189 1786.77L189 1787.78L201 1787.78ZM201 1761.59L201 1760.59L189 1760.59L189 1761.59L201 1761.59ZM201 1735.41L201 1734.41L189 1734.41L189 1735.41L201 1735.41ZM201 1709.23L201 1708.22L189 1708.22L189 1709.23L201 1709.23ZM201 1683.05L201 1682.04L189 1682.04L189 1683.05L201 1683.05ZM201 1656.87L201 1655.86L189 1655.86L189 1656.87L201 1656.87ZM201 1630.69L201 1629.68L189 1629.68L189 1630.69L201 1630.69ZM201 1604.5L201 1604H189L189 1604.5L201 1604.5Z" fill="white" fill-opacity="0.5"/>
<path id="Vector 346" d="M202 7C202 3.13401 198.866 0 195 0C191.134 0 188 3.13401 188 7L202 7ZM188 736C188 739.866 191.134 743 195 743C198.866 743 202 739.866 202 736H188ZM188 7.50069C188 11.3667 191.134 14.5007 195 14.5007C198.866 14.5007 202 11.3667 202 7.50069L188 7.50069ZM202 32.535C202 28.669 198.866 25.535 195 25.535C191.134 25.535 188 28.669 188 32.535L202 32.535ZM188 33.5364C188 37.4024 191.134 40.5364 195 40.5364C198.866 40.5364 202 37.4024 202 33.5364L188 33.5364ZM202 58.5707C202 54.7048 198.866 51.5707 195 51.5707C191.134 51.5707 188 54.7048 188 58.5707L202 58.5707ZM188 59.5721C188 63.4381 191.134 66.5721 195 66.5721C198.866 66.5721 202 63.4381 202 59.5721L188 59.5721ZM202 84.6065C202 80.7405 198.866 77.6065 195 77.6065C191.134 77.6065 188 80.7405 188 84.6065L202 84.6065ZM188 85.6078C188 89.4738 191.134 92.6078 195 92.6078C198.866 92.6078 202 89.4738 202 85.6078L188 85.6078ZM202 110.642C202 106.776 198.866 103.642 195 103.642C191.134 103.642 188 106.776 188 110.642L202 110.642ZM188 111.644C188 115.51 191.134 118.644 195 118.644C198.866 118.644 202 115.51 202 111.644L188 111.644ZM202 136.678C202 132.812 198.866 129.678 195 129.678C191.134 129.678 188 132.812 188 136.678H202ZM188 137.679C188 141.545 191.134 144.679 195 144.679C198.866 144.679 202 141.545 202 137.679H188ZM202 162.714C202 158.848 198.866 155.714 195 155.714C191.134 155.714 188 158.848 188 162.714H202ZM188 163.715C188 167.581 191.134 170.715 195 170.715C198.866 170.715 202 167.581 202 163.715H188ZM202 188.749C202 184.883 198.866 181.749 195 181.749C191.134 181.749 188 184.883 188 188.749H202ZM188 189.751C188 193.617 191.134 196.751 195 196.751C198.866 196.751 202 193.617 202 189.751H188ZM202 214.785C202 210.919 198.866 207.785 195 207.785C191.134 207.785 188 210.919 188 214.785H202ZM188 215.786C188 219.652 191.134 222.786 195 222.786C198.866 222.786 202 219.652 202 215.786H188ZM202 240.821C202 236.955 198.866 233.821 195 233.821C191.134 233.821 188 236.955 188 240.821H202ZM188 241.822C188 245.688 191.134 248.822 195 248.822C198.866 248.822 202 245.688 202 241.822H188ZM202 266.856C202 262.99 198.866 259.856 195 259.856C191.134 259.856 188 262.99 188 266.856H202ZM188 267.858C188 271.724 191.134 274.858 195 274.858C198.866 274.858 202 271.724 202 267.858H188ZM202 292.892C202 289.026 198.866 285.892 195 285.892C191.134 285.892 188 289.026 188 292.892H202ZM188 293.893C188 297.759 191.134 300.893 195 300.893C198.866 300.893 202 297.759 202 293.893H188ZM202 318.928C202 315.062 198.866 311.928 195 311.928C191.134 311.928 188 315.062 188 318.928H202ZM188 319.929C188 323.795 191.134 326.929 195 326.929C198.866 326.929 202 323.795 202 319.929H188ZM202 344.964C202 341.098 198.866 337.964 195 337.964C191.134 337.964 188 341.098 188 344.964H202ZM188 345.965C188 349.831 191.134 352.965 195 352.965C198.866 352.965 202 349.831 202 345.965H188ZM202 370.999C202 367.133 198.866 363.999 195 363.999C191.134 363.999 188 367.133 188 370.999H202ZM188 372.001C188 375.867 191.134 379.001 195 379.001C198.866 379.001 202 375.867 202 372.001H188ZM202 397.035C202 393.169 198.866 390.035 195 390.035C191.134 390.035 188 393.169 188 397.035H202ZM188 398.036C188 401.902 191.134 405.036 195 405.036C198.866 405.036 202 401.902 202 398.036H188ZM202 423.071C202 419.205 198.866 416.071 195 416.071C191.134 416.071 188 419.205 188 423.071H202ZM188 424.072C188 427.938 191.134 431.072 195 431.072C198.866 431.072 202 427.938 202 424.072H188ZM202 449.106C202 445.24 198.866 442.106 195 442.106C191.134 442.106 188 445.24 188 449.106H202ZM188 450.108C188 453.974 191.134 457.108 195 457.108C198.866 457.108 202 453.974 202 450.108H188ZM202 475.142C202 471.276 198.866 468.142 195 468.142C191.134 468.142 188 471.276 188 475.142H202ZM188 476.144C188 480.01 191.134 483.144 195 483.144C198.866 483.144 202 480.01 202 476.144H188ZM202 501.178C202 497.312 198.866 494.178 195 494.178C191.134 494.178 188 497.312 188 501.178H202ZM188 502.179C188 506.045 191.134 509.179 195 509.179C198.866 509.179 202 506.045 202 502.179H188ZM202 527.214C202 523.348 198.866 520.214 195 520.214C191.134 520.214 188 523.348 188 527.214H202ZM188 528.215C188 532.081 191.134 535.215 195 535.215C198.866 535.215 202 532.081 202 528.215H188ZM202 553.249C202 549.383 198.866 546.249 195 546.249C191.134 546.249 188 549.383 188 553.249H202ZM188 554.251C188 558.117 191.134 561.251 195 561.251C198.866 561.251 202 558.117 202 554.251H188ZM202 579.285C202 575.419 198.866 572.285 195 572.285C191.134 572.285 188 575.419 188 579.285H202ZM188 580.286C188 584.152 191.134 587.286 195 587.286C198.866 587.286 202 584.152 202 580.286H188ZM202 605.321C202 601.455 198.866 598.321 195 598.321C191.134 598.321 188 601.455 188 605.321H202ZM188 606.322C188 610.188 191.134 613.322 195 613.322C198.866 613.322 202 610.188 202 606.322H188ZM202 631.356C202 627.49 198.866 624.356 195 624.356C191.134 624.356 188 627.49 188 631.356H202ZM188 632.358C188 636.224 191.134 639.358 195 639.358C198.866 639.358 202 636.224 202 632.358H188ZM202 657.392C202 653.526 198.866 650.392 195 650.392C191.134 650.392 188 653.526 188 657.392H202ZM188 658.393C188 662.26 191.134 665.393 195 665.393C198.866 665.393 202 662.26 202 658.393H188ZM202 683.428C202 679.562 198.866 676.428 195 676.428C191.134 676.428 188 679.562 188 683.428H202ZM188 684.429C188 688.295 191.134 691.429 195 691.429C198.866 691.429 202 688.295 202 684.429H188ZM202 709.464C202 705.598 198.866 702.464 195 702.464C191.134 702.464 188 705.598 188 709.464H202ZM188 710.465C188 714.331 191.134 717.465 195 717.465C198.866 717.465 202 714.331 202 710.465H188ZM202 735.499C202 731.633 198.866 728.499 195 728.499C191.134 728.499 188 731.633 188 735.499H202ZM188 7V7.50069L202 7.50069V7L188 7ZM188 32.535V33.5364L202 33.5364V32.535L188 32.535ZM188 58.5707V59.5721L202 59.5721V58.5707L188 58.5707ZM188 84.6065V85.6078L202 85.6078V84.6065L188 84.6065ZM188 110.642L188 111.644L202 111.644L202 110.642L188 110.642ZM188 136.678V137.679H202V136.678H188ZM188 162.714V163.715H202V162.714H188ZM188 188.749V189.751H202V188.749H188ZM188 214.785V215.786H202V214.785H188ZM188 240.821V241.822H202V240.821H188ZM188 266.856V267.858H202V266.856H188ZM188 292.892V293.893H202V292.892H188ZM188 318.928V319.929H202V318.928H188ZM188 344.964V345.965H202V344.964H188ZM188 370.999V371.5H202V370.999H188ZM188 371.5V372.001H202V371.5H188ZM188 397.035V398.036H202V397.035H188ZM188 423.071V424.072H202V423.071H188ZM188 449.106V450.108H202V449.106H188ZM188 475.142V476.144H202V475.142H188ZM188 501.178V502.179H202V501.178H188ZM188 527.214L188 528.215H202L202 527.214H188ZM188 553.249V554.251H202V553.249H188ZM188 579.285V580.286H202V579.285H188ZM188 605.321V606.322H202V605.321H188ZM188 631.356V632.358H202V631.356H188ZM188 657.392V658.393H202V657.392H188ZM188 683.428V684.429H202V683.428H188ZM188 709.464V710.465H202V709.464H188ZM188 735.499V736H202V735.499H188Z" fill="#1767D2"/>
<path id="Vector 339" d="M201 887C201 883.686 198.314 881 195 881C191.686 881 189 883.686 189 887H201ZM189 1443C189 1446.31 191.686 1449 195 1449C198.314 1449 201 1446.31 201 1443L189 1443ZM201 1442.49C201 1439.18 198.314 1436.49 195 1436.49C191.686 1436.49 189 1439.18 189 1442.49L201 1442.49ZM189 1417.03C189 1420.35 191.686 1423.03 195 1423.03C198.314 1423.03 201 1420.35 201 1417.03L189 1417.03ZM201 1416.01C201 1412.7 198.314 1410.01 195 1410.01C191.686 1410.01 189 1412.7 189 1416.01L201 1416.01ZM189 1390.56C189 1393.87 191.686 1396.56 195 1396.56C198.314 1396.56 201 1393.87 201 1390.56L189 1390.56ZM201 1389.54C201 1386.22 198.314 1383.54 195 1383.54C191.686 1383.54 189 1386.22 189 1389.54L201 1389.54ZM189 1364.08C189 1367.39 191.686 1370.08 195 1370.08C198.314 1370.08 201 1367.39 201 1364.08L189 1364.08ZM201 1363.06C201 1359.75 198.314 1357.06 195 1357.06C191.686 1357.06 189 1359.75 189 1363.06L201 1363.06ZM189 1337.6C189 1340.92 191.686 1343.6 195 1343.6C198.314 1343.6 201 1340.92 201 1337.6L189 1337.6ZM201 1336.59C201 1333.27 198.314 1330.59 195 1330.59C191.686 1330.59 189 1333.27 189 1336.59L201 1336.59ZM189 1311.13C189 1314.44 191.686 1317.13 195 1317.13C198.314 1317.13 201 1314.44 201 1311.13L189 1311.13ZM201 1310.11C201 1306.8 198.314 1304.11 195 1304.11C191.686 1304.11 189 1306.8 189 1310.11L201 1310.11ZM189 1284.65C189 1287.97 191.686 1290.65 195 1290.65C198.314 1290.65 201 1287.97 201 1284.65L189 1284.65ZM201 1283.63C201 1280.32 198.314 1277.63 195 1277.63C191.686 1277.63 189 1280.32 189 1283.63L201 1283.63ZM189 1258.18C189 1261.49 191.686 1264.18 195 1264.18C198.314 1264.18 201 1261.49 201 1258.18L189 1258.18ZM201 1257.16C201 1253.84 198.314 1251.16 195 1251.16C191.686 1251.16 189 1253.84 189 1257.16L201 1257.16ZM189 1231.7C189 1235.01 191.686 1237.7 195 1237.7C198.314 1237.7 201 1235.01 201 1231.7L189 1231.7ZM201 1230.68C201 1227.37 198.314 1224.68 195 1224.68C191.686 1224.68 189 1227.37 189 1230.68L201 1230.68ZM189 1205.22C189 1208.54 191.686 1211.22 195 1211.22C198.314 1211.22 201 1208.54 201 1205.22L189 1205.22ZM201 1204.21C201 1200.89 198.314 1198.21 195 1198.21C191.686 1198.21 189 1200.89 189 1204.21L201 1204.21ZM189 1178.75C189 1182.06 191.686 1184.75 195 1184.75C198.314 1184.75 201 1182.06 201 1178.75L189 1178.75ZM201 1177.73C201 1174.42 198.314 1171.73 195 1171.73C191.686 1171.73 189 1174.42 189 1177.73L201 1177.73ZM189 1152.27C189 1155.58 191.686 1158.27 195 1158.27C198.314 1158.27 201 1155.58 201 1152.27L189 1152.27ZM201 1151.25C201 1147.94 198.314 1145.25 195 1145.25C191.686 1145.25 189 1147.94 189 1151.25L201 1151.25ZM189 1125.79C189 1129.11 191.686 1131.79 195 1131.79C198.314 1131.79 201 1129.11 201 1125.79L189 1125.79ZM201 1124.78C201 1121.46 198.314 1118.78 195 1118.78C191.686 1118.78 189 1121.46 189 1124.78L201 1124.78ZM189 1099.32C189 1102.63 191.686 1105.32 195 1105.32C198.314 1105.32 201 1102.63 201 1099.32L189 1099.32ZM201 1098.3C201 1094.99 198.314 1092.3 195 1092.3C191.686 1092.3 189 1094.99 189 1098.3L201 1098.3ZM189 1072.84C189 1076.16 191.686 1078.84 195 1078.84C198.314 1078.84 201 1076.16 201 1072.84L189 1072.84ZM201 1071.82C201 1068.51 198.314 1065.82 195 1065.82C191.686 1065.82 189 1068.51 189 1071.82L201 1071.82ZM189 1046.37C189 1049.68 191.686 1052.37 195 1052.37C198.314 1052.37 201 1049.68 201 1046.37L189 1046.37ZM201 1045.35C201 1042.03 198.314 1039.35 195 1039.35C191.686 1039.35 189 1042.03 189 1045.35L201 1045.35ZM189 1019.89C189 1023.2 191.686 1025.89 195 1025.89C198.314 1025.89 201 1023.2 201 1019.89L189 1019.89ZM201 1018.87C201 1015.56 198.314 1012.87 195 1012.87C191.686 1012.87 189 1015.56 189 1018.87L201 1018.87ZM189 993.414C189 996.728 191.686 999.414 195 999.414C198.314 999.414 201 996.728 201 993.414L189 993.414ZM201 992.396C201 989.082 198.314 986.396 195 986.396C191.686 986.396 189 989.082 189 992.396L201 992.396ZM189 966.938C189 970.251 191.686 972.938 195 972.938C198.314 972.938 201 970.251 201 966.938L189 966.938ZM201 965.919C201 962.606 198.314 959.919 195 959.919C191.686 959.919 189 962.606 189 965.919L201 965.919ZM189 940.462C189 943.775 191.686 946.462 195 946.462C198.314 946.462 201 943.775 201 940.462L189 940.462ZM201 939.443C201 936.13 198.314 933.443 195 933.443C191.686 933.443 189 936.13 189 939.443L201 939.443ZM189 913.985C189 917.299 191.686 919.985 195 919.985C198.314 919.985 201 917.299 201 913.985L189 913.985ZM201 912.967C201 909.653 198.314 906.967 195 906.967C191.686 906.967 189 909.653 189 912.967L201 912.967ZM189 887.509C189 890.823 191.686 893.509 195 893.509C198.314 893.509 201 890.823 201 887.509L189 887.509ZM201 1443L201 1442.49L189 1442.49L189 1443L201 1443ZM201 1417.03L201 1416.01L189 1416.01L189 1417.03L201 1417.03ZM201 1390.56L201 1389.54L189 1389.54L189 1390.56L201 1390.56ZM201 1364.08L201 1363.06L189 1363.06L189 1364.08L201 1364.08ZM201 1337.6L201 1336.59L189 1336.59L189 1337.6L201 1337.6ZM201 1311.13L201 1310.11L189 1310.11L189 1311.13L201 1311.13ZM201 1284.65L201 1283.63L189 1283.63L189 1284.65L201 1284.65ZM201 1258.18L201 1257.16L189 1257.16L189 1258.18L201 1258.18ZM201 1231.7L201 1230.68L189 1230.68L189 1231.7L201 1231.7ZM201 1205.22L201 1204.21L189 1204.21L189 1205.22L201 1205.22ZM201 1178.75L201 1177.73L189 1177.73L189 1178.75L201 1178.75ZM201 1152.27L201 1151.25L189 1151.25L189 1152.27L201 1152.27ZM201 1125.79L201 1124.78L189 1124.78L189 1125.79L201 1125.79ZM201 1099.32L201 1098.3L189 1098.3L189 1099.32L201 1099.32ZM201 1072.84L201 1071.82L189 1071.82L189 1072.84L201 1072.84ZM201 1046.37L201 1045.35L189 1045.35L189 1046.37L201 1046.37ZM201 1019.89L201 1018.87L189 1018.87L189 1019.89L201 1019.89ZM201 993.414L201 992.396L189 992.396L189 993.414L201 993.414ZM201 966.938L201 965.919L189 965.919L189 966.938L201 966.938ZM201 940.462L201 939.443L189 939.443L189 940.462L201 940.462ZM201 913.985L201 912.967L189 912.967L189 913.985L201 913.985ZM201 887.509L201 887H189L189 887.509L201 887.509Z" fill="white" fill-opacity="0.5"/>
<text id="Dopo pi&#195;&#185; di 50 anni siamo arrivati a questo punto" transform="translate(53 803)" fill="white" xml:space="preserve" style="white-space: pre" font-family="Sole24Sans" font-size="18" font-weight="600" letter-spacing="0em"><tspan x="6.37598" y="17.03">Dopo pi&#xf9; di 50 anni siamo arrivati </tspan><tspan x="80.4502" y="39.03">a questo punto</tspan></text>
<text id="Si prevede di ridurre del 55% &#226;&#128;&#168;le emissioni di gas serra" transform="translate(53 1510)" fill="white" xml:space="preserve" style="white-space: pre" font-family="Sole24Sans" font-size="18" font-weight="600" letter-spacing="0em"><tspan x="24.8418" y="17.03">Si prevede di ridurre del 55% &#x2028;</tspan><tspan x="43.0264" y="39.03">le emissioni di  gas serra </tspan></text>
<text id="2030" transform="translate(0 1466)" fill="#1767D2" xml:space="preserve" style="white-space: pre" font-family="Sole24Sans" font-size="32" letter-spacing="0em"><tspan x="157.625" y="30.22">2030 </tspan></text>
<text id="2022" transform="translate(0 759)" fill="#1767D2" xml:space="preserve" style="white-space: pre" font-family="Sole24Sans" font-size="32" font-weight="600" letter-spacing="0em"><tspan x="159.156" y="30.22">2022</tspan></text>
<text id="2050" transform="translate(0 2204)" fill="#1767D2" xml:space="preserve" style="white-space: pre" font-family="Sole24Sans" font-size="32" font-weight="600" letter-spacing="0em"><tspan x="157.75" y="30.22">2050</tspan></text>
</g>
</g>
<g id="Markers / Pinlet Marker with Dot">
<g id="Maps / Markers / Pinlet Marker with Dot">
<g id="Maps / Markers / Pinlet Marker">
<g id="Ellipse 2.1" filter="url(#filter0_f_1304_1123)">
<ellipse cx="173" cy="691" rx="4" ry="2" fill="black" fill-opacity="0.12"/>
</g>
<path id="Union" fill-rule="evenodd" clip-rule="evenodd" d="M211.762 715.293C218.779 710.458 223.333 702.665 223.333 693.875C223.333 679.205 210.648 667.312 195 667.312C179.352 667.312 166.667 679.205 166.667 693.875C166.667 702.665 171.221 710.458 178.238 715.293C183.549 719.044 191.026 724.954 192.794 734.451C192.994 735.531 193.902 736.367 195 736.367C196.098 736.367 197.006 735.531 197.206 734.451C198.974 724.954 206.451 719.045 211.762 715.293Z" fill="#EA352B"/>
</g>
<ellipse id="Ellipse" cx="195" cy="693.875" rx="11.3333" ry="10.625" fill="black" fill-opacity="0.4"/>
</g>
</g>
<g id="Markers / Pinlet Marker with Dot_2">
<g id="Maps / Markers / Pinlet Marker with Dot_2">
<g id="Maps / Markers / Pinlet Marker_2">
<g id="Ellipse 2.1_2" filter="url(#filter1_f_1304_1123)">
<ellipse cx="173" cy="1398" rx="4" ry="2" fill="black" fill-opacity="0.12"/>
</g>
<path id="Union_2" fill-rule="evenodd" clip-rule="evenodd" d="M211.762 1422.29C218.779 1417.46 223.333 1409.67 223.333 1400.88C223.333 1386.2 210.648 1374.31 195 1374.31C179.352 1374.31 166.667 1386.2 166.667 1400.88C166.667 1409.67 171.221 1417.46 178.238 1422.29C183.549 1426.04 191.026 1431.95 192.794 1441.45C192.994 1442.53 193.902 1443.37 195 1443.37C196.098 1443.37 197.006 1442.53 197.206 1441.45C198.974 1431.95 206.451 1426.04 211.762 1422.29Z" fill="#EA352B"/>
</g>
<ellipse id="Ellipse_2" cx="195" cy="1400.88" rx="11.3333" ry="10.625" fill="black" fill-opacity="0.4"/>
</g>
</g>
<g id="Markers / Pinlet Marker with Dot_3">
<g id="Maps / Markers / Pinlet Marker with Dot_3">
<g id="Maps / Markers / Pinlet Marker_3">
<g id="Ellipse 2.1_3" filter="url(#filter2_f_1304_1123)">
<ellipse cx="173" cy="2136" rx="4" ry="2" fill="black" fill-opacity="0.12"/>
</g>
<path id="Union_3" fill-rule="evenodd" clip-rule="evenodd" d="M211.762 2160.29C218.779 2155.46 223.333 2147.67 223.333 2138.88C223.333 2124.2 210.648 2112.31 195 2112.31C179.352 2112.31 166.667 2124.2 166.667 2138.88C166.667 2147.67 171.221 2155.46 178.238 2160.29C183.549 2164.04 191.026 2169.95 192.794 2179.45C192.994 2180.53 193.902 2181.37 195 2181.37C196.098 2181.37 197.006 2180.53 197.206 2179.45C198.974 2169.95 206.451 2164.04 211.762 2160.29Z" fill="#EA352B"/>
</g>
<ellipse id="Ellipse_3" cx="195" cy="2138.88" rx="11.3333" ry="10.625" fill="black" fill-opacity="0.4"/>
</g>
</g>
</g>
<defs>
<filter id="filter0_f_1304_1123" x="167" y="687" width="12" height="8" filterUnits="userSpaceOnUse" color-interpolation-filters="sRGB">
<feFlood flood-opacity="0" result="BackgroundImageFix"/>
<feBlend mode="normal" in="SourceGraphic" in2="BackgroundImageFix" result="shape"/>
<feGaussianBlur stdDeviation="1" result="effect1_foregroundBlur_1304_1123"/>
</filter>
<filter id="filter1_f_1304_1123" x="167" y="1394" width="12" height="8" filterUnits="userSpaceOnUse" color-interpolation-filters="sRGB">
<feFlood flood-opacity="0" result="BackgroundImageFix"/>
<feBlend mode="normal" in="SourceGraphic" in2="BackgroundImageFix" result="shape"/>
<feGaussianBlur stdDeviation="1" result="effect1_foregroundBlur_1304_1123"/>
</filter>
<filter id="filter2_f_1304_1123" x="167" y="2132" width="12" height="8" filterUnits="userSpaceOnUse" color-interpolation-filters="sRGB">
<feFlood flood-opacity="0" result="BackgroundImageFix"/>
<feBlend mode="normal" in="SourceGraphic" in2="BackgroundImageFix" result="shape"/>
<feGaussianBlur stdDeviation="1" result="effect1_foregroundBlur_1304_1123"/>
</filter>
</defs>
</svg>
