<svg width="414" height="552" viewBox="0 0 414 552" fill="none" xmlns="http://www.w3.org/2000/svg">
<g filter="url(#filter0_d_1098_1097)">
<path d="M65 66C65 63.2386 67.2386 61 70 61L344 61C346.761 61 349 63.2386 349 66L349 478C349 480.761 346.761 483 344 483L70 483C67.2386 483 65 480.761 65 478L65 66Z" fill="#1767D2"/>
<path d="M65 66C65 63.2386 67.2386 61 70 61L344 61C346.761 61 349 63.2386 349 66L349 478C349 480.761 346.761 483 344 483L70 483C67.2386 483 65 480.761 65 478L65 66Z" stroke="#1767D2" stroke-width="3"/>
</g>
<path d="M102.07 119.1V114.96H95.17V110.91H104.17V106.59H89.92V126H95.17V119.1H102.07ZM110.948 126V118.83C111.218 116.52 112.358 115.14 114.608 115.14C115.028 115.14 115.628 115.23 116.048 115.35V110.79C115.628 110.64 115.118 110.55 114.548 110.55C112.838 110.55 111.368 112.35 110.738 114.39V111H105.998V126H110.948ZM132.024 126.15L132.234 122.82C131.994 122.85 131.634 122.88 131.424 122.88C130.764 122.88 130.494 122.43 130.494 121.56V116.46C130.494 112.56 128.154 110.55 124.194 110.55C120.714 110.55 118.434 112.29 117.384 114.78L120.894 116.25C121.464 115.14 122.394 114.27 123.654 114.27C124.854 114.27 125.634 115.08 125.634 116.28V116.91L122.514 117.42C118.914 118.05 116.844 119.82 116.844 122.37C116.844 124.77 118.704 126.45 121.314 126.45C123.384 126.45 125.034 125.4 126.054 123.96C126.834 125.76 128.364 126.45 130.164 126.45C130.854 126.45 131.514 126.33 132.024 126.15ZM123.384 123C122.424 123 121.794 122.4 121.794 121.59C121.794 120.63 122.604 120.03 123.834 119.82L125.634 119.52V121.92C125.064 122.55 124.254 123 123.384 123ZM148.431 126V116.37C148.431 113.01 146.271 110.55 143.451 110.55C141.561 110.55 139.941 111.57 138.921 113.16V111H134.181V126H139.131V115.59C139.701 115.02 140.601 114.57 141.501 114.57C142.701 114.57 143.481 115.44 143.481 116.82V126H148.431ZM165.294 121.86L161.124 120.27C160.584 121.5 159.834 122.37 158.574 122.37C157.014 122.37 155.874 120.78 155.874 118.59C155.874 116.28 157.014 114.63 158.604 114.63C159.774 114.63 160.554 115.38 161.004 116.64L165.234 115.02C164.184 112.38 161.724 110.55 158.244 110.55C153.864 110.55 150.714 113.91 150.714 118.62C150.714 123.18 153.834 126.45 158.124 126.45C161.604 126.45 164.244 124.5 165.294 121.86ZM172.237 111H167.287V126H172.237V111ZM172.237 105.36H167.287V109.2H172.237V105.36ZM189.738 126.15L189.948 122.82C189.708 122.85 189.348 122.88 189.138 122.88C188.478 122.88 188.208 122.43 188.208 121.56V116.46C188.208 112.56 185.868 110.55 181.908 110.55C178.428 110.55 176.148 112.29 175.098 114.78L178.608 116.25C179.178 115.14 180.108 114.27 181.368 114.27C182.568 114.27 183.348 115.08 183.348 116.28V116.91L180.228 117.42C176.628 118.05 174.558 119.82 174.558 122.37C174.558 124.77 176.418 126.45 179.028 126.45C181.098 126.45 182.748 125.4 183.768 123.96C184.548 125.76 186.078 126.45 187.878 126.45C188.568 126.45 189.228 126.33 189.738 126.15ZM181.098 123C180.138 123 179.508 122.4 179.508 121.59C179.508 120.63 180.318 120.03 181.548 119.82L183.348 119.52V121.92C182.778 122.55 181.968 123 181.098 123Z" fill="white"/>
<path d="M91.24 163.354H89.584V175H91.24V163.354ZM95.7324 162.328H94.2024V175H95.7324V162.328ZM117.561 169.81C117.561 166.66 114.921 164.62 110.961 164.62C108.981 164.62 107.451 165.13 106.311 165.79L106.611 162.88H116.751V159.01H103.161L102.651 168.34L105.801 169.09C106.551 168.58 107.991 168.19 109.401 168.19C111.261 168.19 112.401 168.91 112.401 169.99C112.401 171.07 111.231 171.88 109.401 171.88C107.691 171.88 106.161 171.25 105.321 170.23L101.961 172.06C103.461 174.25 106.341 175.45 109.881 175.45C114.381 175.45 117.561 173.05 117.561 169.81ZM134.7 169.81C134.7 166.66 132.06 164.62 128.1 164.62C126.12 164.62 124.59 165.13 123.45 165.79L123.75 162.88H133.89V159.01H120.3L119.79 168.34L122.94 169.09C123.69 168.58 125.13 168.19 126.54 168.19C128.4 168.19 129.54 168.91 129.54 169.99C129.54 171.07 128.37 171.88 126.54 171.88C124.83 171.88 123.3 171.25 122.46 170.23L119.1 172.06C120.6 174.25 123.48 175.45 127.02 175.45C131.52 175.45 134.7 173.05 134.7 169.81ZM155.949 156.55L154.539 155.14C153.159 156.28 151.059 157 148.929 157C147.369 157 145.659 156.7 144.459 156.28C143.619 155.56 142.509 155.14 141.249 155.14C138.369 155.14 136.299 157.3 136.299 160.27C136.299 163.24 138.369 165.37 141.249 165.37C144.129 165.37 146.199 163.24 146.199 160.27C146.199 159.67 146.109 159.07 145.959 158.56C146.889 158.98 147.939 159.22 148.869 159.22C149.739 159.19 150.699 158.92 151.659 158.41L137.859 174.01L139.329 175.45L155.949 156.55ZM157.629 170.35C157.629 167.38 155.559 165.22 152.679 165.22C149.799 165.22 147.729 167.38 147.729 170.35C147.729 173.32 149.799 175.45 152.679 175.45C155.559 175.45 157.629 173.32 157.629 170.35ZM150.999 170.35C150.999 168.94 151.719 167.92 152.679 167.92C153.669 167.92 154.359 168.94 154.359 170.35C154.359 171.73 153.669 172.72 152.679 172.72C151.719 172.72 150.999 171.73 150.999 170.35ZM139.569 160.27C139.569 158.86 140.289 157.84 141.249 157.84C142.239 157.84 142.929 158.86 142.929 160.27C142.929 161.65 142.239 162.64 141.249 162.64C140.289 162.64 139.569 161.65 139.569 160.27ZM167.452 173.956C165.958 173.956 164.896 172.534 164.896 170.59C164.896 168.592 166.012 167.134 167.56 167.134C168.514 167.134 169.396 167.566 169.864 168.25V172.66C169.342 173.434 168.388 173.956 167.452 173.956ZM171.394 175V162.328H169.864V167.044C169.252 166.324 168.208 165.838 167.236 165.838C164.932 165.838 163.258 167.836 163.258 170.608C163.258 173.29 164.878 175.234 167.11 175.234C168.136 175.234 169.288 174.604 169.954 173.722V175H171.394ZM181.335 172.966L180.111 172.498C179.643 173.416 178.779 173.974 177.807 173.974C176.313 173.974 175.233 172.732 175.125 170.86H181.317C181.371 170.626 181.407 170.14 181.407 169.744C181.407 167.458 179.841 165.838 177.663 165.838C175.287 165.838 173.523 167.854 173.523 170.608C173.523 173.308 175.287 175.234 177.717 175.234C179.319 175.234 180.705 174.388 181.335 172.966ZM177.681 167.08C178.941 167.08 179.823 168.088 179.877 169.636H175.215C175.485 168.088 176.439 167.08 177.681 167.08ZM185.088 166.072H183.558V175H185.088V166.072ZM185.088 162.526H183.558V164.308H185.088V162.526ZM198.943 172.804L197.647 172.3C197.215 173.29 196.495 173.92 195.505 173.92C194.047 173.92 192.985 172.534 192.985 170.608C192.985 168.592 194.011 167.134 195.433 167.134C196.333 167.134 197.107 167.692 197.539 168.736L198.871 168.196C198.241 166.756 197.035 165.838 195.397 165.838C193.057 165.838 191.365 167.836 191.365 170.608C191.365 173.29 193.075 175.234 195.451 175.234C197.089 175.234 198.367 174.208 198.943 172.804ZM202.332 166.072H200.802V175H202.332V166.072ZM202.332 162.526H200.802V164.308H202.332V162.526ZM210.185 174.946V173.668C209.807 173.812 209.177 173.92 208.619 173.92C207.485 173.92 207.035 173.362 207.035 172.516V167.332H210.131V166.072H207.035V163.894H205.505V166.072H204.191V167.332H205.505V172.768C205.505 174.334 206.567 175.234 208.349 175.234C209.015 175.234 209.789 175.09 210.185 174.946ZM216.97 174.946V173.668C216.592 173.812 215.962 173.92 215.404 173.92C214.27 173.92 213.82 173.362 213.82 172.516V167.332H216.916V166.072H213.82V163.894H212.29V166.072H210.976V167.332H212.29V172.768C212.29 174.334 213.352 175.234 215.134 175.234C215.8 175.234 216.574 175.09 216.97 174.946ZM226.077 175.144L226.149 173.974C226.041 173.992 225.861 174.01 225.753 174.01C225.213 174.01 224.943 173.632 224.943 173.146V169.042C224.943 166.972 223.683 165.838 221.739 165.838C220.191 165.838 218.841 166.702 218.193 168.106L219.381 168.592C219.831 167.746 220.533 167.116 221.595 167.116C222.693 167.116 223.413 167.872 223.413 168.988V169.69L221.325 169.942C219.345 170.194 217.941 171.148 217.941 172.804C217.941 174.226 219.075 175.234 220.659 175.234C221.919 175.234 222.909 174.622 223.485 173.668C223.701 174.694 224.367 175.234 225.375 175.234C225.645 175.234 225.861 175.198 226.077 175.144ZM221.073 173.992C220.173 173.992 219.543 173.452 219.543 172.696C219.543 171.778 220.407 171.238 221.595 171.094L223.413 170.878V172.516C222.945 173.38 222.063 173.992 221.073 173.992ZM231.33 173.956C229.836 173.956 228.774 172.534 228.774 170.59C228.774 168.592 229.89 167.134 231.438 167.134C232.392 167.134 233.274 167.566 233.742 168.25V172.66C233.22 173.434 232.266 173.956 231.33 173.956ZM235.272 175V162.328H233.742V167.044C233.13 166.324 232.086 165.838 231.114 165.838C228.81 165.838 227.136 167.836 227.136 170.608C227.136 173.29 228.756 175.234 230.988 175.234C232.014 175.234 233.166 174.604 233.832 173.722V175H235.272ZM239.58 166.072H238.05V175H239.58V166.072ZM239.58 162.526H238.05V164.308H239.58V162.526ZM249.863 175V169.096C249.863 167.188 248.531 165.838 246.785 165.838C245.507 165.838 244.427 166.594 243.833 167.44V166.072H242.357V175H243.887V168.52C244.445 167.728 245.417 167.134 246.425 167.134C247.541 167.134 248.333 167.962 248.333 169.204V175H249.863ZM254.064 166.072H252.534V175H254.064V166.072ZM254.064 162.526H252.534V164.308H254.064V162.526ZM96.784 197.144L96.856 195.974C96.748 195.992 96.568 196.01 96.46 196.01C95.92 196.01 95.65 195.632 95.65 195.146V191.042C95.65 188.972 94.39 187.838 92.446 187.838C90.898 187.838 89.548 188.702 88.9 190.106L90.088 190.592C90.538 189.746 91.24 189.116 92.302 189.116C93.4 189.116 94.12 189.872 94.12 190.988V191.69L92.032 191.942C90.052 192.194 88.648 193.148 88.648 194.804C88.648 196.226 89.782 197.234 91.366 197.234C92.626 197.234 93.616 196.622 94.192 195.668C94.408 196.694 95.074 197.234 96.082 197.234C96.352 197.234 96.568 197.198 96.784 197.144ZM91.78 195.992C90.88 195.992 90.25 195.452 90.25 194.696C90.25 193.778 91.114 193.238 92.302 193.094L94.12 192.878V194.516C93.652 195.38 92.77 195.992 91.78 195.992ZM103.729 189.332V188.072H100.471V187.712C100.471 186.236 101.209 185.372 102.397 185.372C102.883 185.372 103.477 185.462 103.873 185.624L103.909 184.346C103.495 184.22 102.775 184.094 102.235 184.094C100.183 184.094 98.9415 185.444 98.9415 187.73V188.072H97.7895V189.332H98.9415V197H100.471V189.332H103.729ZM110.55 189.332V188.072H107.292V187.712C107.292 186.236 108.03 185.372 109.218 185.372C109.704 185.372 110.298 185.462 110.694 185.624L110.73 184.346C110.316 184.22 109.596 184.094 109.056 184.094C107.004 184.094 105.762 185.444 105.762 187.73V188.072H104.61V189.332H105.762V197H107.292V189.332H110.55ZM118.839 194.966L117.615 194.498C117.147 195.416 116.283 195.974 115.311 195.974C113.817 195.974 112.737 194.732 112.629 192.86H118.821C118.875 192.626 118.911 192.14 118.911 191.744C118.911 189.458 117.345 187.838 115.167 187.838C112.791 187.838 111.027 189.854 111.027 192.608C111.027 195.308 112.791 197.234 115.221 197.234C116.823 197.234 118.209 196.388 118.839 194.966ZM115.185 189.08C116.445 189.08 117.327 190.088 117.381 191.636H112.719C112.989 190.088 113.943 189.08 115.185 189.08ZM122.592 197V191.672C122.736 190.484 123.456 189.368 124.842 189.368C125.148 189.368 125.58 189.422 125.832 189.494V187.982C125.652 187.91 125.22 187.838 124.914 187.838C123.87 187.838 122.898 188.756 122.538 189.89V188.072H121.062V197H122.592ZM140.111 197V191.096C140.111 189.188 138.815 187.838 137.141 187.838C135.953 187.838 134.909 188.558 134.279 189.512C133.793 188.486 132.857 187.838 131.759 187.838C130.571 187.838 129.581 188.594 129.059 189.44V188.072H127.583V197H129.113V190.484C129.617 189.728 130.481 189.134 131.363 189.134C132.353 189.134 133.073 189.962 133.073 191.204V197H134.603V191.096C134.603 190.826 134.585 190.574 134.531 190.322C135.071 189.638 135.935 189.134 136.799 189.134C137.825 189.134 138.581 189.962 138.581 191.204V197H140.111ZM150.151 197.144L150.223 195.974C150.115 195.992 149.935 196.01 149.827 196.01C149.287 196.01 149.017 195.632 149.017 195.146V191.042C149.017 188.972 147.757 187.838 145.813 187.838C144.265 187.838 142.915 188.702 142.267 190.106L143.455 190.592C143.905 189.746 144.607 189.116 145.669 189.116C146.767 189.116 147.487 189.872 147.487 190.988V191.69L145.399 191.942C143.419 192.194 142.015 193.148 142.015 194.804C142.015 196.226 143.149 197.234 144.733 197.234C145.993 197.234 146.983 196.622 147.559 195.668C147.775 196.694 148.441 197.234 149.449 197.234C149.719 197.234 149.935 197.198 150.151 197.144ZM145.147 195.992C144.247 195.992 143.617 195.452 143.617 194.696C143.617 193.778 144.481 193.238 145.669 193.094L147.487 192.878V194.516C147.019 195.38 146.137 195.992 145.147 195.992ZM162.937 194.804L161.641 194.3C161.209 195.29 160.489 195.92 159.499 195.92C158.041 195.92 156.979 194.534 156.979 192.608C156.979 190.592 158.005 189.134 159.427 189.134C160.327 189.134 161.101 189.692 161.533 190.736L162.865 190.196C162.235 188.756 161.029 187.838 159.391 187.838C157.051 187.838 155.359 189.836 155.359 192.608C155.359 195.29 157.069 197.234 159.445 197.234C161.083 197.234 162.361 196.208 162.937 194.804ZM172.302 197V191.114C172.302 189.188 170.97 187.838 169.224 187.838C167.982 187.838 166.92 188.54 166.326 189.368V184.328H164.796V197H166.326V190.52C166.884 189.728 167.856 189.134 168.864 189.134C169.98 189.134 170.772 189.962 170.772 191.204V197H172.302ZM182.138 194.966L180.914 194.498C180.446 195.416 179.582 195.974 178.61 195.974C177.116 195.974 176.036 194.732 175.928 192.86H182.12C182.174 192.626 182.21 192.14 182.21 191.744C182.21 189.458 180.644 187.838 178.466 187.838C176.09 187.838 174.326 189.854 174.326 192.608C174.326 195.308 176.09 197.234 178.52 197.234C180.122 197.234 181.508 196.388 182.138 194.966ZM178.484 189.08C179.744 189.08 180.626 190.088 180.68 191.636H176.018C176.288 190.088 177.242 189.08 178.484 189.08ZM190.039 184.328H188.509V197H190.039V184.328ZM200.214 197.144L200.286 195.974C200.178 195.992 199.998 196.01 199.89 196.01C199.35 196.01 199.08 195.632 199.08 195.146V191.042C199.08 188.972 197.82 187.838 195.876 187.838C194.328 187.838 192.978 188.702 192.33 190.106L193.518 190.592C193.968 189.746 194.67 189.116 195.732 189.116C196.83 189.116 197.55 189.872 197.55 190.988V191.69L195.462 191.942C193.482 192.194 192.078 193.148 192.078 194.804C192.078 196.226 193.212 197.234 194.796 197.234C196.056 197.234 197.046 196.622 197.622 195.668C197.838 196.694 198.504 197.234 199.512 197.234C199.782 197.234 199.998 197.198 200.214 197.144ZM195.21 195.992C194.31 195.992 193.68 195.452 193.68 194.696C193.68 193.778 194.544 193.238 195.732 193.094L197.55 192.878V194.516C197.082 195.38 196.2 195.992 195.21 195.992ZM94.462 218.946V217.668C94.084 217.812 93.454 217.92 92.896 217.92C91.762 217.92 91.312 217.362 91.312 216.516V211.332H94.408V210.072H91.312V207.894H89.782V210.072H88.468V211.332H89.782V216.768C89.782 218.334 90.844 219.234 92.626 219.234C93.292 219.234 94.066 219.09 94.462 218.946ZM97.7012 219V213.672C97.8452 212.484 98.5652 211.368 99.9512 211.368C100.257 211.368 100.689 211.422 100.941 211.494V209.982C100.761 209.91 100.329 209.838 100.023 209.838C98.9792 209.838 98.0072 210.756 97.6472 211.89V210.072H96.1712V219H97.7012ZM109.88 219.144L109.952 217.974C109.844 217.992 109.664 218.01 109.556 218.01C109.016 218.01 108.746 217.632 108.746 217.146V213.042C108.746 210.972 107.486 209.838 105.542 209.838C103.994 209.838 102.644 210.702 101.996 212.106L103.184 212.592C103.634 211.746 104.336 211.116 105.398 211.116C106.496 211.116 107.216 211.872 107.216 212.988V213.69L105.128 213.942C103.148 214.194 101.744 215.148 101.744 216.804C101.744 218.226 102.878 219.234 104.462 219.234C105.722 219.234 106.712 218.622 107.288 217.668C107.504 218.694 108.17 219.234 109.178 219.234C109.448 219.234 109.664 219.198 109.88 219.144ZM104.876 217.992C103.976 217.992 103.346 217.452 103.346 216.696C103.346 215.778 104.21 215.238 105.398 215.094L107.216 214.878V216.516C106.748 217.38 105.866 217.992 104.876 217.992ZM119.093 219V213.096C119.093 211.188 117.761 209.838 116.015 209.838C114.737 209.838 113.657 210.594 113.063 211.44V210.072H111.587V219H113.117V212.52C113.675 211.728 114.647 211.134 115.655 211.134C116.771 211.134 117.563 211.962 117.563 213.204V219H119.093ZM128.587 216.552C128.587 214.896 127.183 214.212 125.167 213.78C123.655 213.438 122.791 213.168 122.791 212.376C122.791 211.62 123.637 211.098 124.825 211.098C126.067 211.098 126.895 211.62 127.309 212.484L128.533 211.998C128.011 210.9 126.913 209.838 124.843 209.838C122.737 209.838 121.297 210.954 121.297 212.466C121.297 214.014 122.755 214.734 124.735 215.148C126.265 215.472 127.111 215.778 127.111 216.624C127.111 217.434 126.355 217.992 125.041 217.992C123.547 217.992 122.593 217.326 122.143 216.444L120.883 216.93C121.495 218.334 122.935 219.234 124.969 219.234C127.237 219.234 128.587 218.136 128.587 216.552ZM132.207 210.072H130.677V219H132.207V210.072ZM132.207 206.526H130.677V208.308H132.207V206.526ZM134.372 211.404H139.178L134.246 217.812V219H141.23V217.668H136.082L141.14 211.26V210.072H134.372V211.404ZM144.775 210.072H143.245V219H144.775V210.072ZM144.775 206.526H143.245V208.308H144.775V206.526ZM155.544 214.554C155.544 211.818 153.726 209.838 151.224 209.838C148.722 209.838 146.886 211.818 146.886 214.554C146.886 217.254 148.722 219.234 151.224 219.234C153.726 219.234 155.544 217.254 155.544 214.554ZM148.506 214.554C148.506 212.574 149.64 211.116 151.224 211.116C152.79 211.116 153.924 212.574 153.924 214.554C153.924 216.498 152.79 217.938 151.224 217.938C149.64 217.938 148.506 216.498 148.506 214.554ZM165.148 219V213.096C165.148 211.188 163.816 209.838 162.07 209.838C160.792 209.838 159.712 210.594 159.118 211.44V210.072H157.642V219H159.172V212.52C159.73 211.728 160.702 211.134 161.71 211.134C162.826 211.134 163.618 211.962 163.618 213.204V219H165.148ZM174.984 216.966L173.76 216.498C173.292 217.416 172.428 217.974 171.456 217.974C169.962 217.974 168.882 216.732 168.774 214.86H174.966C175.02 214.626 175.056 214.14 175.056 213.744C175.056 211.458 173.49 209.838 171.312 209.838C168.936 209.838 167.172 211.854 167.172 214.608C167.172 217.308 168.936 219.234 171.366 219.234C172.968 219.234 174.354 218.388 174.984 216.966ZM171.33 211.08C172.59 211.08 173.472 212.088 173.526 213.636H168.864C169.134 212.088 170.088 211.08 171.33 211.08ZM188.519 216.966L187.295 216.498C186.827 217.416 185.963 217.974 184.991 217.974C183.497 217.974 182.417 216.732 182.309 214.86H188.501C188.555 214.626 188.591 214.14 188.591 213.744C188.591 211.458 187.025 209.838 184.847 209.838C182.471 209.838 180.707 211.854 180.707 214.608C180.707 217.308 182.471 219.234 184.901 219.234C186.503 219.234 187.889 218.388 188.519 216.966ZM184.865 211.08C186.125 211.08 187.007 212.088 187.061 213.636H182.399C182.669 212.088 183.623 211.08 184.865 211.08ZM197.671 216.804L196.375 216.3C195.943 217.29 195.223 217.92 194.233 217.92C192.775 217.92 191.713 216.534 191.713 214.608C191.713 212.592 192.739 211.134 194.161 211.134C195.061 211.134 195.835 211.692 196.267 212.736L197.599 212.196C196.969 210.756 195.763 209.838 194.125 209.838C191.785 209.838 190.093 211.836 190.093 214.608C190.093 217.29 191.803 219.234 194.179 219.234C195.817 219.234 197.095 218.208 197.671 216.804ZM207.523 214.554C207.523 211.818 205.705 209.838 203.203 209.838C200.701 209.838 198.865 211.818 198.865 214.554C198.865 217.254 200.701 219.234 203.203 219.234C205.705 219.234 207.523 217.254 207.523 214.554ZM200.485 214.554C200.485 212.574 201.619 211.116 203.203 211.116C204.769 211.116 205.903 212.574 205.903 214.554C205.903 216.498 204.769 217.938 203.203 217.938C201.619 217.938 200.485 216.498 200.485 214.554ZM211.15 206.328H209.62V219H211.15V206.328ZM221.919 214.554C221.919 211.818 220.101 209.838 217.599 209.838C215.097 209.838 213.261 211.818 213.261 214.554C213.261 217.254 215.097 219.234 217.599 219.234C220.101 219.234 221.919 217.254 221.919 214.554ZM214.881 214.554C214.881 212.574 216.015 211.116 217.599 211.116C219.165 211.116 220.299 212.574 220.299 214.554C220.299 216.498 219.165 217.938 217.599 217.938C216.015 217.938 214.881 216.498 214.881 214.554ZM231.757 219.594C231.757 218.298 230.803 217.614 228.769 217.434L227.509 217.326C226.249 217.218 225.799 217.002 225.799 216.732C225.799 216.516 225.997 216.21 226.177 216.012C226.483 216.084 226.825 216.12 227.149 216.12C229.093 216.12 230.677 214.86 230.677 213.114C230.677 212.466 230.479 211.854 230.101 211.332C230.587 211.08 231.361 210.864 232.081 210.864V209.496C230.983 209.496 230.119 210.018 229.579 210.756C228.931 210.198 228.049 209.838 227.041 209.838C225.043 209.838 223.477 211.206 223.477 213.006C223.477 214.284 224.269 215.256 225.385 215.76C224.809 216.156 224.323 216.768 224.323 217.182C224.323 217.542 224.575 217.848 225.025 218.082C223.909 218.55 223.099 219.36 223.099 220.17C223.099 221.646 224.737 222.51 227.239 222.51C230.011 222.51 231.757 221.286 231.757 219.594ZM227.257 221.34C225.583 221.34 224.629 220.728 224.629 219.936C224.629 219.324 225.187 218.73 225.943 218.406C226.303 218.496 226.717 218.568 227.185 218.604L228.445 218.712C229.885 218.838 230.245 219.18 230.245 219.828C230.245 220.674 229.075 221.34 227.257 221.34ZM225.007 213.024C225.007 211.89 225.871 211.008 227.059 211.008C228.247 211.008 229.147 211.89 229.147 213.024C229.147 214.14 228.247 214.95 227.059 214.95C225.871 214.95 225.007 214.14 225.007 213.024ZM235.303 210.072H233.773V219H235.303V210.072ZM235.303 206.526H233.773V208.308H235.303V206.526ZM245.009 216.804L243.713 216.3C243.281 217.29 242.561 217.92 241.571 217.92C240.113 217.92 239.051 216.534 239.051 214.608C239.051 212.592 240.077 211.134 241.499 211.134C242.399 211.134 243.173 211.692 243.605 212.736L244.937 212.196C244.307 210.756 243.101 209.838 241.463 209.838C239.123 209.838 237.431 211.836 237.431 214.608C237.431 217.29 239.141 219.234 241.517 219.234C243.155 219.234 244.433 218.208 245.009 216.804ZM254.266 219.144L254.338 217.974C254.23 217.992 254.05 218.01 253.942 218.01C253.402 218.01 253.132 217.632 253.132 217.146V213.042C253.132 210.972 251.872 209.838 249.928 209.838C248.38 209.838 247.03 210.702 246.382 212.106L247.57 212.592C248.02 211.746 248.722 211.116 249.784 211.116C250.882 211.116 251.602 211.872 251.602 212.988V213.69L249.514 213.942C247.534 214.194 246.13 215.148 246.13 216.804C246.13 218.226 247.264 219.234 248.848 219.234C250.108 219.234 251.098 218.622 251.674 217.668C251.89 218.694 252.556 219.234 253.564 219.234C253.834 219.234 254.05 219.198 254.266 219.144ZM249.262 217.992C248.362 217.992 247.732 217.452 247.732 216.696C247.732 215.778 248.596 215.238 249.784 215.094L251.602 214.878V216.516C251.134 217.38 250.252 217.992 249.262 217.992ZM96.208 238.552C96.208 236.896 94.804 236.212 92.788 235.78C91.276 235.438 90.412 235.168 90.412 234.376C90.412 233.62 91.258 233.098 92.446 233.098C93.688 233.098 94.516 233.62 94.93 234.484L96.154 233.998C95.632 232.9 94.534 231.838 92.464 231.838C90.358 231.838 88.918 232.954 88.918 234.466C88.918 236.014 90.376 236.734 92.356 237.148C93.886 237.472 94.732 237.778 94.732 238.624C94.732 239.434 93.976 239.992 92.662 239.992C91.168 239.992 90.214 239.326 89.764 238.444L88.504 238.93C89.116 240.334 90.556 241.234 92.59 241.234C94.858 241.234 96.208 240.136 96.208 238.552ZM105.696 241.144L105.768 239.974C105.66 239.992 105.48 240.01 105.372 240.01C104.832 240.01 104.562 239.632 104.562 239.146V235.042C104.562 232.972 103.302 231.838 101.358 231.838C99.8101 231.838 98.4601 232.702 97.8121 234.106L99.0001 234.592C99.4501 233.746 100.152 233.116 101.214 233.116C102.312 233.116 103.032 233.872 103.032 234.988V235.69L100.944 235.942C98.9641 236.194 97.5601 237.148 97.5601 238.804C97.5601 240.226 98.6941 241.234 100.278 241.234C101.538 241.234 102.528 240.622 103.104 239.668C103.32 240.694 103.986 241.234 104.994 241.234C105.264 241.234 105.48 241.198 105.696 241.144ZM100.692 239.992C99.7921 239.992 99.1621 239.452 99.1621 238.696C99.1621 237.778 100.026 237.238 101.214 237.094L103.032 236.878V238.516C102.564 239.38 101.682 239.992 100.692 239.992ZM108.934 241V235.672C109.078 234.484 109.798 233.368 111.184 233.368C111.49 233.368 111.922 233.422 112.174 233.494V231.982C111.994 231.91 111.562 231.838 111.256 231.838C110.212 231.838 109.24 232.756 108.88 233.89V232.072H107.404V241H108.934ZM121.112 241.144L121.184 239.974C121.076 239.992 120.896 240.01 120.788 240.01C120.248 240.01 119.978 239.632 119.978 239.146V235.042C119.978 232.972 118.718 231.838 116.774 231.838C115.226 231.838 113.876 232.702 113.228 234.106L114.416 234.592C114.866 233.746 115.568 233.116 116.63 233.116C117.728 233.116 118.448 233.872 118.448 234.988V235.69L116.36 235.942C114.38 236.194 112.976 237.148 112.976 238.804C112.976 240.226 114.11 241.234 115.694 241.234C116.954 241.234 117.944 240.622 118.52 239.668C118.736 240.694 119.402 241.234 120.41 241.234C120.68 241.234 120.896 241.198 121.112 241.144ZM116.108 239.992C115.208 239.992 114.578 239.452 114.578 238.696C114.578 237.778 115.442 237.238 116.63 237.094L118.448 236.878V238.516C117.98 239.38 117.098 239.992 116.108 239.992ZM117.962 230.146L115.262 227.662L114.218 228.904L117.188 231.082L117.962 230.146ZM132.206 233.332V232.072H128.948V231.712C128.948 230.236 129.686 229.372 130.874 229.372C131.36 229.372 131.954 229.462 132.35 229.624L132.386 228.346C131.972 228.22 131.252 228.094 130.712 228.094C128.66 228.094 127.418 229.444 127.418 231.73V232.072H126.266V233.332H127.418V241H128.948V233.332H132.206ZM141.323 236.554C141.323 233.818 139.505 231.838 137.003 231.838C134.501 231.838 132.665 233.818 132.665 236.554C132.665 239.254 134.501 241.234 137.003 241.234C139.505 241.234 141.323 239.254 141.323 236.554ZM134.285 236.554C134.285 234.574 135.419 233.116 137.003 233.116C138.569 233.116 139.703 234.574 139.703 236.554C139.703 238.498 138.569 239.938 137.003 239.938C135.419 239.938 134.285 238.498 134.285 236.554ZM150.927 241V235.096C150.927 233.188 149.595 231.838 147.849 231.838C146.571 231.838 145.491 232.594 144.897 233.44V232.072H143.421V241H144.951V234.52C145.509 233.728 146.481 233.134 147.489 233.134C148.605 233.134 149.397 233.962 149.397 235.204V241H150.927ZM158.569 240.946V239.668C158.191 239.812 157.561 239.92 157.003 239.92C155.869 239.92 155.419 239.362 155.419 238.516V233.332H158.515V232.072H155.419V229.894H153.889V232.072H152.575V233.332H153.889V238.768C153.889 240.334 154.951 241.234 156.733 241.234C157.399 241.234 158.173 241.09 158.569 240.946ZM167.355 238.966L166.131 238.498C165.663 239.416 164.799 239.974 163.827 239.974C162.333 239.974 161.253 238.732 161.145 236.86H167.337C167.391 236.626 167.427 236.14 167.427 235.744C167.427 233.458 165.861 231.838 163.683 231.838C161.307 231.838 159.543 233.854 159.543 236.608C159.543 239.308 161.307 241.234 163.737 241.234C165.339 241.234 166.725 240.388 167.355 238.966ZM163.701 233.08C164.961 233.08 165.843 234.088 165.897 235.636H161.235C161.505 234.088 162.459 233.08 163.701 233.08ZM177.272 239.956C175.778 239.956 174.716 238.534 174.716 236.59C174.716 234.592 175.832 233.134 177.38 233.134C178.334 233.134 179.216 233.566 179.684 234.25V238.66C179.162 239.434 178.208 239.956 177.272 239.956ZM181.214 241V228.328H179.684V233.044C179.072 232.324 178.028 231.838 177.056 231.838C174.752 231.838 173.078 233.836 173.078 236.608C173.078 239.29 174.698 241.234 176.93 241.234C177.956 241.234 179.108 240.604 179.774 239.722V241H181.214ZM185.521 232.072H183.991V241H185.521V232.072ZM185.521 228.526H183.991V230.308H185.521V228.526ZM199.377 238.804L198.081 238.3C197.649 239.29 196.929 239.92 195.939 239.92C194.481 239.92 193.419 238.534 193.419 236.608C193.419 234.592 194.445 233.134 195.867 233.134C196.767 233.134 197.541 233.692 197.973 234.736L199.305 234.196C198.675 232.756 197.469 231.838 195.831 231.838C193.491 231.838 191.799 233.836 191.799 236.608C191.799 239.29 193.509 241.234 195.885 241.234C197.523 241.234 198.801 240.208 199.377 238.804ZM202.766 241V235.672C202.91 234.484 203.63 233.368 205.016 233.368C205.322 233.368 205.754 233.422 206.006 233.494V231.982C205.826 231.91 205.394 231.838 205.088 231.838C204.044 231.838 203.072 232.756 202.712 233.89V232.072H201.236V241H202.766ZM214.675 238.966L213.451 238.498C212.983 239.416 212.119 239.974 211.147 239.974C209.653 239.974 208.573 238.732 208.465 236.86H214.657C214.711 236.626 214.747 236.14 214.747 235.744C214.747 233.458 213.181 231.838 211.003 231.838C208.627 231.838 206.863 233.854 206.863 236.608C206.863 239.308 208.627 241.234 211.057 241.234C212.659 241.234 214.045 240.388 214.675 238.966ZM211.021 233.08C212.281 233.08 213.163 234.088 213.217 235.636H208.555C208.825 234.088 209.779 233.08 211.021 233.08ZM223.72 238.552C223.72 236.896 222.316 236.212 220.3 235.78C218.788 235.438 217.924 235.168 217.924 234.376C217.924 233.62 218.77 233.098 219.958 233.098C221.2 233.098 222.028 233.62 222.442 234.484L223.666 233.998C223.144 232.9 222.046 231.838 219.976 231.838C217.87 231.838 216.43 232.954 216.43 234.466C216.43 236.014 217.888 236.734 219.868 237.148C221.398 237.472 222.244 237.778 222.244 238.624C222.244 239.434 221.488 239.992 220.174 239.992C218.68 239.992 217.726 239.326 217.276 238.444L216.016 238.93C216.628 240.334 218.068 241.234 220.102 241.234C222.37 241.234 223.72 240.136 223.72 238.552ZM232.74 238.804L231.444 238.3C231.012 239.29 230.292 239.92 229.302 239.92C227.844 239.92 226.782 238.534 226.782 236.608C226.782 234.592 227.808 233.134 229.23 233.134C230.13 233.134 230.904 233.692 231.336 234.736L232.668 234.196C232.038 232.756 230.832 231.838 229.194 231.838C226.854 231.838 225.162 233.836 225.162 236.608C225.162 239.29 226.872 241.234 229.248 241.234C230.886 241.234 232.164 240.208 232.74 238.804ZM236.129 232.072H234.599V241H236.129V232.072ZM236.129 228.526H234.599V230.308H236.129V228.526ZM243.982 240.946V239.668C243.604 239.812 242.974 239.92 242.416 239.92C241.282 239.92 240.832 239.362 240.832 238.516V233.332H243.928V232.072H240.832V229.894H239.302V232.072H237.988V233.332H239.302V238.768C239.302 240.334 240.364 241.234 242.146 241.234C242.812 241.234 243.586 241.09 243.982 240.946ZM253.089 241.144L253.161 239.974C253.053 239.992 252.873 240.01 252.765 240.01C252.225 240.01 251.955 239.632 251.955 239.146V235.042C251.955 232.972 250.695 231.838 248.751 231.838C247.203 231.838 245.853 232.702 245.205 234.106L246.393 234.592C246.843 233.746 247.545 233.116 248.607 233.116C249.705 233.116 250.425 233.872 250.425 234.988V235.69L248.337 235.942C246.357 236.194 244.953 237.148 244.953 238.804C244.953 240.226 246.087 241.234 247.671 241.234C248.931 241.234 249.921 240.622 250.497 239.668C250.713 240.694 251.379 241.234 252.387 241.234C252.657 241.234 252.873 241.198 253.089 241.144ZM248.085 239.992C247.185 239.992 246.555 239.452 246.555 238.696C246.555 237.778 247.419 237.238 248.607 237.094L250.425 236.878V238.516C249.957 239.38 249.075 239.992 248.085 239.992ZM96.55 260.966L95.326 260.498C94.858 261.416 93.994 261.974 93.022 261.974C91.528 261.974 90.448 260.732 90.34 258.86H96.532C96.586 258.626 96.622 258.14 96.622 257.744C96.622 255.458 95.056 253.838 92.878 253.838C90.502 253.838 88.738 255.854 88.738 258.608C88.738 261.308 90.502 263.234 92.932 263.234C94.534 263.234 95.92 262.388 96.55 260.966ZM92.896 255.08C94.156 255.08 95.038 256.088 95.092 257.636H90.43C90.7 256.088 91.654 255.08 92.896 255.08ZM105.703 260.804L104.407 260.3C103.975 261.29 103.255 261.92 102.265 261.92C100.807 261.92 99.7447 260.534 99.7447 258.608C99.7447 256.592 100.771 255.134 102.193 255.134C103.093 255.134 103.867 255.692 104.299 256.736L105.631 256.196C105.001 254.756 103.795 253.838 102.157 253.838C99.8167 253.838 98.1247 255.836 98.1247 258.608C98.1247 261.29 99.8347 263.234 102.211 263.234C103.849 263.234 105.127 262.208 105.703 260.804ZM115.554 258.554C115.554 255.818 113.736 253.838 111.234 253.838C108.732 253.838 106.896 255.818 106.896 258.554C106.896 261.254 108.732 263.234 111.234 263.234C113.736 263.234 115.554 261.254 115.554 258.554ZM108.516 258.554C108.516 256.574 109.65 255.116 111.234 255.116C112.8 255.116 113.934 256.574 113.934 258.554C113.934 260.498 112.8 261.938 111.234 261.938C109.65 261.938 108.516 260.498 108.516 258.554ZM125.158 263V257.096C125.158 255.188 123.826 253.838 122.08 253.838C120.802 253.838 119.722 254.594 119.128 255.44V254.072H117.652V263H119.182V256.52C119.74 255.728 120.712 255.134 121.72 255.134C122.836 255.134 123.628 255.962 123.628 257.204V263H125.158ZM135.821 258.554C135.821 255.818 134.003 253.838 131.501 253.838C128.999 253.838 127.163 255.818 127.163 258.554C127.163 261.254 128.999 263.234 131.501 263.234C134.003 263.234 135.821 261.254 135.821 258.554ZM128.783 258.554C128.783 256.574 129.917 255.116 131.501 255.116C133.067 255.116 134.201 256.574 134.201 258.554C134.201 260.498 133.067 261.938 131.501 261.938C129.917 261.938 128.783 260.498 128.783 258.554ZM150.447 263V257.096C150.447 255.188 149.151 253.838 147.477 253.838C146.289 253.838 145.245 254.558 144.615 255.512C144.129 254.486 143.193 253.838 142.095 253.838C140.907 253.838 139.917 254.594 139.395 255.44V254.072H137.919V263H139.449V256.484C139.953 255.728 140.817 255.134 141.699 255.134C142.689 255.134 143.409 255.962 143.409 257.204V263H144.939V257.096C144.939 256.826 144.921 256.574 144.867 256.322C145.407 255.638 146.271 255.134 147.135 255.134C148.161 255.134 148.917 255.962 148.917 257.204V263H150.447ZM154.619 254.072H153.089V263H154.619V254.072ZM154.619 250.526H153.089V252.308H154.619V250.526ZM164.326 260.804L163.03 260.3C162.598 261.29 161.878 261.92 160.888 261.92C159.43 261.92 158.368 260.534 158.368 258.608C158.368 256.592 159.394 255.134 160.816 255.134C161.716 255.134 162.49 255.692 162.922 256.736L164.254 256.196C163.624 254.756 162.418 253.838 160.78 253.838C158.44 253.838 156.748 255.836 156.748 258.608C156.748 261.29 158.458 263.234 160.834 263.234C162.472 263.234 163.75 262.208 164.326 260.804ZM173.583 263.144L173.655 261.974C173.547 261.992 173.367 262.01 173.259 262.01C172.719 262.01 172.449 261.632 172.449 261.146V257.042C172.449 254.972 171.189 253.838 169.245 253.838C167.697 253.838 166.347 254.702 165.699 256.106L166.887 256.592C167.337 255.746 168.039 255.116 169.101 255.116C170.199 255.116 170.919 255.872 170.919 256.988V257.69L168.831 257.942C166.851 258.194 165.447 259.148 165.447 260.804C165.447 262.226 166.581 263.234 168.165 263.234C169.425 263.234 170.415 262.622 170.991 261.668C171.207 262.694 171.873 263.234 172.881 263.234C173.151 263.234 173.367 263.198 173.583 263.144ZM168.579 261.992C167.679 261.992 167.049 261.452 167.049 260.696C167.049 259.778 167.913 259.238 169.101 259.094L170.919 258.878V260.516C170.451 261.38 169.569 261.992 168.579 261.992Z" fill="white"/>
<path d="M91.24 300.354H89.584V312H91.24V300.354ZM95.7324 299.328H94.2024V312H95.7324V299.328ZM118.101 306.69C118.101 303.69 115.431 301.53 111.741 301.53C109.851 301.53 108.051 302.13 106.791 303.09C107.121 300.42 108.621 298.77 110.961 298.77C112.521 298.77 113.931 299.46 114.831 300.54L117.651 298.74C116.421 297.03 113.961 295.65 110.781 295.65C105.741 295.65 102.291 299.22 102.291 304.2C102.261 309.21 105.681 312.42 110.571 312.42C114.801 312.42 118.101 309.99 118.101 306.69ZM110.541 309.3C108.711 309.3 107.391 308.07 106.911 306C107.841 305.04 109.191 304.56 110.601 304.56C112.521 304.56 113.571 305.52 113.571 306.81C113.571 308.25 112.251 309.3 110.541 309.3ZM120.016 303.99C120.016 308.85 123.286 312.42 127.846 312.42C132.406 312.42 135.706 308.85 135.706 303.99C135.706 299.16 132.406 295.62 127.846 295.62C123.286 295.62 120.016 299.16 120.016 303.99ZM124.546 303.99C124.546 301.05 125.926 299.07 127.846 299.07C129.826 299.07 131.176 301.05 131.176 303.99C131.176 306.96 129.826 308.97 127.846 308.97C125.926 308.97 124.546 306.96 124.546 303.99ZM157.031 293.55L155.651 292.17C154.331 293.28 152.201 294.06 150.131 294.06C148.571 294.06 146.771 293.76 145.541 293.31C144.701 292.59 143.621 292.17 142.361 292.17C139.571 292.17 137.531 294.3 137.531 297.24C137.531 300.18 139.571 302.31 142.361 302.31C145.181 302.31 147.221 300.18 147.221 297.24C147.221 296.58 147.131 295.98 146.951 295.44C147.941 295.89 149.051 296.13 150.011 296.13C150.941 296.1 151.931 295.8 152.891 295.29L139.001 311.04L140.441 312.42L157.031 293.55ZM158.591 307.35C158.591 304.41 156.581 302.28 153.761 302.28C150.941 302.28 148.931 304.41 148.931 307.35C148.931 310.29 150.941 312.42 153.761 312.42C156.581 312.42 158.591 310.29 158.591 307.35ZM151.961 307.35C151.961 305.85 152.711 304.77 153.761 304.77C154.811 304.77 155.591 305.85 155.591 307.35C155.591 308.85 154.811 309.93 153.761 309.93C152.711 309.93 151.961 308.85 151.961 307.35ZM140.561 297.24C140.561 295.74 141.311 294.66 142.361 294.66C143.441 294.66 144.191 295.74 144.191 297.24C144.191 298.74 143.441 299.82 142.361 299.82C141.311 299.82 140.561 298.74 140.561 297.24ZM165.506 312V306.618C165.65 305.286 166.478 304.134 167.846 304.134C168.17 304.134 168.584 304.188 168.818 304.26V303.072C168.638 303 168.206 302.928 167.9 302.928C166.784 302.928 165.794 303.864 165.452 305.034L165.47 303.144H164.3V312H165.506ZM171.852 303.162H170.646V312H171.852V303.162ZM171.852 299.544H170.646V301.164H171.852V299.544ZM179.564 311.946V310.902C179.186 311.046 178.538 311.172 177.98 311.172C176.864 311.172 176.342 310.578 176.342 309.678V304.152H179.51V303.144H176.342V300.966H175.136V303.144H173.858V304.152H175.136V309.876C175.136 311.37 176.144 312.216 177.782 312.216C178.43 312.216 179.168 312.072 179.564 311.946ZM182.539 303.162H181.333V312H182.539V303.162ZM182.539 299.544H181.333V301.164H182.539V299.544ZM192.412 310.056L191.422 309.66C190.954 310.632 190.036 311.208 188.956 311.208C187.318 311.208 186.112 309.804 186.058 307.734H192.412C192.448 307.518 192.484 307.104 192.484 306.78C192.484 304.53 190.972 302.928 188.866 302.928C186.526 302.928 184.798 304.89 184.798 307.608C184.798 310.29 186.526 312.216 188.902 312.216C190.468 312.216 191.8 311.406 192.412 310.056ZM188.866 303.918C190.27 303.918 191.26 305.052 191.278 306.762H186.112C186.382 305.052 187.462 303.918 188.866 303.918ZM202.017 312V306.132C202.017 304.26 200.685 302.928 198.939 302.928C197.697 302.928 196.563 303.648 195.933 304.53V303.144H194.763V312H195.969V305.448C196.563 304.62 197.625 303.972 198.669 303.972C199.911 303.972 200.811 304.872 200.811 306.204V312H202.017ZM211.748 310.056L210.758 309.66C210.29 310.632 209.372 311.208 208.292 311.208C206.654 311.208 205.448 309.804 205.394 307.734H211.748C211.784 307.518 211.82 307.104 211.82 306.78C211.82 304.53 210.308 302.928 208.202 302.928C205.862 302.928 204.134 304.89 204.134 307.608C204.134 310.29 205.862 312.216 208.238 312.216C209.804 312.216 211.136 311.406 211.748 310.056ZM208.202 303.918C209.606 303.918 210.596 305.052 210.614 306.762H205.448C205.718 305.052 206.798 303.918 208.202 303.918ZM225.156 309.858L224.112 309.462C223.68 310.488 222.816 311.172 221.772 311.172C220.17 311.172 219 309.696 219 307.662C219 305.52 220.152 303.972 221.736 303.972C222.69 303.972 223.572 304.584 224.004 305.646L225.066 305.214C224.454 303.828 223.248 302.928 221.718 302.928C219.396 302.928 217.722 304.908 217.722 307.662C217.722 310.308 219.396 312.216 221.718 312.216C223.302 312.216 224.58 311.226 225.156 309.858ZM234.414 312V306.132C234.414 304.26 233.082 302.946 231.336 302.946C230.112 302.946 228.996 303.63 228.366 304.476V299.328H227.16V312H228.366V305.466C228.96 304.62 230.022 303.972 231.084 303.972C232.326 303.972 233.208 304.872 233.208 306.204V312H234.414ZM244.144 310.056L243.154 309.66C242.686 310.632 241.768 311.208 240.688 311.208C239.05 311.208 237.844 309.804 237.79 307.734H244.144C244.18 307.518 244.216 307.104 244.216 306.78C244.216 304.53 242.704 302.928 240.598 302.928C238.258 302.928 236.53 304.89 236.53 307.608C236.53 310.29 238.258 312.216 240.634 312.216C242.2 312.216 243.532 311.406 244.144 310.056ZM240.598 303.918C242.002 303.918 242.992 305.052 243.01 306.762H237.844C238.114 305.052 239.194 303.918 240.598 303.918ZM252.008 299.328H250.802V312H252.008V299.328ZM261.881 310.056L260.891 309.66C260.423 310.632 259.505 311.208 258.425 311.208C256.787 311.208 255.581 309.804 255.527 307.734H261.881C261.917 307.518 261.953 307.104 261.953 306.78C261.953 304.53 260.441 302.928 258.335 302.928C255.995 302.928 254.267 304.89 254.267 307.608C254.267 310.29 255.995 312.216 258.371 312.216C259.937 312.216 261.269 311.406 261.881 310.056ZM258.335 303.918C259.739 303.918 260.729 305.052 260.747 306.762H255.581C255.851 305.052 256.931 303.918 258.335 303.918ZM93.166 333.19C92.212 333.19 91.222 332.704 90.682 331.984V327.484C91.186 326.674 92.176 325.936 93.274 325.936C94.894 325.936 96.082 327.394 96.082 329.536C96.082 331.696 94.858 333.19 93.166 333.19ZM97.36 329.536C97.36 326.854 95.668 324.928 93.544 324.928C92.248 324.928 91.168 325.72 90.646 326.53V325.144H89.476V337.402H90.682V333.01C91.258 333.73 92.284 334.216 93.382 334.216C95.632 334.216 97.36 332.254 97.36 329.536ZM107.377 329.572C107.377 326.908 105.577 324.928 103.165 324.928C100.735 324.928 98.9166 326.908 98.9166 329.572C98.9166 332.236 100.735 334.216 103.165 334.216C105.577 334.216 107.377 332.236 107.377 329.572ZM100.195 329.572C100.195 327.502 101.455 325.954 103.165 325.954C104.857 325.954 106.099 327.502 106.099 329.572C106.099 331.642 104.857 333.172 103.165 333.172C101.455 333.172 100.195 331.642 100.195 329.572ZM110.827 321.328H109.621V334H110.827V321.328ZM114.975 325.162H113.769V334H114.975V325.162ZM114.975 321.544H113.769V323.164H114.975V321.544ZM122.687 333.946V332.902C122.309 333.046 121.661 333.172 121.103 333.172C119.987 333.172 119.465 332.578 119.465 331.678V326.152H122.633V325.144H119.465V322.966H118.259V325.144H116.981V326.152H118.259V331.876C118.259 333.37 119.267 334.216 120.905 334.216C121.553 334.216 122.291 334.072 122.687 333.946ZM125.662 325.162H124.456V334H125.662V325.162ZM125.662 321.544H124.456V323.164H125.662V321.544ZM135.355 331.858L134.311 331.462C133.879 332.488 133.015 333.172 131.971 333.172C130.369 333.172 129.199 331.696 129.199 329.662C129.199 327.52 130.351 325.972 131.935 325.972C132.889 325.972 133.771 326.584 134.203 327.646L135.265 327.214C134.653 325.828 133.447 324.928 131.917 324.928C129.595 324.928 127.921 326.908 127.921 329.662C127.921 332.308 129.595 334.216 131.917 334.216C133.501 334.216 134.779 333.226 135.355 331.858ZM144.613 334V328.132C144.613 326.26 143.281 324.946 141.535 324.946C140.311 324.946 139.195 325.63 138.565 326.476V321.328H137.359V334H138.565V327.466C139.159 326.62 140.221 325.972 141.283 325.972C142.525 325.972 143.407 326.872 143.407 328.204V334H144.613ZM154.344 332.056L153.354 331.66C152.886 332.632 151.968 333.208 150.888 333.208C149.25 333.208 148.044 331.804 147.99 329.734H154.344C154.38 329.518 154.416 329.104 154.416 328.78C154.416 326.53 152.904 324.928 150.798 324.928C148.458 324.928 146.73 326.89 146.73 329.608C146.73 332.29 148.458 334.216 150.834 334.216C152.4 334.216 153.732 333.406 154.344 332.056ZM150.798 325.918C152.202 325.918 153.192 327.052 153.21 328.762H148.044C148.313 327.052 149.394 325.918 150.798 325.918ZM159.641 325.144L162.881 334H164.123L167.345 325.144H166.139L163.565 332.434H163.511L160.937 325.144H159.641ZM176.07 332.056L175.08 331.66C174.612 332.632 173.694 333.208 172.614 333.208C170.976 333.208 169.77 331.804 169.716 329.734H176.07C176.106 329.518 176.142 329.104 176.142 328.78C176.142 326.53 174.63 324.928 172.524 324.928C170.184 324.928 168.456 326.89 168.456 329.608C168.456 332.29 170.184 334.216 172.56 334.216C174.126 334.216 175.458 333.406 176.07 332.056ZM172.524 325.918C173.928 325.918 174.918 327.052 174.936 328.762H169.77C170.04 327.052 171.12 325.918 172.524 325.918ZM179.627 334V328.618C179.771 327.286 180.599 326.134 181.967 326.134C182.291 326.134 182.705 326.188 182.939 326.26V325.072C182.759 325 182.327 324.928 182.021 324.928C180.905 324.928 179.915 325.864 179.573 327.034L179.591 325.144H178.421V334H179.627ZM187.869 333.19C186.285 333.19 185.133 331.696 185.133 329.626C185.133 327.502 186.339 325.972 188.013 325.972C189.057 325.972 190.047 326.476 190.533 327.232V331.714C189.975 332.596 188.913 333.19 187.869 333.19ZM191.739 334V321.328H190.533V326.188C189.921 325.432 188.823 324.928 187.779 324.928C185.493 324.928 183.837 326.908 183.837 329.644C183.837 332.308 185.421 334.216 187.635 334.216C188.733 334.216 189.921 333.586 190.587 332.668V334H191.739ZM195.887 325.162H194.681V334H195.887V325.162ZM195.887 321.544H194.681V323.164H195.887V321.544ZM101.698 356V350.132C101.698 348.26 100.438 346.928 98.782 346.928C97.63 346.928 96.514 347.63 95.884 348.602C95.416 347.576 94.462 346.928 93.364 346.928C92.158 346.928 91.186 347.684 90.646 348.53V347.144H89.476V356H90.682V349.43C91.186 348.62 92.086 347.972 93.076 347.972C94.174 347.972 94.984 348.872 94.984 350.204V356H96.19V350.132C96.19 349.844 96.154 349.556 96.1 349.286C96.676 348.53 97.612 347.972 98.53 347.972C99.646 347.972 100.492 348.872 100.492 350.204V356H101.698ZM105.711 347.162H104.505V356H105.711V347.162ZM105.711 343.544H104.505V345.164H105.711V343.544ZM116.142 356.756C116.142 355.46 115.188 354.812 113.208 354.632L111.93 354.506C110.652 354.398 110.184 354.218 110.184 353.876C110.184 353.642 110.418 353.282 110.67 353.048C110.958 353.12 111.264 353.156 111.57 353.156C113.478 353.156 115.026 351.896 115.026 350.15C115.026 349.43 114.774 348.764 114.342 348.224C114.864 347.936 115.692 347.684 116.43 347.684V346.604C115.386 346.604 114.468 347.09 113.892 347.774C113.28 347.252 112.47 346.928 111.534 346.928C109.59 346.928 108.078 348.314 108.078 350.096C108.078 351.374 108.888 352.364 110.004 352.85C109.482 353.228 109.014 353.786 109.014 354.2C109.014 354.56 109.23 354.848 109.644 355.064C108.546 355.55 107.718 356.432 107.718 357.242C107.718 358.718 109.338 359.618 111.75 359.618C114.378 359.618 116.142 358.394 116.142 356.756ZM111.786 358.664C109.986 358.664 108.924 358.016 108.924 357.062C108.924 356.414 109.572 355.694 110.418 355.334C110.778 355.424 111.192 355.496 111.678 355.532L112.956 355.658C114.468 355.784 114.954 356.144 114.954 356.918C114.954 357.89 113.658 358.664 111.786 358.664ZM109.284 350.096C109.284 348.854 110.256 347.864 111.552 347.864C112.83 347.864 113.82 348.836 113.82 350.078C113.82 351.302 112.812 352.22 111.498 352.22C110.238 352.22 109.284 351.32 109.284 350.096ZM119.422 343.328H118.216V356H119.422V343.328ZM123.571 347.162H122.365V356H123.571V347.162ZM123.571 343.544H122.365V345.164H123.571V343.544ZM134.271 351.572C134.271 348.908 132.471 346.928 130.059 346.928C127.629 346.928 125.811 348.908 125.811 351.572C125.811 354.236 127.629 356.216 130.059 356.216C132.471 356.216 134.271 354.236 134.271 351.572ZM127.089 351.572C127.089 349.502 128.349 347.954 130.059 347.954C131.751 347.954 132.993 349.502 132.993 351.572C132.993 353.642 131.751 355.172 130.059 355.172C128.349 355.172 127.089 353.642 127.089 351.572ZM137.721 356V350.618C137.865 349.286 138.693 348.134 140.061 348.134C140.385 348.134 140.799 348.188 141.033 348.26V347.072C140.853 347 140.421 346.928 140.115 346.928C138.999 346.928 138.009 347.864 137.667 349.034L137.685 347.144H136.515V356H137.721ZM149.51 354.056L148.52 353.66C148.052 354.632 147.134 355.208 146.054 355.208C144.416 355.208 143.21 353.804 143.156 351.734H149.51C149.546 351.518 149.582 351.104 149.582 350.78C149.582 348.53 148.07 346.928 145.964 346.928C143.624 346.928 141.896 348.89 141.896 351.608C141.896 354.29 143.624 356.216 146 356.216C147.566 356.216 148.898 355.406 149.51 354.056ZM145.964 347.918C147.368 347.918 148.358 349.052 148.376 350.762H143.21C143.48 349.052 144.56 347.918 145.964 347.918ZM153.067 356V350.618C153.211 349.286 154.039 348.134 155.407 348.134C155.731 348.134 156.145 348.188 156.379 348.26V347.072C156.199 347 155.767 346.928 155.461 346.928C154.345 346.928 153.355 347.864 153.013 349.034L153.031 347.144H151.861V356H153.067ZM165.214 356.144L165.286 355.19C165.142 355.208 164.962 355.226 164.854 355.226C164.296 355.226 163.972 354.848 163.972 354.326V350.042C163.972 348.08 162.766 346.928 160.894 346.928C159.4 346.928 158.104 347.756 157.456 349.106L158.41 349.502C158.878 348.584 159.688 347.954 160.804 347.954C161.992 347.954 162.766 348.764 162.766 350.006V350.834L160.606 351.086C158.572 351.32 157.186 352.292 157.186 353.876C157.186 355.262 158.284 356.216 159.832 356.216C161.146 356.216 162.19 355.55 162.784 354.542C162.91 355.622 163.576 356.216 164.584 356.216C164.818 356.216 165.016 356.18 165.214 356.144ZM160.12 355.208C159.13 355.208 158.446 354.632 158.446 353.786C158.446 352.796 159.4 352.166 160.786 352.004L162.766 351.77V353.48C162.244 354.506 161.254 355.208 160.12 355.208ZM174.232 356V350.132C174.232 348.26 172.9 346.928 171.154 346.928C169.912 346.928 168.778 347.648 168.148 348.53V347.144H166.978V356H168.184V349.448C168.778 348.62 169.84 347.972 170.884 347.972C172.126 347.972 173.026 348.872 173.026 350.204V356H174.232ZM184.287 356V350.132C184.287 348.26 182.955 346.928 181.209 346.928C179.967 346.928 178.833 347.648 178.203 348.53V347.144H177.033V356H178.239V349.448C178.833 348.62 179.895 347.972 180.939 347.972C182.181 347.972 183.081 348.872 183.081 350.204V356H184.287ZM194.845 351.572C194.845 348.908 193.045 346.928 190.633 346.928C188.203 346.928 186.385 348.908 186.385 351.572C186.385 354.236 188.203 356.216 190.633 356.216C193.045 356.216 194.845 354.236 194.845 351.572ZM187.663 351.572C187.663 349.502 188.923 347.954 190.633 347.954C192.325 347.954 193.567 349.502 193.567 351.572C193.567 353.642 192.325 355.172 190.633 355.172C188.923 355.172 187.663 353.642 187.663 351.572ZM202.602 347.162H201.396V356H202.602V347.162ZM202.602 343.544H201.396V345.164H202.602V343.544ZM206.75 343.328H205.544V356H206.75V343.328ZM93.166 377.19C92.212 377.19 91.222 376.704 90.682 375.984V371.484C91.186 370.674 92.176 369.936 93.274 369.936C94.894 369.936 96.082 371.394 96.082 373.536C96.082 375.696 94.858 377.19 93.166 377.19ZM97.36 373.536C97.36 370.854 95.668 368.928 93.544 368.928C92.248 368.928 91.168 369.72 90.646 370.53V369.144H89.476V381.402H90.682V377.01C91.258 377.73 92.284 378.216 93.382 378.216C95.632 378.216 97.36 376.254 97.36 373.536ZM100.825 378V372.618C100.969 371.286 101.797 370.134 103.165 370.134C103.489 370.134 103.903 370.188 104.137 370.26V369.072C103.957 369 103.525 368.928 103.219 368.928C102.103 368.928 101.113 369.864 100.771 371.034L100.789 369.144H99.6186V378H100.825ZM113.441 373.572C113.441 370.908 111.641 368.928 109.229 368.928C106.799 368.928 104.981 370.908 104.981 373.572C104.981 376.236 106.799 378.216 109.229 378.216C111.641 378.216 113.441 376.236 113.441 373.572ZM106.259 373.572C106.259 371.502 107.519 369.954 109.229 369.954C110.921 369.954 112.163 371.502 112.163 373.572C112.163 375.642 110.921 377.172 109.229 377.172C107.519 377.172 106.259 375.642 106.259 373.572ZM119.375 377.19C118.421 377.19 117.431 376.704 116.891 375.984V371.484C117.395 370.674 118.385 369.936 119.483 369.936C121.103 369.936 122.291 371.394 122.291 373.536C122.291 375.696 121.067 377.19 119.375 377.19ZM123.569 373.536C123.569 370.854 121.877 368.928 119.753 368.928C118.457 368.928 117.377 369.72 116.855 370.53V369.144H115.685V381.402H116.891V377.01C117.467 377.73 118.493 378.216 119.591 378.216C121.841 378.216 123.569 376.254 123.569 373.536ZM127.034 378V372.618C127.178 371.286 128.006 370.134 129.374 370.134C129.698 370.134 130.112 370.188 130.346 370.26V369.072C130.166 369 129.734 368.928 129.428 368.928C128.312 368.928 127.322 369.864 126.98 371.034L126.998 369.144H125.828V378H127.034ZM133.379 369.162H132.173V378H133.379V369.162ZM133.379 365.544H132.173V367.164H133.379V365.544ZM144.08 373.572C144.08 370.908 142.28 368.928 139.868 368.928C137.438 368.928 135.62 370.908 135.62 373.572C135.62 376.236 137.438 378.216 139.868 378.216C142.28 378.216 144.08 376.236 144.08 373.572ZM136.898 373.572C136.898 371.502 138.158 369.954 139.868 369.954C141.56 369.954 142.802 371.502 142.802 373.572C142.802 375.642 141.56 377.172 139.868 377.172C138.158 377.172 136.898 375.642 136.898 373.572ZM154.32 377.19C153.366 377.19 152.376 376.704 151.836 375.984V371.484C152.34 370.674 153.33 369.936 154.428 369.936C156.048 369.936 157.236 371.394 157.236 373.536C157.236 375.696 156.012 377.19 154.32 377.19ZM158.514 373.536C158.514 370.854 156.822 368.928 154.698 368.928C153.402 368.928 152.322 369.72 151.8 370.53V369.144H150.63V381.402H151.836V377.01C152.412 377.73 153.438 378.216 154.536 378.216C156.786 378.216 158.514 376.254 158.514 373.536ZM168.531 373.572C168.531 370.908 166.731 368.928 164.319 368.928C161.889 368.928 160.071 370.908 160.071 373.572C160.071 376.236 161.889 378.216 164.319 378.216C166.731 378.216 168.531 376.236 168.531 373.572ZM161.349 373.572C161.349 371.502 162.609 369.954 164.319 369.954C166.011 369.954 167.253 371.502 167.253 373.572C167.253 375.642 166.011 377.172 164.319 377.172C162.609 377.172 161.349 375.642 161.349 373.572ZM175.422 377.946V376.902C175.044 377.046 174.396 377.172 173.838 377.172C172.722 377.172 172.2 376.578 172.2 375.678V370.152H175.368V369.144H172.2V366.966H170.994V369.144H169.716V370.152H170.994V375.876C170.994 377.37 172.002 378.216 173.64 378.216C174.288 378.216 175.026 378.072 175.422 377.946ZM184.033 376.056L183.043 375.66C182.575 376.632 181.657 377.208 180.577 377.208C178.939 377.208 177.733 375.804 177.679 373.734H184.033C184.069 373.518 184.105 373.104 184.105 372.78C184.105 370.53 182.593 368.928 180.487 368.928C178.147 368.928 176.419 370.89 176.419 373.608C176.419 376.29 178.147 378.216 180.523 378.216C182.089 378.216 183.421 377.406 184.033 376.056ZM180.487 369.918C181.891 369.918 182.881 371.052 182.899 372.762H177.733C178.003 371.052 179.083 369.918 180.487 369.918ZM187.59 378V372.618C187.734 371.286 188.562 370.134 189.93 370.134C190.254 370.134 190.668 370.188 190.902 370.26V369.072C190.722 369 190.29 368.928 189.984 368.928C188.868 368.928 187.878 369.864 187.536 371.034L187.554 369.144H186.384V378H187.59ZM199.379 376.056L198.389 375.66C197.921 376.632 197.003 377.208 195.923 377.208C194.285 377.208 193.079 375.804 193.025 373.734H199.379C199.415 373.518 199.451 373.104 199.451 372.78C199.451 370.53 197.939 368.928 195.833 368.928C193.493 368.928 191.765 370.89 191.765 373.608C191.765 376.29 193.493 378.216 195.869 378.216C197.435 378.216 198.767 377.406 199.379 376.056ZM195.833 369.918C197.237 369.918 198.227 371.052 198.245 372.762H193.079C193.349 371.052 194.429 369.918 195.833 369.918ZM92.824 399.19C91.24 399.19 90.088 397.696 90.088 395.626C90.088 393.502 91.294 391.972 92.968 391.972C94.012 391.972 95.002 392.476 95.488 393.232V397.714C94.93 398.596 93.868 399.19 92.824 399.19ZM96.694 400V387.328H95.488V392.188C94.876 391.432 93.778 390.928 92.734 390.928C90.448 390.928 88.792 392.908 88.792 395.644C88.792 398.308 90.376 400.216 92.59 400.216C93.688 400.216 94.876 399.586 95.542 398.668V400H96.694ZM100.788 390.046V388.21H99.4202V390.262H100.05C100.05 391.126 99.7622 391.81 99.1322 392.476L99.6902 392.872C100.41 392.152 100.788 391.162 100.788 390.046ZM110.16 400.144L110.232 399.19C110.088 399.208 109.908 399.226 109.8 399.226C109.242 399.226 108.918 398.848 108.918 398.326V394.042C108.918 392.08 107.712 390.928 105.84 390.928C104.346 390.928 103.05 391.756 102.402 393.106L103.356 393.502C103.824 392.584 104.634 391.954 105.75 391.954C106.938 391.954 107.712 392.764 107.712 394.006V394.834L105.552 395.086C103.518 395.32 102.132 396.292 102.132 397.876C102.132 399.262 103.23 400.216 104.778 400.216C106.092 400.216 107.136 399.55 107.73 398.542C107.856 399.622 108.522 400.216 109.53 400.216C109.764 400.216 109.962 400.18 110.16 400.144ZM105.066 399.208C104.076 399.208 103.392 398.632 103.392 397.786C103.392 396.796 104.346 396.166 105.732 396.004L107.712 395.77V397.48C107.19 398.506 106.2 399.208 105.066 399.208ZM118.673 397.858L117.629 397.462C117.197 398.488 116.333 399.172 115.289 399.172C113.687 399.172 112.517 397.696 112.517 395.662C112.517 393.52 113.669 391.972 115.253 391.972C116.207 391.972 117.089 392.584 117.521 393.646L118.583 393.214C117.971 391.828 116.765 390.928 115.235 390.928C112.913 390.928 111.239 392.908 111.239 395.662C111.239 398.308 112.913 400.216 115.235 400.216C116.819 400.216 118.097 399.226 118.673 397.858ZM124.115 399.19C122.477 399.19 121.271 397.75 121.271 395.644C121.271 393.502 122.513 391.936 124.223 391.936C125.195 391.936 126.167 392.476 126.689 393.232V397.75C126.185 398.56 125.195 399.19 124.115 399.19ZM127.895 403.402V391.144H126.707V392.278C126.149 391.468 125.087 390.928 123.935 390.928C121.757 390.928 119.993 392.872 119.993 395.644C119.993 398.308 121.667 400.216 123.845 400.216C124.997 400.216 126.095 399.64 126.689 398.776V403.402H127.895ZM137.749 400V391.144H136.543V397.426C136.075 398.452 135.121 399.172 134.005 399.172C132.781 399.172 131.899 398.254 131.899 396.958V391.144H130.693V397.03C130.693 398.884 131.953 400.216 133.699 400.216C134.959 400.216 136.021 399.496 136.579 398.578V400H137.749ZM141.905 391.162H140.699V400H141.905V391.162ZM141.905 387.544H140.699V389.164H141.905V387.544ZM151.489 397.624C151.489 396.022 150.103 395.356 148.087 394.96C146.503 394.636 145.531 394.312 145.531 393.412C145.531 392.548 146.467 391.936 147.781 391.936C149.131 391.936 150.013 392.512 150.427 393.412L151.399 393.034C150.895 391.936 149.815 390.928 147.799 390.928C145.765 390.928 144.343 392.008 144.343 393.484C144.343 394.978 145.801 395.662 147.763 396.058C149.365 396.364 150.319 396.706 150.319 397.678C150.319 398.596 149.419 399.208 147.997 399.208C146.449 399.208 145.405 398.542 144.955 397.57L143.929 397.966C144.523 399.352 145.963 400.216 147.925 400.216C150.121 400.216 151.489 399.154 151.489 397.624ZM158.424 399.946V398.902C158.046 399.046 157.398 399.172 156.84 399.172C155.724 399.172 155.202 398.578 155.202 397.678V392.152H158.37V391.144H155.202V388.966H153.996V391.144H152.718V392.152H153.996V397.876C153.996 399.37 155.004 400.216 156.642 400.216C157.29 400.216 158.028 400.072 158.424 399.946ZM167.863 395.572C167.863 392.908 166.063 390.928 163.651 390.928C161.221 390.928 159.403 392.908 159.403 395.572C159.403 398.236 161.221 400.216 163.651 400.216C166.063 400.216 167.863 398.236 167.863 395.572ZM160.681 395.572C160.681 393.502 161.941 391.954 163.651 391.954C165.343 391.954 166.585 393.502 166.585 395.572C166.585 397.642 165.343 399.172 163.651 399.172C161.941 399.172 160.681 397.642 160.681 395.572Z" fill="white"/>
<mask id="mask0_1098_1097" style="mask-type:alpha" maskUnits="userSpaceOnUse" x="207" y="153" width="187" height="345">
<path opacity="0.2" d="M362.507 440.658V418.783H350.476L327.507 353.158V340.033H323.132L307.82 194.563V172.688H302.351V153H297.976V172.688H292.507V194.563L277.195 340.033H272.82V353.158L249.851 418.783H237.82V440.658L207 485.502L207.625 485.799C213.398 488.502 219.328 490.971 225.367 493.17L240.008 497.533C241.801 472.529 268.094 448.314 300.164 448.314C332.234 448.314 358.527 472.529 360.32 497.533L374.976 493.158C380.402 491.189 385.722 489.002 390.945 486.596C391.547 486.322 392.136 486.049 392.726 485.752L393.328 485.467L362.507 440.658ZM271.179 419.877L289.773 355.346H311.101L329.148 419.877H271.179Z" fill="white"/>
</mask>
<g mask="url(#mask0_1098_1097)">
<rect x="65" y="61" width="285" height="423" fill="#C4C4C4"/>
</g>
<defs>
<filter id="filter0_d_1098_1097" x="0.5" y="0.5" width="413" height="551" filterUnits="userSpaceOnUse" color-interpolation-filters="sRGB">
<feFlood flood-opacity="0" result="BackgroundImageFix"/>
<feColorMatrix in="SourceAlpha" type="matrix" values="0 0 0 0 0 0 0 0 0 0 0 0 0 0 0 0 0 0 127 0" result="hardAlpha"/>
<feOffset dy="4"/>
<feGaussianBlur stdDeviation="31.5"/>
<feComposite in2="hardAlpha" operator="out"/>
<feColorMatrix type="matrix" values="0 0 0 0 0 0 0 0 0 0 0 0 0 0 0 0 0 0 0.6 0"/>
<feBlend mode="normal" in2="BackgroundImageFix" result="effect1_dropShadow_1098_1097"/>
<feBlend mode="normal" in="SourceGraphic" in2="effect1_dropShadow_1098_1097" result="shape"/>
</filter>
</defs>
</svg>
