<svg width="346" height="485" viewBox="0 0 346 485" fill="none" xmlns="http://www.w3.org/2000/svg">
<rect x="1.45715" y="1.08301" width="343.45" height="482.834" fill="#202125" stroke="#1767D2" stroke-width="1.5"/>
<g opacity="0.5">
<path d="M313.98 422.496C317.599 422.496 320.882 422.752 323.262 423.165C325.835 423.611 327.426 424.316 327.426 425.174C327.426 426.032 325.835 426.738 323.262 427.184C320.881 427.597 317.599 427.853 313.98 427.853C310.361 427.853 307.079 427.597 304.698 427.184C302.126 426.738 300.535 426.032 300.535 425.174C300.535 424.316 302.126 423.611 304.698 423.165C307.079 422.752 310.361 422.496 313.98 422.496V422.496Z" fill="white"/>
<path fill-rule="evenodd" clip-rule="evenodd" d="M310.943 443.193C311.924 443.222 312.94 443.238 313.981 443.238C315.02 443.238 316.035 443.222 317.015 443.193C317.764 443.164 318.488 443.123 319.183 443.073C320.844 442.954 322.339 442.779 323.592 442.561C324.921 442.331 325.985 442.035 326.7 441.69C327.033 441.529 327.279 441.368 327.426 441.21V426.635C326.315 427.477 324.379 427.839 323.405 428.008C322.001 428.251 320.568 428.402 319.147 428.507C317.429 428.633 315.703 428.689 313.981 428.689C312.258 428.689 310.532 428.633 308.814 428.507C307.393 428.402 305.96 428.251 304.556 428.008C303.582 427.839 301.646 427.477 300.535 426.635V441.21C300.683 441.368 300.928 441.529 301.261 441.69C301.976 442.035 303.04 442.33 304.37 442.561C305.622 442.779 307.118 442.954 308.778 443.073C309.472 443.123 310.195 443.164 310.943 443.193H310.943ZM310.743 438.58C310.462 437.835 310.416 436.9 310.734 435.78C311.11 434.451 312.005 432.842 313.645 430.96C313.798 430.75 314.127 430.726 314.296 430.932C315.945 432.821 316.846 434.435 317.225 435.769C317.544 436.891 317.498 437.828 317.217 438.575C316.928 439.343 316.394 439.903 315.746 440.255C314.673 440.838 313.287 440.841 312.212 440.258C311.567 439.908 311.033 439.349 310.743 438.581L310.743 438.58Z" fill="white"/>
<path fill-rule="evenodd" clip-rule="evenodd" d="M311.523 438.286C311.736 438.85 312.132 439.263 312.611 439.522C313.44 439.973 314.519 439.973 315.348 439.522C315.828 439.262 316.224 438.847 316.437 438.28C316.659 437.691 316.688 436.93 316.422 435.993C316.098 434.853 315.343 433.472 313.982 431.846C312.616 433.477 311.86 434.862 311.536 436.004C311.271 436.939 311.302 437.698 311.523 438.286H311.523Z" fill="white"/>
<path fill-rule="evenodd" clip-rule="evenodd" d="M316.422 452.098C316.098 450.957 315.343 449.576 313.982 447.95C312.616 449.582 311.86 450.966 311.536 452.109C311.271 453.044 311.302 453.802 311.523 454.39C311.736 454.955 312.132 455.367 312.611 455.627C313.44 456.077 314.519 456.077 315.348 455.627C315.828 455.366 316.224 454.952 316.437 454.384C316.659 453.795 316.688 453.035 316.422 452.098H316.422Z" fill="white"/>
<path fill-rule="evenodd" clip-rule="evenodd" d="M314.295 447.036C315.945 448.925 316.845 450.539 317.225 451.873C317.543 452.994 317.498 453.932 317.217 454.678C316.928 455.447 316.393 456.007 315.746 456.358C314.672 456.942 313.287 456.945 312.212 456.362C311.566 456.011 311.032 455.452 310.742 454.684C310.462 453.939 310.416 453.004 310.733 451.884C311.109 450.555 312.005 448.946 313.644 447.063C313.794 446.858 314.13 446.828 314.295 447.036L314.295 447.036ZM300.534 442.246V457.318C300.534 459.202 307.408 459.694 308.624 459.777C312.118 460.018 315.843 460.018 319.337 459.777C320.552 459.693 327.425 459.202 327.425 457.318V442.246C327.312 442.313 327.191 442.378 327.061 442.44C326.274 442.821 325.135 443.14 323.731 443.383C322.453 443.605 320.93 443.784 319.24 443.905C317.612 444.023 315.835 444.087 313.979 444.087C312.123 444.087 310.346 444.023 308.718 443.905C307.028 443.784 305.505 443.605 304.227 443.383C302.823 443.14 301.684 442.821 300.897 442.44C300.767 442.378 300.645 442.313 300.533 442.246H300.534Z" fill="white"/>
</g>
</svg>
