<svg width="478" height="67" viewBox="0 0 478 67" fill="none" xmlns="http://www.w3.org/2000/svg">
<path d="M0 4C0 1.79086 1.79086 0 4 0H474C476.209 0 478 1.79086 478 4V63C478 65.2091 476.209 67 474 67H4C1.79086 67 0 65.2091 0 63V4Z" fill="#1767D2" fill-opacity="0.7"/>
<path d="M0 4C0 1.79086 1.79086 0 4 0H474C476.209 0 478 1.79086 478 4V63C478 65.2091 476.209 67 474 67H4C1.79086 67 0 65.2091 0 63V4Z" stroke="#1767D2"/>
<path d="M36.144 33.85C36.144 31.96 34.488 30.61 32.31 30.61C31.176 30.61 30.06 30.97 29.376 31.456L29.538 28.81H35.712V27.406H28.278L28.044 32.788L29.106 33.058C29.7 32.374 30.87 31.888 31.932 31.888C33.444 31.888 34.524 32.734 34.524 33.904C34.524 35.074 33.372 35.956 31.824 35.956C30.564 35.956 29.484 35.38 28.908 34.444L27.72 35.092C28.494 36.406 30.078 37.234 31.878 37.234C34.29 37.234 36.144 35.794 36.144 33.85ZM45.9878 33.85C45.9878 31.96 44.3318 30.61 42.1538 30.61C41.0198 30.61 39.9038 30.97 39.2197 31.456L39.3818 28.81H45.5558V27.406H38.1218L37.8878 32.788L38.9498 33.058C39.5438 32.374 40.7138 31.888 41.7758 31.888C43.2878 31.888 44.3678 32.734 44.3678 33.904C44.3678 35.074 43.2158 35.956 41.6678 35.956C40.4078 35.956 39.3278 35.38 38.7518 34.444L37.5638 35.092C38.3378 36.406 39.9218 37.234 41.7218 37.234C44.1338 37.234 45.9878 35.794 45.9878 33.85ZM59.6199 37.144L59.6919 35.974C59.5839 35.992 59.4039 36.01 59.2959 36.01C58.7559 36.01 58.4859 35.632 58.4859 35.146V31.042C58.4859 28.972 57.2259 27.838 55.2819 27.838C53.7339 27.838 52.3839 28.702 51.7359 30.106L52.9239 30.592C53.3739 29.746 54.0759 29.116 55.1379 29.116C56.2359 29.116 56.9559 29.872 56.9559 30.988V31.69L54.8679 31.942C52.8879 32.194 51.4839 33.148 51.4839 34.804C51.4839 36.226 52.6179 37.234 54.2019 37.234C55.4619 37.234 56.4519 36.622 57.0279 35.668C57.2439 36.694 57.9099 37.234 58.9179 37.234C59.1879 37.234 59.4039 37.198 59.6199 37.144ZM54.6159 35.992C53.7159 35.992 53.0859 35.452 53.0859 34.696C53.0859 33.778 53.9499 33.238 55.1379 33.094L56.9559 32.878V34.516C56.4879 35.38 55.6059 35.992 54.6159 35.992ZM68.8334 37V31.096C68.8334 29.188 67.5014 27.838 65.7554 27.838C64.4774 27.838 63.3974 28.594 62.8034 29.44V28.072H61.3274V37H62.8574V30.52C63.4154 29.728 64.3874 29.134 65.3954 29.134C66.5114 29.134 67.3034 29.962 67.3034 31.204V37H68.8334ZM79.0111 37V31.096C79.0111 29.188 77.6791 27.838 75.9331 27.838C74.6551 27.838 73.5751 28.594 72.9811 29.44V28.072H71.5051V37H73.0351V30.52C73.5931 29.728 74.5651 29.134 75.5731 29.134C76.6891 29.134 77.4811 29.962 77.4811 31.204V37H79.0111ZM83.2129 28.072H81.6829V37H83.2129V28.072ZM83.2129 24.526H81.6829V26.308H83.2129V24.526ZM93.99 35.956C93.144 35.956 92.208 35.506 91.668 34.858V30.52C92.136 29.8 93.018 29.098 94.062 29.098C95.556 29.098 96.672 30.448 96.672 32.5C96.672 34.534 95.556 35.956 93.99 35.956ZM98.292 32.5C98.292 29.764 96.564 27.838 94.458 27.838C93.09 27.838 92.082 28.666 91.614 29.404V28.072H90.138V40.276H91.668V36.064C92.244 36.766 93.234 37.234 94.296 37.234C96.546 37.234 98.292 35.236 98.292 32.5ZM107.568 34.966L106.344 34.498C105.876 35.416 105.012 35.974 104.04 35.974C102.546 35.974 101.466 34.732 101.358 32.86H107.55C107.604 32.626 107.64 32.14 107.64 31.744C107.64 29.458 106.074 27.838 103.896 27.838C101.52 27.838 99.7556 29.854 99.7556 32.608C99.7556 35.308 101.52 37.234 103.95 37.234C105.552 37.234 106.938 36.388 107.568 34.966ZM103.914 29.08C105.174 29.08 106.056 30.088 106.11 31.636H101.448C101.718 30.088 102.672 29.08 103.914 29.08ZM111.32 37V31.672C111.464 30.484 112.184 29.368 113.57 29.368C113.876 29.368 114.308 29.422 114.56 29.494V27.982C114.38 27.91 113.948 27.838 113.642 27.838C112.598 27.838 111.626 28.756 111.266 29.89V28.072H109.79V37H111.32ZM126.968 34.804L125.672 34.3C125.24 35.29 124.52 35.92 123.53 35.92C122.072 35.92 121.01 34.534 121.01 32.608C121.01 30.592 122.036 29.134 123.458 29.134C124.358 29.134 125.132 29.692 125.564 30.736L126.896 30.196C126.266 28.756 125.06 27.838 123.422 27.838C121.082 27.838 119.39 29.836 119.39 32.608C119.39 35.29 121.1 37.234 123.476 37.234C125.114 37.234 126.392 36.208 126.968 34.804ZM136.225 37.144L136.297 35.974C136.189 35.992 136.009 36.01 135.901 36.01C135.361 36.01 135.091 35.632 135.091 35.146V31.042C135.091 28.972 133.831 27.838 131.887 27.838C130.339 27.838 128.989 28.702 128.341 30.106L129.529 30.592C129.979 29.746 130.681 29.116 131.743 29.116C132.841 29.116 133.561 29.872 133.561 30.988V31.69L131.473 31.942C129.493 32.194 128.089 33.148 128.089 34.804C128.089 36.226 129.223 37.234 130.807 37.234C132.067 37.234 133.057 36.622 133.633 35.668C133.849 36.694 134.515 37.234 135.523 37.234C135.793 37.234 136.009 37.198 136.225 37.144ZM131.221 35.992C130.321 35.992 129.691 35.452 129.691 34.696C129.691 33.778 130.555 33.238 131.743 33.094L133.561 32.878V34.516C133.093 35.38 132.211 35.992 131.221 35.992ZM150.461 37V31.096C150.461 29.188 149.165 27.838 147.491 27.838C146.303 27.838 145.259 28.558 144.629 29.512C144.143 28.486 143.207 27.838 142.109 27.838C140.921 27.838 139.931 28.594 139.409 29.44V28.072H137.933V37H139.463V30.484C139.967 29.728 140.831 29.134 141.713 29.134C142.703 29.134 143.423 29.962 143.423 31.204V37H144.953V31.096C144.953 30.826 144.935 30.574 144.881 30.322C145.421 29.638 146.285 29.134 147.149 29.134C148.175 29.134 148.931 29.962 148.931 31.204V37H150.461ZM161.257 32.5C161.257 29.8 159.655 27.838 157.459 27.838C156.433 27.838 155.299 28.414 154.633 29.26V24.328H153.103V37H154.543V35.92C155.227 36.694 156.343 37.234 157.315 37.234C159.601 37.234 161.257 35.254 161.257 32.5ZM156.955 35.956C156.019 35.956 155.119 35.47 154.633 34.804V30.358C155.119 29.62 156.073 29.134 157.045 29.134C158.539 29.134 159.637 30.538 159.637 32.482C159.637 34.48 158.503 35.956 156.955 35.956ZM164.916 28.072H163.386V37H164.916V28.072ZM164.916 24.526H163.386V26.308H164.916V24.526ZM175.091 37.144L175.163 35.974C175.055 35.992 174.875 36.01 174.767 36.01C174.227 36.01 173.957 35.632 173.957 35.146V31.042C173.957 28.972 172.697 27.838 170.753 27.838C169.205 27.838 167.855 28.702 167.207 30.106L168.395 30.592C168.845 29.746 169.547 29.116 170.609 29.116C171.707 29.116 172.427 29.872 172.427 30.988V31.69L170.339 31.942C168.359 32.194 166.955 33.148 166.955 34.804C166.955 36.226 168.089 37.234 169.673 37.234C170.933 37.234 171.923 36.622 172.499 35.668C172.715 36.694 173.381 37.234 174.389 37.234C174.659 37.234 174.875 37.198 175.091 37.144ZM170.087 35.992C169.187 35.992 168.557 35.452 168.557 34.696C168.557 33.778 169.421 33.238 170.609 33.094L172.427 32.878V34.516C171.959 35.38 171.077 35.992 170.087 35.992ZM178.328 37V31.672C178.472 30.484 179.192 29.368 180.578 29.368C180.884 29.368 181.316 29.422 181.568 29.494V27.982C181.388 27.91 180.956 27.838 180.65 27.838C179.606 27.838 178.634 28.756 178.274 29.89V28.072H176.798V37H178.328ZM190.238 34.966L189.014 34.498C188.546 35.416 187.682 35.974 186.71 35.974C185.216 35.974 184.136 34.732 184.028 32.86H190.22C190.274 32.626 190.31 32.14 190.31 31.744C190.31 29.458 188.744 27.838 186.566 27.838C184.19 27.838 182.426 29.854 182.426 32.608C182.426 35.308 184.19 37.234 186.62 37.234C188.222 37.234 189.608 36.388 190.238 34.966ZM186.584 29.08C187.844 29.08 188.726 30.088 188.78 31.636H184.118C184.388 30.088 185.342 29.08 186.584 29.08ZM200.461 35.956C199.615 35.956 198.679 35.506 198.139 34.858V30.52C198.607 29.8 199.489 29.098 200.533 29.098C202.027 29.098 203.143 30.448 203.143 32.5C203.143 34.534 202.027 35.956 200.461 35.956ZM204.763 32.5C204.763 29.764 203.035 27.838 200.929 27.838C199.561 27.838 198.553 28.666 198.085 29.404V28.072H196.609V40.276H198.139V36.064C198.715 36.766 199.705 37.234 200.767 37.234C203.017 37.234 204.763 35.236 204.763 32.5ZM214.866 32.554C214.866 29.818 213.048 27.838 210.546 27.838C208.044 27.838 206.208 29.818 206.208 32.554C206.208 35.254 208.044 37.234 210.546 37.234C213.048 37.234 214.866 35.254 214.866 32.554ZM207.828 32.554C207.828 30.574 208.962 29.116 210.546 29.116C212.112 29.116 213.246 30.574 213.246 32.554C213.246 34.498 212.112 35.938 210.546 35.938C208.962 35.938 207.828 34.498 207.828 32.554ZM223.894 34.804L222.598 34.3C222.166 35.29 221.446 35.92 220.456 35.92C218.998 35.92 217.936 34.534 217.936 32.608C217.936 30.592 218.962 29.134 220.384 29.134C221.284 29.134 222.058 29.692 222.49 30.736L223.822 30.196C223.192 28.756 221.986 27.838 220.348 27.838C218.008 27.838 216.316 29.836 216.316 32.608C216.316 35.29 218.026 37.234 220.402 37.234C222.04 37.234 223.318 36.208 223.894 34.804ZM233.745 32.554C233.745 29.818 231.927 27.838 229.425 27.838C226.923 27.838 225.087 29.818 225.087 32.554C225.087 35.254 226.923 37.234 229.425 37.234C231.927 37.234 233.745 35.254 233.745 32.554ZM226.707 32.554C226.707 30.574 227.841 29.116 229.425 29.116C230.991 29.116 232.125 30.574 232.125 32.554C232.125 34.498 230.991 35.938 229.425 35.938C227.841 35.938 226.707 34.498 226.707 32.554ZM236.077 33.598H237.499L237.607 25.354H235.951L236.077 33.598ZM237.697 37V34.606H235.897V37H237.697Z" fill="white"/>
<path opacity="0.15" d="M395 0L395 67" stroke="white"/>
<path opacity="0.6" d="M419.152 37V31.072L421.468 34.072H421.996L424.24 31V37H425.308V29.236H424.288L421.756 32.764L419.104 29.236H418.12V37H419.152ZM432.562 34.036C432.562 32.212 431.35 30.892 429.682 30.892C428.014 30.892 426.79 32.212 426.79 34.036C426.79 35.836 428.014 37.156 429.682 37.156C431.35 37.156 432.562 35.836 432.562 34.036ZM427.87 34.036C427.87 32.716 428.626 31.744 429.682 31.744C430.726 31.744 431.482 32.716 431.482 34.036C431.482 35.332 430.726 36.292 429.682 36.292C428.626 36.292 427.87 35.332 427.87 34.036ZM438.509 35.368C438.509 34.264 437.573 33.808 436.229 33.52C435.221 33.292 434.645 33.112 434.645 32.584C434.645 32.08 435.209 31.732 436.001 31.732C436.829 31.732 437.381 32.08 437.657 32.656L438.473 32.332C438.125 31.6 437.393 30.892 436.013 30.892C434.609 30.892 433.649 31.636 433.649 32.644C433.649 33.676 434.621 34.156 435.941 34.432C436.961 34.648 437.525 34.852 437.525 35.416C437.525 35.956 437.021 36.328 436.145 36.328C435.149 36.328 434.513 35.884 434.213 35.296L433.373 35.62C433.781 36.556 434.741 37.156 436.097 37.156C437.609 37.156 438.509 36.424 438.509 35.368ZM443.239 36.964V36.112C442.987 36.208 442.567 36.28 442.195 36.28C441.439 36.28 441.139 35.908 441.139 35.344V31.888H443.203V31.048H441.139V29.596H440.119V31.048H439.243V31.888H440.119V35.512C440.119 36.556 440.827 37.156 442.015 37.156C442.459 37.156 442.975 37.06 443.239 36.964ZM445.399 37V33.448C445.495 32.656 445.975 31.912 446.899 31.912C447.103 31.912 447.391 31.948 447.559 31.996V30.988C447.439 30.94 447.151 30.892 446.947 30.892C446.251 30.892 445.603 31.504 445.363 32.26V31.048H444.379V37H445.399ZM453.518 37.096L453.566 36.316C453.494 36.328 453.374 36.34 453.302 36.34C452.942 36.34 452.762 36.088 452.762 35.764V33.028C452.762 31.648 451.922 30.892 450.626 30.892C449.594 30.892 448.694 31.468 448.262 32.404L449.054 32.728C449.354 32.164 449.822 31.744 450.53 31.744C451.262 31.744 451.742 32.248 451.742 32.992V33.46L450.35 33.628C449.03 33.796 448.094 34.432 448.094 35.536C448.094 36.484 448.85 37.156 449.906 37.156C450.746 37.156 451.406 36.748 451.79 36.112C451.934 36.796 452.378 37.156 453.05 37.156C453.23 37.156 453.374 37.132 453.518 37.096ZM450.182 36.328C449.582 36.328 449.162 35.968 449.162 35.464C449.162 34.852 449.738 34.492 450.53 34.396L451.742 34.252V35.344C451.43 35.92 450.842 36.328 450.182 36.328Z" fill="white"/>
</svg>
