<svg width="171" height="105" viewBox="0 0 171 105" fill="none" xmlns="http://www.w3.org/2000/svg">
<path d="M11.772 13.386L9.576 11.262C11.088 10.218 12.042 8.382 12.042 6.168C12.042 2.712 9.684 0.155999 6.444 0.155999C3.204 0.155999 0.846 2.694 0.846 6.168C0.846 9.66 3.204 12.216 6.444 12.216C7.038 12.216 7.614 12.126 8.154 11.964L10.62 14.502L11.772 13.386ZM2.592 6.168C2.592 3.522 4.212 1.614 6.444 1.614C8.676 1.614 10.296 3.522 10.296 6.168C10.296 8.832 8.676 10.758 6.444 10.758C4.212 10.758 2.592 8.832 2.592 6.168ZM21.4708 12V3.072H19.9408V9.228C19.4908 10.218 18.6268 10.938 17.5648 10.938C16.4668 10.938 15.6748 10.074 15.6748 8.868V3.072H14.1448V8.976C14.1448 10.866 15.4048 12.234 17.1328 12.234C18.4468 12.234 19.4728 11.478 19.9948 10.524V12H21.4708ZM31.4016 9.966L30.1776 9.498C29.7096 10.416 28.8456 10.974 27.8736 10.974C26.3796 10.974 25.2996 9.732 25.1916 7.86H31.3836C31.4376 7.626 31.4736 7.14 31.4736 6.744C31.4736 4.458 29.9076 2.838 27.7296 2.838C25.3536 2.838 23.5896 4.854 23.5896 7.608C23.5896 10.308 25.3536 12.234 27.7836 12.234C29.3856 12.234 30.7716 11.388 31.4016 9.966ZM27.7476 4.08C29.0076 4.08 29.8896 5.088 29.9436 6.636H25.2816C25.5516 5.088 26.5056 4.08 27.7476 4.08ZM40.4463 9.552C40.4463 7.896 39.0423 7.212 37.0263 6.78C35.5143 6.438 34.6503 6.168 34.6503 5.376C34.6503 4.62 35.4963 4.098 36.6843 4.098C37.9263 4.098 38.7543 4.62 39.1683 5.484L40.3923 4.998C39.8703 3.9 38.7723 2.838 36.7023 2.838C34.5963 2.838 33.1563 3.954 33.1563 5.466C33.1563 7.014 34.6143 7.734 36.5943 8.148C38.1243 8.472 38.9703 8.778 38.9703 9.624C38.9703 10.434 38.2143 10.992 36.9003 10.992C35.4063 10.992 34.4523 10.326 34.0023 9.444L32.7423 9.93C33.3543 11.334 34.7943 12.234 36.8283 12.234C39.0963 12.234 40.4463 11.136 40.4463 9.552ZM47.5421 11.946V10.668C47.1641 10.812 46.5341 10.92 45.9761 10.92C44.8421 10.92 44.3921 10.362 44.3921 9.516V4.332H47.4881V3.072H44.3921V0.893999H42.8621V3.072H41.5481V4.332H42.8621V9.768C42.8621 11.334 43.9241 12.234 45.7061 12.234C46.3721 12.234 47.1461 12.09 47.5421 11.946ZM57.1553 7.554C57.1553 4.818 55.3373 2.838 52.8353 2.838C50.3333 2.838 48.4973 4.818 48.4973 7.554C48.4973 10.254 50.3333 12.234 52.8353 12.234C55.3373 12.234 57.1553 10.254 57.1553 7.554ZM50.1173 7.554C50.1173 5.574 51.2513 4.116 52.8353 4.116C54.4013 4.116 55.5353 5.574 55.5353 7.554C55.5353 9.498 54.4013 10.938 52.8353 10.938C51.2513 10.938 50.1173 9.498 50.1173 7.554ZM67.2536 10.956C66.4076 10.956 65.4716 10.506 64.9316 9.858V5.52C65.3996 4.8 66.2816 4.098 67.3256 4.098C68.8196 4.098 69.9356 5.448 69.9356 7.5C69.9356 9.534 68.8196 10.956 67.2536 10.956ZM71.5556 7.5C71.5556 4.764 69.8276 2.838 67.7216 2.838C66.3536 2.838 65.3456 3.666 64.8776 4.404V3.072H63.4016V15.276H64.9316V11.064C65.5076 11.766 66.4976 12.234 67.5596 12.234C69.8096 12.234 71.5556 10.236 71.5556 7.5ZM80.8313 9.966L79.6073 9.498C79.1393 10.416 78.2753 10.974 77.3033 10.974C75.8093 10.974 74.7293 9.732 74.6213 7.86H80.8133C80.8673 7.626 80.9033 7.14 80.9033 6.744C80.9033 4.458 79.3373 2.838 77.1593 2.838C74.7833 2.838 73.0193 4.854 73.0193 7.608C73.0193 10.308 74.7833 12.234 77.2133 12.234C78.8153 12.234 80.2013 11.388 80.8313 9.966ZM77.1773 4.08C78.4373 4.08 79.3193 5.088 79.3733 6.636H74.7113C74.9813 5.088 75.9353 4.08 77.1773 4.08ZM84.584 12V6.672C84.728 5.484 85.448 4.368 86.834 4.368C87.14 4.368 87.572 4.422 87.824 4.494V2.982C87.644 2.91 87.212 2.838 86.906 2.838C85.862 2.838 84.89 3.756 84.53 4.89V3.072H83.054V12H84.584ZM96.2594 9.804L94.9634 9.3C94.5314 10.29 93.8114 10.92 92.8214 10.92C91.3634 10.92 90.3014 9.534 90.3014 7.608C90.3014 5.592 91.3274 4.134 92.7494 4.134C93.6494 4.134 94.4234 4.692 94.8554 5.736L96.1874 5.196C95.5574 3.756 94.3514 2.838 92.7134 2.838C90.3734 2.838 88.6814 4.836 88.6814 7.608C88.6814 10.29 90.3914 12.234 92.7674 12.234C94.4054 12.234 95.6834 11.208 96.2594 9.804ZM106.11 7.554C106.11 4.818 104.292 2.838 101.79 2.838C99.2884 2.838 97.4524 4.818 97.4524 7.554C97.4524 10.254 99.2884 12.234 101.79 12.234C104.292 12.234 106.11 10.254 106.11 7.554ZM99.0724 7.554C99.0724 5.574 100.206 4.116 101.79 4.116C103.356 4.116 104.49 5.574 104.49 7.554C104.49 9.498 103.356 10.938 101.79 10.938C100.206 10.938 99.0724 9.498 99.0724 7.554ZM109.738 12V6.672C109.882 5.484 110.602 4.368 111.988 4.368C112.294 4.368 112.726 4.422 112.978 4.494V2.982C112.798 2.91 112.366 2.838 112.06 2.838C111.016 2.838 110.044 3.756 109.684 4.89V3.072H108.208V12H109.738ZM121.464 9.552C121.464 7.896 120.06 7.212 118.044 6.78C116.532 6.438 115.668 6.168 115.668 5.376C115.668 4.62 116.514 4.098 117.702 4.098C118.944 4.098 119.772 4.62 120.186 5.484L121.41 4.998C120.888 3.9 119.79 2.838 117.72 2.838C115.614 2.838 114.174 3.954 114.174 5.466C114.174 7.014 115.632 7.734 117.612 8.148C119.142 8.472 119.988 8.778 119.988 9.624C119.988 10.434 119.232 10.992 117.918 10.992C116.424 10.992 115.47 10.326 115.02 9.444L113.76 9.93C114.372 11.334 115.812 12.234 117.846 12.234C120.114 12.234 121.464 11.136 121.464 9.552ZM131.546 7.554C131.546 4.818 129.728 2.838 127.226 2.838C124.724 2.838 122.888 4.818 122.888 7.554C122.888 10.254 124.724 12.234 127.226 12.234C129.728 12.234 131.546 10.254 131.546 7.554ZM124.508 7.554C124.508 5.574 125.642 4.116 127.226 4.116C128.792 4.116 129.926 5.574 129.926 7.554C129.926 9.498 128.792 10.938 127.226 10.938C125.642 10.938 124.508 9.498 124.508 7.554ZM2.916 35V29.672C3.06 28.484 3.78 27.368 5.166 27.368C5.472 27.368 5.904 27.422 6.156 27.494V25.982C5.976 25.91 5.544 25.838 5.238 25.838C4.194 25.838 3.222 26.756 2.862 27.89V26.072H1.386V35H2.916ZM15.0945 35.144L15.1665 33.974C15.0585 33.992 14.8785 34.01 14.7705 34.01C14.2305 34.01 13.9605 33.632 13.9605 33.146V29.042C13.9605 26.972 12.7005 25.838 10.7565 25.838C9.20855 25.838 7.85855 26.702 7.21055 28.106L8.39855 28.592C8.84855 27.746 9.55055 27.116 10.6125 27.116C11.7105 27.116 12.4305 27.872 12.4305 28.988V29.69L10.3425 29.942C8.36255 30.194 6.95855 31.148 6.95855 32.804C6.95855 34.226 8.09255 35.234 9.67655 35.234C10.9365 35.234 11.9265 34.622 12.5025 33.668C12.7185 34.694 13.3845 35.234 14.3925 35.234C14.6625 35.234 14.8785 35.198 15.0945 35.144ZM10.0905 33.992C9.19055 33.992 8.56055 33.452 8.56055 32.696C8.56055 31.778 9.42455 31.238 10.6125 31.094L12.4305 30.878V32.516C11.9625 33.38 11.0805 33.992 10.0905 33.992ZM20.654 33.956C19.808 33.956 18.872 33.506 18.332 32.858V28.52C18.8 27.8 19.682 27.098 20.726 27.098C22.22 27.098 23.336 28.448 23.336 30.5C23.336 32.534 22.22 33.956 20.654 33.956ZM24.956 30.5C24.956 27.764 23.228 25.838 21.122 25.838C19.754 25.838 18.746 26.666 18.278 27.404V26.072H16.802V38.276H18.332V34.064C18.908 34.766 19.898 35.234 20.96 35.234C23.21 35.234 24.956 33.236 24.956 30.5ZM30.9196 33.956C30.0736 33.956 29.1376 33.506 28.5976 32.858V28.52C29.0656 27.8 29.9476 27.098 30.9916 27.098C32.4856 27.098 33.6016 28.448 33.6016 30.5C33.6016 32.534 32.4856 33.956 30.9196 33.956ZM35.2216 30.5C35.2216 27.764 33.4936 25.838 31.3876 25.838C30.0196 25.838 29.0116 26.666 28.5436 27.404V26.072H27.0676V38.276H28.5976V34.064C29.1736 34.766 30.1636 35.234 31.2256 35.234C33.4756 35.234 35.2216 33.236 35.2216 30.5ZM38.8633 35V29.672C39.0073 28.484 39.7273 27.368 41.1133 27.368C41.4193 27.368 41.8513 27.422 42.1033 27.494V25.982C41.9233 25.91 41.4913 25.838 41.1853 25.838C40.1413 25.838 39.1693 26.756 38.8093 27.89V26.072H37.3333V35H38.8633ZM50.7727 32.966L49.5487 32.498C49.0807 33.416 48.2167 33.974 47.2447 33.974C45.7507 33.974 44.6707 32.732 44.5627 30.86H50.7547C50.8087 30.626 50.8447 30.14 50.8447 29.744C50.8447 27.458 49.2787 25.838 47.1007 25.838C44.7247 25.838 42.9607 27.854 42.9607 30.608C42.9607 33.308 44.7247 35.234 47.1547 35.234C48.7567 35.234 50.1427 34.388 50.7727 32.966ZM47.1187 27.08C48.3787 27.08 49.2607 28.088 49.3147 29.636H44.6527C44.9227 28.088 45.8767 27.08 47.1187 27.08ZM59.8174 32.552C59.8174 30.896 58.4134 30.212 56.3974 29.78C54.8854 29.438 54.0214 29.168 54.0214 28.376C54.0214 27.62 54.8674 27.098 56.0554 27.098C57.2974 27.098 58.1254 27.62 58.5394 28.484L59.7634 27.998C59.2414 26.9 58.1434 25.838 56.0734 25.838C53.9674 25.838 52.5274 26.954 52.5274 28.466C52.5274 30.014 53.9854 30.734 55.9654 31.148C57.4954 31.472 58.3414 31.778 58.3414 32.624C58.3414 33.434 57.5854 33.992 56.2714 33.992C54.7774 33.992 53.8234 33.326 53.3734 32.444L52.1134 32.93C52.7254 34.334 54.1654 35.234 56.1994 35.234C58.4674 35.234 59.8174 34.136 59.8174 32.552ZM69.0715 32.966L67.8475 32.498C67.3795 33.416 66.5155 33.974 65.5435 33.974C64.0495 33.974 62.9695 32.732 62.8615 30.86H69.0535C69.1075 30.626 69.1435 30.14 69.1435 29.744C69.1435 27.458 67.5775 25.838 65.3995 25.838C63.0235 25.838 61.2595 27.854 61.2595 30.608C61.2595 33.308 63.0235 35.234 65.4535 35.234C67.0555 35.234 68.4415 34.388 69.0715 32.966ZM65.4175 27.08C66.6775 27.08 67.5595 28.088 67.6135 29.636H62.9515C63.2215 28.088 64.1755 27.08 65.4175 27.08ZM78.8002 35V29.096C78.8002 27.188 77.4682 25.838 75.7222 25.838C74.4442 25.838 73.3642 26.594 72.7702 27.44V26.072H71.2942V35H72.8242V28.52C73.3822 27.728 74.3542 27.134 75.3622 27.134C76.4782 27.134 77.2702 27.962 77.2702 29.204V35H78.8002ZM86.4425 34.946V33.668C86.0645 33.812 85.4345 33.92 84.8765 33.92C83.7425 33.92 83.2925 33.362 83.2925 32.516V27.332H86.3885V26.072H83.2925V23.894H81.7625V26.072H80.4485V27.332H81.7625V32.768C81.7625 34.334 82.8245 35.234 84.6065 35.234C85.2725 35.234 86.0465 35.09 86.4425 34.946ZM95.5496 35.144L95.6216 33.974C95.5136 33.992 95.3336 34.01 95.2256 34.01C94.6856 34.01 94.4156 33.632 94.4156 33.146V29.042C94.4156 26.972 93.1556 25.838 91.2116 25.838C89.6636 25.838 88.3136 26.702 87.6656 28.106L88.8536 28.592C89.3036 27.746 90.0056 27.116 91.0676 27.116C92.1656 27.116 92.8856 27.872 92.8856 28.988V29.69L90.7976 29.942C88.8176 30.194 87.4136 31.148 87.4136 32.804C87.4136 34.226 88.5476 35.234 90.1316 35.234C91.3916 35.234 92.3816 34.622 92.9576 33.668C93.1736 34.694 93.8396 35.234 94.8476 35.234C95.1176 35.234 95.3336 35.198 95.5496 35.144ZM90.5456 33.992C89.6456 33.992 89.0156 33.452 89.0156 32.696C89.0156 31.778 89.8796 31.238 91.0676 31.094L92.8856 30.878V32.516C92.4176 33.38 91.5356 33.992 90.5456 33.992ZM102.936 22.328H101.406V35H102.936V22.328ZM113.11 35.144L113.182 33.974C113.074 33.992 112.894 34.01 112.786 34.01C112.246 34.01 111.976 33.632 111.976 33.146V29.042C111.976 26.972 110.716 25.838 108.772 25.838C107.224 25.838 105.874 26.702 105.226 28.106L106.414 28.592C106.864 27.746 107.566 27.116 108.628 27.116C109.726 27.116 110.446 27.872 110.446 28.988V29.69L108.358 29.942C106.378 30.194 104.974 31.148 104.974 32.804C104.974 34.226 106.108 35.234 107.692 35.234C108.952 35.234 109.942 34.622 110.518 33.668C110.734 34.694 111.4 35.234 112.408 35.234C112.678 35.234 112.894 35.198 113.11 35.144ZM108.106 33.992C107.206 33.992 106.576 33.452 106.576 32.696C106.576 31.778 107.44 31.238 108.628 31.094L110.446 30.878V32.516C109.978 33.38 109.096 33.992 108.106 33.992ZM5.238 56.956C4.392 56.956 3.456 56.506 2.916 55.858V51.52C3.384 50.8 4.266 50.098 5.31 50.098C6.804 50.098 7.92 51.448 7.92 53.5C7.92 55.534 6.804 56.956 5.238 56.956ZM9.54 53.5C9.54 50.764 7.812 48.838 5.706 48.838C4.338 48.838 3.33 49.666 2.862 50.404V49.072H1.386V61.276H2.916V57.064C3.492 57.766 4.482 58.234 5.544 58.234C7.794 58.234 9.54 56.236 9.54 53.5ZM13.1816 58V52.672C13.3256 51.484 14.0456 50.368 15.4316 50.368C15.7376 50.368 16.1696 50.422 16.4216 50.494V48.982C16.2416 48.91 15.8096 48.838 15.5036 48.838C14.4596 48.838 13.4876 49.756 13.1276 50.89V49.072H11.6516V58H13.1816ZM25.919 53.554C25.919 50.818 24.101 48.838 21.599 48.838C19.097 48.838 17.261 50.818 17.261 53.554C17.261 56.254 19.097 58.234 21.599 58.234C24.101 58.234 25.919 56.254 25.919 53.554ZM18.881 53.554C18.881 51.574 20.015 50.116 21.599 50.116C23.165 50.116 24.299 51.574 24.299 53.554C24.299 55.498 23.165 56.938 21.599 56.938C20.015 56.938 18.881 55.498 18.881 53.554ZM31.5629 56.956C30.0689 56.956 29.0069 55.534 29.0069 53.59C29.0069 51.592 30.1229 50.134 31.6709 50.134C32.6249 50.134 33.5069 50.566 33.9749 51.25V55.66C33.4529 56.434 32.4989 56.956 31.5629 56.956ZM35.5049 58V45.328H33.9749V50.044C33.3629 49.324 32.3189 48.838 31.3469 48.838C29.0429 48.838 27.3689 50.836 27.3689 53.608C27.3689 56.29 28.9889 58.234 31.2209 58.234C32.2469 58.234 33.3989 57.604 34.0649 56.722V58H35.5049ZM45.4825 58V49.072H43.9525V55.228C43.5025 56.218 42.6385 56.938 41.5765 56.938C40.4785 56.938 39.6865 56.074 39.6865 54.868V49.072H38.1565V54.976C38.1565 56.866 39.4165 58.234 41.1445 58.234C42.4585 58.234 43.4845 57.478 44.0065 56.524V58H45.4825ZM47.6373 50.404H52.4433L47.5113 56.812V58H54.4953V56.668H49.3473L54.4053 50.26V49.072H47.6373V50.404ZM58.041 49.072H56.511V58H58.041V49.072ZM58.041 45.526H56.511V47.308H58.041V45.526ZM68.8096 53.554C68.8096 50.818 66.9916 48.838 64.4896 48.838C61.9876 48.838 60.1516 50.818 60.1516 53.554C60.1516 56.254 61.9876 58.234 64.4896 58.234C66.9916 58.234 68.8096 56.254 68.8096 53.554ZM61.7716 53.554C61.7716 51.574 62.9056 50.116 64.4896 50.116C66.0556 50.116 67.1896 51.574 67.1896 53.554C67.1896 55.498 66.0556 56.938 64.4896 56.938C62.9056 56.938 61.7716 55.498 61.7716 53.554ZM78.4135 58V52.096C78.4135 50.188 77.0815 48.838 75.3355 48.838C74.0575 48.838 72.9775 49.594 72.3835 50.44V49.072H70.9075V58H72.4375V51.52C72.9955 50.728 73.9675 50.134 74.9755 50.134C76.0915 50.134 76.8835 50.962 76.8835 52.204V58H78.4135ZM88.2492 55.966L87.0252 55.498C86.5572 56.416 85.6932 56.974 84.7212 56.974C83.2272 56.974 82.1472 55.732 82.0392 53.86H88.2312C88.2852 53.626 88.3212 53.14 88.3212 52.744C88.3212 50.458 86.7552 48.838 84.5772 48.838C82.2012 48.838 80.4372 50.854 80.4372 53.608C80.4372 56.308 82.2012 58.234 84.6312 58.234C86.2332 58.234 87.6192 57.388 88.2492 55.966ZM84.5952 50.08C85.8552 50.08 86.7372 51.088 86.7912 52.636H82.1292C82.3992 51.088 83.3532 50.08 84.5952 50.08ZM98.1664 56.956C96.6724 56.956 95.6104 55.534 95.6104 53.59C95.6104 51.592 96.7264 50.134 98.2744 50.134C99.2284 50.134 100.11 50.566 100.578 51.25V55.66C100.056 56.434 99.1024 56.956 98.1664 56.956ZM102.108 58V45.328H100.578V50.044C99.9664 49.324 98.9224 48.838 97.9504 48.838C95.6464 48.838 93.9724 50.836 93.9724 53.608C93.9724 56.29 95.5924 58.234 97.8244 58.234C98.8504 58.234 100.002 57.604 100.668 56.722V58H102.108ZM106.416 49.072H104.886V58H106.416V49.072ZM106.416 45.526H104.886V47.308H106.416V45.526ZM120.505 55.966L119.281 55.498C118.813 56.416 117.949 56.974 116.977 56.974C115.483 56.974 114.403 55.732 114.295 53.86H120.487C120.541 53.626 120.577 53.14 120.577 52.744C120.577 50.458 119.011 48.838 116.833 48.838C114.457 48.838 112.693 50.854 112.693 53.608C112.693 56.308 114.457 58.234 116.887 58.234C118.489 58.234 119.875 57.388 120.505 55.966ZM116.851 50.08C118.111 50.08 118.993 51.088 119.047 52.636H114.385C114.655 51.088 115.609 50.08 116.851 50.08ZM130.234 58V52.096C130.234 50.188 128.902 48.838 127.156 48.838C125.878 48.838 124.798 49.594 124.204 50.44V49.072H122.728V58H124.258V51.52C124.816 50.728 125.788 50.134 126.796 50.134C127.912 50.134 128.704 50.962 128.704 52.204V58H130.234ZM140.07 55.966L138.846 55.498C138.378 56.416 137.514 56.974 136.542 56.974C135.048 56.974 133.968 55.732 133.86 53.86H140.052C140.106 53.626 140.142 53.14 140.142 52.744C140.142 50.458 138.576 48.838 136.398 48.838C134.022 48.838 132.258 50.854 132.258 53.608C132.258 56.308 134.022 58.234 136.452 58.234C138.054 58.234 139.44 57.388 140.07 55.966ZM136.416 50.08C137.676 50.08 138.558 51.088 138.612 52.636H133.95C134.22 51.088 135.174 50.08 136.416 50.08ZM143.822 58V52.672C143.966 51.484 144.686 50.368 146.072 50.368C146.378 50.368 146.81 50.422 147.062 50.494V48.982C146.882 48.91 146.45 48.838 146.144 48.838C145.1 48.838 144.128 49.756 143.768 50.89V49.072H142.292V58H143.822ZM156.396 58.594C156.396 57.298 155.442 56.614 153.408 56.434L152.148 56.326C150.888 56.218 150.438 56.002 150.438 55.732C150.438 55.516 150.636 55.21 150.816 55.012C151.122 55.084 151.464 55.12 151.788 55.12C153.732 55.12 155.316 53.86 155.316 52.114C155.316 51.466 155.118 50.854 154.74 50.332C155.226 50.08 156 49.864 156.72 49.864V48.496C155.622 48.496 154.758 49.018 154.218 49.756C153.57 49.198 152.688 48.838 151.68 48.838C149.682 48.838 148.116 50.206 148.116 52.006C148.116 53.284 148.908 54.256 150.024 54.76C149.448 55.156 148.962 55.768 148.962 56.182C148.962 56.542 149.214 56.848 149.664 57.082C148.548 57.55 147.738 58.36 147.738 59.17C147.738 60.646 149.376 61.51 151.878 61.51C154.65 61.51 156.396 60.286 156.396 58.594ZM151.896 60.34C150.222 60.34 149.268 59.728 149.268 58.936C149.268 58.324 149.826 57.73 150.582 57.406C150.942 57.496 151.356 57.568 151.824 57.604L153.084 57.712C154.524 57.838 154.884 58.18 154.884 58.828C154.884 59.674 153.714 60.34 151.896 60.34ZM149.646 52.024C149.646 50.89 150.51 50.008 151.698 50.008C152.886 50.008 153.786 50.89 153.786 52.024C153.786 53.14 152.886 53.95 151.698 53.95C150.51 53.95 149.646 53.14 149.646 52.024ZM159.941 49.072H158.411V58H159.941V49.072ZM159.941 45.526H158.411V47.308H159.941V45.526ZM170.116 58.144L170.188 56.974C170.08 56.992 169.9 57.01 169.792 57.01C169.252 57.01 168.982 56.632 168.982 56.146V52.042C168.982 49.972 167.722 48.838 165.778 48.838C164.23 48.838 162.88 49.702 162.232 51.106L163.42 51.592C163.87 50.746 164.572 50.116 165.634 50.116C166.732 50.116 167.452 50.872 167.452 51.988V52.69L165.364 52.942C163.384 53.194 161.98 54.148 161.98 55.804C161.98 57.226 163.114 58.234 164.698 58.234C165.958 58.234 166.948 57.622 167.524 56.668C167.74 57.694 168.406 58.234 169.414 58.234C169.684 58.234 169.9 58.198 170.116 58.144ZM165.112 56.992C164.212 56.992 163.582 56.452 163.582 55.696C163.582 54.778 164.446 54.238 165.634 54.094L167.452 53.878V55.516C166.984 56.38 166.102 56.992 165.112 56.992ZM8.784 81.144L8.856 79.974C8.748 79.992 8.568 80.01 8.46 80.01C7.92 80.01 7.65 79.632 7.65 79.146V75.042C7.65 72.972 6.39 71.838 4.446 71.838C2.898 71.838 1.548 72.702 0.9 74.106L2.088 74.592C2.538 73.746 3.24 73.116 4.302 73.116C5.4 73.116 6.12 73.872 6.12 74.988V75.69L4.032 75.942C2.052 76.194 0.648 77.148 0.648 78.804C0.648 80.226 1.782 81.234 3.366 81.234C4.626 81.234 5.616 80.622 6.192 79.668C6.408 80.694 7.074 81.234 8.082 81.234C8.352 81.234 8.568 81.198 8.784 81.144ZM3.78 79.992C2.88 79.992 2.25 79.452 2.25 78.696C2.25 77.778 3.114 77.238 4.302 77.094L6.12 76.878V78.516C5.652 79.38 4.77 79.992 3.78 79.992ZM22.7939 76.5C22.7939 73.8 21.1919 71.838 18.9959 71.838C17.9699 71.838 16.8359 72.414 16.1699 73.26V68.328H14.6399V81H16.0799V79.92C16.7639 80.694 17.8799 81.234 18.8519 81.234C21.1379 81.234 22.7939 79.254 22.7939 76.5ZM18.4919 79.956C17.5559 79.956 16.6559 79.47 16.1699 78.804V74.358C16.6559 73.62 17.6099 73.134 18.5819 73.134C20.0759 73.134 21.1739 74.538 21.1739 76.482C21.1739 78.48 20.0399 79.956 18.4919 79.956ZM32.3211 81.144L32.3931 79.974C32.2851 79.992 32.1051 80.01 31.9971 80.01C31.4571 80.01 31.1871 79.632 31.1871 79.146V75.042C31.1871 72.972 29.9271 71.838 27.9831 71.838C26.4351 71.838 25.0851 72.702 24.4371 74.106L25.6251 74.592C26.0751 73.746 26.7771 73.116 27.8391 73.116C28.9371 73.116 29.6571 73.872 29.6571 74.988V75.69L27.5691 75.942C25.5891 76.194 24.1851 77.148 24.1851 78.804C24.1851 80.226 25.3191 81.234 26.9031 81.234C28.1631 81.234 29.1531 80.622 29.7291 79.668C29.9451 80.694 30.6111 81.234 31.6191 81.234C31.8891 81.234 32.1051 81.198 32.3211 81.144ZM27.3171 79.992C26.4171 79.992 25.7871 79.452 25.7871 78.696C25.7871 77.778 26.6511 77.238 27.8391 77.094L29.6571 76.878V78.516C29.1891 79.38 28.3071 79.992 27.3171 79.992ZM40.8506 78.552C40.8506 76.896 39.4466 76.212 37.4306 75.78C35.9186 75.438 35.0546 75.168 35.0546 74.376C35.0546 73.62 35.9006 73.098 37.0886 73.098C38.3306 73.098 39.1586 73.62 39.5726 74.484L40.7966 73.998C40.2746 72.9 39.1766 71.838 37.1066 71.838C35.0006 71.838 33.5606 72.954 33.5606 74.466C33.5606 76.014 35.0186 76.734 36.9986 77.148C38.5286 77.472 39.3746 77.778 39.3746 78.624C39.3746 79.434 38.6186 79.992 37.3046 79.992C35.8106 79.992 34.8566 79.326 34.4066 78.444L33.1466 78.93C33.7586 80.334 35.1986 81.234 37.2326 81.234C39.5006 81.234 40.8506 80.136 40.8506 78.552ZM49.7627 78.552C49.7627 76.896 48.3587 76.212 46.3427 75.78C44.8307 75.438 43.9667 75.168 43.9667 74.376C43.9667 73.62 44.8127 73.098 46.0007 73.098C47.2427 73.098 48.0707 73.62 48.4847 74.484L49.7087 73.998C49.1867 72.9 48.0887 71.838 46.0187 71.838C43.9127 71.838 42.4727 72.954 42.4727 74.466C42.4727 76.014 43.9307 76.734 45.9107 77.148C47.4407 77.472 48.2867 77.778 48.2867 78.624C48.2867 79.434 47.5307 79.992 46.2167 79.992C44.7227 79.992 43.7687 79.326 43.3187 78.444L42.0587 78.93C42.6707 80.334 44.1107 81.234 46.1447 81.234C48.4127 81.234 49.7627 80.136 49.7627 78.552ZM59.2508 81.144L59.3228 79.974C59.2148 79.992 59.0348 80.01 58.9268 80.01C58.3868 80.01 58.1168 79.632 58.1168 79.146V75.042C58.1168 72.972 56.8568 71.838 54.9128 71.838C53.3648 71.838 52.0148 72.702 51.3668 74.106L52.5548 74.592C53.0048 73.746 53.7068 73.116 54.7688 73.116C55.8668 73.116 56.5868 73.872 56.5868 74.988V75.69L54.4988 75.942C52.5188 76.194 51.1148 77.148 51.1148 78.804C51.1148 80.226 52.2488 81.234 53.8328 81.234C55.0928 81.234 56.0828 80.622 56.6588 79.668C56.8748 80.694 57.5408 81.234 58.5488 81.234C58.8188 81.234 59.0348 81.198 59.2508 81.144ZM54.2468 79.992C53.3468 79.992 52.7168 79.452 52.7168 78.696C52.7168 77.778 53.5808 77.238 54.7688 77.094L56.5868 76.878V78.516C56.1188 79.38 55.2368 79.992 54.2468 79.992ZM72.2707 78.966L71.0467 78.498C70.5787 79.416 69.7147 79.974 68.7427 79.974C67.2487 79.974 66.1687 78.732 66.0607 76.86H72.2527C72.3067 76.626 72.3427 76.14 72.3427 75.744C72.3427 73.458 70.7767 71.838 68.5987 71.838C66.2227 71.838 64.4587 73.854 64.4587 76.608C64.4587 79.308 66.2227 81.234 68.6527 81.234C70.2547 81.234 71.6407 80.388 72.2707 78.966ZM68.6167 73.08C69.8767 73.08 70.7587 74.088 70.8127 75.636H66.1507C66.4207 74.088 67.3747 73.08 68.6167 73.08ZM87.0214 81V75.096C87.0214 73.188 85.7254 71.838 84.0514 71.838C82.8634 71.838 81.8194 72.558 81.1894 73.512C80.7034 72.486 79.7674 71.838 78.6694 71.838C77.4814 71.838 76.4914 72.594 75.9694 73.44V72.072H74.4934V81H76.0234V74.484C76.5274 73.728 77.3914 73.134 78.2734 73.134C79.2634 73.134 79.9834 73.962 79.9834 75.204V81H81.5134V75.096C81.5134 74.826 81.4954 74.574 81.4414 74.322C81.9814 73.638 82.8454 73.134 83.7094 73.134C84.7354 73.134 85.4914 73.962 85.4914 75.204V81H87.0214ZM91.1933 72.072H89.6633V81H91.1933V72.072ZM91.1933 68.526H89.6633V70.308H91.1933V68.526ZM100.792 78.552C100.792 76.896 99.388 76.212 97.372 75.78C95.86 75.438 94.996 75.168 94.996 74.376C94.996 73.62 95.842 73.098 97.03 73.098C98.272 73.098 99.1 73.62 99.514 74.484L100.738 73.998C100.216 72.9 99.118 71.838 97.048 71.838C94.942 71.838 93.502 72.954 93.502 74.466C93.502 76.014 94.96 76.734 96.94 77.148C98.47 77.472 99.316 77.778 99.316 78.624C99.316 79.434 98.56 79.992 97.246 79.992C95.752 79.992 94.798 79.326 94.348 78.444L93.088 78.93C93.7 80.334 95.14 81.234 97.174 81.234C99.442 81.234 100.792 80.136 100.792 78.552ZM109.704 78.552C109.704 76.896 108.3 76.212 106.284 75.78C104.772 75.438 103.908 75.168 103.908 74.376C103.908 73.62 104.754 73.098 105.942 73.098C107.184 73.098 108.012 73.62 108.426 74.484L109.65 73.998C109.128 72.9 108.03 71.838 105.96 71.838C103.854 71.838 102.414 72.954 102.414 74.466C102.414 76.014 103.872 76.734 105.852 77.148C107.382 77.472 108.228 77.778 108.228 78.624C108.228 79.434 107.472 79.992 106.158 79.992C104.664 79.992 103.71 79.326 103.26 78.444L102 78.93C102.612 80.334 104.052 81.234 106.086 81.234C108.354 81.234 109.704 80.136 109.704 78.552ZM113.324 72.072H111.794V81H113.324V72.072ZM113.324 68.526H111.794V70.308H113.324V68.526ZM124.093 76.554C124.093 73.818 122.275 71.838 119.773 71.838C117.271 71.838 115.435 73.818 115.435 76.554C115.435 79.254 117.271 81.234 119.773 81.234C122.275 81.234 124.093 79.254 124.093 76.554ZM117.055 76.554C117.055 74.574 118.189 73.116 119.773 73.116C121.339 73.116 122.473 74.574 122.473 76.554C122.473 78.498 121.339 79.938 119.773 79.938C118.189 79.938 117.055 78.498 117.055 76.554ZM133.697 81V75.096C133.697 73.188 132.365 71.838 130.619 71.838C129.341 71.838 128.261 72.594 127.667 73.44V72.072H126.191V81H127.721V74.52C128.279 73.728 129.251 73.134 130.259 73.134C131.375 73.134 132.167 73.962 132.167 75.204V81H133.697ZM143.532 78.966L142.308 78.498C141.84 79.416 140.976 79.974 140.004 79.974C138.51 79.974 137.43 78.732 137.322 76.86H143.514C143.568 76.626 143.604 76.14 143.604 75.744C143.604 73.458 142.038 71.838 139.86 71.838C137.484 71.838 135.72 73.854 135.72 76.608C135.72 79.308 137.484 81.234 139.914 81.234C141.516 81.234 142.902 80.388 143.532 78.966ZM139.878 73.08C141.138 73.08 142.02 74.088 142.074 75.636H137.412C137.682 74.088 138.636 73.08 139.878 73.08ZM4.932 102.956C3.438 102.956 2.376 101.534 2.376 99.59C2.376 97.592 3.492 96.134 5.04 96.134C5.994 96.134 6.876 96.566 7.344 97.25V101.66C6.822 102.434 5.868 102.956 4.932 102.956ZM8.874 104V91.328H7.344V96.044C6.732 95.324 5.688 94.838 4.716 94.838C2.412 94.838 0.738 96.836 0.738 99.608C0.738 102.29 2.358 104.234 4.59 104.234C5.616 104.234 6.768 103.604 7.434 102.722V104H8.874ZM13.1816 95.072H11.6516V104H13.1816V95.072ZM13.1816 91.526H11.6516V93.308H13.1816V91.526ZM27.0367 101.804L25.7407 101.3C25.3087 102.29 24.5887 102.92 23.5987 102.92C22.1407 102.92 21.0787 101.534 21.0787 99.608C21.0787 97.592 22.1047 96.134 23.5267 96.134C24.4267 96.134 25.2007 96.692 25.6327 97.736L26.9647 97.196C26.3347 95.756 25.1287 94.838 23.4907 94.838C21.1507 94.838 19.4587 96.836 19.4587 99.608C19.4587 102.29 21.1687 104.234 23.5447 104.234C25.1827 104.234 26.4607 103.208 27.0367 101.804ZM36.2938 104.144L36.3658 102.974C36.2578 102.992 36.0778 103.01 35.9698 103.01C35.4298 103.01 35.1598 102.632 35.1598 102.146V98.042C35.1598 95.972 33.8998 94.838 31.9558 94.838C30.4078 94.838 29.0578 95.702 28.4098 97.106L29.5978 97.592C30.0478 96.746 30.7498 96.116 31.8118 96.116C32.9098 96.116 33.6298 96.872 33.6298 97.988V98.69L31.5418 98.942C29.5618 99.194 28.1578 100.148 28.1578 101.804C28.1578 103.226 29.2918 104.234 30.8758 104.234C32.1358 104.234 33.1258 103.622 33.7018 102.668C33.9178 103.694 34.5838 104.234 35.5918 104.234C35.8618 104.234 36.0778 104.198 36.2938 104.144ZM31.2898 102.992C30.3898 102.992 29.7598 102.452 29.7598 101.696C29.7598 100.778 30.6238 100.238 31.8118 100.094L33.6298 99.878V101.516C33.1618 102.38 32.2798 102.992 31.2898 102.992ZM39.5312 104V98.672C39.6752 97.484 40.3952 96.368 41.7812 96.368C42.0872 96.368 42.5192 96.422 42.7712 96.494V94.982C42.5912 94.91 42.1592 94.838 41.8532 94.838C40.8092 94.838 39.8372 95.756 39.4772 96.89V95.072H38.0012V104H39.5312ZM52.6767 99.5C52.6767 96.8 51.0747 94.838 48.8787 94.838C47.8527 94.838 46.7187 95.414 46.0527 96.26V91.328H44.5227V104H45.9627V102.92C46.6467 103.694 47.7627 104.234 48.7347 104.234C51.0207 104.234 52.6767 102.254 52.6767 99.5ZM48.3747 102.956C47.4387 102.956 46.5387 102.47 46.0527 101.804V97.358C46.5387 96.62 47.4927 96.134 48.4647 96.134C49.9587 96.134 51.0567 97.538 51.0567 99.482C51.0567 101.48 49.9227 102.956 48.3747 102.956ZM62.7979 99.554C62.7979 96.818 60.9799 94.838 58.4779 94.838C55.9759 94.838 54.1399 96.818 54.1399 99.554C54.1399 102.254 55.9759 104.234 58.4779 104.234C60.9799 104.234 62.7979 102.254 62.7979 99.554ZM55.7599 99.554C55.7599 97.574 56.8939 96.116 58.4779 96.116C60.0439 96.116 61.1779 97.574 61.1779 99.554C61.1779 101.498 60.0439 102.938 58.4779 102.938C56.8939 102.938 55.7599 101.498 55.7599 99.554ZM72.4018 104V98.096C72.4018 96.188 71.0698 94.838 69.3238 94.838C68.0458 94.838 66.9658 95.594 66.3718 96.44V95.072H64.8958V104H66.4258V97.52C66.9838 96.728 67.9558 96.134 68.9638 96.134C70.0798 96.134 70.8718 96.962 70.8718 98.204V104H72.4018ZM76.6035 95.072H75.0735V104H76.6035V95.072ZM76.6035 91.526H75.0735V93.308H76.6035V91.526ZM87.3721 99.554C87.3721 96.818 85.5541 94.838 83.0521 94.838C80.5501 94.838 78.7141 96.818 78.7141 99.554C78.7141 102.254 80.5501 104.234 83.0521 104.234C85.5541 104.234 87.3721 102.254 87.3721 99.554ZM80.3341 99.554C80.3341 97.574 81.4681 96.116 83.0521 96.116C84.6181 96.116 85.7521 97.574 85.7521 99.554C85.7521 101.498 84.6181 102.938 83.0521 102.938C81.4681 102.938 80.3341 101.498 80.3341 99.554Z" fill="white"/>
</svg>
