<svg width="45" height="154" viewBox="0 0 45 154" fill="none" xmlns="http://www.w3.org/2000/svg">
<rect width="45" height="154" fill="#1767D2"/>
<path d="M17.7668 110.573C17.8973 110.798 18.1324 110.922 18.3735 110.922C18.4926 110.922 18.6125 110.895 18.7229 110.828C19.0576 110.636 19.172 110.204 18.978 109.869L17.3146 106.97C17.1198 106.632 16.6932 106.516 16.3585 106.713C16.0234 106.904 15.9085 107.336 16.1025 107.673L17.7668 110.573Z" fill="white" fill-opacity="0.5"/>
<path d="M14.7304 117.784C14.7304 117.395 14.4165 117.079 14.0303 117.079L10.7001 117.079C10.3137 117.079 10 117.395 10 117.784C10 118.173 10.3137 118.49 10.7001 118.49H14.0303C14.4165 118.489 14.7304 118.172 14.7304 117.784V117.784Z" fill="white" fill-opacity="0.5"/>
<path d="M15.5426 112.81L12.6599 111.134C12.3235 110.94 11.8955 111.056 11.704 111.393C11.5107 111.731 11.6243 112.162 11.9597 112.353L14.8436 114.028C14.9545 114.091 15.0744 114.12 15.1936 114.12C15.4333 114.12 15.6701 113.998 15.7988 113.769C15.9935 113.435 15.879 113.005 15.5426 112.81L15.5426 112.81Z" fill="white" fill-opacity="0.5"/>
<path d="M14.8437 121.545L11.9597 123.22C11.6244 123.415 11.5106 123.844 11.7039 124.181C11.8326 124.409 12.0684 124.532 12.3091 124.532C12.4297 124.532 12.5482 124.505 12.66 124.438L15.5429 122.765C15.8793 122.571 15.9934 122.142 15.7987 121.8C15.607 121.467 15.1782 121.349 14.8437 121.545L14.8437 121.545Z" fill="white" fill-opacity="0.5"/>
<path d="M30.2438 114.122C30.3614 114.122 30.4821 114.091 30.5934 114.028L33.4775 112.356C33.8109 112.161 33.9249 111.731 33.7334 111.393C33.5399 111.058 33.1117 110.94 32.777 111.134L29.8942 112.81C29.5566 113.005 29.4437 113.435 29.6367 113.774C29.7668 113.998 30.0024 114.122 30.2439 114.122L30.2438 114.122Z" fill="white" fill-opacity="0.5"/>
<path d="M22.7191 109.755C23.1055 109.755 23.4194 109.44 23.4194 109.053V105.703C23.4194 105.316 23.1055 105 22.7191 105C22.3321 105 22.0188 105.316 22.0188 105.703V109.053C22.0189 109.44 22.3321 109.755 22.7191 109.755V109.755Z" fill="white" fill-opacity="0.5"/>
<path d="M26.7123 110.83C26.8219 110.895 26.9431 110.922 27.0601 110.922C27.3033 110.922 27.5378 110.799 27.6665 110.573L29.3321 107.672C29.5261 107.336 29.4114 106.906 29.077 106.713C28.7405 106.516 28.3139 106.632 28.121 106.97L26.4548 109.869C26.2624 110.206 26.3757 110.636 26.7122 110.83L26.7123 110.83Z" fill="white" fill-opacity="0.5"/>
<path d="M34.7362 117.082H31.4058C31.0181 117.082 30.7057 117.396 30.7057 117.785C30.7057 118.174 31.018 118.49 31.4042 118.49H34.7362C35.1221 118.49 35.4357 118.173 35.4357 117.788C35.4357 117.396 35.1223 117.082 34.7362 117.082H34.7362Z" fill="white" fill-opacity="0.5"/>
<path d="M22.7148 124.543C26.4248 124.543 29.4336 121.518 29.4336 117.789C29.4336 114.057 26.425 111.031 22.7148 111.031C19.0027 111.031 15.9966 114.057 15.9966 117.789C15.9968 121.518 19.0032 124.543 22.7148 124.543V124.543Z" fill="white" fill-opacity="0.5"/>
<path d="M33.4774 123.22L30.5936 121.545C30.2581 121.349 29.8299 121.467 29.6366 121.8C29.4437 122.142 29.5569 122.571 29.8941 122.765L32.7769 124.438C32.8871 124.505 33.007 124.535 33.1258 124.535C33.3672 124.535 33.6018 124.409 33.7328 124.183C33.9248 123.845 33.8105 123.415 33.4774 123.22H33.4774Z" fill="white" fill-opacity="0.5"/>
<path d="M18.7217 124.745C18.387 124.551 17.9588 124.666 17.7671 125.002L16.1028 127.903C15.9089 128.239 16.0225 128.671 16.3565 128.864C16.4667 128.93 16.5891 128.96 16.7067 128.96C16.9506 128.96 17.1839 128.833 17.3151 128.605L18.9785 125.705C19.1725 125.37 19.0578 124.941 18.7217 124.745L18.7217 124.745Z" fill="white" fill-opacity="0.5"/>
<path d="M27.6665 125.002C27.4747 124.666 27.047 124.551 26.7122 124.745C26.3757 124.941 26.2624 125.37 26.4548 125.705L28.121 128.607C28.2507 128.833 28.4853 128.96 28.7263 128.96C28.8473 128.96 28.9674 128.93 29.077 128.864C29.4112 128.671 29.5261 128.239 29.3321 127.902L27.6665 125.002Z" fill="white" fill-opacity="0.5"/>
<path d="M22.7191 125.82C22.3321 125.82 22.0188 126.136 22.0188 126.526V129.876C22.0188 130.261 22.332 130.578 22.7191 130.578C23.1055 130.578 23.4176 130.261 23.4176 129.876V126.526C23.4176 126.136 23.1055 125.82 22.7191 125.82Z" fill="white" fill-opacity="0.5"/>
</svg>
