<svg width="125" height="485" viewBox="0 0 125 485" fill="none" xmlns="http://www.w3.org/2000/svg">
<path d="M1.40747 1.08301H124.25V480.667C124.25 482.462 122.795 483.917 121 483.917H1.40747V1.08301Z" fill="#202125" stroke="#1767D2" stroke-width="1.5"/>
<g opacity="0.5">
<path d="M98.2282 434.472H73.9242C74.4485 433.354 75.4649 432.546 76.6721 432.287C77.003 431.426 77.5863 430.685 78.3458 430.161C79.1052 429.637 80.005 429.355 80.9275 429.351C81.0357 429.351 81.1494 429.357 81.2574 429.363C81.599 428.522 82.1824 427.802 82.9341 427.293C83.6857 426.785 84.5713 426.511 85.4788 426.507C86.6875 426.505 87.8466 426.987 88.6987 427.844C89.1305 427.713 89.579 427.646 90.0301 427.645C91.144 427.646 92.2189 428.055 93.0512 428.795C93.8837 429.536 94.4158 430.555 94.5474 431.661C95.3558 431.759 96.1233 432.071 96.7704 432.565C97.4178 433.059 97.9209 433.718 98.228 434.472L98.2282 434.472ZM74.129 453.769C74.112 453.598 74.1006 453.422 74.1006 453.246C74.1006 451.417 75.0764 449.726 76.6607 448.812C78.245 447.897 80.1966 447.897 81.7809 448.812C83.3652 449.726 84.341 451.417 84.341 453.246C84.3413 453.436 84.3299 453.626 84.307 453.815H87.7888H87.7886C87.7657 453.626 87.7543 453.436 87.7545 453.246C87.7545 451.417 88.7303 449.726 90.3146 448.812C91.8989 447.897 93.8505 447.897 95.4349 448.812C97.0192 449.726 97.995 451.417 97.995 453.246C97.995 453.422 97.9835 453.598 97.9665 453.769C98.7678 453.641 99.4972 453.232 100.024 452.615C100.55 451.997 100.84 451.213 100.84 450.401V436.178C100.839 435.864 100.585 435.61 100.271 435.609H71.825C71.5111 435.61 71.2571 435.864 71.2561 436.178V450.401C71.2561 451.213 71.5454 451.997 72.0719 452.615C72.5984 453.232 73.3278 453.641 74.1291 453.769H74.129ZM79.2208 454.384C79.5225 454.384 79.8121 454.264 80.0254 454.05C80.2387 453.837 80.3586 453.547 80.3586 453.246C80.3586 452.944 80.2387 452.654 80.0254 452.441C79.8121 452.228 79.5225 452.108 79.2208 452.108C78.9191 452.108 78.6295 452.228 78.4162 452.441C78.2028 452.654 78.083 452.944 78.083 453.246C78.0835 453.547 78.2033 453.836 78.4167 454.05C78.63 454.263 78.9191 454.383 79.2208 454.384L79.2208 454.384ZM92.8747 454.384C93.1764 454.384 93.466 454.264 93.6793 454.05C93.8926 453.837 94.0125 453.547 94.0125 453.246C94.0125 452.944 93.8926 452.654 93.6793 452.441C93.466 452.228 93.1764 452.108 92.8747 452.108C92.573 452.108 92.2834 452.228 92.0701 452.441C91.8568 452.654 91.7369 452.944 91.7369 453.246C91.7374 453.547 91.8573 453.836 92.0706 454.05C92.2839 454.263 92.573 454.383 92.8747 454.384L92.8747 454.384ZM104.253 456.659V458.935C104.253 459.086 104.193 459.23 104.086 459.337C103.98 459.444 103.835 459.504 103.684 459.504H68.4114C68.0973 459.504 67.8425 459.249 67.8425 458.935V456.659C67.8425 456.345 68.0973 456.09 68.4114 456.09H76.4393C75.6794 455.349 75.2471 454.334 75.2387 453.273C75.2301 452.211 75.6458 451.189 76.3936 450.436C77.1413 449.682 78.159 449.258 79.2209 449.258C80.2827 449.258 81.3004 449.682 82.0481 450.436C82.7958 451.189 83.2116 452.211 83.203 453.273C83.1946 454.334 82.7623 455.349 82.0024 456.09H90.0933C89.3334 455.349 88.9012 454.334 88.8928 453.273C88.8841 452.211 89.2999 451.189 90.0476 450.436C90.7954 449.682 91.813 449.258 92.8749 449.258C93.9368 449.258 94.9544 449.682 95.7022 450.436C96.4499 451.189 96.8657 452.211 96.857 453.273C96.8486 454.334 96.4164 455.349 95.6565 456.09H103.684C103.835 456.09 103.98 456.15 104.087 456.257C104.193 456.364 104.253 456.508 104.253 456.659H104.253ZM90.599 453.246C90.599 453.849 90.8388 454.428 91.2655 454.855C91.6924 455.282 92.2713 455.521 92.8747 455.521C93.4781 455.521 94.057 455.282 94.4839 454.855C94.9106 454.428 95.1503 453.849 95.1503 453.246C95.1503 452.642 94.9106 452.063 94.4839 451.637C94.057 451.21 93.4781 450.97 92.8747 450.97C92.2712 450.971 91.6929 451.211 91.2663 451.637C90.8396 452.064 90.5996 452.642 90.599 453.246ZM76.9451 453.246C76.9451 453.849 77.1849 454.428 77.6116 454.855C78.0385 455.282 78.6173 455.521 79.2208 455.521C79.8242 455.521 80.4031 455.282 80.83 454.855C81.2567 454.428 81.4964 453.849 81.4964 453.246C81.4964 452.642 81.2567 452.063 80.83 451.637C80.4031 451.21 79.8242 450.97 79.2208 450.97C78.6173 450.971 78.039 451.211 77.6124 451.637C77.1857 452.064 76.9457 452.642 76.9451 453.246Z" fill="white"/>
</g>
</svg>
