<svg width="734" height="647" viewBox="0 0 734 647" fill="none" xmlns="http://www.w3.org/2000/svg">
<g filter="url(#filter0_d_1218_1232)">
<rect x="4" y="147.138" width="726" height="491.282" rx="4" fill="#202125"/>
<rect x="5.5" y="148.638" width="723" height="488.282" rx="2.5" stroke="#1767D2" stroke-width="3"/>
</g>
<rect x="5.5" y="151.147" width="149.648" height="723" rx="2.5" transform="rotate(-90 5.5 151.147)" fill="#1767D2" stroke="#1767D2" stroke-width="3"/>
<g opacity="0.5">
<path d="M716.943 608.704C717.149 608.705 717.354 608.73 717.554 608.778V589.255H714.751V607.987C714.914 608.23 715.088 608.469 715.268 608.704L716.943 608.704Z" fill="white"/>
<path d="M689.069 608.705C689.535 608.193 689.968 607.653 690.368 607.088V582.561H687.565V608.779C687.77 608.642 689.069 608.705 689.069 608.705V608.705Z" fill="white"/>
<path d="M715.268 608.704C715.088 608.468 714.914 608.23 714.751 607.987C711.822 603.617 711.524 598.129 711.51 596.336H705.4C705.376 598.126 705.165 599.909 704.772 601.655C705.638 604.124 706.961 606.642 708.982 608.704L715.268 608.704Z" fill="white"/>
<path d="M704.934 594.408H711.939C712.077 594.408 712.188 594.546 712.188 594.657V595.483C712.188 595.621 712.076 595.732 711.939 595.732H704.934C704.796 595.732 704.685 595.594 704.685 595.483V594.657C704.685 594.519 704.797 594.408 704.934 594.408Z" fill="white"/>
<path d="M707.398 608.704C702.33 602.816 701.968 594.422 701.973 592.063H694.682C694.679 594.17 694.361 601.475 690.367 607.088C689.968 607.653 689.534 608.192 689.068 608.704L707.398 608.704Z" fill="white"/>
<path d="M710.1 581.457C706.011 581.457 706.14 585.693 707.484 586.633C706.448 587.116 706.597 588.749 707.408 589.159C707.047 589.348 706.779 589.674 706.661 590.063C706.545 590.452 706.589 590.872 706.785 591.228C706.981 591.585 707.312 591.846 707.704 591.955C707.313 592.477 707.79 593.304 708.467 593.304V593.305C708.856 593.326 709.212 593.088 709.341 592.72C709.469 592.353 709.34 591.944 709.023 591.718C709.412 591.433 709.643 590.98 709.644 590.497C711.801 590.916 712.965 588.632 712.086 587.279C714.749 585.272 713.255 581.457 710.1 581.457L710.1 581.457Z" fill="white"/>
<path d="M690.774 567.421C686.685 567.421 686.815 571.657 688.158 572.597C687.122 573.08 687.272 574.713 688.082 575.123C687.722 575.312 687.453 575.638 687.336 576.027C687.219 576.416 687.263 576.836 687.46 577.192C687.656 577.548 687.987 577.811 688.378 577.92C687.987 578.441 688.465 579.269 689.142 579.269C689.53 579.29 689.886 579.052 690.015 578.685C690.144 578.317 690.014 577.909 689.697 577.683C690.087 577.398 690.317 576.944 690.318 576.461C692.475 576.88 693.639 574.596 692.76 573.243C695.424 571.236 693.929 567.421 690.774 567.421L690.774 567.421Z" fill="white"/>
<path d="M717.621 588.661C717.81 588.666 717.994 588.595 718.13 588.463C718.265 588.332 718.342 588.15 718.342 587.961C718.342 587.772 718.265 587.59 718.13 587.459C717.994 587.327 717.81 587.255 717.621 587.262H714.681C714.491 587.255 714.308 587.327 714.172 587.459C714.036 587.59 713.96 587.772 713.96 587.961C713.96 588.15 714.036 588.332 714.172 588.463C714.308 588.595 714.491 588.666 714.681 588.661H717.621Z" fill="white"/>
<path d="M693.86 589.813H702.609H702.608C702.78 589.813 702.919 589.952 702.919 590.124V591.155C702.919 591.327 702.78 591.466 702.608 591.466H693.86C693.689 591.466 693.549 591.327 693.549 591.155V590.124C693.549 589.952 693.689 589.813 693.86 589.813H693.86Z" fill="white"/>
<path d="M690.433 581.967C690.622 581.973 690.805 581.902 690.941 581.77C691.077 581.638 691.153 581.457 691.153 581.268C691.153 581.079 691.077 580.898 690.941 580.766C690.805 580.634 690.622 580.562 690.433 580.568H687.493C687.303 580.562 687.12 580.634 686.984 580.766C686.849 580.898 686.772 581.079 686.772 581.268C686.772 581.457 686.849 581.638 686.984 581.77C687.12 581.902 687.303 581.973 687.493 581.967H690.433Z" fill="white"/>
<path d="M716.877 613.421C719.75 613.421 719.665 609.302 716.877 609.302H688.238C685.365 609.302 685.45 613.421 688.238 613.421H716.877Z" fill="white"/>
</g>
<path d="M42.88 559.701V556.653H31.432V560.013H38.728L33.088 569.421H37.528L42.88 559.701ZM48.8224 556.653L43.9024 558.597L44.9104 561.309L47.9344 560.229V566.325H44.4544V569.421H54.9664V566.325H51.8944V556.653H48.8224ZM67.5141 558.351L66.6861 557.523C65.8941 558.189 64.6161 558.657 63.3741 558.657C62.4381 558.657 61.3581 558.477 60.6201 558.207C60.1161 557.775 59.4681 557.523 58.7121 557.523C57.0381 557.523 55.8141 558.801 55.8141 560.565C55.8141 562.329 57.0381 563.607 58.7121 563.607C60.4041 563.607 61.6281 562.329 61.6281 560.565C61.6281 560.169 61.5741 559.809 61.4661 559.485C62.0601 559.755 62.7261 559.899 63.3021 559.899C63.8601 559.881 64.4541 559.701 65.0301 559.395L56.6961 568.845L57.5601 569.673L67.5141 558.351ZM68.4501 566.631C68.4501 564.867 67.2441 563.589 65.5521 563.589C63.8601 563.589 62.6541 564.867 62.6541 566.631C62.6541 568.395 63.8601 569.673 65.5521 569.673C67.2441 569.673 68.4501 568.395 68.4501 566.631ZM64.4721 566.631C64.4721 565.731 64.9221 565.083 65.5521 565.083C66.1821 565.083 66.6501 565.731 66.6501 566.631C66.6501 567.531 66.1821 568.179 65.5521 568.179C64.9221 568.179 64.4721 567.531 64.4721 566.631ZM57.6321 560.565C57.6321 559.665 58.0821 559.017 58.7121 559.017C59.3601 559.017 59.8101 559.665 59.8101 560.565C59.8101 561.465 59.3601 562.113 58.7121 562.113C58.0821 562.113 57.6321 561.465 57.6321 560.565Z" fill="white"/>
<path d="M39.064 586.489V585.103H34.24V581.197H40.288V579.775H32.584V591.421H34.24V586.489H39.064ZM49.6417 586.975C49.6417 584.239 47.8237 582.259 45.3217 582.259C42.8197 582.259 40.9837 584.239 40.9837 586.975C40.9837 589.675 42.8197 591.655 45.3217 591.655C47.8237 591.655 49.6417 589.675 49.6417 586.975ZM42.6037 586.975C42.6037 584.995 43.7377 583.537 45.3217 583.537C46.8877 583.537 48.0217 584.995 48.0217 586.975C48.0217 588.919 46.8877 590.359 45.3217 590.359C43.7377 590.359 42.6037 588.919 42.6037 586.975ZM59.2455 591.421V585.517C59.2455 583.609 57.9135 582.259 56.1675 582.259C54.8895 582.259 53.8095 583.015 53.2155 583.861V582.493H51.7395V591.421H53.2695V584.941C53.8275 584.149 54.7995 583.555 55.8075 583.555C56.9235 583.555 57.7155 584.383 57.7155 585.625V591.421H59.2455ZM66.8878 591.367V590.089C66.5098 590.233 65.8798 590.341 65.3218 590.341C64.1878 590.341 63.7378 589.783 63.7378 588.937V583.753H66.8338V582.493H63.7378V580.315H62.2078V582.493H60.8938V583.753H62.2078V589.189C62.2078 590.755 63.2698 591.655 65.0518 591.655C65.7178 591.655 66.4918 591.511 66.8878 591.367ZM70.1269 582.493H68.5969V591.421H70.1269V582.493ZM70.1269 578.947H68.5969V580.729H70.1269V578.947ZM80.598 590.377C79.104 590.377 78.042 588.955 78.042 587.011C78.042 585.013 79.158 583.555 80.706 583.555C81.66 583.555 82.542 583.987 83.01 584.671V589.081C82.488 589.855 81.534 590.377 80.598 590.377ZM84.54 591.421V578.749H83.01V583.465C82.398 582.745 81.354 582.259 80.382 582.259C78.078 582.259 76.404 584.257 76.404 587.029C76.404 589.711 78.024 591.655 80.256 591.655C81.282 591.655 82.434 591.025 83.1 590.143V591.421H84.54ZM94.4816 589.387L93.2576 588.919C92.7896 589.837 91.9256 590.395 90.9536 590.395C89.4596 590.395 88.3796 589.153 88.2716 587.281H94.4636C94.5176 587.047 94.5536 586.561 94.5536 586.165C94.5536 583.879 92.9876 582.259 90.8096 582.259C88.4336 582.259 86.6696 584.275 86.6696 587.029C86.6696 589.729 88.4336 591.655 90.8636 591.655C92.4656 591.655 93.8516 590.809 94.4816 589.387ZM90.8276 583.501C92.0876 583.501 92.9696 584.509 93.0236 586.057H88.3616C88.6316 584.509 89.5856 583.501 90.8276 583.501ZM98.2344 591.421V586.093C98.3784 584.905 99.0984 583.789 100.484 583.789C100.79 583.789 101.222 583.843 101.474 583.915V582.403C101.294 582.331 100.862 582.259 100.556 582.259C99.5124 582.259 98.5404 583.177 98.1804 584.311V582.493H96.7044V591.421H98.2344ZM104.756 582.493H103.226V591.421H104.756V582.493ZM104.756 578.947H103.226V580.729H104.756V578.947ZM106.524 582.493L109.746 591.421H111.33L114.534 582.493H112.986L110.61 589.441H110.556L108.18 582.493H106.524ZM123.509 591.565L123.581 590.395C123.473 590.413 123.293 590.431 123.185 590.431C122.645 590.431 122.375 590.053 122.375 589.567V585.463C122.375 583.393 121.115 582.259 119.171 582.259C117.623 582.259 116.273 583.123 115.625 584.527L116.813 585.013C117.263 584.167 117.965 583.537 119.027 583.537C120.125 583.537 120.845 584.293 120.845 585.409V586.111L118.757 586.363C116.777 586.615 115.373 587.569 115.373 589.225C115.373 590.647 116.507 591.655 118.091 591.655C119.351 591.655 120.341 591.043 120.917 590.089C121.133 591.115 121.799 591.655 122.807 591.655C123.077 591.655 123.293 591.619 123.509 591.565ZM118.505 590.413C117.605 590.413 116.975 589.873 116.975 589.117C116.975 588.199 117.839 587.659 119.027 587.515L120.845 587.299V588.937C120.377 589.801 119.495 590.413 118.505 590.413ZM130.292 591.367V590.089C129.914 590.233 129.284 590.341 128.726 590.341C127.592 590.341 127.142 589.783 127.142 588.937V583.753H130.238V582.493H127.142V580.315H125.612V582.493H124.298V583.753H125.612V589.189C125.612 590.755 126.674 591.655 128.456 591.655C129.122 591.655 129.896 591.511 130.292 591.367ZM139.077 589.387L137.853 588.919C137.385 589.837 136.521 590.395 135.549 590.395C134.055 590.395 132.975 589.153 132.867 587.281H139.059C139.113 587.047 139.149 586.561 139.149 586.165C139.149 583.879 137.583 582.259 135.405 582.259C133.029 582.259 131.265 584.275 131.265 587.029C131.265 589.729 133.029 591.655 135.459 591.655C137.061 591.655 138.447 590.809 139.077 589.387ZM135.423 583.501C136.683 583.501 137.565 584.509 137.619 586.057H132.957C133.227 584.509 134.181 583.501 135.423 583.501ZM148.995 590.377C147.501 590.377 146.438 588.955 146.438 587.011C146.438 585.013 147.555 583.555 149.103 583.555C150.057 583.555 150.939 583.987 151.407 584.671V589.081C150.885 589.855 149.931 590.377 148.995 590.377ZM152.937 591.421V578.749H151.407V583.465C150.795 582.745 149.751 582.259 148.779 582.259C146.475 582.259 144.801 584.257 144.801 587.029C144.801 589.711 146.421 591.655 148.653 591.655C149.679 591.655 150.831 591.025 151.497 590.143V591.421H152.937ZM163.112 591.565L163.184 590.395C163.076 590.413 162.896 590.431 162.788 590.431C162.248 590.431 161.978 590.053 161.978 589.567V585.463C161.978 583.393 160.718 582.259 158.774 582.259C157.226 582.259 155.876 583.123 155.228 584.527L156.416 585.013C156.866 584.167 157.568 583.537 158.63 583.537C159.728 583.537 160.448 584.293 160.448 585.409V586.111L158.36 586.363C156.38 586.615 154.976 587.569 154.976 589.225C154.976 590.647 156.11 591.655 157.694 591.655C158.954 591.655 159.944 591.043 160.52 590.089C160.736 591.115 161.402 591.655 162.41 591.655C162.68 591.655 162.896 591.619 163.112 591.565ZM158.108 590.413C157.208 590.413 156.578 589.873 156.578 589.117C156.578 588.199 157.442 587.659 158.63 587.515L160.448 587.299V588.937C159.98 589.801 159.098 590.413 158.108 590.413ZM175.898 589.225L174.602 588.721C174.17 589.711 173.45 590.341 172.46 590.341C171.002 590.341 169.94 588.955 169.94 587.029C169.94 585.013 170.966 583.555 172.388 583.555C173.288 583.555 174.062 584.113 174.494 585.157L175.826 584.617C175.196 583.177 173.99 582.259 172.352 582.259C170.012 582.259 168.32 584.257 168.32 587.029C168.32 589.711 170.03 591.655 172.406 591.655C174.044 591.655 175.322 590.629 175.898 589.225ZM185.749 586.975C185.749 584.239 183.931 582.259 181.429 582.259C178.927 582.259 177.091 584.239 177.091 586.975C177.091 589.675 178.927 591.655 181.429 591.655C183.931 591.655 185.749 589.675 185.749 586.975ZM178.711 586.975C178.711 584.995 179.845 583.537 181.429 583.537C182.995 583.537 184.129 584.995 184.129 586.975C184.129 588.919 182.995 590.359 181.429 590.359C179.845 590.359 178.711 588.919 178.711 586.975ZM200.375 591.421V585.517C200.375 583.609 199.079 582.259 197.405 582.259C196.217 582.259 195.173 582.979 194.543 583.933C194.057 582.907 193.121 582.259 192.023 582.259C190.835 582.259 189.845 583.015 189.323 583.861V582.493H187.847V591.421H189.377V584.905C189.881 584.149 190.745 583.555 191.627 583.555C192.617 583.555 193.337 584.383 193.337 585.625V591.421H194.867V585.517C194.867 585.247 194.849 584.995 194.795 584.743C195.335 584.059 196.199 583.555 197.063 583.555C198.089 583.555 198.845 584.383 198.845 585.625V591.421H200.375ZM211.171 586.921C211.171 584.221 209.569 582.259 207.373 582.259C206.347 582.259 205.213 582.835 204.547 583.681V578.749H203.017V591.421H204.457V590.341C205.141 591.115 206.257 591.655 207.229 591.655C209.515 591.655 211.171 589.675 211.171 586.921ZM206.869 590.377C205.933 590.377 205.033 589.891 204.547 589.225V584.779C205.033 584.041 205.987 583.555 206.959 583.555C208.453 583.555 209.551 584.959 209.551 586.903C209.551 588.901 208.417 590.377 206.869 590.377ZM220.5 591.421V582.493H218.97V588.649C218.52 589.639 217.656 590.359 216.594 590.359C215.496 590.359 214.704 589.495 214.704 588.289V582.493H213.174V588.397C213.174 590.287 214.434 591.655 216.162 591.655C217.476 591.655 218.502 590.899 219.024 589.945V591.421H220.5ZM230.089 588.973C230.089 587.317 228.685 586.633 226.669 586.201C225.157 585.859 224.293 585.589 224.293 584.797C224.293 584.041 225.139 583.519 226.327 583.519C227.569 583.519 228.397 584.041 228.811 584.905L230.035 584.419C229.513 583.321 228.415 582.259 226.345 582.259C224.239 582.259 222.799 583.375 222.799 584.887C222.799 586.435 224.257 587.155 226.237 587.569C227.767 587.893 228.613 588.199 228.613 589.045C228.613 589.855 227.857 590.413 226.543 590.413C225.049 590.413 224.095 589.747 223.645 588.865L222.385 589.351C222.997 590.755 224.437 591.655 226.471 591.655C228.739 591.655 230.089 590.557 230.089 588.973ZM237.185 591.367V590.089C236.807 590.233 236.177 590.341 235.619 590.341C234.485 590.341 234.035 589.783 234.035 588.937V583.753H237.131V582.493H234.035V580.315H232.505V582.493H231.191V583.753H232.505V589.189C232.505 590.755 233.567 591.655 235.349 591.655C236.015 591.655 236.789 591.511 237.185 591.367ZM240.424 582.493H238.894V591.421H240.424V582.493ZM240.424 578.947H238.894V580.729H240.424V578.947ZM251.354 586.921C251.354 584.221 249.752 582.259 247.556 582.259C246.53 582.259 245.396 582.835 244.73 583.681V578.749H243.2V591.421H244.64V590.341C245.324 591.115 246.44 591.655 247.412 591.655C249.698 591.655 251.354 589.675 251.354 586.921ZM247.052 590.377C246.116 590.377 245.216 589.891 244.73 589.225V584.779C245.216 584.041 246.17 583.555 247.142 583.555C248.636 583.555 249.734 584.959 249.734 586.903C249.734 588.901 248.6 590.377 247.052 590.377ZM255.014 582.493H253.484V591.421H255.014V582.493ZM255.014 578.947H253.484V580.729H255.014V578.947ZM259.32 578.749H257.79V591.421H259.32V578.749ZM263.627 582.493H262.097V591.421H263.627V582.493ZM263.627 578.947H262.097V580.729H263.627V578.947ZM37.624 605.753V604.493H34.366V604.133C34.366 602.657 35.104 601.793 36.292 601.793C36.778 601.793 37.372 601.883 37.768 602.045L37.804 600.767C37.39 600.641 36.67 600.515 36.13 600.515C34.078 600.515 32.836 601.865 32.836 604.151V604.493H31.684V605.753H32.836V613.421H34.366V605.753H37.624ZM46.7413 608.975C46.7413 606.239 44.9233 604.259 42.4213 604.259C39.9193 604.259 38.0833 606.239 38.0833 608.975C38.0833 611.675 39.9193 613.655 42.4213 613.655C44.9233 613.655 46.7413 611.675 46.7413 608.975ZM39.7033 608.975C39.7033 606.995 40.8373 605.537 42.4213 605.537C43.9873 605.537 45.1213 606.995 45.1213 608.975C45.1213 610.919 43.9873 612.359 42.4213 612.359C40.8373 612.359 39.7033 610.919 39.7033 608.975ZM55.6611 610.973C55.6611 609.317 54.2571 608.633 52.2411 608.201C50.7291 607.859 49.8651 607.589 49.8651 606.797C49.8651 606.041 50.7111 605.519 51.8991 605.519C53.1411 605.519 53.9691 606.041 54.3831 606.905L55.6071 606.419C55.0851 605.321 53.9871 604.259 51.9171 604.259C49.8111 604.259 48.3711 605.375 48.3711 606.887C48.3711 608.435 49.8291 609.155 51.8091 609.569C53.3391 609.893 54.1851 610.199 54.1851 611.045C54.1851 611.855 53.4291 612.413 52.1151 612.413C50.6211 612.413 49.6671 611.747 49.2171 610.865L47.9571 611.351C48.5691 612.755 50.0091 613.655 52.0431 613.655C54.3111 613.655 55.6611 612.557 55.6611 610.973ZM64.5732 610.973C64.5732 609.317 63.1692 608.633 61.1532 608.201C59.6412 607.859 58.7772 607.589 58.7772 606.797C58.7772 606.041 59.6232 605.519 60.8112 605.519C62.0532 605.519 62.8812 606.041 63.2952 606.905L64.5192 606.419C63.9972 605.321 62.8992 604.259 60.8292 604.259C58.7232 604.259 57.2832 605.375 57.2832 606.887C57.2832 608.435 58.7412 609.155 60.7212 609.569C62.2512 609.893 63.0972 610.199 63.0972 611.045C63.0972 611.855 62.3412 612.413 61.0272 612.413C59.5332 612.413 58.5792 611.747 58.1292 610.865L56.8692 611.351C57.4812 612.755 58.9212 613.655 60.9552 613.655C63.2232 613.655 64.5732 612.557 64.5732 610.973ZM68.1933 604.493H66.6633V613.421H68.1933V604.493ZM68.1933 600.947H66.6633V602.729H68.1933V600.947ZM72.5 600.749H70.97V613.421H72.5V600.749ZM76.8066 604.493H75.2766V613.421H76.8066V604.493ZM76.8066 600.947H75.2766V602.729H76.8066V600.947Z" fill="white"/>
<rect x="5.5" y="152.92" width="723" height="484" rx="2.5" fill="#202125" stroke="#1767D2" stroke-width="3"/>
<path d="M38.88 600.701V597.653H27.432V601.013H34.728L29.088 610.421H33.528L38.88 600.701ZM44.8224 597.653L39.9024 599.597L40.9104 602.309L43.9344 601.229V607.325H40.4544V610.421H50.9664V607.325H47.8944V597.653H44.8224ZM67.6481 595.661L66.5201 594.533C65.4161 595.445 63.7361 596.021 62.0321 596.021C60.7841 596.021 59.4161 595.781 58.4561 595.445C57.7841 594.869 56.8961 594.533 55.8881 594.533C53.5841 594.533 51.9281 596.261 51.9281 598.637C51.9281 601.013 53.5841 602.717 55.8881 602.717C58.1921 602.717 59.8481 601.013 59.8481 598.637C59.8481 598.157 59.7761 597.677 59.6561 597.269C60.4001 597.605 61.2401 597.797 61.9841 597.797C62.6801 597.773 63.4481 597.557 64.2161 597.149L53.1761 609.629L54.3521 610.781L67.6481 595.661ZM68.9921 606.701C68.9921 604.325 67.3361 602.597 65.0321 602.597C62.7281 602.597 61.0721 604.325 61.0721 606.701C61.0721 609.077 62.7281 610.781 65.0321 610.781C67.3361 610.781 68.9921 609.077 68.9921 606.701ZM63.6881 606.701C63.6881 605.573 64.2641 604.757 65.0321 604.757C65.8241 604.757 66.3761 605.573 66.3761 606.701C66.3761 607.805 65.8241 608.597 65.0321 608.597C64.2641 608.597 63.6881 607.805 63.6881 606.701ZM54.5441 598.637C54.5441 597.509 55.1201 596.693 55.8881 596.693C56.6801 596.693 57.2321 597.509 57.2321 598.637C57.2321 599.741 56.6801 600.533 55.8881 600.533C55.1201 600.533 54.5441 599.741 54.5441 598.637ZM81.0777 605.489V604.103H76.2537V600.197H82.3017V598.775H74.5977V610.421H76.2537V605.489H81.0777ZM91.6553 605.975C91.6553 603.239 89.8373 601.259 87.3353 601.259C84.8333 601.259 82.9973 603.239 82.9973 605.975C82.9973 608.675 84.8333 610.655 87.3353 610.655C89.8373 610.655 91.6553 608.675 91.6553 605.975ZM84.6173 605.975C84.6173 603.995 85.7513 602.537 87.3353 602.537C88.9013 602.537 90.0353 603.995 90.0353 605.975C90.0353 607.919 88.9013 609.359 87.3353 609.359C85.7513 609.359 84.6173 607.919 84.6173 605.975ZM101.259 610.421V604.517C101.259 602.609 99.9272 601.259 98.1812 601.259C96.9032 601.259 95.8232 602.015 95.2292 602.861V601.493H93.7532V610.421H95.2832V603.941C95.8412 603.149 96.8132 602.555 97.8212 602.555C98.9372 602.555 99.7292 603.383 99.7292 604.625V610.421H101.259ZM108.901 610.367V609.089C108.523 609.233 107.893 609.341 107.335 609.341C106.201 609.341 105.751 608.783 105.751 607.937V602.753H108.847V601.493H105.751V599.315H104.221V601.493H102.907V602.753H104.221V608.189C104.221 609.755 105.283 610.655 107.065 610.655C107.731 610.655 108.505 610.511 108.901 610.367ZM112.141 601.493H110.611V610.421H112.141V601.493ZM112.141 597.947H110.611V599.729H112.141V597.947ZM122.612 609.377C121.118 609.377 120.056 607.955 120.056 606.011C120.056 604.013 121.172 602.555 122.72 602.555C123.674 602.555 124.556 602.987 125.024 603.671V608.081C124.502 608.855 123.548 609.377 122.612 609.377ZM126.554 610.421V597.749H125.024V602.465C124.412 601.745 123.368 601.259 122.396 601.259C120.092 601.259 118.418 603.257 118.418 606.029C118.418 608.711 120.038 610.655 122.27 610.655C123.296 610.655 124.448 610.025 125.114 609.143V610.421H126.554ZM136.495 608.387L135.271 607.919C134.803 608.837 133.939 609.395 132.967 609.395C131.473 609.395 130.393 608.153 130.285 606.281H136.477C136.531 606.047 136.567 605.561 136.567 605.165C136.567 602.879 135.001 601.259 132.823 601.259C130.447 601.259 128.683 603.275 128.683 606.029C128.683 608.729 130.447 610.655 132.877 610.655C134.479 610.655 135.865 609.809 136.495 608.387ZM132.841 602.501C134.101 602.501 134.983 603.509 135.037 605.057H130.375C130.645 603.509 131.599 602.501 132.841 602.501ZM140.248 610.421V605.093C140.392 603.905 141.112 602.789 142.498 602.789C142.804 602.789 143.236 602.843 143.488 602.915V601.403C143.308 601.331 142.876 601.259 142.57 601.259C141.526 601.259 140.554 602.177 140.194 603.311V601.493H138.718V610.421H140.248ZM146.77 601.493H145.24V610.421H146.77V601.493ZM146.77 597.947H145.24V599.729H146.77V597.947ZM148.538 601.493L151.76 610.421H153.344L156.548 601.493H155L152.624 608.441H152.57L150.194 601.493H148.538ZM165.522 610.565L165.594 609.395C165.486 609.413 165.306 609.431 165.198 609.431C164.658 609.431 164.388 609.053 164.388 608.567V604.463C164.388 602.393 163.128 601.259 161.184 601.259C159.636 601.259 158.286 602.123 157.638 603.527L158.826 604.013C159.276 603.167 159.978 602.537 161.04 602.537C162.138 602.537 162.858 603.293 162.858 604.409V605.111L160.77 605.363C158.79 605.615 157.386 606.569 157.386 608.225C157.386 609.647 158.52 610.655 160.104 610.655C161.364 610.655 162.354 610.043 162.93 609.089C163.146 610.115 163.812 610.655 164.82 610.655C165.09 610.655 165.306 610.619 165.522 610.565ZM160.518 609.413C159.618 609.413 158.988 608.873 158.988 608.117C158.988 607.199 159.852 606.659 161.04 606.515L162.858 606.299V607.937C162.39 608.801 161.508 609.413 160.518 609.413ZM172.306 610.367V609.089C171.928 609.233 171.298 609.341 170.74 609.341C169.606 609.341 169.156 608.783 169.156 607.937V602.753H172.252V601.493H169.156V599.315H167.626V601.493H166.312V602.753H167.626V608.189C167.626 609.755 168.688 610.655 170.47 610.655C171.136 610.655 171.91 610.511 172.306 610.367ZM181.091 608.387L179.867 607.919C179.399 608.837 178.535 609.395 177.563 609.395C176.069 609.395 174.989 608.153 174.881 606.281H181.073C181.127 606.047 181.163 605.561 181.163 605.165C181.163 602.879 179.597 601.259 177.419 601.259C175.043 601.259 173.279 603.275 173.279 606.029C173.279 608.729 175.043 610.655 177.473 610.655C179.075 610.655 180.461 609.809 181.091 608.387ZM177.437 602.501C178.697 602.501 179.579 603.509 179.633 605.057H174.971C175.241 603.509 176.195 602.501 177.437 602.501ZM191.008 609.377C189.514 609.377 188.452 607.955 188.452 606.011C188.452 604.013 189.568 602.555 191.116 602.555C192.07 602.555 192.952 602.987 193.42 603.671V608.081C192.898 608.855 191.944 609.377 191.008 609.377ZM194.95 610.421V597.749H193.42V602.465C192.808 601.745 191.764 601.259 190.792 601.259C188.488 601.259 186.814 603.257 186.814 606.029C186.814 608.711 188.434 610.655 190.666 610.655C191.692 610.655 192.844 610.025 193.51 609.143V610.421H194.95ZM205.126 610.565L205.198 609.395C205.09 609.413 204.91 609.431 204.802 609.431C204.262 609.431 203.992 609.053 203.992 608.567V604.463C203.992 602.393 202.732 601.259 200.788 601.259C199.24 601.259 197.89 602.123 197.242 603.527L198.43 604.013C198.88 603.167 199.582 602.537 200.644 602.537C201.742 602.537 202.462 603.293 202.462 604.409V605.111L200.374 605.363C198.394 605.615 196.99 606.569 196.99 608.225C196.99 609.647 198.124 610.655 199.708 610.655C200.968 610.655 201.958 610.043 202.534 609.089C202.75 610.115 203.416 610.655 204.424 610.655C204.694 610.655 204.91 610.619 205.126 610.565ZM200.122 609.413C199.222 609.413 198.592 608.873 198.592 608.117C198.592 607.199 199.456 606.659 200.644 606.515L202.462 606.299V607.937C201.994 608.801 201.112 609.413 200.122 609.413ZM217.912 608.225L216.616 607.721C216.184 608.711 215.464 609.341 214.474 609.341C213.016 609.341 211.954 607.955 211.954 606.029C211.954 604.013 212.98 602.555 214.402 602.555C215.302 602.555 216.076 603.113 216.508 604.157L217.84 603.617C217.21 602.177 216.004 601.259 214.366 601.259C212.026 601.259 210.334 603.257 210.334 606.029C210.334 608.711 212.044 610.655 214.42 610.655C216.058 610.655 217.336 609.629 217.912 608.225ZM227.763 605.975C227.763 603.239 225.945 601.259 223.443 601.259C220.941 601.259 219.105 603.239 219.105 605.975C219.105 608.675 220.941 610.655 223.443 610.655C225.945 610.655 227.763 608.675 227.763 605.975ZM220.725 605.975C220.725 603.995 221.859 602.537 223.443 602.537C225.009 602.537 226.143 603.995 226.143 605.975C226.143 607.919 225.009 609.359 223.443 609.359C221.859 609.359 220.725 607.919 220.725 605.975ZM242.389 610.421V604.517C242.389 602.609 241.093 601.259 239.419 601.259C238.231 601.259 237.187 601.979 236.557 602.933C236.071 601.907 235.135 601.259 234.037 601.259C232.849 601.259 231.859 602.015 231.337 602.861V601.493H229.861V610.421H231.391V603.905C231.895 603.149 232.759 602.555 233.641 602.555C234.631 602.555 235.351 603.383 235.351 604.625V610.421H236.881V604.517C236.881 604.247 236.863 603.995 236.809 603.743C237.349 603.059 238.213 602.555 239.077 602.555C240.103 602.555 240.859 603.383 240.859 604.625V610.421H242.389ZM253.185 605.921C253.185 603.221 251.583 601.259 249.387 601.259C248.361 601.259 247.227 601.835 246.561 602.681V597.749H245.031V610.421H246.471V609.341C247.155 610.115 248.271 610.655 249.243 610.655C251.529 610.655 253.185 608.675 253.185 605.921ZM248.883 609.377C247.947 609.377 247.047 608.891 246.561 608.225V603.779C247.047 603.041 248.001 602.555 248.973 602.555C250.467 602.555 251.565 603.959 251.565 605.903C251.565 607.901 250.431 609.377 248.883 609.377ZM262.514 610.421V601.493H260.984V607.649C260.534 608.639 259.67 609.359 258.608 609.359C257.51 609.359 256.718 608.495 256.718 607.289V601.493H255.188V607.397C255.188 609.287 256.448 610.655 258.176 610.655C259.49 610.655 260.516 609.899 261.038 608.945V610.421H262.514ZM272.103 607.973C272.103 606.317 270.699 605.633 268.683 605.201C267.171 604.859 266.307 604.589 266.307 603.797C266.307 603.041 267.153 602.519 268.341 602.519C269.583 602.519 270.411 603.041 270.825 603.905L272.049 603.419C271.527 602.321 270.429 601.259 268.359 601.259C266.253 601.259 264.813 602.375 264.813 603.887C264.813 605.435 266.271 606.155 268.251 606.569C269.781 606.893 270.627 607.199 270.627 608.045C270.627 608.855 269.871 609.413 268.557 609.413C267.063 609.413 266.109 608.747 265.659 607.865L264.399 608.351C265.011 609.755 266.451 610.655 268.485 610.655C270.753 610.655 272.103 609.557 272.103 607.973ZM279.198 610.367V609.089C278.82 609.233 278.19 609.341 277.632 609.341C276.498 609.341 276.048 608.783 276.048 607.937V602.753H279.144V601.493H276.048V599.315H274.518V601.493H273.204V602.753H274.518V608.189C274.518 609.755 275.58 610.655 277.362 610.655C278.028 610.655 278.802 610.511 279.198 610.367ZM282.437 601.493H280.907V610.421H282.437V601.493ZM282.437 597.947H280.907V599.729H282.437V597.947ZM293.368 605.921C293.368 603.221 291.766 601.259 289.57 601.259C288.544 601.259 287.41 601.835 286.744 602.681V597.749H285.214V610.421H286.654V609.341C287.338 610.115 288.454 610.655 289.426 610.655C291.712 610.655 293.368 608.675 293.368 605.921ZM289.066 609.377C288.13 609.377 287.23 608.891 286.744 608.225V603.779C287.23 603.041 288.184 602.555 289.156 602.555C290.65 602.555 291.748 603.959 291.748 605.903C291.748 607.901 290.614 609.377 289.066 609.377ZM297.027 601.493H295.497V610.421H297.027V601.493ZM297.027 597.947H295.497V599.729H297.027V597.947ZM301.334 597.749H299.804V610.421H301.334V597.749ZM305.641 601.493H304.111V610.421H305.641V601.493ZM305.641 597.947H304.111V599.729H305.641V597.947ZM317.804 602.753V601.493H314.546V601.133C314.546 599.657 315.284 598.793 316.472 598.793C316.958 598.793 317.552 598.883 317.948 599.045L317.984 597.767C317.57 597.641 316.85 597.515 316.31 597.515C314.258 597.515 313.016 598.865 313.016 601.151V601.493H311.864V602.753H313.016V610.421H314.546V602.753H317.804ZM326.921 605.975C326.921 603.239 325.103 601.259 322.601 601.259C320.099 601.259 318.263 603.239 318.263 605.975C318.263 608.675 320.099 610.655 322.601 610.655C325.103 610.655 326.921 608.675 326.921 605.975ZM319.883 605.975C319.883 603.995 321.017 602.537 322.601 602.537C324.167 602.537 325.301 603.995 325.301 605.975C325.301 607.919 324.167 609.359 322.601 609.359C321.017 609.359 319.883 607.919 319.883 605.975ZM335.841 607.973C335.841 606.317 334.437 605.633 332.421 605.201C330.909 604.859 330.045 604.589 330.045 603.797C330.045 603.041 330.891 602.519 332.079 602.519C333.321 602.519 334.149 603.041 334.563 603.905L335.787 603.419C335.265 602.321 334.167 601.259 332.097 601.259C329.991 601.259 328.551 602.375 328.551 603.887C328.551 605.435 330.009 606.155 331.989 606.569C333.519 606.893 334.365 607.199 334.365 608.045C334.365 608.855 333.609 609.413 332.295 609.413C330.801 609.413 329.847 608.747 329.397 607.865L328.137 608.351C328.749 609.755 330.189 610.655 332.223 610.655C334.491 610.655 335.841 609.557 335.841 607.973ZM344.753 607.973C344.753 606.317 343.349 605.633 341.333 605.201C339.821 604.859 338.957 604.589 338.957 603.797C338.957 603.041 339.803 602.519 340.991 602.519C342.233 602.519 343.061 603.041 343.475 603.905L344.699 603.419C344.177 602.321 343.079 601.259 341.009 601.259C338.903 601.259 337.463 602.375 337.463 603.887C337.463 605.435 338.921 606.155 340.901 606.569C342.431 606.893 343.277 607.199 343.277 608.045C343.277 608.855 342.521 609.413 341.207 609.413C339.713 609.413 338.759 608.747 338.309 607.865L337.049 608.351C337.661 609.755 339.101 610.655 341.135 610.655C343.403 610.655 344.753 609.557 344.753 607.973ZM348.373 601.493H346.843V610.421H348.373V601.493ZM348.373 597.947H346.843V599.729H348.373V597.947ZM352.68 597.749H351.15V610.421H352.68V597.749ZM356.986 601.493H355.456V610.421H356.986V601.493ZM356.986 597.947H355.456V599.729H356.986V597.947Z" fill="white"/>
<path d="M39.624 123.42V120.228H33.36L35.544 118.932C37.224 117.948 38.856 116.628 38.856 114.468C38.856 112.044 36.624 110.316 33.6 110.316C30.792 110.316 28.56 111.804 27.552 114.036L30.288 115.38C30.72 114.276 31.8 113.436 32.976 113.436C33.96 113.436 34.728 114.036 34.728 114.852C34.728 115.764 33.816 116.508 32.448 117.492L27.792 120.804V123.42H39.624ZM54.1611 119.676C54.1611 118.332 53.4411 117.372 51.6651 116.676C53.0571 116.076 53.8491 115.188 53.8491 113.988C53.8491 111.9 51.3291 110.316 47.7051 110.316C44.0331 110.316 41.3931 111.972 41.3931 114.348C41.3931 115.668 42.2091 116.604 43.6731 117.252C41.9211 117.804 40.9611 118.812 40.9611 120.084C40.9611 122.196 43.6011 123.756 47.5851 123.756C51.5211 123.756 54.1611 122.124 54.1611 119.676ZM48.5691 115.908C46.0491 115.5 45.3771 114.996 45.3771 114.348C45.3771 113.58 46.2651 113.052 47.5371 113.052C48.8571 113.052 49.8651 113.628 49.8651 114.588C49.8651 115.092 49.6011 115.596 49.0971 116.004C48.9291 115.98 48.7611 115.932 48.5691 115.908ZM47.6331 121.02C46.1211 121.02 45.0411 120.492 45.0411 119.604C45.0411 119.052 45.4251 118.452 46.1691 118.02C46.4811 118.068 46.7931 118.14 47.1291 118.188C49.3371 118.548 50.0811 119.028 50.0811 119.724C50.0811 120.516 49.0491 121.02 47.6331 121.02ZM59.8106 122.676V119.172H55.9706V123.18H57.6746C57.6746 124.26 57.0026 125.388 56.1866 126.3L57.6746 127.572C59.0426 126.204 59.8106 124.476 59.8106 122.676ZM72.7706 113.7V110.652H61.3226V114.012H68.6186L62.9786 123.42H67.4186L72.7706 113.7ZM89.6091 108.66L88.4811 107.532C87.3771 108.444 85.6971 109.02 83.9931 109.02C82.7451 109.02 81.3771 108.78 80.4171 108.444C79.7451 107.868 78.8571 107.532 77.8491 107.532C75.5451 107.532 73.8891 109.26 73.8891 111.636C73.8891 114.012 75.5451 115.716 77.8491 115.716C80.1531 115.716 81.8091 114.012 81.8091 111.636C81.8091 111.156 81.7371 110.676 81.6171 110.268C82.3611 110.604 83.2011 110.796 83.9451 110.796C84.6411 110.772 85.4091 110.556 86.1771 110.148L75.1371 122.628L76.3131 123.78L89.6091 108.66ZM90.9531 119.7C90.9531 117.324 89.2971 115.596 86.9931 115.596C84.6891 115.596 83.0331 117.324 83.0331 119.7C83.0331 122.076 84.6891 123.78 86.9931 123.78C89.2971 123.78 90.9531 122.076 90.9531 119.7ZM85.6491 119.7C85.6491 118.572 86.2251 117.756 86.9931 117.756C87.7851 117.756 88.3371 118.572 88.3371 119.7C88.3371 120.804 87.7851 121.596 86.9931 121.596C86.2251 121.596 85.6491 120.804 85.6491 119.7ZM76.5051 111.636C76.5051 110.508 77.0811 109.692 77.8491 109.692C78.6411 109.692 79.1931 110.508 79.1931 111.636C79.1931 112.74 78.6411 113.532 77.8491 113.532C77.0811 113.532 76.5051 112.74 76.5051 111.636ZM104.181 118.488V117.102H99.3572V113.196H105.405V111.774H97.7012V123.42H99.3572V118.488H104.181ZM114.759 118.974C114.759 116.238 112.941 114.258 110.439 114.258C107.937 114.258 106.101 116.238 106.101 118.974C106.101 121.674 107.937 123.654 110.439 123.654C112.941 123.654 114.759 121.674 114.759 118.974ZM107.721 118.974C107.721 116.994 108.855 115.536 110.439 115.536C112.005 115.536 113.139 116.994 113.139 118.974C113.139 120.918 112.005 122.358 110.439 122.358C108.855 122.358 107.721 120.918 107.721 118.974ZM124.363 123.42V117.516C124.363 115.608 123.031 114.258 121.285 114.258C120.007 114.258 118.927 115.014 118.333 115.86V114.492H116.857V123.42H118.387V116.94C118.945 116.148 119.917 115.554 120.925 115.554C122.041 115.554 122.833 116.382 122.833 117.624V123.42H124.363ZM132.005 123.366V122.088C131.627 122.232 130.997 122.34 130.439 122.34C129.305 122.34 128.855 121.782 128.855 120.936V115.752H131.951V114.492H128.855V112.314H127.325V114.492H126.011V115.752H127.325V121.188C127.325 122.754 128.387 123.654 130.169 123.654C130.835 123.654 131.609 123.51 132.005 123.366ZM135.244 114.492H133.714V123.42H135.244V114.492ZM135.244 110.946H133.714V112.728H135.244V110.946ZM149.567 123.564L149.639 122.394C149.531 122.412 149.351 122.43 149.243 122.43C148.703 122.43 148.433 122.052 148.433 121.566V117.462C148.433 115.392 147.173 114.258 145.229 114.258C143.681 114.258 142.331 115.122 141.683 116.526L142.871 117.012C143.321 116.166 144.023 115.536 145.085 115.536C146.183 115.536 146.903 116.292 146.903 117.408V118.11L144.815 118.362C142.835 118.614 141.431 119.568 141.431 121.224C141.431 122.646 142.565 123.654 144.149 123.654C145.409 123.654 146.399 123.042 146.975 122.088C147.191 123.114 147.857 123.654 148.865 123.654C149.135 123.654 149.351 123.618 149.567 123.564ZM144.563 122.412C143.663 122.412 143.033 121.872 143.033 121.116C143.033 120.198 143.897 119.658 145.085 119.514L146.903 119.298V120.936C146.435 121.8 145.553 122.412 144.563 122.412ZM163.577 118.92C163.577 116.22 161.975 114.258 159.779 114.258C158.753 114.258 157.619 114.834 156.953 115.68V110.748H155.423V123.42H156.863V122.34C157.547 123.114 158.663 123.654 159.635 123.654C161.921 123.654 163.577 121.674 163.577 118.92ZM159.275 122.376C158.339 122.376 157.439 121.89 156.953 121.224V116.778C157.439 116.04 158.393 115.554 159.365 115.554C160.859 115.554 161.957 116.958 161.957 118.902C161.957 120.9 160.823 122.376 159.275 122.376ZM173.104 123.564L173.176 122.394C173.068 122.412 172.888 122.43 172.78 122.43C172.24 122.43 171.97 122.052 171.97 121.566V117.462C171.97 115.392 170.71 114.258 168.766 114.258C167.218 114.258 165.868 115.122 165.22 116.526L166.408 117.012C166.858 116.166 167.56 115.536 168.622 115.536C169.72 115.536 170.44 116.292 170.44 117.408V118.11L168.352 118.362C166.372 118.614 164.968 119.568 164.968 121.224C164.968 122.646 166.102 123.654 167.686 123.654C168.946 123.654 169.936 123.042 170.512 122.088C170.728 123.114 171.394 123.654 172.402 123.654C172.672 123.654 172.888 123.618 173.104 123.564ZM168.1 122.412C167.2 122.412 166.57 121.872 166.57 121.116C166.57 120.198 167.434 119.658 168.622 119.514L170.44 119.298V120.936C169.972 121.8 169.09 122.412 168.1 122.412ZM181.634 120.972C181.634 119.316 180.23 118.632 178.214 118.2C176.702 117.858 175.838 117.588 175.838 116.796C175.838 116.04 176.684 115.518 177.872 115.518C179.114 115.518 179.942 116.04 180.356 116.904L181.58 116.418C181.058 115.32 179.96 114.258 177.89 114.258C175.784 114.258 174.344 115.374 174.344 116.886C174.344 118.434 175.802 119.154 177.782 119.568C179.312 119.892 180.158 120.198 180.158 121.044C180.158 121.854 179.402 122.412 178.088 122.412C176.594 122.412 175.64 121.746 175.19 120.864L173.93 121.35C174.542 122.754 175.982 123.654 178.016 123.654C180.284 123.654 181.634 122.556 181.634 120.972ZM190.546 120.972C190.546 119.316 189.142 118.632 187.126 118.2C185.614 117.858 184.75 117.588 184.75 116.796C184.75 116.04 185.596 115.518 186.784 115.518C188.026 115.518 188.854 116.04 189.268 116.904L190.492 116.418C189.97 115.32 188.872 114.258 186.802 114.258C184.696 114.258 183.256 115.374 183.256 116.886C183.256 118.434 184.714 119.154 186.694 119.568C188.224 119.892 189.07 120.198 189.07 121.044C189.07 121.854 188.314 122.412 187 122.412C185.506 122.412 184.552 121.746 184.102 120.864L182.842 121.35C183.454 122.754 184.894 123.654 186.928 123.654C189.196 123.654 190.546 122.556 190.546 120.972ZM200.034 123.564L200.106 122.394C199.998 122.412 199.818 122.43 199.71 122.43C199.17 122.43 198.9 122.052 198.9 121.566V117.462C198.9 115.392 197.64 114.258 195.696 114.258C194.148 114.258 192.798 115.122 192.15 116.526L193.338 117.012C193.788 116.166 194.49 115.536 195.552 115.536C196.65 115.536 197.37 116.292 197.37 117.408V118.11L195.282 118.362C193.302 118.614 191.898 119.568 191.898 121.224C191.898 122.646 193.032 123.654 194.616 123.654C195.876 123.654 196.866 123.042 197.442 122.088C197.658 123.114 198.324 123.654 199.332 123.654C199.602 123.654 199.818 123.618 200.034 123.564ZM195.03 122.412C194.13 122.412 193.5 121.872 193.5 121.116C193.5 120.198 194.364 119.658 195.552 119.514L197.37 119.298V120.936C196.902 121.8 196.02 122.412 195.03 122.412ZM213.054 121.386L211.83 120.918C211.362 121.836 210.498 122.394 209.526 122.394C208.032 122.394 206.952 121.152 206.844 119.28H213.036C213.09 119.046 213.126 118.56 213.126 118.164C213.126 115.878 211.56 114.258 209.382 114.258C207.006 114.258 205.242 116.274 205.242 119.028C205.242 121.728 207.006 123.654 209.436 123.654C211.038 123.654 212.424 122.808 213.054 121.386ZM209.4 115.5C210.66 115.5 211.542 116.508 211.596 118.056H206.934C207.204 116.508 208.158 115.5 209.4 115.5ZM227.805 123.42V117.516C227.805 115.608 226.509 114.258 224.835 114.258C223.647 114.258 222.603 114.978 221.973 115.932C221.487 114.906 220.551 114.258 219.453 114.258C218.265 114.258 217.275 115.014 216.753 115.86V114.492H215.277V123.42H216.807V116.904C217.311 116.148 218.175 115.554 219.057 115.554C220.047 115.554 220.767 116.382 220.767 117.624V123.42H222.297V117.516C222.297 117.246 222.279 116.994 222.225 116.742C222.765 116.058 223.629 115.554 224.493 115.554C225.519 115.554 226.275 116.382 226.275 117.624V123.42H227.805ZM231.977 114.492H230.447V123.42H231.977V114.492ZM231.977 110.946H230.447V112.728H231.977V110.946ZM241.575 120.972C241.575 119.316 240.171 118.632 238.155 118.2C236.643 117.858 235.779 117.588 235.779 116.796C235.779 116.04 236.625 115.518 237.813 115.518C239.055 115.518 239.883 116.04 240.297 116.904L241.521 116.418C240.999 115.32 239.901 114.258 237.831 114.258C235.725 114.258 234.285 115.374 234.285 116.886C234.285 118.434 235.743 119.154 237.723 119.568C239.253 119.892 240.099 120.198 240.099 121.044C240.099 121.854 239.343 122.412 238.029 122.412C236.535 122.412 235.581 121.746 235.131 120.864L233.871 121.35C234.483 122.754 235.923 123.654 237.957 123.654C240.225 123.654 241.575 122.556 241.575 120.972ZM250.487 120.972C250.487 119.316 249.083 118.632 247.067 118.2C245.555 117.858 244.691 117.588 244.691 116.796C244.691 116.04 245.537 115.518 246.725 115.518C247.967 115.518 248.795 116.04 249.209 116.904L250.433 116.418C249.911 115.32 248.813 114.258 246.743 114.258C244.637 114.258 243.197 115.374 243.197 116.886C243.197 118.434 244.655 119.154 246.635 119.568C248.165 119.892 249.011 120.198 249.011 121.044C249.011 121.854 248.255 122.412 246.941 122.412C245.447 122.412 244.493 121.746 244.043 120.864L242.783 121.35C243.395 122.754 244.835 123.654 246.869 123.654C249.137 123.654 250.487 122.556 250.487 120.972ZM254.107 114.492H252.577V123.42H254.107V114.492ZM254.107 110.946H252.577V112.728H254.107V110.946ZM264.876 118.974C264.876 116.238 263.058 114.258 260.556 114.258C258.054 114.258 256.218 116.238 256.218 118.974C256.218 121.674 258.054 123.654 260.556 123.654C263.058 123.654 264.876 121.674 264.876 118.974ZM257.838 118.974C257.838 116.994 258.972 115.536 260.556 115.536C262.122 115.536 263.256 116.994 263.256 118.974C263.256 120.918 262.122 122.358 260.556 122.358C258.972 122.358 257.838 120.918 257.838 118.974ZM274.48 123.42V117.516C274.48 115.608 273.148 114.258 271.402 114.258C270.124 114.258 269.044 115.014 268.45 115.86V114.492H266.974V123.42H268.504V116.94C269.062 116.148 270.034 115.554 271.042 115.554C272.158 115.554 272.95 116.382 272.95 117.624V123.42H274.48ZM284.316 121.386L283.092 120.918C282.624 121.836 281.76 122.394 280.788 122.394C279.294 122.394 278.214 121.152 278.106 119.28H284.298C284.352 119.046 284.388 118.56 284.388 118.164C284.388 115.878 282.822 114.258 280.644 114.258C278.268 114.258 276.504 116.274 276.504 119.028C276.504 121.728 278.268 123.654 280.698 123.654C282.3 123.654 283.686 122.808 284.316 121.386ZM280.662 115.5C281.922 115.5 282.804 116.508 282.858 118.056H278.196C278.466 116.508 279.42 115.5 280.662 115.5ZM294.233 122.376C292.739 122.376 291.677 120.954 291.677 119.01C291.677 117.012 292.793 115.554 294.341 115.554C295.295 115.554 296.177 115.986 296.645 116.67V121.08C296.123 121.854 295.169 122.376 294.233 122.376ZM298.175 123.42V110.748H296.645V115.464C296.033 114.744 294.989 114.258 294.017 114.258C291.713 114.258 290.039 116.256 290.039 119.028C290.039 121.71 291.659 123.654 293.891 123.654C294.917 123.654 296.069 123.024 296.735 122.142V123.42H298.175ZM302.482 114.492H300.952V123.42H302.482V114.492ZM302.482 110.946H300.952V112.728H302.482V110.946ZM316.337 121.224L315.041 120.72C314.609 121.71 313.889 122.34 312.899 122.34C311.441 122.34 310.379 120.954 310.379 119.028C310.379 117.012 311.405 115.554 312.827 115.554C313.727 115.554 314.501 116.112 314.933 117.156L316.265 116.616C315.635 115.176 314.429 114.258 312.791 114.258C310.451 114.258 308.759 116.256 308.759 119.028C308.759 121.71 310.469 123.654 312.845 123.654C314.483 123.654 315.761 122.628 316.337 121.224ZM325.595 123.564L325.667 122.394C325.559 122.412 325.379 122.43 325.271 122.43C324.731 122.43 324.461 122.052 324.461 121.566V117.462C324.461 115.392 323.201 114.258 321.257 114.258C319.709 114.258 318.359 115.122 317.711 116.526L318.899 117.012C319.349 116.166 320.051 115.536 321.113 115.536C322.211 115.536 322.931 116.292 322.931 117.408V118.11L320.843 118.362C318.863 118.614 317.459 119.568 317.459 121.224C317.459 122.646 318.593 123.654 320.177 123.654C321.437 123.654 322.427 123.042 323.003 122.088C323.219 123.114 323.885 123.654 324.893 123.654C325.163 123.654 325.379 123.618 325.595 123.564ZM320.591 122.412C319.691 122.412 319.061 121.872 319.061 121.116C319.061 120.198 319.925 119.658 321.113 119.514L322.931 119.298V120.936C322.463 121.8 321.581 122.412 320.591 122.412ZM328.832 123.42V118.092C328.976 116.904 329.696 115.788 331.082 115.788C331.388 115.788 331.82 115.842 332.072 115.914V114.402C331.892 114.33 331.46 114.258 331.154 114.258C330.11 114.258 329.138 115.176 328.778 116.31V114.492H327.302V123.42H328.832ZM341.978 118.92C341.978 116.22 340.376 114.258 338.18 114.258C337.154 114.258 336.02 114.834 335.354 115.68V110.748H333.824V123.42H335.264V122.34C335.948 123.114 337.063 123.654 338.036 123.654C340.322 123.654 341.978 121.674 341.978 118.92ZM337.676 122.376C336.74 122.376 335.84 121.89 335.354 121.224V116.778C335.84 116.04 336.794 115.554 337.766 115.554C339.26 115.554 340.358 116.958 340.358 118.902C340.358 120.9 339.224 122.376 337.676 122.376ZM352.099 118.974C352.099 116.238 350.281 114.258 347.779 114.258C345.277 114.258 343.441 116.238 343.441 118.974C343.441 121.674 345.277 123.654 347.779 123.654C350.281 123.654 352.099 121.674 352.099 118.974ZM345.061 118.974C345.061 116.994 346.195 115.536 347.779 115.536C349.345 115.536 350.479 116.994 350.479 118.974C350.479 120.918 349.345 122.358 347.779 122.358C346.195 122.358 345.061 120.918 345.061 118.974ZM361.703 123.42V117.516C361.703 115.608 360.371 114.258 358.625 114.258C357.347 114.258 356.267 115.014 355.673 115.86V114.492H354.197V123.42H355.727V116.94C356.285 116.148 357.257 115.554 358.265 115.554C359.381 115.554 360.173 116.382 360.173 117.624V123.42H361.703ZM365.904 114.492H364.374V123.42H365.904V114.492ZM365.904 110.946H364.374V112.728H365.904V110.946ZM376.673 118.974C376.673 116.238 374.855 114.258 372.353 114.258C369.851 114.258 368.015 116.238 368.015 118.974C368.015 121.674 369.851 123.654 372.353 123.654C374.855 123.654 376.673 121.674 376.673 118.974ZM369.635 118.974C369.635 116.994 370.769 115.536 372.353 115.536C373.919 115.536 375.053 116.994 375.053 118.974C375.053 120.918 373.919 122.358 372.353 122.358C370.769 122.358 369.635 120.918 369.635 118.974Z" fill="white"/>
<g opacity="0.5">
<path d="M690.941 105.911C690.569 105.539 690.569 104.936 690.942 104.565C691.313 104.194 691.916 104.194 692.288 104.565L695.71 107.989V106.643V106.633L695.709 102.78L690.944 98.0112C690.572 97.6387 690.574 97.0366 690.945 96.6644C691.317 96.293 691.919 96.293 692.292 96.6655L695.709 100.085V98.7429V98.7372L695.707 92.1685C695.706 91.6427 696.133 91.2172 696.659 91.2172C697.184 91.2172 697.611 91.6427 697.611 92.1685L697.612 96.4391L701.034 93.0138C701.406 92.6413 702.009 92.6403 702.38 93.0128C702.753 93.3842 702.753 93.9874 702.382 94.3596L697.613 99.1337L697.614 102.366V102.415V104.338L701.038 100.914C701.409 100.541 702.012 100.542 702.383 100.913C702.756 101.285 702.756 101.887 702.384 102.26L697.613 107.032L697.616 110.284V110.296L697.617 116.024C703.854 113.282 708.003 106.889 708 99.8851C708 92.6574 703.58 86.0668 697.001 83.4865C696.778 83.3973 696.53 83.3995 696.305 83.4865C689.731 86.0708 685.315 92.6624 685.317 99.8888C685.317 106.894 689.472 113.286 695.713 116.025L695.712 110.683L690.941 105.911Z" fill="white"/>
<path d="M671.952 118.618C671.427 118.618 671 119.044 671 119.57C671 120.095 671.427 120.522 671.952 120.522H674.219C674.382 121.997 675.62 123.152 677.138 123.152H680.192C681.82 123.152 683.143 121.828 683.143 120.2V118.529C684.837 118.607 685.299 119.036 686.396 121.382C687.604 123.966 689.083 125.564 690.792 126.132C691.244 126.283 691.702 126.356 692.168 126.356C692.97 126.356 693.791 126.134 694.62 125.688C696.717 124.564 697.724 121.45 697.616 116.427V116.025C697.415 116.113 697.216 116.209 697.01 116.291C696.899 116.335 696.781 116.356 696.663 116.356C696.545 116.356 696.427 116.335 696.315 116.291C696.11 116.21 695.914 116.114 695.712 116.026V116.448C695.712 116.45 695.714 116.451 695.714 116.455C695.714 116.459 695.712 116.464 695.712 116.469C695.832 122.036 694.517 123.583 693.721 124.01C692.879 124.461 692.116 124.563 691.393 124.323C689.907 123.831 688.795 122.012 688.122 120.574C686.738 117.612 685.757 116.769 683.145 116.631V114.718C683.145 113.091 681.821 111.768 680.194 111.768L677.138 111.768C675.625 111.768 674.388 112.916 674.219 114.386H671.952C671.427 114.386 671 114.812 671 115.338C671 115.863 671.427 116.289 671.952 116.289H674.186V118.618H671.952L671.952 118.618Z" fill="white"/>
</g>
<g opacity="0.5">
<path d="M703.935 605.848C704.142 605.849 704.348 605.874 704.549 605.922V586.332H701.736V605.129C701.9 605.373 702.074 605.612 702.255 605.848L703.935 605.848Z" fill="white"/>
<path d="M675.964 605.849C676.432 605.335 676.867 604.793 677.268 604.227V579.613H674.455V605.923C674.661 605.786 675.964 605.849 675.964 605.849V605.849Z" fill="white"/>
<path d="M702.255 605.848C702.074 605.612 701.9 605.373 701.736 605.128C698.797 600.744 698.498 595.236 698.484 593.437H692.352C692.328 595.234 692.117 597.022 691.722 598.775C692.591 601.253 693.919 603.779 695.947 605.848L702.255 605.848Z" fill="white"/>
<path d="M691.885 591.502H698.915C699.053 591.502 699.164 591.641 699.164 591.752V592.581C699.164 592.719 699.052 592.831 698.915 592.831H691.885C691.747 592.831 691.635 592.693 691.635 592.581V591.752C691.635 591.614 691.747 591.502 691.885 591.502Z" fill="white"/>
<path d="M694.357 605.849C689.272 599.94 688.908 591.517 688.913 589.149H681.597C681.595 591.263 681.275 598.595 677.267 604.227C676.866 604.793 676.431 605.335 675.964 605.849L694.357 605.849Z" fill="white"/>
<path d="M697.069 578.506C692.965 578.506 693.095 582.757 694.443 583.701C693.404 584.185 693.554 585.824 694.367 586.235C694.006 586.425 693.736 586.752 693.618 587.142C693.501 587.533 693.546 587.954 693.742 588.312C693.939 588.669 694.271 588.932 694.664 589.041C694.272 589.565 694.751 590.395 695.43 590.395V590.396C695.82 590.417 696.178 590.178 696.307 589.809C696.436 589.44 696.306 589.03 695.988 588.804C696.379 588.518 696.61 588.063 696.611 587.578C698.775 587.998 699.944 585.706 699.062 584.349C701.735 582.335 700.235 578.506 697.069 578.506L697.069 578.506Z" fill="white"/>
<path d="M677.676 564.421C673.572 564.421 673.702 568.672 675.05 569.615C674.011 570.099 674.161 571.739 674.974 572.15C674.612 572.34 674.343 572.666 674.225 573.057C674.108 573.448 674.152 573.869 674.349 574.226C674.546 574.584 674.878 574.847 675.271 574.956C674.879 575.48 675.358 576.31 676.037 576.31C676.427 576.332 676.785 576.093 676.914 575.724C677.043 575.355 676.913 574.945 676.595 574.719C676.986 574.433 677.217 573.978 677.218 573.493C679.382 573.913 680.551 571.621 679.669 570.264C682.341 568.25 680.841 564.421 677.676 564.421L677.676 564.421Z" fill="white"/>
<path d="M704.616 585.735C704.806 585.741 704.99 585.669 705.127 585.537C705.263 585.405 705.34 585.223 705.34 585.033C705.34 584.843 705.263 584.661 705.127 584.529C704.99 584.396 704.806 584.325 704.616 584.331H701.665C701.476 584.325 701.292 584.396 701.155 584.529C701.019 584.661 700.942 584.843 700.942 585.033C700.942 585.223 701.019 585.405 701.155 585.537C701.292 585.669 701.476 585.741 701.665 585.735H704.616Z" fill="white"/>
<path d="M680.773 586.891H689.551H689.551C689.723 586.891 689.863 587.031 689.863 587.203V588.238C689.863 588.411 689.723 588.55 689.551 588.55H680.773C680.6 588.55 680.46 588.411 680.46 588.238V587.203C680.46 587.031 680.6 586.891 680.773 586.891H680.773Z" fill="white"/>
<path d="M677.333 579.018C677.522 579.024 677.707 578.952 677.843 578.82C677.979 578.688 678.056 578.506 678.056 578.316C678.056 578.126 677.979 577.945 677.843 577.812C677.707 577.68 677.522 577.608 677.333 577.614H674.382C674.192 577.608 674.009 577.68 673.872 577.812C673.736 577.945 673.659 578.126 673.659 578.316C673.659 578.506 673.736 578.688 673.872 578.82C674.009 578.952 674.192 579.024 674.382 579.018H677.333Z" fill="white"/>
<path d="M703.87 610.582C706.753 610.582 706.667 606.449 703.87 606.449H675.13C672.247 606.449 672.333 610.582 675.13 610.582H703.87Z" fill="white"/>
</g>
<defs>
<filter id="filter0_d_1218_1232" x="0" y="147.138" width="734" height="499.282" filterUnits="userSpaceOnUse" color-interpolation-filters="sRGB">
<feFlood flood-opacity="0" result="BackgroundImageFix"/>
<feColorMatrix in="SourceAlpha" type="matrix" values="0 0 0 0 0 0 0 0 0 0 0 0 0 0 0 0 0 0 127 0" result="hardAlpha"/>
<feOffset dy="4"/>
<feGaussianBlur stdDeviation="2"/>
<feComposite in2="hardAlpha" operator="out"/>
<feColorMatrix type="matrix" values="0 0 0 0 0 0 0 0 0 0 0 0 0 0 0 0 0 0 0.25 0"/>
<feBlend mode="normal" in2="BackgroundImageFix" result="effect1_dropShadow_1218_1232"/>
<feBlend mode="normal" in="SourceGraphic" in2="effect1_dropShadow_1218_1232" result="shape"/>
</filter>
</defs>
</svg>
