<svg width="747" height="647" viewBox="0 0 747 647" fill="none" xmlns="http://www.w3.org/2000/svg">
<g id="Group 83">
<g id="combustibili-sub-layer">
<g id="combustibili-sub-layer_2">

<g id="Group 82">
<g id="Rectangle 460" filter="url(#filter0_d_2_243)">
<path d="M4 149H730V634.421C730 636.63 728.209 638.421 726 638.421H7.99998C5.79084 638.421 4 636.63 4 634.421V149Z" fill="#202125"/>
<path d="M4.5 149.5H729.5V634.421C729.5 636.354 727.933 637.921 726 637.921H7.99998C6.06699 637.921 4.5 636.354 4.5 634.421V149.5Z" stroke="white"/>
</g>
</g>
</g>
<g id="71% Combustibili fossili">
<text fill="white" xml:space="preserve" style="white-space: pre" font-family="Sole24Sans" font-size="18" letter-spacing="0em"><tspan x="64.1562" y="622.54">Combustibili fossili</tspan></text>
<text fill="white" xml:space="preserve" style="white-space: pre" font-family="Sole24Sans" font-size="24" letter-spacing="0em"><tspan x="17" y="622.54">71% </tspan></text>
</g>
<g id="icona-combustibili-fossili" opacity="0.5">
<path id="Vector" d="M715.811 619.853C715.93 619.853 716.049 619.867 716.164 619.895V608.616H714.545V619.438C714.639 619.579 714.74 619.716 714.844 619.853L715.811 619.853Z" fill="white"/>
<path id="Vector_2" d="M699.707 619.853C699.976 619.557 700.226 619.245 700.457 618.919V604.747H698.838V619.896C698.956 619.817 699.707 619.853 699.707 619.853V619.853Z" fill="white"/>
<path id="Vector_3" d="M714.844 619.852C714.74 619.716 714.639 619.579 714.545 619.438C712.853 616.914 712.681 613.742 712.672 612.707H709.142C709.128 613.741 709.007 614.771 708.779 615.78C709.28 617.206 710.045 618.661 711.212 619.852L714.844 619.852Z" fill="white"/>
<path id="Vector_4" d="M708.873 611.593H712.921C713 611.593 713.064 611.672 713.064 611.736V612.214C713.064 612.293 713 612.358 712.921 612.358H708.873C708.794 612.358 708.729 612.278 708.729 612.214V611.736C708.729 611.657 708.794 611.593 708.873 611.593Z" fill="white"/>
<path id="Vector_5" d="M710.297 619.853C707.369 616.45 707.159 611.601 707.162 610.238H702.95C702.948 611.455 702.764 615.676 700.457 618.919C700.226 619.245 699.976 619.557 699.706 619.853L710.297 619.853Z" fill="white"/>
<path id="Vector_6" d="M711.858 604.11C709.495 604.11 709.57 606.557 710.346 607.101C709.748 607.379 709.834 608.323 710.302 608.56C710.094 608.669 709.939 608.857 709.871 609.082C709.804 609.307 709.829 609.55 709.943 609.756C710.056 609.961 710.247 610.113 710.473 610.176C710.247 610.477 710.523 610.955 710.914 610.955V610.955C711.139 610.967 711.345 610.83 711.419 610.617C711.493 610.405 711.419 610.169 711.235 610.039C711.461 609.874 711.594 609.612 711.594 609.333C712.84 609.575 713.513 608.255 713.005 607.474C714.544 606.314 713.681 604.11 711.858 604.11L711.858 604.11Z" fill="white"/>
<path id="Vector_7" d="M700.692 596C698.33 596 698.404 598.448 699.18 598.991C698.582 599.27 698.668 600.214 699.136 600.45C698.928 600.559 698.773 600.748 698.705 600.973C698.638 601.198 698.663 601.44 698.777 601.646C698.89 601.852 699.081 602.003 699.308 602.066C699.082 602.367 699.358 602.846 699.749 602.846C699.973 602.858 700.179 602.72 700.253 602.508C700.328 602.296 700.253 602.06 700.07 601.929C700.295 601.765 700.428 601.503 700.428 601.224C701.675 601.466 702.347 600.146 701.84 599.364C703.378 598.205 702.515 596 700.692 596L700.692 596Z" fill="white"/>
<path id="Vector_8" d="M716.203 608.272C716.313 608.275 716.419 608.234 716.497 608.158C716.575 608.082 716.62 607.977 716.62 607.868C716.62 607.758 716.575 607.654 716.497 607.577C716.419 607.501 716.313 607.46 716.203 607.464H714.504C714.395 607.46 714.289 607.501 714.211 607.577C714.132 607.654 714.088 607.758 714.088 607.868C714.088 607.977 714.132 608.082 714.211 608.158C714.289 608.234 714.395 608.275 714.504 608.272H716.203Z" fill="white"/>
<path id="Vector_9" d="M702.475 608.938H707.53H707.529C707.629 608.938 707.709 609.018 707.709 609.117V609.713C707.709 609.813 707.629 609.893 707.529 609.893H702.475C702.376 609.893 702.295 609.813 702.295 609.713V609.117C702.295 609.018 702.376 608.938 702.475 608.938H702.475Z" fill="white"/>
<path id="Vector_10" d="M700.495 604.405C700.604 604.408 700.71 604.367 700.788 604.291C700.867 604.214 700.911 604.11 700.911 604.001C700.911 603.891 700.867 603.787 700.788 603.71C700.71 603.634 700.604 603.593 700.495 603.596H698.796C698.687 603.593 698.581 603.634 698.502 603.71C698.424 603.787 698.379 603.891 698.379 604.001C698.379 604.11 698.424 604.214 698.502 604.291C698.581 604.367 698.687 604.408 698.796 604.405H700.495Z" fill="white"/>
<path id="Vector_11" d="M715.774 622.578C717.433 622.578 717.384 620.198 715.774 620.198H699.226C697.567 620.198 697.616 622.578 699.226 622.578H715.774Z" fill="white"/>
</g>
</g>


<g id="basse-emissioni-sub-layer">
<g id="basse-emissioni-sub-layer_2">
<g id="Group 64">
<path id="Rectangle 458" d="M4.50001 152.148L4.5 4.00003C4.5 2.06703 6.067 0.50003 8 0.50003L726 0.499998C727.933 0.499998 729.5 2.067 729.5 4L729.5 152.148L4.50001 152.148Z" fill="#1767D2" stroke="white"/>
</g>
</g>
<g id="icona-basse-emissioni" opacity="0.5">
<path id="Vector_12" d="M708.609 20.8379C708.43 20.6589 708.43 20.3682 708.609 20.1894C708.788 20.0104 709.079 20.0104 709.258 20.1894L710.907 21.8393V21.1908V21.186L710.907 19.3293L708.61 17.0313C708.431 16.8518 708.432 16.5617 708.611 16.3823C708.79 16.2034 709.081 16.2034 709.26 16.3829L710.907 18.0308V17.3839V17.3812L710.906 14.2159C710.905 13.9625 711.111 13.7574 711.364 13.7574C711.618 13.7574 711.823 13.9625 711.823 14.2159L711.824 16.2738L713.472 14.6232C713.652 14.4437 713.943 14.4432 714.121 14.6227C714.301 14.8017 714.301 15.0923 714.122 15.2717L711.824 17.5722L711.825 19.1299V19.1532V20.0799L713.474 18.4301C713.653 18.2506 713.944 18.2511 714.123 18.4295C714.302 18.6091 714.302 18.8992 714.123 19.0785L711.824 21.3781L711.825 22.9455V22.951L711.826 25.7114C714.831 24.3902 716.831 21.3094 716.829 17.9343C716.829 14.4515 714.699 11.2756 711.529 10.0322C711.422 9.98923 711.302 9.99027 711.194 10.0322C708.026 11.2775 705.898 14.4538 705.899 17.9361C705.899 21.3116 707.901 24.392 710.908 25.7118L710.908 23.1377L708.609 20.8379Z" fill="white"/>
<path id="Vector_13" d="M699.459 26.9611C699.206 26.9611 699 27.1667 699 27.4201C699 27.6729 699.206 27.8785 699.459 27.8785H700.551C700.63 28.5896 701.226 29.1461 701.958 29.1461H703.429C704.214 29.1461 704.852 28.5081 704.852 27.7235V26.9183C705.668 26.9561 705.89 27.1626 706.419 28.2929C707.001 29.5382 707.714 30.3083 708.537 30.5819C708.755 30.6548 708.976 30.6901 709.2 30.6901C709.587 30.6901 709.983 30.5828 710.382 30.3682C711.392 29.8266 711.878 28.3257 711.826 25.9055V25.7117C711.729 25.7541 711.633 25.8004 711.534 25.8398C711.48 25.861 711.423 25.871 711.366 25.871C711.31 25.871 711.253 25.861 711.199 25.8398C711.1 25.8009 711.005 25.7547 710.908 25.7122V25.9155C710.908 25.9166 710.909 25.9171 710.909 25.9188C710.909 25.921 710.908 25.9231 710.908 25.9255C710.966 28.6084 710.332 29.3535 709.949 29.5596C709.543 29.7769 709.175 29.8261 708.827 29.7105C708.111 29.4731 707.575 28.5967 707.251 27.9037C706.584 26.4766 706.111 26.07 704.852 26.0035V25.082C704.852 24.2981 704.214 23.6602 703.43 23.6602L701.958 23.6603C701.228 23.6603 700.633 24.2137 700.551 24.9217H699.459C699.206 24.9217 699 25.1273 699 25.3806C699 25.6335 699.206 25.8391 699.459 25.8391H700.535V26.9613H699.459L699.459 26.9611Z" fill="white"/>
</g>
<g id="28,7% Fonti a bassa emissione di carbonio">
<text fill="white" xml:space="preserve" style="white-space: pre" font-family="Sole24Sans" font-size="18" letter-spacing="0em"><tspan x="86.1172" y="30.5404">Fonti a bassa emissione di carbonio</tspan></text>
<text fill="white" xml:space="preserve" style="white-space: pre" font-family="Sole24Sans" font-size="24" letter-spacing="0em"><tspan x="17" y="30.5404">28,7% </tspan></text>
</g>
</g>

<g class="rettangolo" id="altre">
<path id="Rectangle 492" d="M17 43.0005C17 40.7914 18.7909 39.0005 21 39.0005H85V140.001H21C18.7909 140.001 17 138.21 17 136.001V43.0005Z" fill="#1767D2" stroke="white"/>
<g id="icona-altre">
<path id="Vector_14" d="M51.0558 98.9376C49.3742 98.9376 47.9984 98.5533 46.8902 97.7466C46.6226 97.5544 46.5844 97.2086 46.7756 96.9395C46.9667 96.6704 47.3106 96.6321 47.5783 96.8243C48.4956 97.4775 49.6038 97.7849 51.0561 97.7849C52.4701 97.7849 53.6166 97.4775 54.4955 96.8243C54.7631 96.6321 55.107 96.709 55.2982 96.9395C55.4893 97.2086 55.4128 97.5544 55.1836 97.7466C54.1132 98.5533 52.7374 98.9376 51.0558 98.9376H51.0558Z" fill="white" fill-opacity="0.5"/>
<path id="Vector_15" d="M55.3396 99.0146C55.1485 98.7455 54.8046 98.7071 54.5369 98.8993C53.505 99.6294 52.2057 99.7446 51.0975 99.7446C49.4924 99.7446 48.4605 99.4755 47.6197 98.861C47.352 98.6688 47.0082 98.7457 46.817 98.9762C46.6259 99.2453 46.7024 99.5911 46.9316 99.7832C47.5432 100.206 48.1547 100.475 48.8043 100.629C48.919 101.781 49.9125 102.703 51.0975 102.703C52.2821 102.703 53.276 101.781 53.3906 100.629C54.0403 100.475 54.6518 100.206 55.225 99.7832C55.4543 99.6294 55.5308 99.2453 55.3396 99.0146H55.3396ZM51.0594 101.551C50.5625 101.551 50.1804 101.243 49.9893 100.82C50.3332 100.859 50.7155 100.859 51.0594 100.859C51.4032 100.859 51.7471 100.859 52.1294 100.82C51.9767 101.243 51.5563 101.551 51.0594 101.551Z" fill="white" fill-opacity="0.5"/>
<path id="Vector_16" d="M51.4781 92.1381C52.4717 90.9853 53.9621 89.1028 54.803 87.4504C56.1788 84.6839 55.873 81.6869 55.6437 80.4958C54.6118 80.7649 52.2043 81.6485 50.6374 84.7225C49.5673 86.8359 49.8731 89.2181 50.4081 90.947C50.6374 88.5649 51.3635 85.6831 53.2362 83.2239C53.4274 82.9548 53.7713 82.9165 54.0389 83.1087C54.3066 83.3008 54.3447 83.6466 54.1536 83.9157C52.1659 86.5667 51.5928 89.7559 51.4782 92.1383L51.4781 92.1381Z" fill="white" fill-opacity="0.5"/>
<path id="Vector_17" d="M51.0574 74.0005C45.7834 74.0005 42 77.9198 42 83.3375C42 86.4883 43.414 88.5248 44.637 90.2921C45.5925 91.6754 46.3952 92.8665 46.3952 94.288C46.3952 96.0557 49.0703 96.8624 50.7138 96.9776L50.5226 95.9401C50.5226 95.8249 50.3699 95.0179 50.3315 93.7498C50.255 93.5963 50.1022 93.3272 49.9492 92.9428C48.2676 91.2907 44.637 87.2176 45.2102 83.0295C45.2483 82.799 45.4014 82.6068 45.6306 82.5299C47.7707 82.0303 49.2231 82.8373 49.9874 83.4522C52.3186 79.6873 55.8726 79.2646 56.0256 79.2646C56.2933 79.2263 56.5607 79.4182 56.6372 79.6873C56.6753 79.8795 57.7838 84.0676 55.8345 87.9868C54.6114 90.4459 52.1274 93.2124 51.5159 93.9039C51.554 95.0566 51.6686 95.7867 51.707 95.7867L51.8982 96.9008V96.9392C53.5414 96.7087 55.758 95.9017 55.758 94.2879C55.758 92.8277 56.5988 91.6366 57.5161 90.292C58.7392 88.5243 60.1532 86.488 60.1532 83.3373C60.1148 77.9581 56.3314 74.0005 51.0574 74.0005Z" fill="white" fill-opacity="0.5"/>
<path id="Vector_18" d="M48.0763 84.7212C48.1528 84.7596 48.4967 85.067 48.9552 85.874C49.0699 85.413 49.2229 84.9903 49.4138 84.529C48.9934 84.1064 47.9233 83.3763 46.2798 83.6068C46.1271 86.0659 47.6176 88.525 49.0314 90.2926C48.8787 89.6777 48.8022 89.0246 48.7638 88.333L48.7257 88.2947C48.076 86.22 47.3879 85.682 47.3879 85.682C47.1587 85.4899 47.0822 85.1441 47.2733 84.875C47.5031 84.6057 47.847 84.5673 48.0763 84.7212L48.0763 84.7212Z" fill="white" fill-opacity="0.5"/>
</g>
<g id="2,7%">
<text fill="white" xml:space="preserve" style="white-space: pre" font-family="Sole24Sans" font-size="18" letter-spacing="0em"><tspan x="31.3066" y="127.031">2,7%&#10;</tspan></text>
<text fill="white" xml:space="preserve" style="white-space: pre" font-family="Sole24Serif Text" font-size="18" letter-spacing="0em"><tspan x="27" y="127.031"> </tspan></text>
</g>
</g>

<g class="rettangolo" id="solare">
<rect id="Rectangle 491" x="85" y="39.0005" width="42" height="101" fill="#1767D2" stroke="white"/>
<g id="icona-solare">
<path id="Vector_19" d="M100.767 82.5729C100.897 82.7979 101.132 82.9224 101.373 82.9224C101.493 82.9224 101.613 82.895 101.723 82.8286C102.058 82.6359 102.172 82.2039 101.978 81.8692L100.315 78.9706C100.12 78.6323 99.6932 78.5166 99.3585 78.7133C99.0234 78.9042 98.9085 79.3366 99.1025 79.6728L100.767 82.5729Z" fill="white" fill-opacity="0.5"/>
<path id="Vector_20" d="M97.7304 89.7836C97.7304 89.3951 97.4165 89.0791 97.0303 89.0791L93.7001 89.0793C93.3137 89.0793 93 89.3949 93 89.7838C93 90.1726 93.3137 90.4897 93.7001 90.4897H97.0303C97.4165 90.4893 97.7304 90.1724 97.7304 89.7836V89.7836Z" fill="white" fill-opacity="0.5"/>
<path id="Vector_21" d="M98.5426 84.8099L95.6599 83.1341C95.3235 82.9398 94.8955 83.0554 94.704 83.3931C94.5107 83.7312 94.6243 84.1614 94.9597 84.3525L97.8436 86.0276C97.9545 86.091 98.0744 86.1197 98.1936 86.1197C98.4333 86.1197 98.6701 85.9975 98.7988 85.7683C98.9935 85.4352 98.879 85.0043 98.5426 84.81L98.5426 84.8099Z" fill="white" fill-opacity="0.5"/>
<path id="Vector_22" d="M97.8437 93.5447L94.9597 95.2202C94.6244 95.4152 94.5106 95.8444 94.7039 96.1813C94.8326 96.4092 95.0684 96.5319 95.3091 96.5319C95.4297 96.5319 95.5482 96.5046 95.66 96.438L98.5429 94.7647C98.8793 94.5709 98.9934 94.142 98.7987 93.8001C98.607 93.4668 98.1782 93.3486 97.8437 93.5447L97.8437 93.5447Z" fill="white" fill-opacity="0.5"/>
<path id="Vector_23" d="M113.244 86.1217C113.361 86.1217 113.482 86.0912 113.593 86.0278L116.477 84.3558C116.811 84.1615 116.925 83.7311 116.733 83.3933C116.54 83.058 116.112 82.9398 115.777 83.1344L112.894 84.8102C112.557 85.0045 112.444 85.4354 112.637 85.7741C112.767 85.998 113.002 86.1216 113.244 86.1216L113.244 86.1217Z" fill="white" fill-opacity="0.5"/>
<path id="Vector_24" d="M105.719 81.7553C106.105 81.7553 106.419 81.4397 106.419 81.053V77.7028C106.419 77.3158 106.105 77.0005 105.719 77.0005C105.332 77.0005 105.019 77.3159 105.019 77.7028V81.0528C105.019 81.4397 105.332 81.7553 105.719 81.7553V81.7553Z" fill="white" fill-opacity="0.5"/>
<path id="Vector_25" d="M109.712 82.8303C109.822 82.8949 109.943 82.9224 110.06 82.9224C110.303 82.9224 110.538 82.7993 110.667 82.5728L112.332 79.6727C112.526 79.3363 112.411 78.9067 112.077 78.7132C111.741 78.5165 111.314 78.6326 111.121 78.9706L109.455 81.8689C109.262 82.2065 109.376 82.6361 109.712 82.8303L109.712 82.8303Z" fill="white" fill-opacity="0.5"/>
<path id="Vector_26" d="M117.736 89.0819H114.406C114.018 89.0819 113.706 89.3957 113.706 89.7846C113.706 90.1734 114.018 90.4903 114.404 90.4903H117.736C118.122 90.4903 118.436 90.173 118.436 89.7882C118.436 89.3957 118.122 89.0819 117.736 89.0819H117.736Z" fill="white" fill-opacity="0.5"/>
<path id="Vector_27" d="M105.715 96.5432C109.425 96.5432 112.434 93.5177 112.434 89.7886C112.434 86.0568 109.425 83.0308 105.715 83.0308C102.003 83.0308 98.9966 86.0568 98.9966 89.7886C98.9968 93.5176 102.003 96.5432 105.715 96.5432V96.5432Z" fill="white" fill-opacity="0.5"/>
<path id="Vector_28" d="M116.477 95.2202L113.594 93.5447C113.258 93.3486 112.83 93.4668 112.637 93.7999C112.444 94.1418 112.557 94.5706 112.894 94.7646L115.777 96.4379C115.887 96.5046 116.007 96.5353 116.126 96.5353C116.367 96.5353 116.602 96.409 116.733 96.1827C116.925 95.8446 116.811 95.4153 116.477 95.2202H116.477Z" fill="white" fill-opacity="0.5"/>
<path id="Vector_29" d="M101.722 96.7453C101.387 96.5513 100.959 96.6659 100.767 97.0024L99.1028 99.9026C98.9089 100.239 99.0225 100.671 99.3565 100.864C99.4667 100.93 99.5891 100.96 99.7067 100.96C99.9506 100.96 100.184 100.833 100.315 100.605L101.979 97.7051C102.173 97.3698 102.058 96.9411 101.722 96.7453L101.722 96.7453Z" fill="white" fill-opacity="0.5"/>
<path id="Vector_30" d="M110.667 97.0024C110.475 96.6659 110.047 96.5513 109.712 96.7453C109.376 96.9411 109.262 97.3698 109.455 97.7051L111.121 100.607C111.251 100.833 111.485 100.96 111.726 100.96C111.847 100.96 111.967 100.93 112.077 100.864C112.411 100.671 112.526 100.239 112.332 99.9025L110.667 97.0024Z" fill="white" fill-opacity="0.5"/>
<path id="Vector_31" d="M105.719 97.8202C105.332 97.8202 105.019 98.1358 105.019 98.5256V101.876C105.019 102.261 105.332 102.578 105.719 102.578C106.105 102.578 106.418 102.261 106.418 101.876V98.5256C106.418 98.1358 106.105 97.8202 105.719 97.8202Z" fill="white" fill-opacity="0.5"/>
</g>
<g id="2%">
<text fill="white" xml:space="preserve" style="white-space: pre" font-family="Sole24Sans" font-size="18" letter-spacing="0em"><tspan x="93.3066" y="126.031">2%&#10;</tspan></text>
<text fill="white" xml:space="preserve" style="white-space: pre" font-family="Sole24Serif Text" font-size="18" letter-spacing="0em"><tspan x="89" y="126.031"> </tspan></text>
</g>
</g>

<g class="rettangolo" id="eolica">
<rect id="Rectangle 493" x="127" y="39.0005" width="147" height="101" fill="#1767D2" stroke="white"/>
<g id="icona-altre_2">
<path id="Vector_32" d="M198.813 67.7716C198.768 67.6708 198.756 67.5566 198.779 67.4453L200.492 59.415C200.543 59.1748 200.759 59.0005 201.002 59.0005H201.538C201.782 59.0005 201.996 59.1748 202.047 59.4161L203.762 67.4463C203.785 67.5556 203.774 67.6719 203.729 67.7727L202.63 70.2214C202.201 70.0714 201.749 69.9738 201.27 69.9738C200.791 69.9738 200.339 70.0735 199.91 70.2214L198.813 67.7716Z" fill="white" fill-opacity="0.5"/>
<path id="Vector_33" d="M196.986 79.513C196.922 79.6033 196.829 79.6693 196.723 79.7062L188.949 82.2284C188.715 82.2986 188.457 82.2052 188.336 81.9913L188.069 81.5255C187.947 81.3126 187.99 81.0397 188.171 80.8738L194.233 75.3658C194.315 75.2924 194.421 75.2453 194.53 75.2327L197.175 74.966C197.354 75.906 197.855 76.7266 198.549 77.3309L196.986 79.513Z" fill="white" fill-opacity="0.5"/>
<path id="Vector_34" d="M202.495 103.063H200.049L200.977 78.3423C201.077 78.3487 201.172 78.3708 201.273 78.3708C201.374 78.3708 201.469 78.3487 201.568 78.3423L202.495 103.063Z" fill="white" fill-opacity="0.5"/>
<path id="Vector_35" d="M214.474 81.5248L214.207 81.9906C214.085 82.2014 213.826 82.298 213.596 82.2277L205.82 79.7056C205.714 79.6708 205.622 79.6005 205.557 79.5124L203.994 77.3302C204.689 76.726 205.19 75.9064 205.368 74.9653L208.012 75.232C208.124 75.2446 208.228 75.2917 208.31 75.3672L214.372 80.8732C214.555 81.039 214.598 81.3116 214.474 81.5248L214.474 81.5248Z" fill="white" fill-opacity="0.5"/>
<path id="Vector_36" d="M201.271 71.0196C199.542 71.0196 198.137 72.4349 198.137 74.1724C198.137 75.9088 199.542 77.3219 201.271 77.3219C202.999 77.3219 204.404 75.9087 204.404 74.1724C204.404 72.435 202.997 71.0196 201.271 71.0196ZM201.271 75.5595C200.51 75.5595 199.891 74.9364 199.891 74.1738C199.891 73.409 200.51 72.7869 201.271 72.7869C202.031 72.7869 202.648 73.4101 202.648 74.1738C202.648 74.936 202.031 75.5595 201.271 75.5595Z" fill="white" fill-opacity="0.5"/>
<path id="Vector_37" d="M201.608 74.1725C201.608 74.6236 200.935 74.6236 200.935 74.1725C200.935 73.7214 201.608 73.7214 201.608 74.1725Z" fill="white" fill-opacity="0.5"/>
</g>
<g id="5,9%">
<text fill="white" xml:space="preserve" style="white-space: pre" font-family="Sole24Sans" font-size="18" letter-spacing="0em"><tspan x="209.074" y="126.031">%&#10;</tspan></text>
<text fill="white" xml:space="preserve" style="white-space: pre" font-family="Sole24Sans" font-size="18" letter-spacing="0em"><tspan x="180" y="126.031"> 5,9</tspan></text>
</g>
</g>

<g class="rettangolo" id="idroelettrica">
<rect id="Rectangle 494" x="274" y="39.0005" width="190" height="101" fill="#1767D2" stroke="white"/>
<path id="icona-idroelettrica" d="M378.791 89.2718L372.552 75.6648C372.367 75.2552 371.982 75.0005 371.544 75.0005C371.117 75.0005 370.727 75.2607 370.542 75.6648L364.308 89.2718C363.607 90.8108 363 92.1394 363 94.243C363 99.1588 366.834 103.156 371.544 103.156C376.26 103.156 380.094 99.1588 380.094 94.243C380.099 92.1338 379.461 90.7444 378.791 89.2718ZM376.877 90.3624L371.713 99.7456C371.713 99.7456 371.713 99.7511 371.708 99.7511C371.571 99.9892 371.349 100.128 371.112 100.128C371.001 100.128 370.89 100.094 370.795 100.033C370.505 99.8618 370.347 99.4743 370.41 99.0868L371.281 93.5842H366.819C366.539 93.5842 366.286 93.3905 366.17 93.086C366.064 92.8092 366.085 92.4826 366.223 92.228L371.381 82.8503C371.513 82.6067 371.74 82.4683 371.977 82.4683C372.088 82.4683 372.193 82.5015 372.293 82.5569C372.583 82.723 372.742 83.1105 372.684 83.498L371.813 89.0006H376.276C376.55 89.0006 376.808 89.1943 376.924 89.4988C377.03 89.7811 377.009 90.1077 376.877 90.3624Z" fill="white" fill-opacity="0.5"/>
<g id="7,6%">
<text fill="white" xml:space="preserve" style="white-space: pre" font-family="Sole24Sans" font-size="18" letter-spacing="0em"><tspan x="377.984" y="126.031">%&#10;</tspan></text>
<text fill="white" xml:space="preserve" style="white-space: pre" font-family="Sole24Sans" font-size="18" letter-spacing="0em"><tspan x="350" y="126.031"> 7,6</tspan></text>
</g>
</g>

<g class="rettangolo" id="nucleare">
<path id="Rectangle 498" d="M464 39.0005H713C715.209 39.0005 717 40.7914 717 43.0005V136.001C717 138.21 715.209 140.001 713 140.001H464V39.0005Z" fill="#1767D2" stroke="white"/>
<g id="icona-nucleare">
<path id="Vector_38" d="M585.365 76.9849L584.25 77.4131L587.253 85.2628L588.368 84.8297C589.865 84.2516 591.351 84.2492 592.852 84.8322L593.966 85.2628L596.969 77.4131L595.853 76.9849C592.452 75.6724 588.765 75.6724 585.366 76.9849L585.365 76.9849Z" fill="white" fill-opacity="0.5"/>
<path id="Vector_39" d="M584.446 91.6721L584.261 90.4868L576 91.7969L576.184 92.9797C576.746 96.5813 578.605 99.8268 581.421 102.118L582.348 102.873L587.618 96.3213L586.693 95.5666C585.482 94.5803 584.685 93.1982 584.446 91.672L584.446 91.6721Z" fill="white" fill-opacity="0.5"/>
<path id="Vector_40" d="M590.608 86.4941C588.306 86.4941 586.432 88.3778 586.432 90.6931C586.432 93.0085 588.306 94.8922 590.608 94.8922C592.911 94.8922 594.785 93.0085 594.785 90.6931C594.785 88.3775 592.911 86.4941 590.608 86.4941Z" fill="white" fill-opacity="0.5"/>
<path id="Vector_41" d="M596.772 91.6702C596.534 93.1974 595.736 94.5806 594.527 95.5645L593.602 96.3191L598.871 102.873L599.799 102.119C602.613 99.827 604.473 96.5819 605.035 92.9801L605.219 91.7948L596.957 90.4848L596.772 91.6702Z" fill="white" fill-opacity="0.5"/>
</g>
<g id="9,7%">
<text fill="white" xml:space="preserve" style="white-space: pre" font-family="Sole24Sans" font-size="18" letter-spacing="0em"><tspan x="597.09" y="126.031">%&#10;</tspan></text>
<text fill="white" xml:space="preserve" style="white-space: pre" font-family="Sole24Sans" font-size="18" letter-spacing="0em"><tspan x="569" y="126.031"> 9,7</tspan></text>
</g>
</g>

<g class="rettangolo" id="petrolio">
<path id="Rectangle 496" d="M265 165H597V584H265V165Z" fill="#202125" stroke="white"/>
<g id="Group" opacity="0.5">
<path id="Vector_42" d="M431.447 371C435.066 371 438.348 371.256 440.729 371.669C443.301 372.115 444.892 372.82 444.892 373.678C444.892 374.537 443.301 375.242 440.729 375.688C438.348 376.101 435.066 376.357 431.447 376.357C427.828 376.357 424.546 376.101 422.165 375.688C419.593 375.242 418.002 374.537 418.002 373.678C418.002 372.82 419.593 372.115 422.165 371.669C424.546 371.256 427.828 371 431.447 371V371Z" fill="white"/>
<path id="Vector_43" fill-rule="evenodd" clip-rule="evenodd" d="M428.41 391.697C429.391 391.726 430.407 391.742 431.448 391.742C432.487 391.742 433.502 391.726 434.482 391.697C435.231 391.668 435.955 391.627 436.65 391.577C438.311 391.458 439.806 391.283 441.058 391.065C442.388 390.835 443.452 390.539 444.167 390.194C444.5 390.033 444.745 389.872 444.893 389.714V375.139C443.782 375.981 441.846 376.343 440.872 376.512C439.468 376.755 438.035 376.906 436.614 377.011C434.896 377.137 433.17 377.193 431.447 377.193C429.725 377.193 427.999 377.137 426.281 377.011C424.86 376.906 423.427 376.755 422.023 376.512C421.049 376.343 419.113 375.981 418.002 375.139V389.714C418.149 389.872 418.395 390.033 418.728 390.194C419.443 390.539 420.507 390.834 421.836 391.065C423.089 391.283 424.584 391.458 426.245 391.577C426.939 391.627 427.662 391.668 428.41 391.697H428.41ZM428.21 387.084C427.929 386.339 427.883 385.404 428.2 384.284C428.577 382.955 429.472 381.346 431.111 379.464C431.265 379.254 431.594 379.23 431.762 379.436C433.412 381.325 434.313 382.939 434.692 384.273C435.011 385.395 434.965 386.332 434.684 387.079C434.395 387.847 433.86 388.407 433.213 388.759C432.14 389.342 430.754 389.345 429.679 388.762C429.033 388.412 428.499 387.853 428.21 387.085L428.21 387.084Z" fill="white"/>
<path id="Vector_44" fill-rule="evenodd" clip-rule="evenodd" d="M428.99 386.79C429.203 387.354 429.598 387.767 430.078 388.027C430.907 388.477 431.985 388.477 432.815 388.027C433.294 387.766 433.691 387.352 433.904 386.784C434.126 386.196 434.155 385.435 433.889 384.497C433.565 383.357 432.81 381.976 431.448 380.35C430.083 381.981 429.326 383.366 429.003 384.509C428.738 385.444 428.768 386.203 428.99 386.79H428.99Z" fill="white"/>
<path id="Vector_45" fill-rule="evenodd" clip-rule="evenodd" d="M433.889 400.602C433.565 399.461 432.81 398.08 431.448 396.454C430.083 398.086 429.326 399.47 429.003 400.613C428.738 401.548 428.768 402.306 428.99 402.894C429.203 403.459 429.598 403.871 430.078 404.131C430.907 404.581 431.985 404.582 432.815 404.131C433.294 403.87 433.691 403.456 433.904 402.889C434.126 402.299 434.155 401.539 433.889 400.602H433.889Z" fill="white"/>
<path id="Vector_46" fill-rule="evenodd" clip-rule="evenodd" d="M431.762 395.54C433.412 397.429 434.312 399.043 434.691 400.377C435.01 401.498 434.965 402.436 434.684 403.183C434.395 403.951 433.86 404.511 433.213 404.862C432.139 405.446 430.754 405.449 429.679 404.866C429.033 404.515 428.499 403.956 428.209 403.188C427.928 402.443 427.882 401.508 428.2 400.388C428.576 399.059 429.471 397.45 431.111 395.568C431.261 395.362 431.597 395.332 431.762 395.54L431.762 395.54ZM418.001 390.75V405.822C418.001 407.706 424.875 408.198 426.091 408.281C429.584 408.522 433.309 408.522 436.803 408.281C438.019 408.197 444.892 407.706 444.892 405.822V390.75C444.779 390.817 444.658 390.882 444.528 390.944C443.741 391.325 442.602 391.644 441.197 391.887C439.92 392.109 438.396 392.288 436.707 392.409C435.079 392.527 433.302 392.591 431.446 392.591C429.59 392.591 427.812 392.527 426.185 392.409C424.495 392.288 422.972 392.109 421.694 391.887C420.29 391.644 419.151 391.325 418.363 390.944C418.234 390.882 418.112 390.817 418 390.75H418.001Z" fill="white"/>
</g>
<g id="34%">
<text fill="white" xml:space="preserve" style="white-space: pre" font-family="Sole24Sans" font-size="18" letter-spacing="0em"><tspan x="433.408" y="438.03">%&#10;</tspan></text>
<text fill="white" xml:space="preserve" style="white-space: pre" font-family="Sole24Sans" font-size="18" letter-spacing="0em"><tspan x="413" y="438.03">34</tspan></text>
</g>
</g>

<g class="rettangolo" id="gas">
<path id="Rectangle 495" d="M17 169C17 166.791 18.7909 165 21 165H265V584H21C18.7909 584 17 582.209 17 580V169Z" fill="#202125" stroke="white"/>
<g id="Group_2" opacity="0.5">
<path id="Vector_47" fill-rule="evenodd" clip-rule="evenodd" d="M136.495 376.729H139.975V375.184H139.199C138.919 375.184 138.69 374.955 138.69 374.675V374.076C138.69 373.797 138.919 373.568 139.199 373.568H142.368C142.647 373.568 142.876 373.797 142.876 374.076V374.675C142.876 374.955 142.647 375.184 142.368 375.184H141.591V376.729H145.304V373.526C145.304 373.06 144.923 372.678 144.457 372.678H137.342C136.876 372.678 136.494 373.06 136.494 373.526V376.729H136.495ZM127.752 392.877H129.286V390.389H152.282V392.877H153.816C154.229 392.877 154.568 393.215 154.568 393.628V394.513C154.568 394.927 154.229 395.265 153.816 395.265H127.752C127.339 395.265 127 394.927 127 394.513V393.628C127 393.215 127.338 392.877 127.752 392.877H127.752ZM127.752 389.197H153.816C154.229 389.197 154.567 388.858 154.567 388.445V387.56C154.567 387.146 154.229 386.808 153.816 386.808H152.281V383.161C152.281 380.625 150.794 378.42 148.649 377.375V371.847C148.649 371.381 148.268 371 147.801 371H133.998C133.531 371 133.15 371.381 133.15 371.847V377.267C130.881 378.263 129.286 380.535 129.286 383.161V386.808H127.752C127.338 386.808 127 387.147 127 387.56V388.445C127 388.858 127.338 389.197 127.752 389.197L127.752 389.197ZM152.282 396.457V401.297C152.282 404.834 149.387 407.728 145.85 407.728H135.717C132.18 407.728 129.286 404.834 129.286 401.297V396.457H152.282H152.282Z" fill="white"/>
</g>
<g id="26%">
<text fill="white" xml:space="preserve" style="white-space: pre" font-family="Sole24Sans" font-size="18" letter-spacing="0em"><tspan x="143.725" y="438.03">%&#10;</tspan></text>
<text fill="white" xml:space="preserve" style="white-space: pre" font-family="Sole24Sans" font-size="18" letter-spacing="0em"><tspan x="123" y="438.03">26</tspan></text>
</g>
</g>

<g class="rettangolo" id="carbone">
<path id="Rectangle 497" d="M597 165H713C715.209 165 717 166.791 717 169V580C717 582.209 715.209 584 713 584H597V165Z" fill="#202125" stroke="white"/>
<g id="Group_3" opacity="0.5">
<path id="Vector_48" d="M669.386 382.976H645.082C645.606 381.858 646.622 381.05 647.83 380.791C648.16 379.93 648.744 379.189 649.503 378.665C650.263 378.141 651.163 377.859 652.085 377.856C652.193 377.856 652.307 377.861 652.415 377.867C652.756 377.026 653.34 376.306 654.092 375.797C654.843 375.289 655.729 375.015 656.636 375.011C657.845 375.009 659.004 375.491 659.856 376.348C660.288 376.217 660.736 376.15 661.188 376.149C662.302 376.15 663.376 376.559 664.209 377.3C665.041 378.04 665.573 379.059 665.705 380.165C666.513 380.263 667.281 380.575 667.928 381.069C668.575 381.563 669.078 382.222 669.385 382.976L669.386 382.976ZM645.287 402.273C645.27 402.103 645.258 401.926 645.258 401.75C645.258 399.921 646.234 398.23 647.818 397.316C649.402 396.401 651.354 396.401 652.938 397.316C654.523 398.23 655.499 399.921 655.499 401.75C655.499 401.94 655.487 402.13 655.464 402.319H658.946H658.946C658.923 402.13 658.912 401.94 658.912 401.75C658.912 399.921 659.888 398.23 661.472 397.316C663.056 396.401 665.008 396.401 666.592 397.316C668.177 398.23 669.152 399.921 669.152 401.75C669.152 401.926 669.141 402.103 669.124 402.273C669.925 402.145 670.655 401.736 671.181 401.119C671.708 400.502 671.997 399.717 671.997 398.905V384.682C671.996 384.369 671.742 384.115 671.428 384.114H642.982C642.669 384.115 642.415 384.369 642.414 384.682V398.905C642.414 399.717 642.703 400.502 643.229 401.119C643.756 401.736 644.485 402.145 645.287 402.273H645.287ZM650.378 402.888C650.68 402.888 650.97 402.768 651.183 402.554C651.396 402.341 651.516 402.052 651.516 401.75C651.516 401.448 651.396 401.159 651.183 400.945C650.97 400.732 650.68 400.612 650.378 400.612C650.077 400.612 649.787 400.732 649.574 400.945C649.36 401.159 649.24 401.448 649.24 401.75C649.241 402.052 649.361 402.341 649.574 402.554C649.787 402.767 650.077 402.887 650.378 402.888L650.378 402.888ZM664.032 402.888C664.334 402.888 664.623 402.768 664.837 402.554C665.05 402.341 665.17 402.052 665.17 401.75C665.17 401.448 665.05 401.159 664.837 400.945C664.623 400.732 664.334 400.612 664.032 400.612C663.73 400.612 663.441 400.732 663.228 400.945C663.014 401.159 662.894 401.448 662.894 401.75C662.895 402.052 663.015 402.341 663.228 402.554C663.441 402.767 663.73 402.887 664.032 402.888L664.032 402.888ZM675.41 405.163V407.439C675.41 407.59 675.35 407.735 675.244 407.841C675.137 407.948 674.992 408.008 674.842 408.008H639.569C639.255 408.008 639 407.753 639 407.439V405.163C639 404.849 639.255 404.594 639.569 404.594H647.597C646.837 403.853 646.405 402.838 646.396 401.777C646.388 400.715 646.803 399.694 647.551 398.94C648.299 398.186 649.316 397.762 650.378 397.762C651.44 397.762 652.458 398.186 653.206 398.94C653.953 399.694 654.369 400.715 654.36 401.777C654.352 402.838 653.92 403.853 653.16 404.594H661.251C660.491 403.853 660.059 402.838 660.05 401.777C660.042 400.715 660.457 399.694 661.205 398.94C661.953 398.186 662.97 397.762 664.032 397.762C665.094 397.762 666.112 398.186 666.86 398.94C667.607 399.694 668.023 400.715 668.014 401.777C668.006 402.838 667.574 403.853 666.814 404.594H674.842C674.993 404.594 675.137 404.654 675.244 404.761C675.351 404.868 675.411 405.012 675.411 405.163H675.41ZM661.757 401.75C661.757 402.353 661.996 402.932 662.423 403.359C662.85 403.786 663.429 404.026 664.032 404.026C664.636 404.026 665.214 403.786 665.641 403.359C666.068 402.932 666.308 402.353 666.308 401.75C666.308 401.146 666.068 400.568 665.641 400.141C665.214 399.714 664.636 399.474 664.032 399.474C663.429 399.475 662.85 399.715 662.424 400.141C661.997 400.568 661.757 401.146 661.757 401.75ZM648.103 401.75C648.103 402.353 648.342 402.932 648.769 403.359C649.196 403.786 649.775 404.026 650.378 404.026C650.982 404.026 651.561 403.786 651.987 403.359C652.414 402.932 652.654 402.353 652.654 401.75C652.654 401.146 652.414 400.568 651.987 400.141C651.561 399.714 650.982 399.474 650.378 399.474C649.775 399.475 649.196 399.715 648.77 400.141C648.343 400.568 648.103 401.146 648.103 401.75Z" fill="white"/>
</g>
<text id="12%" fill="white" xml:space="preserve" style="white-space: pre" font-family="Sole24Sans" font-size="18" letter-spacing="0em"><tspan x="639" y="438.03">12%&#10;</tspan></text>
</g>


<g class="tooltip" id="tooltip-altro">
<rect id="Rectangle 499" x="28" y="109" width="115" height="52" rx="4" fill="#060707"/>
<rect id="Rectangle 500" x="51.6776" y="100" width="16.4625" height="16.4625" rx="4" transform="rotate(45 51.6776 100)" fill="#060707"/>
<text id="Altre energie rinnovabili" fill="white" xml:space="preserve" style="white-space: pre" font-family="Sole24Sans" font-size="18" letter-spacing="0em"><tspan x="36" y="131.03">Altre energie&#10;</tspan><tspan x="36" y="153.03">rinnovabili</tspan></text>
</g>

<g class="tooltip" id="tooltip-gas">
<rect id="Rectangle 499_2" x="118" y="455" width="115" height="52" rx="4" fill="#060707"/>
<rect id="Rectangle 500_2" x="141.678" y="446" width="16.4625" height="16.4625" rx="4" transform="rotate(45 141.678 446)" fill="#060707"/>
<text id="Gas" fill="white" xml:space="preserve" style="white-space: pre" font-family="Sole24Sans" font-size="18" letter-spacing="0em"><tspan x="126" y="477.03">Gas</tspan></text>
</g>

<g class="tooltip" id="tooltip-petrolio">
<rect id="Rectangle 499_3" x="410" y="455" width="115" height="52" rx="4" fill="#060707"/>
<rect id="Rectangle 500_3" x="433.678" y="446" width="16.4625" height="16.4625" rx="4" transform="rotate(45 433.678 446)" fill="#060707"/>
<text id="Petrolio" fill="white" xml:space="preserve" style="white-space: pre" font-family="Sole24Sans" font-size="18" letter-spacing="0em"><tspan x="418" y="477.03">Petrolio</tspan></text>
</g>

<g class="tooltip" id="tooltip-carbone">
<rect id="Rectangle 499_4" x="632" y="455" width="115" height="52" rx="4" fill="#060707"/>
<rect id="Rectangle 500_4" x="655.678" y="446" width="16.4625" height="16.4625" rx="4" transform="rotate(45 655.678 446)" fill="#060707"/>
<text id="Carbone" fill="white" xml:space="preserve" style="white-space: pre" font-family="Sole24Sans" font-size="18" letter-spacing="0em"><tspan x="640" y="477.03">Carbone</tspan></text>
</g>

<g class="tooltip" id="tooltip-solare">
<rect id="Rectangle 499_5" x="82" y="109" width="115" height="52" rx="4" fill="#060707"/>
<rect id="Rectangle 500_5" x="105.678" y="100" width="16.4625" height="16.4625" rx="4" transform="rotate(45 105.678 100)" fill="#060707"/>
<text id="Energia solare" fill="white" xml:space="preserve" style="white-space: pre" font-family="Sole24Sans" font-size="18" letter-spacing="0em"><tspan x="90" y="131.03">Energia </tspan><tspan x="90" y="153.03">solare</tspan></text>
</g>

<g class="tooltip" id="tooltip-eolico">
<rect id="Rectangle 499_6" x="178" y="109" width="115" height="52" rx="4" fill="#060707"/>
<rect id="Rectangle 500_6" x="201.678" y="100" width="16.4625" height="16.4625" rx="4" transform="rotate(45 201.678 100)" fill="#060707"/>
<text id="Energia eolica" fill="white" xml:space="preserve" style="white-space: pre" font-family="Sole24Sans" font-size="18" letter-spacing="0em"><tspan x="186" y="131.03">Energia </tspan><tspan x="186" y="153.03">eolica</tspan></text>
</g>

<g class="tooltip" id="tooltip-idroelettrico">
<rect id="Rectangle 499_7" x="348" y="109" width="115" height="52" rx="4" fill="#060707"/>
<rect id="Rectangle 500_7" x="371.678" y="100" width="16.4625" height="16.4625" rx="4" transform="rotate(45 371.678 100)" fill="#060707"/>
<text id="Energia idroelettrica" fill="white" xml:space="preserve" style="white-space: pre" font-family="Sole24Sans" font-size="18" letter-spacing="0em"><tspan x="356" y="131.03">Energia&#10;</tspan><tspan x="356" y="153.03">idroelettrica</tspan></text>
</g>

<g class="tooltip" id="tooltip-nucleare">
<rect id="Rectangle 499_8" x="567" y="109" width="115" height="52" rx="4" fill="#060707"/>
<rect id="Rectangle 500_8" x="590.678" y="100" width="16.4625" height="16.4625" rx="4" transform="rotate(45 590.678 100)" fill="#060707"/>
<text id="Energia nucleare" fill="white" xml:space="preserve" style="white-space: pre" font-family="Sole24Sans" font-size="18" letter-spacing="0em"><tspan x="575" y="131.03">Energia&#10;</tspan><tspan x="575" y="153.03">nucleare</tspan></text>
</g>
</g>

<!-- <defs>
<filter id="filter0_d_2_243" x="0" y="149" width="734" height="497.421" filterUnits="userSpaceOnUse" color-interpolation-filters="sRGB">
<feFlood flood-opacity="0" result="BackgroundImageFix"/>
<feColorMatrix in="SourceAlpha" type="matrix" values="0 0 0 0 0 0 0 0 0 0 0 0 0 0 0 0 0 0 127 0" result="hardAlpha"/>
<feOffset dy="4"/>
<feGaussianBlur stdDeviation="2"/>
<feComposite in2="hardAlpha" operator="out"/>
<feColorMatrix type="matrix" values="0 0 0 0 0 0 0 0 0 0 0 0 0 0 0 0 0 0 0.25 0"/>
<feBlend mode="normal" in2="BackgroundImageFix" result="effect1_dropShadow_2_243"/>
<feBlend mode="normal" in="SourceGraphic" in2="effect1_dropShadow_2_243" result="shape"/>
</filter>
</defs> -->
</svg>
