<svg id="base" class="grafico_base" width="734" height="647" viewBox="0 0 734 647" fill="none" xmlns="http://www.w3.org/2000/svg">

<g id="GRAFICOBASE">
<g id="combustibili-sub-layer">
<g id="Rectangle 460" filter="url(#filter0_d_24_119)">
<path d="M4 149H730V634.421C730 636.63 728.209 638.421 726 638.421H7.99998C5.79084 638.421 4 636.63 4 634.421V149Z" fill="#202125"/>
<path d="M4.75 149.75H729.25V634.421C729.25 636.216 727.795 637.671 726 637.671H7.99998C6.20506 637.671 4.75 636.216 4.75 634.421V149.75Z" stroke="#1767D2" stroke-width="1.5"/>
</g>

<g id="71% Combustibili fossili">
<text fill="white" xml:space="preserve" style="white-space: pre" font-family="Sole24Sans" font-size="18" letter-spacing="0em"><tspan x="36" y="607.03">71% </tspan></text>
<text fill="white" xml:space="preserve" style="white-space: pre" font-family="Sole24Sans" font-size="18" letter-spacing="0em"><tspan x="71.3672" y="607.03">Combustibili fossili</tspan></text>
</g>
<g id="icona-combustibili-fossili" opacity="0.5">
<path id="Vector" d="M703.121 604.423C703.51 604.424 703.896 604.471 704.273 604.562V567.755H698.989V603.071C699.297 603.53 699.624 603.979 699.964 604.423L703.121 604.423Z" fill="white"/>
<path id="Vector_2" d="M650.569 604.424C651.447 603.459 652.265 602.441 653.018 601.377V555.133H647.734V604.563C648.121 604.306 650.569 604.425 650.569 604.425V604.424Z" fill="white"/>
<path id="Vector_3" d="M699.963 604.423C699.624 603.978 699.297 603.529 698.989 603.07C693.467 594.833 692.905 584.484 692.878 581.105H681.359C681.314 584.48 680.917 587.841 680.175 591.133C681.807 595.789 684.303 600.535 688.112 604.423L699.963 604.423Z" fill="white"/>
<path id="Vector_4" d="M680.481 577.47H693.688C693.948 577.47 694.157 577.729 694.157 577.939V579.497C694.157 579.756 693.947 579.966 693.688 579.966H680.481C680.221 579.966 680.012 579.706 680.012 579.497V577.939C680.012 577.68 680.222 577.47 680.481 577.47Z" fill="white"/>
<path id="Vector_5" d="M685.126 604.423C675.571 593.322 674.888 577.497 674.898 573.049H661.153C661.147 577.02 660.546 590.794 653.018 601.376C652.264 602.44 651.447 603.458 650.569 604.424L685.126 604.423Z" fill="white"/>
<path id="Vector_6" d="M690.22 553.053C682.511 553.053 682.755 561.039 685.288 562.812C683.334 563.721 683.617 566.801 685.144 567.574C684.465 567.929 683.958 568.544 683.737 569.278C683.517 570.011 683.601 570.803 683.971 571.475C684.341 572.146 684.965 572.64 685.703 572.846C684.965 573.829 685.866 575.389 687.142 575.389V575.39C687.875 575.43 688.546 574.981 688.789 574.288C689.031 573.595 688.787 572.825 688.189 572.399C688.924 571.862 689.358 571.007 689.36 570.096C693.427 570.886 695.622 566.58 693.965 564.029C698.986 560.246 696.168 553.052 690.22 553.052L690.22 553.053Z" fill="white"/>
<path id="Vector_7" d="M653.784 526.589C646.075 526.589 646.319 534.576 648.852 536.349C646.899 537.258 647.181 540.338 648.708 541.111C648.029 541.467 647.523 542.081 647.302 542.815C647.081 543.549 647.165 544.341 647.535 545.012C647.905 545.683 648.529 546.178 649.267 546.383C648.53 547.366 649.43 548.927 650.706 548.927C651.439 548.967 652.111 548.518 652.353 547.825C652.596 547.132 652.352 546.363 651.754 545.937C652.488 545.399 652.923 544.544 652.924 543.634C656.991 544.424 659.186 540.118 657.529 537.566C662.551 533.783 659.732 526.589 653.784 526.589L653.784 526.589Z" fill="white"/>
<path id="Vector_8" d="M704.4 566.634C704.757 566.645 705.103 566.511 705.359 566.262C705.615 566.014 705.76 565.672 705.76 565.315C705.76 564.958 705.615 564.616 705.359 564.368C705.103 564.119 704.757 563.985 704.4 563.996H698.856C698.499 563.985 698.154 564.119 697.898 564.368C697.641 564.616 697.497 564.958 697.497 565.315C697.497 565.672 697.641 566.014 697.898 566.262C698.154 566.511 698.499 566.645 698.856 566.634H704.4Z" fill="white"/>
<path id="Vector_9" d="M659.603 568.806H676.097H676.096C676.42 568.806 676.682 569.069 676.682 569.392V571.338C676.682 571.661 676.42 571.924 676.096 571.924H659.603C659.279 571.924 659.017 571.661 659.017 571.338V569.392C659.017 569.069 659.279 568.806 659.603 568.806H659.603Z" fill="white"/>
<path id="Vector_10" d="M653.141 554.014C653.497 554.025 653.843 553.891 654.098 553.642C654.355 553.394 654.499 553.052 654.499 552.696C654.499 552.339 654.355 551.998 654.098 551.749C653.843 551.5 653.497 551.366 653.141 551.377H647.597C647.24 551.366 646.895 551.5 646.639 551.749C646.383 551.998 646.238 552.339 646.238 552.696C646.238 553.052 646.383 553.394 646.639 553.642C646.895 553.891 647.24 554.025 647.597 554.014H653.141Z" fill="white"/>
<path id="Vector_11" d="M702.998 613.316C708.414 613.316 708.253 605.551 702.998 605.551H649.002C643.586 605.551 643.747 613.316 649.002 613.316H702.998Z" fill="white"/>
</g>
</g>

<g id="basse-emissioni-sub-layer">
<path id="Rectangle 458" d="M4.75 151.898L4.74999 4.00003C4.74999 2.20511 6.20507 0.75003 7.99999 0.75003L726 0.749998C727.795 0.749998 729.25 2.20506 729.25 4L729.25 151.898L4.75 151.898Z" fill="#1767D2" stroke="white" stroke-width="1.5"/>
<g id="icona-basse-emissioni" opacity="0.5">
<path id="Vector_12" d="M684.652 98.5713C684.081 98.0004 684.081 97.0732 684.653 96.5027C685.224 95.9318 686.152 95.9318 686.724 96.5027L691.983 101.766V99.6972V99.6818L691.982 93.7591L684.657 86.4286C684.086 85.856 684.088 84.9304 684.658 84.3583C685.231 83.7873 686.157 83.7873 686.729 84.36L691.982 89.617V87.5533V87.5445L691.979 77.4473C691.977 76.639 692.633 75.9849 693.441 75.9849C694.25 75.9849 694.905 76.639 694.905 77.4473L694.907 84.0119L700.167 78.7467C700.739 78.1741 701.667 78.1724 702.237 78.7451C702.81 79.316 702.81 80.2432 702.239 80.8153L694.908 88.154L694.91 93.1231V93.1974V96.1535L700.173 90.8905C700.744 90.3178 701.671 90.3195 702.241 90.8888C702.814 91.4614 702.814 92.387 702.243 92.9591L694.909 100.295L694.913 105.294V105.312L694.914 114.118C704.502 109.903 710.88 100.075 710.875 89.309C710.875 78.1988 704.08 68.0679 693.968 64.1016C693.625 63.9645 693.243 63.9678 692.898 64.1016C682.793 68.0741 676.004 78.2064 676.008 89.3147C676.008 100.083 682.395 109.909 691.988 114.119L691.986 105.908L684.652 98.5713Z" fill="white"/>
<path id="Vector_13" d="M655.464 118.104C654.656 118.104 654 118.76 654 119.568C654 120.375 654.656 121.031 655.464 121.031H658.948C659.198 123.299 661.102 125.074 663.435 125.074H668.13C670.632 125.074 672.666 123.039 672.666 120.536V117.968C675.27 118.088 675.98 118.747 677.666 122.353C679.523 126.325 681.797 128.782 684.424 129.654C685.119 129.887 685.823 130 686.539 130C687.772 130 689.034 129.657 690.309 128.973C693.531 127.245 695.079 122.457 694.914 114.737V114.119C694.604 114.254 694.299 114.402 693.982 114.527C693.811 114.595 693.63 114.627 693.448 114.627C693.267 114.627 693.086 114.595 692.913 114.527C692.598 114.403 692.297 114.256 691.987 114.12V114.769C691.987 114.772 691.99 114.774 691.99 114.779C691.99 114.786 691.987 114.793 691.987 114.801C692.172 123.359 690.149 125.736 688.925 126.393C687.632 127.086 686.459 127.243 685.348 126.875C683.064 126.117 681.353 123.322 680.319 121.111C678.192 116.559 676.684 115.262 672.669 115.05V112.11C672.669 109.609 670.634 107.574 668.133 107.574L663.435 107.575C661.109 107.575 659.208 109.34 658.949 111.598H655.464C654.656 111.598 654 112.254 654 113.063C654 113.869 654.656 114.525 655.464 114.525H658.898V118.105H655.464L655.464 118.104Z" fill="white"/>
</g>
<g id="28,7% Fonti a bassa emissione di carbonio">
<text fill="white" xml:space="preserve" style="white-space: pre" font-family="Sole24Sans" font-size="18" letter-spacing="0em"><tspan x="36" y="119.03">28,7% </tspan></text>
<text fill="white" xml:space="preserve" style="white-space: pre" font-family="Sole24Sans" font-size="18" letter-spacing="0em"><tspan x="87.8379" y="119.03">Fonti a bassa emissione di carbonio</tspan></text>
</g>
</g>
</g>
<defs>
<filter id="filter0_d_24_119" x="0" y="149" width="734" height="497.421" filterUnits="userSpaceOnUse" color-interpolation-filters="sRGB">
<feFlood flood-opacity="0" result="BackgroundImageFix"/>
<feColorMatrix in="SourceAlpha" type="matrix" values="0 0 0 0 0 0 0 0 0 0 0 0 0 0 0 0 0 0 127 0" result="hardAlpha"/>
<feOffset dy="4"/>
<feGaussianBlur stdDeviation="2"/>
<feComposite in2="hardAlpha" operator="out"/>
<feColorMatrix type="matrix" values="0 0 0 0 0 0 0 0 0 0 0 0 0 0 0 0 0 0 0.25 0"/>
<feBlend mode="normal" in2="BackgroundImageFix" result="effect1_dropShadow_24_119"/>
<feBlend mode="normal" in="SourceGraphic" in2="effect1_dropShadow_24_119" result="shape"/>
</filter>
</defs>
</svg>
