<svg id="diviso" class="grafico_diviso" width="753" height="668" viewBox="0 0 753 668" fill="none" xmlns="http://www.w3.org/2000/svg">

<g id="GRAFICODIVISO" filter="url(#filter0_d_2_243)">

<g>

<g id="altre">
<path id="Rectangle 492" d="M13 7C13 4.79086 14.7909 3 17 3H84V155H17C14.7909 155 13 153.209 13 151V7Z" fill="#1767D2" stroke="white" stroke-width="1.5"/>
<g id="icona-altre">
<path id="Vector" d="M49.0538 126.424C47.744 126.424 46.6723 126.125 45.8091 125.497C45.6007 125.347 45.571 125.078 45.7199 124.868C45.8687 124.658 46.1366 124.628 46.3451 124.778C47.0596 125.287 47.9228 125.526 49.0541 125.526C50.1554 125.526 51.0485 125.287 51.7331 124.778C51.9416 124.628 52.2094 124.688 52.3583 124.868C52.5072 125.078 52.4476 125.347 52.2691 125.497C51.4353 126.125 50.3637 126.424 49.0539 126.424H49.0538Z" fill="white" fill-opacity="0.5"/>
<path id="Vector_2" d="M52.3906 126.484C52.2417 126.275 51.9739 126.245 51.7654 126.394C50.9616 126.963 49.9495 127.053 49.0863 127.053C47.836 127.053 47.0322 126.843 46.3773 126.365C46.1689 126.215 45.901 126.275 45.7521 126.454C45.6032 126.664 45.6628 126.933 45.8414 127.083C46.3177 127.412 46.7941 127.622 47.3001 127.741C47.3894 128.639 48.1633 129.357 49.0863 129.357C50.0091 129.357 50.7832 128.639 50.8725 127.741C51.3785 127.622 51.8549 127.412 52.3013 127.083C52.4799 126.963 52.5395 126.664 52.3906 126.484H52.3906ZM49.0566 128.46C48.6695 128.46 48.372 128.22 48.2231 127.891C48.491 127.921 48.7887 127.921 49.0566 127.921C49.3245 127.921 49.5923 127.921 49.8901 127.891C49.7711 128.22 49.4437 128.46 49.0566 128.46Z" fill="white" fill-opacity="0.5"/>
<path id="Vector_3" d="M49.3828 121.128C50.1567 120.23 51.3176 118.764 51.9726 117.477C53.0443 115.322 52.8061 112.987 52.6275 112.059C51.8237 112.269 49.9485 112.957 48.7279 115.352C47.8944 116.998 48.1326 118.853 48.5493 120.2C48.7279 118.345 49.2935 116.1 50.7522 114.184C50.9011 113.975 51.169 113.945 51.3775 114.095C51.586 114.244 51.6157 114.514 51.4668 114.723C49.9186 116.788 49.4721 119.272 49.3828 121.128L49.3828 121.128Z" fill="white" fill-opacity="0.5"/>
<path id="Vector_4" d="M49.0551 107C44.947 107 42 110.053 42 114.273C42 116.727 43.1014 118.313 44.0541 119.69C44.7983 120.767 45.4235 121.695 45.4235 122.803C45.4235 124.179 47.5072 124.808 48.7874 124.898L48.6385 124.089C48.6385 124 48.5195 123.371 48.4896 122.383C48.43 122.264 48.311 122.054 48.1919 121.755C46.882 120.468 44.0541 117.295 44.5005 114.033C44.5302 113.853 44.6494 113.704 44.828 113.644C46.495 113.255 47.6263 113.883 48.2216 114.362C50.0375 111.43 52.8058 111.1 52.925 111.1C53.1335 111.07 53.3417 111.22 53.4013 111.43C53.431 111.579 54.2944 114.842 52.7761 117.894C51.8234 119.81 49.8886 121.965 49.4122 122.503C49.4419 123.401 49.5312 123.97 49.5611 123.97L49.71 124.838V124.868C50.9899 124.688 52.7165 124.059 52.7165 122.802C52.7165 121.665 53.3714 120.737 54.086 119.69C55.0387 118.313 56.14 116.727 56.14 114.273C56.1101 110.083 53.1631 107 49.0551 107Z" fill="white" fill-opacity="0.5"/>
<path id="Vector_5" d="M46.733 115.351C46.7926 115.381 47.0605 115.62 47.4176 116.249C47.5069 115.89 47.6261 115.56 47.7748 115.201C47.4473 114.872 46.6138 114.303 45.3337 114.483C45.2147 116.398 46.3757 118.314 47.477 119.69C47.358 119.211 47.2984 118.703 47.2685 118.164L47.2388 118.134C46.7328 116.518 46.1968 116.099 46.1968 116.099C46.0182 115.949 45.9587 115.68 46.1075 115.47C46.2865 115.261 46.5544 115.231 46.733 115.351L46.733 115.351Z" fill="white" fill-opacity="0.5"/>
</g>
<g id="2,7%">
<text fill="white" xml:space="preserve" style="white-space: pre" font-family="Sole24Sans" font-size="18" letter-spacing="0em"><tspan x="32.3066" y="89.03">2,7%&#10;</tspan></text>
<text fill="white" xml:space="preserve" style="white-space: pre" font-family="Sole24Serif Text" font-size="18" letter-spacing="0em"><tspan x="28" y="89.03"> </tspan></text>
</g>
</g>

<g id="solare">
<rect id="Rectangle 491" x="83" y="3" width="43" height="152" fill="#1767D2" stroke="white" stroke-width="1.5"/>
<g id="icona-solare">
<path id="Vector_6" d="M100.459 113.634C100.567 113.821 100.763 113.924 100.963 113.924C101.062 113.924 101.162 113.902 101.254 113.846C101.532 113.686 101.627 113.327 101.466 113.049L100.083 110.638C99.9207 110.357 99.5659 110.261 99.2875 110.424C99.0089 110.583 98.9134 110.943 99.0747 111.222L100.459 113.634Z" fill="white" fill-opacity="0.5"/>
<path id="Vector_7" d="M97.9337 119.63C97.9337 119.307 97.6727 119.044 97.3515 119.044L94.5822 119.044C94.2609 119.044 94 119.307 94 119.63C94 119.954 94.2609 120.217 94.5822 120.217H97.3515C97.6727 120.217 97.9337 119.953 97.9337 119.63V119.63Z" fill="white" fill-opacity="0.5"/>
<path id="Vector_8" d="M98.6091 115.494L96.2119 114.1C95.9322 113.939 95.5762 114.035 95.417 114.316C95.2562 114.597 95.3507 114.955 95.6297 115.114L98.0278 116.507C98.12 116.559 98.2197 116.583 98.3188 116.583C98.5182 116.583 98.7151 116.482 98.8221 116.291C98.984 116.014 98.8888 115.656 98.6091 115.494L98.6091 115.494Z" fill="white" fill-opacity="0.5"/>
<path id="Vector_9" d="M98.0279 122.758L95.6296 124.151C95.3508 124.313 95.2562 124.67 95.4169 124.95C95.524 125.14 95.7201 125.242 95.9202 125.242C96.0205 125.242 96.119 125.219 96.212 125.164L98.6094 123.772C98.8891 123.611 98.984 123.254 98.822 122.97C98.6626 122.693 98.3061 122.594 98.0279 122.758L98.0279 122.758Z" fill="white" fill-opacity="0.5"/>
<path id="Vector_10" d="M110.834 116.585C110.932 116.585 111.032 116.56 111.125 116.507L113.523 115.116C113.8 114.955 113.895 114.597 113.736 114.316C113.575 114.037 113.219 113.939 112.941 114.101L110.543 115.494C110.263 115.656 110.169 116.014 110.329 116.296C110.437 116.482 110.633 116.585 110.834 116.585L110.834 116.585Z" fill="white" fill-opacity="0.5"/>
<path id="Vector_11" d="M104.577 112.954C104.898 112.954 105.159 112.691 105.159 112.37V109.584C105.159 109.262 104.898 109 104.577 109C104.255 109 103.994 109.262 103.994 109.584V112.37C103.995 112.692 104.255 112.954 104.577 112.954V112.954Z" fill="white" fill-opacity="0.5"/>
<path id="Vector_12" d="M107.897 113.848C107.989 113.902 108.089 113.924 108.187 113.924C108.389 113.924 108.584 113.822 108.691 113.634L110.076 111.222C110.237 110.942 110.142 110.585 109.864 110.424C109.584 110.261 109.229 110.357 109.069 110.638L107.683 113.048C107.523 113.329 107.618 113.686 107.897 113.848L107.897 113.848Z" fill="white" fill-opacity="0.5"/>
<path id="Vector_13" d="M114.57 119.046H111.8C111.478 119.046 111.218 119.307 111.218 119.631C111.218 119.954 111.478 120.218 111.799 120.218H114.57C114.891 120.218 115.152 119.954 115.152 119.634C115.152 119.307 114.891 119.046 114.57 119.046H114.57Z" fill="white" fill-opacity="0.5"/>
<path id="Vector_14" d="M104.573 125.251C107.658 125.251 110.16 122.735 110.16 119.634C110.16 116.531 107.659 114.015 104.573 114.015C101.486 114.015 98.9866 116.531 98.9866 119.634C98.9867 122.735 101.487 125.251 104.573 125.251V125.251Z" fill="white" fill-opacity="0.5"/>
<path id="Vector_15" d="M113.523 124.151L111.125 122.758C110.846 122.595 110.49 122.693 110.329 122.97C110.169 123.254 110.263 123.611 110.543 123.772L112.941 125.163C113.032 125.219 113.132 125.244 113.231 125.244C113.431 125.244 113.627 125.139 113.736 124.951C113.895 124.67 113.8 124.313 113.523 124.151H113.523Z" fill="white" fill-opacity="0.5"/>
<path id="Vector_16" d="M101.253 125.419C100.974 125.258 100.618 125.353 100.459 125.633L99.0749 128.045C98.9137 128.324 99.0082 128.684 99.2859 128.844C99.3776 128.899 99.4794 128.924 99.5771 128.924C99.7799 128.924 99.974 128.818 100.083 128.629L101.466 126.217C101.628 125.938 101.532 125.582 101.253 125.419L101.253 125.419Z" fill="white" fill-opacity="0.5"/>
<path id="Vector_17" d="M108.691 125.633C108.531 125.353 108.176 125.258 107.897 125.419C107.618 125.582 107.523 125.938 107.683 126.217L109.069 128.63C109.177 128.818 109.372 128.924 109.572 128.924C109.673 128.924 109.773 128.899 109.864 128.844C110.142 128.684 110.237 128.324 110.076 128.045L108.691 125.633Z" fill="white" fill-opacity="0.5"/>
<path id="Vector_18" d="M104.577 126.313C104.255 126.313 103.994 126.575 103.994 126.9V129.686C103.994 130.006 104.255 130.269 104.577 130.269C104.898 130.269 105.158 130.006 105.158 129.686V126.9C105.158 126.575 104.898 126.313 104.577 126.313Z" fill="white" fill-opacity="0.5"/>
</g>
<g id="2%">
<text fill="white" xml:space="preserve" style="white-space: pre" font-family="Sole24Sans" font-size="18" letter-spacing="0em"><tspan x="93.3066" y="88.03">2%&#10;</tspan></text>
<text fill="white" xml:space="preserve" style="white-space: pre" font-family="Sole24Serif Text" font-size="18" letter-spacing="0em"><tspan x="89" y="88.03"> </tspan></text>
</g>
</g>

<g id="eolica">
<rect id="Rectangle 493" x="126" y="3" width="153" height="152" fill="#1767D2" stroke="white" stroke-width="1.5"/>
<g id="icona-altre_2">
<path id="Vector_19" d="M257.609 98.1654C257.563 98.0609 257.55 97.9425 257.573 97.827L259.35 89.4985C259.404 89.2492 259.627 89.0685 259.88 89.0685H260.435C260.688 89.0685 260.91 89.2492 260.963 89.4995L262.742 97.8281C262.766 97.9414 262.754 98.062 262.707 98.1665L261.568 100.706C261.123 100.551 260.654 100.449 260.157 100.449C259.66 100.449 259.192 100.553 258.747 100.706L257.609 98.1654Z" fill="white" fill-opacity="0.5"/>
<path id="Vector_20" d="M255.714 110.343C255.647 110.437 255.551 110.505 255.441 110.543L247.378 113.159C247.136 113.232 246.869 113.135 246.743 112.913L246.466 112.43C246.34 112.209 246.384 111.926 246.572 111.754L252.859 106.042C252.944 105.966 253.054 105.917 253.166 105.904L255.91 105.627C256.096 106.602 256.615 107.453 257.335 108.08L255.714 110.343Z" fill="white" fill-opacity="0.5"/>
<path id="Vector_21" d="M261.428 134.768H258.891L259.854 109.129C259.957 109.135 260.055 109.158 260.16 109.158C260.265 109.158 260.363 109.135 260.466 109.129L261.428 134.768Z" fill="white" fill-opacity="0.5"/>
<path id="Vector_22" d="M273.852 112.43L273.575 112.913C273.448 113.131 273.18 113.231 272.941 113.159L264.877 110.543C264.766 110.507 264.671 110.434 264.604 110.342L262.982 108.079C263.703 107.452 264.223 106.602 264.408 105.626L267.15 105.903C267.266 105.916 267.374 105.965 267.458 106.043L273.745 111.754C273.935 111.926 273.98 112.208 273.852 112.429L273.852 112.43Z" fill="white" fill-opacity="0.5"/>
<path id="Vector_23" d="M260.158 101.534C258.366 101.534 256.908 103.002 256.908 104.804C256.908 106.605 258.366 108.07 260.158 108.07C261.95 108.07 263.408 106.605 263.408 104.804C263.408 103.002 261.948 101.534 260.158 101.534ZM260.158 106.243C259.369 106.243 258.727 105.596 258.727 104.805C258.727 104.012 259.369 103.367 260.158 103.367C260.947 103.367 261.586 104.013 261.586 104.805C261.586 105.596 260.947 106.243 260.158 106.243Z" fill="white" fill-opacity="0.5"/>
<path id="Vector_24" d="M260.508 104.804C260.508 105.272 259.809 105.272 259.809 104.804C259.809 104.336 260.508 104.336 260.508 104.804Z" fill="white" fill-opacity="0.5"/>
</g>

<g id="5,9% Energia eolica">
<text fill="white" xml:space="preserve" style="white-space: pre" font-family="Sole24Sans" font-size="18" letter-spacing="0em"><tspan x="162.074" y="89.03">%&#10;</tspan></text>
<text fill="white" xml:space="preserve" style="white-space: pre" font-family="Sole24Sans" font-size="18" letter-spacing="0em"><tspan x="133" y="89.03"> 5,9</tspan></text>
<text fill="white" xml:space="preserve" style="white-space: pre" font-family="Sole24Sans" font-size="18" letter-spacing="0em"><tspan x="133" y="111.03">Energia </tspan><tspan x="133" y="133.03">eolica&#10;</tspan></text>
</g>
</g>

<g id="idroelettrica">
<rect id="Rectangle 494" x="279" y="3" width="197" height="152" fill="#1767D2" stroke="white" stroke-width="1.5"/>
<path id="icona-idroelettrica" d="M465.015 120.464L458.544 106.352C458.352 105.927 457.953 105.663 457.499 105.663C457.056 105.663 456.651 105.933 456.46 106.352L449.994 120.464C449.266 122.06 448.637 123.438 448.637 125.62C448.637 130.718 452.614 134.864 457.499 134.864C462.389 134.864 466.366 130.718 466.366 125.62C466.372 123.433 465.71 121.991 465.015 120.464ZM463.029 121.595L457.674 131.327C457.674 131.327 457.674 131.333 457.669 131.333C457.526 131.58 457.297 131.723 457.05 131.723C456.936 131.723 456.821 131.689 456.722 131.626C456.421 131.448 456.257 131.046 456.323 130.644L457.225 124.937H452.598C452.308 124.937 452.045 124.736 451.925 124.42C451.815 124.133 451.837 123.794 451.979 123.53L457.329 113.804C457.466 113.552 457.701 113.408 457.948 113.408C458.062 113.408 458.172 113.442 458.276 113.5C458.577 113.672 458.741 114.074 458.681 114.476L457.778 120.183H462.406C462.69 120.183 462.958 120.384 463.079 120.7C463.188 120.992 463.166 121.331 463.029 121.595Z" fill="white" fill-opacity="0.5"/>
<g id="7,6% Energia idroelettrica">
<text fill="white" xml:space="preserve" style="white-space: pre" font-family="Sole24Sans" font-size="18" letter-spacing="0em"><tspan x="314.827" y="89.5043">%&#10;</tspan></text>
<text fill="white" xml:space="preserve" style="white-space: pre" font-family="Sole24Sans" font-size="18" letter-spacing="0em"><tspan x="286.843" y="89.5043"> 7,6</tspan></text>
<text fill="white" xml:space="preserve" style="white-space: pre" font-family="Sole24Sans" font-size="18" letter-spacing="0em"><tspan x="286.843" y="111.504">Energia&#10;</tspan><tspan x="286.843" y="133.504">idroelettrica&#10;</tspan></text>
</g>
</g>

<g id="nucleare">
<path id="Rectangle 498" d="M476 3H732C734.209 3 736 4.79086 736 7V151C736 153.209 734.209 155 732 155H476V3Z" fill="#1767D2" stroke="white" stroke-width="1.5"/>
<g id="icona-nucleare">
<path id="Vector_25" d="M707.265 102.917L706.107 103.358L709.222 111.446L710.378 111C711.931 110.404 713.472 110.402 715.029 111.002L716.185 111.446L719.299 103.358L718.142 102.917C714.615 101.565 710.79 101.565 707.265 102.917L707.265 102.917Z" fill="white" fill-opacity="0.5"/>
<path id="Vector_26" d="M706.311 118.05L706.119 116.829L697.551 118.178L697.742 119.397C698.325 123.108 700.253 126.452 703.174 128.813L704.135 129.59L709.601 122.84L708.642 122.062C707.385 121.046 706.559 119.622 706.311 118.05L706.311 118.05Z" fill="white" fill-opacity="0.5"/>
<path id="Vector_27" d="M712.702 112.715C710.314 112.715 708.371 114.656 708.371 117.041C708.371 119.427 710.314 121.367 712.702 121.367C715.091 121.367 717.034 119.427 717.034 117.041C717.034 114.655 715.091 112.715 712.702 112.715Z" fill="white" fill-opacity="0.5"/>
<path id="Vector_28" d="M719.095 118.048C718.849 119.621 718.021 121.046 716.767 122.06L715.807 122.838L721.272 129.59L722.235 128.813C725.153 126.452 727.083 123.108 727.665 119.397L727.856 118.176L719.287 116.826L719.095 118.048Z" fill="white" fill-opacity="0.5"/>
</g>

<g id="9,7% Energia nucleare">
<text fill="white" xml:space="preserve" style="white-space: pre" font-family="Sole24Sans" font-size="18" letter-spacing="0em"><tspan x="514.064" y="89.0538">%&#10;</tspan></text>
<text fill="white" xml:space="preserve" style="white-space: pre" font-family="Sole24Sans" font-size="18" letter-spacing="0em"><tspan x="485.974" y="89.0538"> 9,7</tspan></text>
<text fill="white" xml:space="preserve" style="white-space: pre" font-family="Sole24Sans" font-size="18" letter-spacing="0em"><tspan x="485.974" y="111.054">Energia </tspan><tspan x="485.974" y="133.054">nucleare&#10;</tspan></text>
</g>
</g>

</g>

<g>

<g id="petrolio">
<path id="Rectangle 496" d="M269 156H612V641H269V156Z" fill="#202125" stroke="#1767D2" stroke-width="1.5"/>
<g id="icona-petrolio" opacity="0.5">
<path id="Vector_29" d="M579.896 583C583.636 583 587.028 583.264 589.488 583.691C592.147 584.152 593.791 584.881 593.791 585.768C593.791 586.654 592.147 587.383 589.488 587.845C587.028 588.271 583.636 588.535 579.896 588.535C576.156 588.535 572.764 588.271 570.304 587.845C567.646 587.384 566.002 586.654 566.002 585.768C566.002 584.881 567.646 584.152 570.304 583.691C572.765 583.264 576.156 583 579.896 583V583Z" fill="white"/>
<path id="Vector_30" fill-rule="evenodd" clip-rule="evenodd" d="M576.757 604.388C577.771 604.418 578.821 604.434 579.897 604.434C580.971 604.434 582.02 604.418 583.033 604.388C583.806 604.358 584.555 604.316 585.273 604.265C586.989 604.141 588.535 603.96 589.829 603.735C591.203 603.497 592.302 603.192 593.041 602.835C593.385 602.669 593.639 602.503 593.791 602.339V587.277C592.643 588.147 590.642 588.521 589.636 588.696C588.185 588.947 586.704 589.103 585.236 589.211C583.461 589.342 581.677 589.399 579.897 589.399C578.117 589.399 576.333 589.342 574.557 589.211C573.089 589.103 571.608 588.947 570.157 588.696C569.151 588.521 567.15 588.147 566.002 587.277V602.339C566.154 602.502 566.408 602.669 566.752 602.835C567.491 603.192 568.59 603.497 569.964 603.735C571.259 603.96 572.804 604.141 574.521 604.265C575.237 604.316 575.985 604.358 576.758 604.388H576.757ZM576.551 599.621C576.261 598.851 576.213 597.885 576.541 596.727C576.93 595.354 577.855 593.691 579.549 591.746C579.708 591.529 580.048 591.504 580.222 591.718C581.927 593.67 582.858 595.338 583.249 596.716C583.579 597.876 583.532 598.844 583.242 599.616C582.943 600.41 582.39 600.988 581.721 601.352C580.612 601.955 579.18 601.958 578.069 601.355C577.402 600.993 576.85 600.416 576.551 599.622L576.551 599.621Z" fill="white"/>
<path id="Vector_31" fill-rule="evenodd" clip-rule="evenodd" d="M577.357 599.317C577.577 599.901 577.986 600.327 578.481 600.595C579.338 601.061 580.453 601.061 581.31 600.595C581.805 600.326 582.215 599.898 582.435 599.311C582.664 598.703 582.695 597.917 582.42 596.948C582.085 595.77 581.305 594.343 579.898 592.662C578.486 594.348 577.705 595.779 577.371 596.96C577.097 597.926 577.128 598.71 577.357 599.317H577.357Z" fill="white"/>
<path id="Vector_32" fill-rule="evenodd" clip-rule="evenodd" d="M582.42 613.59C582.085 612.412 581.305 610.985 579.898 609.304C578.486 610.99 577.705 612.421 577.371 613.602C577.097 614.568 577.128 615.352 577.357 615.96C577.577 616.543 577.986 616.969 578.481 617.238C579.338 617.703 580.453 617.703 581.31 617.238C581.805 616.968 582.215 616.54 582.435 615.954C582.664 615.345 582.695 614.559 582.42 613.59H582.42Z" fill="white"/>
<path id="Vector_33" fill-rule="evenodd" clip-rule="evenodd" d="M580.222 608.359C581.927 610.311 582.857 611.98 583.249 613.358C583.579 614.517 583.532 615.486 583.241 616.257C582.942 617.051 582.39 617.63 581.721 617.994C580.612 618.597 579.18 618.599 578.069 617.997C577.402 617.635 576.85 617.057 576.55 616.263C576.26 615.493 576.213 614.527 576.54 613.37C576.929 611.996 577.855 610.333 579.549 608.388C579.704 608.176 580.051 608.144 580.221 608.36L580.222 608.359ZM566.001 603.409V618.985C566.001 620.932 573.105 621.44 574.361 621.526C577.971 621.775 581.821 621.775 585.432 621.526C586.688 621.44 593.79 620.932 593.79 618.985V603.409C593.674 603.479 593.549 603.546 593.414 603.61C592.601 604.003 591.424 604.333 589.972 604.585C588.652 604.814 587.078 604.999 585.332 605.124C583.65 605.245 581.813 605.313 579.895 605.313C577.977 605.313 576.14 605.246 574.458 605.124C572.712 604.999 571.138 604.814 569.817 604.585C568.366 604.333 567.189 604.003 566.375 603.61C566.241 603.546 566.116 603.479 566 603.409H566.001Z" fill="white"/>
</g>

<g id="34% Petrolio">
<text fill="white" xml:space="preserve" style="white-space: pre" font-family="Sole24Sans" font-size="18" letter-spacing="0em"><tspan x="288" y="619.7">Petrolio</tspan></text>
<text fill="white" xml:space="preserve" style="white-space: pre" font-family="Sole24Sans" font-size="20" letter-spacing="0em"><tspan x="310.676" y="597.7">% &#10;</tspan></text>
<text fill="white" xml:space="preserve" style="white-space: pre" font-family="Sole24Sans" font-size="20" letter-spacing="0em"><tspan x="288" y="597.7">34</tspan></text>
</g>
</g>

<g id="gas">
<path id="Rectangle 495" d="M13 160C13 157.791 14.7909 156 17 156H269V641H17C14.7909 641 13 639.209 13 637V160Z" fill="#202125" stroke="#1767D2" stroke-width="1.5"/>
<g id="icona-gas" opacity="0.5">
<path id="Vector_34" fill-rule="evenodd" clip-rule="evenodd" d="M237.812 587.92H241.409V586.324H240.606C240.317 586.324 240.081 586.087 240.081 585.798V585.179C240.081 584.89 240.317 584.653 240.606 584.653H243.881C244.17 584.653 244.407 584.89 244.407 585.179V585.798C244.407 586.087 244.17 586.324 243.881 586.324H243.079V587.92H246.916V584.61C246.916 584.128 246.521 583.734 246.04 583.734H238.688C238.206 583.734 237.812 584.128 237.812 584.61V587.92H237.812ZM228.777 604.607H230.362V602.036H254.126V604.607H255.712C256.139 604.607 256.489 604.957 256.489 605.384V606.299C256.489 606.726 256.139 607.076 255.712 607.076H228.777C228.35 607.076 228 606.726 228 606.299V605.384C228 604.957 228.35 604.607 228.777 604.607H228.777ZM228.777 600.804H255.711C256.139 600.804 256.488 600.454 256.488 600.027V599.113C256.488 598.686 256.139 598.336 255.711 598.336H254.126V594.567C254.126 591.947 252.589 589.668 250.372 588.587V582.876C250.372 582.394 249.979 582 249.496 582H235.231C234.75 582 234.355 582.394 234.355 582.876V588.477C232.011 589.506 230.362 591.853 230.362 594.567V598.336H228.777C228.349 598.336 228 598.686 228 599.113V600.027C228 600.455 228.349 600.804 228.777 600.804L228.777 600.804ZM254.127 608.307V613.309C254.127 616.964 251.135 619.955 247.48 619.955H237.009C233.353 619.955 230.363 616.964 230.363 613.309V608.307H254.127H254.127Z" fill="white"/>
</g>

<g id="26% Gas">
<text fill="white" xml:space="preserve" style="white-space: pre" font-family="Sole24Sans" font-size="18" letter-spacing="0em"><tspan x="32" y="619.7">Gas</tspan></text>
<text fill="white" xml:space="preserve" style="white-space: pre" font-family="Sole24Sans" font-size="20" letter-spacing="0em"><tspan x="55.0273" y="597.7">% &#10;</tspan></text>
<text fill="white" xml:space="preserve" style="white-space: pre" font-family="Sole24Sans" font-size="20" letter-spacing="0em"><tspan x="32" y="597.7">26</tspan></text>
</g>
</g>

<g id="carbone">
<path id="Rectangle 497" d="M612 156H732C734.209 156 736 157.791 736 160V637C736 639.209 734.209 641 732 641H612V156Z" fill="#202125" stroke="#1767D2" stroke-width="1.5"/>
<g id="icona-carbone" opacity="0.5">
<path id="Vector_35" d="M723.401 594.231H698.285C698.827 593.076 699.877 592.241 701.125 591.973C701.467 591.083 702.069 590.318 702.854 589.776C703.639 589.235 704.569 588.943 705.522 588.94C705.634 588.94 705.752 588.945 705.863 588.951C706.216 588.083 706.819 587.338 707.596 586.813C708.373 586.287 709.288 586.005 710.226 586C711.475 585.998 712.672 586.496 713.553 587.382C713.999 587.246 714.463 587.177 714.929 587.176C716.08 587.177 717.191 587.6 718.051 588.365C718.911 589.13 719.461 590.183 719.597 591.326C720.433 591.427 721.226 591.75 721.894 592.26C722.563 592.771 723.083 593.452 723.401 594.231L723.401 594.231ZM698.497 614.173C698.479 613.997 698.467 613.815 698.467 613.632C698.467 611.742 699.476 609.995 701.113 609.05C702.75 608.105 704.767 608.105 706.404 609.05C708.041 609.995 709.05 611.742 709.05 613.632C709.05 613.829 709.038 614.025 709.015 614.22H712.613H712.612C712.589 614.025 712.577 613.829 712.577 613.632C712.577 611.742 713.586 609.995 715.223 609.05C716.86 608.105 718.877 608.105 720.514 609.05C722.151 609.995 723.16 611.742 723.16 613.632C723.16 613.814 723.148 613.997 723.13 614.173C723.959 614.041 724.712 613.618 725.256 612.98C725.801 612.342 726.1 611.531 726.1 610.693V595.995C726.098 595.67 725.836 595.408 725.512 595.407H696.116C695.791 595.408 695.529 595.67 695.528 595.995V610.693C695.528 611.531 695.827 612.342 696.371 612.98C696.915 613.618 697.669 614.041 698.497 614.173H698.497ZM703.758 614.808C704.07 614.808 704.369 614.684 704.59 614.464C704.81 614.243 704.934 613.944 704.934 613.632C704.934 613.32 704.81 613.021 704.59 612.801C704.369 612.58 704.07 612.456 703.758 612.456C703.447 612.456 703.147 612.58 702.927 612.801C702.706 613.021 702.583 613.32 702.583 613.632C702.583 613.944 702.707 614.243 702.927 614.463C703.148 614.684 703.447 614.808 703.758 614.808L703.758 614.808ZM717.869 614.808C718.18 614.808 718.48 614.684 718.7 614.464C718.921 614.243 719.044 613.944 719.044 613.632C719.044 613.32 718.921 613.021 718.7 612.801C718.48 612.58 718.18 612.456 717.869 612.456C717.557 612.456 717.258 612.58 717.037 612.801C716.817 613.021 716.693 613.32 716.693 613.632C716.693 613.944 716.817 614.243 717.038 614.463C717.258 614.684 717.557 614.808 717.869 614.808L717.869 614.808ZM729.627 617.16V619.512C729.627 619.667 729.565 619.817 729.455 619.927C729.345 620.037 729.195 620.099 729.039 620.099H692.588C692.263 620.099 692 619.836 692 619.512V617.16C692 616.835 692.263 616.572 692.588 616.572H700.884C700.099 615.806 699.652 614.757 699.643 613.66C699.634 612.563 700.064 611.507 700.837 610.728C701.609 609.949 702.661 609.511 703.758 609.511C704.856 609.511 705.908 609.949 706.68 610.728C707.453 611.507 707.883 612.563 707.874 613.66C707.865 614.757 707.418 615.806 706.633 616.572H714.994C714.209 615.806 713.762 614.757 713.754 613.66C713.745 612.563 714.174 611.507 714.947 610.728C715.72 609.949 716.771 609.511 717.869 609.511C718.966 609.511 720.018 609.949 720.79 610.728C721.563 611.507 721.993 612.563 721.984 613.66C721.975 614.757 721.529 615.806 720.743 616.572H729.039C729.195 616.572 729.345 616.634 729.455 616.744C729.565 616.854 729.627 617.004 729.627 617.16H729.627ZM715.517 613.632C715.517 614.256 715.765 614.854 716.206 615.295C716.647 615.736 717.245 615.984 717.869 615.984C718.492 615.984 719.09 615.736 719.532 615.295C719.972 614.854 720.22 614.256 720.22 613.632C720.22 613.009 719.972 612.41 719.532 611.969C719.09 611.528 718.492 611.281 717.869 611.281C717.245 611.281 716.647 611.529 716.206 611.97C715.765 612.411 715.517 613.009 715.517 613.632ZM701.407 613.632C701.407 614.256 701.655 614.854 702.095 615.295C702.537 615.736 703.135 615.984 703.758 615.984C704.382 615.984 704.98 615.736 705.421 615.295C705.862 614.854 706.11 614.256 706.11 613.632C706.11 613.009 705.862 612.41 705.421 611.969C704.98 611.528 704.382 611.281 703.758 611.281C703.135 611.281 702.537 611.529 702.096 611.97C701.655 612.411 701.407 613.009 701.407 613.632Z" fill="white"/>
</g>

<g id="12% carbone">
<text fill="white" xml:space="preserve" style="white-space: pre" font-family="Sole24Sans" font-size="18" letter-spacing="0em"><tspan x="620" y="621.7">carbone</tspan></text>
<text fill="white" xml:space="preserve" style="white-space: pre" font-family="Sole24Sans" font-size="20" letter-spacing="0em"><tspan x="620" y="599.7">12% &#10;</tspan></text>
</g>
</g>

</g>

<g id="tooltip-altro" filter="url(#filter1_d_2_243)">
<rect id="Rectangle 499" x="26" y="141" width="115" height="62" rx="4" fill="#1767D2"/>
<rect id="Rectangle 500" x="49.6776" y="132" width="16.4625" height="16.4625" rx="4" transform="rotate(45 49.6776 132)" fill="#1767D2"/>
<text id="Altre energie rinnovabili" fill="white" xml:space="preserve" style="white-space: pre" font-family="Sole24Sans" font-size="18" letter-spacing="0em"><tspan x="34" y="172.03">Altre energie&#10;</tspan><tspan x="34" y="194.03">rinnovabili</tspan></text>
</g>

<g id="tooltip-solare" filter="url(#filter2_d_2_243)">
<g id="tooltip-altro_2" filter="url(#filter3_d_2_243)">
<rect id="Rectangle 499_2" x="81" y="141" width="84" height="62" rx="4" fill="#1767D2"/>
<rect id="Rectangle 500_2" x="104.678" y="132" width="16.4625" height="16.4625" rx="4" transform="rotate(45 104.678 132)" fill="#1767D2"/>
</g>
<text id="Energia solare" fill="white" xml:space="preserve" style="white-space: pre" font-family="Sole24Sans" font-size="18" letter-spacing="0em"><tspan x="88" y="167.03">Energia </tspan><tspan x="88" y="189.03">solare</tspan></text>
</g>
</g>
<defs>
<filter id="filter0_d_2_243" x="0.25" y="0.25" width="752.5" height="667.5" filterUnits="userSpaceOnUse" color-interpolation-filters="sRGB">
<feFlood flood-opacity="0" result="BackgroundImageFix"/>
<feColorMatrix in="SourceAlpha" type="matrix" values="0 0 0 0 0 0 0 0 0 0 0 0 0 0 0 0 0 0 127 0" result="hardAlpha"/>
<feOffset dx="2" dy="12"/>
<feGaussianBlur stdDeviation="7"/>
<feComposite in2="hardAlpha" operator="out"/>
<feColorMatrix type="matrix" values="0 0 0 0 0 0 0 0 0 0 0 0 0 0 0 0 0 0 0.25 0"/>
<feBlend mode="normal" in2="BackgroundImageFix" result="effect1_dropShadow_2_243"/>
<feBlend mode="normal" in="SourceGraphic" in2="effect1_dropShadow_2_243" result="shape"/>
</filter>
<filter id="filter1_d_2_243" x="16" y="128.657" width="135" height="89.3431" filterUnits="userSpaceOnUse" color-interpolation-filters="sRGB">
<feFlood flood-opacity="0" result="BackgroundImageFix"/>
<feColorMatrix in="SourceAlpha" type="matrix" values="0 0 0 0 0 0 0 0 0 0 0 0 0 0 0 0 0 0 127 0" result="hardAlpha"/>
<feOffset dy="5"/>
<feGaussianBlur stdDeviation="5"/>
<feComposite in2="hardAlpha" operator="out"/>
<feColorMatrix type="matrix" values="0 0 0 0 0 0 0 0 0 0 0 0 0 0 0 0 0 0 1 0"/>
<feBlend mode="normal" in2="BackgroundImageFix" result="effect1_dropShadow_2_243"/>
<feBlend mode="normal" in="SourceGraphic" in2="effect1_dropShadow_2_243" result="shape"/>
</filter>
<filter id="filter2_d_2_243" x="77" y="133.657" width="92" height="77.3431" filterUnits="userSpaceOnUse" color-interpolation-filters="sRGB">
<feFlood flood-opacity="0" result="BackgroundImageFix"/>
<feColorMatrix in="SourceAlpha" type="matrix" values="0 0 0 0 0 0 0 0 0 0 0 0 0 0 0 0 0 0 127 0" result="hardAlpha"/>
<feOffset dy="4"/>
<feGaussianBlur stdDeviation="2"/>
<feComposite in2="hardAlpha" operator="out"/>
<feColorMatrix type="matrix" values="0 0 0 0 0 0 0 0 0 0 0 0 0 0 0 0 0 0 0.5 0"/>
<feBlend mode="normal" in2="BackgroundImageFix" result="effect1_dropShadow_2_243"/>
<feBlend mode="normal" in="SourceGraphic" in2="effect1_dropShadow_2_243" result="shape"/>
</filter>
<filter id="filter3_d_2_243" x="71" y="128.657" width="104" height="89.3431" filterUnits="userSpaceOnUse" color-interpolation-filters="sRGB">
<feFlood flood-opacity="0" result="BackgroundImageFix"/>
<feColorMatrix in="SourceAlpha" type="matrix" values="0 0 0 0 0 0 0 0 0 0 0 0 0 0 0 0 0 0 127 0" result="hardAlpha"/>
<feOffset dy="5"/>
<feGaussianBlur stdDeviation="5"/>
<feComposite in2="hardAlpha" operator="out"/>
<feColorMatrix type="matrix" values="0 0 0 0 0 0 0 0 0 0 0 0 0 0 0 0 0 0 1 0"/>
<feBlend mode="normal" in2="BackgroundImageFix" result="effect1_dropShadow_2_243"/>
<feBlend mode="normal" in="SourceGraphic" in2="effect1_dropShadow_2_243" result="shape"/>
</filter>
</defs>
</svg>
