<svg width="604" height="214" viewBox="0 0 604 214" fill="none" xmlns="http://www.w3.org/2000/svg">
<g filter="url(#filter0_d_1084_1098)">
<path d="M63 63C63 60.7909 64.7909 59 67 59H537C539.209 59 541 60.7909 541 63V143C541 145.209 539.209 147 537 147H67C64.7909 147 63 145.209 63 143V63Z" fill="#1767D2" fill-opacity="0.7" shape-rendering="crispEdges"/>
</g>
<path d="M93.24 88.776H95.472C97.002 88.776 98.01 89.64 98.01 90.936C98.01 92.322 96.984 93.24 95.454 93.24H93.24V88.776ZM93.24 99V94.662H95.454C95.76 94.662 96.048 94.644 96.318 94.608L98.64 99H100.458L97.848 94.122C99.018 93.492 99.72 92.358 99.72 90.936C99.72 88.794 98.064 87.354 95.58 87.354H91.584V99H93.24ZM103.902 90.072H102.372V99H103.902V90.072ZM103.902 86.526H102.372V88.308H103.902V86.526ZM113.879 99V90.072H112.349V96.228C111.899 97.218 111.035 97.938 109.973 97.938C108.875 97.938 108.083 97.074 108.083 95.868V90.072H106.553V95.976C106.553 97.866 107.813 99.234 109.541 99.234C110.855 99.234 111.881 98.478 112.403 97.524V99H113.879ZM123.468 96.552C123.468 94.896 122.064 94.212 120.048 93.78C118.536 93.438 117.672 93.168 117.672 92.376C117.672 91.62 118.518 91.098 119.706 91.098C120.948 91.098 121.776 91.62 122.19 92.484L123.414 91.998C122.892 90.9 121.794 89.838 119.724 89.838C117.618 89.838 116.178 90.954 116.178 92.466C116.178 94.014 117.636 94.734 119.616 95.148C121.146 95.472 121.992 95.778 121.992 96.624C121.992 97.434 121.236 97.992 119.922 97.992C118.428 97.992 117.474 97.326 117.024 96.444L115.764 96.93C116.376 98.334 117.816 99.234 119.85 99.234C122.118 99.234 123.468 98.136 123.468 96.552ZM132.488 96.804L131.192 96.3C130.76 97.29 130.04 97.92 129.05 97.92C127.592 97.92 126.53 96.534 126.53 94.608C126.53 92.592 127.556 91.134 128.978 91.134C129.878 91.134 130.652 91.692 131.084 92.736L132.416 92.196C131.786 90.756 130.58 89.838 128.942 89.838C126.602 89.838 124.91 91.836 124.91 94.608C124.91 97.29 126.62 99.234 128.996 99.234C130.634 99.234 131.912 98.208 132.488 96.804ZM135.877 90.072H134.347V99H135.877V90.072ZM135.877 86.526H134.347V88.308H135.877V86.526ZM140.184 99V93.672C140.328 92.484 141.048 91.368 142.434 91.368C142.74 91.368 143.172 91.422 143.424 91.494V89.982C143.244 89.91 142.812 89.838 142.506 89.838C141.462 89.838 140.49 90.756 140.13 91.89V90.072H138.654V99H140.184ZM152.362 99.144L152.434 97.974C152.326 97.992 152.146 98.01 152.038 98.01C151.498 98.01 151.228 97.632 151.228 97.146V93.042C151.228 90.972 149.968 89.838 148.024 89.838C146.476 89.838 145.126 90.702 144.478 92.106L145.666 92.592C146.116 91.746 146.818 91.116 147.88 91.116C148.978 91.116 149.698 91.872 149.698 92.988V93.69L147.61 93.942C145.63 94.194 144.226 95.148 144.226 96.804C144.226 98.226 145.36 99.234 146.944 99.234C148.204 99.234 149.194 98.622 149.77 97.668C149.986 98.694 150.652 99.234 151.66 99.234C151.93 99.234 152.146 99.198 152.362 99.144ZM147.358 97.992C146.458 97.992 145.828 97.452 145.828 96.696C145.828 95.778 146.692 95.238 147.88 95.094L149.698 94.878V96.516C149.23 97.38 148.348 97.992 147.358 97.992ZM149.212 88.146L146.512 85.662L145.468 86.904L148.438 89.082L149.212 88.146ZM159.748 86.328H158.218V99H159.748V86.328ZM163.929 89.046V87.156H162.237V89.316H163.029C163.011 90.198 162.741 90.846 162.075 91.548L162.759 92.034C163.533 91.26 163.929 90.216 163.929 89.046ZM174.316 99V97.578H168.053V93.888H173.093V92.484H168.053V88.776H174.191V87.354H166.397V99H174.316ZM183.471 99V90.072H181.941V96.228C181.491 97.218 180.627 97.938 179.565 97.938C178.467 97.938 177.675 97.074 177.675 95.868V90.072H176.145V95.976C176.145 97.866 177.405 99.234 179.133 99.234C180.447 99.234 181.473 98.478 181.995 97.524V99H183.471ZM187.768 99V93.672C187.912 92.484 188.632 91.368 190.018 91.368C190.324 91.368 190.756 91.422 191.008 91.494V89.982C190.828 89.91 190.396 89.838 190.09 89.838C189.046 89.838 188.074 90.756 187.714 91.89V90.072H186.238V99H187.768ZM200.505 94.554C200.505 91.818 198.687 89.838 196.185 89.838C193.683 89.838 191.847 91.818 191.847 94.554C191.847 97.254 193.683 99.234 196.185 99.234C198.687 99.234 200.505 97.254 200.505 94.554ZM193.467 94.554C193.467 92.574 194.601 91.116 196.185 91.116C197.751 91.116 198.885 92.574 198.885 94.554C198.885 96.498 197.751 97.938 196.185 97.938C194.601 97.938 193.467 96.498 193.467 94.554ZM206.455 97.956C205.609 97.956 204.673 97.506 204.133 96.858V92.52C204.601 91.8 205.483 91.098 206.527 91.098C208.021 91.098 209.137 92.448 209.137 94.5C209.137 96.534 208.021 97.956 206.455 97.956ZM210.757 94.5C210.757 91.764 209.029 89.838 206.923 89.838C205.555 89.838 204.547 90.666 204.079 91.404V90.072H202.603V102.276H204.133V98.064C204.709 98.766 205.699 99.234 206.761 99.234C209.011 99.234 210.757 97.236 210.757 94.5ZM220.266 99.144L220.338 97.974C220.23 97.992 220.05 98.01 219.942 98.01C219.402 98.01 219.132 97.632 219.132 97.146V93.042C219.132 90.972 217.872 89.838 215.928 89.838C214.38 89.838 213.03 90.702 212.382 92.106L213.57 92.592C214.02 91.746 214.722 91.116 215.784 91.116C216.882 91.116 217.602 91.872 217.602 92.988V93.69L215.514 93.942C213.534 94.194 212.13 95.148 212.13 96.804C212.13 98.226 213.264 99.234 214.848 99.234C216.108 99.234 217.098 98.622 217.674 97.668C217.89 98.694 218.556 99.234 219.564 99.234C219.834 99.234 220.05 99.198 220.266 99.144ZM215.262 97.992C214.362 97.992 213.732 97.452 213.732 96.696C213.732 95.778 214.596 95.238 215.784 95.094L217.602 94.878V96.516C217.134 97.38 216.252 97.992 215.262 97.992ZM233.52 99.144L233.592 97.974C233.484 97.992 233.304 98.01 233.196 98.01C232.656 98.01 232.386 97.632 232.386 97.146V93.042C232.386 90.972 231.126 89.838 229.182 89.838C227.634 89.838 226.284 90.702 225.636 92.106L226.824 92.592C227.274 91.746 227.976 91.116 229.038 91.116C230.136 91.116 230.856 91.872 230.856 92.988V93.69L228.768 93.942C226.788 94.194 225.384 95.148 225.384 96.804C225.384 98.226 226.518 99.234 228.102 99.234C229.362 99.234 230.352 98.622 230.928 97.668C231.144 98.694 231.81 99.234 232.818 99.234C233.088 99.234 233.304 99.198 233.52 99.144ZM228.516 97.992C227.616 97.992 226.986 97.452 226.986 96.696C226.986 95.778 227.85 95.238 229.038 95.094L230.856 94.878V96.516C230.388 97.38 229.506 97.992 228.516 97.992ZM240.906 99V93.672C241.05 92.484 241.77 91.368 243.156 91.368C243.462 91.368 243.894 91.422 244.146 91.494V89.982C243.966 89.91 243.534 89.838 243.228 89.838C242.184 89.838 241.212 90.756 240.852 91.89V90.072H239.376V99H240.906ZM253.085 99.144L253.157 97.974C253.049 97.992 252.869 98.01 252.761 98.01C252.221 98.01 251.951 97.632 251.951 97.146V93.042C251.951 90.972 250.691 89.838 248.747 89.838C247.199 89.838 245.849 90.702 245.201 92.106L246.389 92.592C246.839 91.746 247.541 91.116 248.603 91.116C249.701 91.116 250.421 91.872 250.421 92.988V93.69L248.333 93.942C246.353 94.194 244.949 95.148 244.949 96.804C244.949 98.226 246.083 99.234 247.667 99.234C248.927 99.234 249.917 98.622 250.493 97.668C250.709 98.694 251.375 99.234 252.383 99.234C252.653 99.234 252.869 99.198 253.085 99.144ZM248.081 97.992C247.181 97.992 246.551 97.452 246.551 96.696C246.551 95.778 247.415 95.238 248.603 95.094L250.421 94.878V96.516C249.953 97.38 249.071 97.992 248.081 97.992ZM262.532 99.594C262.532 98.298 261.578 97.614 259.544 97.434L258.284 97.326C257.024 97.218 256.574 97.002 256.574 96.732C256.574 96.516 256.772 96.21 256.952 96.012C257.258 96.084 257.6 96.12 257.924 96.12C259.868 96.12 261.452 94.86 261.452 93.114C261.452 92.466 261.254 91.854 260.876 91.332C261.362 91.08 262.136 90.864 262.856 90.864V89.496C261.758 89.496 260.894 90.018 260.354 90.756C259.706 90.198 258.824 89.838 257.816 89.838C255.818 89.838 254.252 91.206 254.252 93.006C254.252 94.284 255.044 95.256 256.16 95.76C255.584 96.156 255.098 96.768 255.098 97.182C255.098 97.542 255.35 97.848 255.8 98.082C254.684 98.55 253.874 99.36 253.874 100.17C253.874 101.646 255.512 102.51 258.014 102.51C260.786 102.51 262.532 101.286 262.532 99.594ZM258.032 101.34C256.358 101.34 255.404 100.728 255.404 99.936C255.404 99.324 255.962 98.73 256.718 98.406C257.078 98.496 257.492 98.568 257.96 98.604L259.22 98.712C260.66 98.838 261.02 99.18 261.02 99.828C261.02 100.674 259.85 101.34 258.032 101.34ZM255.782 93.024C255.782 91.89 256.646 91.008 257.834 91.008C259.022 91.008 259.922 91.89 259.922 93.024C259.922 94.14 259.022 94.95 257.834 94.95C256.646 94.95 255.782 94.14 255.782 93.024ZM272.2 99.594C272.2 98.298 271.246 97.614 269.212 97.434L267.952 97.326C266.692 97.218 266.242 97.002 266.242 96.732C266.242 96.516 266.44 96.21 266.62 96.012C266.926 96.084 267.268 96.12 267.592 96.12C269.536 96.12 271.12 94.86 271.12 93.114C271.12 92.466 270.922 91.854 270.544 91.332C271.03 91.08 271.804 90.864 272.524 90.864V89.496C271.426 89.496 270.562 90.018 270.022 90.756C269.374 90.198 268.492 89.838 267.484 89.838C265.486 89.838 263.92 91.206 263.92 93.006C263.92 94.284 264.712 95.256 265.828 95.76C265.252 96.156 264.766 96.768 264.766 97.182C264.766 97.542 265.018 97.848 265.468 98.082C264.352 98.55 263.542 99.36 263.542 100.17C263.542 101.646 265.18 102.51 267.682 102.51C270.454 102.51 272.2 101.286 272.2 99.594ZM267.7 101.34C266.026 101.34 265.072 100.728 265.072 99.936C265.072 99.324 265.63 98.73 266.386 98.406C266.746 98.496 267.16 98.568 267.628 98.604L268.888 98.712C270.328 98.838 270.688 99.18 270.688 99.828C270.688 100.674 269.518 101.34 267.7 101.34ZM265.45 93.024C265.45 91.89 266.314 91.008 267.502 91.008C268.69 91.008 269.59 91.89 269.59 93.024C269.59 94.14 268.69 94.95 267.502 94.95C266.314 94.95 265.45 94.14 265.45 93.024ZM275.746 90.072H274.216V99H275.746V90.072ZM275.746 86.526H274.216V88.308H275.746V86.526ZM285.723 99V90.072H284.193V96.228C283.743 97.218 282.879 97.938 281.817 97.938C280.719 97.938 279.927 97.074 279.927 95.868V90.072H278.397V95.976C278.397 97.866 279.657 99.234 281.385 99.234C282.699 99.234 283.725 98.478 284.247 97.524V99H285.723ZM295.996 99V93.096C295.996 91.188 294.664 89.838 292.918 89.838C291.64 89.838 290.56 90.594 289.966 91.44V90.072H288.49V99H290.02V92.52C290.578 91.728 291.55 91.134 292.558 91.134C293.674 91.134 294.466 91.962 294.466 93.204V99H295.996ZM306.407 99.594C306.407 98.298 305.453 97.614 303.419 97.434L302.159 97.326C300.899 97.218 300.449 97.002 300.449 96.732C300.449 96.516 300.647 96.21 300.827 96.012C301.133 96.084 301.475 96.12 301.799 96.12C303.743 96.12 305.327 94.86 305.327 93.114C305.327 92.466 305.129 91.854 304.751 91.332C305.237 91.08 306.011 90.864 306.731 90.864V89.496C305.633 89.496 304.769 90.018 304.229 90.756C303.581 90.198 302.699 89.838 301.691 89.838C299.693 89.838 298.127 91.206 298.127 93.006C298.127 94.284 298.919 95.256 300.035 95.76C299.459 96.156 298.973 96.768 298.973 97.182C298.973 97.542 299.225 97.848 299.675 98.082C298.559 98.55 297.749 99.36 297.749 100.17C297.749 101.646 299.387 102.51 301.889 102.51C304.661 102.51 306.407 101.286 306.407 99.594ZM301.907 101.34C300.233 101.34 299.279 100.728 299.279 99.936C299.279 99.324 299.837 98.73 300.593 98.406C300.953 98.496 301.367 98.568 301.835 98.604L303.095 98.712C304.535 98.838 304.895 99.18 304.895 99.828C304.895 100.674 303.725 101.34 301.907 101.34ZM299.657 93.024C299.657 91.89 300.521 91.008 301.709 91.008C302.897 91.008 303.797 91.89 303.797 93.024C303.797 94.14 302.897 94.95 301.709 94.95C300.521 94.95 299.657 94.14 299.657 93.024ZM315.359 96.966L314.135 96.498C313.667 97.416 312.803 97.974 311.831 97.974C310.337 97.974 309.257 96.732 309.149 94.86H315.341C315.395 94.626 315.431 94.14 315.431 93.744C315.431 91.458 313.865 89.838 311.687 89.838C309.311 89.838 307.547 91.854 307.547 94.608C307.547 97.308 309.311 99.234 311.741 99.234C313.343 99.234 314.729 98.388 315.359 96.966ZM311.705 91.08C312.965 91.08 313.847 92.088 313.901 93.636H309.239C309.509 92.088 310.463 91.08 311.705 91.08ZM319.111 99V93.672C319.255 92.484 319.975 91.368 321.361 91.368C321.667 91.368 322.099 91.422 322.351 91.494V89.982C322.171 89.91 321.739 89.838 321.433 89.838C320.389 89.838 319.417 90.756 319.057 91.89V90.072H317.581V99H319.111ZM331.021 96.966L329.797 96.498C329.329 97.416 328.465 97.974 327.493 97.974C325.999 97.974 324.919 96.732 324.811 94.86H331.003C331.057 94.626 331.093 94.14 331.093 93.744C331.093 91.458 329.527 89.838 327.349 89.838C324.973 89.838 323.209 91.854 323.209 94.608C323.209 97.308 324.973 99.234 327.403 99.234C329.005 99.234 330.391 98.388 331.021 96.966ZM327.367 91.08C328.627 91.08 329.509 92.088 329.563 93.636H324.901C325.171 92.088 326.125 91.08 327.367 91.08ZM92.916 112.072H91.386V121H92.916V112.072ZM92.916 108.526H91.386V110.308H92.916V108.526ZM106.663 118.552C106.663 116.896 105.259 116.212 103.243 115.78C101.731 115.438 100.867 115.168 100.867 114.376C100.867 113.62 101.713 113.098 102.901 113.098C104.143 113.098 104.971 113.62 105.385 114.484L106.609 113.998C106.087 112.9 104.989 111.838 102.919 111.838C100.813 111.838 99.3731 112.954 99.3731 114.466C99.3731 116.014 100.831 116.734 102.811 117.148C104.341 117.472 105.187 117.778 105.187 118.624C105.187 119.434 104.431 119.992 103.117 119.992C101.623 119.992 100.669 119.326 100.219 118.444L98.9591 118.93C99.5711 120.334 101.011 121.234 103.045 121.234C105.313 121.234 106.663 120.136 106.663 118.552ZM115.953 121V112.072H114.423V118.228C113.973 119.218 113.109 119.938 112.047 119.938C110.949 119.938 110.157 119.074 110.157 117.868V112.072H108.627V117.976C108.627 119.866 109.887 121.234 111.615 121.234C112.929 121.234 113.955 120.478 114.477 119.524V121H115.953ZM126.712 116.554C126.712 113.818 124.894 111.838 122.392 111.838C119.89 111.838 118.054 113.818 118.054 116.554C118.054 119.254 119.89 121.234 122.392 121.234C124.894 121.234 126.712 119.254 126.712 116.554ZM119.674 116.554C119.674 114.574 120.808 113.116 122.392 113.116C123.958 113.116 125.092 114.574 125.092 116.554C125.092 118.498 123.958 119.938 122.392 119.938C120.808 119.938 119.674 118.498 119.674 116.554ZM130.34 112.072H128.81V121H130.34V112.072ZM130.34 108.526H128.81V110.308H130.34V108.526ZM144.663 121.144L144.735 119.974C144.627 119.992 144.447 120.01 144.339 120.01C143.799 120.01 143.529 119.632 143.529 119.146V115.042C143.529 112.972 142.269 111.838 140.325 111.838C138.777 111.838 137.427 112.702 136.779 114.106L137.967 114.592C138.417 113.746 139.119 113.116 140.181 113.116C141.279 113.116 141.999 113.872 141.999 114.988V115.69L139.911 115.942C137.931 116.194 136.527 117.148 136.527 118.804C136.527 120.226 137.661 121.234 139.245 121.234C140.505 121.234 141.495 120.622 142.071 119.668C142.287 120.694 142.953 121.234 143.961 121.234C144.231 121.234 144.447 121.198 144.663 121.144ZM139.659 119.992C138.759 119.992 138.129 119.452 138.129 118.696C138.129 117.778 138.993 117.238 140.181 117.094L141.999 116.878V118.516C141.531 119.38 140.649 119.992 139.659 119.992ZM158.898 121V115.096C158.898 113.188 157.602 111.838 155.928 111.838C154.74 111.838 153.696 112.558 153.066 113.512C152.58 112.486 151.644 111.838 150.546 111.838C149.358 111.838 148.368 112.594 147.846 113.44V112.072H146.37V121H147.9V114.484C148.404 113.728 149.268 113.134 150.15 113.134C151.14 113.134 151.86 113.962 151.86 115.204V121H153.39V115.096C153.39 114.826 153.372 114.574 153.318 114.322C153.858 113.638 154.722 113.134 155.586 113.134C156.612 113.134 157.368 113.962 157.368 115.204V121H158.898ZM169.694 116.5C169.694 113.8 168.092 111.838 165.896 111.838C164.87 111.838 163.736 112.414 163.07 113.26V108.328H161.54V121H162.98V119.92C163.664 120.694 164.78 121.234 165.752 121.234C168.038 121.234 169.694 119.254 169.694 116.5ZM165.392 119.956C164.456 119.956 163.556 119.47 163.07 118.804V114.358C163.556 113.62 164.51 113.134 165.482 113.134C166.976 113.134 168.074 114.538 168.074 116.482C168.074 118.48 166.94 119.956 165.392 119.956ZM173.354 112.072H171.824V121H173.354V112.072ZM173.354 108.526H171.824V110.308H173.354V108.526ZM175.518 113.404H180.324L175.392 119.812V121H182.376V119.668H177.228L182.286 113.26V112.072H175.518V113.404ZM185.922 112.072H184.392V121H185.922V112.072ZM185.922 108.526H184.392V110.308H185.922V108.526ZM196.691 116.554C196.691 113.818 194.873 111.838 192.371 111.838C189.869 111.838 188.033 113.818 188.033 116.554C188.033 119.254 189.869 121.234 192.371 121.234C194.873 121.234 196.691 119.254 196.691 116.554ZM189.653 116.554C189.653 114.574 190.787 113.116 192.371 113.116C193.937 113.116 195.071 114.574 195.071 116.554C195.071 118.498 193.937 119.938 192.371 119.938C190.787 119.938 189.653 118.498 189.653 116.554ZM205.61 118.552C205.61 116.896 204.206 116.212 202.19 115.78C200.678 115.438 199.814 115.168 199.814 114.376C199.814 113.62 200.66 113.098 201.848 113.098C203.09 113.098 203.918 113.62 204.332 114.484L205.556 113.998C205.034 112.9 203.936 111.838 201.866 111.838C199.76 111.838 198.32 112.954 198.32 114.466C198.32 116.014 199.778 116.734 201.758 117.148C203.288 117.472 204.134 117.778 204.134 118.624C204.134 119.434 203.378 119.992 202.064 119.992C200.57 119.992 199.616 119.326 199.166 118.444L197.906 118.93C198.518 120.334 199.958 121.234 201.992 121.234C204.26 121.234 205.61 120.136 205.61 118.552ZM209.23 112.072H207.7V121H209.23V112.072ZM209.23 108.526H207.7V110.308H209.23V108.526ZM224.148 116.554C224.148 113.818 222.33 111.838 219.828 111.838C217.326 111.838 215.49 113.818 215.49 116.554C215.49 119.254 217.326 121.234 219.828 121.234C222.33 121.234 224.148 119.254 224.148 116.554ZM217.11 116.554C217.11 114.574 218.244 113.116 219.828 113.116C221.394 113.116 222.528 114.574 222.528 116.554C222.528 118.498 221.394 119.938 219.828 119.938C218.244 119.938 217.11 118.498 217.11 116.554ZM234.399 116.5C234.399 113.8 232.797 111.838 230.601 111.838C229.575 111.838 228.441 112.414 227.775 113.26V108.328H226.245V121H227.685V119.92C228.369 120.694 229.485 121.234 230.457 121.234C232.743 121.234 234.399 119.254 234.399 116.5ZM230.097 119.956C229.161 119.956 228.261 119.47 227.775 118.804V114.358C228.261 113.62 229.215 113.134 230.187 113.134C231.681 113.134 232.779 114.538 232.779 116.482C232.779 118.48 231.645 119.956 230.097 119.956ZM238.059 112.072H236.529V121H238.059V112.072ZM238.059 108.526H236.529V110.308H238.059V108.526ZM247.999 118.966L246.775 118.498C246.307 119.416 245.443 119.974 244.471 119.974C242.977 119.974 241.897 118.732 241.789 116.86H247.981C248.035 116.626 248.071 116.14 248.071 115.744C248.071 113.458 246.505 111.838 244.327 111.838C241.951 111.838 240.187 113.854 240.187 116.608C240.187 119.308 241.951 121.234 244.381 121.234C245.983 121.234 247.369 120.388 247.999 118.966ZM244.345 113.08C245.605 113.08 246.487 114.088 246.541 115.636H241.879C242.149 114.088 243.103 113.08 244.345 113.08ZM255.21 120.946V119.668C254.832 119.812 254.202 119.92 253.644 119.92C252.51 119.92 252.06 119.362 252.06 118.516V113.332H255.156V112.072H252.06V109.894H250.53V112.072H249.216V113.332H250.53V118.768C250.53 120.334 251.592 121.234 253.374 121.234C254.04 121.234 254.814 121.09 255.21 120.946ZM261.995 120.946V119.668C261.617 119.812 260.987 119.92 260.429 119.92C259.295 119.92 258.845 119.362 258.845 118.516V113.332H261.941V112.072H258.845V109.894H257.315V112.072H256.001V113.332H257.315V118.768C257.315 120.334 258.377 121.234 260.159 121.234C260.825 121.234 261.599 121.09 261.995 120.946ZM265.234 112.072H263.704V121H265.234V112.072ZM265.234 108.526H263.704V110.308H265.234V108.526ZM267.003 112.072L270.225 121H271.809L275.013 112.072H273.465L271.089 119.02H271.035L268.659 112.072H267.003ZM278.33 112.072H276.8V121H278.33V112.072ZM278.33 108.526H276.8V110.308H278.33V108.526ZM285.561 112.288C285.975 111.316 286.983 110.614 287.991 110.614C289.107 110.614 289.935 111.28 289.935 112.198C289.935 112.9 289.539 113.332 288.549 114.106L287.811 114.664C286.965 115.33 286.713 115.888 286.713 116.968V117.67H288.369V116.95C288.369 116.248 288.477 116.068 289.323 115.402L290.061 114.844C291.051 114.07 291.645 113.278 291.645 112.072C291.645 110.38 290.169 109.174 288.117 109.174C286.461 109.174 284.859 110.236 284.319 111.694L285.561 112.288ZM288.441 121V118.606H286.641V121H288.441Z" fill="white"/>
<path opacity="0.15" d="M458 59L458 147" stroke="white"/>
<path opacity="0.6" d="M482.254 106V100.072L484.57 103.072H485.098L487.342 100V106H488.41V98.236H487.39L484.858 101.764L482.206 98.236H481.222V106H482.254ZM495.664 103.036C495.664 101.212 494.452 99.892 492.784 99.892C491.116 99.892 489.892 101.212 489.892 103.036C489.892 104.836 491.116 106.156 492.784 106.156C494.452 106.156 495.664 104.836 495.664 103.036ZM490.972 103.036C490.972 101.716 491.728 100.744 492.784 100.744C493.828 100.744 494.584 101.716 494.584 103.036C494.584 104.332 493.828 105.292 492.784 105.292C491.728 105.292 490.972 104.332 490.972 103.036ZM501.61 104.368C501.61 103.264 500.674 102.808 499.33 102.52C498.322 102.292 497.746 102.112 497.746 101.584C497.746 101.08 498.31 100.732 499.102 100.732C499.93 100.732 500.482 101.08 500.758 101.656L501.574 101.332C501.226 100.6 500.494 99.892 499.114 99.892C497.71 99.892 496.75 100.636 496.75 101.644C496.75 102.676 497.722 103.156 499.042 103.432C500.062 103.648 500.626 103.852 500.626 104.416C500.626 104.956 500.122 105.328 499.246 105.328C498.25 105.328 497.614 104.884 497.314 104.296L496.474 104.62C496.882 105.556 497.842 106.156 499.198 106.156C500.71 106.156 501.61 105.424 501.61 104.368ZM506.341 105.964V105.112C506.089 105.208 505.669 105.28 505.297 105.28C504.541 105.28 504.241 104.908 504.241 104.344V100.888H506.305V100.048H504.241V98.596H503.221V100.048H502.345V100.888H503.221V104.512C503.221 105.556 503.929 106.156 505.117 106.156C505.561 106.156 506.077 106.06 506.341 105.964ZM508.5 106V102.448C508.596 101.656 509.076 100.912 510 100.912C510.204 100.912 510.492 100.948 510.66 100.996V99.988C510.54 99.94 510.252 99.892 510.048 99.892C509.352 99.892 508.704 100.504 508.464 101.26V100.048H507.48V106H508.5ZM516.619 106.096L516.667 105.316C516.595 105.328 516.475 105.34 516.403 105.34C516.043 105.34 515.863 105.088 515.863 104.764V102.028C515.863 100.648 515.023 99.892 513.727 99.892C512.695 99.892 511.795 100.468 511.363 101.404L512.155 101.728C512.455 101.164 512.923 100.744 513.631 100.744C514.363 100.744 514.843 101.248 514.843 101.992V102.46L513.451 102.628C512.131 102.796 511.195 103.432 511.195 104.536C511.195 105.484 511.951 106.156 513.007 106.156C513.847 106.156 514.507 105.748 514.891 105.112C515.035 105.796 515.479 106.156 516.151 106.156C516.331 106.156 516.475 106.132 516.619 106.096ZM513.283 105.328C512.683 105.328 512.263 104.968 512.263 104.464C512.263 103.852 512.839 103.492 513.631 103.396L514.843 103.252V104.344C514.531 104.92 513.943 105.328 513.283 105.328Z" fill="white"/>
<defs>
<filter id="filter0_d_1084_1098" x="0" y="0" width="604" height="214" filterUnits="userSpaceOnUse" color-interpolation-filters="sRGB">
<feFlood flood-opacity="0" result="BackgroundImageFix"/>
<feColorMatrix in="SourceAlpha" type="matrix" values="0 0 0 0 0 0 0 0 0 0 0 0 0 0 0 0 0 0 127 0" result="hardAlpha"/>
<feOffset dy="4"/>
<feGaussianBlur stdDeviation="31.5"/>
<feComposite in2="hardAlpha" operator="out"/>
<feColorMatrix type="matrix" values="0 0 0 0 0 0 0 0 0 0 0 0 0 0 0 0 0 0 0.6 0"/>
<feBlend mode="normal" in2="BackgroundImageFix" result="effect1_dropShadow_1084_1098"/>
<feBlend mode="normal" in="SourceGraphic" in2="effect1_dropShadow_1084_1098" result="shape"/>
</filter>
</defs>
</svg>
