<svg width="479" height="408" viewBox="0 0 479 408" fill="none" xmlns="http://www.w3.org/2000/svg">
<g filter="url(#filter0_d_1104_1102)">
<path d="M416 337C416 339.209 414.209 341 412 341L66.9999 341C64.7908 341 62.9999 339.209 62.9999 337L63 63C63 60.7909 64.7909 59 67 59L412 59C414.209 59 416 60.7909 416 63L416 337Z" fill="#1767D2"/>
</g>
<path d="M91.424 96.232L86.504 98.176L87.512 100.888L90.536 99.808L90.536 105.904H87.056L87.056 109H97.568L97.568 105.904H94.496L94.496 96.232H91.424ZM110.962 104.848C110.962 102.328 108.85 100.696 105.682 100.696C104.098 100.696 102.874 101.104 101.962 101.632L102.202 99.304H110.314L110.314 96.208H99.4417L99.0337 103.672L101.554 104.272C102.154 103.864 103.306 103.552 104.434 103.552C105.922 103.552 106.834 104.128 106.834 104.992C106.834 105.856 105.898 106.504 104.434 106.504C103.066 106.504 101.842 106 101.17 105.184L98.4817 106.648C99.6817 108.4 101.986 109.36 104.818 109.36C108.418 109.36 110.962 107.44 110.962 104.848ZM124.673 104.848C124.673 102.328 122.561 100.696 119.393 100.696C117.809 100.696 116.585 101.104 115.673 101.632L115.913 99.304H124.025L124.025 96.208H113.153L112.745 103.672L115.265 104.272C115.865 103.864 117.017 103.552 118.145 103.552C119.633 103.552 120.545 104.128 120.545 104.992C120.545 105.856 119.609 106.504 118.145 106.504C116.777 106.504 115.553 106 114.881 105.184L112.193 106.648C113.393 108.4 115.697 109.36 118.529 109.36C122.129 109.36 124.673 107.44 124.673 104.848ZM143.395 109L143.395 103.24C143.395 101.17 142.081 99.748 140.407 99.748C139.309 99.748 138.337 100.342 137.653 101.368C137.167 100.36 136.267 99.748 135.223 99.748C134.179 99.748 133.243 100.36 132.613 101.332L132.613 100H129.769L129.769 109H132.739L132.739 102.808C133.027 102.448 133.531 102.16 134.035 102.16C134.647 102.16 135.097 102.7 135.097 103.528L135.097 109H138.067L138.067 103.24C138.067 103.078 138.067 102.916 138.049 102.772C138.355 102.43 138.841 102.16 139.345 102.16C139.975 102.16 140.425 102.7 140.425 103.528L140.425 109H143.395ZM148.261 100H145.291L145.291 109H148.261L148.261 100ZM148.261 96.616H145.291L145.291 98.92H148.261L148.261 96.616ZM153.218 96.544H150.248L150.248 109H153.218L153.218 96.544ZM158.175 100H155.205L155.205 109H158.175L158.175 100ZM158.175 96.616H155.205L155.205 98.92H158.175L158.175 96.616ZM168.676 109.09L168.802 107.092C168.658 107.11 168.442 107.128 168.316 107.128C167.92 107.128 167.758 106.858 167.758 106.336L167.758 103.276C167.758 100.936 166.354 99.73 163.978 99.73C161.89 99.73 160.522 100.774 159.892 102.268L161.998 103.15C162.34 102.484 162.898 101.962 163.654 101.962C164.374 101.962 164.842 102.448 164.842 103.168L164.842 103.546L162.97 103.852C160.81 104.23 159.568 105.292 159.568 106.822C159.568 108.262 160.684 109.27 162.25 109.27C163.492 109.27 164.482 108.64 165.094 107.776C165.562 108.856 166.48 109.27 167.56 109.27C167.974 109.27 168.37 109.198 168.676 109.09ZM163.492 107.2C162.916 107.2 162.538 106.84 162.538 106.354C162.538 105.778 163.024 105.418 163.762 105.292L164.842 105.112L164.842 106.552C164.5 106.93 164.014 107.2 163.492 107.2ZM172.94 109L172.94 104.698C173.102 103.312 173.786 102.484 175.136 102.484C175.388 102.484 175.748 102.538 176 102.61L176 99.874C175.748 99.784 175.442 99.73 175.1 99.73C174.074 99.73 173.192 100.81 172.814 102.034L172.814 100H169.97L169.97 109H172.94ZM181.409 106.93C180.419 106.93 179.717 105.94 179.717 104.536C179.717 103.096 180.473 102.052 181.535 102.052C182.075 102.052 182.597 102.268 182.921 102.574L182.921 106.264C182.543 106.678 181.985 106.93 181.409 106.93ZM185.891 109L185.891 96.544H182.921L182.921 100.9C182.399 100.198 181.463 99.73 180.509 99.73C178.241 99.73 176.621 101.764 176.621 104.572C176.621 107.308 178.205 109.27 180.383 109.27C181.391 109.27 182.471 108.676 183.065 107.812L183.065 109H185.891ZM190.835 100H187.865L187.865 109H190.835L190.835 100ZM190.835 96.616H187.865L187.865 98.92H190.835L190.835 96.616ZM207.302 109L207.302 102.7H202.442L202.442 104.968H204.386L204.386 105.634C204.134 106.138 203.09 106.696 201.938 106.696C200.336 106.696 199.184 105.292 199.184 103.33C199.184 101.296 200.336 99.82 201.938 99.82C203 99.82 204.008 100.558 204.332 101.584L207.122 100.594C206.402 98.578 204.206 97.138 201.884 97.138C198.374 97.138 195.818 99.766 195.836 103.402C195.836 106.822 198.23 109.288 201.434 109.288C203.036 109.288 204.206 108.694 204.836 107.812L204.926 109H207.302ZM222.69 109L222.69 103.24C222.69 101.17 221.376 99.748 219.702 99.748C218.604 99.748 217.632 100.342 216.948 101.368C216.462 100.36 215.562 99.748 214.518 99.748C213.474 99.748 212.538 100.36 211.908 101.332L211.908 100H209.064L209.064 109H212.034L212.034 102.808C212.322 102.448 212.826 102.16 213.33 102.16C213.942 102.16 214.392 102.7 214.392 103.528L214.392 109H217.362L217.362 103.24C217.362 103.078 217.362 102.916 217.344 102.772C217.65 102.43 218.136 102.16 218.64 102.16C219.27 102.16 219.72 102.7 219.72 103.528L219.72 109H222.69ZM232.812 106.516L230.31 105.562C229.986 106.3 229.536 106.822 228.78 106.822C227.844 106.822 227.16 105.868 227.16 104.554C227.16 103.168 227.844 102.178 228.798 102.178C229.5 102.178 229.968 102.628 230.238 103.384L232.776 102.412C232.146 100.828 230.67 99.73 228.582 99.73C225.954 99.73 224.064 101.746 224.064 104.572C224.064 107.308 225.936 109.27 228.51 109.27C230.598 109.27 232.182 108.1 232.812 106.516ZM232.637 112.42L234.077 113.032L241.313 96.22L239.873 95.626L232.637 112.42ZM250.221 109.09L250.347 107.092C250.203 107.11 249.987 107.128 249.861 107.128C249.465 107.128 249.303 106.858 249.303 106.336L249.303 103.276C249.303 100.936 247.899 99.73 245.523 99.73C243.435 99.73 242.067 100.774 241.437 102.268L243.543 103.15C243.885 102.484 244.443 101.962 245.199 101.962C245.919 101.962 246.387 102.448 246.387 103.168L246.387 103.546L244.515 103.852C242.355 104.23 241.113 105.292 241.113 106.822C241.113 108.262 242.229 109.27 243.795 109.27C245.037 109.27 246.027 108.64 246.639 107.776C247.107 108.856 248.025 109.27 249.105 109.27C249.519 109.27 249.915 109.198 250.221 109.09ZM245.037 107.2C244.461 107.2 244.083 106.84 244.083 106.354C244.083 105.778 244.569 105.418 245.307 105.292L246.387 105.112L246.387 106.552C246.045 106.93 245.559 107.2 245.037 107.2ZM266.05 109L266.05 103.024H262.108L262.108 104.41H264.484L264.484 105.868C264.196 106.768 262.792 107.758 261.154 107.758C258.904 107.758 257.266 105.886 257.266 103.294C257.266 100.576 258.904 98.614 261.154 98.614C262.522 98.614 263.908 99.532 264.466 100.828L265.906 100.27C265.204 98.47 263.188 97.156 261.1 97.156C257.86 97.156 255.502 99.766 255.52 103.312C255.538 106.732 257.842 109.216 260.974 109.216C262.666 109.216 264.034 108.442 264.628 107.506L264.718 109H266.05ZM275.886 109.144L275.958 107.974C275.85 107.992 275.67 108.01 275.562 108.01C275.022 108.01 274.752 107.632 274.752 107.146L274.752 103.042C274.752 100.972 273.492 99.838 271.548 99.838C270 99.838 268.65 100.702 268.002 102.106L269.19 102.592C269.64 101.746 270.342 101.116 271.404 101.116C272.502 101.116 273.222 101.872 273.222 102.988L273.222 103.69L271.134 103.942C269.154 104.194 267.75 105.148 267.75 106.804C267.75 108.226 268.884 109.234 270.468 109.234C271.728 109.234 272.718 108.622 273.294 107.668C273.51 108.694 274.176 109.234 275.184 109.234C275.454 109.234 275.67 109.198 275.886 109.144ZM270.882 107.992C269.982 107.992 269.352 107.452 269.352 106.696C269.352 105.778 270.216 105.238 271.404 105.094L273.222 104.878L273.222 106.516C272.754 107.38 271.872 107.992 270.882 107.992ZM284.415 106.552C284.415 104.896 283.011 104.212 280.995 103.78C279.483 103.438 278.619 103.168 278.619 102.376C278.619 101.62 279.465 101.098 280.653 101.098C281.895 101.098 282.723 101.62 283.137 102.484L284.361 101.998C283.839 100.9 282.741 99.838 280.671 99.838C278.565 99.838 277.125 100.954 277.125 102.466C277.125 104.014 278.583 104.734 280.563 105.148C282.093 105.472 282.939 105.778 282.939 106.624C282.939 107.434 282.183 107.992 280.869 107.992C279.375 107.992 278.421 107.326 277.971 106.444L276.711 106.93C277.323 108.334 278.763 109.234 280.797 109.234C283.065 109.234 284.415 108.136 284.415 106.552ZM292.508 98.776H294.74C296.27 98.776 297.278 99.64 297.278 100.936C297.278 102.322 296.252 103.24 294.722 103.24H292.508L292.508 98.776ZM292.508 109L292.508 104.662H294.722C295.028 104.662 295.316 104.644 295.586 104.608L297.908 109H299.726L297.116 104.122C298.286 103.492 298.988 102.358 298.988 100.936C298.988 98.794 297.332 97.354 294.848 97.354H290.852L290.852 109H292.508ZM308.734 109L308.734 100.072H307.204L307.204 106.228C306.754 107.218 305.89 107.938 304.828 107.938C303.73 107.938 302.938 107.074 302.938 105.868L302.938 100.072H301.408L301.408 105.976C301.408 107.866 302.668 109.234 304.396 109.234C305.71 109.234 306.736 108.478 307.258 107.524L307.258 109H308.734ZM318.323 106.552C318.323 104.896 316.919 104.212 314.903 103.78C313.391 103.438 312.527 103.168 312.527 102.376C312.527 101.62 313.373 101.098 314.561 101.098C315.803 101.098 316.631 101.62 317.045 102.484L318.269 101.998C317.747 100.9 316.649 99.838 314.579 99.838C312.473 99.838 311.033 100.954 311.033 102.466C311.033 104.014 312.491 104.734 314.471 105.148C316.001 105.472 316.847 105.778 316.847 106.624C316.847 107.434 316.091 107.992 314.777 107.992C313.283 107.992 312.329 107.326 311.879 106.444L310.619 106.93C311.231 108.334 312.671 109.234 314.705 109.234C316.973 109.234 318.323 108.136 318.323 106.552ZM327.235 106.552C327.235 104.896 325.831 104.212 323.815 103.78C322.303 103.438 321.439 103.168 321.439 102.376C321.439 101.62 322.285 101.098 323.473 101.098C324.715 101.098 325.543 101.62 325.957 102.484L327.181 101.998C326.659 100.9 325.561 99.838 323.491 99.838C321.385 99.838 319.945 100.954 319.945 102.466C319.945 104.014 321.403 104.734 323.383 105.148C324.913 105.472 325.759 105.778 325.759 106.624C325.759 107.434 325.003 107.992 323.689 107.992C322.195 107.992 321.241 107.326 320.791 106.444L319.531 106.93C320.143 108.334 321.583 109.234 323.617 109.234C325.885 109.234 327.235 108.136 327.235 106.552ZM337.317 104.554C337.317 101.818 335.499 99.838 332.997 99.838C330.495 99.838 328.659 101.818 328.659 104.554C328.659 107.254 330.495 109.234 332.997 109.234C335.499 109.234 337.317 107.254 337.317 104.554ZM330.279 104.554C330.279 102.574 331.413 101.116 332.997 101.116C334.563 101.116 335.697 102.574 335.697 104.554C335.697 106.498 334.563 107.938 332.997 107.938C331.413 107.938 330.279 106.498 330.279 104.554Z" fill="white"/>
<defs>
<filter id="filter0_d_1104_1102" x="-0.00012207" y="0" width="479" height="408" filterUnits="userSpaceOnUse" color-interpolation-filters="sRGB">
<feFlood flood-opacity="0" result="BackgroundImageFix"/>
<feColorMatrix in="SourceAlpha" type="matrix" values="0 0 0 0 0 0 0 0 0 0 0 0 0 0 0 0 0 0 127 0" result="hardAlpha"/>
<feOffset dy="4"/>
<feGaussianBlur stdDeviation="31.5"/>
<feComposite in2="hardAlpha" operator="out"/>
<feColorMatrix type="matrix" values="0 0 0 0 0 0 0 0 0 0 0 0 0 0 0 0 0 0 0.6 0"/>
<feBlend mode="normal" in2="BackgroundImageFix" result="effect1_dropShadow_1104_1102"/>
<feBlend mode="normal" in="SourceGraphic" in2="effect1_dropShadow_1104_1102" result="shape"/>
</filter>
</defs>
</svg>
