<svg width="151" height="154" viewBox="0 0 151 154" fill="none" xmlns="http://www.w3.org/2000/svg">
<rect width="151" height="154" fill="#1767D2"/>
<path d="M115.813 95.7716C115.768 95.6708 115.756 95.5566 115.779 95.4453L117.492 87.415C117.543 87.1747 117.759 87.0005 118.002 87.0005H118.538C118.782 87.0005 118.996 87.1747 119.047 87.4161L120.762 95.4463C120.785 95.5556 120.774 95.6718 120.729 95.7726L119.63 98.2214C119.201 98.0714 118.749 97.9737 118.27 97.9737C117.791 97.9737 117.339 98.0735 116.91 98.2214L115.813 95.7716Z" fill="white" fill-opacity="0.5"/>
<path d="M113.986 107.513C113.922 107.603 113.829 107.669 113.723 107.706L105.949 110.228C105.715 110.298 105.457 110.205 105.336 109.991L105.069 109.525C104.947 109.312 104.99 109.039 105.171 108.874L111.233 103.366C111.315 103.292 111.421 103.245 111.53 103.232L114.175 102.966C114.354 103.906 114.855 104.726 115.549 105.331L113.986 107.513Z" fill="white" fill-opacity="0.5"/>
<path d="M119.495 131.063H117.049L117.977 106.342C118.077 106.349 118.172 106.371 118.273 106.371C118.374 106.371 118.469 106.349 118.568 106.342L119.495 131.063Z" fill="white" fill-opacity="0.5"/>
<path d="M131.474 109.525L131.207 109.991C131.085 110.201 130.826 110.298 130.596 110.228L122.82 107.706C122.714 107.671 122.622 107.601 122.557 107.512L120.994 105.33C121.689 104.726 122.19 103.906 122.368 102.965L125.012 103.232C125.124 103.245 125.228 103.292 125.31 103.367L131.372 108.873C131.555 109.039 131.598 109.312 131.474 109.525L131.474 109.525Z" fill="white" fill-opacity="0.5"/>
<path d="M118.271 99.0195C116.542 99.0195 115.137 100.435 115.137 102.172C115.137 103.909 116.542 105.322 118.271 105.322C119.999 105.322 121.404 103.909 121.404 102.172C121.404 100.435 119.997 99.0195 118.271 99.0195ZM118.271 103.559C117.51 103.559 116.891 102.936 116.891 102.174C116.891 101.409 117.51 100.787 118.271 100.787C119.031 100.787 119.648 101.41 119.648 102.174C119.648 102.936 119.031 103.559 118.271 103.559Z" fill="white" fill-opacity="0.5"/>
<path d="M118.608 102.172C118.608 102.623 117.935 102.623 117.935 102.172C117.935 101.721 118.608 101.721 118.608 102.172Z" fill="white" fill-opacity="0.5"/>
</svg>
