<svg width="414" height="552" viewBox="0 0 414 552" fill="none" xmlns="http://www.w3.org/2000/svg">
<g filter="url(#filter0_d_1098_1105)">
<path d="M65 66C65 63.2386 67.2386 61 70 61L344 61C346.761 61 349 63.2386 349 66L349 478C349 480.761 346.761 483 344 483L70 483C67.2386 483 65 480.761 65 478L65 66Z" fill="#1767D2"/>
<path d="M65 66C65 63.2386 67.2386 61 70 61L344 61C346.761 61 349 63.2386 349 66L349 478C349 480.761 346.761 483 344 483L70 483C67.2386 483 65 480.761 65 478L65 66Z" stroke="#1767D2" stroke-width="3"/>
</g>
<path d="M100.07 121.1V116.96H93.17V112.91H102.17V108.59H87.92V128H93.17V121.1H100.07ZM109.358 113H104.408V128H109.358V113ZM109.358 107.36H104.408V111.2H109.358V107.36ZM126.92 128V118.37C126.92 115.01 124.76 112.55 121.94 112.55C120.05 112.55 118.43 113.57 117.41 115.16V113H112.67V128H117.62V117.59C118.19 117.02 119.09 116.57 119.99 116.57C121.19 116.57 121.97 117.44 121.97 118.82V128H126.92ZM135.022 107.24H130.072V128H135.022V107.24ZM152.524 128.15L152.734 124.82C152.494 124.85 152.134 124.88 151.924 124.88C151.264 124.88 150.994 124.43 150.994 123.56V118.46C150.994 114.56 148.654 112.55 144.694 112.55C141.214 112.55 138.934 114.29 137.884 116.78L141.394 118.25C141.964 117.14 142.894 116.27 144.154 116.27C145.354 116.27 146.134 117.08 146.134 118.28V118.91L143.014 119.42C139.414 120.05 137.344 121.82 137.344 124.37C137.344 126.77 139.204 128.45 141.814 128.45C143.884 128.45 145.534 127.4 146.554 125.96C147.334 127.76 148.864 128.45 150.664 128.45C151.354 128.45 152.014 128.33 152.524 128.15ZM143.884 125C142.924 125 142.294 124.4 142.294 123.59C142.294 122.63 143.104 122.03 144.334 121.82L146.134 121.52V123.92C145.564 124.55 144.754 125 143.884 125ZM168.931 128V118.37C168.931 115.01 166.771 112.55 163.951 112.55C162.061 112.55 160.441 113.57 159.421 115.16V113H154.681V128H159.631V117.59C160.201 117.02 161.101 116.57 162.001 116.57C163.201 116.57 163.981 117.44 163.981 118.82V128H168.931ZM179.224 124.55C177.574 124.55 176.404 122.9 176.404 120.56C176.404 118.16 177.664 116.42 179.434 116.42C180.334 116.42 181.204 116.78 181.744 117.29V123.44C181.114 124.13 180.184 124.55 179.224 124.55ZM186.694 128V107.24H181.744V114.5C180.874 113.33 179.314 112.55 177.724 112.55C173.944 112.55 171.244 115.94 171.244 120.62C171.244 125.18 173.884 128.45 177.514 128.45C179.194 128.45 180.994 127.46 181.984 126.02V128H186.694ZM194.934 113H189.984V128H194.934V113ZM194.934 107.36H189.984V111.2H194.934V107.36ZM212.436 128.15L212.646 124.82C212.406 124.85 212.046 124.88 211.836 124.88C211.176 124.88 210.906 124.43 210.906 123.56V118.46C210.906 114.56 208.566 112.55 204.606 112.55C201.126 112.55 198.846 114.29 197.796 116.78L201.306 118.25C201.876 117.14 202.806 116.27 204.066 116.27C205.266 116.27 206.046 117.08 206.046 118.28V118.91L202.926 119.42C199.326 120.05 197.256 121.82 197.256 124.37C197.256 126.77 199.116 128.45 201.726 128.45C203.796 128.45 205.446 127.4 206.466 125.96C207.246 127.76 208.776 128.45 210.576 128.45C211.266 128.45 211.926 128.33 212.436 128.15ZM203.796 125C202.836 125 202.206 124.4 202.206 123.59C202.206 122.63 203.016 122.03 204.246 121.82L206.046 121.52V123.92C205.476 124.55 204.666 125 203.796 125Z" fill="white"/>
<path d="M89.24 165.354H87.584V177H89.24V165.354ZM93.7324 164.328H92.2024V177H93.7324V164.328ZM115.561 171.81C115.561 168.66 112.921 166.62 108.961 166.62C106.981 166.62 105.451 167.13 104.311 167.79L104.611 164.88H114.751V161.01H101.161L100.651 170.34L103.801 171.09C104.551 170.58 105.991 170.19 107.401 170.19C109.261 170.19 110.401 170.91 110.401 171.99C110.401 173.07 109.231 173.88 107.401 173.88C105.691 173.88 104.161 173.25 103.321 172.23L99.9615 174.06C101.461 176.25 104.341 177.45 107.881 177.45C112.381 177.45 115.561 175.05 115.561 171.81ZM133.54 171.66C133.54 168.69 130.87 166.53 127.15 166.53C125.35 166.53 123.64 167.07 122.47 167.88C122.83 165.48 124.18 164.07 126.28 164.07C127.75 164.07 129.1 164.73 129.91 165.72L133.12 163.77C131.89 162.09 129.43 160.62 126.07 160.62C120.85 160.62 117.31 164.19 117.31 169.23C117.28 174.3 120.85 177.42 125.8 177.42C130.18 177.42 133.54 174.99 133.54 171.66ZM125.77 173.97C124.12 173.97 122.95 172.89 122.53 171C123.37 170.28 124.54 169.89 125.71 169.89C127.45 169.89 128.38 170.73 128.38 171.84C128.38 173.1 127.24 173.97 125.77 173.97ZM154.74 158.55L153.33 157.14C151.95 158.28 149.85 159 147.72 159C146.16 159 144.45 158.7 143.25 158.28C142.41 157.56 141.3 157.14 140.04 157.14C137.16 157.14 135.09 159.3 135.09 162.27C135.09 165.24 137.16 167.37 140.04 167.37C142.92 167.37 144.99 165.24 144.99 162.27C144.99 161.67 144.9 161.07 144.75 160.56C145.68 160.98 146.73 161.22 147.66 161.22C148.53 161.19 149.49 160.92 150.45 160.41L136.65 176.01L138.12 177.45L154.74 158.55ZM156.42 172.35C156.42 169.38 154.35 167.22 151.47 167.22C148.59 167.22 146.52 169.38 146.52 172.35C146.52 175.32 148.59 177.45 151.47 177.45C154.35 177.45 156.42 175.32 156.42 172.35ZM149.79 172.35C149.79 170.94 150.51 169.92 151.47 169.92C152.46 169.92 153.15 170.94 153.15 172.35C153.15 173.73 152.46 174.72 151.47 174.72C150.51 174.72 149.79 173.73 149.79 172.35ZM138.36 162.27C138.36 160.86 139.08 159.84 140.04 159.84C141.03 159.84 141.72 160.86 141.72 162.27C141.72 163.65 141.03 164.64 140.04 164.64C139.08 164.64 138.36 163.65 138.36 162.27ZM166.243 175.956C164.749 175.956 163.687 174.534 163.687 172.59C163.687 170.592 164.803 169.134 166.351 169.134C167.305 169.134 168.187 169.566 168.655 170.25V174.66C168.133 175.434 167.179 175.956 166.243 175.956ZM170.185 177V164.328H168.655V169.044C168.043 168.324 166.999 167.838 166.027 167.838C163.723 167.838 162.049 169.836 162.049 172.608C162.049 175.29 163.669 177.234 165.901 177.234C166.927 177.234 168.079 176.604 168.745 175.722V177H170.185ZM180.126 174.966L178.902 174.498C178.434 175.416 177.57 175.974 176.598 175.974C175.104 175.974 174.024 174.732 173.916 172.86H180.108C180.162 172.626 180.198 172.14 180.198 171.744C180.198 169.458 178.632 167.838 176.454 167.838C174.078 167.838 172.314 169.854 172.314 172.608C172.314 175.308 174.078 177.234 176.508 177.234C178.11 177.234 179.496 176.388 180.126 174.966ZM176.472 169.08C177.732 169.08 178.614 170.088 178.668 171.636H174.006C174.276 170.088 175.23 169.08 176.472 169.08ZM183.879 168.072H182.349V177H183.879V168.072ZM183.879 164.526H182.349V166.308H183.879V164.526ZM197.734 174.804L196.438 174.3C196.006 175.29 195.286 175.92 194.296 175.92C192.838 175.92 191.776 174.534 191.776 172.608C191.776 170.592 192.802 169.134 194.224 169.134C195.124 169.134 195.898 169.692 196.33 170.736L197.662 170.196C197.032 168.756 195.826 167.838 194.188 167.838C191.848 167.838 190.156 169.836 190.156 172.608C190.156 175.29 191.866 177.234 194.242 177.234C195.88 177.234 197.158 176.208 197.734 174.804ZM201.123 168.072H199.593V177H201.123V168.072ZM201.123 164.526H199.593V166.308H201.123V164.526ZM208.976 176.946V175.668C208.598 175.812 207.968 175.92 207.41 175.92C206.276 175.92 205.826 175.362 205.826 174.516V169.332H208.922V168.072H205.826V165.894H204.296V168.072H202.982V169.332H204.296V174.768C204.296 176.334 205.358 177.234 207.14 177.234C207.806 177.234 208.58 177.09 208.976 176.946ZM215.761 176.946V175.668C215.383 175.812 214.753 175.92 214.195 175.92C213.061 175.92 212.611 175.362 212.611 174.516V169.332H215.707V168.072H212.611V165.894H211.081V168.072H209.767V169.332H211.081V174.768C211.081 176.334 212.143 177.234 213.925 177.234C214.591 177.234 215.365 177.09 215.761 176.946ZM224.868 177.144L224.94 175.974C224.832 175.992 224.652 176.01 224.544 176.01C224.004 176.01 223.734 175.632 223.734 175.146V171.042C223.734 168.972 222.474 167.838 220.53 167.838C218.982 167.838 217.632 168.702 216.984 170.106L218.172 170.592C218.622 169.746 219.324 169.116 220.386 169.116C221.484 169.116 222.204 169.872 222.204 170.988V171.69L220.116 171.942C218.136 172.194 216.732 173.148 216.732 174.804C216.732 176.226 217.866 177.234 219.45 177.234C220.71 177.234 221.7 176.622 222.276 175.668C222.492 176.694 223.158 177.234 224.166 177.234C224.436 177.234 224.652 177.198 224.868 177.144ZM219.864 175.992C218.964 175.992 218.334 175.452 218.334 174.696C218.334 173.778 219.198 173.238 220.386 173.094L222.204 172.878V174.516C221.736 175.38 220.854 175.992 219.864 175.992ZM230.121 175.956C228.627 175.956 227.565 174.534 227.565 172.59C227.565 170.592 228.681 169.134 230.229 169.134C231.183 169.134 232.065 169.566 232.533 170.25V174.66C232.011 175.434 231.057 175.956 230.121 175.956ZM234.063 177V164.328H232.533V169.044C231.921 168.324 230.877 167.838 229.905 167.838C227.601 167.838 225.927 169.836 225.927 172.608C225.927 175.29 227.547 177.234 229.779 177.234C230.805 177.234 231.957 176.604 232.623 175.722V177H234.063ZM238.371 168.072H236.841V177H238.371V168.072ZM238.371 164.526H236.841V166.308H238.371V164.526ZM248.654 177V171.096C248.654 169.188 247.322 167.838 245.576 167.838C244.298 167.838 243.218 168.594 242.624 169.44V168.072H241.148V177H242.678V170.52C243.236 169.728 244.208 169.134 245.216 169.134C246.332 169.134 247.124 169.962 247.124 171.204V177H248.654ZM252.855 168.072H251.325V177H252.855V168.072ZM252.855 164.526H251.325V166.308H252.855V164.526ZM88.916 199V193.672C89.06 192.484 89.78 191.368 91.166 191.368C91.472 191.368 91.904 191.422 92.156 191.494V189.982C91.976 189.91 91.544 189.838 91.238 189.838C90.194 189.838 89.222 190.756 88.862 191.89V190.072H87.386V199H88.916ZM95.4375 190.072H93.9075V199H95.4375V190.072ZM95.4375 186.526H93.9075V188.308H95.4375V186.526ZM103.29 198.946V197.668C102.912 197.812 102.282 197.92 101.724 197.92C100.59 197.92 100.14 197.362 100.14 196.516V191.332H103.236V190.072H100.14V187.894H98.6101V190.072H97.2961V191.332H98.6101V196.768C98.6101 198.334 99.6721 199.234 101.454 199.234C102.12 199.234 102.894 199.09 103.29 198.946ZM106.529 190.072H104.999V199H106.529V190.072ZM106.529 186.526H104.999V188.308H106.529V186.526ZM116.47 196.966L115.246 196.498C114.778 197.416 113.914 197.974 112.942 197.974C111.448 197.974 110.368 196.732 110.26 194.86H116.452C116.506 194.626 116.542 194.14 116.542 193.744C116.542 191.458 114.976 189.838 112.798 189.838C110.422 189.838 108.658 191.854 108.658 194.608C108.658 197.308 110.422 199.234 112.852 199.234C114.454 199.234 115.84 198.388 116.47 196.966ZM112.816 191.08C114.076 191.08 114.958 192.088 115.012 193.636H110.35C110.62 192.088 111.574 191.08 112.816 191.08ZM126.199 199V193.096C126.199 191.188 124.867 189.838 123.121 189.838C121.843 189.838 120.763 190.594 120.169 191.44V190.072H118.693V199H120.223V192.52C120.781 191.728 121.753 191.134 122.761 191.134C123.877 191.134 124.669 191.962 124.669 193.204V199H126.199ZM136.034 196.966L134.81 196.498C134.342 197.416 133.478 197.974 132.506 197.974C131.012 197.974 129.932 196.732 129.824 194.86H136.016C136.07 194.626 136.106 194.14 136.106 193.744C136.106 191.458 134.54 189.838 132.362 189.838C129.986 189.838 128.222 191.854 128.222 194.608C128.222 197.308 129.986 199.234 132.416 199.234C134.018 199.234 135.404 198.388 136.034 196.966ZM132.38 191.08C133.64 191.08 134.522 192.088 134.576 193.636H129.914C130.184 192.088 131.138 191.08 132.38 191.08ZM149.336 196.804L148.04 196.3C147.608 197.29 146.888 197.92 145.898 197.92C144.44 197.92 143.378 196.534 143.378 194.608C143.378 192.592 144.404 191.134 145.826 191.134C146.726 191.134 147.5 191.692 147.932 192.736L149.264 192.196C148.634 190.756 147.428 189.838 145.79 189.838C143.45 189.838 141.758 191.836 141.758 194.608C141.758 197.29 143.468 199.234 145.844 199.234C147.482 199.234 148.76 198.208 149.336 196.804ZM158.701 199V193.114C158.701 191.188 157.369 189.838 155.623 189.838C154.381 189.838 153.319 190.54 152.725 191.368V186.328H151.195V199H152.725V192.52C153.283 191.728 154.255 191.134 155.263 191.134C156.379 191.134 157.171 191.962 157.171 193.204V199H158.701ZM168.536 196.966L167.312 196.498C166.844 197.416 165.98 197.974 165.008 197.974C163.514 197.974 162.434 196.732 162.326 194.86H168.518C168.572 194.626 168.608 194.14 168.608 193.744C168.608 191.458 167.042 189.838 164.864 189.838C162.488 189.838 160.724 191.854 160.724 194.608C160.724 197.308 162.488 199.234 164.918 199.234C166.52 199.234 167.906 198.388 168.536 196.966ZM164.882 191.08C166.142 191.08 167.024 192.088 167.078 193.636H162.416C162.686 192.088 163.64 191.08 164.882 191.08ZM176.437 186.328H174.907V199H176.437V186.328ZM186.378 196.966L185.154 196.498C184.686 197.416 183.822 197.974 182.85 197.974C181.356 197.974 180.276 196.732 180.168 194.86H186.36C186.414 194.626 186.45 194.14 186.45 193.744C186.45 191.458 184.884 189.838 182.706 189.838C180.33 189.838 178.566 191.854 178.566 194.608C178.566 197.308 180.33 199.234 182.76 199.234C184.362 199.234 185.748 198.388 186.378 196.966ZM182.724 191.08C183.984 191.08 184.866 192.088 184.92 193.636H180.258C180.528 192.088 181.482 191.08 182.724 191.08ZM205.277 199V193.096C205.277 191.188 203.981 189.838 202.307 189.838C201.119 189.838 200.075 190.558 199.445 191.512C198.959 190.486 198.023 189.838 196.925 189.838C195.737 189.838 194.747 190.594 194.225 191.44V190.072H192.749V199H194.279V192.484C194.783 191.728 195.647 191.134 196.529 191.134C197.519 191.134 198.239 191.962 198.239 193.204V199H199.769V193.096C199.769 192.826 199.751 192.574 199.697 192.322C200.237 191.638 201.101 191.134 201.965 191.134C202.991 191.134 203.747 191.962 203.747 193.204V199H205.277ZM209.449 190.072H207.919V199H209.449V190.072ZM209.449 186.526H207.919V188.308H209.449V186.526ZM219.048 196.552C219.048 194.896 217.644 194.212 215.628 193.78C214.116 193.438 213.252 193.168 213.252 192.376C213.252 191.62 214.098 191.098 215.286 191.098C216.528 191.098 217.356 191.62 217.77 192.484L218.994 191.998C218.472 190.9 217.374 189.838 215.304 189.838C213.198 189.838 211.758 190.954 211.758 192.466C211.758 194.014 213.216 194.734 215.196 195.148C216.726 195.472 217.572 195.778 217.572 196.624C217.572 197.434 216.816 197.992 215.502 197.992C214.008 197.992 213.054 197.326 212.604 196.444L211.344 196.93C211.956 198.334 213.396 199.234 215.43 199.234C217.698 199.234 219.048 198.136 219.048 196.552ZM228.338 199V190.072H226.808V196.228C226.358 197.218 225.494 197.938 224.432 197.938C223.334 197.938 222.542 197.074 222.542 195.868V190.072H221.012V195.976C221.012 197.866 222.272 199.234 224 199.234C225.314 199.234 226.34 198.478 226.862 197.524V199H228.338ZM232.635 199V193.672C232.779 192.484 233.499 191.368 234.885 191.368C235.191 191.368 235.623 191.422 235.875 191.494V189.982C235.695 189.91 235.263 189.838 234.957 189.838C233.913 189.838 232.941 190.756 232.581 191.89V190.072H231.105V199H232.635ZM244.544 196.966L243.32 196.498C242.852 197.416 241.988 197.974 241.016 197.974C239.522 197.974 238.442 196.732 238.334 194.86H244.526C244.58 194.626 244.616 194.14 244.616 193.744C244.616 191.458 243.05 189.838 240.872 189.838C238.496 189.838 236.732 191.854 236.732 194.608C236.732 197.308 238.496 199.234 240.926 199.234C242.528 199.234 243.914 198.388 244.544 196.966ZM240.89 191.08C242.15 191.08 243.032 192.088 243.086 193.636H238.424C238.694 192.088 239.648 191.08 240.89 191.08ZM254.461 197.956C252.967 197.956 251.905 196.534 251.905 194.59C251.905 192.592 253.021 191.134 254.569 191.134C255.523 191.134 256.405 191.566 256.873 192.25V196.66C256.351 197.434 255.397 197.956 254.461 197.956ZM258.403 199V186.328H256.873V191.044C256.261 190.324 255.217 189.838 254.245 189.838C251.941 189.838 250.267 191.836 250.267 194.608C250.267 197.29 251.887 199.234 254.119 199.234C255.145 199.234 256.297 198.604 256.963 197.722V199H258.403ZM262.711 190.072H261.181V199H262.711V190.072ZM262.711 186.526H261.181V188.308H262.711V186.526ZM91.238 219.956C90.392 219.956 89.456 219.506 88.916 218.858V214.52C89.384 213.8 90.266 213.098 91.31 213.098C92.804 213.098 93.92 214.448 93.92 216.5C93.92 218.534 92.804 219.956 91.238 219.956ZM95.54 216.5C95.54 213.764 93.812 211.838 91.706 211.838C90.338 211.838 89.33 212.666 88.862 213.404V212.072H87.386V224.276H88.916V220.064C89.492 220.766 90.482 221.234 91.544 221.234C93.794 221.234 95.54 219.236 95.54 216.5ZM105.644 216.554C105.644 213.818 103.826 211.838 101.324 211.838C98.8216 211.838 96.9856 213.818 96.9856 216.554C96.9856 219.254 98.8216 221.234 101.324 221.234C103.826 221.234 105.644 219.254 105.644 216.554ZM98.6056 216.554C98.6056 214.574 99.7396 213.116 101.324 213.116C102.89 213.116 104.024 214.574 104.024 216.554C104.024 218.498 102.89 219.938 101.324 219.938C99.7396 219.938 98.6056 218.498 98.6056 216.554ZM109.271 208.328H107.741V221H109.271V208.328ZM113.578 212.072H112.048V221H113.578V212.072ZM113.578 208.526H112.048V210.308H113.578V208.526ZM121.431 220.946V219.668C121.053 219.812 120.423 219.92 119.865 219.92C118.731 219.92 118.281 219.362 118.281 218.516V213.332H121.377V212.072H118.281V209.894H116.751V212.072H115.437V213.332H116.751V218.768C116.751 220.334 117.813 221.234 119.595 221.234C120.261 221.234 121.035 221.09 121.431 220.946ZM124.67 212.072H123.14V221H124.67V212.072ZM124.67 208.526H123.14V210.308H124.67V208.526ZM134.377 218.804L133.081 218.3C132.649 219.29 131.929 219.92 130.939 219.92C129.481 219.92 128.419 218.534 128.419 216.608C128.419 214.592 129.445 213.134 130.867 213.134C131.767 213.134 132.541 213.692 132.973 214.736L134.305 214.196C133.675 212.756 132.469 211.838 130.831 211.838C128.491 211.838 126.799 213.836 126.799 216.608C126.799 219.29 128.509 221.234 130.885 221.234C132.523 221.234 133.801 220.208 134.377 218.804ZM143.634 221.144L143.706 219.974C143.598 219.992 143.418 220.01 143.31 220.01C142.77 220.01 142.5 219.632 142.5 219.146V215.042C142.5 212.972 141.24 211.838 139.296 211.838C137.748 211.838 136.398 212.702 135.75 214.106L136.938 214.592C137.388 213.746 138.09 213.116 139.152 213.116C140.25 213.116 140.97 213.872 140.97 214.988V215.69L138.882 215.942C136.902 216.194 135.498 217.148 135.498 218.804C135.498 220.226 136.632 221.234 138.216 221.234C139.476 221.234 140.466 220.622 141.042 219.668C141.258 220.694 141.924 221.234 142.932 221.234C143.202 221.234 143.418 221.198 143.634 221.144ZM138.63 219.992C137.73 219.992 137.1 219.452 137.1 218.696C137.1 217.778 137.964 217.238 139.152 217.094L140.97 216.878V218.516C140.502 219.38 139.62 219.992 138.63 219.992ZM156.42 218.804L155.124 218.3C154.692 219.29 153.972 219.92 152.982 219.92C151.524 219.92 150.462 218.534 150.462 216.608C150.462 214.592 151.488 213.134 152.91 213.134C153.81 213.134 154.584 213.692 155.016 214.736L156.348 214.196C155.718 212.756 154.512 211.838 152.874 211.838C150.534 211.838 148.842 213.836 148.842 216.608C148.842 219.29 150.552 221.234 152.928 221.234C154.566 221.234 155.844 220.208 156.42 218.804ZM159.809 208.328H158.279V221H159.809V208.328ZM164.115 212.072H162.585V221H164.115V212.072ZM164.115 208.526H162.585V210.308H164.115V208.526ZM179.42 221V215.096C179.42 213.188 178.124 211.838 176.45 211.838C175.262 211.838 174.218 212.558 173.588 213.512C173.102 212.486 172.166 211.838 171.068 211.838C169.88 211.838 168.89 212.594 168.368 213.44V212.072H166.892V221H168.422V214.484C168.926 213.728 169.79 213.134 170.672 213.134C171.662 213.134 172.382 213.962 172.382 215.204V221H173.912V215.096C173.912 214.826 173.894 214.574 173.84 214.322C174.38 213.638 175.244 213.134 176.108 213.134C177.134 213.134 177.89 213.962 177.89 215.204V221H179.42ZM189.46 221.144L189.532 219.974C189.424 219.992 189.244 220.01 189.136 220.01C188.596 220.01 188.326 219.632 188.326 219.146V215.042C188.326 212.972 187.066 211.838 185.122 211.838C183.574 211.838 182.224 212.702 181.576 214.106L182.764 214.592C183.214 213.746 183.916 213.116 184.978 213.116C186.076 213.116 186.796 213.872 186.796 214.988V215.69L184.708 215.942C182.728 216.194 181.324 217.148 181.324 218.804C181.324 220.226 182.458 221.234 184.042 221.234C185.302 221.234 186.292 220.622 186.868 219.668C187.084 220.694 187.75 221.234 188.758 221.234C189.028 221.234 189.244 221.198 189.46 221.144ZM184.456 219.992C183.556 219.992 182.926 219.452 182.926 218.696C182.926 217.778 183.79 217.238 184.978 217.094L186.796 216.878V218.516C186.328 219.38 185.446 219.992 184.456 219.992ZM196.243 220.946V219.668C195.865 219.812 195.235 219.92 194.677 219.92C193.543 219.92 193.093 219.362 193.093 218.516V213.332H196.189V212.072H193.093V209.894H191.563V212.072H190.249V213.332H191.563V218.768C191.563 220.334 192.625 221.234 194.407 221.234C195.073 221.234 195.847 221.09 196.243 220.946ZM199.482 212.072H197.952V221H199.482V212.072ZM199.482 208.526H197.952V210.308H199.482V208.526ZM209.189 218.804L207.893 218.3C207.461 219.29 206.741 219.92 205.751 219.92C204.293 219.92 203.231 218.534 203.231 216.608C203.231 214.592 204.257 213.134 205.679 213.134C206.579 213.134 207.353 213.692 207.785 214.736L209.117 214.196C208.487 212.756 207.281 211.838 205.643 211.838C203.303 211.838 201.611 213.836 201.611 216.608C201.611 219.29 203.321 221.234 205.697 221.234C207.335 221.234 208.613 220.208 209.189 218.804ZM218.446 221.144L218.518 219.974C218.41 219.992 218.23 220.01 218.122 220.01C217.582 220.01 217.312 219.632 217.312 219.146V215.042C217.312 212.972 216.052 211.838 214.108 211.838C212.56 211.838 211.21 212.702 210.562 214.106L211.75 214.592C212.2 213.746 212.902 213.116 213.964 213.116C215.062 213.116 215.782 213.872 215.782 214.988V215.69L213.694 215.942C211.714 216.194 210.31 217.148 210.31 218.804C210.31 220.226 211.444 221.234 213.028 221.234C214.288 221.234 215.278 220.622 215.854 219.668C216.07 220.694 216.736 221.234 217.744 221.234C218.014 221.234 218.23 221.198 218.446 221.144ZM213.442 219.992C212.542 219.992 211.912 219.452 211.912 218.696C211.912 217.778 212.776 217.238 213.964 217.094L215.782 216.878V218.516C215.314 219.38 214.432 219.992 213.442 219.992ZM88.916 243V237.672C89.06 236.484 89.78 235.368 91.166 235.368C91.472 235.368 91.904 235.422 92.156 235.494V233.982C91.976 233.91 91.544 233.838 91.238 233.838C90.194 233.838 89.222 234.756 88.862 235.89V234.072H87.386V243H88.916ZM95.4375 234.072H93.9075V243H95.4375V234.072ZM95.4375 230.526H93.9075V232.308H95.4375V230.526ZM101.76 241.956C100.266 241.956 99.2041 240.534 99.2041 238.59C99.2041 236.592 100.32 235.134 101.868 235.134C102.822 235.134 103.704 235.566 104.172 236.25V240.66C103.65 241.434 102.696 241.956 101.76 241.956ZM105.702 243V230.328H104.172V235.044C103.56 234.324 102.516 233.838 101.544 233.838C99.2401 233.838 97.5661 235.836 97.5661 238.608C97.5661 241.29 99.1861 243.234 101.418 243.234C102.444 243.234 103.596 242.604 104.262 241.722V243H105.702ZM115.68 243V234.072H114.15V240.228C113.7 241.218 112.836 241.938 111.774 241.938C110.676 241.938 109.884 241.074 109.884 239.868V234.072H108.354V239.976C108.354 241.866 109.614 243.234 111.342 243.234C112.656 243.234 113.682 242.478 114.204 241.524V243H115.68ZM119.977 243V237.672C120.121 236.484 120.841 235.368 122.227 235.368C122.533 235.368 122.965 235.422 123.217 235.494V233.982C123.037 233.91 122.605 233.838 122.299 233.838C121.255 233.838 120.283 234.756 119.923 235.89V234.072H118.447V243H119.977ZM126.498 243V237.672C126.642 236.484 127.362 235.368 128.748 235.368C129.054 235.368 129.486 235.422 129.738 235.494V233.982C129.558 233.91 129.126 233.838 128.82 233.838C127.776 233.838 126.804 234.756 126.444 235.89V234.072H124.968V243H126.498ZM138.677 243.144L138.749 241.974C138.641 241.992 138.461 242.01 138.353 242.01C137.813 242.01 137.543 241.632 137.543 241.146V237.042C137.543 234.972 136.283 233.838 134.339 233.838C132.791 233.838 131.441 234.702 130.793 236.106L131.981 236.592C132.431 235.746 133.133 235.116 134.195 235.116C135.293 235.116 136.013 235.872 136.013 236.988V237.69L133.925 237.942C131.945 238.194 130.541 239.148 130.541 240.804C130.541 242.226 131.675 243.234 133.259 243.234C134.519 243.234 135.509 242.622 136.085 241.668C136.301 242.694 136.967 243.234 137.975 243.234C138.245 243.234 138.461 243.198 138.677 243.144ZM133.673 241.992C132.773 241.992 132.143 241.452 132.143 240.696C132.143 239.778 133.007 239.238 134.195 239.094L136.013 238.878V240.516C135.545 241.38 134.663 241.992 133.673 241.992ZM147.89 243V237.096C147.89 235.188 146.558 233.838 144.812 233.838C143.534 233.838 142.454 234.594 141.86 235.44V234.072H140.384V243H141.914V236.52C142.472 235.728 143.444 235.134 144.452 235.134C145.568 235.134 146.36 235.962 146.36 237.204V243H147.89ZM158.068 243V237.096C158.068 235.188 156.736 233.838 154.99 233.838C153.712 233.838 152.632 234.594 152.038 235.44V234.072H150.562V243H152.092V236.52C152.65 235.728 153.622 235.134 154.63 235.134C155.746 235.134 156.538 235.962 156.538 237.204V243H158.068ZM168.732 238.554C168.732 235.818 166.914 233.838 164.412 233.838C161.91 233.838 160.074 235.818 160.074 238.554C160.074 241.254 161.91 243.234 164.412 243.234C166.914 243.234 168.732 241.254 168.732 238.554ZM161.694 238.554C161.694 236.574 162.828 235.116 164.412 235.116C165.978 235.116 167.112 236.574 167.112 238.554C167.112 240.498 165.978 241.938 164.412 241.938C162.828 241.938 161.694 240.498 161.694 238.554ZM176.508 230.328H174.978V243H176.508V230.328ZM186.682 243.144L186.754 241.974C186.646 241.992 186.466 242.01 186.358 242.01C185.818 242.01 185.548 241.632 185.548 241.146V237.042C185.548 234.972 184.288 233.838 182.344 233.838C180.796 233.838 179.446 234.702 178.798 236.106L179.986 236.592C180.436 235.746 181.138 235.116 182.2 235.116C183.298 235.116 184.018 235.872 184.018 236.988V237.69L181.93 237.942C179.95 238.194 178.546 239.148 178.546 240.804C178.546 242.226 179.68 243.234 181.264 243.234C182.524 243.234 183.514 242.622 184.09 241.668C184.306 242.694 184.972 243.234 185.98 243.234C186.25 243.234 186.466 243.198 186.682 243.144ZM181.678 241.992C180.778 241.992 180.148 241.452 180.148 240.696C180.148 239.778 181.012 239.238 182.2 239.094L184.018 238.878V240.516C183.55 241.38 182.668 241.992 181.678 241.992ZM194.068 230.328H192.538V243H194.068V230.328ZM204.837 238.554C204.837 235.818 203.019 233.838 200.517 233.838C198.015 233.838 196.179 235.818 196.179 238.554C196.179 241.254 198.015 243.234 200.517 243.234C203.019 243.234 204.837 241.254 204.837 238.554ZM197.799 238.554C197.799 236.574 198.933 235.116 200.517 235.116C202.083 235.116 203.217 236.574 203.217 238.554C203.217 240.498 202.083 241.938 200.517 241.938C198.933 241.938 197.799 240.498 197.799 238.554ZM208.465 243V237.672C208.609 236.484 209.329 235.368 210.715 235.368C211.021 235.368 211.453 235.422 211.705 235.494V233.982C211.525 233.91 211.093 233.838 210.787 233.838C209.743 233.838 208.771 234.756 208.411 235.89V234.072H206.935V243H208.465ZM221.202 238.554C221.202 235.818 219.384 233.838 216.882 233.838C214.38 233.838 212.544 235.818 212.544 238.554C212.544 241.254 214.38 243.234 216.882 243.234C219.384 243.234 221.202 241.254 221.202 238.554ZM214.164 238.554C214.164 236.574 215.298 235.116 216.882 235.116C218.448 235.116 219.582 236.574 219.582 238.554C219.582 240.498 218.448 241.938 216.882 241.938C215.298 241.938 214.164 240.498 214.164 238.554ZM231.103 241.956C229.573 241.956 228.421 240.606 228.421 238.608C228.421 236.574 229.555 235.098 231.157 235.098C232.039 235.098 232.903 235.584 233.425 236.286V240.678C232.993 241.38 232.093 241.956 231.103 241.956ZM234.955 246.276V234.072H233.461V235.206C232.885 234.378 231.877 233.838 230.761 233.838C228.601 233.838 226.801 235.782 226.801 238.59C226.801 241.29 228.511 243.234 230.707 243.234C231.841 243.234 232.849 242.694 233.425 241.884V246.276H234.955ZM244.932 243V234.072H243.402V240.228C242.952 241.218 242.088 241.938 241.026 241.938C239.928 241.938 239.136 241.074 239.136 239.868V234.072H237.606V239.976C237.606 241.866 238.866 243.234 240.594 243.234C241.908 243.234 242.934 242.478 243.456 241.524V243H244.932ZM255.097 243.144L255.169 241.974C255.061 241.992 254.881 242.01 254.773 242.01C254.233 242.01 253.963 241.632 253.963 241.146V237.042C253.963 234.972 252.703 233.838 250.759 233.838C249.211 233.838 247.861 234.702 247.213 236.106L248.401 236.592C248.851 235.746 249.553 235.116 250.615 235.116C251.713 235.116 252.433 235.872 252.433 236.988V237.69L250.345 237.942C248.365 238.194 246.961 239.148 246.961 240.804C246.961 242.226 248.095 243.234 249.679 243.234C250.938 243.234 251.929 242.622 252.505 241.668C252.721 242.694 253.387 243.234 254.395 243.234C254.665 243.234 254.881 243.198 255.097 243.144ZM250.093 241.992C249.193 241.992 248.562 241.452 248.562 240.696C248.562 239.778 249.427 239.238 250.615 239.094L252.433 238.878V240.516C251.965 241.38 251.083 241.992 250.093 241.992ZM258.334 230.328H256.804V243H258.334V230.328ZM262.641 234.072H261.111V243H262.641V234.072ZM262.641 230.526H261.111V232.308H262.641V230.526ZM270.493 242.946V241.668C270.115 241.812 269.485 241.92 268.927 241.92C267.793 241.92 267.343 241.362 267.343 240.516V235.332H270.439V234.072H267.343V231.894H265.813V234.072H264.499V235.332H265.813V240.768C265.813 242.334 266.875 243.234 268.657 243.234C269.323 243.234 270.097 243.09 270.493 242.946ZM279.6 243.144L279.672 241.974C279.564 241.992 279.384 242.01 279.276 242.01C278.736 242.01 278.466 241.632 278.466 241.146V237.042C278.466 234.972 277.206 233.838 275.262 233.838C273.714 233.838 272.364 234.702 271.716 236.106L272.904 236.592C273.354 235.746 274.056 235.116 275.118 235.116C276.216 235.116 276.936 235.872 276.936 236.988V237.69L274.848 237.942C272.868 238.194 271.464 239.148 271.464 240.804C271.464 242.226 272.598 243.234 274.182 243.234C275.442 243.234 276.432 242.622 277.008 241.668C277.224 242.694 277.89 243.234 278.898 243.234C279.168 243.234 279.384 243.198 279.6 243.144ZM274.596 241.992C273.696 241.992 273.066 241.452 273.066 240.696C273.066 239.778 273.93 239.238 275.118 239.094L276.936 238.878V240.516C276.468 241.38 275.586 241.992 274.596 241.992ZM276.45 232.146L273.75 229.662L272.706 230.904L275.676 233.082L276.45 232.146ZM90.932 263.956C89.438 263.956 88.376 262.534 88.376 260.59C88.376 258.592 89.492 257.134 91.04 257.134C91.994 257.134 92.876 257.566 93.344 258.25V262.66C92.822 263.434 91.868 263.956 90.932 263.956ZM94.874 265V252.328H93.344V257.044C92.732 256.324 91.688 255.838 90.716 255.838C88.412 255.838 86.738 257.836 86.738 260.608C86.738 263.29 88.358 265.234 90.59 265.234C91.616 265.234 92.768 264.604 93.434 263.722V265H94.874ZM99.1816 256.072H97.6516V265H99.1816V256.072ZM99.1816 252.526H97.6516V254.308H99.1816V252.526ZM104.765 256.072L107.987 265H109.571L112.775 256.072H111.227L108.851 263.02H108.797L106.421 256.072H104.765ZM116.092 256.072H114.562V265H116.092V256.072ZM116.092 252.526H114.562V254.308H116.092V252.526ZM123.944 264.946V263.668C123.566 263.812 122.936 263.92 122.378 263.92C121.244 263.92 120.794 263.362 120.794 262.516V257.332H123.89V256.072H120.794V253.894H119.264V256.072H117.95V257.332H119.264V262.768C119.264 264.334 120.326 265.234 122.108 265.234C122.774 265.234 123.548 265.09 123.944 264.946ZM133.052 265.144L133.124 263.974C133.016 263.992 132.836 264.01 132.728 264.01C132.188 264.01 131.918 263.632 131.918 263.146V259.042C131.918 256.972 130.658 255.838 128.714 255.838C127.166 255.838 125.816 256.702 125.168 258.106L126.356 258.592C126.806 257.746 127.508 257.116 128.57 257.116C129.668 257.116 130.388 257.872 130.388 258.988V259.69L128.3 259.942C126.32 260.194 124.916 261.148 124.916 262.804C124.916 264.226 126.05 265.234 127.634 265.234C128.894 265.234 129.884 264.622 130.46 263.668C130.676 264.694 131.342 265.234 132.35 265.234C132.62 265.234 132.836 265.198 133.052 265.144ZM128.048 263.992C127.148 263.992 126.518 263.452 126.518 262.696C126.518 261.778 127.382 261.238 128.57 261.094L130.388 260.878V262.516C129.92 263.38 129.038 263.992 128.048 263.992ZM136.271 265V262.606H134.471V265H136.271Z" fill="white"/>
<path d="M89.24 302.354H87.584V314H89.24V302.354ZM93.7324 301.328H92.2024V314H93.7324V301.328ZM115.561 308.81C115.561 305.66 112.921 303.62 108.961 303.62C106.981 303.62 105.451 304.13 104.311 304.79L104.611 301.88H114.751V298.01H101.161L100.651 307.34L103.801 308.09C104.551 307.58 105.991 307.19 107.401 307.19C109.261 307.19 110.401 307.91 110.401 308.99C110.401 310.07 109.231 310.88 107.401 310.88C105.691 310.88 104.161 310.25 103.321 309.23L99.9615 311.06C101.461 313.25 104.341 314.45 107.881 314.45C112.381 314.45 115.561 312.05 115.561 308.81ZM130.45 314.03V311.63H132.7V307.76H130.45V298.04H125.77L116.92 308.03V311.63H125.5V314.03H130.45ZM125.65 307.82H121.3L125.65 302.9V307.82ZM153.92 295.55L152.51 294.14C151.13 295.28 149.03 296 146.9 296C145.34 296 143.63 295.7 142.43 295.28C141.59 294.56 140.48 294.14 139.22 294.14C136.34 294.14 134.27 296.3 134.27 299.27C134.27 302.24 136.34 304.37 139.22 304.37C142.1 304.37 144.17 302.24 144.17 299.27C144.17 298.67 144.08 298.07 143.93 297.56C144.86 297.98 145.91 298.22 146.84 298.22C147.71 298.19 148.67 297.92 149.63 297.41L135.83 313.01L137.3 314.45L153.92 295.55ZM155.6 309.35C155.6 306.38 153.53 304.22 150.65 304.22C147.77 304.22 145.7 306.38 145.7 309.35C145.7 312.32 147.77 314.45 150.65 314.45C153.53 314.45 155.6 312.32 155.6 309.35ZM148.97 309.35C148.97 307.94 149.69 306.92 150.65 306.92C151.64 306.92 152.33 307.94 152.33 309.35C152.33 310.73 151.64 311.72 150.65 311.72C149.69 311.72 148.97 310.73 148.97 309.35ZM137.54 299.27C137.54 297.86 138.26 296.84 139.22 296.84C140.21 296.84 140.9 297.86 140.9 299.27C140.9 300.65 140.21 301.64 139.22 301.64C138.26 301.64 137.54 300.65 137.54 299.27ZM165.422 312.956C163.928 312.956 162.866 311.534 162.866 309.59C162.866 307.592 163.982 306.134 165.53 306.134C166.484 306.134 167.366 306.566 167.834 307.25V311.66C167.312 312.434 166.358 312.956 165.422 312.956ZM169.364 314V301.328H167.834V306.044C167.222 305.324 166.178 304.838 165.206 304.838C162.902 304.838 161.228 306.836 161.228 309.608C161.228 312.29 162.848 314.234 165.08 314.234C166.106 314.234 167.258 313.604 167.924 312.722V314H169.364ZM179.306 311.966L178.082 311.498C177.614 312.416 176.75 312.974 175.778 312.974C174.284 312.974 173.204 311.732 173.096 309.86H179.288C179.342 309.626 179.378 309.14 179.378 308.744C179.378 306.458 177.812 304.838 175.634 304.838C173.258 304.838 171.494 306.854 171.494 309.608C171.494 312.308 173.258 314.234 175.688 314.234C177.29 314.234 178.676 313.388 179.306 311.966ZM175.652 306.08C176.912 306.08 177.794 307.088 177.848 308.636H173.186C173.456 307.088 174.41 306.08 175.652 306.08ZM183.059 305.072H181.529V314H183.059V305.072ZM183.059 301.526H181.529V303.308H183.059V301.526ZM195.222 306.332V305.072H191.964V304.712C191.964 303.236 192.702 302.372 193.89 302.372C194.376 302.372 194.97 302.462 195.366 302.624L195.402 301.346C194.988 301.22 194.268 301.094 193.728 301.094C191.676 301.094 190.434 302.444 190.434 304.73V305.072H189.282V306.332H190.434V314H191.964V306.332H195.222ZM197.994 305.072H196.464V314H197.994V305.072ZM197.994 301.526H196.464V303.308H197.994V301.526ZM208.265 314V308.096C208.265 306.188 206.933 304.838 205.187 304.838C203.909 304.838 202.829 305.594 202.235 306.44V305.072H200.759V314H202.289V307.52C202.847 306.728 203.819 306.134 204.827 306.134C205.943 306.134 206.735 306.962 206.735 308.204V314H208.265ZM212.467 301.328H210.937V314H212.467V301.328ZM222.641 314.144L222.713 312.974C222.605 312.992 222.425 313.01 222.317 313.01C221.777 313.01 221.507 312.632 221.507 312.146V308.042C221.507 305.972 220.247 304.838 218.303 304.838C216.755 304.838 215.405 305.702 214.757 307.106L215.945 307.592C216.395 306.746 217.097 306.116 218.159 306.116C219.257 306.116 219.977 306.872 219.977 307.988V308.69L217.889 308.942C215.909 309.194 214.505 310.148 214.505 311.804C214.505 313.226 215.639 314.234 217.223 314.234C218.483 314.234 219.473 313.622 220.049 312.668C220.265 313.694 220.931 314.234 221.939 314.234C222.209 314.234 222.425 314.198 222.641 314.144ZM217.637 312.992C216.737 312.992 216.107 312.452 216.107 311.696C216.107 310.778 216.971 310.238 218.159 310.094L219.977 309.878V311.516C219.509 312.38 218.627 312.992 217.637 312.992ZM231.855 314V308.096C231.855 306.188 230.523 304.838 228.777 304.838C227.499 304.838 226.419 305.594 225.825 306.44V305.072H224.349V314H225.879V307.52C226.437 306.728 227.409 306.134 228.417 306.134C229.533 306.134 230.325 306.962 230.325 308.204V314H231.855ZM238.073 312.956C236.579 312.956 235.517 311.534 235.517 309.59C235.517 307.592 236.633 306.134 238.181 306.134C239.135 306.134 240.017 306.566 240.485 307.25V311.66C239.963 312.434 239.009 312.956 238.073 312.956ZM242.015 314V301.328H240.485V306.044C239.873 305.324 238.829 304.838 237.857 304.838C235.553 304.838 233.879 306.836 233.879 309.608C233.879 312.29 235.499 314.234 237.731 314.234C238.757 314.234 239.909 313.604 240.575 312.722V314H242.015ZM251.956 311.966L250.732 311.498C250.264 312.416 249.4 312.974 248.428 312.974C246.934 312.974 245.854 311.732 245.746 309.86H251.938C251.992 309.626 252.028 309.14 252.028 308.744C252.028 306.458 250.462 304.838 248.284 304.838C245.908 304.838 244.144 306.854 244.144 309.608C244.144 312.308 245.908 314.234 248.338 314.234C249.94 314.234 251.326 313.388 251.956 311.966ZM248.302 306.08C249.562 306.08 250.444 307.088 250.498 308.636H245.836C246.106 307.088 247.06 306.08 248.302 306.08ZM261.001 311.552C261.001 309.896 259.597 309.212 257.581 308.78C256.069 308.438 255.205 308.168 255.205 307.376C255.205 306.62 256.051 306.098 257.239 306.098C258.481 306.098 259.309 306.62 259.723 307.484L260.947 306.998C260.425 305.9 259.327 304.838 257.257 304.838C255.151 304.838 253.711 305.954 253.711 307.466C253.711 309.014 255.169 309.734 257.149 310.148C258.679 310.472 259.525 310.778 259.525 311.624C259.525 312.434 258.769 312.992 257.455 312.992C255.961 312.992 255.007 312.326 254.557 311.444L253.297 311.93C253.909 313.334 255.349 314.234 257.383 314.234C259.651 314.234 261.001 313.136 261.001 311.552ZM264.621 305.072H263.091V314H264.621V305.072ZM264.621 301.526H263.091V303.308H264.621V301.526ZM88.916 336V330.672C89.06 329.484 89.78 328.368 91.166 328.368C91.472 328.368 91.904 328.422 92.156 328.494V326.982C91.976 326.91 91.544 326.838 91.238 326.838C90.194 326.838 89.222 327.756 88.862 328.89V327.072H87.386V336H88.916ZM95.4375 327.072H93.9075V336H95.4375V327.072ZM95.4375 323.526H93.9075V325.308H95.4375V323.526ZM103.29 335.946V334.668C102.912 334.812 102.282 334.92 101.724 334.92C100.59 334.92 100.14 334.362 100.14 333.516V328.332H103.236V327.072H100.14V324.894H98.6101V327.072H97.2961V328.332H98.6101V333.768C98.6101 335.334 99.6721 336.234 101.454 336.234C102.12 336.234 102.894 336.09 103.29 335.946ZM106.529 327.072H104.999V336H106.529V327.072ZM106.529 323.526H104.999V325.308H106.529V323.526ZM116.47 333.966L115.246 333.498C114.778 334.416 113.914 334.974 112.942 334.974C111.448 334.974 110.368 333.732 110.26 331.86H116.452C116.506 331.626 116.542 331.14 116.542 330.744C116.542 328.458 114.976 326.838 112.798 326.838C110.422 326.838 108.658 328.854 108.658 331.608C108.658 334.308 110.422 336.234 112.852 336.234C114.454 336.234 115.84 335.388 116.47 333.966ZM112.816 328.08C114.076 328.08 114.958 329.088 115.012 330.636H110.35C110.62 329.088 111.574 328.08 112.816 328.08ZM126.199 336V330.096C126.199 328.188 124.867 326.838 123.121 326.838C121.843 326.838 120.763 327.594 120.169 328.44V327.072H118.693V336H120.223V329.52C120.781 328.728 121.753 328.134 122.761 328.134C123.877 328.134 124.669 328.962 124.669 330.204V336H126.199ZM136.034 333.966L134.81 333.498C134.342 334.416 133.478 334.974 132.506 334.974C131.012 334.974 129.932 333.732 129.824 331.86H136.016C136.07 331.626 136.106 331.14 136.106 330.744C136.106 328.458 134.54 326.838 132.362 326.838C129.986 326.838 128.222 328.854 128.222 331.608C128.222 334.308 129.986 336.234 132.416 336.234C134.018 336.234 135.404 335.388 136.034 333.966ZM132.38 328.08C133.64 328.08 134.522 329.088 134.576 330.636H129.914C130.184 329.088 131.138 328.08 132.38 328.08ZM149.336 333.804L148.04 333.3C147.608 334.29 146.888 334.92 145.898 334.92C144.44 334.92 143.378 333.534 143.378 331.608C143.378 329.592 144.404 328.134 145.826 328.134C146.726 328.134 147.5 328.692 147.932 329.736L149.264 329.196C148.634 327.756 147.428 326.838 145.79 326.838C143.45 326.838 141.758 328.836 141.758 331.608C141.758 334.29 143.468 336.234 145.844 336.234C147.482 336.234 148.76 335.208 149.336 333.804ZM158.701 336V330.114C158.701 328.188 157.369 326.838 155.623 326.838C154.381 326.838 153.319 327.54 152.725 328.368V323.328H151.195V336H152.725V329.52C153.283 328.728 154.255 328.134 155.263 328.134C156.379 328.134 157.171 328.962 157.171 330.204V336H158.701ZM168.536 333.966L167.312 333.498C166.844 334.416 165.98 334.974 165.008 334.974C163.514 334.974 162.434 333.732 162.326 331.86H168.518C168.572 331.626 168.608 331.14 168.608 330.744C168.608 328.458 167.042 326.838 164.864 326.838C162.488 326.838 160.724 328.854 160.724 331.608C160.724 334.308 162.488 336.234 164.918 336.234C166.52 336.234 167.906 335.388 168.536 333.966ZM164.882 328.08C166.142 328.08 167.024 329.088 167.078 330.636H162.416C162.686 329.088 163.64 328.08 164.882 328.08ZM176.437 323.328H174.907V336H176.437V323.328ZM186.378 333.966L185.154 333.498C184.686 334.416 183.822 334.974 182.85 334.974C181.356 334.974 180.276 333.732 180.168 331.86H186.36C186.414 331.626 186.45 331.14 186.45 330.744C186.45 328.458 184.884 326.838 182.706 326.838C180.33 326.838 178.566 328.854 178.566 331.608C178.566 334.308 180.33 336.234 182.76 336.234C184.362 336.234 185.748 335.388 186.378 333.966ZM182.724 328.08C183.984 328.08 184.866 329.088 184.92 330.636H180.258C180.528 329.088 181.482 328.08 182.724 328.08ZM205.277 336V330.096C205.277 328.188 203.981 326.838 202.307 326.838C201.119 326.838 200.075 327.558 199.445 328.512C198.959 327.486 198.023 326.838 196.925 326.838C195.737 326.838 194.747 327.594 194.225 328.44V327.072H192.749V336H194.279V329.484C194.783 328.728 195.647 328.134 196.529 328.134C197.519 328.134 198.239 328.962 198.239 330.204V336H199.769V330.096C199.769 329.826 199.751 329.574 199.697 329.322C200.237 328.638 201.101 328.134 201.965 328.134C202.991 328.134 203.747 328.962 203.747 330.204V336H205.277ZM209.449 327.072H207.919V336H209.449V327.072ZM209.449 323.526H207.919V325.308H209.449V323.526ZM219.048 333.552C219.048 331.896 217.644 331.212 215.628 330.78C214.116 330.438 213.252 330.168 213.252 329.376C213.252 328.62 214.098 328.098 215.286 328.098C216.528 328.098 217.356 328.62 217.77 329.484L218.994 328.998C218.472 327.9 217.374 326.838 215.304 326.838C213.198 326.838 211.758 327.954 211.758 329.466C211.758 331.014 213.216 331.734 215.196 332.148C216.726 332.472 217.572 332.778 217.572 333.624C217.572 334.434 216.816 334.992 215.502 334.992C214.008 334.992 213.054 334.326 212.604 333.444L211.344 333.93C211.956 335.334 213.396 336.234 215.43 336.234C217.698 336.234 219.048 335.136 219.048 333.552ZM228.338 336V327.072H226.808V333.228C226.358 334.218 225.494 334.938 224.432 334.938C223.334 334.938 222.542 334.074 222.542 332.868V327.072H221.012V332.976C221.012 334.866 222.272 336.234 224 336.234C225.314 336.234 226.34 335.478 226.862 334.524V336H228.338ZM232.635 336V330.672C232.779 329.484 233.499 328.368 234.885 328.368C235.191 328.368 235.623 328.422 235.875 328.494V326.982C235.695 326.91 235.263 326.838 234.957 326.838C233.913 326.838 232.941 327.756 232.581 328.89V327.072H231.105V336H232.635ZM244.544 333.966L243.32 333.498C242.852 334.416 241.988 334.974 241.016 334.974C239.522 334.974 238.442 333.732 238.334 331.86H244.526C244.58 331.626 244.616 331.14 244.616 330.744C244.616 328.458 243.05 326.838 240.872 326.838C238.496 326.838 236.732 328.854 236.732 331.608C236.732 334.308 238.496 336.234 240.926 336.234C242.528 336.234 243.914 335.388 244.544 333.966ZM240.89 328.08C242.15 328.08 243.032 329.088 243.086 330.636H238.424C238.694 329.088 239.648 328.08 240.89 328.08ZM254.461 334.956C252.967 334.956 251.905 333.534 251.905 331.59C251.905 329.592 253.021 328.134 254.569 328.134C255.523 328.134 256.405 328.566 256.873 329.25V333.66C256.351 334.434 255.397 334.956 254.461 334.956ZM258.403 336V323.328H256.873V328.044C256.261 327.324 255.217 326.838 254.245 326.838C251.941 326.838 250.267 328.836 250.267 331.608C250.267 334.29 251.887 336.234 254.119 336.234C255.145 336.234 256.297 335.604 256.963 334.722V336H258.403ZM262.711 327.072H261.181V336H262.711V327.072ZM262.711 323.526H261.181V325.308H262.711V323.526ZM91.238 356.956C90.392 356.956 89.456 356.506 88.916 355.858V351.52C89.384 350.8 90.266 350.098 91.31 350.098C92.804 350.098 93.92 351.448 93.92 353.5C93.92 355.534 92.804 356.956 91.238 356.956ZM95.54 353.5C95.54 350.764 93.812 348.838 91.706 348.838C90.338 348.838 89.33 349.666 88.862 350.404V349.072H87.386V361.276H88.916V357.064C89.492 357.766 90.482 358.234 91.544 358.234C93.794 358.234 95.54 356.236 95.54 353.5ZM105.644 353.554C105.644 350.818 103.826 348.838 101.324 348.838C98.8216 348.838 96.9856 350.818 96.9856 353.554C96.9856 356.254 98.8216 358.234 101.324 358.234C103.826 358.234 105.644 356.254 105.644 353.554ZM98.6056 353.554C98.6056 351.574 99.7396 350.116 101.324 350.116C102.89 350.116 104.024 351.574 104.024 353.554C104.024 355.498 102.89 356.938 101.324 356.938C99.7396 356.938 98.6056 355.498 98.6056 353.554ZM109.271 345.328H107.741V358H109.271V345.328ZM113.578 349.072H112.048V358H113.578V349.072ZM113.578 345.526H112.048V347.308H113.578V345.526ZM121.431 357.946V356.668C121.053 356.812 120.423 356.92 119.865 356.92C118.731 356.92 118.281 356.362 118.281 355.516V350.332H121.377V349.072H118.281V346.894H116.751V349.072H115.437V350.332H116.751V355.768C116.751 357.334 117.813 358.234 119.595 358.234C120.261 358.234 121.035 358.09 121.431 357.946ZM124.67 349.072H123.14V358H124.67V349.072ZM124.67 345.526H123.14V347.308H124.67V345.526ZM134.377 355.804L133.081 355.3C132.649 356.29 131.929 356.92 130.939 356.92C129.481 356.92 128.419 355.534 128.419 353.608C128.419 351.592 129.445 350.134 130.867 350.134C131.767 350.134 132.541 350.692 132.973 351.736L134.305 351.196C133.675 349.756 132.469 348.838 130.831 348.838C128.491 348.838 126.799 350.836 126.799 353.608C126.799 356.29 128.509 358.234 130.885 358.234C132.523 358.234 133.801 357.208 134.377 355.804ZM143.634 358.144L143.706 356.974C143.598 356.992 143.418 357.01 143.31 357.01C142.77 357.01 142.5 356.632 142.5 356.146V352.042C142.5 349.972 141.24 348.838 139.296 348.838C137.748 348.838 136.398 349.702 135.75 351.106L136.938 351.592C137.388 350.746 138.09 350.116 139.152 350.116C140.25 350.116 140.97 350.872 140.97 351.988V352.69L138.882 352.942C136.902 353.194 135.498 354.148 135.498 355.804C135.498 357.226 136.632 358.234 138.216 358.234C139.476 358.234 140.466 357.622 141.042 356.668C141.258 357.694 141.924 358.234 142.932 358.234C143.202 358.234 143.418 358.198 143.634 358.144ZM138.63 356.992C137.73 356.992 137.1 356.452 137.1 355.696C137.1 354.778 137.964 354.238 139.152 354.094L140.97 353.878V355.516C140.502 356.38 139.62 356.992 138.63 356.992ZM156.42 355.804L155.124 355.3C154.692 356.29 153.972 356.92 152.982 356.92C151.524 356.92 150.462 355.534 150.462 353.608C150.462 351.592 151.488 350.134 152.91 350.134C153.81 350.134 154.584 350.692 155.016 351.736L156.348 351.196C155.718 349.756 154.512 348.838 152.874 348.838C150.534 348.838 148.842 350.836 148.842 353.608C148.842 356.29 150.552 358.234 152.928 358.234C154.566 358.234 155.844 357.208 156.42 355.804ZM159.809 345.328H158.279V358H159.809V345.328ZM164.115 349.072H162.585V358H164.115V349.072ZM164.115 345.526H162.585V347.308H164.115V345.526ZM179.42 358V352.096C179.42 350.188 178.124 348.838 176.45 348.838C175.262 348.838 174.218 349.558 173.588 350.512C173.102 349.486 172.166 348.838 171.068 348.838C169.88 348.838 168.89 349.594 168.368 350.44V349.072H166.892V358H168.422V351.484C168.926 350.728 169.79 350.134 170.672 350.134C171.662 350.134 172.382 350.962 172.382 352.204V358H173.912V352.096C173.912 351.826 173.894 351.574 173.84 351.322C174.38 350.638 175.244 350.134 176.108 350.134C177.134 350.134 177.89 350.962 177.89 352.204V358H179.42ZM189.46 358.144L189.532 356.974C189.424 356.992 189.244 357.01 189.136 357.01C188.596 357.01 188.326 356.632 188.326 356.146V352.042C188.326 349.972 187.066 348.838 185.122 348.838C183.574 348.838 182.224 349.702 181.576 351.106L182.764 351.592C183.214 350.746 183.916 350.116 184.978 350.116C186.076 350.116 186.796 350.872 186.796 351.988V352.69L184.708 352.942C182.728 353.194 181.324 354.148 181.324 355.804C181.324 357.226 182.458 358.234 184.042 358.234C185.302 358.234 186.292 357.622 186.868 356.668C187.084 357.694 187.75 358.234 188.758 358.234C189.028 358.234 189.244 358.198 189.46 358.144ZM184.456 356.992C183.556 356.992 182.926 356.452 182.926 355.696C182.926 354.778 183.79 354.238 184.978 354.094L186.796 353.878V355.516C186.328 356.38 185.446 356.992 184.456 356.992ZM196.243 357.946V356.668C195.865 356.812 195.235 356.92 194.677 356.92C193.543 356.92 193.093 356.362 193.093 355.516V350.332H196.189V349.072H193.093V346.894H191.563V349.072H190.249V350.332H191.563V355.768C191.563 357.334 192.625 358.234 194.407 358.234C195.073 358.234 195.847 358.09 196.243 357.946ZM199.482 349.072H197.952V358H199.482V349.072ZM199.482 345.526H197.952V347.308H199.482V345.526ZM209.189 355.804L207.893 355.3C207.461 356.29 206.741 356.92 205.751 356.92C204.293 356.92 203.231 355.534 203.231 353.608C203.231 351.592 204.257 350.134 205.679 350.134C206.579 350.134 207.353 350.692 207.785 351.736L209.117 351.196C208.487 349.756 207.281 348.838 205.643 348.838C203.303 348.838 201.611 350.836 201.611 353.608C201.611 356.29 203.321 358.234 205.697 358.234C207.335 358.234 208.613 357.208 209.189 355.804ZM218.446 358.144L218.518 356.974C218.41 356.992 218.23 357.01 218.122 357.01C217.582 357.01 217.312 356.632 217.312 356.146V352.042C217.312 349.972 216.052 348.838 214.108 348.838C212.56 348.838 211.21 349.702 210.562 351.106L211.75 351.592C212.2 350.746 212.902 350.116 213.964 350.116C215.062 350.116 215.782 350.872 215.782 351.988V352.69L213.694 352.942C211.714 353.194 210.31 354.148 210.31 355.804C210.31 357.226 211.444 358.234 213.028 358.234C214.288 358.234 215.278 357.622 215.854 356.668C216.07 357.694 216.736 358.234 217.744 358.234C218.014 358.234 218.23 358.198 218.446 358.144ZM213.442 356.992C212.542 356.992 211.912 356.452 211.912 355.696C211.912 354.778 212.776 354.238 213.964 354.094L215.782 353.878V355.516C215.314 356.38 214.432 356.992 213.442 356.992ZM88.916 380V374.672C89.06 373.484 89.78 372.368 91.166 372.368C91.472 372.368 91.904 372.422 92.156 372.494V370.982C91.976 370.91 91.544 370.838 91.238 370.838C90.194 370.838 89.222 371.756 88.862 372.89V371.072H87.386V380H88.916ZM101.095 380.144L101.167 378.974C101.059 378.992 100.879 379.01 100.771 379.01C100.231 379.01 99.9605 378.632 99.9605 378.146V374.042C99.9605 371.972 98.7005 370.838 96.7565 370.838C95.2085 370.838 93.8585 371.702 93.2105 373.106L94.3985 373.592C94.8485 372.746 95.5505 372.116 96.6125 372.116C97.7105 372.116 98.4305 372.872 98.4305 373.988V374.69L96.3425 374.942C94.3625 375.194 92.9585 376.148 92.9585 377.804C92.9585 379.226 94.0925 380.234 95.6765 380.234C96.9365 380.234 97.9265 379.622 98.5025 378.668C98.7185 379.694 99.3845 380.234 100.393 380.234C100.663 380.234 100.879 380.198 101.095 380.144ZM96.0905 378.992C95.1905 378.992 94.5605 378.452 94.5605 377.696C94.5605 376.778 95.4245 376.238 96.6125 376.094L98.4305 375.878V377.516C97.9625 378.38 97.0805 378.992 96.0905 378.992ZM104.332 367.328H102.802V380H104.332V367.328ZM108.639 367.328H107.109V380H108.639V367.328ZM118.579 377.966L117.355 377.498C116.887 378.416 116.023 378.974 115.051 378.974C113.557 378.974 112.477 377.732 112.369 375.86H118.561C118.615 375.626 118.651 375.14 118.651 374.744C118.651 372.458 117.085 370.838 114.907 370.838C112.531 370.838 110.767 372.854 110.767 375.608C110.767 378.308 112.531 380.234 114.961 380.234C116.563 380.234 117.949 379.388 118.579 377.966ZM114.925 372.08C116.185 372.08 117.067 373.088 117.121 374.636H112.459C112.729 373.088 113.683 372.08 114.925 372.08ZM128.308 380V374.096C128.308 372.188 126.976 370.838 125.23 370.838C123.952 370.838 122.872 371.594 122.278 372.44V371.072H120.802V380H122.332V373.52C122.89 372.728 123.862 372.134 124.87 372.134C125.986 372.134 126.778 372.962 126.778 374.204V380H128.308ZM135.95 379.946V378.668C135.572 378.812 134.942 378.92 134.384 378.92C133.25 378.92 132.8 378.362 132.8 377.516V372.332H135.896V371.072H132.8V368.894H131.27V371.072H129.956V372.332H131.27V377.768C131.27 379.334 132.332 380.234 134.114 380.234C134.78 380.234 135.554 380.09 135.95 379.946ZM144.736 377.966L143.512 377.498C143.044 378.416 142.18 378.974 141.208 378.974C139.714 378.974 138.634 377.732 138.526 375.86H144.718C144.772 375.626 144.808 375.14 144.808 374.744C144.808 372.458 143.242 370.838 141.064 370.838C138.688 370.838 136.924 372.854 136.924 375.608C136.924 378.308 138.688 380.234 141.118 380.234C142.72 380.234 144.106 379.388 144.736 377.966ZM141.082 372.08C142.342 372.08 143.224 373.088 143.278 374.636H138.616C138.886 373.088 139.84 372.08 141.082 372.08ZM148.488 380V374.672C148.632 373.484 149.352 372.368 150.738 372.368C151.044 372.368 151.476 372.422 151.728 372.494V370.982C151.548 370.91 151.116 370.838 150.81 370.838C149.766 370.838 148.794 371.756 148.434 372.89V371.072H146.958V380H148.488ZM160.667 380.144L160.739 378.974C160.631 378.992 160.451 379.01 160.343 379.01C159.803 379.01 159.533 378.632 159.533 378.146V374.042C159.533 371.972 158.273 370.838 156.329 370.838C154.781 370.838 153.431 371.702 152.783 373.106L153.971 373.592C154.421 372.746 155.123 372.116 156.185 372.116C157.283 372.116 158.003 372.872 158.003 373.988V374.69L155.915 374.942C153.935 375.194 152.531 376.148 152.531 377.804C152.531 379.226 153.665 380.234 155.249 380.234C156.509 380.234 157.499 379.622 158.075 378.668C158.291 379.694 158.957 380.234 159.965 380.234C160.235 380.234 160.451 380.198 160.667 380.144ZM155.663 378.992C154.763 378.992 154.133 378.452 154.133 377.696C154.133 376.778 154.997 376.238 156.185 376.094L158.003 375.878V377.516C157.535 378.38 156.653 378.992 155.663 378.992ZM169.88 380V374.096C169.88 372.188 168.548 370.838 166.802 370.838C165.524 370.838 164.444 371.594 163.85 372.44V371.072H162.374V380H163.904V373.52C164.462 372.728 165.434 372.134 166.442 372.134C167.558 372.134 168.35 372.962 168.35 374.204V380H169.88ZM180.058 380V374.096C180.058 372.188 178.726 370.838 176.98 370.838C175.702 370.838 174.622 371.594 174.028 372.44V371.072H172.552V380H174.082V373.52C174.64 372.728 175.612 372.134 176.62 372.134C177.736 372.134 178.528 372.962 178.528 374.204V380H180.058ZM190.722 375.554C190.722 372.818 188.904 370.838 186.402 370.838C183.9 370.838 182.064 372.818 182.064 375.554C182.064 378.254 183.9 380.234 186.402 380.234C188.904 380.234 190.722 378.254 190.722 375.554ZM183.684 375.554C183.684 373.574 184.818 372.116 186.402 372.116C187.968 372.116 189.102 373.574 189.102 375.554C189.102 377.498 187.968 378.938 186.402 378.938C184.818 378.938 183.684 377.498 183.684 375.554ZM198.498 367.328H196.968V380H198.498V367.328ZM208.673 380.144L208.745 378.974C208.637 378.992 208.457 379.01 208.349 379.01C207.809 379.01 207.539 378.632 207.539 378.146V374.042C207.539 371.972 206.279 370.838 204.335 370.838C202.787 370.838 201.437 371.702 200.789 373.106L201.977 373.592C202.427 372.746 203.129 372.116 204.191 372.116C205.289 372.116 206.009 372.872 206.009 373.988V374.69L203.921 374.942C201.941 375.194 200.537 376.148 200.537 377.804C200.537 379.226 201.671 380.234 203.255 380.234C204.515 380.234 205.505 379.622 206.081 378.668C206.297 379.694 206.963 380.234 207.971 380.234C208.241 380.234 208.457 380.198 208.673 380.144ZM203.669 378.992C202.769 378.992 202.139 378.452 202.139 377.696C202.139 376.778 203.003 376.238 204.191 376.094L206.009 375.878V377.516C205.541 378.38 204.659 378.992 203.669 378.992ZM94.316 399.804L93.02 399.3C92.588 400.29 91.868 400.92 90.878 400.92C89.42 400.92 88.358 399.534 88.358 397.608C88.358 395.592 89.384 394.134 90.806 394.134C91.706 394.134 92.48 394.692 92.912 395.736L94.244 395.196C93.614 393.756 92.408 392.838 90.77 392.838C88.43 392.838 86.738 394.836 86.738 397.608C86.738 400.29 88.448 402.234 90.824 402.234C92.462 402.234 93.74 401.208 94.316 399.804ZM97.7051 402V396.672C97.8491 395.484 98.5691 394.368 99.9551 394.368C100.261 394.368 100.693 394.422 100.945 394.494V392.982C100.765 392.91 100.333 392.838 100.027 392.838C98.9831 392.838 98.0111 393.756 97.6511 394.89V393.072H96.1751V402H97.7051ZM109.614 399.966L108.39 399.498C107.922 400.416 107.058 400.974 106.086 400.974C104.592 400.974 103.512 399.732 103.404 397.86H109.596C109.65 397.626 109.686 397.14 109.686 396.744C109.686 394.458 108.12 392.838 105.942 392.838C103.566 392.838 101.802 394.854 101.802 397.608C101.802 400.308 103.566 402.234 105.996 402.234C107.598 402.234 108.984 401.388 109.614 399.966ZM105.96 394.08C107.22 394.08 108.102 395.088 108.156 396.636H103.494C103.764 395.088 104.718 394.08 105.96 394.08ZM118.659 399.552C118.659 397.896 117.255 397.212 115.239 396.78C113.727 396.438 112.863 396.168 112.863 395.376C112.863 394.62 113.709 394.098 114.897 394.098C116.139 394.098 116.967 394.62 117.381 395.484L118.605 394.998C118.083 393.9 116.985 392.838 114.915 392.838C112.809 392.838 111.369 393.954 111.369 395.466C111.369 397.014 112.827 397.734 114.807 398.148C116.337 398.472 117.183 398.778 117.183 399.624C117.183 400.434 116.427 400.992 115.113 400.992C113.619 400.992 112.665 400.326 112.215 399.444L110.955 399.93C111.567 401.334 113.007 402.234 115.041 402.234C117.309 402.234 118.659 401.136 118.659 399.552ZM127.679 399.804L126.383 399.3C125.951 400.29 125.231 400.92 124.241 400.92C122.783 400.92 121.721 399.534 121.721 397.608C121.721 395.592 122.747 394.134 124.169 394.134C125.069 394.134 125.843 394.692 126.275 395.736L127.607 395.196C126.977 393.756 125.771 392.838 124.133 392.838C121.793 392.838 120.101 394.836 120.101 397.608C120.101 400.29 121.811 402.234 124.187 402.234C125.825 402.234 127.103 401.208 127.679 399.804ZM131.068 393.072H129.538V402H131.068V393.072ZM131.068 389.526H129.538V391.308H131.068V389.526ZM138.921 401.946V400.668C138.543 400.812 137.913 400.92 137.355 400.92C136.221 400.92 135.771 400.362 135.771 399.516V394.332H138.867V393.072H135.771V390.894H134.241V393.072H132.927V394.332H134.241V399.768C134.241 401.334 135.303 402.234 137.085 402.234C137.751 402.234 138.525 402.09 138.921 401.946ZM148.028 402.144L148.1 400.974C147.992 400.992 147.812 401.01 147.704 401.01C147.164 401.01 146.894 400.632 146.894 400.146V396.042C146.894 393.972 145.634 392.838 143.69 392.838C142.142 392.838 140.792 393.702 140.144 395.106L141.332 395.592C141.782 394.746 142.484 394.116 143.546 394.116C144.644 394.116 145.364 394.872 145.364 395.988V396.69L143.276 396.942C141.296 397.194 139.892 398.148 139.892 399.804C139.892 401.226 141.026 402.234 142.61 402.234C143.87 402.234 144.86 401.622 145.436 400.668C145.652 401.694 146.318 402.234 147.326 402.234C147.596 402.234 147.812 402.198 148.028 402.144ZM143.024 400.992C142.124 400.992 141.494 400.452 141.494 399.696C141.494 398.778 142.358 398.238 143.546 398.094L145.364 397.878V399.516C144.896 400.38 144.014 400.992 143.024 400.992ZM161.048 399.966L159.824 399.498C159.356 400.416 158.492 400.974 157.52 400.974C156.026 400.974 154.946 399.732 154.838 397.86H161.03C161.084 397.626 161.12 397.14 161.12 396.744C161.12 394.458 159.554 392.838 157.376 392.838C155 392.838 153.236 394.854 153.236 397.608C153.236 400.308 155 402.234 157.43 402.234C159.032 402.234 160.418 401.388 161.048 399.966ZM157.394 394.08C158.654 394.08 159.536 395.088 159.59 396.636H154.928C155.198 395.088 156.152 394.08 157.394 394.08ZM170.201 399.804L168.905 399.3C168.473 400.29 167.753 400.92 166.763 400.92C165.305 400.92 164.243 399.534 164.243 397.608C164.243 395.592 165.269 394.134 166.691 394.134C167.591 394.134 168.365 394.692 168.797 395.736L170.129 395.196C169.499 393.756 168.293 392.838 166.655 392.838C164.315 392.838 162.623 394.836 162.623 397.608C162.623 400.29 164.333 402.234 166.709 402.234C168.347 402.234 169.625 401.208 170.201 399.804ZM180.052 397.554C180.052 394.818 178.234 392.838 175.732 392.838C173.23 392.838 171.394 394.818 171.394 397.554C171.394 400.254 173.23 402.234 175.732 402.234C178.234 402.234 180.052 400.254 180.052 397.554ZM173.014 397.554C173.014 395.574 174.148 394.116 175.732 394.116C177.298 394.116 178.432 395.574 178.432 397.554C178.432 399.498 177.298 400.938 175.732 400.938C174.148 400.938 173.014 399.498 173.014 397.554ZM189.656 402V396.096C189.656 394.188 188.324 392.838 186.578 392.838C185.3 392.838 184.22 393.594 183.626 394.44V393.072H182.15V402H183.68V395.52C184.238 394.728 185.21 394.134 186.218 394.134C187.334 394.134 188.126 394.962 188.126 396.204V402H189.656ZM200.319 397.554C200.319 394.818 198.501 392.838 195.999 392.838C193.497 392.838 191.661 394.818 191.661 397.554C191.661 400.254 193.497 402.234 195.999 402.234C198.501 402.234 200.319 400.254 200.319 397.554ZM193.281 397.554C193.281 395.574 194.415 394.116 195.999 394.116C197.565 394.116 198.699 395.574 198.699 397.554C198.699 399.498 197.565 400.938 195.999 400.938C194.415 400.938 193.281 399.498 193.281 397.554ZM214.945 402V396.096C214.945 394.188 213.649 392.838 211.975 392.838C210.787 392.838 209.743 393.558 209.113 394.512C208.627 393.486 207.691 392.838 206.593 392.838C205.405 392.838 204.415 393.594 203.893 394.44V393.072H202.417V402H203.947V395.484C204.451 394.728 205.315 394.134 206.197 394.134C207.187 394.134 207.907 394.962 207.907 396.204V402H209.437V396.096C209.437 395.826 209.419 395.574 209.365 395.322C209.905 394.638 210.769 394.134 211.633 394.134C212.659 394.134 213.415 394.962 213.415 396.204V402H214.945ZM219.117 393.072H217.587V402H219.117V393.072ZM219.117 389.526H217.587V391.308H219.117V389.526ZM228.824 399.804L227.528 399.3C227.096 400.29 226.376 400.92 225.386 400.92C223.928 400.92 222.866 399.534 222.866 397.608C222.866 395.592 223.892 394.134 225.314 394.134C226.214 394.134 226.988 394.692 227.42 395.736L228.752 395.196C228.122 393.756 226.916 392.838 225.278 392.838C222.938 392.838 221.246 394.836 221.246 397.608C221.246 400.29 222.956 402.234 225.332 402.234C226.97 402.234 228.248 401.208 228.824 399.804ZM238.081 402.144L238.153 400.974C238.045 400.992 237.865 401.01 237.757 401.01C237.217 401.01 236.947 400.632 236.947 400.146V396.042C236.947 393.972 235.687 392.838 233.743 392.838C232.195 392.838 230.845 393.702 230.197 395.106L231.385 395.592C231.835 394.746 232.537 394.116 233.599 394.116C234.697 394.116 235.417 394.872 235.417 395.988V396.69L233.329 396.942C231.349 397.194 229.945 398.148 229.945 399.804C229.945 401.226 231.079 402.234 232.663 402.234C233.923 402.234 234.913 401.622 235.489 400.668C235.705 401.694 236.371 402.234 237.379 402.234C237.649 402.234 237.865 402.198 238.081 402.144ZM233.077 400.992C232.177 400.992 231.547 400.452 231.547 399.696C231.547 398.778 232.411 398.238 233.599 398.094L235.417 397.878V399.516C234.949 400.38 234.067 400.992 233.077 400.992ZM247.483 400.956C245.989 400.956 244.927 399.534 244.927 397.59C244.927 395.592 246.043 394.134 247.591 394.134C248.545 394.134 249.427 394.566 249.895 395.25V399.66C249.373 400.434 248.419 400.956 247.483 400.956ZM251.425 402V389.328H249.895V394.044C249.283 393.324 248.239 392.838 247.267 392.838C244.963 392.838 243.289 394.836 243.289 397.608C243.289 400.29 244.909 402.234 247.141 402.234C248.167 402.234 249.319 401.604 249.985 400.722V402H251.425ZM261.366 399.966L260.142 399.498C259.674 400.416 258.81 400.974 257.838 400.974C256.344 400.974 255.264 399.732 255.156 397.86H261.348C261.402 397.626 261.438 397.14 261.438 396.744C261.438 394.458 259.872 392.838 257.694 392.838C255.318 392.838 253.554 394.854 253.554 397.608C253.554 400.308 255.318 402.234 257.748 402.234C259.35 402.234 260.736 401.388 261.366 399.966ZM257.712 394.08C258.972 394.08 259.854 395.088 259.908 396.636H255.246C255.516 395.088 256.47 394.08 257.712 394.08ZM265.119 389.328H263.589V402H265.119V389.328ZM91.238 422.956C90.392 422.956 89.456 422.506 88.916 421.858V417.52C89.384 416.8 90.266 416.098 91.31 416.098C92.804 416.098 93.92 417.448 93.92 419.5C93.92 421.534 92.804 422.956 91.238 422.956ZM95.54 419.5C95.54 416.764 93.812 414.838 91.706 414.838C90.338 414.838 89.33 415.666 88.862 416.404V415.072H87.386V427.276H88.916V423.064C89.492 423.766 90.482 424.234 91.544 424.234C93.794 424.234 95.54 422.236 95.54 419.5ZM105.05 424.144L105.122 422.974C105.014 422.992 104.834 423.01 104.726 423.01C104.186 423.01 103.916 422.632 103.916 422.146V418.042C103.916 415.972 102.656 414.838 100.712 414.838C99.1636 414.838 97.8136 415.702 97.1656 417.106L98.3536 417.592C98.8036 416.746 99.5056 416.116 100.568 416.116C101.666 416.116 102.386 416.872 102.386 417.988V418.69L100.298 418.942C98.3176 419.194 96.9136 420.148 96.9136 421.804C96.9136 423.226 98.0476 424.234 99.6316 424.234C100.892 424.234 101.882 423.622 102.458 422.668C102.674 423.694 103.34 424.234 104.348 424.234C104.618 424.234 104.834 424.198 105.05 424.144ZM100.046 422.992C99.1456 422.992 98.5156 422.452 98.5156 421.696C98.5156 420.778 99.3796 420.238 100.568 420.094L102.386 419.878V421.516C101.918 422.38 101.036 422.992 100.046 422.992ZM113.921 421.966L112.697 421.498C112.229 422.416 111.365 422.974 110.393 422.974C108.899 422.974 107.819 421.732 107.711 419.86H113.903C113.957 419.626 113.993 419.14 113.993 418.744C113.993 416.458 112.427 414.838 110.249 414.838C107.873 414.838 106.109 416.854 106.109 419.608C106.109 422.308 107.873 424.234 110.303 424.234C111.905 424.234 113.291 423.388 113.921 421.966ZM110.267 416.08C111.527 416.08 112.409 417.088 112.463 418.636H107.801C108.071 417.088 109.025 416.08 110.267 416.08ZM122.966 421.552C122.966 419.896 121.562 419.212 119.546 418.78C118.034 418.438 117.17 418.168 117.17 417.376C117.17 416.62 118.016 416.098 119.204 416.098C120.446 416.098 121.274 416.62 121.688 417.484L122.912 416.998C122.39 415.9 121.292 414.838 119.222 414.838C117.116 414.838 115.676 415.954 115.676 417.466C115.676 419.014 117.134 419.734 119.114 420.148C120.644 420.472 121.49 420.778 121.49 421.624C121.49 422.434 120.734 422.992 119.42 422.992C117.926 422.992 116.972 422.326 116.522 421.444L115.262 421.93C115.874 423.334 117.314 424.234 119.348 424.234C121.616 424.234 122.966 423.136 122.966 421.552ZM132.22 421.966L130.996 421.498C130.528 422.416 129.664 422.974 128.692 422.974C127.198 422.974 126.118 421.732 126.01 419.86H132.202C132.256 419.626 132.292 419.14 132.292 418.744C132.292 416.458 130.726 414.838 128.548 414.838C126.172 414.838 124.408 416.854 124.408 419.608C124.408 422.308 126.172 424.234 128.602 424.234C130.204 424.234 131.59 423.388 132.22 421.966ZM128.566 416.08C129.826 416.08 130.708 417.088 130.762 418.636H126.1C126.37 417.088 127.324 416.08 128.566 416.08ZM135.955 424V421.606H134.155V424H135.955Z" fill="white"/>
<mask id="mask0_1098_1105" style="mask-type:alpha" maskUnits="userSpaceOnUse" x="129" y="273" width="240" height="217">
<path d="M272.594 384.636V324.535H225.439V385.165L249.82 376.592L272.594 384.636Z" fill="white" fill-opacity="0.2"/>
<path d="M272.594 317.021C272.594 305.204 262.982 295.592 251.165 295.592H250.936V273H247.1V295.592H246.869C235.052 295.592 225.44 305.204 225.44 317.021V320.697H272.595L272.594 317.021Z" fill="white" fill-opacity="0.2"/>
<path d="M203.889 357.962C203.889 352.836 200.189 348.566 195.323 347.661V327.398H191.486V347.661C186.62 348.566 182.92 352.836 182.92 357.962V364.394H203.889L203.889 357.962Z" fill="white" fill-opacity="0.2"/>
<path d="M135.298 429.252H179.084V412.984H129L135.298 429.252Z" fill="white" fill-opacity="0.2"/>
<path d="M135.899 433.085H179.081V485.996H135.899V433.085Z" fill="white" fill-opacity="0.2"/>
<path d="M318.916 433.085H362.1V485.996H318.916V433.085Z" fill="white" fill-opacity="0.2"/>
<path d="M318.916 412.98V429.247H362.702L369 412.98H318.916Z" fill="white" fill-opacity="0.2"/>
<path d="M193.472 405.821V396.409L203.887 392.745V368.233H182.918V485.999H193.472V405.821Z" fill="white" fill-opacity="0.2"/>
<path d="M294.108 392.232L304.566 395.924V485.999H315.078V368.232H294.108V392.232Z" fill="white" fill-opacity="0.2"/>
<path d="M300.728 409.66H278.178V486.002H274.339V409.66H250.939V486.002H247.1V409.66H223.7V486.002H219.861V409.66H197.312V486.002H193.475V489.84H304.565V486.002H300.727L300.728 409.66Z" fill="white" fill-opacity="0.2"/>
<path d="M197.311 399.129V405.822H300.728V398.639L249.821 380.662L197.311 399.129Z" fill="white" fill-opacity="0.2"/>
<path d="M306.51 347.662V327.399H302.673V347.662C297.807 348.568 294.107 352.838 294.107 357.963V364.396H315.076V357.963C315.076 352.836 311.376 348.566 306.51 347.662H306.51Z" fill="white" fill-opacity="0.2"/>
</mask>
<g mask="url(#mask0_1098_1105)">
<rect x="39.9502" y="24.3123" width="309.502" height="459.367" fill="#C4C4C4"/>
</g>
<defs>
<filter id="filter0_d_1098_1105" x="0.5" y="0.5" width="413" height="551" filterUnits="userSpaceOnUse" color-interpolation-filters="sRGB">
<feFlood flood-opacity="0" result="BackgroundImageFix"/>
<feColorMatrix in="SourceAlpha" type="matrix" values="0 0 0 0 0 0 0 0 0 0 0 0 0 0 0 0 0 0 127 0" result="hardAlpha"/>
<feOffset dy="4"/>
<feGaussianBlur stdDeviation="31.5"/>
<feComposite in2="hardAlpha" operator="out"/>
<feColorMatrix type="matrix" values="0 0 0 0 0 0 0 0 0 0 0 0 0 0 0 0 0 0 0.6 0"/>
<feBlend mode="normal" in2="BackgroundImageFix" result="effect1_dropShadow_1098_1105"/>
<feBlend mode="normal" in="SourceGraphic" in2="effect1_dropShadow_1098_1105" result="shape"/>
</filter>
</defs>
</svg>
