<svg width="496" height="646" viewBox="0 0 496 646" fill="none" xmlns="http://www.w3.org/2000/svg">
<g filter="url(#filter0_d_1099_1106)">
<rect x="63" y="160" width="370" height="419" rx="4" fill="#202125"/>
<rect x="64.5" y="161.5" width="367" height="416" rx="2.5" stroke="#1767D2" stroke-width="3"/>
</g>
<path d="M431 308L65 308" stroke="#1767D2" stroke-width="3" stroke-linecap="round"/>
<path d="M431 507L65 507" stroke="#1767D2" stroke-width="3" stroke-linecap="round"/>
<path d="M91.424 544.232L86.504 546.176L87.512 548.888L90.536 547.808V553.904H87.056V557H97.568V553.904H94.496V544.232H91.424ZM110.554 557V553.808H104.29L106.474 552.512C108.154 551.528 109.786 550.208 109.786 548.048C109.786 545.624 107.554 543.896 104.53 543.896C101.722 543.896 99.4897 545.384 98.4817 547.616L101.218 548.96C101.65 547.856 102.73 547.016 103.906 547.016C104.89 547.016 105.658 547.616 105.658 548.432C105.658 549.344 104.746 550.088 103.378 551.072L98.7217 554.384V557H110.554ZM127.539 542.24L126.411 541.112C125.307 542.024 123.627 542.6 121.923 542.6C120.675 542.6 119.307 542.36 118.347 542.024C117.675 541.448 116.787 541.112 115.779 541.112C113.475 541.112 111.819 542.84 111.819 545.216C111.819 547.592 113.475 549.296 115.779 549.296C118.083 549.296 119.739 547.592 119.739 545.216C119.739 544.736 119.667 544.256 119.547 543.848C120.291 544.184 121.131 544.376 121.875 544.376C122.571 544.352 123.339 544.136 124.107 543.728L113.067 556.208L114.243 557.36L127.539 542.24ZM128.883 553.28C128.883 550.904 127.227 549.176 124.923 549.176C122.619 549.176 120.963 550.904 120.963 553.28C120.963 555.656 122.619 557.36 124.923 557.36C127.227 557.36 128.883 555.656 128.883 553.28ZM123.579 553.28C123.579 552.152 124.155 551.336 124.923 551.336C125.715 551.336 126.267 552.152 126.267 553.28C126.267 554.384 125.715 555.176 124.923 555.176C124.155 555.176 123.579 554.384 123.579 553.28ZM114.435 545.216C114.435 544.088 115.011 543.272 115.779 543.272C116.571 543.272 117.123 544.088 117.123 545.216C117.123 546.32 116.571 547.112 115.779 547.112C115.011 547.112 114.435 546.32 114.435 545.216ZM143.686 554.03L142.282 553.49C141.742 554.822 140.41 555.758 139.15 555.758C137.044 555.758 135.514 553.904 135.514 551.294C135.514 548.576 137.044 546.614 139.168 546.614C140.356 546.614 141.598 547.532 142.138 548.828L143.614 548.252C142.894 546.47 141.022 545.156 139.096 545.156C136 545.156 133.768 547.748 133.768 551.294C133.768 554.732 135.982 557.216 139.078 557.216C141.058 557.216 143.02 555.866 143.686 554.03ZM153.009 557.144L153.081 555.974C152.973 555.992 152.793 556.01 152.685 556.01C152.145 556.01 151.875 555.632 151.875 555.146V551.042C151.875 548.972 150.615 547.838 148.671 547.838C147.123 547.838 145.773 548.702 145.125 550.106L146.313 550.592C146.763 549.746 147.465 549.116 148.527 549.116C149.625 549.116 150.345 549.872 150.345 550.988V551.69L148.257 551.942C146.277 552.194 144.873 553.148 144.873 554.804C144.873 556.226 146.007 557.234 147.591 557.234C148.851 557.234 149.841 556.622 150.417 555.668C150.633 556.694 151.299 557.234 152.307 557.234C152.577 557.234 152.793 557.198 153.009 557.144ZM148.005 555.992C147.105 555.992 146.475 555.452 146.475 554.696C146.475 553.778 147.339 553.238 148.527 553.094L150.345 552.878V554.516C149.877 555.38 148.995 555.992 148.005 555.992ZM156.246 557V551.672C156.39 550.484 157.11 549.368 158.496 549.368C158.802 549.368 159.234 549.422 159.486 549.494V547.982C159.306 547.91 158.874 547.838 158.568 547.838C157.524 547.838 156.552 548.756 156.192 549.89V548.072H154.716V557H156.246ZM169.392 552.5C169.392 549.8 167.79 547.838 165.594 547.838C164.568 547.838 163.434 548.414 162.768 549.26V544.328H161.238V557H162.678V555.92C163.362 556.694 164.478 557.234 165.45 557.234C167.736 557.234 169.392 555.254 169.392 552.5ZM165.09 555.956C164.154 555.956 163.254 555.47 162.768 554.804V550.358C163.254 549.62 164.208 549.134 165.18 549.134C166.674 549.134 167.772 550.538 167.772 552.482C167.772 554.48 166.638 555.956 165.09 555.956ZM179.513 552.554C179.513 549.818 177.695 547.838 175.193 547.838C172.691 547.838 170.855 549.818 170.855 552.554C170.855 555.254 172.691 557.234 175.193 557.234C177.695 557.234 179.513 555.254 179.513 552.554ZM172.475 552.554C172.475 550.574 173.609 549.116 175.193 549.116C176.759 549.116 177.893 550.574 177.893 552.554C177.893 554.498 176.759 555.938 175.193 555.938C173.609 555.938 172.475 554.498 172.475 552.554ZM189.117 557V551.096C189.117 549.188 187.785 547.838 186.039 547.838C184.761 547.838 183.681 548.594 183.087 549.44V548.072H181.611V557H183.141V550.52C183.699 549.728 184.671 549.134 185.679 549.134C186.795 549.134 187.587 549.962 187.587 551.204V557H189.117ZM198.952 554.966L197.728 554.498C197.26 555.416 196.396 555.974 195.424 555.974C193.93 555.974 192.85 554.732 192.742 552.86H198.934C198.988 552.626 199.024 552.14 199.024 551.744C199.024 549.458 197.458 547.838 195.28 547.838C192.904 547.838 191.14 549.854 191.14 552.608C191.14 555.308 192.904 557.234 195.334 557.234C196.936 557.234 198.322 556.388 198.952 554.966ZM195.298 549.08C196.558 549.08 197.44 550.088 197.494 551.636H192.832C193.102 550.088 194.056 549.08 195.298 549.08Z" fill="white"/>
<path d="M98.816 483.4C98.816 481.696 97.52 480.64 95.744 480.28V480.184C97.376 479.776 98.384 478.696 98.384 477.352C98.384 475.312 96.032 473.872 92.816 473.872C90.152 473.872 87.92 474.904 86.72 476.848L89.432 478.336C89.936 477.448 91.04 476.92 92.192 476.92C93.392 476.92 94.256 477.448 94.256 478.192C94.256 478.888 93.56 479.368 92.36 479.368H89.96V481.792H92.48C93.896 481.792 94.688 482.08 94.688 482.896C94.688 483.712 93.776 484.288 92.288 484.288C90.8 484.288 89.672 483.736 89.12 482.896L86.36 484.36C87.488 486.352 89.984 487.336 92.816 487.336C96.368 487.336 98.816 485.728 98.816 483.4ZM110.755 487.024V485.104H112.555V482.008H110.755V474.232H107.011L99.9314 482.224V485.104H106.795V487.024H110.755ZM106.915 482.056H103.435L106.915 478.12V482.056ZM129.531 472.24L128.403 471.112C127.299 472.024 125.619 472.6 123.915 472.6C122.667 472.6 121.299 472.36 120.339 472.024C119.667 471.448 118.779 471.112 117.771 471.112C115.467 471.112 113.811 472.84 113.811 475.216C113.811 477.592 115.467 479.296 117.771 479.296C120.075 479.296 121.731 477.592 121.731 475.216C121.731 474.736 121.659 474.256 121.539 473.848C122.283 474.184 123.123 474.376 123.867 474.376C124.563 474.352 125.331 474.136 126.099 473.728L115.059 486.208L116.235 487.36L129.531 472.24ZM130.875 483.28C130.875 480.904 129.219 479.176 126.915 479.176C124.611 479.176 122.955 480.904 122.955 483.28C122.955 485.656 124.611 487.36 126.915 487.36C129.219 487.36 130.875 485.656 130.875 483.28ZM125.571 483.28C125.571 482.152 126.147 481.336 126.915 481.336C127.707 481.336 128.259 482.152 128.259 483.28C128.259 484.384 127.707 485.176 126.915 485.176C126.147 485.176 125.571 484.384 125.571 483.28ZM116.427 475.216C116.427 474.088 117.003 473.272 117.771 473.272C118.563 473.272 119.115 474.088 119.115 475.216C119.115 476.32 118.563 477.112 117.771 477.112C117.003 477.112 116.427 476.32 116.427 475.216ZM138.136 487V483.238H140.224C142.87 483.238 144.634 481.618 144.634 479.26C144.634 476.956 142.87 475.354 140.206 475.354H136.48V487H138.136ZM138.136 476.776H140.062C141.772 476.776 142.942 477.784 142.942 479.26C142.942 480.79 141.772 481.816 140.062 481.816H138.136V476.776ZM153.765 484.966L152.541 484.498C152.073 485.416 151.209 485.974 150.237 485.974C148.743 485.974 147.663 484.732 147.555 482.86H153.747C153.801 482.626 153.837 482.14 153.837 481.744C153.837 479.458 152.271 477.838 150.093 477.838C147.717 477.838 145.953 479.854 145.953 482.608C145.953 485.308 147.717 487.234 150.147 487.234C151.749 487.234 153.135 486.388 153.765 484.966ZM150.111 479.08C151.371 479.08 152.253 480.088 152.307 481.636H147.645C147.915 480.088 148.869 479.08 150.111 479.08ZM160.976 486.946V485.668C160.598 485.812 159.968 485.92 159.41 485.92C158.276 485.92 157.826 485.362 157.826 484.516V479.332H160.922V478.072H157.826V475.894H156.296V478.072H154.982V479.332H156.296V484.768C156.296 486.334 157.358 487.234 159.14 487.234C159.806 487.234 160.58 487.09 160.976 486.946ZM164.215 487V481.672C164.359 480.484 165.079 479.368 166.465 479.368C166.771 479.368 167.203 479.422 167.455 479.494V477.982C167.275 477.91 166.843 477.838 166.537 477.838C165.493 477.838 164.521 478.756 164.161 479.89V478.072H162.685V487H164.215ZM176.952 482.554C176.952 479.818 175.134 477.838 172.632 477.838C170.13 477.838 168.294 479.818 168.294 482.554C168.294 485.254 170.13 487.234 172.632 487.234C175.134 487.234 176.952 485.254 176.952 482.554ZM169.914 482.554C169.914 480.574 171.048 479.116 172.632 479.116C174.198 479.116 175.332 480.574 175.332 482.554C175.332 484.498 174.198 485.938 172.632 485.938C171.048 485.938 169.914 484.498 169.914 482.554ZM180.58 474.328H179.05V487H180.58V474.328ZM184.887 478.072H183.357V487H184.887V478.072ZM184.887 474.526H183.357V476.308H184.887V474.526ZM195.655 482.554C195.655 479.818 193.837 477.838 191.335 477.838C188.833 477.838 186.997 479.818 186.997 482.554C186.997 485.254 188.833 487.234 191.335 487.234C193.837 487.234 195.655 485.254 195.655 482.554ZM188.617 482.554C188.617 480.574 189.751 479.116 191.335 479.116C192.901 479.116 194.035 480.574 194.035 482.554C194.035 484.498 192.901 485.938 191.335 485.938C189.751 485.938 188.617 484.498 188.617 482.554Z" fill="white"/>
<path d="M98.624 288V284.808H92.36L94.544 283.512C96.224 282.528 97.856 281.208 97.856 279.048C97.856 276.624 95.624 274.896 92.6 274.896C89.792 274.896 87.56 276.384 86.552 278.616L89.288 279.96C89.72 278.856 90.8 278.016 91.976 278.016C92.96 278.016 93.728 278.616 93.728 279.432C93.728 280.344 92.816 281.088 91.448 282.072L86.792 285.384V288H98.624ZM112.993 283.728C112.993 281.352 110.857 279.624 107.881 279.624C106.441 279.624 105.073 280.056 104.137 280.704C104.425 278.784 105.505 277.656 107.185 277.656C108.361 277.656 109.441 278.184 110.089 278.976L112.657 277.416C111.673 276.072 109.705 274.896 107.017 274.896C102.841 274.896 100.009 277.752 100.009 281.784C99.9851 285.84 102.841 288.336 106.801 288.336C110.305 288.336 112.993 286.392 112.993 283.728ZM106.777 285.576C105.457 285.576 104.521 284.712 104.185 283.2C104.857 282.624 105.793 282.312 106.729 282.312C108.121 282.312 108.865 282.984 108.865 283.872C108.865 284.88 107.953 285.576 106.777 285.576ZM129.953 273.24L128.825 272.112C127.721 273.024 126.041 273.6 124.337 273.6C123.089 273.6 121.721 273.36 120.761 273.024C120.089 272.448 119.201 272.112 118.193 272.112C115.889 272.112 114.233 273.84 114.233 276.216C114.233 278.592 115.889 280.296 118.193 280.296C120.497 280.296 122.153 278.592 122.153 276.216C122.153 275.736 122.081 275.256 121.961 274.848C122.705 275.184 123.545 275.376 124.289 275.376C124.985 275.352 125.753 275.136 126.521 274.728L115.481 287.208L116.657 288.36L129.953 273.24ZM131.297 284.28C131.297 281.904 129.641 280.176 127.337 280.176C125.033 280.176 123.377 281.904 123.377 284.28C123.377 286.656 125.033 288.36 127.337 288.36C129.641 288.36 131.297 286.656 131.297 284.28ZM125.993 284.28C125.993 283.152 126.569 282.336 127.337 282.336C128.129 282.336 128.681 283.152 128.681 284.28C128.681 285.384 128.129 286.176 127.337 286.176C126.569 286.176 125.993 285.384 125.993 284.28ZM116.849 276.216C116.849 275.088 117.425 274.272 118.193 274.272C118.985 274.272 119.537 275.088 119.537 276.216C119.537 277.32 118.985 278.112 118.193 278.112C117.425 278.112 116.849 277.32 116.849 276.216ZM146.694 288V282.024H142.752V283.41H145.128V284.868C144.84 285.768 143.436 286.758 141.798 286.758C139.548 286.758 137.91 284.886 137.91 282.294C137.91 279.576 139.548 277.614 141.798 277.614C143.166 277.614 144.552 278.532 145.11 279.828L146.55 279.27C145.848 277.47 143.832 276.156 141.744 276.156C138.504 276.156 136.146 278.766 136.164 282.312C136.182 285.732 138.486 288.216 141.618 288.216C143.31 288.216 144.678 287.442 145.272 286.506L145.362 288H146.694ZM156.53 288.144L156.602 286.974C156.494 286.992 156.314 287.01 156.206 287.01C155.666 287.01 155.396 286.632 155.396 286.146V282.042C155.396 279.972 154.136 278.838 152.192 278.838C150.644 278.838 149.294 279.702 148.646 281.106L149.834 281.592C150.284 280.746 150.986 280.116 152.048 280.116C153.146 280.116 153.866 280.872 153.866 281.988V282.69L151.778 282.942C149.798 283.194 148.394 284.148 148.394 285.804C148.394 287.226 149.528 288.234 151.112 288.234C152.372 288.234 153.362 287.622 153.938 286.668C154.154 287.694 154.82 288.234 155.828 288.234C156.098 288.234 156.314 288.198 156.53 288.144ZM151.526 286.992C150.626 286.992 149.996 286.452 149.996 285.696C149.996 284.778 150.86 284.238 152.048 284.094L153.866 283.878V285.516C153.398 286.38 152.516 286.992 151.526 286.992ZM165.06 285.552C165.06 283.896 163.656 283.212 161.64 282.78C160.128 282.438 159.264 282.168 159.264 281.376C159.264 280.62 160.11 280.098 161.298 280.098C162.54 280.098 163.368 280.62 163.782 281.484L165.006 280.998C164.484 279.9 163.386 278.838 161.316 278.838C159.21 278.838 157.77 279.954 157.77 281.466C157.77 283.014 159.228 283.734 161.208 284.148C162.738 284.472 163.584 284.778 163.584 285.624C163.584 286.434 162.828 286.992 161.514 286.992C160.02 286.992 159.066 286.326 158.616 285.444L157.356 285.93C157.968 287.334 159.408 288.234 161.442 288.234C163.71 288.234 165.06 287.136 165.06 285.552Z" fill="white"/>
<rect x="64.5" y="1.5" width="367" height="158" rx="2.5" fill="#1767D2" stroke="#1767D2" stroke-width="3"/>
<path d="M98.624 41V37.808H92.36L94.544 36.512C96.224 35.528 97.856 34.208 97.856 32.048C97.856 29.624 95.624 27.896 92.6 27.896C89.792 27.896 87.56 29.384 86.552 31.616L89.288 32.96C89.72 31.856 90.8 31.016 91.976 31.016C92.96 31.016 93.728 31.616 93.728 32.432C93.728 33.344 92.816 34.088 91.448 35.072L86.792 38.384V41H98.624ZM113.161 37.256C113.161 35.912 112.441 34.952 110.665 34.256C112.057 33.656 112.849 32.768 112.849 31.568C112.849 29.48 110.329 27.896 106.705 27.896C103.033 27.896 100.393 29.552 100.393 31.928C100.393 33.248 101.209 34.184 102.673 34.832C100.921 35.384 99.9611 36.392 99.9611 37.664C99.9611 39.776 102.601 41.336 106.585 41.336C110.521 41.336 113.161 39.704 113.161 37.256ZM107.569 33.488C105.049 33.08 104.377 32.576 104.377 31.928C104.377 31.16 105.265 30.632 106.537 30.632C107.857 30.632 108.865 31.208 108.865 32.168C108.865 32.672 108.601 33.176 108.097 33.584C107.929 33.56 107.761 33.512 107.569 33.488ZM106.633 38.6C105.121 38.6 104.041 38.072 104.041 37.184C104.041 36.632 104.425 36.032 105.169 35.6C105.481 35.648 105.793 35.72 106.129 35.768C108.337 36.128 109.081 36.608 109.081 37.304C109.081 38.096 108.049 38.6 106.633 38.6ZM118.811 40.256V36.752H114.971V40.76H116.675C116.675 41.84 116.003 42.968 115.187 43.88L116.675 45.152C118.043 43.784 118.811 42.056 118.811 40.256ZM131.771 31.28V28.232H120.323V31.592H127.619L121.979 41H126.419L131.771 31.28ZM144.529 29.93L143.683 29.084C142.855 29.768 141.595 30.2 140.317 30.2C139.381 30.2 138.355 30.02 137.635 29.768C137.131 29.336 136.465 29.084 135.709 29.084C133.981 29.084 132.739 30.38 132.739 32.162C132.739 33.944 133.981 35.222 135.709 35.222C137.437 35.222 138.679 33.944 138.679 32.162C138.679 31.802 138.625 31.442 138.535 31.136C139.093 31.388 139.723 31.532 140.281 31.532C140.803 31.514 141.379 31.352 141.955 31.046L133.675 40.406L134.557 41.27L144.529 29.93ZM145.537 38.21C145.537 36.428 144.295 35.132 142.567 35.132C140.839 35.132 139.597 36.428 139.597 38.21C139.597 39.992 140.839 41.27 142.567 41.27C144.295 41.27 145.537 39.992 145.537 38.21ZM141.559 38.21C141.559 37.364 141.991 36.752 142.567 36.752C143.161 36.752 143.575 37.364 143.575 38.21C143.575 39.038 143.161 39.632 142.567 39.632C141.991 39.632 141.559 39.038 141.559 38.21ZM134.701 32.162C134.701 31.316 135.133 30.704 135.709 30.704C136.303 30.704 136.717 31.316 136.717 32.162C136.717 32.99 136.303 33.584 135.709 33.584C135.133 33.584 134.701 32.99 134.701 32.162Z" fill="white"/>
<path opacity="0.8" d="M94.064 60.068V58.682H89.24V54.776H95.288V53.354H87.584V65H89.24V60.068H94.064ZM104.642 60.554C104.642 57.818 102.824 55.838 100.322 55.838C97.8197 55.838 95.9837 57.818 95.9837 60.554C95.9837 63.254 97.8197 65.234 100.322 65.234C102.824 65.234 104.642 63.254 104.642 60.554ZM97.6037 60.554C97.6037 58.574 98.7377 57.116 100.322 57.116C101.888 57.116 103.022 58.574 103.022 60.554C103.022 62.498 101.888 63.938 100.322 63.938C98.7377 63.938 97.6037 62.498 97.6037 60.554ZM114.246 65V59.096C114.246 57.188 112.914 55.838 111.168 55.838C109.89 55.838 108.81 56.594 108.216 57.44V56.072H106.74V65H108.27V58.52C108.828 57.728 109.8 57.134 110.808 57.134C111.924 57.134 112.716 57.962 112.716 59.204V65H114.246ZM121.888 64.946V63.668C121.51 63.812 120.88 63.92 120.322 63.92C119.188 63.92 118.738 63.362 118.738 62.516V57.332H121.834V56.072H118.738V53.894H117.208V56.072H115.894V57.332H117.208V62.768C117.208 64.334 118.27 65.234 120.052 65.234C120.718 65.234 121.492 65.09 121.888 64.946ZM125.127 56.072H123.597V65H125.127V56.072ZM125.127 52.526H123.597V54.308H125.127V52.526ZM139.45 65.144L139.522 63.974C139.414 63.992 139.234 64.01 139.126 64.01C138.586 64.01 138.316 63.632 138.316 63.146V59.042C138.316 56.972 137.056 55.838 135.112 55.838C133.564 55.838 132.214 56.702 131.566 58.106L132.754 58.592C133.204 57.746 133.906 57.116 134.968 57.116C136.066 57.116 136.786 57.872 136.786 58.988V59.69L134.698 59.942C132.718 60.194 131.314 61.148 131.314 62.804C131.314 64.226 132.448 65.234 134.032 65.234C135.292 65.234 136.282 64.622 136.858 63.668C137.074 64.694 137.74 65.234 138.748 65.234C139.018 65.234 139.234 65.198 139.45 65.144ZM134.446 63.992C133.546 63.992 132.916 63.452 132.916 62.696C132.916 61.778 133.78 61.238 134.968 61.094L136.786 60.878V62.516C136.318 63.38 135.436 63.992 134.446 63.992ZM153.46 60.5C153.46 57.8 151.858 55.838 149.662 55.838C148.636 55.838 147.502 56.414 146.836 57.26V52.328H145.306V65H146.746V63.92C147.43 64.694 148.546 65.234 149.518 65.234C151.804 65.234 153.46 63.254 153.46 60.5ZM149.158 63.956C148.222 63.956 147.322 63.47 146.836 62.804V58.358C147.322 57.62 148.276 57.134 149.248 57.134C150.742 57.134 151.84 58.538 151.84 60.482C151.84 62.48 150.706 63.956 149.158 63.956ZM162.987 65.144L163.059 63.974C162.951 63.992 162.771 64.01 162.663 64.01C162.123 64.01 161.853 63.632 161.853 63.146V59.042C161.853 56.972 160.593 55.838 158.649 55.838C157.101 55.838 155.751 56.702 155.103 58.106L156.291 58.592C156.741 57.746 157.443 57.116 158.505 57.116C159.603 57.116 160.323 57.872 160.323 58.988V59.69L158.235 59.942C156.255 60.194 154.851 61.148 154.851 62.804C154.851 64.226 155.985 65.234 157.569 65.234C158.829 65.234 159.819 64.622 160.395 63.668C160.611 64.694 161.277 65.234 162.285 65.234C162.555 65.234 162.771 65.198 162.987 65.144ZM157.983 63.992C157.083 63.992 156.453 63.452 156.453 62.696C156.453 61.778 157.317 61.238 158.505 61.094L160.323 60.878V62.516C159.855 63.38 158.973 63.992 157.983 63.992ZM171.517 62.552C171.517 60.896 170.113 60.212 168.097 59.78C166.585 59.438 165.721 59.168 165.721 58.376C165.721 57.62 166.567 57.098 167.755 57.098C168.997 57.098 169.825 57.62 170.239 58.484L171.463 57.998C170.941 56.9 169.843 55.838 167.773 55.838C165.667 55.838 164.227 56.954 164.227 58.466C164.227 60.014 165.685 60.734 167.665 61.148C169.195 61.472 170.041 61.778 170.041 62.624C170.041 63.434 169.285 63.992 167.971 63.992C166.477 63.992 165.523 63.326 165.073 62.444L163.813 62.93C164.425 64.334 165.865 65.234 167.899 65.234C170.167 65.234 171.517 64.136 171.517 62.552ZM180.429 62.552C180.429 60.896 179.025 60.212 177.009 59.78C175.497 59.438 174.633 59.168 174.633 58.376C174.633 57.62 175.479 57.098 176.667 57.098C177.909 57.098 178.737 57.62 179.151 58.484L180.375 57.998C179.853 56.9 178.755 55.838 176.685 55.838C174.579 55.838 173.139 56.954 173.139 58.466C173.139 60.014 174.597 60.734 176.577 61.148C178.107 61.472 178.953 61.778 178.953 62.624C178.953 63.434 178.197 63.992 176.883 63.992C175.389 63.992 174.435 63.326 173.985 62.444L172.725 62.93C173.337 64.334 174.777 65.234 176.811 65.234C179.079 65.234 180.429 64.136 180.429 62.552ZM189.917 65.144L189.989 63.974C189.881 63.992 189.701 64.01 189.593 64.01C189.053 64.01 188.783 63.632 188.783 63.146V59.042C188.783 56.972 187.523 55.838 185.579 55.838C184.031 55.838 182.681 56.702 182.033 58.106L183.221 58.592C183.671 57.746 184.373 57.116 185.435 57.116C186.533 57.116 187.253 57.872 187.253 58.988V59.69L185.165 59.942C183.185 60.194 181.781 61.148 181.781 62.804C181.781 64.226 182.915 65.234 184.499 65.234C185.759 65.234 186.749 64.622 187.325 63.668C187.541 64.694 188.207 65.234 189.215 65.234C189.485 65.234 189.701 65.198 189.917 65.144ZM184.913 63.992C184.013 63.992 183.383 63.452 183.383 62.696C183.383 61.778 184.247 61.238 185.435 61.094L187.253 60.878V62.516C186.785 63.38 185.903 63.992 184.913 63.992ZM202.937 62.966L201.713 62.498C201.245 63.416 200.381 63.974 199.409 63.974C197.915 63.974 196.835 62.732 196.727 60.86H202.919C202.973 60.626 203.009 60.14 203.009 59.744C203.009 57.458 201.443 55.838 199.265 55.838C196.889 55.838 195.125 57.854 195.125 60.608C195.125 63.308 196.889 65.234 199.319 65.234C200.921 65.234 202.307 64.388 202.937 62.966ZM199.283 57.08C200.543 57.08 201.425 58.088 201.479 59.636H196.817C197.087 58.088 198.041 57.08 199.283 57.08ZM217.687 65V59.096C217.687 57.188 216.391 55.838 214.717 55.838C213.529 55.838 212.485 56.558 211.855 57.512C211.369 56.486 210.433 55.838 209.335 55.838C208.147 55.838 207.157 56.594 206.635 57.44V56.072H205.159V65H206.689V58.484C207.193 57.728 208.057 57.134 208.939 57.134C209.929 57.134 210.649 57.962 210.649 59.204V65H212.179V59.096C212.179 58.826 212.161 58.574 212.107 58.322C212.647 57.638 213.511 57.134 214.375 57.134C215.401 57.134 216.157 57.962 216.157 59.204V65H217.687ZM221.859 56.072H220.329V65H221.859V56.072ZM221.859 52.526H220.329V54.308H221.859V52.526ZM231.458 62.552C231.458 60.896 230.054 60.212 228.038 59.78C226.526 59.438 225.662 59.168 225.662 58.376C225.662 57.62 226.508 57.098 227.696 57.098C228.938 57.098 229.766 57.62 230.18 58.484L231.404 57.998C230.882 56.9 229.784 55.838 227.714 55.838C225.608 55.838 224.168 56.954 224.168 58.466C224.168 60.014 225.626 60.734 227.606 61.148C229.136 61.472 229.982 61.778 229.982 62.624C229.982 63.434 229.226 63.992 227.912 63.992C226.418 63.992 225.464 63.326 225.014 62.444L223.754 62.93C224.366 64.334 225.806 65.234 227.84 65.234C230.108 65.234 231.458 64.136 231.458 62.552ZM240.37 62.552C240.37 60.896 238.966 60.212 236.95 59.78C235.438 59.438 234.574 59.168 234.574 58.376C234.574 57.62 235.42 57.098 236.608 57.098C237.85 57.098 238.678 57.62 239.092 58.484L240.316 57.998C239.794 56.9 238.696 55.838 236.626 55.838C234.52 55.838 233.08 56.954 233.08 58.466C233.08 60.014 234.538 60.734 236.518 61.148C238.048 61.472 238.894 61.778 238.894 62.624C238.894 63.434 238.138 63.992 236.824 63.992C235.33 63.992 234.376 63.326 233.926 62.444L232.666 62.93C233.278 64.334 234.718 65.234 236.752 65.234C239.02 65.234 240.37 64.136 240.37 62.552ZM243.99 56.072H242.46V65H243.99V56.072ZM243.99 52.526H242.46V54.308H243.99V52.526ZM254.759 60.554C254.759 57.818 252.941 55.838 250.439 55.838C247.937 55.838 246.101 57.818 246.101 60.554C246.101 63.254 247.937 65.234 250.439 65.234C252.941 65.234 254.759 63.254 254.759 60.554ZM247.721 60.554C247.721 58.574 248.855 57.116 250.439 57.116C252.005 57.116 253.139 58.574 253.139 60.554C253.139 62.498 252.005 63.938 250.439 63.938C248.855 63.938 247.721 62.498 247.721 60.554ZM264.363 65V59.096C264.363 57.188 263.031 55.838 261.285 55.838C260.007 55.838 258.927 56.594 258.333 57.44V56.072H256.857V65H258.387V58.52C258.945 57.728 259.917 57.134 260.925 57.134C262.041 57.134 262.833 57.962 262.833 59.204V65H264.363ZM274.198 62.966L272.974 62.498C272.506 63.416 271.642 63.974 270.67 63.974C269.176 63.974 268.096 62.732 267.988 60.86H274.18C274.234 60.626 274.27 60.14 274.27 59.744C274.27 57.458 272.704 55.838 270.526 55.838C268.15 55.838 266.386 57.854 266.386 60.608C266.386 63.308 268.15 65.234 270.58 65.234C272.182 65.234 273.568 64.388 274.198 62.966ZM270.544 57.08C271.804 57.08 272.686 58.088 272.74 59.636H268.078C268.348 58.088 269.302 57.08 270.544 57.08ZM90.932 85.956C89.438 85.956 88.376 84.534 88.376 82.59C88.376 80.592 89.492 79.134 91.04 79.134C91.994 79.134 92.876 79.566 93.344 80.25V84.66C92.822 85.434 91.868 85.956 90.932 85.956ZM94.874 87V74.328H93.344V79.044C92.732 78.324 91.688 77.838 90.716 77.838C88.412 77.838 86.738 79.836 86.738 82.608C86.738 85.29 88.358 87.234 90.59 87.234C91.616 87.234 92.768 86.604 93.434 85.722V87H94.874ZM99.1816 78.072H97.6516V87H99.1816V78.072ZM99.1816 74.526H97.6516V76.308H99.1816V74.526ZM113.037 84.804L111.741 84.3C111.309 85.29 110.589 85.92 109.599 85.92C108.141 85.92 107.079 84.534 107.079 82.608C107.079 80.592 108.105 79.134 109.527 79.134C110.427 79.134 111.201 79.692 111.633 80.736L112.965 80.196C112.335 78.756 111.129 77.838 109.491 77.838C107.151 77.838 105.459 79.836 105.459 82.608C105.459 85.29 107.169 87.234 109.545 87.234C111.183 87.234 112.461 86.208 113.037 84.804ZM122.294 87.144L122.366 85.974C122.258 85.992 122.078 86.01 121.97 86.01C121.43 86.01 121.16 85.632 121.16 85.146V81.042C121.16 78.972 119.9 77.838 117.956 77.838C116.408 77.838 115.058 78.702 114.41 80.106L115.598 80.592C116.048 79.746 116.75 79.116 117.812 79.116C118.91 79.116 119.63 79.872 119.63 80.988V81.69L117.542 81.942C115.562 82.194 114.158 83.148 114.158 84.804C114.158 86.226 115.292 87.234 116.876 87.234C118.136 87.234 119.126 86.622 119.702 85.668C119.918 86.694 120.584 87.234 121.592 87.234C121.862 87.234 122.078 87.198 122.294 87.144ZM117.29 85.992C116.39 85.992 115.76 85.452 115.76 84.696C115.76 83.778 116.624 83.238 117.812 83.094L119.63 82.878V84.516C119.162 85.38 118.28 85.992 117.29 85.992ZM125.531 87V81.672C125.675 80.484 126.395 79.368 127.781 79.368C128.087 79.368 128.519 79.422 128.771 79.494V77.982C128.591 77.91 128.159 77.838 127.853 77.838C126.809 77.838 125.837 78.756 125.477 79.89V78.072H124.001V87H125.531ZM138.677 82.5C138.677 79.8 137.075 77.838 134.879 77.838C133.853 77.838 132.719 78.414 132.053 79.26V74.328H130.523V87H131.963V85.92C132.647 86.694 133.763 87.234 134.735 87.234C137.021 87.234 138.677 85.254 138.677 82.5ZM134.375 85.956C133.439 85.956 132.539 85.47 132.053 84.804V80.358C132.539 79.62 133.493 79.134 134.465 79.134C135.959 79.134 137.057 80.538 137.057 82.482C137.057 84.48 135.923 85.956 134.375 85.956ZM148.798 82.554C148.798 79.818 146.98 77.838 144.478 77.838C141.976 77.838 140.14 79.818 140.14 82.554C140.14 85.254 141.976 87.234 144.478 87.234C146.98 87.234 148.798 85.254 148.798 82.554ZM141.76 82.554C141.76 80.574 142.894 79.116 144.478 79.116C146.044 79.116 147.178 80.574 147.178 82.554C147.178 84.498 146.044 85.938 144.478 85.938C142.894 85.938 141.76 84.498 141.76 82.554ZM158.402 87V81.096C158.402 79.188 157.07 77.838 155.324 77.838C154.046 77.838 152.966 78.594 152.372 79.44V78.072H150.896V87H152.426V80.52C152.984 79.728 153.956 79.134 154.964 79.134C156.08 79.134 156.872 79.962 156.872 81.204V87H158.402ZM162.604 78.072H161.074V87H162.604V78.072ZM162.604 74.526H161.074V76.308H162.604V74.526ZM173.372 82.554C173.372 79.818 171.554 77.838 169.052 77.838C166.55 77.838 164.714 79.818 164.714 82.554C164.714 85.254 166.55 87.234 169.052 87.234C171.554 87.234 173.372 85.254 173.372 82.554ZM166.334 82.554C166.334 80.574 167.468 79.116 169.052 79.116C170.618 79.116 171.752 80.574 171.752 82.554C171.752 84.498 170.618 85.938 169.052 85.938C167.468 85.938 166.334 84.498 166.334 82.554Z" fill="white"/>
<g opacity="0.5">
<path d="M396.94 66.4903C396.569 66.1188 396.569 65.5156 396.942 65.1446C397.313 64.7731 397.916 64.7731 398.288 65.1446L401.71 68.5684V67.2227V67.2127L401.709 63.3597L396.944 58.5908C396.572 58.2183 396.574 57.6162 396.945 57.244C397.317 56.8726 397.919 56.8726 398.292 57.2451L401.709 60.665V59.3225V59.3168L401.707 52.7481C401.706 52.2223 402.133 51.7968 402.658 51.7968C403.184 51.7968 403.611 52.2223 403.611 52.7481L403.612 57.0187L407.034 53.5934C407.406 53.2209 408.009 53.2198 408.38 53.5923C408.753 53.9638 408.753 54.567 408.382 54.9392L403.613 59.7133L403.614 62.9459V62.9943V64.9174L407.038 61.4935C407.409 61.121 408.012 61.1221 408.383 61.4924C408.756 61.8649 408.756 62.467 408.384 62.8392L403.613 67.6113L403.616 70.864V70.8754L403.617 76.6039C409.854 73.862 414.003 67.4688 414 60.4647C414 53.237 409.579 46.6464 403.001 44.0661C402.778 43.9769 402.53 43.979 402.305 44.0661C395.731 46.6504 391.315 53.2419 391.317 60.4684C391.317 67.4734 395.472 73.8659 401.713 76.6048L401.712 71.2628L396.94 66.4903Z" fill="white"/>
<path d="M377.952 79.1974C377.427 79.1974 377 79.624 377 80.1498C377 80.6745 377.427 81.1011 377.952 81.1011H380.219C380.382 82.5769 381.62 83.7317 383.138 83.7317H386.192C387.82 83.7317 389.143 82.4078 389.143 80.7796V79.1086C390.837 79.187 391.299 79.6154 392.396 81.9611C393.604 84.5454 395.083 86.1436 396.792 86.7114C397.244 86.8625 397.702 86.9359 398.168 86.9359C398.97 86.9359 399.791 86.7132 400.62 86.2679C402.717 85.1439 403.724 82.0292 403.616 77.0068V76.6045C403.415 76.6927 403.216 76.7887 403.01 76.8703C402.899 76.9144 402.781 76.9351 402.663 76.9351C402.545 76.9351 402.427 76.9144 402.315 76.8703C402.11 76.7897 401.914 76.6937 401.712 76.6056V77.0276C401.712 77.0297 401.714 77.0308 401.714 77.0344C401.714 77.039 401.712 77.0433 401.712 77.0483C401.832 82.6159 400.517 84.1622 399.721 84.5898C398.879 85.0408 398.116 85.1429 397.393 84.9029C395.907 84.4104 394.795 82.5916 394.122 81.1534C392.738 78.192 391.757 77.3481 389.145 77.2102V75.2979C389.145 73.6711 387.821 72.3472 386.194 72.3472L383.138 72.3475C381.625 72.3475 380.388 73.4958 380.219 74.9651H377.952C377.427 74.9651 377 75.3917 377 75.9176C377 76.4423 377.427 76.8689 377.952 76.8689H380.186V79.1977H377.952L377.952 79.1974Z" fill="white"/>
</g>
<g opacity="0.5">
<path d="M410.917 536.947H389.719C390.176 535.972 391.062 535.267 392.115 535.042C392.404 534.291 392.913 533.644 393.575 533.187C394.238 532.73 395.023 532.484 395.827 532.481C395.921 532.481 396.021 532.486 396.115 532.491C396.413 531.758 396.922 531.129 397.577 530.686C398.233 530.242 399.005 530.004 399.797 530C400.851 529.999 401.862 530.418 402.605 531.166C402.982 531.052 403.373 530.994 403.767 530.992C404.738 530.994 405.676 531.35 406.402 531.996C407.128 532.642 407.592 533.531 407.707 534.496C408.412 534.581 409.081 534.853 409.646 535.284C410.21 535.715 410.649 536.289 410.917 536.947L410.917 536.947ZM389.897 553.779C389.882 553.63 389.873 553.476 389.873 553.322C389.873 551.727 390.724 550.252 392.106 549.455C393.487 548.657 395.19 548.657 396.572 549.455C397.953 550.252 398.805 551.727 398.805 553.322C398.805 553.488 398.795 553.654 398.775 553.819H401.812H401.812C401.792 553.654 401.782 553.488 401.782 553.322C401.782 551.727 402.633 550.252 404.015 549.455C405.397 548.657 407.099 548.657 408.481 549.455C409.863 550.252 410.714 551.727 410.714 553.322C410.714 553.476 410.704 553.63 410.689 553.779C411.388 553.667 412.024 553.31 412.483 552.772C412.943 552.234 413.195 551.549 413.195 550.841V538.436C413.194 538.162 412.973 537.94 412.699 537.94H387.888C387.614 537.94 387.392 538.162 387.391 538.436V550.841C387.391 551.549 387.644 552.234 388.103 552.772C388.562 553.31 389.198 553.667 389.897 553.779H389.897ZM394.338 554.315C394.602 554.315 394.854 554.21 395.04 554.024C395.226 553.838 395.331 553.586 395.331 553.322C395.331 553.059 395.226 552.807 395.04 552.621C394.854 552.434 394.602 552.33 394.338 552.33C394.075 552.33 393.823 552.434 393.637 552.621C393.451 552.807 393.346 553.059 393.346 553.322C393.346 553.586 393.451 553.838 393.637 554.024C393.823 554.21 394.075 554.314 394.338 554.315L394.338 554.315ZM406.248 554.315C406.511 554.315 406.764 554.21 406.95 554.024C407.136 553.838 407.24 553.586 407.24 553.322C407.24 553.059 407.136 552.807 406.95 552.621C406.764 552.434 406.511 552.33 406.248 552.33C405.985 552.33 405.732 552.434 405.546 552.621C405.36 552.807 405.255 553.059 405.255 553.322C405.256 553.586 405.36 553.838 405.546 554.024C405.733 554.21 405.985 554.314 406.248 554.315L406.248 554.315ZM416.172 556.3V558.285C416.172 558.416 416.12 558.542 416.027 558.635C415.934 558.729 415.808 558.781 415.676 558.781H384.91C384.636 558.781 384.414 558.559 384.414 558.285V556.3C384.414 556.026 384.636 555.803 384.91 555.803H391.912C391.25 555.157 390.873 554.272 390.865 553.346C390.858 552.42 391.22 551.529 391.873 550.871C392.525 550.214 393.412 549.844 394.339 549.844C395.265 549.844 396.152 550.214 396.805 550.871C397.457 551.529 397.819 552.42 397.812 553.346C397.805 554.272 397.428 555.157 396.765 555.803H403.822C403.159 555.157 402.782 554.272 402.775 553.346C402.767 552.42 403.13 551.529 403.782 550.871C404.434 550.214 405.322 549.844 406.248 549.844C407.174 549.844 408.062 550.214 408.714 550.871C409.366 551.529 409.729 552.42 409.721 553.346C409.714 554.272 409.337 555.157 408.674 555.803H415.676C415.808 555.803 415.934 555.856 416.027 555.949C416.12 556.042 416.172 556.168 416.172 556.3H416.172ZM404.263 553.322C404.263 553.849 404.472 554.354 404.844 554.726C405.217 555.098 405.721 555.307 406.248 555.307C406.774 555.307 407.279 555.098 407.651 554.726C408.024 554.354 408.233 553.849 408.233 553.322C408.233 552.796 408.024 552.291 407.651 551.919C407.279 551.547 406.774 551.337 406.248 551.337C405.721 551.338 405.217 551.547 404.845 551.919C404.473 552.292 404.263 552.796 404.263 553.322ZM392.354 553.322C392.354 553.849 392.563 554.354 392.935 554.726C393.307 555.098 393.812 555.307 394.338 555.307C394.865 555.307 395.37 555.098 395.742 554.726C396.114 554.354 396.323 553.849 396.323 553.322C396.323 552.796 396.114 552.291 395.742 551.919C395.37 551.547 394.865 551.337 394.338 551.337C393.812 551.338 393.308 551.547 392.936 551.919C392.563 552.292 392.354 552.796 392.354 553.322Z" fill="white"/>
</g>
<g opacity="0.5">
<path d="M399.64 450C403.25 450 406.523 450.255 408.897 450.667C411.462 451.112 413.049 451.815 413.049 452.671C413.049 453.527 411.462 454.23 408.897 454.675C406.522 455.087 403.25 455.342 399.64 455.342C396.031 455.342 392.758 455.087 390.384 454.675C387.819 454.23 386.232 453.527 386.232 452.671C386.232 451.815 387.819 451.112 390.384 450.667C392.758 450.255 396.031 450 399.64 450Z" fill="white"/>
<path fill-rule="evenodd" clip-rule="evenodd" d="M396.611 470.64C397.59 470.669 398.603 470.684 399.641 470.684C400.677 470.684 401.689 470.669 402.667 470.64C403.414 470.61 404.136 470.57 404.829 470.52C406.485 470.401 407.976 470.226 409.225 470.01C410.551 469.78 411.612 469.485 412.326 469.14C412.657 468.98 412.902 468.82 413.049 468.662V454.127C411.941 454.967 410.01 455.328 409.04 455.496C407.639 455.739 406.21 455.89 404.793 455.994C403.08 456.12 401.359 456.175 399.641 456.175C397.923 456.175 396.202 456.12 394.488 455.994C393.071 455.89 391.643 455.739 390.242 455.496C389.271 455.328 387.34 454.967 386.232 454.127V468.662C386.379 468.82 386.624 468.98 386.956 469.14C387.67 469.485 388.73 469.779 390.056 470.01C391.305 470.226 392.797 470.401 394.453 470.52C395.145 470.57 395.866 470.61 396.612 470.64H396.611ZM396.412 466.039C396.132 465.296 396.086 464.364 396.403 463.247C396.778 461.921 397.671 460.317 399.306 458.44C399.459 458.231 399.787 458.207 399.955 458.413C401.6 460.296 402.498 461.906 402.876 463.236C403.194 464.355 403.149 465.289 402.869 466.034C402.58 466.8 402.047 467.359 401.402 467.71C400.331 468.291 398.949 468.294 397.877 467.713C397.233 467.364 396.701 466.806 396.412 466.04L396.412 466.039Z" fill="white"/>
<path fill-rule="evenodd" clip-rule="evenodd" d="M397.19 465.746C397.403 466.309 397.797 466.721 398.275 466.98C399.102 467.429 400.177 467.429 401.005 466.98C401.483 466.72 401.878 466.307 402.091 465.741C402.312 465.154 402.341 464.395 402.075 463.46C401.752 462.323 400.999 460.946 399.642 459.324C398.28 460.951 397.526 462.332 397.203 463.471C396.939 464.404 396.969 465.161 397.19 465.746H397.19Z" fill="white"/>
<path fill-rule="evenodd" clip-rule="evenodd" d="M402.075 479.52C401.752 478.383 400.999 477.006 399.642 475.384C398.28 477.011 397.526 478.392 397.203 479.531C396.939 480.463 396.969 481.22 397.19 481.806C397.403 482.369 397.797 482.78 398.275 483.039C399.102 483.488 400.177 483.489 401.005 483.039C401.483 482.78 401.878 482.366 402.091 481.8C402.312 481.213 402.341 480.454 402.075 479.52H402.075Z" fill="white"/>
<path fill-rule="evenodd" clip-rule="evenodd" d="M399.955 474.472C401.6 476.355 402.498 477.965 402.876 479.295C403.194 480.414 403.149 481.349 402.868 482.093C402.58 482.859 402.047 483.418 401.401 483.769C400.331 484.351 398.949 484.353 397.877 483.772C397.233 483.423 396.701 482.865 396.412 482.099C396.131 481.356 396.086 480.423 396.402 479.307C396.777 477.981 397.67 476.377 399.305 474.499C399.455 474.294 399.79 474.264 399.954 474.472L399.955 474.472ZM386.231 469.695V484.726C386.231 486.604 393.087 487.095 394.299 487.178C397.783 487.418 401.498 487.418 404.982 487.178C406.194 487.094 413.048 486.604 413.048 484.726V469.695C412.936 469.762 412.815 469.827 412.686 469.889C411.9 470.268 410.764 470.587 409.364 470.83C408.09 471.051 406.571 471.229 404.886 471.35C403.263 471.467 401.49 471.532 399.639 471.532C397.788 471.532 396.016 471.467 394.393 471.35C392.708 471.229 391.189 471.051 389.914 470.83C388.514 470.587 387.378 470.268 386.593 469.889C386.463 469.827 386.342 469.762 386.23 469.695H386.231Z" fill="white"/>
</g>
<g opacity="0.5">
<path fill-rule="evenodd" clip-rule="evenodd" d="M394.761 258.493H398.706V256.742H397.826C397.509 256.742 397.249 256.482 397.249 256.165V255.486C397.249 255.169 397.509 254.91 397.826 254.91H401.418C401.735 254.91 401.994 255.169 401.994 255.486V256.165C401.994 256.482 401.735 256.742 401.418 256.742H400.538V258.493H404.746V254.862C404.746 254.334 404.313 253.902 403.785 253.902H395.722C395.193 253.902 394.761 254.334 394.761 254.862V258.493H394.761ZM384.852 276.794H386.591V273.975H412.654V276.794H414.393C414.861 276.794 415.245 277.178 415.245 277.646V278.649C415.245 279.118 414.861 279.501 414.393 279.501H384.852C384.384 279.501 384 279.118 384 278.649V277.646C384 277.178 384.384 276.794 384.852 276.794H384.852ZM384.852 272.623H414.392C414.861 272.623 415.244 272.24 415.244 271.771V270.769C415.244 270.3 414.861 269.917 414.392 269.917H412.653V265.782C412.653 262.909 410.968 260.41 408.537 259.225V252.96C408.537 252.432 408.105 252 407.576 252H391.931C391.403 252 390.97 252.432 390.97 252.96V259.103C388.399 260.232 386.591 262.806 386.591 265.782V269.917H384.852C384.383 269.917 384 270.3 384 270.769V271.771C384 272.24 384.383 272.623 384.852 272.623L384.852 272.623ZM412.654 280.852V286.338C412.654 290.347 409.373 293.627 405.364 293.627H393.88C389.871 293.627 386.591 290.347 386.591 286.338V280.852H412.654H412.654Z" fill="white"/>
</g>
<defs>
<filter id="filter0_d_1099_1106" x="0" y="101" width="496" height="545" filterUnits="userSpaceOnUse" color-interpolation-filters="sRGB">
<feFlood flood-opacity="0" result="BackgroundImageFix"/>
<feColorMatrix in="SourceAlpha" type="matrix" values="0 0 0 0 0 0 0 0 0 0 0 0 0 0 0 0 0 0 127 0" result="hardAlpha"/>
<feOffset dy="4"/>
<feGaussianBlur stdDeviation="31.5"/>
<feComposite in2="hardAlpha" operator="out"/>
<feColorMatrix type="matrix" values="0 0 0 0 0 0 0 0 0 0 0 0 0 0 0 0 0 0 0.6 0"/>
<feBlend mode="normal" in2="BackgroundImageFix" result="effect1_dropShadow_1099_1106"/>
<feBlend mode="normal" in="SourceGraphic" in2="effect1_dropShadow_1099_1106" result="shape"/>
</filter>
</defs>
</svg>
