<svg width="378" height="586" viewBox="0 0 378 586" fill="none" xmlns="http://www.w3.org/2000/svg">
<g filter="url(#filter0_d_1100_1096)">
<rect x="4" y="154" width="370" height="424" rx="4" fill="#202125"/>
<rect x="5.5" y="155.5" width="367" height="421" rx="2.5" stroke="#1767D2" stroke-width="3"/>
</g>
<path d="M38.88 503.28V500.232H27.432V503.592H34.728L29.088 513H33.528L38.88 503.28ZM44.8224 500.232L39.9024 502.176L40.9104 504.888L43.9344 503.808V509.904H40.4544V513H50.9664V509.904H47.8944V500.232H44.8224ZM63.5141 501.93L62.6861 501.102C61.8941 501.768 60.6161 502.236 59.3741 502.236C58.4381 502.236 57.3581 502.056 56.6201 501.786C56.1161 501.354 55.4681 501.102 54.7121 501.102C53.0381 501.102 51.8141 502.38 51.8141 504.144C51.8141 505.908 53.0381 507.186 54.7121 507.186C56.4041 507.186 57.6281 505.908 57.6281 504.144C57.6281 503.748 57.5741 503.388 57.4661 503.064C58.0601 503.334 58.7261 503.478 59.3021 503.478C59.8601 503.46 60.4541 503.28 61.0301 502.974L52.6961 512.424L53.5601 513.252L63.5141 501.93ZM64.4501 510.21C64.4501 508.446 63.2441 507.168 61.5521 507.168C59.8601 507.168 58.6541 508.446 58.6541 510.21C58.6541 511.974 59.8601 513.252 61.5521 513.252C63.2441 513.252 64.4501 511.974 64.4501 510.21ZM60.4721 510.21C60.4721 509.31 60.9221 508.662 61.5521 508.662C62.1821 508.662 62.6501 509.31 62.6501 510.21C62.6501 511.11 62.1821 511.758 61.5521 511.758C60.9221 511.758 60.4721 511.11 60.4721 510.21ZM53.6321 504.144C53.6321 503.244 54.0821 502.596 54.7121 502.596C55.3601 502.596 55.8101 503.244 55.8101 504.144C55.8101 505.044 55.3601 505.692 54.7121 505.692C54.0821 505.692 53.6321 505.044 53.6321 504.144Z" fill="white"/>
<path d="M35.064 530.068V528.682H30.24V524.776H36.288V523.354H28.584V535H30.24V530.068H35.064ZM45.6417 530.554C45.6417 527.818 43.8237 525.838 41.3217 525.838C38.8197 525.838 36.9837 527.818 36.9837 530.554C36.9837 533.254 38.8197 535.234 41.3217 535.234C43.8237 535.234 45.6417 533.254 45.6417 530.554ZM38.6037 530.554C38.6037 528.574 39.7377 527.116 41.3217 527.116C42.8877 527.116 44.0217 528.574 44.0217 530.554C44.0217 532.498 42.8877 533.938 41.3217 533.938C39.7377 533.938 38.6037 532.498 38.6037 530.554ZM55.2455 535V529.096C55.2455 527.188 53.9135 525.838 52.1675 525.838C50.8895 525.838 49.8095 526.594 49.2155 527.44V526.072H47.7395V535H49.2695V528.52C49.8275 527.728 50.7995 527.134 51.8075 527.134C52.9235 527.134 53.7155 527.962 53.7155 529.204V535H55.2455ZM62.8878 534.946V533.668C62.5098 533.812 61.8798 533.92 61.3218 533.92C60.1878 533.92 59.7378 533.362 59.7378 532.516V527.332H62.8338V526.072H59.7378V523.894H58.2078V526.072H56.8938V527.332H58.2078V532.768C58.2078 534.334 59.2698 535.234 61.0518 535.234C61.7178 535.234 62.4918 535.09 62.8878 534.946ZM66.1269 526.072H64.5969V535H66.1269V526.072ZM66.1269 522.526H64.5969V524.308H66.1269V522.526ZM76.598 533.956C75.104 533.956 74.042 532.534 74.042 530.59C74.042 528.592 75.158 527.134 76.706 527.134C77.66 527.134 78.542 527.566 79.01 528.25V532.66C78.488 533.434 77.534 533.956 76.598 533.956ZM80.54 535V522.328H79.01V527.044C78.398 526.324 77.354 525.838 76.382 525.838C74.078 525.838 72.404 527.836 72.404 530.608C72.404 533.29 74.024 535.234 76.256 535.234C77.282 535.234 78.434 534.604 79.1 533.722V535H80.54ZM90.4816 532.966L89.2576 532.498C88.7896 533.416 87.9256 533.974 86.9536 533.974C85.4596 533.974 84.3796 532.732 84.2716 530.86H90.4636C90.5176 530.626 90.5536 530.14 90.5536 529.744C90.5536 527.458 88.9876 525.838 86.8096 525.838C84.4336 525.838 82.6696 527.854 82.6696 530.608C82.6696 533.308 84.4336 535.234 86.8636 535.234C88.4656 535.234 89.8516 534.388 90.4816 532.966ZM86.8276 527.08C88.0876 527.08 88.9696 528.088 89.0236 529.636H84.3616C84.6316 528.088 85.5856 527.08 86.8276 527.08ZM94.2344 535V529.672C94.3784 528.484 95.0984 527.368 96.4844 527.368C96.7904 527.368 97.2224 527.422 97.4744 527.494V525.982C97.2944 525.91 96.8624 525.838 96.5564 525.838C95.5124 525.838 94.5404 526.756 94.1804 527.89V526.072H92.7044V535H94.2344ZM100.756 526.072H99.2258V535H100.756V526.072ZM100.756 522.526H99.2258V524.308H100.756V522.526ZM102.524 526.072L105.746 535H107.33L110.534 526.072H108.986L106.61 533.02H106.556L104.18 526.072H102.524ZM119.509 535.144L119.581 533.974C119.473 533.992 119.293 534.01 119.185 534.01C118.645 534.01 118.375 533.632 118.375 533.146V529.042C118.375 526.972 117.115 525.838 115.171 525.838C113.623 525.838 112.273 526.702 111.625 528.106L112.813 528.592C113.263 527.746 113.965 527.116 115.027 527.116C116.125 527.116 116.845 527.872 116.845 528.988V529.69L114.757 529.942C112.777 530.194 111.373 531.148 111.373 532.804C111.373 534.226 112.507 535.234 114.091 535.234C115.351 535.234 116.341 534.622 116.917 533.668C117.133 534.694 117.799 535.234 118.807 535.234C119.077 535.234 119.293 535.198 119.509 535.144ZM114.505 533.992C113.605 533.992 112.975 533.452 112.975 532.696C112.975 531.778 113.839 531.238 115.027 531.094L116.845 530.878V532.516C116.377 533.38 115.495 533.992 114.505 533.992ZM126.292 534.946V533.668C125.914 533.812 125.284 533.92 124.726 533.92C123.592 533.92 123.142 533.362 123.142 532.516V527.332H126.238V526.072H123.142V523.894H121.612V526.072H120.298V527.332H121.612V532.768C121.612 534.334 122.674 535.234 124.456 535.234C125.122 535.234 125.896 535.09 126.292 534.946ZM135.077 532.966L133.853 532.498C133.385 533.416 132.521 533.974 131.549 533.974C130.055 533.974 128.975 532.732 128.867 530.86H135.059C135.113 530.626 135.149 530.14 135.149 529.744C135.149 527.458 133.583 525.838 131.405 525.838C129.029 525.838 127.265 527.854 127.265 530.608C127.265 533.308 129.029 535.234 131.459 535.234C133.061 535.234 134.447 534.388 135.077 532.966ZM131.423 527.08C132.683 527.08 133.565 528.088 133.619 529.636H128.957C129.227 528.088 130.181 527.08 131.423 527.08ZM144.995 533.956C143.501 533.956 142.438 532.534 142.438 530.59C142.438 528.592 143.555 527.134 145.103 527.134C146.057 527.134 146.939 527.566 147.407 528.25V532.66C146.885 533.434 145.931 533.956 144.995 533.956ZM148.937 535V522.328H147.407V527.044C146.795 526.324 145.751 525.838 144.779 525.838C142.475 525.838 140.801 527.836 140.801 530.608C140.801 533.29 142.421 535.234 144.653 535.234C145.679 535.234 146.831 534.604 147.497 533.722V535H148.937ZM159.112 535.144L159.184 533.974C159.076 533.992 158.896 534.01 158.788 534.01C158.248 534.01 157.978 533.632 157.978 533.146V529.042C157.978 526.972 156.718 525.838 154.774 525.838C153.226 525.838 151.876 526.702 151.228 528.106L152.416 528.592C152.866 527.746 153.568 527.116 154.63 527.116C155.728 527.116 156.448 527.872 156.448 528.988V529.69L154.36 529.942C152.38 530.194 150.976 531.148 150.976 532.804C150.976 534.226 152.11 535.234 153.694 535.234C154.954 535.234 155.944 534.622 156.52 533.668C156.736 534.694 157.402 535.234 158.41 535.234C158.68 535.234 158.896 535.198 159.112 535.144ZM154.108 533.992C153.208 533.992 152.578 533.452 152.578 532.696C152.578 531.778 153.442 531.238 154.63 531.094L156.448 530.878V532.516C155.98 533.38 155.098 533.992 154.108 533.992ZM171.898 532.804L170.602 532.3C170.17 533.29 169.45 533.92 168.46 533.92C167.002 533.92 165.94 532.534 165.94 530.608C165.94 528.592 166.966 527.134 168.388 527.134C169.288 527.134 170.062 527.692 170.494 528.736L171.826 528.196C171.196 526.756 169.99 525.838 168.352 525.838C166.012 525.838 164.32 527.836 164.32 530.608C164.32 533.29 166.03 535.234 168.406 535.234C170.044 535.234 171.322 534.208 171.898 532.804ZM181.749 530.554C181.749 527.818 179.931 525.838 177.429 525.838C174.927 525.838 173.091 527.818 173.091 530.554C173.091 533.254 174.927 535.234 177.429 535.234C179.931 535.234 181.749 533.254 181.749 530.554ZM174.711 530.554C174.711 528.574 175.845 527.116 177.429 527.116C178.995 527.116 180.129 528.574 180.129 530.554C180.129 532.498 178.995 533.938 177.429 533.938C175.845 533.938 174.711 532.498 174.711 530.554ZM196.375 535V529.096C196.375 527.188 195.079 525.838 193.405 525.838C192.217 525.838 191.173 526.558 190.543 527.512C190.057 526.486 189.121 525.838 188.023 525.838C186.835 525.838 185.845 526.594 185.323 527.44V526.072H183.847V535H185.377V528.484C185.881 527.728 186.745 527.134 187.627 527.134C188.617 527.134 189.337 527.962 189.337 529.204V535H190.867V529.096C190.867 528.826 190.849 528.574 190.795 528.322C191.335 527.638 192.199 527.134 193.063 527.134C194.089 527.134 194.845 527.962 194.845 529.204V535H196.375ZM207.171 530.5C207.171 527.8 205.569 525.838 203.373 525.838C202.347 525.838 201.213 526.414 200.547 527.26V522.328H199.017V535H200.457V533.92C201.141 534.694 202.257 535.234 203.229 535.234C205.515 535.234 207.171 533.254 207.171 530.5ZM202.869 533.956C201.933 533.956 201.033 533.47 200.547 532.804V528.358C201.033 527.62 201.987 527.134 202.959 527.134C204.453 527.134 205.551 528.538 205.551 530.482C205.551 532.48 204.417 533.956 202.869 533.956ZM216.5 535V526.072H214.97V532.228C214.52 533.218 213.656 533.938 212.594 533.938C211.496 533.938 210.704 533.074 210.704 531.868V526.072H209.174V531.976C209.174 533.866 210.434 535.234 212.162 535.234C213.476 535.234 214.502 534.478 215.024 533.524V535H216.5ZM226.089 532.552C226.089 530.896 224.685 530.212 222.669 529.78C221.157 529.438 220.293 529.168 220.293 528.376C220.293 527.62 221.139 527.098 222.327 527.098C223.569 527.098 224.397 527.62 224.811 528.484L226.035 527.998C225.513 526.9 224.415 525.838 222.345 525.838C220.239 525.838 218.799 526.954 218.799 528.466C218.799 530.014 220.257 530.734 222.237 531.148C223.767 531.472 224.613 531.778 224.613 532.624C224.613 533.434 223.857 533.992 222.543 533.992C221.049 533.992 220.095 533.326 219.645 532.444L218.385 532.93C218.997 534.334 220.437 535.234 222.471 535.234C224.739 535.234 226.089 534.136 226.089 532.552ZM233.185 534.946V533.668C232.807 533.812 232.177 533.92 231.619 533.92C230.485 533.92 230.035 533.362 230.035 532.516V527.332H233.131V526.072H230.035V523.894H228.505V526.072H227.191V527.332H228.505V532.768C228.505 534.334 229.567 535.234 231.349 535.234C232.015 535.234 232.789 535.09 233.185 534.946ZM236.424 526.072H234.894V535H236.424V526.072ZM236.424 522.526H234.894V524.308H236.424V522.526ZM247.354 530.5C247.354 527.8 245.752 525.838 243.556 525.838C242.53 525.838 241.396 526.414 240.73 527.26V522.328H239.2V535H240.64V533.92C241.324 534.694 242.44 535.234 243.412 535.234C245.698 535.234 247.354 533.254 247.354 530.5ZM243.052 533.956C242.116 533.956 241.216 533.47 240.73 532.804V528.358C241.216 527.62 242.17 527.134 243.142 527.134C244.636 527.134 245.734 528.538 245.734 530.482C245.734 532.48 244.6 533.956 243.052 533.956ZM251.014 526.072H249.484V535H251.014V526.072ZM251.014 522.526H249.484V524.308H251.014V522.526ZM255.32 522.328H253.79V535H255.32V522.328ZM259.627 526.072H258.097V535H259.627V526.072ZM259.627 522.526H258.097V524.308H259.627V522.526ZM33.624 549.332V548.072H30.366V547.712C30.366 546.236 31.104 545.372 32.292 545.372C32.778 545.372 33.372 545.462 33.768 545.624L33.804 544.346C33.39 544.22 32.67 544.094 32.13 544.094C30.078 544.094 28.836 545.444 28.836 547.73V548.072H27.684V549.332H28.836V557H30.366V549.332H33.624ZM42.7413 552.554C42.7413 549.818 40.9233 547.838 38.4213 547.838C35.9193 547.838 34.0833 549.818 34.0833 552.554C34.0833 555.254 35.9193 557.234 38.4213 557.234C40.9233 557.234 42.7413 555.254 42.7413 552.554ZM35.7033 552.554C35.7033 550.574 36.8373 549.116 38.4213 549.116C39.9873 549.116 41.1213 550.574 41.1213 552.554C41.1213 554.498 39.9873 555.938 38.4213 555.938C36.8373 555.938 35.7033 554.498 35.7033 552.554ZM51.6611 554.552C51.6611 552.896 50.2571 552.212 48.2411 551.78C46.7291 551.438 45.8651 551.168 45.8651 550.376C45.8651 549.62 46.7111 549.098 47.8991 549.098C49.1411 549.098 49.9691 549.62 50.3831 550.484L51.6071 549.998C51.0851 548.9 49.9871 547.838 47.9171 547.838C45.8111 547.838 44.3711 548.954 44.3711 550.466C44.3711 552.014 45.8291 552.734 47.8091 553.148C49.3391 553.472 50.1851 553.778 50.1851 554.624C50.1851 555.434 49.4291 555.992 48.1151 555.992C46.6211 555.992 45.6671 555.326 45.2171 554.444L43.9571 554.93C44.5691 556.334 46.0091 557.234 48.0431 557.234C50.3111 557.234 51.6611 556.136 51.6611 554.552ZM60.5732 554.552C60.5732 552.896 59.1692 552.212 57.1532 551.78C55.6412 551.438 54.7772 551.168 54.7772 550.376C54.7772 549.62 55.6232 549.098 56.8112 549.098C58.0532 549.098 58.8812 549.62 59.2952 550.484L60.5192 549.998C59.9972 548.9 58.8992 547.838 56.8292 547.838C54.7232 547.838 53.2832 548.954 53.2832 550.466C53.2832 552.014 54.7412 552.734 56.7212 553.148C58.2512 553.472 59.0972 553.778 59.0972 554.624C59.0972 555.434 58.3412 555.992 57.0272 555.992C55.5332 555.992 54.5792 555.326 54.1292 554.444L52.8692 554.93C53.4812 556.334 54.9212 557.234 56.9552 557.234C59.2232 557.234 60.5732 556.136 60.5732 554.552ZM64.1933 548.072H62.6633V557H64.1933V548.072ZM64.1933 544.526H62.6633V546.308H64.1933V544.526ZM68.5 544.328H66.97V557H68.5V544.328ZM72.8066 548.072H71.2766V557H72.8066V548.072ZM72.8066 544.526H71.2766V546.308H72.8066V544.526Z" fill="white"/>
<g opacity="0.5">
<path d="M355.935 554.428C356.142 554.428 356.348 554.453 356.549 554.502V534.911H353.736V553.708C353.9 553.952 354.074 554.191 354.255 554.428L355.935 554.428Z" fill="white"/>
<path d="M327.964 554.428C328.432 553.914 328.867 553.373 329.268 552.806V528.192H326.455V554.502C326.661 554.365 327.964 554.428 327.964 554.428V554.428Z" fill="white"/>
<path d="M354.255 554.427C354.074 554.191 353.9 553.952 353.736 553.707C350.797 549.323 350.498 543.815 350.484 542.016H344.352C344.328 543.813 344.117 545.601 343.722 547.354C344.591 549.832 345.919 552.358 347.947 554.427L354.255 554.427Z" fill="white"/>
<path d="M343.885 540.082H350.915C351.053 540.082 351.164 540.22 351.164 540.331V541.16C351.164 541.298 351.052 541.41 350.915 541.41H343.885C343.747 541.41 343.635 541.272 343.635 541.16V540.331C343.635 540.193 343.747 540.082 343.885 540.082Z" fill="white"/>
<path d="M346.357 554.428C341.272 548.519 340.908 540.096 340.913 537.729H333.597C333.595 539.842 333.275 547.174 329.267 552.806C328.866 553.373 328.431 553.914 327.964 554.428L346.357 554.428Z" fill="white"/>
<path d="M349.069 527.085C344.965 527.085 345.095 531.336 346.443 532.28C345.404 532.764 345.554 534.403 346.367 534.815C346.006 535.004 345.736 535.331 345.618 535.721C345.501 536.112 345.546 536.533 345.742 536.891C345.939 537.248 346.271 537.511 346.664 537.621C346.272 538.144 346.751 538.974 347.43 538.974V538.975C347.82 538.996 348.178 538.757 348.307 538.388C348.436 538.02 348.306 537.609 347.988 537.383C348.379 537.097 348.61 536.642 348.611 536.157C350.775 536.578 351.944 534.286 351.062 532.928C353.735 530.914 352.235 527.085 349.069 527.085L349.069 527.085Z" fill="white"/>
<path d="M329.676 513C325.572 513 325.702 517.251 327.05 518.194C326.011 518.679 326.161 520.318 326.974 520.729C326.612 520.919 326.343 521.245 326.225 521.636C326.108 522.027 326.152 522.448 326.349 522.806C326.546 523.163 326.878 523.426 327.271 523.535C326.879 524.059 327.358 524.889 328.037 524.889C328.427 524.911 328.785 524.672 328.914 524.303C329.043 523.934 328.913 523.524 328.595 523.298C328.986 523.012 329.217 522.557 329.218 522.072C331.382 522.493 332.551 520.201 331.669 518.843C334.342 516.829 332.841 513 329.676 513L329.676 513Z" fill="white"/>
<path d="M356.616 534.314C356.806 534.32 356.99 534.248 357.127 534.116C357.263 533.984 357.34 533.802 357.34 533.612C357.34 533.422 357.263 533.24 357.127 533.108C356.99 532.975 356.806 532.904 356.616 532.91H353.665C353.476 532.904 353.292 532.975 353.155 533.108C353.019 533.24 352.942 533.422 352.942 533.612C352.942 533.802 353.019 533.984 353.155 534.116C353.292 534.248 353.476 534.32 353.665 534.314H356.616Z" fill="white"/>
<path d="M332.772 535.47H341.551H341.551C341.723 535.47 341.863 535.61 341.863 535.782V536.817C341.863 536.99 341.723 537.13 341.551 537.13H332.772C332.6 537.13 332.46 536.99 332.46 536.817V535.782C332.46 535.61 332.6 535.47 332.772 535.47H332.772Z" fill="white"/>
<path d="M329.333 527.597C329.522 527.603 329.707 527.531 329.843 527.399C329.979 527.267 330.056 527.085 330.056 526.895C330.056 526.705 329.979 526.524 329.843 526.391C329.707 526.259 329.522 526.187 329.333 526.193H326.382C326.192 526.187 326.009 526.259 325.872 526.391C325.736 526.524 325.659 526.705 325.659 526.895C325.659 527.085 325.736 527.267 325.872 527.399C326.009 527.531 326.192 527.603 326.382 527.597H329.333Z" fill="white"/>
<path d="M355.87 559.161C358.753 559.161 358.667 555.028 355.87 555.028H327.13C324.247 555.028 324.333 559.161 327.13 559.161H355.87Z" fill="white"/>
</g>
<rect x="5.5" y="1.5" width="367" height="483" rx="2.5" fill="#1767D2" stroke="#1767D2" stroke-width="3"/>
<path d="M374 48L4.99438 48" stroke="#202125" stroke-width="3" stroke-linecap="round"/>
<path d="M374 82L4.99438 82" stroke="#202125" stroke-width="3" stroke-linecap="round"/>
<path d="M374 187L4.99438 187" stroke="#202125" stroke-width="3" stroke-linecap="round"/>
<path d="M374 319L4.99438 319" stroke="#202125" stroke-width="3" stroke-linecap="round"/>
<path d="M34.903 459.872C33.583 459.872 32.863 459.224 32.863 458.36C32.863 457.376 33.751 456.656 34.879 456.656C36.175 456.656 37.087 457.496 37.447 459.008C36.775 459.584 35.839 459.872 34.903 459.872ZM28.711 458.504C28.711 460.856 30.847 462.56 33.751 462.56C35.215 462.56 36.583 462.128 37.543 461.48C37.303 463.544 36.271 464.576 34.351 464.576C33.031 464.576 31.759 464.048 30.991 463.232L28.423 464.816C29.503 466.16 31.615 467.336 34.519 467.336C38.911 467.336 41.647 464.648 41.647 460.472C41.647 456.44 38.743 453.896 34.855 453.896C31.447 453.896 28.711 455.888 28.711 458.504ZM47.2754 466.256V462.752H43.4354V466.76H45.1394C45.1394 467.84 44.4674 468.968 43.6514 469.88L45.1394 471.152C46.5074 469.784 47.2754 468.056 47.2754 466.256ZM60.2354 457.28V454.232H48.7874V457.592H56.0834L50.4434 467H54.8834L60.2354 457.28ZM77.0738 452.24L75.9458 451.112C74.8418 452.024 73.1618 452.6 71.4578 452.6C70.2098 452.6 68.8418 452.36 67.8818 452.024C67.2098 451.448 66.3218 451.112 65.3138 451.112C63.0098 451.112 61.3538 452.84 61.3538 455.216C61.3538 457.592 63.0098 459.296 65.3138 459.296C67.6178 459.296 69.2738 457.592 69.2738 455.216C69.2738 454.736 69.2018 454.256 69.0818 453.848C69.8258 454.184 70.6658 454.376 71.4098 454.376C72.1058 454.352 72.8738 454.136 73.6418 453.728L62.6018 466.208L63.7778 467.36L77.0738 452.24ZM78.4178 463.28C78.4178 460.904 76.7618 459.176 74.4578 459.176C72.1538 459.176 70.4978 460.904 70.4978 463.28C70.4978 465.656 72.1538 467.36 74.4578 467.36C76.7618 467.36 78.4178 465.656 78.4178 463.28ZM73.1138 463.28C73.1138 462.152 73.6898 461.336 74.4578 461.336C75.2498 461.336 75.8018 462.152 75.8018 463.28C75.8018 464.384 75.2498 465.176 74.4578 465.176C73.6898 465.176 73.1138 464.384 73.1138 463.28ZM63.9698 455.216C63.9698 454.088 64.5458 453.272 65.3138 453.272C66.1058 453.272 66.6578 454.088 66.6578 455.216C66.6578 456.32 66.1058 457.112 65.3138 457.112C64.5458 457.112 63.9698 456.32 63.9698 455.216ZM85.6074 467V458.378L91.9434 467H93.3474V455.354H91.7634V464.048L85.4454 455.354H84.0234V467H85.6074ZM103.523 467V458.072H101.993V464.228C101.543 465.218 100.679 465.938 99.6174 465.938C98.5194 465.938 97.7274 465.074 97.7274 463.868V458.072H96.1974V463.976C96.1974 465.866 97.4574 467.234 99.1854 467.234C100.499 467.234 101.525 466.478 102.047 465.524V467H103.523ZM113.22 464.804L111.924 464.3C111.492 465.29 110.772 465.92 109.782 465.92C108.324 465.92 107.262 464.534 107.262 462.608C107.262 460.592 108.288 459.134 109.71 459.134C110.61 459.134 111.384 459.692 111.816 460.736L113.148 460.196C112.518 458.756 111.312 457.838 109.674 457.838C107.334 457.838 105.642 459.836 105.642 462.608C105.642 465.29 107.352 467.234 109.728 467.234C111.366 467.234 112.644 466.208 113.22 464.804ZM116.609 454.328H115.079V467H116.609V454.328ZM126.55 464.966L125.326 464.498C124.858 465.416 123.994 465.974 123.022 465.974C121.528 465.974 120.448 464.732 120.34 462.86H126.532C126.586 462.626 126.622 462.14 126.622 461.744C126.622 459.458 125.056 457.838 122.878 457.838C120.502 457.838 118.738 459.854 118.738 462.608C118.738 465.308 120.502 467.234 122.932 467.234C124.534 467.234 125.92 466.388 126.55 464.966ZM122.896 459.08C124.156 459.08 125.038 460.088 125.092 461.636H120.43C120.7 460.088 121.654 459.08 122.896 459.08ZM136.171 467.144L136.243 465.974C136.135 465.992 135.955 466.01 135.847 466.01C135.307 466.01 135.037 465.632 135.037 465.146V461.042C135.037 458.972 133.777 457.838 131.833 457.838C130.285 457.838 128.935 458.702 128.287 460.106L129.475 460.592C129.925 459.746 130.627 459.116 131.689 459.116C132.787 459.116 133.507 459.872 133.507 460.988V461.69L131.419 461.942C129.439 462.194 128.035 463.148 128.035 464.804C128.035 466.226 129.169 467.234 130.753 467.234C132.013 467.234 133.003 466.622 133.579 465.668C133.795 466.694 134.461 467.234 135.469 467.234C135.739 467.234 135.955 467.198 136.171 467.144ZM131.167 465.992C130.267 465.992 129.637 465.452 129.637 464.696C129.637 463.778 130.501 463.238 131.689 463.094L133.507 462.878V464.516C133.039 465.38 132.157 465.992 131.167 465.992ZM139.408 467V461.672C139.552 460.484 140.272 459.368 141.658 459.368C141.964 459.368 142.396 459.422 142.648 459.494V457.982C142.468 457.91 142.036 457.838 141.73 457.838C140.686 457.838 139.714 458.756 139.354 459.89V458.072H137.878V467H139.408ZM151.318 464.966L150.094 464.498C149.626 465.416 148.762 465.974 147.79 465.974C146.296 465.974 145.216 464.732 145.108 462.86H151.3C151.354 462.626 151.39 462.14 151.39 461.744C151.39 459.458 149.824 457.838 147.646 457.838C145.27 457.838 143.506 459.854 143.506 462.608C143.506 465.308 145.27 467.234 147.7 467.234C149.302 467.234 150.688 466.388 151.318 464.966ZM147.664 459.08C148.924 459.08 149.806 460.088 149.86 461.636H145.198C145.468 460.088 146.422 459.08 147.664 459.08Z" fill="white"/>
<path d="M40.495 74V70.808H34.231L36.415 69.512C38.095 68.528 39.727 67.208 39.727 65.048C39.727 62.624 37.495 60.896 34.471 60.896C31.663 60.896 29.431 62.384 28.423 64.616L31.159 65.96C31.591 64.856 32.671 64.016 33.847 64.016C34.831 64.016 35.599 64.616 35.599 65.432C35.599 66.344 34.687 67.088 33.319 68.072L28.663 71.384V74H40.495ZM57.4801 59.24L56.3521 58.112C55.2481 59.024 53.5681 59.6 51.8641 59.6C50.6161 59.6 49.2481 59.36 48.2881 59.024C47.6161 58.448 46.7281 58.112 45.7201 58.112C43.4161 58.112 41.7601 59.84 41.7601 62.216C41.7601 64.592 43.4161 66.296 45.7201 66.296C48.0241 66.296 49.6801 64.592 49.6801 62.216C49.6801 61.736 49.6081 61.256 49.4881 60.848C50.2321 61.184 51.0721 61.376 51.8161 61.376C52.5121 61.352 53.2801 61.136 54.0481 60.728L43.0081 73.208L44.1841 74.36L57.4801 59.24ZM58.8241 70.28C58.8241 67.904 57.1681 66.176 54.8641 66.176C52.5601 66.176 50.9041 67.904 50.9041 70.28C50.9041 72.656 52.5601 74.36 54.8641 74.36C57.1681 74.36 58.8241 72.656 58.8241 70.28ZM53.5201 70.28C53.5201 69.152 54.0961 68.336 54.8641 68.336C55.6561 68.336 56.2081 69.152 56.2081 70.28C56.2081 71.384 55.6561 72.176 54.8641 72.176C54.0961 72.176 53.5201 71.384 53.5201 70.28ZM44.3761 62.216C44.3761 61.088 44.9521 60.272 45.7201 60.272C46.5121 60.272 47.0641 61.088 47.0641 62.216C47.0641 63.32 46.5121 64.112 45.7201 64.112C44.9521 64.112 44.3761 63.32 44.3761 62.216ZM68.2276 62.156C65.8876 62.156 63.9256 63.596 63.9256 65.558C63.9256 67.61 65.6356 68.348 67.9936 68.924C69.9736 69.41 70.8736 69.824 70.8736 70.904C70.8736 72.056 69.7756 72.812 68.2816 72.812C66.5356 72.812 65.4556 72.002 64.8796 70.688L63.4036 71.228C64.1776 73.064 65.9056 74.216 68.2636 74.216C70.7476 74.216 72.5476 72.83 72.5476 70.742C72.5476 68.744 70.8916 67.934 68.4796 67.34C66.4996 66.854 65.6176 66.476 65.6176 65.432C65.6176 64.352 66.8056 63.56 68.2276 63.56C69.6676 63.56 70.6756 64.298 71.1796 65.504L72.6376 64.928C71.9536 63.398 70.4776 62.156 68.2276 62.156ZM82.8057 69.554C82.8057 66.818 80.9877 64.838 78.4857 64.838C75.9837 64.838 74.1477 66.818 74.1477 69.554C74.1477 72.254 75.9837 74.234 78.4857 74.234C80.9877 74.234 82.8057 72.254 82.8057 69.554ZM75.7677 69.554C75.7677 67.574 76.9017 66.116 78.4857 66.116C80.0517 66.116 81.1857 67.574 81.1857 69.554C81.1857 71.498 80.0517 72.938 78.4857 72.938C76.9017 72.938 75.7677 71.498 75.7677 69.554ZM86.4335 61.328H84.9035V74H86.4335V61.328ZM96.6082 74.144L96.6802 72.974C96.5722 72.992 96.3922 73.01 96.2842 73.01C95.7442 73.01 95.4742 72.632 95.4742 72.146V68.042C95.4742 65.972 94.2142 64.838 92.2702 64.838C90.7222 64.838 89.3722 65.702 88.7242 67.106L89.9122 67.592C90.3622 66.746 91.0642 66.116 92.1262 66.116C93.2242 66.116 93.9442 66.872 93.9442 67.988V68.69L91.8562 68.942C89.8762 69.194 88.4722 70.148 88.4722 71.804C88.4722 73.226 89.6062 74.234 91.1902 74.234C92.4502 74.234 93.4402 73.622 94.0162 72.668C94.2322 73.694 94.8982 74.234 95.9062 74.234C96.1762 74.234 96.3922 74.198 96.6082 74.144ZM91.6042 72.992C90.7042 72.992 90.0742 72.452 90.0742 71.696C90.0742 70.778 90.9382 70.238 92.1262 70.094L93.9442 69.878V71.516C93.4762 72.38 92.5942 72.992 91.6042 72.992ZM99.8456 74V68.672C99.9896 67.484 100.71 66.368 102.096 66.368C102.402 66.368 102.834 66.422 103.086 66.494V64.982C102.906 64.91 102.474 64.838 102.168 64.838C101.124 64.838 100.152 65.756 99.7916 66.89V65.072H98.3156V74H99.8456ZM111.755 71.966L110.531 71.498C110.063 72.416 109.199 72.974 108.227 72.974C106.733 72.974 105.653 71.732 105.545 69.86H111.737C111.791 69.626 111.827 69.14 111.827 68.744C111.827 66.458 110.261 64.838 108.083 64.838C105.707 64.838 103.943 66.854 103.943 69.608C103.943 72.308 105.707 74.234 108.137 74.234C109.739 74.234 111.125 73.388 111.755 71.966ZM108.101 66.08C109.361 66.08 110.243 67.088 110.297 68.636H105.635C105.905 67.088 106.859 66.08 108.101 66.08Z" fill="white"/>
<path d="M39.751 290.28V287.232H28.303V290.592H35.599L29.959 300H34.399L39.751 290.28ZM45.1895 299.256V295.752H41.3495V299.76H43.0535C43.0535 300.84 42.3815 301.968 41.5655 302.88L43.0535 304.152C44.4215 302.784 45.1895 301.056 45.1895 299.256ZM59.9735 295.728C59.9735 293.352 57.8375 291.624 54.8615 291.624C53.4215 291.624 52.0535 292.056 51.1175 292.704C51.4055 290.784 52.4855 289.656 54.1655 289.656C55.3415 289.656 56.4215 290.184 57.0695 290.976L59.6375 289.416C58.6535 288.072 56.6855 286.896 53.9975 286.896C49.8215 286.896 46.9895 289.752 46.9895 293.784C46.9655 297.84 49.8215 300.336 53.7815 300.336C57.2855 300.336 59.9735 298.392 59.9735 295.728ZM53.7575 297.576C52.4375 297.576 51.5015 296.712 51.1655 295.2C51.8375 294.624 52.7735 294.312 53.7095 294.312C55.1015 294.312 55.8455 294.984 55.8455 295.872C55.8455 296.88 54.9335 297.576 53.7575 297.576ZM76.9332 285.24L75.8052 284.112C74.7012 285.024 73.0212 285.6 71.3172 285.6C70.0692 285.6 68.7012 285.36 67.7412 285.024C67.0692 284.448 66.1812 284.112 65.1732 284.112C62.8692 284.112 61.2132 285.84 61.2132 288.216C61.2132 290.592 62.8692 292.296 65.1732 292.296C67.4772 292.296 69.1332 290.592 69.1332 288.216C69.1332 287.736 69.0612 287.256 68.9412 286.848C69.6852 287.184 70.5252 287.376 71.2692 287.376C71.9652 287.352 72.7332 287.136 73.5012 286.728L62.4612 299.208L63.6372 300.36L76.9332 285.24ZM78.2772 296.28C78.2772 293.904 76.6212 292.176 74.3172 292.176C72.0132 292.176 70.3572 293.904 70.3572 296.28C70.3572 298.656 72.0132 300.36 74.3172 300.36C76.6212 300.36 78.2772 298.656 78.2772 296.28ZM72.9732 296.28C72.9732 295.152 73.5492 294.336 74.3172 294.336C75.1092 294.336 75.6612 295.152 75.6612 296.28C75.6612 297.384 75.1092 298.176 74.3172 298.176C73.5492 298.176 72.9732 297.384 72.9732 296.28ZM63.8292 288.216C63.8292 287.088 64.4052 286.272 65.1732 286.272C65.9652 286.272 66.5172 287.088 66.5172 288.216C66.5172 289.32 65.9652 290.112 65.1732 290.112C64.4052 290.112 63.8292 289.32 63.8292 288.216ZM86.2595 288.354H84.6035V300H86.2595V288.354ZM92.6624 298.956C91.1684 298.956 90.1064 297.534 90.1064 295.59C90.1064 293.592 91.2224 292.134 92.7704 292.134C93.7244 292.134 94.6064 292.566 95.0744 293.25V297.66C94.5524 298.434 93.5984 298.956 92.6624 298.956ZM96.6044 300V287.328H95.0744V292.044C94.4624 291.324 93.4184 290.838 92.4464 290.838C90.1424 290.838 88.4684 292.836 88.4684 295.608C88.4684 298.29 90.0884 300.234 92.3204 300.234C93.3464 300.234 94.4984 299.604 95.1644 298.722V300H96.6044ZM100.912 300V294.672C101.056 293.484 101.776 292.368 103.162 292.368C103.468 292.368 103.9 292.422 104.152 292.494V290.982C103.972 290.91 103.54 290.838 103.234 290.838C102.19 290.838 101.218 291.756 100.858 292.89V291.072H99.382V300H100.912ZM113.649 295.554C113.649 292.818 111.831 290.838 109.329 290.838C106.827 290.838 104.991 292.818 104.991 295.554C104.991 298.254 106.827 300.234 109.329 300.234C111.831 300.234 113.649 298.254 113.649 295.554ZM106.611 295.554C106.611 293.574 107.745 292.116 109.329 292.116C110.895 292.116 112.029 293.574 112.029 295.554C112.029 297.498 110.895 298.938 109.329 298.938C107.745 298.938 106.611 297.498 106.611 295.554ZM122.911 297.966L121.687 297.498C121.219 298.416 120.355 298.974 119.383 298.974C117.889 298.974 116.809 297.732 116.701 295.86H122.893C122.947 295.626 122.983 295.14 122.983 294.744C122.983 292.458 121.417 290.838 119.239 290.838C116.863 290.838 115.099 292.854 115.099 295.608C115.099 298.308 116.863 300.234 119.293 300.234C120.895 300.234 122.281 299.388 122.911 297.966ZM119.257 292.08C120.517 292.08 121.399 293.088 121.453 294.636H116.791C117.061 293.088 118.015 292.08 119.257 292.08ZM126.664 287.328H125.134V300H126.664V287.328ZM136.605 297.966L135.381 297.498C134.913 298.416 134.049 298.974 133.077 298.974C131.583 298.974 130.503 297.732 130.395 295.86H136.587C136.641 295.626 136.677 295.14 136.677 294.744C136.677 292.458 135.111 290.838 132.933 290.838C130.557 290.838 128.793 292.854 128.793 295.608C128.793 298.308 130.557 300.234 132.987 300.234C134.589 300.234 135.975 299.388 136.605 297.966ZM132.951 292.08C134.211 292.08 135.093 293.088 135.147 294.636H130.485C130.755 293.088 131.709 292.08 132.951 292.08ZM143.815 299.946V298.668C143.437 298.812 142.807 298.92 142.249 298.92C141.115 298.92 140.665 298.362 140.665 297.516V292.332H143.761V291.072H140.665V288.894H139.135V291.072H137.821V292.332H139.135V297.768C139.135 299.334 140.197 300.234 141.979 300.234C142.645 300.234 143.419 300.09 143.815 299.946ZM150.601 299.946V298.668C150.223 298.812 149.593 298.92 149.035 298.92C147.901 298.92 147.451 298.362 147.451 297.516V292.332H150.547V291.072H147.451V288.894H145.921V291.072H144.607V292.332H145.921V297.768C145.921 299.334 146.983 300.234 148.765 300.234C149.431 300.234 150.205 300.09 150.601 299.946ZM153.84 300V294.672C153.984 293.484 154.704 292.368 156.09 292.368C156.396 292.368 156.828 292.422 157.08 292.494V290.982C156.9 290.91 156.468 290.838 156.162 290.838C155.118 290.838 154.146 291.756 153.786 292.89V291.072H152.31V300H153.84ZM160.361 291.072H158.831V300H160.361V291.072ZM160.361 287.526H158.831V289.308H160.361V287.526ZM170.068 297.804L168.772 297.3C168.34 298.29 167.62 298.92 166.63 298.92C165.172 298.92 164.11 297.534 164.11 295.608C164.11 293.592 165.136 292.134 166.558 292.134C167.458 292.134 168.232 292.692 168.664 293.736L169.996 293.196C169.366 291.756 168.16 290.838 166.522 290.838C164.182 290.838 162.49 292.836 162.49 295.608C162.49 298.29 164.2 300.234 166.576 300.234C168.214 300.234 169.492 299.208 170.068 297.804ZM179.325 300.144L179.397 298.974C179.289 298.992 179.109 299.01 179.001 299.01C178.461 299.01 178.191 298.632 178.191 298.146V294.042C178.191 291.972 176.931 290.838 174.987 290.838C173.439 290.838 172.089 291.702 171.441 293.106L172.629 293.592C173.079 292.746 173.781 292.116 174.843 292.116C175.941 292.116 176.661 292.872 176.661 293.988V294.69L174.573 294.942C172.593 295.194 171.189 296.148 171.189 297.804C171.189 299.226 172.323 300.234 173.907 300.234C175.167 300.234 176.157 299.622 176.733 298.668C176.949 299.694 177.615 300.234 178.623 300.234C178.893 300.234 179.109 300.198 179.325 300.144ZM174.321 298.992C173.421 298.992 172.791 298.452 172.791 297.696C172.791 296.778 173.655 296.238 174.843 296.094L176.661 295.878V297.516C176.193 298.38 175.311 298.992 174.321 298.992Z" fill="white"/>
<path d="M40.903 163.848C40.903 161.328 38.791 159.696 35.623 159.696C34.039 159.696 32.815 160.104 31.903 160.632L32.143 158.304H40.255V155.208H29.383L28.975 162.672L31.495 163.272C32.095 162.864 33.247 162.552 34.375 162.552C35.863 162.552 36.775 163.128 36.775 163.992C36.775 164.856 35.839 165.504 34.375 165.504C33.007 165.504 31.783 165 31.111 164.184L28.423 165.648C29.623 167.4 31.927 168.36 34.759 168.36C38.359 168.36 40.903 166.44 40.903 163.848ZM46.502 167.256V163.752H42.662V167.76H44.366C44.366 168.84 43.694 169.968 42.878 170.88L44.366 172.152C45.734 170.784 46.502 169.056 46.502 167.256ZM54.614 160.872C53.294 160.872 52.574 160.224 52.574 159.36C52.574 158.376 53.462 157.656 54.59 157.656C55.886 157.656 56.798 158.496 57.158 160.008C56.486 160.584 55.55 160.872 54.614 160.872ZM48.422 159.504C48.422 161.856 50.558 163.56 53.462 163.56C54.926 163.56 56.294 163.128 57.254 162.48C57.014 164.544 55.982 165.576 54.062 165.576C52.742 165.576 51.47 165.048 50.702 164.232L48.134 165.816C49.214 167.16 51.326 168.336 54.23 168.336C58.622 168.336 61.358 165.648 61.358 161.472C61.358 157.44 58.454 154.896 54.566 154.896C51.158 154.896 48.422 156.888 48.422 159.504ZM78.3863 153.24L77.2583 152.112C76.1543 153.024 74.4743 153.6 72.7703 153.6C71.5223 153.6 70.1543 153.36 69.1943 153.024C68.5223 152.448 67.6343 152.112 66.6263 152.112C64.3223 152.112 62.6663 153.84 62.6663 156.216C62.6663 158.592 64.3223 160.296 66.6263 160.296C68.9303 160.296 70.5863 158.592 70.5863 156.216C70.5863 155.736 70.5143 155.256 70.3943 154.848C71.1383 155.184 71.9783 155.376 72.7223 155.376C73.4183 155.352 74.1863 155.136 74.9543 154.728L63.9143 167.208L65.0903 168.36L78.3863 153.24ZM79.7303 164.28C79.7303 161.904 78.0743 160.176 75.7703 160.176C73.4663 160.176 71.8103 161.904 71.8103 164.28C71.8103 166.656 73.4663 168.36 75.7703 168.36C78.0743 168.36 79.7303 166.656 79.7303 164.28ZM74.4263 164.28C74.4263 163.152 75.0023 162.336 75.7703 162.336C76.5623 162.336 77.1143 163.152 77.1143 164.28C77.1143 165.384 76.5623 166.176 75.7703 166.176C75.0023 166.176 74.4263 165.384 74.4263 164.28ZM65.2823 156.216C65.2823 155.088 65.8583 154.272 66.6263 154.272C67.4183 154.272 67.9703 155.088 67.9703 156.216C67.9703 157.32 67.4183 158.112 66.6263 158.112C65.8583 158.112 65.2823 157.32 65.2823 156.216ZM93.9766 168V166.578H87.7126V162.888H92.7526V161.484H87.7126V157.776H93.8506V156.354H86.0566V168H93.9766ZM103.87 163.554C103.87 160.818 102.052 158.838 99.5501 158.838C97.0481 158.838 95.2121 160.818 95.2121 163.554C95.2121 166.254 97.0481 168.234 99.5501 168.234C102.052 168.234 103.87 166.254 103.87 163.554ZM96.8321 163.554C96.8321 161.574 97.9661 160.116 99.5501 160.116C101.116 160.116 102.25 161.574 102.25 163.554C102.25 165.498 101.116 166.938 99.5501 166.938C97.9661 166.938 96.8321 165.498 96.8321 163.554ZM107.498 155.328H105.968V168H107.498V155.328ZM111.805 159.072H110.275V168H111.805V159.072ZM111.805 155.526H110.275V157.308H111.805V155.526ZM121.511 165.804L120.215 165.3C119.783 166.29 119.063 166.92 118.073 166.92C116.615 166.92 115.553 165.534 115.553 163.608C115.553 161.592 116.579 160.134 118.001 160.134C118.901 160.134 119.675 160.692 120.107 161.736L121.439 161.196C120.809 159.756 119.603 158.838 117.965 158.838C115.625 158.838 113.933 160.836 113.933 163.608C113.933 166.29 115.643 168.234 118.019 168.234C119.657 168.234 120.935 167.208 121.511 165.804ZM130.768 168.144L130.84 166.974C130.732 166.992 130.552 167.01 130.444 167.01C129.904 167.01 129.634 166.632 129.634 166.146V162.042C129.634 159.972 128.374 158.838 126.43 158.838C124.882 158.838 123.532 159.702 122.884 161.106L124.072 161.592C124.522 160.746 125.224 160.116 126.286 160.116C127.384 160.116 128.104 160.872 128.104 161.988V162.69L126.016 162.942C124.036 163.194 122.632 164.148 122.632 165.804C122.632 167.226 123.766 168.234 125.35 168.234C126.61 168.234 127.6 167.622 128.176 166.668C128.392 167.694 129.058 168.234 130.066 168.234C130.336 168.234 130.552 168.198 130.768 168.144ZM125.764 166.992C124.864 166.992 124.234 166.452 124.234 165.696C124.234 164.778 125.098 164.238 126.286 164.094L128.104 163.878V165.516C127.636 166.38 126.754 166.992 125.764 166.992Z" fill="white"/>
<path d="M40.495 33V29.808H34.231L36.415 28.512C38.095 27.528 39.727 26.208 39.727 24.048C39.727 21.624 37.495 19.896 34.471 19.896C31.663 19.896 29.431 21.384 28.423 23.616L31.159 24.96C31.591 23.856 32.671 23.016 33.847 23.016C34.831 23.016 35.599 23.616 35.599 24.432C35.599 25.344 34.687 26.088 33.319 27.072L28.663 30.384V33H40.495ZM46.0801 32.256V28.752H42.2401V32.76H43.9441C43.9441 33.84 43.2721 34.968 42.4561 35.88L43.9441 37.152C45.3121 35.784 46.0801 34.056 46.0801 32.256ZM59.0401 23.28V20.232H47.5921V23.592H54.8881L49.2481 33H53.6881L59.0401 23.28ZM75.8785 18.24L74.7505 17.112C73.6465 18.024 71.9665 18.6 70.2625 18.6C69.0145 18.6 67.6465 18.36 66.6865 18.024C66.0145 17.448 65.1265 17.112 64.1185 17.112C61.8145 17.112 60.1585 18.84 60.1585 21.216C60.1585 23.592 61.8145 25.296 64.1185 25.296C66.4225 25.296 68.0785 23.592 68.0785 21.216C68.0785 20.736 68.0065 20.256 67.8865 19.848C68.6305 20.184 69.4705 20.376 70.2145 20.376C70.9105 20.352 71.6785 20.136 72.4465 19.728L61.4065 32.208L62.5825 33.36L75.8785 18.24ZM77.2225 29.28C77.2225 26.904 75.5665 25.176 73.2625 25.176C70.9585 25.176 69.3025 26.904 69.3025 29.28C69.3025 31.656 70.9585 33.36 73.2625 33.36C75.5665 33.36 77.2225 31.656 77.2225 29.28ZM71.9185 29.28C71.9185 28.152 72.4945 27.336 73.2625 27.336C74.0545 27.336 74.6065 28.152 74.6065 29.28C74.6065 30.384 74.0545 31.176 73.2625 31.176C72.4945 31.176 71.9185 30.384 71.9185 29.28ZM62.7745 21.216C62.7745 20.088 63.3505 19.272 64.1185 19.272C64.9105 19.272 65.4625 20.088 65.4625 21.216C65.4625 22.32 64.9105 23.112 64.1185 23.112C63.3505 23.112 62.7745 22.32 62.7745 21.216ZM86.7341 23.19H86.7701L88.6241 28.302H84.8801L86.7341 23.19ZM83.1701 33L84.3581 29.706H89.1461L90.3341 33H92.0621L87.7061 21.354H85.9061L81.5501 33H83.1701ZM95.287 20.328H93.757V33H95.287V20.328ZM103.14 32.946V31.668C102.762 31.812 102.132 31.92 101.574 31.92C100.44 31.92 99.9897 31.362 99.9897 30.516V25.332H103.086V24.072H99.9897V21.894H98.4597V24.072H97.1457V25.332H98.4597V30.768C98.4597 32.334 99.5217 33.234 101.304 33.234C101.97 33.234 102.744 33.09 103.14 32.946ZM106.379 33V27.672C106.523 26.484 107.243 25.368 108.629 25.368C108.935 25.368 109.367 25.422 109.619 25.494V23.982C109.439 23.91 109.007 23.838 108.701 23.838C107.657 23.838 106.685 24.756 106.325 25.89V24.072H104.849V33H106.379ZM118.288 30.966L117.064 30.498C116.596 31.416 115.732 31.974 114.76 31.974C113.266 31.974 112.186 30.732 112.078 28.86H118.27C118.324 28.626 118.36 28.14 118.36 27.744C118.36 25.458 116.794 23.838 114.616 23.838C112.24 23.838 110.476 25.854 110.476 28.608C110.476 31.308 112.24 33.234 114.67 33.234C116.272 33.234 117.658 32.388 118.288 30.966ZM114.634 25.08C115.894 25.08 116.776 26.088 116.83 27.636H112.168C112.438 26.088 113.392 25.08 114.634 25.08ZM131.823 30.966L130.599 30.498C130.131 31.416 129.267 31.974 128.295 31.974C126.801 31.974 125.721 30.732 125.613 28.86H131.805C131.859 28.626 131.895 28.14 131.895 27.744C131.895 25.458 130.329 23.838 128.151 23.838C125.775 23.838 124.011 25.854 124.011 28.608C124.011 31.308 125.775 33.234 128.205 33.234C129.807 33.234 131.193 32.388 131.823 30.966ZM128.169 25.08C129.429 25.08 130.311 26.088 130.365 27.636H125.703C125.973 26.088 126.927 25.08 128.169 25.08ZM141.552 33V27.096C141.552 25.188 140.22 23.838 138.474 23.838C137.196 23.838 136.116 24.594 135.522 25.44V24.072H134.046V33H135.576V26.52C136.134 25.728 137.106 25.134 138.114 25.134C139.23 25.134 140.022 25.962 140.022 27.204V33H141.552ZM151.388 30.966L150.164 30.498C149.696 31.416 148.832 31.974 147.86 31.974C146.366 31.974 145.286 30.732 145.178 28.86H151.37C151.424 28.626 151.46 28.14 151.46 27.744C151.46 25.458 149.894 23.838 147.716 23.838C145.34 23.838 143.576 25.854 143.576 28.608C143.576 31.308 145.34 33.234 147.77 33.234C149.372 33.234 150.758 32.388 151.388 30.966ZM147.734 25.08C148.994 25.08 149.876 26.088 149.93 27.636H145.268C145.538 26.088 146.492 25.08 147.734 25.08ZM155.141 33V27.672C155.285 26.484 156.005 25.368 157.391 25.368C157.697 25.368 158.129 25.422 158.381 25.494V23.982C158.201 23.91 157.769 23.838 157.463 23.838C156.419 23.838 155.447 24.756 155.087 25.89V24.072H153.611V33H155.141ZM167.714 33.594C167.714 32.298 166.76 31.614 164.726 31.434L163.466 31.326C162.206 31.218 161.756 31.002 161.756 30.732C161.756 30.516 161.954 30.21 162.134 30.012C162.44 30.084 162.782 30.12 163.106 30.12C165.05 30.12 166.634 28.86 166.634 27.114C166.634 26.466 166.436 25.854 166.058 25.332C166.544 25.08 167.318 24.864 168.038 24.864V23.496C166.94 23.496 166.076 24.018 165.536 24.756C164.888 24.198 164.006 23.838 162.998 23.838C161 23.838 159.434 25.206 159.434 27.006C159.434 28.284 160.226 29.256 161.342 29.76C160.766 30.156 160.28 30.768 160.28 31.182C160.28 31.542 160.532 31.848 160.982 32.082C159.866 32.55 159.056 33.36 159.056 34.17C159.056 35.646 160.694 36.51 163.196 36.51C165.968 36.51 167.714 35.286 167.714 33.594ZM163.214 35.34C161.54 35.34 160.586 34.728 160.586 33.936C160.586 33.324 161.144 32.73 161.9 32.406C162.26 32.496 162.674 32.568 163.142 32.604L164.402 32.712C165.842 32.838 166.202 33.18 166.202 33.828C166.202 34.674 165.032 35.34 163.214 35.34ZM160.964 27.024C160.964 25.89 161.828 25.008 163.016 25.008C164.204 25.008 165.104 25.89 165.104 27.024C165.104 28.14 164.204 28.95 163.016 28.95C161.828 28.95 160.964 28.14 160.964 27.024ZM171.26 24.072H169.73V33H171.26V24.072ZM171.26 20.526H169.73V22.308H171.26V20.526ZM181.2 30.966L179.976 30.498C179.508 31.416 178.644 31.974 177.672 31.974C176.178 31.974 175.098 30.732 174.99 28.86H181.182C181.236 28.626 181.272 28.14 181.272 27.744C181.272 25.458 179.706 23.838 177.528 23.838C175.152 23.838 173.388 25.854 173.388 28.608C173.388 31.308 175.152 33.234 177.582 33.234C179.184 33.234 180.57 32.388 181.2 30.966ZM177.546 25.08C178.806 25.08 179.688 26.088 179.742 27.636H175.08C175.35 26.088 176.304 25.08 177.546 25.08ZM189.101 33V27.672C189.245 26.484 189.965 25.368 191.351 25.368C191.657 25.368 192.089 25.422 192.341 25.494V23.982C192.161 23.91 191.729 23.838 191.423 23.838C190.379 23.838 189.407 24.756 189.047 25.89V24.072H187.571V33H189.101ZM195.623 24.072H194.093V33H195.623V24.072ZM195.623 20.526H194.093V22.308H195.623V20.526ZM205.906 33V27.096C205.906 25.188 204.574 23.838 202.828 23.838C201.55 23.838 200.47 24.594 199.876 25.44V24.072H198.4V33H199.93V26.52C200.488 25.728 201.46 25.134 202.468 25.134C203.584 25.134 204.376 25.962 204.376 27.204V33H205.906ZM216.083 33V27.096C216.083 25.188 214.751 23.838 213.005 23.838C211.727 23.838 210.647 24.594 210.053 25.44V24.072H208.577V33H210.107V26.52C210.665 25.728 211.637 25.134 212.645 25.134C213.761 25.134 214.553 25.962 214.553 27.204V33H216.083ZM226.747 28.554C226.747 25.818 224.929 23.838 222.427 23.838C219.925 23.838 218.089 25.818 218.089 28.554C218.089 31.254 219.925 33.234 222.427 33.234C224.929 33.234 226.747 31.254 226.747 28.554ZM219.709 28.554C219.709 26.574 220.843 25.116 222.427 25.116C223.993 25.116 225.127 26.574 225.127 28.554C225.127 30.498 223.993 31.938 222.427 31.938C220.843 31.938 219.709 30.498 219.709 28.554ZM227.679 24.072L230.901 33H232.485L235.689 24.072H234.141L231.765 31.02H231.711L229.335 24.072H227.679ZM244.663 33.144L244.735 31.974C244.627 31.992 244.447 32.01 244.339 32.01C243.799 32.01 243.529 31.632 243.529 31.146V27.042C243.529 24.972 242.269 23.838 240.325 23.838C238.777 23.838 237.427 24.702 236.779 26.106L237.967 26.592C238.417 25.746 239.119 25.116 240.181 25.116C241.279 25.116 241.999 25.872 241.999 26.988V27.69L239.911 27.942C237.931 28.194 236.527 29.148 236.527 30.804C236.527 32.226 237.661 33.234 239.245 33.234C240.505 33.234 241.495 32.622 242.071 31.668C242.287 32.694 242.953 33.234 243.961 33.234C244.231 33.234 244.447 33.198 244.663 33.144ZM239.659 31.992C238.759 31.992 238.129 31.452 238.129 30.696C238.129 29.778 238.993 29.238 240.181 29.094L241.999 28.878V30.516C241.531 31.38 240.649 31.992 239.659 31.992ZM254.524 28.5C254.524 25.8 252.922 23.838 250.726 23.838C249.7 23.838 248.566 24.414 247.9 25.26V20.328H246.37V33H247.81V31.92C248.494 32.694 249.61 33.234 250.582 33.234C252.868 33.234 254.524 31.254 254.524 28.5ZM250.222 31.956C249.286 31.956 248.386 31.47 247.9 30.804V26.358C248.386 25.62 249.34 25.134 250.312 25.134C251.806 25.134 252.904 26.538 252.904 28.482C252.904 30.48 251.77 31.956 250.222 31.956ZM258.184 24.072H256.654V33H258.184V24.072ZM258.184 20.526H256.654V22.308H258.184V20.526ZM262.49 20.328H260.96V33H262.49V20.328ZM266.797 24.072H265.267V33H266.797V24.072ZM266.797 20.526H265.267V22.308H266.797V20.526Z" fill="white"/>
<path d="M336.228 58.0126C336.345 58.215 336.557 58.3269 336.774 58.3269C336.881 58.3269 336.989 58.3023 337.088 58.2425C337.389 58.0692 337.492 57.6807 337.317 57.3796L335.821 54.7728C335.646 54.4685 335.262 54.3644 334.961 54.5413C334.66 54.713 334.557 55.1019 334.731 55.4042L336.228 58.0126Z" fill="white" fill-opacity="0.5"/>
<path d="M333.497 64.4978C333.497 64.1484 333.215 63.8643 332.867 63.8643L329.872 63.8644C329.525 63.8644 329.242 64.1483 329.242 64.498C329.242 64.8477 329.525 65.1329 329.872 65.1329H332.867C333.215 65.1325 333.497 64.8476 333.497 64.4978V64.4978Z" fill="white" fill-opacity="0.5"/>
<path d="M334.227 60.0236L331.635 58.5164C331.332 58.3417 330.947 58.4457 330.775 58.7493C330.601 59.0535 330.703 59.4404 331.005 59.6122L333.599 61.1188C333.698 61.1758 333.806 61.2016 333.913 61.2016C334.129 61.2016 334.342 61.0917 334.458 60.8856C334.633 60.586 334.53 60.1985 334.227 60.0237L334.227 60.0236Z" fill="white" fill-opacity="0.5"/>
<path d="M333.599 67.8804L331.005 69.3873C330.703 69.5627 330.601 69.9487 330.775 70.2517C330.891 70.4566 331.103 70.567 331.319 70.567C331.428 70.567 331.534 70.5425 331.635 70.4826L334.228 68.9777C334.53 68.8034 334.633 68.4176 334.458 68.1101C334.285 67.8103 333.9 67.704 333.599 67.8804L333.599 67.8804Z" fill="white" fill-opacity="0.5"/>
<path d="M347.449 61.2037C347.555 61.2037 347.663 61.1763 347.763 61.1194L350.357 59.6156C350.657 59.4408 350.76 59.0537 350.588 58.7499C350.414 58.4484 350.028 58.3421 349.727 58.517L347.135 60.0242C346.831 60.199 346.729 60.5865 346.903 60.8912C347.02 61.0926 347.232 61.2037 347.449 61.2037L347.449 61.2037Z" fill="white" fill-opacity="0.5"/>
<path d="M340.681 57.2763C341.029 57.2763 341.311 56.9925 341.311 56.6447V53.6316C341.311 53.2835 341.029 53 340.681 53C340.333 53 340.052 53.2837 340.052 53.6316V56.6446C340.052 56.9925 340.333 57.2764 340.681 57.2764V57.2763Z" fill="white" fill-opacity="0.5"/>
<path d="M344.273 58.2441C344.372 58.3022 344.481 58.3269 344.586 58.3269C344.805 58.3269 345.016 58.2162 345.131 58.0125L346.629 55.4042C346.804 55.1017 346.701 54.7153 346.4 54.5413C346.097 54.3644 345.714 54.4687 345.54 54.7727L344.042 57.3794C343.869 57.683 343.971 58.0694 344.273 58.2441L344.273 58.2441Z" fill="white" fill-opacity="0.5"/>
<path d="M351.489 63.8662H348.494C348.145 63.8662 347.864 64.1484 347.864 64.4982C347.864 64.8479 348.145 65.1329 348.493 65.1329H351.489C351.837 65.1329 352.119 64.8476 352.119 64.5014C352.119 64.1484 351.837 63.8662 351.489 63.8662H351.489Z" fill="white" fill-opacity="0.5"/>
<path d="M340.678 70.5766C344.015 70.5766 346.721 67.8555 346.721 64.5017C346.721 61.1453 344.015 58.4238 340.678 58.4238C337.34 58.4238 334.636 61.1453 334.636 64.5017C334.636 67.8554 337.34 70.5766 340.678 70.5766Z" fill="white" fill-opacity="0.5"/>
<path d="M350.357 69.3873L347.764 67.8804C347.462 67.704 347.077 67.8103 346.903 68.1099C346.729 68.4174 346.831 68.8031 347.135 68.9775L349.727 70.4825C349.826 70.5425 349.934 70.5701 350.041 70.5701C350.258 70.5701 350.469 70.4565 350.587 70.253C350.76 69.9488 350.657 69.5628 350.357 69.3873H350.357Z" fill="white" fill-opacity="0.5"/>
<path d="M337.087 70.7577C336.786 70.5832 336.401 70.6863 336.228 70.989L334.731 73.5973C334.557 73.9 334.659 74.2888 334.96 74.4617C335.059 74.5214 335.169 74.548 335.275 74.548C335.494 74.548 335.704 74.4342 335.822 74.2291L337.318 71.6209C337.492 71.3194 337.389 70.9338 337.087 70.7577L337.087 70.7577Z" fill="white" fill-opacity="0.5"/>
<path d="M345.131 70.989C344.959 70.6863 344.574 70.5832 344.273 70.7577C343.971 70.9338 343.869 71.3194 344.042 71.6209L345.54 74.2307C345.657 74.4342 345.868 74.548 346.085 74.548C346.193 74.548 346.301 74.5215 346.4 74.4616C346.701 74.2888 346.804 73.8999 346.629 73.5973L345.131 70.989Z" fill="white" fill-opacity="0.5"/>
<path d="M340.681 71.7246C340.333 71.7246 340.052 72.0085 340.052 72.359V75.3723C340.052 75.7184 340.333 76.0037 340.681 76.0037C341.029 76.0037 341.31 75.7184 341.31 75.3723V72.359C341.31 72.0085 341.029 71.7246 340.681 71.7246Z" fill="white" fill-opacity="0.5"/>
<path d="M335.908 119.475C335.839 119.32 335.82 119.145 335.855 118.974L338.487 106.637C338.566 106.268 338.897 106 339.271 106H340.094C340.469 106 340.797 106.268 340.876 106.638L343.511 118.975C343.547 119.143 343.529 119.322 343.46 119.477L341.772 123.239C341.113 123.008 340.418 122.858 339.683 122.858C338.947 122.858 338.253 123.011 337.594 123.239L335.908 119.475Z" fill="white" fill-opacity="0.5"/>
<path d="M333.101 137.514C333.002 137.652 332.859 137.754 332.697 137.811L320.754 141.685C320.394 141.793 319.998 141.65 319.813 141.321L319.402 140.606C319.215 140.278 319.28 139.859 319.559 139.604L328.872 131.142C328.997 131.03 329.161 130.957 329.327 130.938L333.391 130.528C333.667 131.972 334.436 133.233 335.502 134.161L333.101 137.514Z" fill="white" fill-opacity="0.5"/>
<path d="M341.564 173.696H337.806L339.233 135.717C339.385 135.727 339.531 135.761 339.687 135.761C339.842 135.761 339.988 135.727 340.14 135.717L341.564 173.696Z" fill="white" fill-opacity="0.5"/>
<path d="M359.968 140.605L359.557 141.32C359.37 141.644 358.972 141.792 358.618 141.684L346.673 137.81C346.509 137.756 346.368 137.648 346.269 137.513L343.867 134.16C344.935 133.232 345.704 131.973 345.978 130.527L350.04 130.937C350.212 130.956 350.372 131.029 350.497 131.145L359.81 139.604C360.091 139.858 360.157 140.277 359.968 140.605L359.968 140.605Z" fill="white" fill-opacity="0.5"/>
<path d="M339.683 124.465C337.028 124.465 334.869 126.639 334.869 129.308C334.869 131.976 337.028 134.147 339.683 134.147C342.338 134.147 344.497 131.976 344.497 129.308C344.497 126.639 342.335 124.465 339.683 124.465ZM339.683 131.439C338.515 131.439 337.564 130.482 337.564 129.31C337.564 128.136 338.515 127.18 339.683 127.18C340.852 127.18 341.799 128.137 341.799 129.31C341.799 130.482 340.852 131.439 339.683 131.439Z" fill="white" fill-opacity="0.5"/>
<path d="M340.2 129.308C340.2 130 339.167 130 339.167 129.308C339.167 128.616 340.2 128.616 340.2 129.308Z" fill="white" fill-opacity="0.5"/>
<path d="M350.147 284.796L340.708 264.015C340.429 263.389 339.846 263 339.184 263C338.538 263 337.947 263.397 337.668 264.015L328.237 284.796C327.176 287.146 326.258 289.175 326.258 292.388C326.258 299.896 332.059 306 339.184 306C346.317 306 352.118 299.896 352.118 292.388C352.126 289.167 351.161 287.045 350.147 284.796ZM347.251 286.461L339.439 300.792C339.439 300.792 339.439 300.8 339.431 300.8C339.224 301.164 338.889 301.375 338.53 301.375C338.362 301.375 338.195 301.325 338.051 301.232C337.612 300.97 337.373 300.378 337.469 299.786L338.785 291.382H332.035C331.612 291.382 331.229 291.086 331.053 290.621C330.894 290.198 330.926 289.7 331.133 289.311L338.937 274.989C339.136 274.617 339.479 274.405 339.838 274.405C340.006 274.405 340.165 274.456 340.317 274.541C340.756 274.794 340.995 275.386 340.908 275.978L339.591 284.382H346.341C346.756 284.382 347.147 284.678 347.323 285.143C347.482 285.574 347.45 286.073 347.251 286.461Z" fill="white" fill-opacity="0.5"/>
<path d="M339.269 36.3943C337.961 36.3943 336.891 36.0954 336.029 35.468C335.821 35.3185 335.791 35.0496 335.94 34.8403C336.088 34.631 336.356 34.6012 336.564 34.7507C337.278 35.2587 338.139 35.4978 339.269 35.4978C340.369 35.4978 341.26 35.2587 341.944 34.7507C342.152 34.6012 342.419 34.661 342.568 34.8403C342.717 35.0496 342.657 35.3185 342.479 35.468C341.647 36.0954 340.577 36.3943 339.269 36.3943H339.269Z" fill="white" fill-opacity="0.5"/>
<path d="M342.6 36.4542C342.452 36.2449 342.184 36.2151 341.976 36.3645C341.174 36.9324 340.163 37.022 339.301 37.022C338.053 37.022 337.25 36.8127 336.596 36.3347C336.388 36.1852 336.121 36.2451 335.972 36.4243C335.823 36.6336 335.883 36.9025 336.061 37.052C336.537 37.3807 337.012 37.5898 337.518 37.7094C337.607 38.606 338.38 39.323 339.301 39.323C340.222 39.323 340.995 38.6058 341.085 37.7094C341.59 37.59 342.065 37.3807 342.511 37.052C342.69 36.9323 342.749 36.6336 342.6 36.4542H342.6ZM339.271 38.4265C338.885 38.4265 338.588 38.1874 338.439 37.8587C338.707 37.8885 339.004 37.8885 339.271 37.8885C339.539 37.8885 339.806 37.8885 340.104 37.8587C339.985 38.1874 339.658 38.4265 339.271 38.4265Z" fill="white" fill-opacity="0.5"/>
<path d="M339.597 31.1054C340.37 30.2089 341.529 28.7448 342.183 27.4597C343.253 25.3081 343.015 22.9772 342.837 22.0508C342.035 22.2601 340.162 22.9473 338.943 25.3381C338.111 26.9817 338.349 28.8344 338.765 30.1791C338.943 28.3264 339.508 26.0851 340.965 24.1725C341.113 23.9633 341.381 23.9335 341.589 24.0829C341.797 24.2324 341.827 24.5013 341.678 24.7106C340.132 26.7724 339.687 29.2527 339.597 31.1056L339.597 31.1054Z" fill="white" fill-opacity="0.5"/>
<path d="M339.27 17C335.168 17 332.226 20.0482 332.226 24.2616C332.226 26.7122 333.326 28.296 334.277 29.6705C335.02 30.7463 335.644 31.6727 335.644 32.7783C335.644 34.153 337.725 34.7805 339.003 34.8701L338.854 34.0632C338.854 33.9735 338.735 33.3459 338.705 32.3597C338.646 32.2403 338.527 32.031 338.408 31.732C337.1 30.4472 334.277 27.2794 334.723 24.0222C334.752 23.8429 334.871 23.6934 335.049 23.6336C336.714 23.2451 337.843 23.8727 338.438 24.3509C340.251 21.4228 343.015 21.0941 343.134 21.0941C343.342 21.0642 343.55 21.2135 343.61 21.4228C343.639 21.5722 344.501 24.8295 342.985 27.8776C342.034 29.7901 340.102 31.9417 339.627 32.4795C339.656 33.3761 339.745 33.9438 339.775 33.9438L339.924 34.8103V34.8402C341.202 34.6609 342.926 34.0333 342.926 32.7782C342.926 31.6425 343.58 30.7162 344.293 29.6704C345.244 28.2957 346.344 26.7119 346.344 24.2615C346.314 20.078 343.372 17 339.27 17Z" fill="white" fill-opacity="0.5"/>
<path d="M336.952 25.3375C337.011 25.3673 337.279 25.6064 337.635 26.234C337.724 25.8755 337.843 25.5468 337.992 25.188C337.665 24.8593 336.833 24.2914 335.554 24.4707C335.436 26.3833 336.595 28.2958 337.694 29.6705C337.576 29.1923 337.516 28.6843 337.486 28.1465L337.457 28.1167C336.951 26.5031 336.416 26.0847 336.416 26.0847C336.238 25.9353 336.178 25.6664 336.327 25.4571C336.506 25.2476 336.773 25.2178 336.952 25.3374L336.952 25.3375Z" fill="white" fill-opacity="0.5"/>
<path d="M335.401 439.275L333.957 439.829L337.846 449.993L339.289 449.433C341.228 448.684 343.152 448.681 345.096 449.436L346.539 449.993L350.426 439.829L348.982 439.275C344.578 437.575 339.803 437.575 335.402 439.275L335.401 439.275Z" fill="white" fill-opacity="0.5"/>
<path d="M334.21 458.293L333.971 456.758L323.274 458.454L323.512 459.986C324.24 464.649 326.647 468.852 330.294 471.819L331.494 472.796L338.318 464.313L337.12 463.335C335.551 462.058 334.52 460.269 334.211 458.292L334.21 458.293Z" fill="white" fill-opacity="0.5"/>
<path d="M342.19 451.588C339.208 451.588 336.782 454.027 336.782 457.025C336.782 460.023 339.208 462.462 342.19 462.462C345.172 462.462 347.598 460.023 347.598 457.025C347.598 454.027 345.172 451.588 342.19 451.588Z" fill="white" fill-opacity="0.5"/>
<path d="M350.171 458.29C349.863 460.267 348.83 462.058 347.264 463.332L346.066 464.31L352.889 472.796L354.091 471.819C357.734 468.852 360.143 464.65 360.871 459.986L361.109 458.451L350.41 456.755L350.171 458.29Z" fill="white" fill-opacity="0.5"/>
<defs>
<filter id="filter0_d_1100_1096" x="0" y="154" width="378" height="432" filterUnits="userSpaceOnUse" color-interpolation-filters="sRGB">
<feFlood flood-opacity="0" result="BackgroundImageFix"/>
<feColorMatrix in="SourceAlpha" type="matrix" values="0 0 0 0 0 0 0 0 0 0 0 0 0 0 0 0 0 0 127 0" result="hardAlpha"/>
<feOffset dy="4"/>
<feGaussianBlur stdDeviation="2"/>
<feComposite in2="hardAlpha" operator="out"/>
<feColorMatrix type="matrix" values="0 0 0 0 0 0 0 0 0 0 0 0 0 0 0 0 0 0 0.25 0"/>
<feBlend mode="normal" in2="BackgroundImageFix" result="effect1_dropShadow_1100_1096"/>
<feBlend mode="normal" in="SourceGraphic" in2="effect1_dropShadow_1100_1096" result="shape"/>
</filter>
</defs>
</svg>
