<svg width="414" height="552" viewBox="0 0 414 552" fill="none" xmlns="http://www.w3.org/2000/svg">
<g filter="url(#filter0_d_1098_1101)">
<path d="M65 66C65 63.2386 67.2386 61 70 61L344 61C346.761 61 349 63.2386 349 66L349 478C349 480.761 346.761 483 344 483L70 483C67.2386 483 65 480.761 65 478L65 66Z" fill="#1767D2"/>
<path d="M65 66C65 63.2386 67.2386 61 70 61L344 61C346.761 61 349 63.2386 349 66L349 478C349 480.761 346.761 483 344 483L70 483C67.2386 483 65 480.761 65 478L65 66Z" stroke="#1767D2" stroke-width="3"/>
</g>
<path d="M93.17 126V120.57H95.63C100.31 120.57 103.67 117.66 103.67 113.58C103.67 109.53 100.28 106.59 95.54 106.59H87.92V126H93.17ZM93.17 110.82H95.3C96.98 110.82 98.21 111.96 98.21 113.58C98.21 115.23 96.98 116.37 95.3 116.37H93.17V110.82ZM121.023 118.5C121.023 113.91 117.663 110.55 113.043 110.55C108.363 110.55 104.973 113.91 104.973 118.5C104.973 123.09 108.363 126.42 113.043 126.42C117.663 126.42 121.023 123.09 121.023 118.5ZM110.133 118.5C110.133 116.16 111.363 114.45 113.043 114.45C114.693 114.45 115.863 116.16 115.863 118.5C115.863 120.84 114.693 122.52 113.043 122.52C111.363 122.52 110.133 120.84 110.133 118.5ZM128.371 126V118.83C128.641 116.52 129.781 115.14 132.031 115.14C132.451 115.14 133.051 115.23 133.471 115.35V110.79C133.051 110.64 132.541 110.55 131.971 110.55C130.261 110.55 128.791 112.35 128.161 114.39V111H123.421V126H128.371ZM145.989 125.97V122.13C145.509 122.25 144.789 122.43 143.889 122.43C142.449 122.43 141.729 121.74 141.729 120.45V114.84H145.869V111H141.729V107.34H136.779V111H134.469V114.84H136.779V121.71C136.779 124.65 138.759 126.45 142.749 126.45C143.919 126.45 145.179 126.24 145.989 125.97ZM163.239 118.5C163.239 113.91 159.879 110.55 155.259 110.55C150.579 110.55 147.189 113.91 147.189 118.5C147.189 123.09 150.579 126.42 155.259 126.42C159.879 126.42 163.239 123.09 163.239 118.5ZM152.349 118.5C152.349 116.16 153.579 114.45 155.259 114.45C156.909 114.45 158.079 116.16 158.079 118.5C158.079 120.84 156.909 122.52 155.259 122.52C153.579 122.52 152.349 120.84 152.349 118.5ZM180.49 126.51C180.49 124.26 178.75 122.91 175.12 122.67L172.63 122.52C170.74 122.4 169.78 122.19 169.78 121.8C169.78 121.59 169.96 121.26 170.11 120.99C170.71 121.11 171.34 121.17 171.97 121.17C175.75 121.17 178.69 119.22 178.69 116.04C178.69 115.35 178.54 114.66 178.21 114.03C179.05 113.79 180.19 113.58 181.12 113.58V109.92C179.2 109.92 177.7 110.91 176.89 112.29C175.66 111.24 173.89 110.55 171.7 110.55C167.86 110.55 164.86 112.77 164.86 115.83C164.86 117.87 166.15 119.4 168.01 120.3C166.84 121.08 165.91 122.19 165.91 122.97C165.91 123.72 166.45 124.38 167.32 124.92C165.4 125.55 164.08 126.57 164.08 128.01C164.08 130.29 167.23 131.64 171.7 131.64C177.19 131.64 180.49 129.6 180.49 126.51ZM172.24 128.76C170.02 128.76 168.64 128.07 168.64 127.2C168.64 126.69 169.03 126.18 169.6 125.85C170.2 126.03 170.83 126.12 171.49 126.18L173.74 126.36C175.27 126.48 175.84 126.72 175.84 127.41C175.84 128.28 174.37 128.76 172.24 128.76ZM169.51 115.89C169.51 114.51 170.62 113.61 171.79 113.61C172.96 113.61 174.1 114.45 174.1 115.89C174.1 117.33 172.99 118.14 171.82 118.14C170.65 118.14 169.51 117.33 169.51 115.89ZM196.938 126.15L197.148 122.82C196.908 122.85 196.548 122.88 196.338 122.88C195.678 122.88 195.408 122.43 195.408 121.56V116.46C195.408 112.56 193.068 110.55 189.108 110.55C185.628 110.55 183.348 112.29 182.298 114.78L185.808 116.25C186.378 115.14 187.308 114.27 188.568 114.27C189.768 114.27 190.548 115.08 190.548 116.28V116.91L187.428 117.42C183.828 118.05 181.758 119.82 181.758 122.37C181.758 124.77 183.618 126.45 186.228 126.45C188.298 126.45 189.948 125.4 190.968 123.96C191.748 125.76 193.278 126.45 195.078 126.45C195.768 126.45 196.428 126.33 196.938 126.15ZM188.298 123C187.338 123 186.708 122.4 186.708 121.59C186.708 120.63 187.518 120.03 188.748 119.82L190.548 119.52V121.92C189.978 122.55 189.168 123 188.298 123ZM204.045 105.24H199.095V126H204.045V105.24ZM212.307 105.24H207.357V126H212.307V105.24ZM230.769 118.5C230.769 113.91 227.409 110.55 222.789 110.55C218.109 110.55 214.719 113.91 214.719 118.5C214.719 123.09 218.109 126.42 222.789 126.42C227.409 126.42 230.769 123.09 230.769 118.5ZM219.879 118.5C219.879 116.16 221.109 114.45 222.789 114.45C224.439 114.45 225.609 116.16 225.609 118.5C225.609 120.84 224.439 122.52 222.789 122.52C221.109 122.52 219.879 120.84 219.879 118.5Z" fill="white"/>
<mask id="mask0_1098_1101" style="mask-type:alpha" maskUnits="userSpaceOnUse" x="93" y="268" width="269" height="215">
<path d="M362 298.236V279.758C362 277.019 360.668 274.607 358.635 273.076C358.635 273.064 358.637 273.053 358.637 273.041C358.637 270.258 356.377 268 353.592 268C350.806 267.998 348.551 270.256 348.551 273.041C348.551 273.053 348.553 273.064 348.553 273.076C346.52 274.611 345.188 277.021 345.188 279.758V298.236H338.462V284.799H331.736V298.236H325.01V284.799H318.284V298.236H311.558V284.799H304.832V298.236H298.106V284.799H291.38V298.236H284.654V284.799H277.928V298.236H271.202V279.758C271.202 277.019 269.87 274.607 267.837 273.076C267.837 273.064 267.839 273.053 267.839 273.041C267.839 270.258 265.579 268 262.794 268C260.008 268 257.748 270.254 257.748 273.041C257.748 273.053 257.75 273.064 257.75 273.076C255.732 274.609 254.398 277.019 254.398 279.76V298.238L262.806 308.315V331.831H254.398V432.612H234.223L234.225 422.531H214.049V432.608H193.874V422.531H173.699V432.608H153.524V422.531H133.351V432.608H113.175V411.947C113.175 408.55 111.12 405.163 108.076 403.305C107.805 400.618 105.688 398.843 103.087 398.843C100.487 398.843 98.3706 400.618 98.0975 403.305C95.0557 405.163 93 408.55 93 411.949V442.183L103.086 462.339V483H361.996V331.829H353.587V308.313L362 298.236ZM106.453 424.211H99.7293V414.134H106.453V424.211ZM128.311 457.805H118.224V447.728H128.311V457.805ZM168.661 457.805H158.575V447.728H168.661V457.805ZM209.01 457.805H198.923V447.728H209.01V457.805ZM249.36 457.805H239.274V447.728H249.36V457.805ZM266.173 288.157H259.447V279.757H266.173V288.157ZM301.477 320.074C301.477 316.362 304.49 313.354 308.203 313.354C311.917 313.354 314.929 316.362 314.929 320.074V331.834H303.16L301.478 331.832L301.477 320.074ZM298.114 360.385V359.546C298.114 357.225 299.995 355.347 302.318 355.347C304.64 355.347 306.521 357.225 306.521 359.546V377.182H298.112L298.11 360.385L298.114 360.385ZM318.29 432.611H298.114V415.815C298.114 410.251 302.634 405.738 308.201 405.738C313.77 405.738 318.287 410.253 318.287 415.815L318.29 432.611ZM318.29 360.385V377.182H309.881V359.546C309.881 357.225 311.762 355.347 314.085 355.347C316.407 355.347 318.288 357.225 318.288 359.546L318.286 360.385L318.29 360.385ZM350.234 288.159V279.759H356.96V288.159H350.234Z" fill="white" fill-opacity="0.2"/>
</mask>
<g mask="url(#mask0_1098_1101)">
<rect x="65" y="61" width="284" height="422" fill="#C4C4C4"/>
</g>
<path d="M89.24 300.354H87.584V312H89.24V300.354ZM93.7324 299.328H92.2024V312H93.7324V299.328ZM116.401 306.66C116.401 303.69 113.731 301.53 110.011 301.53C108.211 301.53 106.501 302.07 105.331 302.88C105.691 300.48 107.041 299.07 109.141 299.07C110.611 299.07 111.961 299.73 112.771 300.72L115.981 298.77C114.751 297.09 112.291 295.62 108.931 295.62C103.711 295.62 100.171 299.19 100.171 304.23C100.141 309.3 103.711 312.42 108.661 312.42C113.041 312.42 116.401 309.99 116.401 306.66ZM108.631 308.97C106.981 308.97 105.811 307.89 105.391 306C106.231 305.28 107.401 304.89 108.571 304.89C110.311 304.89 111.241 305.73 111.241 306.84C111.241 308.1 110.101 308.97 108.631 308.97ZM125.991 303.09C124.341 303.09 123.441 302.28 123.441 301.2C123.441 299.97 124.551 299.07 125.961 299.07C127.581 299.07 128.721 300.12 129.171 302.01C128.331 302.73 127.161 303.09 125.991 303.09ZM118.251 301.38C118.251 304.32 120.921 306.45 124.551 306.45C126.381 306.45 128.091 305.91 129.291 305.1C128.991 307.68 127.701 308.97 125.301 308.97C123.651 308.97 122.061 308.31 121.101 307.29L117.891 309.27C119.241 310.95 121.881 312.42 125.511 312.42C131.001 312.42 134.421 309.06 134.421 303.84C134.421 298.8 130.791 295.62 125.931 295.62C121.671 295.62 118.251 298.11 118.251 301.38ZM155.707 293.55L154.297 292.14C152.917 293.28 150.817 294 148.687 294C147.127 294 145.417 293.7 144.217 293.28C143.377 292.56 142.267 292.14 141.007 292.14C138.127 292.14 136.057 294.3 136.057 297.27C136.057 300.24 138.127 302.37 141.007 302.37C143.887 302.37 145.957 300.24 145.957 297.27C145.957 296.67 145.867 296.07 145.717 295.56C146.647 295.98 147.697 296.22 148.627 296.22C149.497 296.19 150.457 295.92 151.417 295.41L137.617 311.01L139.087 312.45L155.707 293.55ZM157.387 307.35C157.387 304.38 155.317 302.22 152.437 302.22C149.557 302.22 147.487 304.38 147.487 307.35C147.487 310.32 149.557 312.45 152.437 312.45C155.317 312.45 157.387 310.32 157.387 307.35ZM150.757 307.35C150.757 305.94 151.477 304.92 152.437 304.92C153.427 304.92 154.117 305.94 154.117 307.35C154.117 308.73 153.427 309.72 152.437 309.72C151.477 309.72 150.757 308.73 150.757 307.35ZM139.327 297.27C139.327 295.86 140.047 294.84 141.007 294.84C141.997 294.84 142.687 295.86 142.687 297.27C142.687 298.65 141.997 299.64 141.007 299.64C140.047 299.64 139.327 298.65 139.327 297.27ZM165.193 312V306.672C165.337 305.484 166.057 304.368 167.443 304.368C167.749 304.368 168.181 304.422 168.433 304.494V302.982C168.253 302.91 167.821 302.838 167.515 302.838C166.471 302.838 165.499 303.756 165.139 304.89V303.072H163.663V312H165.193ZM171.715 303.072H170.185V312H171.715V303.072ZM171.715 299.526H170.185V301.308H171.715V299.526ZM179.567 311.946V310.668C179.189 310.812 178.559 310.92 178.001 310.92C176.867 310.92 176.417 310.362 176.417 309.516V304.332H179.513V303.072H176.417V300.894H174.887V303.072H173.573V304.332H174.887V309.768C174.887 311.334 175.949 312.234 177.731 312.234C178.397 312.234 179.171 312.09 179.567 311.946ZM182.807 303.072H181.277V312H182.807V303.072ZM182.807 299.526H181.277V301.308H182.807V299.526ZM192.747 309.966L191.523 309.498C191.055 310.416 190.191 310.974 189.219 310.974C187.725 310.974 186.645 309.732 186.537 307.86H192.729C192.783 307.626 192.819 307.14 192.819 306.744C192.819 304.458 191.253 302.838 189.075 302.838C186.699 302.838 184.935 304.854 184.935 307.608C184.935 310.308 186.699 312.234 189.129 312.234C190.731 312.234 192.117 311.388 192.747 309.966ZM189.093 304.08C190.353 304.08 191.235 305.088 191.289 306.636H186.627C186.897 305.088 187.851 304.08 189.093 304.08ZM202.476 312V306.096C202.476 304.188 201.144 302.838 199.398 302.838C198.12 302.838 197.04 303.594 196.446 304.44V303.072H194.97V312H196.5V305.52C197.058 304.728 198.03 304.134 199.038 304.134C200.154 304.134 200.946 304.962 200.946 306.204V312H202.476ZM212.312 309.966L211.088 309.498C210.62 310.416 209.756 310.974 208.784 310.974C207.29 310.974 206.21 309.732 206.102 307.86H212.294C212.348 307.626 212.384 307.14 212.384 306.744C212.384 304.458 210.818 302.838 208.64 302.838C206.264 302.838 204.5 304.854 204.5 307.608C204.5 310.308 206.264 312.234 208.694 312.234C210.296 312.234 211.682 311.388 212.312 309.966ZM208.658 304.08C209.918 304.08 210.8 305.088 210.854 306.636H206.192C206.462 305.088 207.416 304.08 208.658 304.08ZM225.613 309.804L224.317 309.3C223.885 310.29 223.165 310.92 222.175 310.92C220.717 310.92 219.655 309.534 219.655 307.608C219.655 305.592 220.681 304.134 222.103 304.134C223.003 304.134 223.777 304.692 224.209 305.736L225.541 305.196C224.911 303.756 223.705 302.838 222.067 302.838C219.727 302.838 218.035 304.836 218.035 307.608C218.035 310.29 219.745 312.234 222.121 312.234C223.759 312.234 225.037 311.208 225.613 309.804ZM234.978 312V306.114C234.978 304.188 233.646 302.838 231.9 302.838C230.658 302.838 229.596 303.54 229.002 304.368V299.328H227.472V312H229.002V305.52C229.56 304.728 230.532 304.134 231.54 304.134C232.656 304.134 233.448 304.962 233.448 306.204V312H234.978ZM244.814 309.966L243.59 309.498C243.122 310.416 242.258 310.974 241.286 310.974C239.792 310.974 238.712 309.732 238.604 307.86H244.796C244.85 307.626 244.886 307.14 244.886 306.744C244.886 304.458 243.32 302.838 241.142 302.838C238.766 302.838 237.002 304.854 237.002 307.608C237.002 310.308 238.766 312.234 241.196 312.234C242.798 312.234 244.184 311.388 244.814 309.966ZM241.16 304.08C242.42 304.08 243.302 305.088 243.356 306.636H238.694C238.964 305.088 239.918 304.08 241.16 304.08ZM252.715 299.328H251.185V312H252.715V299.328ZM262.889 312.144L262.961 310.974C262.853 310.992 262.673 311.01 262.565 311.01C262.025 311.01 261.755 310.632 261.755 310.146V306.042C261.755 303.972 260.495 302.838 258.551 302.838C257.003 302.838 255.653 303.702 255.005 305.106L256.193 305.592C256.643 304.746 257.345 304.116 258.407 304.116C259.505 304.116 260.225 304.872 260.225 305.988V306.69L258.137 306.942C256.157 307.194 254.753 308.148 254.753 309.804C254.753 311.226 255.887 312.234 257.471 312.234C258.731 312.234 259.721 311.622 260.297 310.668C260.513 311.694 261.179 312.234 262.187 312.234C262.457 312.234 262.673 312.198 262.889 312.144ZM257.885 310.992C256.985 310.992 256.355 310.452 256.355 309.696C256.355 308.778 257.219 308.238 258.407 308.094L260.225 307.878V309.516C259.757 310.38 258.875 310.992 257.885 310.992ZM92.462 333.946V332.668C92.084 332.812 91.454 332.92 90.896 332.92C89.762 332.92 89.312 332.362 89.312 331.516V326.332H92.408V325.072H89.312V322.894H87.782V325.072H86.468V326.332H87.782V331.768C87.782 333.334 88.844 334.234 90.626 334.234C91.292 334.234 92.066 334.09 92.462 333.946ZM95.7012 334V328.672C95.8452 327.484 96.5652 326.368 97.9512 326.368C98.2572 326.368 98.6892 326.422 98.9412 326.494V324.982C98.7612 324.91 98.3292 324.838 98.0232 324.838C96.9792 324.838 96.0072 325.756 95.6472 326.89V325.072H94.1712V334H95.7012ZM107.88 334.144L107.952 332.974C107.844 332.992 107.664 333.01 107.556 333.01C107.016 333.01 106.746 332.632 106.746 332.146V328.042C106.746 325.972 105.486 324.838 103.542 324.838C101.994 324.838 100.644 325.702 99.9957 327.106L101.184 327.592C101.634 326.746 102.336 326.116 103.398 326.116C104.496 326.116 105.216 326.872 105.216 327.988V328.69L103.128 328.942C101.148 329.194 99.7437 330.148 99.7437 331.804C99.7437 333.226 100.878 334.234 102.462 334.234C103.722 334.234 104.712 333.622 105.288 332.668C105.504 333.694 106.17 334.234 107.178 334.234C107.448 334.234 107.664 334.198 107.88 334.144ZM102.876 332.992C101.976 332.992 101.346 332.452 101.346 331.696C101.346 330.778 102.21 330.238 103.398 330.094L105.216 329.878V331.516C104.748 332.38 103.866 332.992 102.876 332.992ZM117.093 334V328.096C117.093 326.188 115.761 324.838 114.015 324.838C112.737 324.838 111.657 325.594 111.063 326.44V325.072H109.587V334H111.117V327.52C111.675 326.728 112.647 326.134 113.655 326.134C114.771 326.134 115.563 326.962 115.563 328.204V334H117.093ZM126.587 331.552C126.587 329.896 125.183 329.212 123.167 328.78C121.655 328.438 120.791 328.168 120.791 327.376C120.791 326.62 121.637 326.098 122.825 326.098C124.067 326.098 124.895 326.62 125.309 327.484L126.533 326.998C126.011 325.9 124.913 324.838 122.843 324.838C120.737 324.838 119.297 325.954 119.297 327.466C119.297 329.014 120.755 329.734 122.735 330.148C124.265 330.472 125.111 330.778 125.111 331.624C125.111 332.434 124.355 332.992 123.041 332.992C121.547 332.992 120.593 332.326 120.143 331.444L118.883 331.93C119.495 333.334 120.935 334.234 122.969 334.234C125.237 334.234 126.587 333.136 126.587 331.552ZM130.207 325.072H128.677V334H130.207V325.072ZM130.207 321.526H128.677V323.308H130.207V321.526ZM132.372 326.404H137.178L132.246 332.812V334H139.23V332.668H134.082L139.14 326.26V325.072H132.372V326.404ZM142.775 325.072H141.245V334H142.775V325.072ZM142.775 321.526H141.245V323.308H142.775V321.526ZM153.544 329.554C153.544 326.818 151.726 324.838 149.224 324.838C146.722 324.838 144.886 326.818 144.886 329.554C144.886 332.254 146.722 334.234 149.224 334.234C151.726 334.234 153.544 332.254 153.544 329.554ZM146.506 329.554C146.506 327.574 147.64 326.116 149.224 326.116C150.79 326.116 151.924 327.574 151.924 329.554C151.924 331.498 150.79 332.938 149.224 332.938C147.64 332.938 146.506 331.498 146.506 329.554ZM163.148 334V328.096C163.148 326.188 161.816 324.838 160.07 324.838C158.792 324.838 157.712 325.594 157.118 326.44V325.072H155.642V334H157.172V327.52C157.73 326.728 158.702 326.134 159.71 326.134C160.826 326.134 161.618 326.962 161.618 328.204V334H163.148ZM172.984 331.966L171.76 331.498C171.292 332.416 170.428 332.974 169.456 332.974C167.962 332.974 166.882 331.732 166.774 329.86H172.966C173.02 329.626 173.056 329.14 173.056 328.744C173.056 326.458 171.49 324.838 169.312 324.838C166.936 324.838 165.172 326.854 165.172 329.608C165.172 332.308 166.936 334.234 169.366 334.234C170.968 334.234 172.354 333.388 172.984 331.966ZM169.33 326.08C170.59 326.08 171.472 327.088 171.526 328.636H166.864C167.134 327.088 168.088 326.08 169.33 326.08ZM178.013 325.072L181.235 334H182.819L186.023 325.072H184.475L182.099 332.02H182.045L179.669 325.072H178.013ZM194.816 331.966L193.592 331.498C193.124 332.416 192.26 332.974 191.288 332.974C189.794 332.974 188.714 331.732 188.606 329.86H194.798C194.852 329.626 194.888 329.14 194.888 328.744C194.888 326.458 193.322 324.838 191.144 324.838C188.768 324.838 187.004 326.854 187.004 329.608C187.004 332.308 188.768 334.234 191.198 334.234C192.8 334.234 194.186 333.388 194.816 331.966ZM191.162 326.08C192.422 326.08 193.304 327.088 193.358 328.636H188.696C188.966 327.088 189.92 326.08 191.162 326.08ZM198.568 334V328.672C198.712 327.484 199.432 326.368 200.818 326.368C201.124 326.368 201.556 326.422 201.808 326.494V324.982C201.628 324.91 201.196 324.838 200.89 324.838C199.846 324.838 198.874 325.756 198.514 326.89V325.072H197.038V334H198.568ZM206.877 332.956C205.383 332.956 204.321 331.534 204.321 329.59C204.321 327.592 205.437 326.134 206.985 326.134C207.939 326.134 208.821 326.566 209.289 327.25V331.66C208.767 332.434 207.813 332.956 206.877 332.956ZM210.819 334V321.328H209.289V326.044C208.677 325.324 207.633 324.838 206.661 324.838C204.357 324.838 202.683 326.836 202.683 329.608C202.683 332.29 204.303 334.234 206.535 334.234C207.561 334.234 208.713 333.604 209.379 332.722V334H210.819ZM220.761 331.966L219.537 331.498C219.069 332.416 218.205 332.974 217.233 332.974C215.739 332.974 214.659 331.732 214.551 329.86H220.743C220.797 329.626 220.833 329.14 220.833 328.744C220.833 326.458 219.267 324.838 217.089 324.838C214.713 324.838 212.949 326.854 212.949 329.608C212.949 332.308 214.713 334.234 217.143 334.234C218.745 334.234 220.131 333.388 220.761 331.966ZM217.107 326.08C218.367 326.08 219.249 327.088 219.303 328.636H214.641C214.911 327.088 215.865 326.08 217.107 326.08ZM233.954 331.552C233.954 329.896 232.55 329.212 230.534 328.78C229.022 328.438 228.158 328.168 228.158 327.376C228.158 326.62 229.004 326.098 230.192 326.098C231.434 326.098 232.262 326.62 232.676 327.484L233.9 326.998C233.378 325.9 232.28 324.838 230.21 324.838C228.104 324.838 226.664 325.954 226.664 327.466C226.664 329.014 228.122 329.734 230.102 330.148C231.632 330.472 232.478 330.778 232.478 331.624C232.478 332.434 231.722 332.992 230.408 332.992C228.914 332.992 227.96 332.326 227.51 331.444L226.25 331.93C226.862 333.334 228.302 334.234 230.336 334.234C232.604 334.234 233.954 333.136 233.954 331.552ZM243.442 334.144L243.514 332.974C243.406 332.992 243.226 333.01 243.118 333.01C242.578 333.01 242.308 332.632 242.308 332.146V328.042C242.308 325.972 241.048 324.838 239.104 324.838C237.556 324.838 236.206 325.702 235.558 327.106L236.746 327.592C237.196 326.746 237.898 326.116 238.96 326.116C240.058 326.116 240.778 326.872 240.778 327.988V328.69L238.69 328.942C236.71 329.194 235.306 330.148 235.306 331.804C235.306 333.226 236.44 334.234 238.024 334.234C239.284 334.234 240.274 333.622 240.85 332.668C241.066 333.694 241.732 334.234 242.74 334.234C243.01 334.234 243.226 334.198 243.442 334.144ZM238.438 332.992C237.538 332.992 236.908 332.452 236.908 331.696C236.908 330.778 237.772 330.238 238.96 330.094L240.778 329.878V331.516C240.31 332.38 239.428 332.992 238.438 332.992ZM246.68 334V328.672C246.824 327.484 247.544 326.368 248.93 326.368C249.236 326.368 249.668 326.422 249.92 326.494V324.982C249.74 324.91 249.308 324.838 249.002 324.838C247.958 324.838 246.986 325.756 246.626 326.89V325.072H245.15V334H246.68ZM258.858 334.144L258.93 332.974C258.822 332.992 258.642 333.01 258.534 333.01C257.994 333.01 257.724 332.632 257.724 332.146V328.042C257.724 325.972 256.464 324.838 254.52 324.838C252.972 324.838 251.622 325.702 250.974 327.106L252.162 327.592C252.612 326.746 253.314 326.116 254.376 326.116C255.474 326.116 256.194 326.872 256.194 327.988V328.69L254.106 328.942C252.126 329.194 250.722 330.148 250.722 331.804C250.722 333.226 251.856 334.234 253.44 334.234C254.7 334.234 255.69 333.622 256.266 332.668C256.482 333.694 257.148 334.234 258.156 334.234C258.426 334.234 258.642 334.198 258.858 334.144ZM253.854 332.992C252.954 332.992 252.324 332.452 252.324 331.696C252.324 330.778 253.188 330.238 254.376 330.094L256.194 329.878V331.516C255.726 332.38 254.844 332.992 253.854 332.992ZM255.708 323.146L253.008 320.662L251.964 321.904L254.934 324.082L255.708 323.146ZM92.624 348.332V347.072H89.366V346.712C89.366 345.236 90.104 344.372 91.292 344.372C91.778 344.372 92.372 344.462 92.768 344.624L92.804 343.346C92.39 343.22 91.67 343.094 91.13 343.094C89.078 343.094 87.836 344.444 87.836 346.73V347.072H86.684V348.332H87.836V356H89.366V348.332H92.624ZM101.741 351.554C101.741 348.818 99.9233 346.838 97.4213 346.838C94.9193 346.838 93.0833 348.818 93.0833 351.554C93.0833 354.254 94.9193 356.234 97.4213 356.234C99.9233 356.234 101.741 354.254 101.741 351.554ZM94.7033 351.554C94.7033 349.574 95.8373 348.116 97.4213 348.116C98.9873 348.116 100.121 349.574 100.121 351.554C100.121 353.498 98.9873 354.938 97.4213 354.938C95.8373 354.938 94.7033 353.498 94.7033 351.554ZM111.345 356V350.096C111.345 348.188 110.013 346.838 108.267 346.838C106.989 346.838 105.909 347.594 105.315 348.44V347.072H103.839V356H105.369V349.52C105.927 348.728 106.899 348.134 107.907 348.134C109.023 348.134 109.815 348.962 109.815 350.204V356H111.345ZM118.987 355.946V354.668C118.609 354.812 117.979 354.92 117.421 354.92C116.287 354.92 115.837 354.362 115.837 353.516V348.332H118.933V347.072H115.837V344.894H114.307V347.072H112.993V348.332H114.307V353.768C114.307 355.334 115.369 356.234 117.151 356.234C117.817 356.234 118.591 356.09 118.987 355.946ZM127.773 353.966L126.549 353.498C126.081 354.416 125.217 354.974 124.245 354.974C122.751 354.974 121.671 353.732 121.563 351.86H127.755C127.809 351.626 127.845 351.14 127.845 350.744C127.845 348.458 126.279 346.838 124.101 346.838C121.725 346.838 119.961 348.854 119.961 351.608C119.961 354.308 121.725 356.234 124.155 356.234C125.757 356.234 127.143 355.388 127.773 353.966ZM124.119 348.08C125.379 348.08 126.261 349.088 126.315 350.636H121.653C121.923 349.088 122.877 348.08 124.119 348.08ZM137.69 354.956C136.196 354.956 135.134 353.534 135.134 351.59C135.134 349.592 136.25 348.134 137.798 348.134C138.752 348.134 139.634 348.566 140.102 349.25V353.66C139.58 354.434 138.626 354.956 137.69 354.956ZM141.632 356V343.328H140.102V348.044C139.49 347.324 138.446 346.838 137.474 346.838C135.17 346.838 133.496 348.836 133.496 351.608C133.496 354.29 135.116 356.234 137.348 356.234C138.374 356.234 139.526 355.604 140.192 354.722V356H141.632ZM145.939 347.072H144.409V356H145.939V347.072ZM145.939 343.526H144.409V345.308H145.939V343.526ZM159.795 353.804L158.499 353.3C158.067 354.29 157.347 354.92 156.357 354.92C154.899 354.92 153.837 353.534 153.837 351.608C153.837 349.592 154.863 348.134 156.285 348.134C157.185 348.134 157.959 348.692 158.391 349.736L159.723 349.196C159.093 347.756 157.887 346.838 156.249 346.838C153.909 346.838 152.217 348.836 152.217 351.608C152.217 354.29 153.927 356.234 156.303 356.234C157.941 356.234 159.219 355.208 159.795 353.804ZM163.184 356V350.672C163.328 349.484 164.048 348.368 165.434 348.368C165.74 348.368 166.172 348.422 166.424 348.494V346.982C166.244 346.91 165.812 346.838 165.506 346.838C164.462 346.838 163.49 347.756 163.13 348.89V347.072H161.654V356H163.184ZM175.093 353.966L173.869 353.498C173.401 354.416 172.537 354.974 171.565 354.974C170.071 354.974 168.991 353.732 168.883 351.86H175.075C175.129 351.626 175.165 351.14 175.165 350.744C175.165 348.458 173.599 346.838 171.421 346.838C169.045 346.838 167.281 348.854 167.281 351.608C167.281 354.308 169.045 356.234 171.475 356.234C173.077 356.234 174.463 355.388 175.093 353.966ZM171.439 348.08C172.699 348.08 173.581 349.088 173.635 350.636H168.973C169.243 349.088 170.197 348.08 171.439 348.08ZM184.138 353.552C184.138 351.896 182.734 351.212 180.718 350.78C179.206 350.438 178.342 350.168 178.342 349.376C178.342 348.62 179.188 348.098 180.376 348.098C181.618 348.098 182.446 348.62 182.86 349.484L184.084 348.998C183.562 347.9 182.464 346.838 180.394 346.838C178.288 346.838 176.848 347.954 176.848 349.466C176.848 351.014 178.306 351.734 180.286 352.148C181.816 352.472 182.662 352.778 182.662 353.624C182.662 354.434 181.906 354.992 180.592 354.992C179.098 354.992 178.144 354.326 177.694 353.444L176.434 353.93C177.046 355.334 178.486 356.234 180.52 356.234C182.788 356.234 184.138 355.136 184.138 353.552ZM193.158 353.804L191.862 353.3C191.43 354.29 190.71 354.92 189.72 354.92C188.262 354.92 187.2 353.534 187.2 351.608C187.2 349.592 188.226 348.134 189.648 348.134C190.548 348.134 191.322 348.692 191.754 349.736L193.086 349.196C192.456 347.756 191.25 346.838 189.612 346.838C187.272 346.838 185.58 348.836 185.58 351.608C185.58 354.29 187.29 356.234 189.666 356.234C191.304 356.234 192.582 355.208 193.158 353.804ZM196.547 347.072H195.017V356H196.547V347.072ZM196.547 343.526H195.017V345.308H196.547V343.526ZM204.4 355.946V354.668C204.022 354.812 203.392 354.92 202.834 354.92C201.7 354.92 201.25 354.362 201.25 353.516V348.332H204.346V347.072H201.25V344.894H199.72V347.072H198.406V348.332H199.72V353.768C199.72 355.334 200.782 356.234 202.563 356.234C203.229 356.234 204.004 356.09 204.4 355.946ZM213.507 356.144L213.579 354.974C213.471 354.992 213.291 355.01 213.183 355.01C212.643 355.01 212.373 354.632 212.373 354.146V350.042C212.373 347.972 211.113 346.838 209.169 346.838C207.621 346.838 206.271 347.702 205.623 349.106L206.811 349.592C207.261 348.746 207.963 348.116 209.025 348.116C210.123 348.116 210.843 348.872 210.843 349.988V350.69L208.755 350.942C206.775 351.194 205.371 352.148 205.371 353.804C205.371 355.226 206.505 356.234 208.089 356.234C209.349 356.234 210.339 355.622 210.915 354.668C211.131 355.694 211.797 356.234 212.805 356.234C213.075 356.234 213.291 356.198 213.507 356.144ZM208.503 354.992C207.603 354.992 206.973 354.452 206.973 353.696C206.973 352.778 207.837 352.238 209.025 352.094L210.843 351.878V353.516C210.375 354.38 209.493 354.992 208.503 354.992ZM94.55 375.966L93.326 375.498C92.858 376.416 91.994 376.974 91.022 376.974C89.528 376.974 88.448 375.732 88.34 373.86H94.532C94.586 373.626 94.622 373.14 94.622 372.744C94.622 370.458 93.056 368.838 90.878 368.838C88.502 368.838 86.738 370.854 86.738 373.608C86.738 376.308 88.502 378.234 90.932 378.234C92.534 378.234 93.92 377.388 94.55 375.966ZM90.896 370.08C92.156 370.08 93.038 371.088 93.092 372.636H88.43C88.7 371.088 89.654 370.08 90.896 370.08ZM103.703 375.804L102.407 375.3C101.975 376.29 101.255 376.92 100.265 376.92C98.8067 376.92 97.7447 375.534 97.7447 373.608C97.7447 371.592 98.7707 370.134 100.193 370.134C101.093 370.134 101.867 370.692 102.299 371.736L103.631 371.196C103.001 369.756 101.795 368.838 100.157 368.838C97.8167 368.838 96.1247 370.836 96.1247 373.608C96.1247 376.29 97.8347 378.234 100.211 378.234C101.849 378.234 103.127 377.208 103.703 375.804ZM113.554 373.554C113.554 370.818 111.736 368.838 109.234 368.838C106.732 368.838 104.896 370.818 104.896 373.554C104.896 376.254 106.732 378.234 109.234 378.234C111.736 378.234 113.554 376.254 113.554 373.554ZM106.516 373.554C106.516 371.574 107.65 370.116 109.234 370.116C110.8 370.116 111.934 371.574 111.934 373.554C111.934 375.498 110.8 376.938 109.234 376.938C107.65 376.938 106.516 375.498 106.516 373.554ZM123.158 378V372.096C123.158 370.188 121.826 368.838 120.08 368.838C118.802 368.838 117.722 369.594 117.128 370.44V369.072H115.652V378H117.182V371.52C117.74 370.728 118.712 370.134 119.72 370.134C120.836 370.134 121.628 370.962 121.628 372.204V378H123.158ZM133.821 373.554C133.821 370.818 132.003 368.838 129.501 368.838C126.999 368.838 125.163 370.818 125.163 373.554C125.163 376.254 126.999 378.234 129.501 378.234C132.003 378.234 133.821 376.254 133.821 373.554ZM126.783 373.554C126.783 371.574 127.917 370.116 129.501 370.116C131.067 370.116 132.201 371.574 132.201 373.554C132.201 375.498 131.067 376.938 129.501 376.938C127.917 376.938 126.783 375.498 126.783 373.554ZM148.447 378V372.096C148.447 370.188 147.151 368.838 145.477 368.838C144.289 368.838 143.245 369.558 142.615 370.512C142.129 369.486 141.193 368.838 140.095 368.838C138.907 368.838 137.917 369.594 137.395 370.44V369.072H135.919V378H137.449V371.484C137.953 370.728 138.817 370.134 139.699 370.134C140.689 370.134 141.409 370.962 141.409 372.204V378H142.939V372.096C142.939 371.826 142.921 371.574 142.867 371.322C143.407 370.638 144.271 370.134 145.135 370.134C146.161 370.134 146.917 370.962 146.917 372.204V378H148.447ZM152.619 369.072H151.089V378H152.619V369.072ZM152.619 365.526H151.089V367.308H152.619V365.526ZM162.326 375.804L161.03 375.3C160.598 376.29 159.878 376.92 158.888 376.92C157.43 376.92 156.368 375.534 156.368 373.608C156.368 371.592 157.394 370.134 158.816 370.134C159.716 370.134 160.49 370.692 160.922 371.736L162.254 371.196C161.624 369.756 160.418 368.838 158.78 368.838C156.44 368.838 154.748 370.836 154.748 373.608C154.748 376.29 156.458 378.234 158.834 378.234C160.472 378.234 161.75 377.208 162.326 375.804ZM171.583 378.144L171.655 376.974C171.547 376.992 171.367 377.01 171.259 377.01C170.719 377.01 170.449 376.632 170.449 376.146V372.042C170.449 369.972 169.189 368.838 167.245 368.838C165.697 368.838 164.347 369.702 163.699 371.106L164.887 371.592C165.337 370.746 166.039 370.116 167.101 370.116C168.199 370.116 168.919 370.872 168.919 371.988V372.69L166.831 372.942C164.851 373.194 163.447 374.148 163.447 375.804C163.447 377.226 164.581 378.234 166.165 378.234C167.425 378.234 168.415 377.622 168.991 376.668C169.207 377.694 169.873 378.234 170.881 378.234C171.151 378.234 171.367 378.198 171.583 378.144ZM166.579 376.992C165.679 376.992 165.049 376.452 165.049 375.696C165.049 374.778 165.913 374.238 167.101 374.094L168.919 373.878V375.516C168.451 376.38 167.569 376.992 166.579 376.992Z" fill="white"/>
<path d="M87.584 163.354V175H95.198V173.578H89.24V163.354H87.584ZM95.063 167.728H96.071L96.215 163.156H94.919L95.063 167.728ZM114.608 170.32C114.608 168.64 113.708 167.44 111.488 166.57C113.228 165.82 114.218 164.71 114.218 163.21C114.218 160.6 111.068 158.62 106.538 158.62C101.948 158.62 98.6476 160.69 98.6476 163.66C98.6476 165.31 99.6676 166.48 101.498 167.29C99.3076 167.98 98.1076 169.24 98.1076 170.83C98.1076 173.47 101.408 175.42 106.388 175.42C111.308 175.42 114.608 173.38 114.608 170.32ZM107.618 165.61C104.468 165.1 103.628 164.47 103.628 163.66C103.628 162.7 104.738 162.04 106.328 162.04C107.978 162.04 109.238 162.76 109.238 163.96C109.238 164.59 108.908 165.22 108.278 165.73C108.068 165.7 107.858 165.64 107.618 165.61ZM106.448 172C104.558 172 103.208 171.34 103.208 170.23C103.208 169.54 103.688 168.79 104.618 168.25C105.008 168.31 105.398 168.4 105.818 168.46C108.578 168.91 109.508 169.51 109.508 170.38C109.508 171.37 108.218 172 106.448 172ZM131.54 170.5C131.54 168.37 129.92 167.05 127.7 166.6V166.48C129.74 165.97 131 164.62 131 162.94C131 160.39 128.06 158.59 124.04 158.59C120.71 158.59 117.92 159.88 116.42 162.31L119.81 164.17C120.44 163.06 121.82 162.4 123.26 162.4C124.76 162.4 125.84 163.06 125.84 163.99C125.84 164.86 124.97 165.46 123.47 165.46H120.47V168.49H123.62C125.39 168.49 126.38 168.85 126.38 169.87C126.38 170.89 125.24 171.61 123.38 171.61C121.52 171.61 120.11 170.92 119.42 169.87L115.97 171.7C117.38 174.19 120.5 175.42 124.04 175.42C128.48 175.42 131.54 173.41 131.54 170.5ZM152.824 156.55L151.414 155.14C150.034 156.28 147.934 157 145.804 157C144.244 157 142.534 156.7 141.334 156.28C140.494 155.56 139.384 155.14 138.124 155.14C135.244 155.14 133.174 157.3 133.174 160.27C133.174 163.24 135.244 165.37 138.124 165.37C141.004 165.37 143.074 163.24 143.074 160.27C143.074 159.67 142.984 159.07 142.834 158.56C143.764 158.98 144.814 159.22 145.744 159.22C146.614 159.19 147.574 158.92 148.534 158.41L134.734 174.01L136.204 175.45L152.824 156.55ZM154.504 170.35C154.504 167.38 152.434 165.22 149.554 165.22C146.674 165.22 144.604 167.38 144.604 170.35C144.604 173.32 146.674 175.45 149.554 175.45C152.434 175.45 154.504 173.32 154.504 170.35ZM147.874 170.35C147.874 168.94 148.594 167.92 149.554 167.92C150.544 167.92 151.234 168.94 151.234 170.35C151.234 171.73 150.544 172.72 149.554 172.72C148.594 172.72 147.874 171.73 147.874 170.35ZM136.444 160.27C136.444 158.86 137.164 157.84 138.124 157.84C139.114 157.84 139.804 158.86 139.804 160.27C139.804 161.65 139.114 162.64 138.124 162.64C137.164 162.64 136.444 161.65 136.444 160.27ZM167.092 173.956C165.598 173.956 164.536 172.534 164.536 170.59C164.536 168.592 165.652 167.134 167.2 167.134C168.154 167.134 169.036 167.566 169.504 168.25V172.66C168.982 173.434 168.028 173.956 167.092 173.956ZM171.034 175V162.328H169.504V167.044C168.892 166.324 167.848 165.838 166.876 165.838C164.572 165.838 162.898 167.836 162.898 170.608C162.898 173.29 164.518 175.234 166.75 175.234C167.776 175.234 168.928 174.604 169.594 173.722V175H171.034ZM180.976 172.966L179.752 172.498C179.284 173.416 178.42 173.974 177.448 173.974C175.954 173.974 174.874 172.732 174.766 170.86H180.958C181.012 170.626 181.048 170.14 181.048 169.744C181.048 167.458 179.482 165.838 177.304 165.838C174.928 165.838 173.164 167.854 173.164 170.608C173.164 173.308 174.928 175.234 177.358 175.234C178.96 175.234 180.346 174.388 180.976 172.966ZM177.322 167.08C178.582 167.08 179.464 168.088 179.518 169.636H174.856C175.126 168.088 176.08 167.08 177.322 167.08ZM184.729 166.072H183.199V175H184.729V166.072ZM184.729 162.526H183.199V164.308H184.729V162.526ZM198.584 172.804L197.288 172.3C196.856 173.29 196.136 173.92 195.146 173.92C193.688 173.92 192.626 172.534 192.626 170.608C192.626 168.592 193.652 167.134 195.074 167.134C195.974 167.134 196.748 167.692 197.18 168.736L198.512 168.196C197.882 166.756 196.676 165.838 195.038 165.838C192.698 165.838 191.006 167.836 191.006 170.608C191.006 173.29 192.716 175.234 195.092 175.234C196.73 175.234 198.008 174.208 198.584 172.804ZM201.973 166.072H200.443V175H201.973V166.072ZM201.973 162.526H200.443V164.308H201.973V162.526ZM209.825 174.946V173.668C209.447 173.812 208.817 173.92 208.259 173.92C207.125 173.92 206.675 173.362 206.675 172.516V167.332H209.771V166.072H206.675V163.894H205.145V166.072H203.831V167.332H205.145V172.768C205.145 174.334 206.207 175.234 207.989 175.234C208.655 175.234 209.429 175.09 209.825 174.946ZM216.61 174.946V173.668C216.232 173.812 215.602 173.92 215.044 173.92C213.91 173.92 213.46 173.362 213.46 172.516V167.332H216.556V166.072H213.46V163.894H211.93V166.072H210.616V167.332H211.93V172.768C211.93 174.334 212.992 175.234 214.774 175.234C215.44 175.234 216.214 175.09 216.61 174.946ZM225.718 175.144L225.79 173.974C225.682 173.992 225.502 174.01 225.394 174.01C224.854 174.01 224.584 173.632 224.584 173.146V169.042C224.584 166.972 223.324 165.838 221.38 165.838C219.832 165.838 218.482 166.702 217.834 168.106L219.022 168.592C219.472 167.746 220.174 167.116 221.236 167.116C222.334 167.116 223.054 167.872 223.054 168.988V169.69L220.966 169.942C218.986 170.194 217.582 171.148 217.582 172.804C217.582 174.226 218.716 175.234 220.3 175.234C221.56 175.234 222.55 174.622 223.126 173.668C223.342 174.694 224.008 175.234 225.016 175.234C225.286 175.234 225.502 175.198 225.718 175.144ZM220.714 173.992C219.814 173.992 219.184 173.452 219.184 172.696C219.184 171.778 220.048 171.238 221.236 171.094L223.054 170.878V172.516C222.586 173.38 221.704 173.992 220.714 173.992ZM230.971 173.956C229.477 173.956 228.415 172.534 228.415 170.59C228.415 168.592 229.531 167.134 231.079 167.134C232.033 167.134 232.915 167.566 233.383 168.25V172.66C232.861 173.434 231.907 173.956 230.971 173.956ZM234.913 175V162.328H233.383V167.044C232.771 166.324 231.727 165.838 230.755 165.838C228.451 165.838 226.777 167.836 226.777 170.608C226.777 173.29 228.397 175.234 230.629 175.234C231.655 175.234 232.807 174.604 233.473 173.722V175H234.913ZM239.221 166.072H237.691V175H239.221V166.072ZM239.221 162.526H237.691V164.308H239.221V162.526ZM249.503 175V169.096C249.503 167.188 248.171 165.838 246.425 165.838C245.147 165.838 244.067 166.594 243.473 167.44V166.072H241.997V175H243.527V168.52C244.085 167.728 245.057 167.134 246.065 167.134C247.181 167.134 247.973 167.962 247.973 169.204V175H249.503ZM253.705 166.072H252.175V175H253.705V166.072ZM253.705 162.526H252.175V164.308H253.705V162.526ZM94.784 197.144L94.856 195.974C94.748 195.992 94.568 196.01 94.46 196.01C93.92 196.01 93.65 195.632 93.65 195.146V191.042C93.65 188.972 92.39 187.838 90.446 187.838C88.898 187.838 87.548 188.702 86.9 190.106L88.088 190.592C88.538 189.746 89.24 189.116 90.302 189.116C91.4 189.116 92.12 189.872 92.12 190.988V191.69L90.032 191.942C88.052 192.194 86.648 193.148 86.648 194.804C86.648 196.226 87.782 197.234 89.366 197.234C90.626 197.234 91.616 196.622 92.192 195.668C92.408 196.694 93.074 197.234 94.082 197.234C94.352 197.234 94.568 197.198 94.784 197.144ZM89.78 195.992C88.88 195.992 88.25 195.452 88.25 194.696C88.25 193.778 89.114 193.238 90.302 193.094L92.12 192.878V194.516C91.652 195.38 90.77 195.992 89.78 195.992ZM101.729 189.332V188.072H98.4715V187.712C98.4715 186.236 99.2095 185.372 100.397 185.372C100.883 185.372 101.477 185.462 101.873 185.624L101.909 184.346C101.495 184.22 100.775 184.094 100.235 184.094C98.1835 184.094 96.9415 185.444 96.9415 187.73V188.072H95.7895V189.332H96.9415V197H98.4715V189.332H101.729ZM108.55 189.332V188.072H105.292V187.712C105.292 186.236 106.03 185.372 107.218 185.372C107.704 185.372 108.298 185.462 108.694 185.624L108.73 184.346C108.316 184.22 107.596 184.094 107.056 184.094C105.004 184.094 103.762 185.444 103.762 187.73V188.072H102.61V189.332H103.762V197H105.292V189.332H108.55ZM116.839 194.966L115.615 194.498C115.147 195.416 114.283 195.974 113.311 195.974C111.817 195.974 110.737 194.732 110.629 192.86H116.821C116.875 192.626 116.911 192.14 116.911 191.744C116.911 189.458 115.345 187.838 113.167 187.838C110.791 187.838 109.027 189.854 109.027 192.608C109.027 195.308 110.791 197.234 113.221 197.234C114.823 197.234 116.209 196.388 116.839 194.966ZM113.185 189.08C114.445 189.08 115.327 190.088 115.381 191.636H110.719C110.989 190.088 111.943 189.08 113.185 189.08ZM120.592 197V191.672C120.736 190.484 121.456 189.368 122.842 189.368C123.148 189.368 123.58 189.422 123.832 189.494V187.982C123.652 187.91 123.22 187.838 122.914 187.838C121.87 187.838 120.898 188.756 120.538 189.89V188.072H119.062V197H120.592ZM138.111 197V191.096C138.111 189.188 136.815 187.838 135.141 187.838C133.953 187.838 132.909 188.558 132.279 189.512C131.793 188.486 130.857 187.838 129.759 187.838C128.571 187.838 127.581 188.594 127.059 189.44V188.072H125.583V197H127.113V190.484C127.617 189.728 128.481 189.134 129.363 189.134C130.353 189.134 131.073 189.962 131.073 191.204V197H132.603V191.096C132.603 190.826 132.585 190.574 132.531 190.322C133.071 189.638 133.935 189.134 134.799 189.134C135.825 189.134 136.581 189.962 136.581 191.204V197H138.111ZM148.151 197.144L148.223 195.974C148.115 195.992 147.935 196.01 147.827 196.01C147.287 196.01 147.017 195.632 147.017 195.146V191.042C147.017 188.972 145.757 187.838 143.813 187.838C142.265 187.838 140.915 188.702 140.267 190.106L141.455 190.592C141.905 189.746 142.607 189.116 143.669 189.116C144.767 189.116 145.487 189.872 145.487 190.988V191.69L143.399 191.942C141.419 192.194 140.015 193.148 140.015 194.804C140.015 196.226 141.149 197.234 142.733 197.234C143.993 197.234 144.983 196.622 145.559 195.668C145.775 196.694 146.441 197.234 147.449 197.234C147.719 197.234 147.935 197.198 148.151 197.144ZM143.147 195.992C142.247 195.992 141.617 195.452 141.617 194.696C141.617 193.778 142.481 193.238 143.669 193.094L145.487 192.878V194.516C145.019 195.38 144.137 195.992 143.147 195.992ZM160.937 194.804L159.641 194.3C159.209 195.29 158.489 195.92 157.499 195.92C156.041 195.92 154.979 194.534 154.979 192.608C154.979 190.592 156.005 189.134 157.427 189.134C158.327 189.134 159.101 189.692 159.533 190.736L160.865 190.196C160.235 188.756 159.029 187.838 157.391 187.838C155.051 187.838 153.359 189.836 153.359 192.608C153.359 195.29 155.069 197.234 157.445 197.234C159.083 197.234 160.361 196.208 160.937 194.804ZM170.302 197V191.114C170.302 189.188 168.97 187.838 167.224 187.838C165.982 187.838 164.92 188.54 164.326 189.368V184.328H162.796V197H164.326V190.52C164.884 189.728 165.856 189.134 166.864 189.134C167.98 189.134 168.772 189.962 168.772 191.204V197H170.302ZM180.138 194.966L178.914 194.498C178.446 195.416 177.582 195.974 176.61 195.974C175.116 195.974 174.036 194.732 173.928 192.86H180.12C180.174 192.626 180.21 192.14 180.21 191.744C180.21 189.458 178.644 187.838 176.466 187.838C174.09 187.838 172.326 189.854 172.326 192.608C172.326 195.308 174.09 197.234 176.52 197.234C178.122 197.234 179.508 196.388 180.138 194.966ZM176.484 189.08C177.744 189.08 178.626 190.088 178.68 191.636H174.018C174.288 190.088 175.242 189.08 176.484 189.08ZM188.039 184.328H186.509V197H188.039V184.328ZM197.98 194.966L196.756 194.498C196.288 195.416 195.424 195.974 194.452 195.974C192.958 195.974 191.878 194.732 191.77 192.86H197.962C198.016 192.626 198.052 192.14 198.052 191.744C198.052 189.458 196.486 187.838 194.308 187.838C191.932 187.838 190.168 189.854 190.168 192.608C190.168 195.308 191.932 197.234 194.362 197.234C195.964 197.234 197.35 196.388 197.98 194.966ZM194.326 189.08C195.586 189.08 196.468 190.088 196.522 191.636H191.86C192.13 190.088 193.084 189.08 194.326 189.08ZM208.203 195.956C207.357 195.956 206.421 195.506 205.881 194.858V190.52C206.349 189.8 207.231 189.098 208.275 189.098C209.769 189.098 210.885 190.448 210.885 192.5C210.885 194.534 209.769 195.956 208.203 195.956ZM212.505 192.5C212.505 189.764 210.777 187.838 208.671 187.838C207.303 187.838 206.295 188.666 205.827 189.404V188.072H204.351V200.276H205.881V196.064C206.457 196.766 207.447 197.234 208.509 197.234C210.759 197.234 212.505 195.236 212.505 192.5ZM222.608 192.554C222.608 189.818 220.79 187.838 218.288 187.838C215.786 187.838 213.95 189.818 213.95 192.554C213.95 195.254 215.786 197.234 218.288 197.234C220.79 197.234 222.608 195.254 222.608 192.554ZM215.57 192.554C215.57 190.574 216.704 189.116 218.288 189.116C219.854 189.116 220.988 190.574 220.988 192.554C220.988 194.498 219.854 195.938 218.288 195.938C216.704 195.938 215.57 194.498 215.57 192.554ZM226.236 184.328H224.706V197H226.236V184.328ZM230.543 188.072H229.013V197H230.543V188.072ZM230.543 184.526H229.013V186.308H230.543V184.526ZM238.396 196.946V195.668C238.018 195.812 237.388 195.92 236.83 195.92C235.696 195.92 235.246 195.362 235.246 194.516V189.332H238.342V188.072H235.246V185.894H233.716V188.072H232.402V189.332H233.716V194.768C233.716 196.334 234.778 197.234 236.56 197.234C237.226 197.234 238 197.09 238.396 196.946ZM241.635 188.072H240.105V197H241.635V188.072ZM241.635 184.526H240.105V186.308H241.635V184.526ZM251.341 194.804L250.045 194.3C249.613 195.29 248.893 195.92 247.903 195.92C246.445 195.92 245.383 194.534 245.383 192.608C245.383 190.592 246.409 189.134 247.831 189.134C248.731 189.134 249.505 189.692 249.937 190.736L251.269 190.196C250.639 188.756 249.433 187.838 247.795 187.838C245.455 187.838 243.763 189.836 243.763 192.608C243.763 195.29 245.473 197.234 247.849 197.234C249.487 197.234 250.765 196.208 251.341 194.804ZM260.706 197V191.114C260.706 189.188 259.374 187.838 257.628 187.838C256.386 187.838 255.324 188.54 254.73 189.368V184.328H253.2V197H254.73V190.52C255.288 189.728 256.26 189.134 257.268 189.134C258.384 189.134 259.176 189.962 259.176 191.204V197H260.706ZM270.542 194.966L269.318 194.498C268.85 195.416 267.986 195.974 267.014 195.974C265.52 195.974 264.44 194.732 264.332 192.86H270.524C270.578 192.626 270.614 192.14 270.614 191.744C270.614 189.458 269.048 187.838 266.87 187.838C264.494 187.838 262.73 189.854 262.73 192.608C262.73 195.308 264.494 197.234 266.924 197.234C268.526 197.234 269.912 196.388 270.542 194.966ZM266.888 189.08C268.148 189.08 269.03 190.088 269.084 191.636H264.422C264.692 190.088 265.646 189.08 266.888 189.08ZM94.316 216.804L93.02 216.3C92.588 217.29 91.868 217.92 90.878 217.92C89.42 217.92 88.358 216.534 88.358 214.608C88.358 212.592 89.384 211.134 90.806 211.134C91.706 211.134 92.48 211.692 92.912 212.736L94.244 212.196C93.614 210.756 92.408 209.838 90.77 209.838C88.43 209.838 86.738 211.836 86.738 214.608C86.738 217.29 88.448 219.234 90.824 219.234C92.462 219.234 93.74 218.208 94.316 216.804ZM97.7051 206.328H96.1751V219H97.7051V206.328ZM102.012 210.072H100.482V219H102.012V210.072ZM102.012 206.526H100.482V208.308H102.012V206.526ZM117.316 219V213.096C117.316 211.188 116.02 209.838 114.346 209.838C113.158 209.838 112.114 210.558 111.484 211.512C110.998 210.486 110.062 209.838 108.964 209.838C107.776 209.838 106.786 210.594 106.264 211.44V210.072H104.788V219H106.318V212.484C106.822 211.728 107.686 211.134 108.568 211.134C109.558 211.134 110.278 211.962 110.278 213.204V219H111.808V213.096C111.808 212.826 111.79 212.574 111.736 212.322C112.276 211.638 113.14 211.134 114.004 211.134C115.03 211.134 115.786 211.962 115.786 213.204V219H117.316ZM127.356 219.144L127.428 217.974C127.32 217.992 127.14 218.01 127.032 218.01C126.492 218.01 126.222 217.632 126.222 217.146V213.042C126.222 210.972 124.962 209.838 123.018 209.838C121.47 209.838 120.12 210.702 119.472 212.106L120.66 212.592C121.11 211.746 121.812 211.116 122.874 211.116C123.972 211.116 124.692 211.872 124.692 212.988V213.69L122.604 213.942C120.624 214.194 119.22 215.148 119.22 216.804C119.22 218.226 120.354 219.234 121.938 219.234C123.198 219.234 124.188 218.622 124.764 217.668C124.98 218.694 125.646 219.234 126.654 219.234C126.924 219.234 127.14 219.198 127.356 219.144ZM122.352 217.992C121.452 217.992 120.822 217.452 120.822 216.696C120.822 215.778 121.686 215.238 122.874 215.094L124.692 214.878V216.516C124.224 217.38 123.342 217.992 122.352 217.992ZM134.14 218.946V217.668C133.762 217.812 133.132 217.92 132.574 217.92C131.44 217.92 130.99 217.362 130.99 216.516V211.332H134.086V210.072H130.99V207.894H129.46V210.072H128.146V211.332H129.46V216.768C129.46 218.334 130.522 219.234 132.304 219.234C132.97 219.234 133.744 219.09 134.14 218.946ZM137.379 210.072H135.849V219H137.379V210.072ZM137.379 206.526H135.849V208.308H137.379V206.526ZM147.086 216.804L145.79 216.3C145.358 217.29 144.638 217.92 143.648 217.92C142.19 217.92 141.128 216.534 141.128 214.608C141.128 212.592 142.154 211.134 143.576 211.134C144.476 211.134 145.25 211.692 145.682 212.736L147.014 212.196C146.384 210.756 145.178 209.838 143.54 209.838C141.2 209.838 139.508 211.836 139.508 214.608C139.508 217.29 141.218 219.234 143.594 219.234C145.232 219.234 146.51 218.208 147.086 216.804ZM156.451 219V213.114C156.451 211.188 155.119 209.838 153.373 209.838C152.131 209.838 151.069 210.54 150.475 211.368V206.328H148.945V219H150.475V212.52C151.033 211.728 152.005 211.134 153.013 211.134C154.129 211.134 154.921 211.962 154.921 213.204V219H156.451ZM166.286 216.966L165.062 216.498C164.594 217.416 163.73 217.974 162.758 217.974C161.264 217.974 160.184 216.732 160.076 214.86H166.268C166.322 214.626 166.358 214.14 166.358 213.744C166.358 211.458 164.792 209.838 162.614 209.838C160.238 209.838 158.474 211.854 158.474 214.608C158.474 217.308 160.238 219.234 162.668 219.234C164.27 219.234 165.656 218.388 166.286 216.966ZM162.632 211.08C163.892 211.08 164.774 212.088 164.828 213.636H160.166C160.436 212.088 161.39 211.08 162.632 211.08ZM185.185 219V213.096C185.185 211.188 183.889 209.838 182.215 209.838C181.027 209.838 179.983 210.558 179.353 211.512C178.867 210.486 177.931 209.838 176.833 209.838C175.645 209.838 174.655 210.594 174.133 211.44V210.072H172.657V219H174.187V212.484C174.691 211.728 175.555 211.134 176.437 211.134C177.427 211.134 178.147 211.962 178.147 213.204V219H179.677V213.096C179.677 212.826 179.659 212.574 179.605 212.322C180.145 211.638 181.009 211.134 181.873 211.134C182.899 211.134 183.655 211.962 183.655 213.204V219H185.185ZM189.357 210.072H187.827V219H189.357V210.072ZM189.357 206.526H187.827V208.308H189.357V206.526ZM199.874 219.594C199.874 218.298 198.92 217.614 196.886 217.434L195.626 217.326C194.366 217.218 193.916 217.002 193.916 216.732C193.916 216.516 194.114 216.21 194.294 216.012C194.6 216.084 194.942 216.12 195.266 216.12C197.21 216.12 198.794 214.86 198.794 213.114C198.794 212.466 198.596 211.854 198.218 211.332C198.704 211.08 199.478 210.864 200.198 210.864V209.496C199.1 209.496 198.236 210.018 197.696 210.756C197.048 210.198 196.166 209.838 195.158 209.838C193.16 209.838 191.594 211.206 191.594 213.006C191.594 214.284 192.386 215.256 193.502 215.76C192.926 216.156 192.44 216.768 192.44 217.182C192.44 217.542 192.692 217.848 193.142 218.082C192.026 218.55 191.216 219.36 191.216 220.17C191.216 221.646 192.854 222.51 195.356 222.51C198.128 222.51 199.874 221.286 199.874 219.594ZM195.374 221.34C193.7 221.34 192.746 220.728 192.746 219.936C192.746 219.324 193.304 218.73 194.06 218.406C194.42 218.496 194.834 218.568 195.302 218.604L196.562 218.712C198.002 218.838 198.362 219.18 198.362 219.828C198.362 220.674 197.192 221.34 195.374 221.34ZM193.124 213.024C193.124 211.89 193.988 211.008 195.176 211.008C196.364 211.008 197.264 211.89 197.264 213.024C197.264 214.14 196.364 214.95 195.176 214.95C193.988 214.95 193.124 214.14 193.124 213.024ZM203.42 206.328H201.89V219H203.42V206.328ZM207.727 210.072H206.197V219H207.727V210.072ZM207.727 206.526H206.197V208.308H207.727V206.526ZM218.495 214.554C218.495 211.818 216.677 209.838 214.175 209.838C211.673 209.838 209.837 211.818 209.837 214.554C209.837 217.254 211.673 219.234 214.175 219.234C216.677 219.234 218.495 217.254 218.495 214.554ZM211.457 214.554C211.457 212.574 212.591 211.116 214.175 211.116C215.741 211.116 216.875 212.574 216.875 214.554C216.875 216.498 215.741 217.938 214.175 217.938C212.591 217.938 211.457 216.498 211.457 214.554ZM222.123 219V213.672C222.267 212.484 222.987 211.368 224.373 211.368C224.679 211.368 225.111 211.422 225.363 211.494V209.982C225.183 209.91 224.751 209.838 224.445 209.838C223.401 209.838 222.429 210.756 222.069 211.89V210.072H220.593V219H222.123ZM234.032 216.966L232.808 216.498C232.34 217.416 231.476 217.974 230.504 217.974C229.01 217.974 227.93 216.732 227.822 214.86H234.014C234.068 214.626 234.104 214.14 234.104 213.744C234.104 211.458 232.538 209.838 230.36 209.838C227.984 209.838 226.22 211.854 226.22 214.608C226.22 217.308 227.984 219.234 230.414 219.234C232.016 219.234 233.402 218.388 234.032 216.966ZM230.378 211.08C231.638 211.08 232.52 212.088 232.574 213.636H227.912C228.182 212.088 229.136 211.08 230.378 211.08ZM237.785 219V213.672C237.929 212.484 238.649 211.368 240.035 211.368C240.341 211.368 240.773 211.422 241.025 211.494V209.982C240.845 209.91 240.413 209.838 240.107 209.838C239.063 209.838 238.091 210.756 237.731 211.89V210.072H236.255V219H237.785ZM249.964 219.144L250.036 217.974C249.928 217.992 249.748 218.01 249.64 218.01C249.1 218.01 248.83 217.632 248.83 217.146V213.042C248.83 210.972 247.57 209.838 245.626 209.838C244.078 209.838 242.728 210.702 242.08 212.106L243.268 212.592C243.718 211.746 244.42 211.116 245.482 211.116C246.58 211.116 247.3 211.872 247.3 212.988V213.69L245.212 213.942C243.232 214.194 241.828 215.148 241.828 216.804C241.828 218.226 242.962 219.234 244.546 219.234C245.806 219.234 246.796 218.622 247.372 217.668C247.588 218.694 248.254 219.234 249.262 219.234C249.532 219.234 249.748 219.198 249.964 219.144ZM244.96 217.992C244.06 217.992 243.43 217.452 243.43 216.696C243.43 215.778 244.294 215.238 245.482 215.094L247.3 214.878V216.516C246.832 217.38 245.95 217.992 244.96 217.992ZM259.177 219V213.096C259.177 211.188 257.845 209.838 256.099 209.838C254.821 209.838 253.741 210.594 253.147 211.44V210.072H251.671V219H253.201V212.52C253.759 211.728 254.731 211.134 255.739 211.134C256.855 211.134 257.647 211.962 257.647 213.204V219H259.177ZM269.355 219V213.096C269.355 211.188 268.023 209.838 266.277 209.838C264.999 209.838 263.919 210.594 263.325 211.44V210.072H261.849V219H263.379V212.52C263.937 211.728 264.909 211.134 265.917 211.134C267.033 211.134 267.825 211.962 267.825 213.204V219H269.355ZM280.019 214.554C280.019 211.818 278.201 209.838 275.699 209.838C273.197 209.838 271.361 211.818 271.361 214.554C271.361 217.254 273.197 219.234 275.699 219.234C278.201 219.234 280.019 217.254 280.019 214.554ZM272.981 214.554C272.981 212.574 274.115 211.116 275.699 211.116C277.265 211.116 278.399 212.574 278.399 214.554C278.399 216.498 277.265 217.938 275.699 217.938C274.115 217.938 272.981 216.498 272.981 214.554ZM88.916 228.328H87.386V241H88.916V228.328ZM99.0906 241.144L99.1626 239.974C99.0546 239.992 98.8746 240.01 98.7666 240.01C98.2266 240.01 97.9566 239.632 97.9566 239.146V235.042C97.9566 232.972 96.6966 231.838 94.7526 231.838C93.2046 231.838 91.8546 232.702 91.2066 234.106L92.3946 234.592C92.8446 233.746 93.5466 233.116 94.6086 233.116C95.7066 233.116 96.4266 233.872 96.4266 234.988V235.69L94.3386 235.942C92.3586 236.194 90.9546 237.148 90.9546 238.804C90.9546 240.226 92.0886 241.234 93.6726 241.234C94.9326 241.234 95.9226 240.622 96.4986 239.668C96.7146 240.694 97.3806 241.234 98.3886 241.234C98.6586 241.234 98.8746 241.198 99.0906 241.144ZM94.0866 239.992C93.1866 239.992 92.5566 239.452 92.5566 238.696C92.5566 237.778 93.4206 237.238 94.6086 237.094L96.4266 236.878V238.516C95.9586 239.38 95.0766 239.992 94.0866 239.992ZM106.477 228.328H104.947V241H106.477V228.328ZM117.245 236.554C117.245 233.818 115.427 231.838 112.925 231.838C110.423 231.838 108.587 233.818 108.587 236.554C108.587 239.254 110.423 241.234 112.925 241.234C115.427 241.234 117.245 239.254 117.245 236.554ZM110.207 236.554C110.207 234.574 111.341 233.116 112.925 233.116C114.491 233.116 115.625 234.574 115.625 236.554C115.625 238.498 114.491 239.938 112.925 239.938C111.341 239.938 110.207 238.498 110.207 236.554ZM120.873 241V235.672C121.017 234.484 121.737 233.368 123.123 233.368C123.429 233.368 123.861 233.422 124.113 233.494V231.982C123.933 231.91 123.501 231.838 123.195 231.838C122.151 231.838 121.179 232.756 120.819 233.89V232.072H119.343V241H120.873ZM133.61 236.554C133.61 233.818 131.792 231.838 129.29 231.838C126.788 231.838 124.952 233.818 124.952 236.554C124.952 239.254 126.788 241.234 129.29 241.234C131.792 241.234 133.61 239.254 133.61 236.554ZM126.572 236.554C126.572 234.574 127.706 233.116 129.29 233.116C130.856 233.116 131.99 234.574 131.99 236.554C131.99 238.498 130.856 239.938 129.29 239.938C127.706 239.938 126.572 238.498 126.572 236.554ZM143.511 239.956C141.981 239.956 140.829 238.606 140.829 236.608C140.829 234.574 141.963 233.098 143.565 233.098C144.447 233.098 145.311 233.584 145.833 234.286V238.678C145.401 239.38 144.501 239.956 143.511 239.956ZM147.363 244.276V232.072H145.869V233.206C145.293 232.378 144.285 231.838 143.169 231.838C141.009 231.838 139.209 233.782 139.209 236.59C139.209 239.29 140.919 241.234 143.115 241.234C144.249 241.234 145.257 240.694 145.833 239.884V244.276H147.363ZM157.34 241V232.072H155.81V238.228C155.36 239.218 154.496 239.938 153.434 239.938C152.336 239.938 151.544 239.074 151.544 237.868V232.072H150.014V237.976C150.014 239.866 151.274 241.234 153.002 241.234C154.316 241.234 155.342 240.478 155.864 239.524V241H157.34ZM167.505 241.144L167.577 239.974C167.469 239.992 167.289 240.01 167.181 240.01C166.641 240.01 166.371 239.632 166.371 239.146V235.042C166.371 232.972 165.111 231.838 163.167 231.838C161.619 231.838 160.269 232.702 159.621 234.106L160.809 234.592C161.259 233.746 161.961 233.116 163.023 233.116C164.121 233.116 164.841 233.872 164.841 234.988V235.69L162.753 235.942C160.773 236.194 159.369 237.148 159.369 238.804C159.369 240.226 160.503 241.234 162.087 241.234C163.347 241.234 164.337 240.622 164.913 239.668C165.129 240.694 165.795 241.234 166.803 241.234C167.073 241.234 167.289 241.198 167.505 241.144ZM162.501 239.992C161.601 239.992 160.971 239.452 160.971 238.696C160.971 237.778 161.835 237.238 163.023 237.094L164.841 236.878V238.516C164.373 239.38 163.491 239.992 162.501 239.992ZM170.742 228.328H169.212V241H170.742V228.328ZM175.049 232.072H173.519V241H175.049V232.072ZM175.049 228.526H173.519V230.308H175.049V228.526ZM182.901 240.946V239.668C182.523 239.812 181.893 239.92 181.335 239.92C180.201 239.92 179.751 239.362 179.751 238.516V233.332H182.847V232.072H179.751V229.894H178.221V232.072H176.907V233.332H178.221V238.768C178.221 240.334 179.283 241.234 181.065 241.234C181.731 241.234 182.505 241.09 182.901 240.946ZM192.009 241.144L192.081 239.974C191.973 239.992 191.793 240.01 191.685 240.01C191.145 240.01 190.875 239.632 190.875 239.146V235.042C190.875 232.972 189.615 231.838 187.671 231.838C186.123 231.838 184.773 232.702 184.125 234.106L185.313 234.592C185.763 233.746 186.465 233.116 187.527 233.116C188.625 233.116 189.345 233.872 189.345 234.988V235.69L187.257 235.942C185.277 236.194 183.873 237.148 183.873 238.804C183.873 240.226 185.007 241.234 186.591 241.234C187.851 241.234 188.841 240.622 189.417 239.668C189.633 240.694 190.299 241.234 191.307 241.234C191.577 241.234 191.793 241.198 192.009 241.144ZM187.005 239.992C186.105 239.992 185.475 239.452 185.475 238.696C185.475 237.778 186.339 237.238 187.527 237.094L189.345 236.878V238.516C188.877 239.38 187.995 239.992 187.005 239.992ZM188.859 230.146L186.159 227.662L185.115 228.904L188.085 231.082L188.859 230.146ZM201.411 239.956C199.917 239.956 198.855 238.534 198.855 236.59C198.855 234.592 199.971 233.134 201.519 233.134C202.473 233.134 203.355 233.566 203.823 234.25V238.66C203.301 239.434 202.347 239.956 201.411 239.956ZM205.353 241V228.328H203.823V233.044C203.211 232.324 202.167 231.838 201.195 231.838C198.891 231.838 197.217 233.836 197.217 236.608C197.217 239.29 198.837 241.234 201.069 241.234C202.095 241.234 203.247 240.604 203.913 239.722V241H205.353ZM209.66 232.072H208.13V241H209.66V232.072ZM209.66 228.526H208.13V230.308H209.66V228.526ZM215.243 232.072L218.465 241H220.049L223.253 232.072H221.705L219.329 239.02H219.275L216.899 232.072H215.243ZM226.57 232.072H225.04V241H226.57V232.072ZM226.57 228.526H225.04V230.308H226.57V228.526ZM234.423 240.946V239.668C234.045 239.812 233.415 239.92 232.857 239.92C231.723 239.92 231.273 239.362 231.273 238.516V233.332H234.369V232.072H231.273V229.894H229.743V232.072H228.429V233.332H229.743V238.768C229.743 240.334 230.805 241.234 232.587 241.234C233.253 241.234 234.027 241.09 234.423 240.946ZM243.53 241.144L243.602 239.974C243.494 239.992 243.314 240.01 243.206 240.01C242.666 240.01 242.396 239.632 242.396 239.146V235.042C242.396 232.972 241.136 231.838 239.192 231.838C237.644 231.838 236.294 232.702 235.646 234.106L236.834 234.592C237.284 233.746 237.986 233.116 239.048 233.116C240.146 233.116 240.866 233.872 240.866 234.988V235.69L238.778 235.942C236.798 236.194 235.394 237.148 235.394 238.804C235.394 240.226 236.528 241.234 238.112 241.234C239.372 241.234 240.362 240.622 240.938 239.668C241.154 240.694 241.82 241.234 242.828 241.234C243.098 241.234 243.314 241.198 243.53 241.144ZM238.526 239.992C237.626 239.992 236.996 239.452 236.996 238.696C236.996 237.778 237.86 237.238 239.048 237.094L240.866 236.878V238.516C240.398 239.38 239.516 239.992 238.526 239.992ZM246.75 241V238.606H244.95V241H246.75Z" fill="white"/>
<defs>
<filter id="filter0_d_1098_1101" x="0.5" y="0.5" width="413" height="551" filterUnits="userSpaceOnUse" color-interpolation-filters="sRGB">
<feFlood flood-opacity="0" result="BackgroundImageFix"/>
<feColorMatrix in="SourceAlpha" type="matrix" values="0 0 0 0 0 0 0 0 0 0 0 0 0 0 0 0 0 0 127 0" result="hardAlpha"/>
<feOffset dy="4"/>
<feGaussianBlur stdDeviation="31.5"/>
<feComposite in2="hardAlpha" operator="out"/>
<feColorMatrix type="matrix" values="0 0 0 0 0 0 0 0 0 0 0 0 0 0 0 0 0 0 0.6 0"/>
<feBlend mode="normal" in2="BackgroundImageFix" result="effect1_dropShadow_1098_1101"/>
<feBlend mode="normal" in="SourceGraphic" in2="effect1_dropShadow_1098_1101" result="shape"/>
</filter>
</defs>
</svg>
