<svg width="68" height="154" viewBox="0 0 68 154" fill="none" xmlns="http://www.w3.org/2000/svg">
<path d="M0 4C0 1.79086 1.79086 0 4 0H68V154H0V4Z" fill="#1767D2"/>
<path d="M35.0558 126.938C33.3742 126.938 31.9984 126.553 30.8902 125.747C30.6226 125.554 30.5845 125.209 30.7756 124.94C30.9667 124.67 31.3106 124.632 31.5783 124.824C32.4956 125.477 33.6038 125.785 35.0561 125.785C36.4701 125.785 37.6166 125.477 38.4955 124.824C38.7632 124.632 39.107 124.709 39.2982 124.94C39.4893 125.209 39.4128 125.554 39.1836 125.747C38.1132 126.553 36.7374 126.938 35.0559 126.938H35.0558Z" fill="white" fill-opacity="0.5"/>
<path d="M39.3396 127.014C39.1485 126.745 38.8046 126.707 38.5369 126.899C37.505 127.629 36.2057 127.745 35.0975 127.745C33.4924 127.745 32.4605 127.475 31.6197 126.861C31.352 126.669 31.0082 126.746 30.817 126.976C30.6259 127.245 30.7024 127.591 30.9316 127.783C31.5432 128.206 32.1547 128.475 32.8043 128.628C32.919 129.781 33.9125 130.703 35.0975 130.703C36.2822 130.703 37.276 129.781 37.3907 128.628C38.0403 128.475 38.6518 128.206 39.225 127.783C39.4543 127.629 39.5308 127.245 39.3396 127.014H39.3396ZM35.0594 129.55C34.5625 129.55 34.1804 129.243 33.9893 128.82C34.3332 128.859 34.7155 128.859 35.0594 128.859C35.4032 128.859 35.7471 128.859 36.1294 128.82C35.9767 129.243 35.5563 129.55 35.0594 129.55Z" fill="white" fill-opacity="0.5"/>
<path d="M35.4782 120.138C36.4717 118.985 37.9621 117.103 38.803 115.45C40.1788 112.684 39.873 109.687 39.6437 108.496C38.6118 108.765 36.2043 109.648 34.6374 112.722C33.5673 114.836 33.8731 117.218 34.4081 118.947C34.6374 116.565 35.3635 113.683 37.2362 111.224C37.4274 110.955 37.7713 110.916 38.0389 111.109C38.3066 111.301 38.3447 111.646 38.1536 111.916C36.1659 114.567 35.5928 117.756 35.4782 120.138L35.4782 120.138Z" fill="white" fill-opacity="0.5"/>
<path d="M35.0574 102C29.7834 102 26 105.92 26 111.337C26 114.488 27.414 116.525 28.637 118.292C29.5925 119.675 30.3952 120.866 30.3952 122.288C30.3952 124.056 33.0703 124.862 34.7138 124.978L34.5226 123.94C34.5226 123.825 34.3699 123.018 34.3315 121.75C34.255 121.596 34.1022 121.327 33.9492 120.943C32.2676 119.291 28.637 115.218 29.2102 111.029C29.2483 110.799 29.4014 110.607 29.6306 110.53C31.7707 110.03 33.2231 110.837 33.9874 111.452C36.3186 107.687 39.8726 107.265 40.0256 107.265C40.2933 107.226 40.5607 107.418 40.6372 107.687C40.6753 107.879 41.7838 112.068 39.8345 115.987C38.6114 118.446 36.1274 121.212 35.5159 121.904C35.554 123.057 35.6686 123.787 35.707 123.787L35.8982 124.901V124.939C37.5414 124.709 39.758 123.902 39.758 122.288C39.758 120.828 40.5988 119.637 41.5161 118.292C42.7392 116.524 44.1532 114.488 44.1532 111.337C44.1148 105.958 40.3314 102 35.0574 102Z" fill="white" fill-opacity="0.5"/>
<path d="M32.0763 112.721C32.1528 112.76 32.4967 113.067 32.9552 113.874C33.0699 113.413 33.2229 112.991 33.4137 112.529C32.9933 112.107 31.9233 111.376 30.2798 111.607C30.1271 114.066 31.6175 116.525 33.0314 118.293C32.8787 117.678 32.8022 117.025 32.7638 116.333L32.7257 116.295C32.076 114.22 31.3879 113.682 31.3879 113.682C31.1587 113.49 31.0822 113.144 31.2733 112.875C31.5031 112.606 31.847 112.568 32.0763 112.721L32.0763 112.721Z" fill="white" fill-opacity="0.5"/>
</svg>
