<svg width="726" height="153" viewBox="0 0 726 153" fill="none" xmlns="http://www.w3.org/2000/svg">
<rect x="1.5" y="151.147" width="149.648" height="723" rx="2.5" transform="rotate(-90 1.5 151.147)" fill="#1767D2" stroke="#1767D2" stroke-width="3"/>
<path d="M35.624 123.42V120.228H29.36L31.544 118.932C33.224 117.948 34.856 116.628 34.856 114.468C34.856 112.044 32.624 110.316 29.6 110.316C26.792 110.316 24.56 111.804 23.552 114.036L26.288 115.38C26.72 114.276 27.8 113.436 28.976 113.436C29.96 113.436 30.728 114.036 30.728 114.852C30.728 115.764 29.816 116.508 28.448 117.492L23.792 120.804V123.42H35.624ZM50.1611 119.676C50.1611 118.332 49.4411 117.372 47.6651 116.676C49.0571 116.076 49.8491 115.188 49.8491 113.988C49.8491 111.9 47.3291 110.316 43.7051 110.316C40.0331 110.316 37.3931 111.972 37.3931 114.348C37.3931 115.668 38.2091 116.604 39.6731 117.252C37.9211 117.804 36.9611 118.812 36.9611 120.084C36.9611 122.196 39.6011 123.756 43.5851 123.756C47.5211 123.756 50.1611 122.124 50.1611 119.676ZM44.5691 115.908C42.0491 115.5 41.3771 114.996 41.3771 114.348C41.3771 113.58 42.2651 113.052 43.5371 113.052C44.8571 113.052 45.8651 113.628 45.8651 114.588C45.8651 115.092 45.6011 115.596 45.0971 116.004C44.9291 115.98 44.7611 115.932 44.5691 115.908ZM43.6331 121.02C42.1211 121.02 41.0411 120.492 41.0411 119.604C41.0411 119.052 41.4251 118.452 42.1691 118.02C42.4811 118.068 42.7931 118.14 43.1291 118.188C45.3371 118.548 46.0811 119.028 46.0811 119.724C46.0811 120.516 45.0491 121.02 43.6331 121.02ZM55.8106 122.676V119.172H51.9706V123.18H53.6746C53.6746 124.26 53.0026 125.388 52.1866 126.3L53.6746 127.572C55.0426 126.204 55.8106 124.476 55.8106 122.676ZM68.7706 113.7V110.652H57.3226V114.012H64.6186L58.9786 123.42H63.4186L68.7706 113.7ZM85.6091 108.66L84.4811 107.532C83.3771 108.444 81.6971 109.02 79.9931 109.02C78.7451 109.02 77.3771 108.78 76.4171 108.444C75.7451 107.868 74.8571 107.532 73.8491 107.532C71.5451 107.532 69.8891 109.26 69.8891 111.636C69.8891 114.012 71.5451 115.716 73.8491 115.716C76.1531 115.716 77.8091 114.012 77.8091 111.636C77.8091 111.156 77.7371 110.676 77.6171 110.268C78.3611 110.604 79.2011 110.796 79.9451 110.796C80.6411 110.772 81.4091 110.556 82.1771 110.148L71.1371 122.628L72.3131 123.78L85.6091 108.66ZM86.9531 119.7C86.9531 117.324 85.2971 115.596 82.9931 115.596C80.6891 115.596 79.0331 117.324 79.0331 119.7C79.0331 122.076 80.6891 123.78 82.9931 123.78C85.2971 123.78 86.9531 122.076 86.9531 119.7ZM81.6491 119.7C81.6491 118.572 82.2251 117.756 82.9931 117.756C83.7851 117.756 84.3371 118.572 84.3371 119.7C84.3371 120.804 83.7851 121.596 82.9931 121.596C82.2251 121.596 81.6491 120.804 81.6491 119.7ZM72.5051 111.636C72.5051 110.508 73.0811 109.692 73.8491 109.692C74.6411 109.692 75.1931 110.508 75.1931 111.636C75.1931 112.74 74.6411 113.532 73.8491 113.532C73.0811 113.532 72.5051 112.74 72.5051 111.636ZM100.181 118.488V117.102H95.3572V113.196H101.405V111.774H93.7012V123.42H95.3572V118.488H100.181ZM110.759 118.974C110.759 116.238 108.941 114.258 106.439 114.258C103.937 114.258 102.101 116.238 102.101 118.974C102.101 121.674 103.937 123.654 106.439 123.654C108.941 123.654 110.759 121.674 110.759 118.974ZM103.721 118.974C103.721 116.994 104.855 115.536 106.439 115.536C108.005 115.536 109.139 116.994 109.139 118.974C109.139 120.918 108.005 122.358 106.439 122.358C104.855 122.358 103.721 120.918 103.721 118.974ZM120.363 123.42V117.516C120.363 115.608 119.031 114.258 117.285 114.258C116.007 114.258 114.927 115.014 114.333 115.86V114.492H112.857V123.42H114.387V116.94C114.945 116.148 115.917 115.554 116.925 115.554C118.041 115.554 118.833 116.382 118.833 117.624V123.42H120.363ZM128.005 123.366V122.088C127.627 122.232 126.997 122.34 126.439 122.34C125.305 122.34 124.855 121.782 124.855 120.936V115.752H127.951V114.492H124.855V112.314H123.325V114.492H122.011V115.752H123.325V121.188C123.325 122.754 124.387 123.654 126.169 123.654C126.835 123.654 127.609 123.51 128.005 123.366ZM131.244 114.492H129.714V123.42H131.244V114.492ZM131.244 110.946H129.714V112.728H131.244V110.946ZM145.567 123.564L145.639 122.394C145.531 122.412 145.351 122.43 145.243 122.43C144.703 122.43 144.433 122.052 144.433 121.566V117.462C144.433 115.392 143.173 114.258 141.229 114.258C139.681 114.258 138.331 115.122 137.683 116.526L138.871 117.012C139.321 116.166 140.023 115.536 141.085 115.536C142.183 115.536 142.903 116.292 142.903 117.408V118.11L140.815 118.362C138.835 118.614 137.431 119.568 137.431 121.224C137.431 122.646 138.565 123.654 140.149 123.654C141.409 123.654 142.399 123.042 142.975 122.088C143.191 123.114 143.857 123.654 144.865 123.654C145.135 123.654 145.351 123.618 145.567 123.564ZM140.563 122.412C139.663 122.412 139.033 121.872 139.033 121.116C139.033 120.198 139.897 119.658 141.085 119.514L142.903 119.298V120.936C142.435 121.8 141.553 122.412 140.563 122.412ZM159.577 118.92C159.577 116.22 157.975 114.258 155.779 114.258C154.753 114.258 153.619 114.834 152.953 115.68V110.748H151.423V123.42H152.863V122.34C153.547 123.114 154.663 123.654 155.635 123.654C157.921 123.654 159.577 121.674 159.577 118.92ZM155.275 122.376C154.339 122.376 153.439 121.89 152.953 121.224V116.778C153.439 116.04 154.393 115.554 155.365 115.554C156.859 115.554 157.957 116.958 157.957 118.902C157.957 120.9 156.823 122.376 155.275 122.376ZM169.104 123.564L169.176 122.394C169.068 122.412 168.888 122.43 168.78 122.43C168.24 122.43 167.97 122.052 167.97 121.566V117.462C167.97 115.392 166.71 114.258 164.766 114.258C163.218 114.258 161.868 115.122 161.22 116.526L162.408 117.012C162.858 116.166 163.56 115.536 164.622 115.536C165.72 115.536 166.44 116.292 166.44 117.408V118.11L164.352 118.362C162.372 118.614 160.968 119.568 160.968 121.224C160.968 122.646 162.102 123.654 163.686 123.654C164.946 123.654 165.936 123.042 166.512 122.088C166.728 123.114 167.394 123.654 168.402 123.654C168.672 123.654 168.888 123.618 169.104 123.564ZM164.1 122.412C163.2 122.412 162.57 121.872 162.57 121.116C162.57 120.198 163.434 119.658 164.622 119.514L166.44 119.298V120.936C165.972 121.8 165.09 122.412 164.1 122.412ZM177.634 120.972C177.634 119.316 176.23 118.632 174.214 118.2C172.702 117.858 171.838 117.588 171.838 116.796C171.838 116.04 172.684 115.518 173.872 115.518C175.114 115.518 175.942 116.04 176.356 116.904L177.58 116.418C177.058 115.32 175.96 114.258 173.89 114.258C171.784 114.258 170.344 115.374 170.344 116.886C170.344 118.434 171.802 119.154 173.782 119.568C175.312 119.892 176.158 120.198 176.158 121.044C176.158 121.854 175.402 122.412 174.088 122.412C172.594 122.412 171.64 121.746 171.19 120.864L169.93 121.35C170.542 122.754 171.982 123.654 174.016 123.654C176.284 123.654 177.634 122.556 177.634 120.972ZM186.546 120.972C186.546 119.316 185.142 118.632 183.126 118.2C181.614 117.858 180.75 117.588 180.75 116.796C180.75 116.04 181.596 115.518 182.784 115.518C184.026 115.518 184.854 116.04 185.268 116.904L186.492 116.418C185.97 115.32 184.872 114.258 182.802 114.258C180.696 114.258 179.256 115.374 179.256 116.886C179.256 118.434 180.714 119.154 182.694 119.568C184.224 119.892 185.07 120.198 185.07 121.044C185.07 121.854 184.314 122.412 183 122.412C181.506 122.412 180.552 121.746 180.102 120.864L178.842 121.35C179.454 122.754 180.894 123.654 182.928 123.654C185.196 123.654 186.546 122.556 186.546 120.972ZM196.034 123.564L196.106 122.394C195.998 122.412 195.818 122.43 195.71 122.43C195.17 122.43 194.9 122.052 194.9 121.566V117.462C194.9 115.392 193.64 114.258 191.696 114.258C190.148 114.258 188.798 115.122 188.15 116.526L189.338 117.012C189.788 116.166 190.49 115.536 191.552 115.536C192.65 115.536 193.37 116.292 193.37 117.408V118.11L191.282 118.362C189.302 118.614 187.898 119.568 187.898 121.224C187.898 122.646 189.032 123.654 190.616 123.654C191.876 123.654 192.866 123.042 193.442 122.088C193.658 123.114 194.324 123.654 195.332 123.654C195.602 123.654 195.818 123.618 196.034 123.564ZM191.03 122.412C190.13 122.412 189.5 121.872 189.5 121.116C189.5 120.198 190.364 119.658 191.552 119.514L193.37 119.298V120.936C192.902 121.8 192.02 122.412 191.03 122.412ZM209.054 121.386L207.83 120.918C207.362 121.836 206.498 122.394 205.526 122.394C204.032 122.394 202.952 121.152 202.844 119.28H209.036C209.09 119.046 209.126 118.56 209.126 118.164C209.126 115.878 207.56 114.258 205.382 114.258C203.006 114.258 201.242 116.274 201.242 119.028C201.242 121.728 203.006 123.654 205.436 123.654C207.038 123.654 208.424 122.808 209.054 121.386ZM205.4 115.5C206.66 115.5 207.542 116.508 207.596 118.056H202.934C203.204 116.508 204.158 115.5 205.4 115.5ZM223.805 123.42V117.516C223.805 115.608 222.509 114.258 220.835 114.258C219.647 114.258 218.603 114.978 217.973 115.932C217.487 114.906 216.551 114.258 215.453 114.258C214.265 114.258 213.275 115.014 212.753 115.86V114.492H211.277V123.42H212.807V116.904C213.311 116.148 214.175 115.554 215.057 115.554C216.047 115.554 216.767 116.382 216.767 117.624V123.42H218.297V117.516C218.297 117.246 218.279 116.994 218.225 116.742C218.765 116.058 219.629 115.554 220.493 115.554C221.519 115.554 222.275 116.382 222.275 117.624V123.42H223.805ZM227.977 114.492H226.447V123.42H227.977V114.492ZM227.977 110.946H226.447V112.728H227.977V110.946ZM237.575 120.972C237.575 119.316 236.171 118.632 234.155 118.2C232.643 117.858 231.779 117.588 231.779 116.796C231.779 116.04 232.625 115.518 233.813 115.518C235.055 115.518 235.883 116.04 236.297 116.904L237.521 116.418C236.999 115.32 235.901 114.258 233.831 114.258C231.725 114.258 230.285 115.374 230.285 116.886C230.285 118.434 231.743 119.154 233.723 119.568C235.253 119.892 236.099 120.198 236.099 121.044C236.099 121.854 235.343 122.412 234.029 122.412C232.535 122.412 231.581 121.746 231.131 120.864L229.871 121.35C230.483 122.754 231.923 123.654 233.957 123.654C236.225 123.654 237.575 122.556 237.575 120.972ZM246.487 120.972C246.487 119.316 245.083 118.632 243.067 118.2C241.555 117.858 240.691 117.588 240.691 116.796C240.691 116.04 241.537 115.518 242.725 115.518C243.967 115.518 244.795 116.04 245.209 116.904L246.433 116.418C245.911 115.32 244.813 114.258 242.743 114.258C240.637 114.258 239.197 115.374 239.197 116.886C239.197 118.434 240.655 119.154 242.635 119.568C244.165 119.892 245.011 120.198 245.011 121.044C245.011 121.854 244.255 122.412 242.941 122.412C241.447 122.412 240.493 121.746 240.043 120.864L238.783 121.35C239.395 122.754 240.835 123.654 242.869 123.654C245.137 123.654 246.487 122.556 246.487 120.972ZM250.107 114.492H248.577V123.42H250.107V114.492ZM250.107 110.946H248.577V112.728H250.107V110.946ZM260.876 118.974C260.876 116.238 259.058 114.258 256.556 114.258C254.054 114.258 252.218 116.238 252.218 118.974C252.218 121.674 254.054 123.654 256.556 123.654C259.058 123.654 260.876 121.674 260.876 118.974ZM253.838 118.974C253.838 116.994 254.972 115.536 256.556 115.536C258.122 115.536 259.256 116.994 259.256 118.974C259.256 120.918 258.122 122.358 256.556 122.358C254.972 122.358 253.838 120.918 253.838 118.974ZM270.48 123.42V117.516C270.48 115.608 269.148 114.258 267.402 114.258C266.124 114.258 265.044 115.014 264.45 115.86V114.492H262.974V123.42H264.504V116.94C265.062 116.148 266.034 115.554 267.042 115.554C268.158 115.554 268.95 116.382 268.95 117.624V123.42H270.48ZM280.316 121.386L279.092 120.918C278.624 121.836 277.76 122.394 276.788 122.394C275.294 122.394 274.214 121.152 274.106 119.28H280.298C280.352 119.046 280.388 118.56 280.388 118.164C280.388 115.878 278.822 114.258 276.644 114.258C274.268 114.258 272.504 116.274 272.504 119.028C272.504 121.728 274.268 123.654 276.698 123.654C278.3 123.654 279.686 122.808 280.316 121.386ZM276.662 115.5C277.922 115.5 278.804 116.508 278.858 118.056H274.196C274.466 116.508 275.42 115.5 276.662 115.5ZM290.233 122.376C288.739 122.376 287.677 120.954 287.677 119.01C287.677 117.012 288.793 115.554 290.341 115.554C291.295 115.554 292.177 115.986 292.645 116.67V121.08C292.123 121.854 291.169 122.376 290.233 122.376ZM294.175 123.42V110.748H292.645V115.464C292.033 114.744 290.989 114.258 290.017 114.258C287.713 114.258 286.039 116.256 286.039 119.028C286.039 121.71 287.659 123.654 289.891 123.654C290.917 123.654 292.069 123.024 292.735 122.142V123.42H294.175ZM298.482 114.492H296.952V123.42H298.482V114.492ZM298.482 110.946H296.952V112.728H298.482V110.946ZM312.337 121.224L311.041 120.72C310.609 121.71 309.889 122.34 308.899 122.34C307.441 122.34 306.379 120.954 306.379 119.028C306.379 117.012 307.405 115.554 308.827 115.554C309.727 115.554 310.501 116.112 310.933 117.156L312.265 116.616C311.635 115.176 310.429 114.258 308.791 114.258C306.451 114.258 304.759 116.256 304.759 119.028C304.759 121.71 306.469 123.654 308.845 123.654C310.483 123.654 311.761 122.628 312.337 121.224ZM321.595 123.564L321.667 122.394C321.559 122.412 321.379 122.43 321.271 122.43C320.731 122.43 320.461 122.052 320.461 121.566V117.462C320.461 115.392 319.201 114.258 317.257 114.258C315.709 114.258 314.359 115.122 313.711 116.526L314.899 117.012C315.349 116.166 316.051 115.536 317.113 115.536C318.211 115.536 318.931 116.292 318.931 117.408V118.11L316.843 118.362C314.863 118.614 313.459 119.568 313.459 121.224C313.459 122.646 314.593 123.654 316.177 123.654C317.437 123.654 318.427 123.042 319.003 122.088C319.219 123.114 319.885 123.654 320.893 123.654C321.163 123.654 321.379 123.618 321.595 123.564ZM316.591 122.412C315.691 122.412 315.061 121.872 315.061 121.116C315.061 120.198 315.925 119.658 317.113 119.514L318.931 119.298V120.936C318.463 121.8 317.581 122.412 316.591 122.412ZM324.832 123.42V118.092C324.976 116.904 325.696 115.788 327.082 115.788C327.388 115.788 327.82 115.842 328.072 115.914V114.402C327.892 114.33 327.46 114.258 327.154 114.258C326.11 114.258 325.138 115.176 324.778 116.31V114.492H323.302V123.42H324.832ZM337.978 118.92C337.978 116.22 336.376 114.258 334.18 114.258C333.154 114.258 332.02 114.834 331.354 115.68V110.748H329.824V123.42H331.264V122.34C331.948 123.114 333.063 123.654 334.036 123.654C336.322 123.654 337.978 121.674 337.978 118.92ZM333.676 122.376C332.74 122.376 331.84 121.89 331.354 121.224V116.778C331.84 116.04 332.794 115.554 333.766 115.554C335.26 115.554 336.358 116.958 336.358 118.902C336.358 120.9 335.224 122.376 333.676 122.376ZM348.099 118.974C348.099 116.238 346.281 114.258 343.779 114.258C341.277 114.258 339.441 116.238 339.441 118.974C339.441 121.674 341.277 123.654 343.779 123.654C346.281 123.654 348.099 121.674 348.099 118.974ZM341.061 118.974C341.061 116.994 342.195 115.536 343.779 115.536C345.345 115.536 346.479 116.994 346.479 118.974C346.479 120.918 345.345 122.358 343.779 122.358C342.195 122.358 341.061 120.918 341.061 118.974ZM357.703 123.42V117.516C357.703 115.608 356.371 114.258 354.625 114.258C353.347 114.258 352.267 115.014 351.673 115.86V114.492H350.197V123.42H351.727V116.94C352.285 116.148 353.257 115.554 354.265 115.554C355.381 115.554 356.173 116.382 356.173 117.624V123.42H357.703ZM361.904 114.492H360.374V123.42H361.904V114.492ZM361.904 110.946H360.374V112.728H361.904V110.946ZM372.673 118.974C372.673 116.238 370.855 114.258 368.353 114.258C365.851 114.258 364.015 116.238 364.015 118.974C364.015 121.674 365.851 123.654 368.353 123.654C370.855 123.654 372.673 121.674 372.673 118.974ZM365.635 118.974C365.635 116.994 366.769 115.536 368.353 115.536C369.919 115.536 371.053 116.994 371.053 118.974C371.053 120.918 369.919 122.358 368.353 122.358C366.769 122.358 365.635 120.918 365.635 118.974Z" fill="white"/>
<g opacity="0.5">
<path d="M686.941 105.911C686.569 105.539 686.569 104.936 686.942 104.565C687.313 104.194 687.916 104.194 688.288 104.565L691.71 107.989V106.643V106.633L691.709 102.78L686.944 98.0112C686.572 97.6387 686.574 97.0366 686.945 96.6644C687.317 96.293 687.919 96.293 688.292 96.6655L691.709 100.085V98.7429V98.7372L691.707 92.1685C691.706 91.6427 692.133 91.2172 692.659 91.2172C693.184 91.2172 693.611 91.6427 693.611 92.1685L693.612 96.4391L697.034 93.0138C697.406 92.6413 698.009 92.6403 698.38 93.0128C698.753 93.3842 698.753 93.9874 698.382 94.3596L693.613 99.1337L693.614 102.366V102.415V104.338L697.038 100.914C697.409 100.541 698.012 100.542 698.383 100.913C698.756 101.285 698.756 101.887 698.384 102.26L693.613 107.032L693.616 110.284V110.296L693.617 116.024C699.854 113.282 704.003 106.889 704 99.8851C704 92.6574 699.58 86.0668 693.001 83.4865C692.778 83.3973 692.53 83.3995 692.305 83.4865C685.731 86.0708 681.315 92.6624 681.317 99.8888C681.317 106.894 685.472 113.286 691.713 116.025L691.712 110.683L686.941 105.911Z" fill="white"/>
<path d="M667.952 118.618C667.427 118.618 667 119.044 667 119.57C667 120.095 667.427 120.522 667.952 120.522H670.219C670.382 121.997 671.62 123.152 673.138 123.152H676.192C677.82 123.152 679.143 121.828 679.143 120.2V118.529C680.837 118.607 681.299 119.036 682.396 121.382C683.604 123.966 685.083 125.564 686.792 126.132C687.244 126.283 687.702 126.356 688.168 126.356C688.97 126.356 689.791 126.134 690.62 125.688C692.717 124.564 693.724 121.45 693.616 116.427V116.025C693.415 116.113 693.216 116.209 693.01 116.291C692.899 116.335 692.781 116.356 692.663 116.356C692.545 116.356 692.427 116.335 692.315 116.291C692.11 116.21 691.914 116.114 691.712 116.026V116.448C691.712 116.45 691.714 116.451 691.714 116.455C691.714 116.459 691.712 116.464 691.712 116.469C691.832 122.036 690.517 123.583 689.721 124.01C688.879 124.461 688.116 124.563 687.393 124.323C685.907 123.831 684.795 122.012 684.122 120.574C682.738 117.612 681.757 116.769 679.145 116.631V114.718C679.145 113.091 677.821 111.768 676.194 111.768L673.138 111.768C671.625 111.768 670.388 112.916 670.219 114.386H667.952C667.427 114.386 667 114.812 667 115.338C667 115.863 667.427 116.289 667.952 116.289H670.186V118.618H667.952L667.952 118.618Z" fill="white"/>
</g>
</svg>
