<svg width="726" height="488" viewBox="0 0 726 488" fill="none" xmlns="http://www.w3.org/2000/svg">
<rect x="1.5" y="1.9209" width="723" height="484" rx="2.5" fill="#202125" stroke="#1767D2" stroke-width="3"/>
<path d="M34.88 449.701V446.653H23.432V450.013H30.728L25.088 459.421H29.528L34.88 449.701ZM40.8224 446.653L35.9024 448.597L36.9104 451.309L39.9344 450.229V456.325H36.4544V459.421H46.9664V456.325H43.8944V446.653H40.8224ZM63.6481 444.661L62.5201 443.533C61.4161 444.445 59.7361 445.021 58.0321 445.021C56.7841 445.021 55.4161 444.781 54.4561 444.445C53.7841 443.869 52.8961 443.533 51.8881 443.533C49.5841 443.533 47.9281 445.261 47.9281 447.637C47.9281 450.013 49.5841 451.717 51.8881 451.717C54.1921 451.717 55.8481 450.013 55.8481 447.637C55.8481 447.157 55.7761 446.677 55.6561 446.269C56.4001 446.605 57.2401 446.797 57.9841 446.797C58.6801 446.773 59.4481 446.557 60.2161 446.149L49.1761 458.629L50.3521 459.781L63.6481 444.661ZM64.9921 455.701C64.9921 453.325 63.3361 451.597 61.0321 451.597C58.7281 451.597 57.0721 453.325 57.0721 455.701C57.0721 458.077 58.7281 459.781 61.0321 459.781C63.3361 459.781 64.9921 458.077 64.9921 455.701ZM59.6881 455.701C59.6881 454.573 60.2641 453.757 61.0321 453.757C61.8241 453.757 62.3761 454.573 62.3761 455.701C62.3761 456.805 61.8241 457.597 61.0321 457.597C60.2641 457.597 59.6881 456.805 59.6881 455.701ZM50.5441 447.637C50.5441 446.509 51.1201 445.693 51.8881 445.693C52.6801 445.693 53.2321 446.509 53.2321 447.637C53.2321 448.741 52.6801 449.533 51.8881 449.533C51.1201 449.533 50.5441 448.741 50.5441 447.637ZM77.0777 454.489V453.103H72.2537V449.197H78.3017V447.775H70.5977V459.421H72.2537V454.489H77.0777ZM87.6553 454.975C87.6553 452.239 85.8373 450.259 83.3353 450.259C80.8333 450.259 78.9973 452.239 78.9973 454.975C78.9973 457.675 80.8333 459.655 83.3353 459.655C85.8373 459.655 87.6553 457.675 87.6553 454.975ZM80.6173 454.975C80.6173 452.995 81.7513 451.537 83.3353 451.537C84.9013 451.537 86.0353 452.995 86.0353 454.975C86.0353 456.919 84.9013 458.359 83.3353 458.359C81.7513 458.359 80.6173 456.919 80.6173 454.975ZM97.2592 459.421V453.517C97.2592 451.609 95.9272 450.259 94.1812 450.259C92.9032 450.259 91.8232 451.015 91.2292 451.861V450.493H89.7532V459.421H91.2832V452.941C91.8412 452.149 92.8132 451.555 93.8212 451.555C94.9372 451.555 95.7292 452.383 95.7292 453.625V459.421H97.2592ZM104.901 459.367V458.089C104.523 458.233 103.893 458.341 103.335 458.341C102.201 458.341 101.751 457.783 101.751 456.937V451.753H104.847V450.493H101.751V448.315H100.221V450.493H98.9075V451.753H100.221V457.189C100.221 458.755 101.283 459.655 103.065 459.655C103.731 459.655 104.505 459.511 104.901 459.367ZM108.141 450.493H106.611V459.421H108.141V450.493ZM108.141 446.947H106.611V448.729H108.141V446.947ZM118.612 458.377C117.118 458.377 116.056 456.955 116.056 455.011C116.056 453.013 117.172 451.555 118.72 451.555C119.674 451.555 120.556 451.987 121.024 452.671V457.081C120.502 457.855 119.548 458.377 118.612 458.377ZM122.554 459.421V446.749H121.024V451.465C120.412 450.745 119.368 450.259 118.396 450.259C116.092 450.259 114.418 452.257 114.418 455.029C114.418 457.711 116.038 459.655 118.27 459.655C119.296 459.655 120.448 459.025 121.114 458.143V459.421H122.554ZM132.495 457.387L131.271 456.919C130.803 457.837 129.939 458.395 128.967 458.395C127.473 458.395 126.393 457.153 126.285 455.281H132.477C132.531 455.047 132.567 454.561 132.567 454.165C132.567 451.879 131.001 450.259 128.823 450.259C126.447 450.259 124.683 452.275 124.683 455.029C124.683 457.729 126.447 459.655 128.877 459.655C130.479 459.655 131.865 458.809 132.495 457.387ZM128.841 451.501C130.101 451.501 130.983 452.509 131.037 454.057H126.375C126.645 452.509 127.599 451.501 128.841 451.501ZM136.248 459.421V454.093C136.392 452.905 137.112 451.789 138.498 451.789C138.804 451.789 139.236 451.843 139.488 451.915V450.403C139.308 450.331 138.876 450.259 138.57 450.259C137.526 450.259 136.554 451.177 136.194 452.311V450.493H134.718V459.421H136.248ZM142.77 450.493H141.24V459.421H142.77V450.493ZM142.77 446.947H141.24V448.729H142.77V446.947ZM144.538 450.493L147.76 459.421H149.344L152.548 450.493H151L148.624 457.441H148.57L146.194 450.493H144.538ZM161.522 459.565L161.594 458.395C161.486 458.413 161.306 458.431 161.198 458.431C160.658 458.431 160.388 458.053 160.388 457.567V453.463C160.388 451.393 159.128 450.259 157.184 450.259C155.636 450.259 154.286 451.123 153.638 452.527L154.826 453.013C155.276 452.167 155.978 451.537 157.04 451.537C158.138 451.537 158.858 452.293 158.858 453.409V454.111L156.77 454.363C154.79 454.615 153.386 455.569 153.386 457.225C153.386 458.647 154.52 459.655 156.104 459.655C157.364 459.655 158.354 459.043 158.93 458.089C159.146 459.115 159.812 459.655 160.82 459.655C161.09 459.655 161.306 459.619 161.522 459.565ZM156.518 458.413C155.618 458.413 154.988 457.873 154.988 457.117C154.988 456.199 155.852 455.659 157.04 455.515L158.858 455.299V456.937C158.39 457.801 157.508 458.413 156.518 458.413ZM168.306 459.367V458.089C167.928 458.233 167.298 458.341 166.74 458.341C165.606 458.341 165.156 457.783 165.156 456.937V451.753H168.252V450.493H165.156V448.315H163.626V450.493H162.312V451.753H163.626V457.189C163.626 458.755 164.688 459.655 166.47 459.655C167.136 459.655 167.91 459.511 168.306 459.367ZM177.091 457.387L175.867 456.919C175.399 457.837 174.535 458.395 173.563 458.395C172.069 458.395 170.989 457.153 170.881 455.281H177.073C177.127 455.047 177.163 454.561 177.163 454.165C177.163 451.879 175.597 450.259 173.419 450.259C171.043 450.259 169.279 452.275 169.279 455.029C169.279 457.729 171.043 459.655 173.473 459.655C175.075 459.655 176.461 458.809 177.091 457.387ZM173.437 451.501C174.697 451.501 175.579 452.509 175.633 454.057H170.971C171.241 452.509 172.195 451.501 173.437 451.501ZM187.008 458.377C185.514 458.377 184.452 456.955 184.452 455.011C184.452 453.013 185.568 451.555 187.116 451.555C188.07 451.555 188.952 451.987 189.42 452.671V457.081C188.898 457.855 187.944 458.377 187.008 458.377ZM190.95 459.421V446.749H189.42V451.465C188.808 450.745 187.764 450.259 186.792 450.259C184.488 450.259 182.814 452.257 182.814 455.029C182.814 457.711 184.434 459.655 186.666 459.655C187.692 459.655 188.844 459.025 189.51 458.143V459.421H190.95ZM201.126 459.565L201.198 458.395C201.09 458.413 200.91 458.431 200.802 458.431C200.262 458.431 199.992 458.053 199.992 457.567V453.463C199.992 451.393 198.732 450.259 196.788 450.259C195.24 450.259 193.89 451.123 193.242 452.527L194.43 453.013C194.88 452.167 195.582 451.537 196.644 451.537C197.742 451.537 198.462 452.293 198.462 453.409V454.111L196.374 454.363C194.394 454.615 192.99 455.569 192.99 457.225C192.99 458.647 194.124 459.655 195.708 459.655C196.968 459.655 197.958 459.043 198.534 458.089C198.75 459.115 199.416 459.655 200.424 459.655C200.694 459.655 200.91 459.619 201.126 459.565ZM196.122 458.413C195.222 458.413 194.592 457.873 194.592 457.117C194.592 456.199 195.456 455.659 196.644 455.515L198.462 455.299V456.937C197.994 457.801 197.112 458.413 196.122 458.413ZM213.912 457.225L212.616 456.721C212.184 457.711 211.464 458.341 210.474 458.341C209.016 458.341 207.954 456.955 207.954 455.029C207.954 453.013 208.98 451.555 210.402 451.555C211.302 451.555 212.076 452.113 212.508 453.157L213.84 452.617C213.21 451.177 212.004 450.259 210.366 450.259C208.026 450.259 206.334 452.257 206.334 455.029C206.334 457.711 208.044 459.655 210.42 459.655C212.058 459.655 213.336 458.629 213.912 457.225ZM223.763 454.975C223.763 452.239 221.945 450.259 219.443 450.259C216.941 450.259 215.105 452.239 215.105 454.975C215.105 457.675 216.941 459.655 219.443 459.655C221.945 459.655 223.763 457.675 223.763 454.975ZM216.725 454.975C216.725 452.995 217.859 451.537 219.443 451.537C221.009 451.537 222.143 452.995 222.143 454.975C222.143 456.919 221.009 458.359 219.443 458.359C217.859 458.359 216.725 456.919 216.725 454.975ZM238.389 459.421V453.517C238.389 451.609 237.093 450.259 235.419 450.259C234.231 450.259 233.187 450.979 232.557 451.933C232.071 450.907 231.135 450.259 230.037 450.259C228.849 450.259 227.859 451.015 227.337 451.861V450.493H225.861V459.421H227.391V452.905C227.895 452.149 228.759 451.555 229.641 451.555C230.631 451.555 231.351 452.383 231.351 453.625V459.421H232.881V453.517C232.881 453.247 232.863 452.995 232.809 452.743C233.349 452.059 234.213 451.555 235.077 451.555C236.103 451.555 236.859 452.383 236.859 453.625V459.421H238.389ZM249.185 454.921C249.185 452.221 247.583 450.259 245.387 450.259C244.361 450.259 243.227 450.835 242.561 451.681V446.749H241.031V459.421H242.471V458.341C243.155 459.115 244.271 459.655 245.243 459.655C247.529 459.655 249.185 457.675 249.185 454.921ZM244.883 458.377C243.947 458.377 243.047 457.891 242.561 457.225V452.779C243.047 452.041 244.001 451.555 244.973 451.555C246.467 451.555 247.565 452.959 247.565 454.903C247.565 456.901 246.431 458.377 244.883 458.377ZM258.514 459.421V450.493H256.984V456.649C256.534 457.639 255.67 458.359 254.608 458.359C253.51 458.359 252.718 457.495 252.718 456.289V450.493H251.188V456.397C251.188 458.287 252.448 459.655 254.176 459.655C255.49 459.655 256.516 458.899 257.038 457.945V459.421H258.514ZM268.103 456.973C268.103 455.317 266.699 454.633 264.683 454.201C263.171 453.859 262.307 453.589 262.307 452.797C262.307 452.041 263.153 451.519 264.341 451.519C265.583 451.519 266.411 452.041 266.825 452.905L268.049 452.419C267.527 451.321 266.429 450.259 264.359 450.259C262.253 450.259 260.813 451.375 260.813 452.887C260.813 454.435 262.271 455.155 264.251 455.569C265.781 455.893 266.627 456.199 266.627 457.045C266.627 457.855 265.871 458.413 264.557 458.413C263.063 458.413 262.109 457.747 261.659 456.865L260.399 457.351C261.011 458.755 262.451 459.655 264.485 459.655C266.753 459.655 268.103 458.557 268.103 456.973ZM275.198 459.367V458.089C274.82 458.233 274.19 458.341 273.632 458.341C272.498 458.341 272.048 457.783 272.048 456.937V451.753H275.144V450.493H272.048V448.315H270.518V450.493H269.204V451.753H270.518V457.189C270.518 458.755 271.58 459.655 273.362 459.655C274.028 459.655 274.802 459.511 275.198 459.367ZM278.437 450.493H276.907V459.421H278.437V450.493ZM278.437 446.947H276.907V448.729H278.437V446.947ZM289.368 454.921C289.368 452.221 287.766 450.259 285.57 450.259C284.544 450.259 283.41 450.835 282.744 451.681V446.749H281.214V459.421H282.654V458.341C283.338 459.115 284.454 459.655 285.426 459.655C287.712 459.655 289.368 457.675 289.368 454.921ZM285.066 458.377C284.13 458.377 283.23 457.891 282.744 457.225V452.779C283.23 452.041 284.184 451.555 285.156 451.555C286.65 451.555 287.748 452.959 287.748 454.903C287.748 456.901 286.614 458.377 285.066 458.377ZM293.027 450.493H291.497V459.421H293.027V450.493ZM293.027 446.947H291.497V448.729H293.027V446.947ZM297.334 446.749H295.804V459.421H297.334V446.749ZM301.641 450.493H300.111V459.421H301.641V450.493ZM301.641 446.947H300.111V448.729H301.641V446.947ZM313.804 451.753V450.493H310.546V450.133C310.546 448.657 311.284 447.793 312.472 447.793C312.958 447.793 313.552 447.883 313.948 448.045L313.984 446.767C313.57 446.641 312.85 446.515 312.31 446.515C310.258 446.515 309.016 447.865 309.016 450.151V450.493H307.864V451.753H309.016V459.421H310.546V451.753H313.804ZM322.921 454.975C322.921 452.239 321.103 450.259 318.601 450.259C316.099 450.259 314.263 452.239 314.263 454.975C314.263 457.675 316.099 459.655 318.601 459.655C321.103 459.655 322.921 457.675 322.921 454.975ZM315.883 454.975C315.883 452.995 317.017 451.537 318.601 451.537C320.167 451.537 321.301 452.995 321.301 454.975C321.301 456.919 320.167 458.359 318.601 458.359C317.017 458.359 315.883 456.919 315.883 454.975ZM331.841 456.973C331.841 455.317 330.437 454.633 328.421 454.201C326.909 453.859 326.045 453.589 326.045 452.797C326.045 452.041 326.891 451.519 328.079 451.519C329.321 451.519 330.149 452.041 330.563 452.905L331.787 452.419C331.265 451.321 330.167 450.259 328.097 450.259C325.991 450.259 324.551 451.375 324.551 452.887C324.551 454.435 326.009 455.155 327.989 455.569C329.519 455.893 330.365 456.199 330.365 457.045C330.365 457.855 329.609 458.413 328.295 458.413C326.801 458.413 325.847 457.747 325.397 456.865L324.137 457.351C324.749 458.755 326.189 459.655 328.223 459.655C330.491 459.655 331.841 458.557 331.841 456.973ZM340.753 456.973C340.753 455.317 339.349 454.633 337.333 454.201C335.821 453.859 334.957 453.589 334.957 452.797C334.957 452.041 335.803 451.519 336.991 451.519C338.233 451.519 339.061 452.041 339.475 452.905L340.699 452.419C340.177 451.321 339.079 450.259 337.009 450.259C334.903 450.259 333.463 451.375 333.463 452.887C333.463 454.435 334.921 455.155 336.901 455.569C338.431 455.893 339.277 456.199 339.277 457.045C339.277 457.855 338.521 458.413 337.207 458.413C335.713 458.413 334.759 457.747 334.309 456.865L333.049 457.351C333.661 458.755 335.101 459.655 337.135 459.655C339.403 459.655 340.753 458.557 340.753 456.973ZM344.373 450.493H342.843V459.421H344.373V450.493ZM344.373 446.947H342.843V448.729H344.373V446.947ZM348.68 446.749H347.15V459.421H348.68V446.749ZM352.986 450.493H351.456V459.421H352.986V450.493ZM352.986 446.947H351.456V448.729H352.986V446.947Z" fill="white"/>
<g opacity="0.5">
<path d="M699.935 454.848C700.142 454.849 700.348 454.874 700.549 454.922V435.332H697.736V454.129C697.9 454.373 698.074 454.612 698.255 454.848L699.935 454.848Z" fill="white"/>
<path d="M671.964 454.849C672.432 454.335 672.867 453.793 673.268 453.227V428.613H670.455V454.923C670.661 454.786 671.964 454.849 671.964 454.849V454.849Z" fill="white"/>
<path d="M698.255 454.848C698.074 454.612 697.9 454.373 697.736 454.128C694.797 449.744 694.498 444.236 694.484 442.437H688.352C688.328 444.234 688.117 446.022 687.722 447.775C688.591 450.253 689.919 452.779 691.947 454.848L698.255 454.848Z" fill="white"/>
<path d="M687.885 440.502H694.915C695.053 440.502 695.164 440.641 695.164 440.752V441.581C695.164 441.719 695.052 441.831 694.915 441.831H687.885C687.747 441.831 687.635 441.693 687.635 441.581V440.752C687.635 440.614 687.747 440.502 687.885 440.502Z" fill="white"/>
<path d="M690.357 454.849C685.272 448.94 684.908 440.517 684.913 438.149H677.597C677.595 440.263 677.275 447.595 673.267 453.227C672.866 453.793 672.431 454.335 671.964 454.849L690.357 454.849Z" fill="white"/>
<path d="M693.069 427.506C688.965 427.506 689.095 431.757 690.443 432.701C689.404 433.185 689.554 434.824 690.367 435.235C690.006 435.425 689.736 435.752 689.618 436.142C689.501 436.533 689.546 436.954 689.742 437.312C689.939 437.669 690.271 437.932 690.664 438.041C690.272 438.565 690.751 439.395 691.43 439.395V439.396C691.82 439.417 692.178 439.178 692.307 438.809C692.436 438.44 692.306 438.03 691.988 437.804C692.379 437.518 692.61 437.063 692.611 436.578C694.775 436.998 695.944 434.706 695.062 433.349C697.735 431.335 696.235 427.506 693.069 427.506L693.069 427.506Z" fill="white"/>
<path d="M673.676 413.421C669.572 413.421 669.702 417.672 671.05 418.615C670.011 419.099 670.161 420.739 670.974 421.15C670.612 421.34 670.343 421.666 670.225 422.057C670.108 422.448 670.152 422.869 670.349 423.226C670.546 423.584 670.878 423.847 671.271 423.956C670.879 424.48 671.358 425.31 672.037 425.31C672.427 425.332 672.785 425.093 672.914 424.724C673.043 424.355 672.913 423.945 672.595 423.719C672.986 423.433 673.217 422.978 673.218 422.493C675.382 422.913 676.551 420.621 675.669 419.264C678.341 417.25 676.841 413.421 673.676 413.421L673.676 413.421Z" fill="white"/>
<path d="M700.616 434.735C700.806 434.741 700.99 434.669 701.127 434.537C701.263 434.405 701.34 434.223 701.34 434.033C701.34 433.843 701.263 433.661 701.127 433.529C700.99 433.396 700.806 433.325 700.616 433.331H697.665C697.476 433.325 697.292 433.396 697.155 433.529C697.019 433.661 696.942 433.843 696.942 434.033C696.942 434.223 697.019 434.405 697.155 434.537C697.292 434.669 697.476 434.741 697.665 434.735H700.616Z" fill="white"/>
<path d="M676.773 435.891H685.551H685.551C685.723 435.891 685.863 436.031 685.863 436.203V437.238C685.863 437.411 685.723 437.55 685.551 437.55H676.773C676.6 437.55 676.46 437.411 676.46 437.238V436.203C676.46 436.031 676.6 435.891 676.773 435.891H676.773Z" fill="white"/>
<path d="M673.333 428.018C673.522 428.024 673.707 427.952 673.843 427.82C673.979 427.688 674.056 427.506 674.056 427.316C674.056 427.126 673.979 426.945 673.843 426.812C673.707 426.68 673.522 426.608 673.333 426.614H670.382C670.192 426.608 670.009 426.68 669.872 426.812C669.736 426.945 669.659 427.126 669.659 427.316C669.659 427.506 669.736 427.688 669.872 427.82C670.009 427.952 670.192 428.024 670.382 428.018H673.333Z" fill="white"/>
<path d="M699.87 459.582C702.753 459.582 702.667 455.449 699.87 455.449H671.13C668.247 455.449 668.333 459.582 671.13 459.582H699.87Z" fill="white"/>
</g>
</svg>
