<svg width="734" height="648" viewBox="0 0 734 648" fill="none" xmlns="http://www.w3.org/2000/svg">


<g id="GRAFICO-FONTI">

<g id="combustibili-diviso">

          <g id="petrolio">
          <path id="Rectangle 496" d="M260 154H603V639H260V154Z" fill="#202125" stroke="#1767D2" stroke-width="1.5"/>
          <g id="icona-petrolio" opacity="0.5">
          <path id="Vector" d="M570.896 581C574.636 581 578.028 581.264 580.488 581.691C583.147 582.152 584.791 582.881 584.791 583.768C584.791 584.654 583.147 585.383 580.488 585.845C578.028 586.271 574.636 586.535 570.896 586.535C567.156 586.535 563.764 586.271 561.304 585.845C558.646 585.384 557.002 584.654 557.002 583.768C557.002 582.881 558.646 582.152 561.304 581.691C563.765 581.264 567.156 581 570.896 581V581Z" fill="white"/>
          <path id="Vector_2" fill-rule="evenodd" clip-rule="evenodd" d="M567.757 602.388C568.771 602.418 569.821 602.434 570.897 602.434C571.971 602.434 573.02 602.418 574.033 602.388C574.806 602.358 575.555 602.316 576.273 602.265C577.989 602.141 579.535 601.96 580.829 601.735C582.203 601.497 583.302 601.192 584.041 600.835C584.385 600.669 584.639 600.503 584.791 600.339V585.277C583.643 586.147 581.642 586.521 580.636 586.696C579.185 586.947 577.704 587.103 576.236 587.211C574.461 587.342 572.677 587.399 570.897 587.399C569.117 587.399 567.333 587.342 565.557 587.211C564.089 587.103 562.608 586.947 561.157 586.696C560.151 586.521 558.15 586.147 557.002 585.277V600.339C557.154 600.502 557.408 600.669 557.752 600.835C558.491 601.192 559.59 601.497 560.964 601.735C562.259 601.96 563.804 602.141 565.521 602.265C566.237 602.316 566.985 602.358 567.758 602.388H567.757ZM567.551 597.621C567.261 596.851 567.213 595.885 567.541 594.727C567.93 593.354 568.855 591.691 570.549 589.746C570.708 589.529 571.048 589.504 571.222 589.718C572.927 591.67 573.858 593.338 574.249 594.716C574.579 595.876 574.532 596.844 574.242 597.616C573.943 598.41 573.39 598.988 572.721 599.352C571.612 599.955 570.18 599.958 569.069 599.355C568.402 598.993 567.85 598.416 567.551 597.622L567.551 597.621Z" fill="white"/>
          <path id="Vector_3" fill-rule="evenodd" clip-rule="evenodd" d="M568.357 597.317C568.577 597.901 568.986 598.327 569.481 598.595C570.338 599.061 571.453 599.061 572.31 598.595C572.805 598.326 573.215 597.898 573.435 597.311C573.664 596.703 573.695 595.917 573.42 594.948C573.085 593.77 572.305 592.343 570.898 590.662C569.486 592.348 568.705 593.779 568.371 594.96C568.097 595.926 568.128 596.71 568.357 597.317H568.357Z" fill="white"/>
          <path id="Vector_4" fill-rule="evenodd" clip-rule="evenodd" d="M573.42 611.59C573.085 610.412 572.305 608.985 570.898 607.304C569.486 608.99 568.705 610.421 568.371 611.602C568.097 612.568 568.128 613.352 568.357 613.96C568.577 614.543 568.986 614.969 569.481 615.238C570.338 615.703 571.453 615.703 572.31 615.238C572.805 614.968 573.215 614.54 573.435 613.954C573.664 613.345 573.695 612.559 573.42 611.59H573.42Z" fill="white"/>
          <path id="Vector_5" fill-rule="evenodd" clip-rule="evenodd" d="M571.222 606.359C572.927 608.311 573.857 609.98 574.249 611.358C574.579 612.517 574.532 613.486 574.241 614.257C573.942 615.051 573.39 615.63 572.721 615.994C571.612 616.597 570.18 616.599 569.069 615.997C568.402 615.635 567.85 615.057 567.55 614.263C567.26 613.493 567.213 612.527 567.54 611.37C567.929 609.996 568.855 608.333 570.549 606.388C570.704 606.176 571.051 606.144 571.221 606.36L571.222 606.359ZM557.001 601.409V616.985C557.001 618.932 564.105 619.44 565.361 619.526C568.971 619.775 572.821 619.775 576.432 619.526C577.688 619.44 584.79 618.932 584.79 616.985V601.409C584.674 601.479 584.549 601.546 584.414 601.61C583.601 602.003 582.424 602.333 580.972 602.585C579.652 602.814 578.078 602.999 576.332 603.124C574.65 603.245 572.813 603.313 570.895 603.313C568.977 603.313 567.14 603.246 565.458 603.124C563.712 602.999 562.138 602.814 560.817 602.585C559.366 602.333 558.189 602.003 557.375 601.61C557.241 601.546 557.116 601.479 557 601.409H557.001Z" fill="white"/>
          </g>
          <g id="34% Petrolio">
          <text fill="white" xml:space="preserve" style="white-space: pre" font-family="Sole24Sans" font-size="18" letter-spacing="0em"><tspan x="279" y="617.7">Petrolio</tspan></text>
          <text fill="white" xml:space="preserve" style="white-space: pre" font-family="Sole24Sans" font-size="20" font-weight="bold" letter-spacing="0em"><tspan x="301.676" y="595.7">% &#10;</tspan></text>
          <text fill="white" xml:space="preserve" style="white-space: pre" font-family="Sole24Sans" font-size="20" font-weight="bold" letter-spacing="0em"><tspan x="279" y="595.7">34</tspan></text>
          </g>
          </g>

          <g id="gas">
          <path id="Rectangle 495" d="M4 158C4 155.791 5.79086 154 8 154H260V639H8C5.79086 639 4 637.209 4 635V158Z" fill="#202125" stroke="#1767D2" stroke-width="1.5"/>
          <g id="icona-gas" opacity="0.5">
          <path id="Vector_6" fill-rule="evenodd" clip-rule="evenodd" d="M228.812 585.92H232.409V584.324H231.606C231.317 584.324 231.081 584.087 231.081 583.798V583.179C231.081 582.89 231.317 582.653 231.606 582.653H234.881C235.17 582.653 235.407 582.89 235.407 583.179V583.798C235.407 584.087 235.17 584.324 234.881 584.324H234.079V585.92H237.916V582.61C237.916 582.128 237.521 581.734 237.04 581.734H229.688C229.206 581.734 228.812 582.128 228.812 582.61V585.92H228.812ZM219.777 602.607H221.362V600.036H245.126V602.607H246.712C247.139 602.607 247.489 602.957 247.489 603.384V604.299C247.489 604.726 247.139 605.076 246.712 605.076H219.777C219.35 605.076 219 604.726 219 604.299V603.384C219 602.957 219.35 602.607 219.777 602.607H219.777ZM219.777 598.804H246.711C247.139 598.804 247.488 598.454 247.488 598.027V597.113C247.488 596.686 247.139 596.336 246.711 596.336H245.126V592.567C245.126 589.947 243.589 587.668 241.372 586.587V580.876C241.372 580.394 240.979 580 240.496 580H226.231C225.75 580 225.355 580.394 225.355 580.876V586.477C223.011 587.506 221.362 589.853 221.362 592.567V596.336H219.777C219.349 596.336 219 596.686 219 597.113V598.027C219 598.455 219.349 598.804 219.777 598.804L219.777 598.804ZM245.127 606.307V611.309C245.127 614.964 242.135 617.955 238.48 617.955H228.009C224.353 617.955 221.363 614.964 221.363 611.309V606.307H245.127H245.127Z" fill="white"/>
          </g>
          <g id="26% Gas">
          <text fill="white" xml:space="preserve" style="white-space: pre" font-family="Sole24Sans" font-size="18" letter-spacing="0em"><tspan x="23" y="617.7">Gas</tspan></text>
          <text fill="white" xml:space="preserve" style="white-space: pre" font-family="Sole24Sans" font-size="20" font-weight="bold" letter-spacing="0em"><tspan x="46.0273" y="595.7">% &#10;</tspan></text>
          <text fill="white" xml:space="preserve" style="white-space: pre" font-family="Sole24Sans" font-size="20" font-weight="bold" letter-spacing="0em"><tspan x="23" y="595.7">26</tspan></text>
          </g>
          </g>

          <g id="carbone">
          <path id="Rectangle 497" d="M603 154H723C725.209 154 727 155.791 727 158V635C727 637.209 725.209 639 723 639H603V154Z" fill="#202125" stroke="#1767D2" stroke-width="1.5"/>
          <g id="icona-carbone" opacity="0.5">
          <path id="Vector_7" d="M714.401 592.231H689.285C689.827 591.076 690.877 590.241 692.125 589.973C692.467 589.083 693.069 588.318 693.854 587.776C694.639 587.235 695.569 586.943 696.522 586.94C696.634 586.94 696.752 586.945 696.863 586.951C697.216 586.083 697.819 585.338 698.596 584.813C699.373 584.287 700.288 584.005 701.226 584C702.475 583.998 703.672 584.496 704.553 585.382C704.999 585.246 705.463 585.177 705.929 585.176C707.08 585.177 708.191 585.6 709.051 586.365C709.911 587.13 710.461 588.183 710.597 589.326C711.433 589.427 712.226 589.75 712.894 590.26C713.563 590.771 714.083 591.452 714.401 592.231L714.401 592.231ZM689.497 612.173C689.479 611.997 689.467 611.815 689.467 611.632C689.467 609.742 690.476 607.995 692.113 607.05C693.75 606.105 695.767 606.105 697.404 607.05C699.041 607.995 700.05 609.742 700.05 611.632C700.05 611.829 700.038 612.025 700.015 612.22H703.613H703.612C703.589 612.025 703.577 611.829 703.577 611.632C703.577 609.742 704.586 607.995 706.223 607.05C707.86 606.105 709.877 606.105 711.514 607.05C713.151 607.995 714.16 609.742 714.16 611.632C714.16 611.814 714.148 611.997 714.13 612.173C714.959 612.041 715.712 611.618 716.256 610.98C716.801 610.342 717.1 609.531 717.1 608.693V593.995C717.098 593.67 716.836 593.408 716.512 593.407H687.116C686.791 593.408 686.529 593.67 686.528 593.995V608.693C686.528 609.531 686.827 610.342 687.371 610.98C687.915 611.618 688.669 612.041 689.497 612.173H689.497ZM694.758 612.808C695.07 612.808 695.369 612.684 695.59 612.464C695.81 612.243 695.934 611.944 695.934 611.632C695.934 611.32 695.81 611.021 695.59 610.801C695.369 610.58 695.07 610.456 694.758 610.456C694.447 610.456 694.147 610.58 693.927 610.801C693.706 611.021 693.583 611.32 693.583 611.632C693.583 611.944 693.707 612.243 693.927 612.463C694.148 612.684 694.447 612.808 694.758 612.808L694.758 612.808ZM708.869 612.808C709.18 612.808 709.48 612.684 709.7 612.464C709.921 612.243 710.044 611.944 710.044 611.632C710.044 611.32 709.921 611.021 709.7 610.801C709.48 610.58 709.18 610.456 708.869 610.456C708.557 610.456 708.258 610.58 708.037 610.801C707.817 611.021 707.693 611.32 707.693 611.632C707.693 611.944 707.817 612.243 708.038 612.463C708.258 612.684 708.557 612.808 708.869 612.808L708.869 612.808ZM720.627 615.16V617.512C720.627 617.667 720.565 617.817 720.455 617.927C720.345 618.037 720.195 618.099 720.039 618.099H683.588C683.263 618.099 683 617.836 683 617.512V615.16C683 614.835 683.263 614.572 683.588 614.572H691.884C691.099 613.806 690.652 612.757 690.643 611.66C690.634 610.563 691.064 609.507 691.837 608.728C692.609 607.949 693.661 607.511 694.758 607.511C695.856 607.511 696.908 607.949 697.68 608.728C698.453 609.507 698.883 610.563 698.874 611.66C698.865 612.757 698.418 613.806 697.633 614.572H705.994C705.209 613.806 704.762 612.757 704.754 611.66C704.745 610.563 705.174 609.507 705.947 608.728C706.72 607.949 707.771 607.511 708.869 607.511C709.966 607.511 711.018 607.949 711.79 608.728C712.563 609.507 712.993 610.563 712.984 611.66C712.975 612.757 712.529 613.806 711.743 614.572H720.039C720.195 614.572 720.345 614.634 720.455 614.744C720.565 614.854 720.627 615.004 720.627 615.16H720.627ZM706.517 611.632C706.517 612.256 706.765 612.854 707.206 613.295C707.647 613.736 708.245 613.984 708.869 613.984C709.492 613.984 710.09 613.736 710.532 613.295C710.972 612.854 711.22 612.256 711.22 611.632C711.22 611.009 710.972 610.41 710.532 609.969C710.09 609.528 709.492 609.281 708.869 609.281C708.245 609.281 707.647 609.529 707.206 609.97C706.765 610.411 706.517 611.009 706.517 611.632ZM692.407 611.632C692.407 612.256 692.655 612.854 693.095 613.295C693.537 613.736 694.135 613.984 694.758 613.984C695.382 613.984 695.98 613.736 696.421 613.295C696.862 612.854 697.11 612.256 697.11 611.632C697.11 611.009 696.862 610.41 696.421 609.969C695.98 609.528 695.382 609.281 694.758 609.281C694.135 609.281 693.537 609.529 693.096 609.97C692.655 610.411 692.407 611.009 692.407 611.632Z" fill="white"/>
          </g>
          <g id="12% carbone">
          <text fill="white" xml:space="preserve" style="white-space: pre" font-family="Sole24Sans" font-size="18" letter-spacing="0em"><tspan x="611" y="619.7">carbone</tspan></text>
          <text fill="white" xml:space="preserve" style="white-space: pre" font-family="Sole24Sans" font-size="20" font-weight="bold" letter-spacing="0em"><tspan x="611" y="597.7">12% &#10;</tspan></text>
          </g>
          </g>
          </g>


<g id="combustibili-layer">

          <g id="Rectangle 460" filter="url(#filter0_d_40_2)">
          <path d="M4 150H730V635.421C730 637.63 728.209 639.421 726 639.421H7.99998C5.79084 639.421 4 637.63 4 635.421V150Z" fill="#202125"/>
          <path d="M4.75 150.75H729.25V635.421C729.25 637.216 727.795 638.671 726 638.671H7.99998C6.20506 638.671 4.75 637.216 4.75 635.421V150.75Z" stroke="#1767D2" stroke-width="1.5"/>
          </g>
          <g id="71% Combustibili fossili">
          <text fill="white" xml:space="preserve" style="white-space: pre" font-family="Sole24Sans" font-size="18" font-weight="bold" letter-spacing="0em"><tspan x="36" y="608.03">71% </tspan></text>
          <text fill="white" xml:space="preserve" style="white-space: pre" font-family="Sole24Sans" font-size="18" letter-spacing="0em"><tspan x="71.3672" y="608.03">Combustibili fossili</tspan></text>
          </g>
          <g id="icona-combustibili-fossili" opacity="0.5">
          <path id="Vector_8" d="M703.121 605.423C703.51 605.424 703.896 605.471 704.273 605.562V568.755H698.989V604.071C699.297 604.53 699.624 604.979 699.964 605.423L703.121 605.423Z" fill="white"/>
          <path id="Vector_9" d="M650.569 605.424C651.447 604.459 652.265 603.441 653.018 602.377V556.133H647.734V605.563C648.121 605.306 650.569 605.425 650.569 605.425V605.424Z" fill="white"/>
          <path id="Vector_10" d="M699.963 605.423C699.624 604.978 699.297 604.529 698.989 604.07C693.467 595.833 692.905 585.484 692.878 582.105H681.359C681.314 585.48 680.917 588.841 680.175 592.133C681.807 596.789 684.303 601.535 688.112 605.423L699.963 605.423Z" fill="white"/>
          <path id="Vector_11" d="M680.481 578.47H693.688C693.947 578.47 694.157 578.729 694.157 578.939V580.497C694.157 580.756 693.947 580.966 693.688 580.966H680.481C680.221 580.966 680.012 580.706 680.012 580.497V578.939C680.012 578.68 680.222 578.47 680.481 578.47Z" fill="white"/>
          <path id="Vector_12" d="M685.126 605.423C675.571 594.322 674.888 578.497 674.898 574.049H661.153C661.147 578.02 660.546 591.794 653.018 602.376C652.264 603.44 651.447 604.458 650.569 605.424L685.126 605.423Z" fill="white"/>
          <path id="Vector_13" d="M690.22 554.053C682.511 554.053 682.755 562.039 685.288 563.812C683.334 564.721 683.617 567.801 685.144 568.574C684.465 568.929 683.958 569.544 683.737 570.278C683.517 571.011 683.601 571.803 683.971 572.475C684.341 573.146 684.965 573.64 685.703 573.846C684.965 574.829 685.866 576.389 687.142 576.389V576.39C687.875 576.43 688.546 575.981 688.789 575.288C689.031 574.595 688.787 573.825 688.189 573.399C688.924 572.862 689.358 572.007 689.36 571.096C693.427 571.886 695.622 567.58 693.965 565.029C698.986 561.246 696.168 554.052 690.22 554.052L690.22 554.053Z" fill="white"/>
          <path id="Vector_14" d="M653.784 527.589C646.075 527.589 646.319 535.576 648.852 537.349C646.899 538.258 647.181 541.338 648.708 542.111C648.029 542.467 647.523 543.081 647.302 543.815C647.081 544.549 647.165 545.341 647.535 546.012C647.905 546.683 648.529 547.178 649.267 547.383C648.53 548.366 649.43 549.927 650.706 549.927C651.439 549.967 652.111 549.518 652.353 548.825C652.596 548.132 652.352 547.363 651.754 546.937C652.488 546.399 652.923 545.544 652.924 544.634C656.991 545.424 659.186 541.118 657.529 538.566C662.551 534.783 659.732 527.589 653.784 527.589L653.784 527.589Z" fill="white"/>
          <path id="Vector_15" d="M704.4 567.634C704.757 567.645 705.103 567.511 705.359 567.262C705.615 567.014 705.76 566.672 705.76 566.315C705.76 565.958 705.615 565.616 705.359 565.368C705.103 565.119 704.757 564.985 704.4 564.996H698.856C698.499 564.985 698.154 565.119 697.898 565.368C697.641 565.616 697.497 565.958 697.497 566.315C697.497 566.672 697.641 567.014 697.898 567.262C698.154 567.511 698.499 567.645 698.856 567.634H704.4Z" fill="white"/>
          <path id="Vector_16" d="M659.603 569.806H676.097H676.096C676.42 569.806 676.682 570.069 676.682 570.392V572.338C676.682 572.661 676.42 572.924 676.096 572.924H659.603C659.279 572.924 659.017 572.661 659.017 572.338V570.392C659.017 570.069 659.279 569.806 659.603 569.806H659.603Z" fill="white"/>
          <path id="Vector_17" d="M653.141 555.014C653.497 555.025 653.843 554.891 654.098 554.642C654.355 554.394 654.499 554.052 654.499 553.696C654.499 553.339 654.355 552.998 654.098 552.749C653.843 552.5 653.497 552.366 653.141 552.377H647.597C647.24 552.366 646.895 552.5 646.639 552.749C646.383 552.998 646.238 553.339 646.238 553.696C646.238 554.052 646.383 554.394 646.639 554.642C646.895 554.891 647.24 555.025 647.597 555.014H653.141Z" fill="white"/>
          <path id="Vector_18" d="M702.998 614.316C708.414 614.316 708.253 606.551 702.998 606.551H649.002C643.586 606.551 643.747 614.316 649.002 614.316H702.998Z" fill="white"/>
          </g>
          </g>


<g id="basse-emissioni-diviso">

          <g class="rettangolo" id="altro">
          <path id="Rectangle 492" d="M4 5C4 2.79086 5.79086 1 8 1H75V153H8C5.79086 153 4 151.209 4 149V5Z" fill="#1767D2" stroke="white" stroke-width="1.5"/>
          <g id="icona-altre">
          <path id="Vector_19" d="M40.0538 124.424C38.744 124.424 37.6723 124.125 36.8091 123.497C36.6007 123.347 36.571 123.078 36.7199 122.868C36.8687 122.658 37.1366 122.628 37.3451 122.778C38.0596 123.287 38.9228 123.526 40.0541 123.526C41.1554 123.526 42.0485 123.287 42.7331 122.778C42.9416 122.628 43.2094 122.688 43.3583 122.868C43.5072 123.078 43.4476 123.347 43.2691 123.497C42.4353 124.125 41.3637 124.424 40.0539 124.424H40.0538Z" fill="white" fill-opacity="0.5"/>
          <path id="Vector_20" d="M43.3906 124.484C43.2417 124.275 42.9739 124.245 42.7654 124.394C41.9616 124.963 40.9495 125.053 40.0863 125.053C38.836 125.053 38.0322 124.843 37.3773 124.365C37.1689 124.215 36.901 124.275 36.7521 124.454C36.6032 124.664 36.6628 124.933 36.8414 125.083C37.3177 125.412 37.7941 125.622 38.3001 125.741C38.3894 126.639 39.1633 127.357 40.0863 127.357C41.0091 127.357 41.7832 126.639 41.8725 125.741C42.3785 125.622 42.8549 125.412 43.3013 125.083C43.4799 124.963 43.5395 124.664 43.3906 124.484H43.3906ZM40.0566 126.46C39.6695 126.46 39.372 126.22 39.2231 125.891C39.491 125.921 39.7887 125.921 40.0566 125.921C40.3245 125.921 40.5923 125.921 40.8901 125.891C40.7711 126.22 40.4437 126.46 40.0566 126.46Z" fill="white" fill-opacity="0.5"/>
          <path id="Vector_21" d="M40.3828 119.128C41.1567 118.23 42.3176 116.764 42.9726 115.477C44.0443 113.322 43.8061 110.987 43.6275 110.059C42.8237 110.269 40.9485 110.957 39.7279 113.352C38.8944 114.998 39.1326 116.853 39.5493 118.2C39.7279 116.345 40.2935 114.1 41.7522 112.184C41.9011 111.975 42.169 111.945 42.3775 112.095C42.586 112.244 42.6157 112.514 42.4668 112.723C40.9186 114.788 40.4721 117.272 40.3828 119.128L40.3828 119.128Z" fill="white" fill-opacity="0.5"/>
          <path id="Vector_22" d="M40.0551 105C35.947 105 33 108.053 33 112.273C33 114.727 34.1014 116.313 35.0541 117.69C35.7983 118.767 36.4235 119.695 36.4235 120.803C36.4235 122.179 38.5072 122.808 39.7874 122.898L39.6385 122.089C39.6385 122 39.5195 121.371 39.4896 120.383C39.43 120.264 39.311 120.054 39.1919 119.755C37.882 118.468 35.0541 115.295 35.5005 112.033C35.5302 111.853 35.6494 111.704 35.828 111.644C37.495 111.255 38.6263 111.883 39.2216 112.362C41.0375 109.43 43.8058 109.1 43.925 109.1C44.1335 109.07 44.3417 109.22 44.4013 109.43C44.431 109.579 45.2944 112.842 43.7761 115.894C42.8234 117.81 40.8886 119.965 40.4122 120.503C40.4419 121.401 40.5312 121.97 40.5611 121.97L40.71 122.838V122.868C41.9899 122.688 43.7165 122.059 43.7165 120.802C43.7165 119.665 44.3714 118.737 45.086 117.69C46.0387 116.313 47.14 114.727 47.14 112.273C47.1101 108.083 44.1631 105 40.0551 105Z" fill="white" fill-opacity="0.5"/>
          <path id="Vector_23" d="M37.733 113.351C37.7926 113.381 38.0605 113.62 38.4176 114.249C38.5069 113.89 38.6261 113.56 38.7748 113.201C38.4473 112.872 37.6138 112.303 36.3337 112.483C36.2147 114.398 37.3757 116.314 38.477 117.69C38.358 117.211 38.2984 116.703 38.2685 116.164L38.2388 116.134C37.7328 114.518 37.1968 114.099 37.1968 114.099C37.0182 113.949 36.9587 113.68 37.1075 113.47C37.2865 113.261 37.5544 113.231 37.733 113.351L37.733 113.351Z" fill="white" fill-opacity="0.5"/>
          </g>
          <g id="2,7%">
          <text fill="white" xml:space="preserve" style="white-space: pre" font-family="Sole24Sans" font-size="18" font-weight="bold" letter-spacing="0em"><tspan x="23.3066" y="87.03">2,7%&#10;</tspan></text>
          <text fill="white" xml:space="preserve" style="white-space: pre" font-family="Sole24Serif Text" font-size="18" letter-spacing="0em"><tspan x="19" y="87.03"> </tspan></text>
          </g>
          </g>

          <g class="rettangolo" id="solare">
          <rect id="Rectangle 491" x="74" y="1" width="43" height="152" fill="#1767D2" stroke="white" stroke-width="1.5"/>
          <g id="icona-solare">
          <path id="Vector_24" d="M91.4587 111.634C91.5672 111.821 91.7627 111.924 91.9631 111.924C92.0622 111.924 92.1619 111.902 92.2537 111.846C92.5321 111.686 92.6272 111.327 92.4658 111.049L91.0826 108.638C90.9207 108.357 90.5659 108.261 90.2875 108.424C90.0089 108.583 89.9134 108.943 90.0747 109.222L91.4587 111.634Z" fill="white" fill-opacity="0.5"/>
          <path id="Vector_25" d="M88.9337 117.63C88.9337 117.307 88.6727 117.044 88.3515 117.044L85.5822 117.044C85.2609 117.044 85 117.307 85 117.63C85 117.954 85.2609 118.217 85.5822 118.217H88.3515C88.6727 118.217 88.9337 117.953 88.9337 117.63V117.63Z" fill="white" fill-opacity="0.5"/>
          <path id="Vector_26" d="M89.6091 113.494L87.2119 112.1C86.9322 111.939 86.5762 112.035 86.417 112.316C86.2562 112.597 86.3507 112.955 86.6297 113.114L89.0278 114.507C89.12 114.559 89.2197 114.583 89.3188 114.583C89.5182 114.583 89.7151 114.482 89.8221 114.291C89.984 114.014 89.8888 113.656 89.6091 113.494L89.6091 113.494Z" fill="white" fill-opacity="0.5"/>
          <path id="Vector_27" d="M89.0279 120.758L86.6296 122.151C86.3508 122.313 86.2562 122.67 86.4169 122.95C86.524 123.14 86.7201 123.242 86.9202 123.242C87.0205 123.242 87.119 123.219 87.212 123.164L89.6094 121.772C89.8891 121.611 89.984 121.254 89.822 120.97C89.6626 120.693 89.3061 120.594 89.0279 120.758L89.0279 120.758Z" fill="white" fill-opacity="0.5"/>
          <path id="Vector_28" d="M101.834 114.585C101.932 114.585 102.032 114.56 102.125 114.507L104.523 113.116C104.8 112.955 104.895 112.597 104.736 112.316C104.575 112.037 104.219 111.939 103.941 112.101L101.543 113.494C101.263 113.656 101.169 114.014 101.329 114.296C101.437 114.482 101.633 114.585 101.834 114.585L101.834 114.585Z" fill="white" fill-opacity="0.5"/>
          <path id="Vector_29" d="M95.5768 110.954C95.8982 110.954 96.1592 110.691 96.1592 110.37V107.584C96.1592 107.262 95.8982 107 95.5768 107C95.2551 107 94.9945 107.262 94.9945 107.584V110.37C94.9946 110.692 95.2551 110.954 95.5768 110.954V110.954Z" fill="white" fill-opacity="0.5"/>
          <path id="Vector_30" d="M98.8974 111.848C98.9886 111.902 99.0894 111.924 99.1867 111.924C99.3889 111.924 99.584 111.822 99.691 111.634L101.076 109.222C101.237 108.942 101.142 108.585 100.864 108.424C100.584 108.261 100.229 108.357 100.069 108.638L98.6834 111.048C98.5234 111.329 98.6176 111.686 98.8974 111.848L98.8974 111.848Z" fill="white" fill-opacity="0.5"/>
          <path id="Vector_31" d="M105.57 117.046H102.8C102.478 117.046 102.218 117.307 102.218 117.631C102.218 117.954 102.478 118.218 102.799 118.218H105.57C105.891 118.218 106.152 117.954 106.152 117.634C106.152 117.307 105.891 117.046 105.57 117.046H105.57Z" fill="white" fill-opacity="0.5"/>
          <path id="Vector_32" d="M95.5733 123.251C98.6584 123.251 101.16 120.735 101.16 117.634C101.16 114.531 98.6585 112.015 95.5733 112.015C92.4864 112.015 89.9866 114.531 89.9866 117.634C89.9867 120.735 92.4868 123.251 95.5733 123.251V123.251Z" fill="white" fill-opacity="0.5"/>
          <path id="Vector_33" d="M104.523 122.151L102.125 120.758C101.846 120.595 101.49 120.693 101.329 120.97C101.169 121.254 101.263 121.611 101.543 121.772L103.941 123.163C104.032 123.219 104.132 123.244 104.231 123.244C104.431 123.244 104.627 123.139 104.736 122.951C104.895 122.67 104.8 122.313 104.523 122.151H104.523Z" fill="white" fill-opacity="0.5"/>
          <path id="Vector_34" d="M92.2527 123.419C91.9744 123.258 91.6183 123.353 91.4589 123.633L90.0749 126.045C89.9137 126.324 90.0082 126.684 90.2859 126.844C90.3776 126.899 90.4794 126.924 90.5771 126.924C90.7799 126.924 90.974 126.818 91.0831 126.629L92.4663 124.217C92.6276 123.938 92.5323 123.582 92.2527 123.419L92.2527 123.419Z" fill="white" fill-opacity="0.5"/>
          <path id="Vector_35" d="M99.691 123.633C99.5314 123.353 99.1758 123.258 98.8974 123.419C98.6176 123.582 98.5234 123.938 98.6834 124.217L100.069 126.63C100.177 126.818 100.372 126.924 100.572 126.924C100.673 126.924 100.773 126.899 100.864 126.844C101.142 126.684 101.237 126.324 101.076 126.045L99.691 123.633Z" fill="white" fill-opacity="0.5"/>
          <path id="Vector_36" d="M95.5768 124.313C95.2551 124.313 94.9945 124.575 94.9945 124.9V127.686C94.9945 128.006 95.2549 128.269 95.5768 128.269C95.8982 128.269 96.1577 128.006 96.1577 127.686V124.9C96.1577 124.575 95.8982 124.313 95.5768 124.313Z" fill="white" fill-opacity="0.5"/>
          </g>
          <g id="2%">
          <text fill="white" xml:space="preserve" style="white-space: pre" font-family="Sole24Sans" font-size="18" font-weight="bold" letter-spacing="0em"><tspan x="84.3066" y="86.03">2%&#10;</tspan></text>
          <text fill="white" xml:space="preserve" style="white-space: pre" font-family="Sole24Serif Text" font-size="18" letter-spacing="0em"><tspan x="80" y="86.03"> </tspan></text>
          </g>
          </g>

          <g id="eolica">
          <rect id="Rectangle 493" x="117" y="1" width="153" height="152" fill="#1767D2" stroke="white" stroke-width="1.5"/>
          <g id="icona-altre_2">
          <path id="Vector_37" d="M248.609 96.1654C248.563 96.0609 248.55 95.9425 248.573 95.827L250.35 87.4985C250.404 87.2492 250.627 87.0685 250.88 87.0685H251.435C251.688 87.0685 251.91 87.2492 251.963 87.4995L253.742 95.8281C253.766 95.9414 253.754 96.062 253.707 96.1665L252.568 98.7062C252.123 98.5506 251.654 98.4494 251.157 98.4494C250.66 98.4494 250.192 98.5528 249.747 98.7062L248.609 96.1654Z" fill="white" fill-opacity="0.5"/>
          <path id="Vector_38" d="M246.714 108.343C246.647 108.437 246.551 108.505 246.441 108.543L238.378 111.159C238.136 111.232 237.869 111.135 237.743 110.913L237.466 110.43C237.34 110.209 237.384 109.926 237.572 109.754L243.859 104.042C243.944 103.966 244.054 103.917 244.166 103.904L246.91 103.627C247.096 104.602 247.615 105.453 248.335 106.08L246.714 108.343Z" fill="white" fill-opacity="0.5"/>
          <path id="Vector_39" d="M252.428 132.768H249.891L250.854 107.129C250.957 107.135 251.055 107.158 251.16 107.158C251.265 107.158 251.363 107.135 251.466 107.129L252.428 132.768Z" fill="white" fill-opacity="0.5"/>
          <path id="Vector_40" d="M264.852 110.43L264.575 110.913C264.448 111.131 264.18 111.231 263.941 111.159L255.877 108.543C255.766 108.507 255.671 108.434 255.604 108.342L253.982 106.079C254.703 105.452 255.223 104.602 255.408 103.626L258.15 103.903C258.266 103.916 258.374 103.965 258.458 104.043L264.745 109.754C264.935 109.926 264.98 110.208 264.852 110.429L264.852 110.43Z" fill="white" fill-opacity="0.5"/>
          <path id="Vector_41" d="M251.158 99.5341C249.366 99.5341 247.908 101.002 247.908 102.804C247.908 104.605 249.366 106.07 251.158 106.07C252.95 106.07 254.408 104.605 254.408 102.804C254.408 101.002 252.948 99.5341 251.158 99.5341ZM251.158 104.243C250.369 104.243 249.727 103.596 249.727 102.805C249.727 102.012 250.369 101.367 251.158 101.367C251.947 101.367 252.586 102.013 252.586 102.805C252.586 103.596 251.947 104.243 251.158 104.243Z" fill="white" fill-opacity="0.5"/>
          <path id="Vector_42" d="M251.508 102.804C251.508 103.272 250.809 103.272 250.809 102.804C250.809 102.336 251.508 102.336 251.508 102.804Z" fill="white" fill-opacity="0.5"/>
          </g>
          <g id="5,9% Energia eolica">
          <text fill="white" xml:space="preserve" style="white-space: pre" font-family="Sole24Sans" font-size="18" font-weight="bold" letter-spacing="0em"><tspan x="153.074" y="87.03">%&#10;</tspan></text>
          <text fill="white" xml:space="preserve" style="white-space: pre" font-family="Sole24Sans" font-size="18" font-weight="bold" letter-spacing="0em"><tspan x="124" y="87.03"> 5,9</tspan></text>
          <text fill="white" xml:space="preserve" style="white-space: pre" font-family="Sole24Sans" font-size="18" letter-spacing="0em"><tspan x="124" y="109.03">Energia </tspan><tspan x="124" y="131.03">eolica&#10;</tspan></text>
          </g>
          </g>

          <g id="idroelettrica">
          <rect id="Rectangle 494" x="270" y="1" width="197" height="152" fill="#1767D2" stroke="white" stroke-width="1.5"/>
          <path id="icona-idroelettrica" d="M456.015 118.464L449.544 104.352C449.352 103.927 448.953 103.663 448.499 103.663C448.056 103.663 447.651 103.933 447.46 104.352L440.994 118.464C440.266 120.06 439.637 121.438 439.637 123.62C439.637 128.718 443.614 132.864 448.499 132.864C453.389 132.864 457.366 128.718 457.366 123.62C457.372 121.433 456.71 119.991 456.015 118.464ZM454.029 119.595L448.674 129.327C448.674 129.327 448.674 129.333 448.669 129.333C448.526 129.58 448.297 129.723 448.05 129.723C447.936 129.723 447.821 129.689 447.722 129.626C447.421 129.448 447.257 129.046 447.323 128.644L448.225 122.937H443.598C443.308 122.937 443.045 122.736 442.925 122.42C442.815 122.133 442.837 121.794 442.979 121.53L448.329 111.804C448.466 111.552 448.701 111.408 448.948 111.408C449.062 111.408 449.172 111.442 449.276 111.5C449.577 111.672 449.741 112.074 449.681 112.476L448.778 118.183H453.406C453.69 118.183 453.958 118.384 454.079 118.7C454.188 118.992 454.166 119.331 454.029 119.595Z" fill="white" fill-opacity="0.5"/>
          <g id="7,6% Energia idroelettrica">
          <text fill="white" xml:space="preserve" style="white-space: pre" font-family="Sole24Sans" font-size="18" font-weight="bold" letter-spacing="0em"><tspan x="305.827" y="87.5043">%&#10;</tspan></text>
          <text fill="white" xml:space="preserve" style="white-space: pre" font-family="Sole24Sans" font-size="18" font-weight="bold" letter-spacing="0em"><tspan x="277.843" y="87.5043"> 7,6</tspan></text>
          <text fill="white" xml:space="preserve" style="white-space: pre" font-family="Sole24Sans" font-size="18" letter-spacing="0em"><tspan x="277.843" y="109.504">Energia&#10;</tspan><tspan x="277.843" y="131.504">idroelettrica&#10;</tspan></text>
          </g>
          </g>

          <g id="nucleare">
          <path id="Rectangle 498" d="M467 1H723C725.209 1 727 2.79086 727 5V149C727 151.209 725.209 153 723 153H467V1Z" fill="#1767D2" stroke="white" stroke-width="1.5"/>
          <g id="icona-nucleare">
          <path id="Vector_43" d="M698.265 100.917L697.107 101.358L700.222 109.446L701.378 109C702.931 108.404 704.472 108.402 706.029 109.002L707.185 109.446L710.299 101.358L709.142 100.917C705.615 99.5649 701.79 99.5649 698.265 100.917L698.265 100.917Z" fill="white" fill-opacity="0.5"/>
          <path id="Vector_44" d="M697.311 116.05L697.119 114.829L688.551 116.178L688.742 117.397C689.325 121.108 691.253 124.452 694.174 126.813L695.135 127.59L700.601 120.84L699.642 120.062C698.385 119.046 697.559 117.622 697.311 116.05L697.311 116.05Z" fill="white" fill-opacity="0.5"/>
          <path id="Vector_45" d="M703.702 110.715C701.314 110.715 699.371 112.656 699.371 115.041C699.371 117.427 701.314 119.367 703.702 119.367C706.091 119.367 708.034 117.427 708.034 115.041C708.034 112.655 706.091 110.715 703.702 110.715Z" fill="white" fill-opacity="0.5"/>
          <path id="Vector_46" d="M710.095 116.048C709.849 117.621 709.021 119.046 707.767 120.06L706.807 120.838L712.272 127.59L713.235 126.813C716.153 124.452 718.083 121.108 718.665 117.397L718.856 116.176L710.287 114.826L710.095 116.048Z" fill="white" fill-opacity="0.5"/>
          </g>
          <g id="9,7% Energia nucleare">
          <text fill="white" xml:space="preserve" style="white-space: pre" font-family="Sole24Sans" font-size="18" font-weight="bold" letter-spacing="0em"><tspan x="505.064" y="87.0538">%&#10;</tspan></text>
          <text fill="white" xml:space="preserve" style="white-space: pre" font-family="Sole24Sans" font-size="18" font-weight="bold" letter-spacing="0em"><tspan x="476.974" y="87.0538"> 9,7</tspan></text>
          <text fill="white" xml:space="preserve" style="white-space: pre" font-family="Sole24Sans" font-size="18" letter-spacing="0em"><tspan x="476.974" y="109.054">Energia </tspan><tspan x="476.974" y="131.054">nucleare&#10;</tspan></text>
          </g>
          </g>
          </g>

<g id="basse-emissioni-layer">
          <path id="Rectangle 458" d="M4.75001 152.898L4.75 5.00003C4.75 3.20511 6.20508 1.75003 8 1.75003L726 1.75C727.795 1.75 729.25 3.20506 729.25 5L729.25 152.898L4.75001 152.898Z" fill="#1767D2" stroke="white" stroke-width="1.5"/>
          <g id="icona-basse-emissioni" opacity="0.5">
          <path id="Vector_47" d="M684.652 99.5713C684.081 99.0003 684.081 98.0732 684.653 97.5027C685.224 96.9318 686.152 96.9318 686.724 97.5027L691.983 102.766V100.697V100.682L691.982 94.7591L684.657 87.4286C684.086 86.856 684.088 85.9304 684.658 85.3583C685.231 84.7873 686.157 84.7873 686.729 85.36L691.982 90.617V88.5533V88.5445L691.979 78.4473C691.977 77.639 692.633 76.9849 693.441 76.9849C694.25 76.9849 694.905 77.639 694.905 78.4473L694.907 85.0119L700.167 79.7467C700.739 79.1741 701.667 79.1724 702.237 79.7451C702.81 80.316 702.81 81.2432 702.239 81.8153L694.908 89.154L694.91 94.1231V94.1974V97.1535L700.173 91.8905C700.744 91.3178 701.671 91.3195 702.241 91.8888C702.814 92.4614 702.814 93.387 702.243 93.9591L694.909 101.295L694.913 106.294V106.312L694.914 115.118C704.502 110.903 710.88 101.075 710.875 90.309C710.875 79.1988 704.08 69.0679 693.968 65.1016C693.625 64.9645 693.243 64.9678 692.898 65.1016C682.793 69.0741 676.004 79.2064 676.008 90.3147C676.008 101.083 682.395 110.909 691.988 115.119L691.986 106.908L684.652 99.5713Z" fill="white"/>
          <path id="Vector_48" d="M655.464 119.104C654.656 119.104 654 119.76 654 120.568C654 121.375 654.656 122.031 655.464 122.031H658.948C659.198 124.299 661.102 126.074 663.435 126.074H668.13C670.632 126.074 672.666 124.039 672.666 121.536V118.968C675.27 119.088 675.98 119.747 677.666 123.353C679.523 127.325 681.797 129.782 684.424 130.654C685.119 130.887 685.823 131 686.539 131C687.772 131 689.034 130.657 690.309 129.973C693.531 128.245 695.079 123.457 694.914 115.737V115.119C694.604 115.254 694.299 115.402 693.982 115.527C693.811 115.595 693.63 115.627 693.448 115.627C693.267 115.627 693.086 115.595 692.913 115.527C692.598 115.403 692.297 115.256 691.987 115.12V115.769C691.987 115.772 691.99 115.774 691.99 115.779C691.99 115.786 691.987 115.793 691.987 115.801C692.172 124.359 690.149 126.736 688.925 127.393C687.632 128.086 686.459 128.243 685.348 127.875C683.064 127.117 681.353 124.322 680.319 122.111C678.192 117.559 676.684 116.262 672.669 116.05V113.11C672.669 110.609 670.634 108.574 668.133 108.574L663.435 108.575C661.109 108.575 659.208 110.34 658.949 112.598H655.464C654.656 112.598 654 113.254 654 114.063C654 114.869 654.656 115.525 655.464 115.525H658.898V119.105H655.464L655.464 119.104Z" fill="white"/>
          </g>
          <g id="28,7% Fonti a bassa emissione di carbonio">
          <text fill="white" xml:space="preserve" style="white-space: pre" font-family="Sole24Sans" font-size="18" font-weight="bold" letter-spacing="0em"><tspan x="36" y="120.03">28,7% </tspan></text>
          <text fill="white" xml:space="preserve" style="white-space: pre" font-family="Sole24Sans" font-size="18" letter-spacing="0em"><tspan x="87.8379" y="120.03">Fonti a bassa emissione di carbonio</tspan></text>
          </g>
          </g>


  <g class="tooltip" id="tooltip-altro" filter="url(#filter1_d_40_2)">
  <rect id="Rectangle 499" x="17" y="139" width="115" height="62" rx="4" fill="#1767D2"/>
  <rect id="Rectangle 500" x="40.6776" y="130" width="16.4625" height="16.4625" rx="4" transform="rotate(45 40.6776 130)" fill="#1767D2"/>
  <text id="Altre energie rinnovabili" fill="white" xml:space="preserve" style="white-space: pre" font-family="Sole24Sans" font-size="18" letter-spacing="0em"><tspan x="25" y="170.03">Altre energie&#10;</tspan><tspan x="25" y="192.03">rinnovabili</tspan></text>
  </g>

  <g class="tooltip" id="tooltip-solare" filter="url(#filter2_d_40_2)">
  <g id="tooltip-altro_2" filter="url(#filter3_d_40_2)">
  <rect id="Rectangle 499_2" x="72" y="139" width="84" height="62" rx="4" fill="#1767D2"/>
  <rect id="Rectangle 500_2" x="95.6776" y="130" width="16.4625" height="16.4625" rx="4" transform="rotate(45 95.6776 130)" fill="#1767D2"/>
  </g>
  <text id="Energia solare" fill="white" xml:space="preserve" style="white-space: pre" font-family="Sole24Sans" font-size="18" letter-spacing="0em"><tspan x="79" y="165.03">Energia </tspan><tspan x="79" y="187.03">solare</tspan></text>
  </g>
  </g>

<defs>
<filter id="filter0_d_40_2" x="0" y="150" width="734" height="497.421" filterUnits="userSpaceOnUse" color-interpolation-filters="sRGB">
<feFlood flood-opacity="0" result="BackgroundImageFix"/>
<feColorMatrix in="SourceAlpha" type="matrix" values="0 0 0 0 0 0 0 0 0 0 0 0 0 0 0 0 0 0 127 0" result="hardAlpha"/>
<feOffset dy="4"/>
<feGaussianBlur stdDeviation="2"/>
<feComposite in2="hardAlpha" operator="out"/>
<feColorMatrix type="matrix" values="0 0 0 0 0 0 0 0 0 0 0 0 0 0 0 0 0 0 0.25 0"/>
<feBlend mode="normal" in2="BackgroundImageFix" result="effect1_dropShadow_40_2"/>
<feBlend mode="normal" in="SourceGraphic" in2="effect1_dropShadow_40_2" result="shape"/>
</filter>
<filter id="filter1_d_40_2" x="7" y="126.657" width="135" height="89.3431" filterUnits="userSpaceOnUse" color-interpolation-filters="sRGB">
<feFlood flood-opacity="0" result="BackgroundImageFix"/>
<feColorMatrix in="SourceAlpha" type="matrix" values="0 0 0 0 0 0 0 0 0 0 0 0 0 0 0 0 0 0 127 0" result="hardAlpha"/>
<feOffset dy="5"/>
<feGaussianBlur stdDeviation="5"/>
<feComposite in2="hardAlpha" operator="out"/>
<feColorMatrix type="matrix" values="0 0 0 0 0 0 0 0 0 0 0 0 0 0 0 0 0 0 1 0"/>
<feBlend mode="normal" in2="BackgroundImageFix" result="effect1_dropShadow_40_2"/>
<feBlend mode="normal" in="SourceGraphic" in2="effect1_dropShadow_40_2" result="shape"/>
</filter>
<filter id="filter2_d_40_2" x="68" y="131.657" width="92" height="77.3431" filterUnits="userSpaceOnUse" color-interpolation-filters="sRGB">
<feFlood flood-opacity="0" result="BackgroundImageFix"/>
<feColorMatrix in="SourceAlpha" type="matrix" values="0 0 0 0 0 0 0 0 0 0 0 0 0 0 0 0 0 0 127 0" result="hardAlpha"/>
<feOffset dy="4"/>
<feGaussianBlur stdDeviation="2"/>
<feComposite in2="hardAlpha" operator="out"/>
<feColorMatrix type="matrix" values="0 0 0 0 0 0 0 0 0 0 0 0 0 0 0 0 0 0 0.5 0"/>
<feBlend mode="normal" in2="BackgroundImageFix" result="effect1_dropShadow_40_2"/>
<feBlend mode="normal" in="SourceGraphic" in2="effect1_dropShadow_40_2" result="shape"/>
</filter>
<filter id="filter3_d_40_2" x="62" y="126.657" width="104" height="89.3431" filterUnits="userSpaceOnUse" color-interpolation-filters="sRGB">
<feFlood flood-opacity="0" result="BackgroundImageFix"/>
<feColorMatrix in="SourceAlpha" type="matrix" values="0 0 0 0 0 0 0 0 0 0 0 0 0 0 0 0 0 0 127 0" result="hardAlpha"/>
<feOffset dy="5"/>
<feGaussianBlur stdDeviation="5"/>
<feComposite in2="hardAlpha" operator="out"/>
<feColorMatrix type="matrix" values="0 0 0 0 0 0 0 0 0 0 0 0 0 0 0 0 0 0 1 0"/>
<feBlend mode="normal" in2="BackgroundImageFix" result="effect1_dropShadow_40_2"/>
<feBlend mode="normal" in="SourceGraphic" in2="effect1_dropShadow_40_2" result="shape"/>
</filter>
</defs>
</svg>
