<svg width="604" height="193" viewBox="0 0 604 193" fill="none" xmlns="http://www.w3.org/2000/svg">
<g filter="url(#filter0_d_1084_1096)">
<path d="M63 63C63 60.7909 64.7909 59 67 59H537C539.209 59 541 60.7909 541 63V122C541 124.209 539.209 126 537 126H67C64.7909 126 63 124.209 63 122V63Z" fill="#1767D2" fill-opacity="0.7" shape-rendering="crispEdges"/>
</g>
<path d="M99.144 92.85C99.144 90.96 97.488 89.61 95.31 89.61C94.176 89.61 93.06 89.97 92.376 90.456L92.538 87.81H98.712V86.406H91.278L91.044 91.788L92.106 92.058C92.7 91.374 93.87 90.888 94.932 90.888C96.444 90.888 97.524 91.734 97.524 92.904C97.524 94.074 96.372 94.956 94.824 94.956C93.564 94.956 92.484 94.38 91.908 93.444L90.72 94.092C91.494 95.406 93.078 96.234 94.878 96.234C97.29 96.234 99.144 94.794 99.144 92.85ZM108.988 92.85C108.988 90.96 107.332 89.61 105.154 89.61C104.02 89.61 102.904 89.97 102.22 90.456L102.382 87.81H108.556V86.406H101.122L100.888 91.788L101.95 92.058C102.544 91.374 103.714 90.888 104.776 90.888C106.288 90.888 107.368 91.734 107.368 92.904C107.368 94.074 106.216 94.956 104.668 94.956C103.408 94.956 102.328 94.38 101.752 93.444L100.564 94.092C101.338 95.406 102.922 96.234 104.722 96.234C107.134 96.234 108.988 94.794 108.988 92.85ZM122.62 96.144L122.692 94.974C122.584 94.992 122.404 95.01 122.296 95.01C121.756 95.01 121.486 94.632 121.486 94.146V90.042C121.486 87.972 120.226 86.838 118.282 86.838C116.734 86.838 115.384 87.702 114.736 89.106L115.924 89.592C116.374 88.746 117.076 88.116 118.138 88.116C119.236 88.116 119.956 88.872 119.956 89.988V90.69L117.868 90.942C115.888 91.194 114.484 92.148 114.484 93.804C114.484 95.226 115.618 96.234 117.202 96.234C118.462 96.234 119.452 95.622 120.028 94.668C120.244 95.694 120.91 96.234 121.918 96.234C122.188 96.234 122.404 96.198 122.62 96.144ZM117.616 94.992C116.716 94.992 116.086 94.452 116.086 93.696C116.086 92.778 116.95 92.238 118.138 92.094L119.956 91.878V93.516C119.488 94.38 118.606 94.992 117.616 94.992ZM131.833 96V90.096C131.833 88.188 130.501 86.838 128.755 86.838C127.477 86.838 126.397 87.594 125.803 88.44V87.072H124.327V96H125.857V89.52C126.415 88.728 127.387 88.134 128.395 88.134C129.511 88.134 130.303 88.962 130.303 90.204V96H131.833ZM142.011 96V90.096C142.011 88.188 140.679 86.838 138.933 86.838C137.655 86.838 136.575 87.594 135.981 88.44V87.072H134.505V96H136.035V89.52C136.593 88.728 137.565 88.134 138.573 88.134C139.689 88.134 140.481 88.962 140.481 90.204V96H142.011ZM146.213 87.072H144.683V96H146.213V87.072ZM146.213 83.526H144.683V85.308H146.213V83.526ZM156.99 94.956C156.144 94.956 155.208 94.506 154.668 93.858V89.52C155.136 88.8 156.018 88.098 157.062 88.098C158.556 88.098 159.672 89.448 159.672 91.5C159.672 93.534 158.556 94.956 156.99 94.956ZM161.292 91.5C161.292 88.764 159.564 86.838 157.458 86.838C156.09 86.838 155.082 87.666 154.614 88.404V87.072H153.138V99.276H154.668V95.064C155.244 95.766 156.234 96.234 157.296 96.234C159.546 96.234 161.292 94.236 161.292 91.5ZM170.568 93.966L169.344 93.498C168.876 94.416 168.012 94.974 167.04 94.974C165.546 94.974 164.466 93.732 164.358 91.86H170.55C170.604 91.626 170.64 91.14 170.64 90.744C170.64 88.458 169.074 86.838 166.896 86.838C164.52 86.838 162.756 88.854 162.756 91.608C162.756 94.308 164.52 96.234 166.95 96.234C168.552 96.234 169.938 95.388 170.568 93.966ZM166.914 88.08C168.174 88.08 169.056 89.088 169.11 90.636H164.448C164.718 89.088 165.672 88.08 166.914 88.08ZM174.32 96V90.672C174.464 89.484 175.184 88.368 176.57 88.368C176.876 88.368 177.308 88.422 177.56 88.494V86.982C177.38 86.91 176.948 86.838 176.642 86.838C175.598 86.838 174.626 87.756 174.266 88.89V87.072H172.79V96H174.32ZM189.968 93.804L188.672 93.3C188.24 94.29 187.52 94.92 186.53 94.92C185.072 94.92 184.01 93.534 184.01 91.608C184.01 89.592 185.036 88.134 186.458 88.134C187.358 88.134 188.132 88.692 188.564 89.736L189.896 89.196C189.266 87.756 188.06 86.838 186.422 86.838C184.082 86.838 182.39 88.836 182.39 91.608C182.39 94.29 184.1 96.234 186.476 96.234C188.114 96.234 189.392 95.208 189.968 93.804ZM199.225 96.144L199.297 94.974C199.189 94.992 199.009 95.01 198.901 95.01C198.361 95.01 198.091 94.632 198.091 94.146V90.042C198.091 87.972 196.831 86.838 194.887 86.838C193.339 86.838 191.989 87.702 191.341 89.106L192.529 89.592C192.979 88.746 193.681 88.116 194.743 88.116C195.841 88.116 196.561 88.872 196.561 89.988V90.69L194.473 90.942C192.493 91.194 191.089 92.148 191.089 93.804C191.089 95.226 192.223 96.234 193.807 96.234C195.067 96.234 196.057 95.622 196.633 94.668C196.849 95.694 197.515 96.234 198.523 96.234C198.793 96.234 199.009 96.198 199.225 96.144ZM194.221 94.992C193.321 94.992 192.691 94.452 192.691 93.696C192.691 92.778 193.555 92.238 194.743 92.094L196.561 91.878V93.516C196.093 94.38 195.211 94.992 194.221 94.992ZM213.461 96V90.096C213.461 88.188 212.165 86.838 210.491 86.838C209.303 86.838 208.259 87.558 207.629 88.512C207.143 87.486 206.207 86.838 205.109 86.838C203.921 86.838 202.931 87.594 202.409 88.44V87.072H200.933V96H202.463V89.484C202.967 88.728 203.831 88.134 204.713 88.134C205.703 88.134 206.423 88.962 206.423 90.204V96H207.953V90.096C207.953 89.826 207.935 89.574 207.881 89.322C208.421 88.638 209.285 88.134 210.149 88.134C211.175 88.134 211.931 88.962 211.931 90.204V96H213.461ZM224.257 91.5C224.257 88.8 222.655 86.838 220.459 86.838C219.433 86.838 218.299 87.414 217.633 88.26V83.328H216.103V96H217.543V94.92C218.227 95.694 219.343 96.234 220.315 96.234C222.601 96.234 224.257 94.254 224.257 91.5ZM219.955 94.956C219.019 94.956 218.119 94.47 217.633 93.804V89.358C218.119 88.62 219.073 88.134 220.045 88.134C221.539 88.134 222.637 89.538 222.637 91.482C222.637 93.48 221.503 94.956 219.955 94.956ZM227.916 87.072H226.386V96H227.916V87.072ZM227.916 83.526H226.386V85.308H227.916V83.526ZM238.091 96.144L238.163 94.974C238.055 94.992 237.875 95.01 237.767 95.01C237.227 95.01 236.957 94.632 236.957 94.146V90.042C236.957 87.972 235.697 86.838 233.753 86.838C232.205 86.838 230.855 87.702 230.207 89.106L231.395 89.592C231.845 88.746 232.547 88.116 233.609 88.116C234.707 88.116 235.427 88.872 235.427 89.988V90.69L233.339 90.942C231.359 91.194 229.955 92.148 229.955 93.804C229.955 95.226 231.089 96.234 232.673 96.234C233.933 96.234 234.923 95.622 235.499 94.668C235.715 95.694 236.381 96.234 237.389 96.234C237.659 96.234 237.875 96.198 238.091 96.144ZM233.087 94.992C232.187 94.992 231.557 94.452 231.557 93.696C231.557 92.778 232.421 92.238 233.609 92.094L235.427 91.878V93.516C234.959 94.38 234.077 94.992 233.087 94.992ZM241.328 96V90.672C241.472 89.484 242.192 88.368 243.578 88.368C243.884 88.368 244.316 88.422 244.568 88.494V86.982C244.388 86.91 243.956 86.838 243.65 86.838C242.606 86.838 241.634 87.756 241.274 88.89V87.072H239.798V96H241.328ZM253.238 93.966L252.014 93.498C251.546 94.416 250.682 94.974 249.71 94.974C248.216 94.974 247.136 93.732 247.028 91.86H253.22C253.274 91.626 253.31 91.14 253.31 90.744C253.31 88.458 251.744 86.838 249.566 86.838C247.19 86.838 245.426 88.854 245.426 91.608C245.426 94.308 247.19 96.234 249.62 96.234C251.222 96.234 252.608 95.388 253.238 93.966ZM249.584 88.08C250.844 88.08 251.726 89.088 251.78 90.636H247.118C247.388 89.088 248.342 88.08 249.584 88.08ZM263.461 94.956C262.615 94.956 261.679 94.506 261.139 93.858V89.52C261.607 88.8 262.489 88.098 263.533 88.098C265.027 88.098 266.143 89.448 266.143 91.5C266.143 93.534 265.027 94.956 263.461 94.956ZM267.763 91.5C267.763 88.764 266.035 86.838 263.929 86.838C262.561 86.838 261.553 87.666 261.085 88.404V87.072H259.609V99.276H261.139V95.064C261.715 95.766 262.705 96.234 263.767 96.234C266.017 96.234 267.763 94.236 267.763 91.5ZM277.866 91.554C277.866 88.818 276.048 86.838 273.546 86.838C271.044 86.838 269.208 88.818 269.208 91.554C269.208 94.254 271.044 96.234 273.546 96.234C276.048 96.234 277.866 94.254 277.866 91.554ZM270.828 91.554C270.828 89.574 271.962 88.116 273.546 88.116C275.112 88.116 276.246 89.574 276.246 91.554C276.246 93.498 275.112 94.938 273.546 94.938C271.962 94.938 270.828 93.498 270.828 91.554ZM286.894 93.804L285.598 93.3C285.166 94.29 284.446 94.92 283.456 94.92C281.998 94.92 280.936 93.534 280.936 91.608C280.936 89.592 281.962 88.134 283.384 88.134C284.284 88.134 285.058 88.692 285.49 89.736L286.822 89.196C286.192 87.756 284.986 86.838 283.348 86.838C281.008 86.838 279.316 88.836 279.316 91.608C279.316 94.29 281.026 96.234 283.402 96.234C285.04 96.234 286.318 95.208 286.894 93.804ZM296.745 91.554C296.745 88.818 294.927 86.838 292.425 86.838C289.923 86.838 288.087 88.818 288.087 91.554C288.087 94.254 289.923 96.234 292.425 96.234C294.927 96.234 296.745 94.254 296.745 91.554ZM289.707 91.554C289.707 89.574 290.841 88.116 292.425 88.116C293.991 88.116 295.125 89.574 295.125 91.554C295.125 93.498 293.991 94.938 292.425 94.938C290.841 94.938 289.707 93.498 289.707 91.554ZM299.077 92.598H300.499L300.607 84.354H298.951L299.077 92.598ZM300.697 96V93.606H298.897V96H300.697Z" fill="white"/>
<path opacity="0.15" d="M455 59L455 126" stroke="white"/>
<path opacity="0.6" d="M482.152 96V90.072L484.468 93.072H484.996L487.24 90V96H488.308V88.236H487.288L484.756 91.764L482.104 88.236H481.12V96H482.152ZM495.562 93.036C495.562 91.212 494.35 89.892 492.682 89.892C491.014 89.892 489.79 91.212 489.79 93.036C489.79 94.836 491.014 96.156 492.682 96.156C494.35 96.156 495.562 94.836 495.562 93.036ZM490.87 93.036C490.87 91.716 491.626 90.744 492.682 90.744C493.726 90.744 494.482 91.716 494.482 93.036C494.482 94.332 493.726 95.292 492.682 95.292C491.626 95.292 490.87 94.332 490.87 93.036ZM501.509 94.368C501.509 93.264 500.573 92.808 499.229 92.52C498.221 92.292 497.645 92.112 497.645 91.584C497.645 91.08 498.209 90.732 499.001 90.732C499.829 90.732 500.381 91.08 500.657 91.656L501.473 91.332C501.125 90.6 500.393 89.892 499.013 89.892C497.609 89.892 496.649 90.636 496.649 91.644C496.649 92.676 497.621 93.156 498.941 93.432C499.961 93.648 500.525 93.852 500.525 94.416C500.525 94.956 500.021 95.328 499.145 95.328C498.149 95.328 497.513 94.884 497.213 94.296L496.373 94.62C496.781 95.556 497.741 96.156 499.097 96.156C500.609 96.156 501.509 95.424 501.509 94.368ZM506.239 95.964V95.112C505.987 95.208 505.567 95.28 505.195 95.28C504.439 95.28 504.139 94.908 504.139 94.344V90.888H506.203V90.048H504.139V88.596H503.119V90.048H502.243V90.888H503.119V94.512C503.119 95.556 503.827 96.156 505.015 96.156C505.459 96.156 505.975 96.06 506.239 95.964ZM508.399 96V92.448C508.495 91.656 508.975 90.912 509.899 90.912C510.103 90.912 510.391 90.948 510.559 90.996V89.988C510.439 89.94 510.151 89.892 509.947 89.892C509.251 89.892 508.603 90.504 508.363 91.26V90.048H507.379V96H508.399ZM516.518 96.096L516.566 95.316C516.494 95.328 516.374 95.34 516.302 95.34C515.942 95.34 515.762 95.088 515.762 94.764V92.028C515.762 90.648 514.922 89.892 513.626 89.892C512.594 89.892 511.694 90.468 511.262 91.404L512.054 91.728C512.354 91.164 512.822 90.744 513.53 90.744C514.262 90.744 514.742 91.248 514.742 91.992V92.46L513.35 92.628C512.03 92.796 511.094 93.432 511.094 94.536C511.094 95.484 511.85 96.156 512.906 96.156C513.746 96.156 514.406 95.748 514.79 95.112C514.934 95.796 515.378 96.156 516.05 96.156C516.23 96.156 516.374 96.132 516.518 96.096ZM513.182 95.328C512.582 95.328 512.162 94.968 512.162 94.464C512.162 93.852 512.738 93.492 513.53 93.396L514.742 93.252V94.344C514.43 94.92 513.842 95.328 513.182 95.328Z" fill="white"/>
<defs>
<filter id="filter0_d_1084_1096" x="0" y="0" width="604" height="193" filterUnits="userSpaceOnUse" color-interpolation-filters="sRGB">
<feFlood flood-opacity="0" result="BackgroundImageFix"/>
<feColorMatrix in="SourceAlpha" type="matrix" values="0 0 0 0 0 0 0 0 0 0 0 0 0 0 0 0 0 0 127 0" result="hardAlpha"/>
<feOffset dy="4"/>
<feGaussianBlur stdDeviation="31.5"/>
<feComposite in2="hardAlpha" operator="out"/>
<feColorMatrix type="matrix" values="0 0 0 0 0 0 0 0 0 0 0 0 0 0 0 0 0 0 0.6 0"/>
<feBlend mode="normal" in2="BackgroundImageFix" result="effect1_dropShadow_1084_1096"/>
<feBlend mode="normal" in="SourceGraphic" in2="effect1_dropShadow_1084_1096" result="shape"/>
</filter>
</defs>
</svg>
