<svg width="480" height="408" viewBox="0 0 480 408" fill="none" xmlns="http://www.w3.org/2000/svg">
<g filter="url(#filter0_d_1104_1103)">
<path d="M417 337C417 339.209 415.209 341 413 341L67 341C64.7909 341 63 339.209 63 337L63 328C63 325.791 64.7909 324 67 324L413 324C415.209 324 417 325.791 417 328L417 337Z" fill="black"/>
</g>
<g filter="url(#filter1_d_1104_1103)">
<path d="M417 310C417 312.209 415.209 314 413 314L67 314C64.7908 314 63 312.209 63 310L63 289C63 286.791 64.7909 285 67 285L413 285C415.209 285 417 286.791 417 289L417 310Z" fill="black"/>
</g>
<g filter="url(#filter2_d_1104_1103)">
<path d="M417 271C417 273.209 415.209 275 413 275L67 275C64.7908 275 63 273.209 63 271L63 200C63 197.791 64.7908 196 67 196L413 196C415.209 196 417 197.791 417 200L417 271Z" fill="black"/>
</g>
<g filter="url(#filter3_d_1104_1103)">
<path d="M417 182C417 184.209 415.209 186 413 186L67 186C64.7908 186 63 184.209 63 182L63 149C63 146.791 64.7909 145 67 145L413 145C415.209 145 417 146.791 417 149L417 182Z" fill="black"/>
</g>
<g filter="url(#filter4_d_1104_1103)">
<path d="M417 131C417 133.209 415.209 135 413 135L67 135C64.7908 135 63 133.209 63 131L63 63C63 60.7909 64.7908 59 67 59L413 59C415.209 59 417 60.7909 417 63L417 131Z" fill="#1767D2"/>
</g>
<path d="M99.032 96.848C99.032 94.328 96.92 92.696 93.752 92.696C92.168 92.696 90.944 93.104 90.032 93.632L90.272 91.304H98.384L98.384 88.208H87.512L87.104 95.672L89.624 96.272C90.224 95.864 91.376 95.552 92.504 95.552C93.992 95.552 94.904 96.128 94.904 96.992C94.904 97.856 93.968 98.504 92.504 98.504C91.136 98.504 89.912 98 89.24 97.184L86.552 98.648C87.752 100.4 90.056 101.36 92.888 101.36C96.488 101.36 99.032 99.44 99.032 96.848ZM100.431 94.568C100.431 98.456 103.095 101.336 106.815 101.336C110.559 101.336 113.247 98.456 113.247 94.568C113.247 90.728 110.559 87.896 106.815 87.896C103.095 87.896 100.431 90.728 100.431 94.568ZM104.559 94.616C104.559 92.432 105.519 90.992 106.839 90.992C108.207 90.992 109.119 92.432 109.119 94.616C109.119 96.8 108.207 98.24 106.839 98.24C105.519 98.24 104.559 96.8 104.559 94.616ZM129.431 101L129.431 94.7H124.571L124.571 96.968H126.515L126.515 97.634C126.263 98.138 125.219 98.696 124.067 98.696C122.465 98.696 121.313 97.292 121.313 95.33C121.313 93.296 122.465 91.82 124.067 91.82C125.129 91.82 126.137 92.558 126.461 93.584L129.251 92.594C128.531 90.578 126.335 89.138 124.013 89.138C120.503 89.138 117.947 91.766 117.965 95.402C117.965 98.822 120.359 101.288 123.563 101.288C125.165 101.288 126.335 100.694 126.965 99.812L127.055 101H129.431ZM144.819 101L144.819 95.24C144.819 93.17 143.505 91.748 141.831 91.748C140.733 91.748 139.761 92.342 139.077 93.368C138.591 92.36 137.691 91.748 136.647 91.748C135.603 91.748 134.667 92.36 134.037 93.332L134.037 92H131.193L131.193 101H134.163L134.163 94.808C134.451 94.448 134.955 94.16 135.459 94.16C136.071 94.16 136.521 94.7 136.521 95.528L136.521 101H139.491L139.491 95.24C139.491 95.078 139.491 94.916 139.473 94.772C139.779 94.43 140.265 94.16 140.769 94.16C141.399 94.16 141.849 94.7 141.849 95.528L141.849 101H144.819ZM154.941 98.516L152.439 97.562C152.115 98.3 151.665 98.822 150.909 98.822C149.973 98.822 149.289 97.868 149.289 96.554C149.289 95.168 149.973 94.178 150.927 94.178C151.629 94.178 152.097 94.628 152.367 95.384L154.905 94.412C154.275 92.828 152.799 91.73 150.711 91.73C148.083 91.73 146.193 93.746 146.193 96.572C146.193 99.308 148.065 101.27 150.639 101.27C152.727 101.27 154.311 100.1 154.941 98.516ZM154.766 104.42L156.206 105.032L163.442 88.22L162.002 87.626L154.766 104.42ZM172.35 101.09L172.476 99.092C172.332 99.11 172.116 99.128 171.99 99.128C171.594 99.128 171.432 98.858 171.432 98.336L171.432 95.276C171.432 92.936 170.028 91.73 167.652 91.73C165.564 91.73 164.196 92.774 163.566 94.268L165.672 95.15C166.014 94.484 166.572 93.962 167.328 93.962C168.048 93.962 168.516 94.448 168.516 95.168L168.516 95.546L166.644 95.852C164.484 96.23 163.242 97.292 163.242 98.822C163.242 100.262 164.358 101.27 165.924 101.27C167.166 101.27 168.156 100.64 168.768 99.776C169.236 100.856 170.154 101.27 171.234 101.27C171.648 101.27 172.044 101.198 172.35 101.09ZM167.166 99.2C166.59 99.2 166.212 98.84 166.212 98.354C166.212 97.778 166.698 97.418 167.436 97.292L168.516 97.112L168.516 98.552C168.174 98.93 167.688 99.2 167.166 99.2ZM188.179 101L188.179 95.024H184.237L184.237 96.41H186.613L186.613 97.868C186.325 98.768 184.921 99.758 183.283 99.758C181.033 99.758 179.395 97.886 179.395 95.294C179.395 92.576 181.033 90.614 183.283 90.614C184.651 90.614 186.037 91.532 186.595 92.828L188.035 92.27C187.333 90.47 185.317 89.156 183.229 89.156C179.989 89.156 177.631 91.766 177.649 95.312C177.667 98.732 179.971 101.216 183.103 101.216C184.795 101.216 186.163 100.442 186.757 99.506L186.847 101H188.179ZM198.014 101.144L198.086 99.974C197.978 99.992 197.798 100.01 197.69 100.01C197.15 100.01 196.88 99.632 196.88 99.146L196.88 95.042C196.88 92.972 195.62 91.838 193.676 91.838C192.128 91.838 190.778 92.702 190.13 94.106L191.318 94.592C191.768 93.746 192.47 93.116 193.532 93.116C194.63 93.116 195.35 93.872 195.35 94.988L195.35 95.69L193.262 95.942C191.282 96.194 189.878 97.148 189.878 98.804C189.878 100.226 191.012 101.234 192.596 101.234C193.856 101.234 194.846 100.622 195.422 99.668C195.638 100.694 196.304 101.234 197.312 101.234C197.582 101.234 197.798 101.198 198.014 101.144ZM193.01 99.992C192.11 99.992 191.48 99.452 191.48 98.696C191.48 97.778 192.344 97.238 193.532 97.094L195.35 96.878L195.35 98.516C194.882 99.38 194 99.992 193.01 99.992ZM206.544 98.552C206.544 96.896 205.14 96.212 203.124 95.78C201.612 95.438 200.748 95.168 200.748 94.376C200.748 93.62 201.594 93.098 202.782 93.098C204.024 93.098 204.852 93.62 205.266 94.484L206.49 93.998C205.968 92.9 204.87 91.838 202.8 91.838C200.694 91.838 199.254 92.954 199.254 94.466C199.254 96.014 200.712 96.734 202.692 97.148C204.222 97.472 205.068 97.778 205.068 98.624C205.068 99.434 204.312 99.992 202.998 99.992C201.504 99.992 200.55 99.326 200.1 98.444L198.84 98.93C199.452 100.334 200.892 101.234 202.926 101.234C205.194 101.234 206.544 100.136 206.544 98.552ZM214.636 90.776H216.868C218.398 90.776 219.406 91.64 219.406 92.936C219.406 94.322 218.38 95.24 216.85 95.24H214.636L214.636 90.776ZM214.636 101L214.636 96.662H216.85C217.156 96.662 217.444 96.644 217.714 96.608L220.036 101H221.854L219.244 96.122C220.414 95.492 221.116 94.358 221.116 92.936C221.116 90.794 219.46 89.354 216.976 89.354H212.98L212.98 101H214.636ZM230.863 101L230.863 92.072H229.333L229.333 98.228C228.883 99.218 228.019 99.938 226.957 99.938C225.859 99.938 225.067 99.074 225.067 97.868L225.067 92.072H223.537L223.537 97.976C223.537 99.866 224.797 101.234 226.525 101.234C227.839 101.234 228.865 100.478 229.387 99.524L229.387 101H230.863ZM240.452 98.552C240.452 96.896 239.048 96.212 237.032 95.78C235.52 95.438 234.656 95.168 234.656 94.376C234.656 93.62 235.502 93.098 236.69 93.098C237.932 93.098 238.76 93.62 239.174 94.484L240.398 93.998C239.876 92.9 238.778 91.838 236.708 91.838C234.602 91.838 233.162 92.954 233.162 94.466C233.162 96.014 234.62 96.734 236.6 97.148C238.13 97.472 238.976 97.778 238.976 98.624C238.976 99.434 238.22 99.992 236.906 99.992C235.412 99.992 234.458 99.326 234.008 98.444L232.748 98.93C233.36 100.334 234.8 101.234 236.834 101.234C239.102 101.234 240.452 100.136 240.452 98.552ZM249.364 98.552C249.364 96.896 247.96 96.212 245.944 95.78C244.432 95.438 243.568 95.168 243.568 94.376C243.568 93.62 244.414 93.098 245.602 93.098C246.844 93.098 247.672 93.62 248.086 94.484L249.31 93.998C248.788 92.9 247.69 91.838 245.62 91.838C243.514 91.838 242.074 92.954 242.074 94.466C242.074 96.014 243.532 96.734 245.512 97.148C247.042 97.472 247.888 97.778 247.888 98.624C247.888 99.434 247.132 99.992 245.818 99.992C244.324 99.992 243.37 99.326 242.92 98.444L241.66 98.93C242.272 100.334 243.712 101.234 245.746 101.234C248.014 101.234 249.364 100.136 249.364 98.552ZM259.446 96.554C259.446 93.818 257.628 91.838 255.126 91.838C252.624 91.838 250.788 93.818 250.788 96.554C250.788 99.254 252.624 101.234 255.126 101.234C257.628 101.234 259.446 99.254 259.446 96.554ZM252.408 96.554C252.408 94.574 253.542 93.116 255.126 93.116C256.692 93.116 257.826 94.574 257.826 96.554C257.826 98.498 256.692 99.938 255.126 99.938C253.542 99.938 252.408 98.498 252.408 96.554Z" fill="white"/>
<path d="M96.624 173L96.624 169.808H90.36L92.544 168.512C94.224 167.528 95.856 166.208 95.856 164.048C95.856 161.624 93.624 159.896 90.6 159.896C87.792 159.896 85.56 161.384 84.552 163.616L87.288 164.96C87.72 163.856 88.8 163.016 89.976 163.016C90.96 163.016 91.728 163.616 91.728 164.432C91.728 165.344 90.816 166.088 89.448 167.072L84.792 170.384L84.792 173H96.624ZM110.321 168.848C110.321 166.328 108.209 164.696 105.041 164.696C103.457 164.696 102.233 165.104 101.321 165.632L101.561 163.304H109.673L109.673 160.208H98.8011L98.3931 167.672L100.913 168.272C101.513 167.864 102.665 167.552 103.793 167.552C105.281 167.552 106.193 168.128 106.193 168.992C106.193 169.856 105.257 170.504 103.793 170.504C102.425 170.504 101.201 170 100.529 169.184L97.8411 170.648C99.0411 172.4 101.345 173.36 104.177 173.36C107.777 173.36 110.321 171.44 110.321 168.848ZM126.47 173L126.47 166.7H121.61L121.61 168.968H123.554L123.554 169.634C123.302 170.138 122.258 170.696 121.106 170.696C119.504 170.696 118.352 169.292 118.352 167.33C118.352 165.296 119.504 163.82 121.106 163.82C122.168 163.82 123.176 164.558 123.5 165.584L126.29 164.594C125.57 162.578 123.374 161.138 121.052 161.138C117.542 161.138 114.986 163.766 115.004 167.402C115.004 170.822 117.398 173.288 120.602 173.288C122.204 173.288 123.374 172.694 124.004 171.812L124.094 173H126.47ZM141.858 173L141.858 167.24C141.858 165.17 140.544 163.748 138.87 163.748C137.772 163.748 136.8 164.342 136.116 165.368C135.63 164.36 134.73 163.748 133.686 163.748C132.642 163.748 131.706 164.36 131.076 165.332L131.076 164H128.232L128.232 173H131.202L131.202 166.808C131.49 166.448 131.994 166.16 132.498 166.16C133.11 166.16 133.56 166.7 133.56 167.528L133.56 173H136.53L136.53 167.24C136.53 167.078 136.53 166.916 136.512 166.772C136.818 166.43 137.304 166.16 137.808 166.16C138.438 166.16 138.888 166.7 138.888 167.528L138.888 173H141.858ZM151.98 170.516L149.478 169.562C149.154 170.3 148.704 170.822 147.948 170.822C147.012 170.822 146.328 169.868 146.328 168.554C146.328 167.168 147.012 166.178 147.966 166.178C148.668 166.178 149.136 166.628 149.406 167.384L151.944 166.412C151.314 164.828 149.838 163.73 147.75 163.73C145.122 163.73 143.232 165.746 143.232 168.572C143.232 171.308 145.104 173.27 147.678 173.27C149.766 173.27 151.35 172.1 151.98 170.516ZM151.805 176.42L153.245 177.032L160.481 160.22L159.041 159.626L151.805 176.42ZM169.389 173.09L169.515 171.092C169.371 171.11 169.155 171.128 169.029 171.128C168.633 171.128 168.471 170.858 168.471 170.336L168.471 167.276C168.471 164.936 167.067 163.73 164.691 163.73C162.603 163.73 161.235 164.774 160.605 166.268L162.711 167.15C163.053 166.484 163.611 165.962 164.367 165.962C165.087 165.962 165.555 166.448 165.555 167.168L165.555 167.546L163.683 167.852C161.523 168.23 160.281 169.292 160.281 170.822C160.281 172.262 161.397 173.27 162.963 173.27C164.205 173.27 165.195 172.64 165.807 171.776C166.275 172.856 167.193 173.27 168.273 173.27C168.687 173.27 169.083 173.198 169.389 173.09ZM164.205 171.2C163.629 171.2 163.251 170.84 163.251 170.354C163.251 169.778 163.737 169.418 164.475 169.292L165.555 169.112L165.555 170.552C165.213 170.93 164.727 171.2 164.205 171.2ZM176.253 173L176.253 164.108L179.727 168.608H180.519L183.885 164L183.885 173H185.487L185.487 161.354H183.957L180.159 166.646L176.181 161.354H174.705L174.705 173H176.253ZM190.012 164.072H188.482L188.482 173H190.012L190.012 164.072ZM190.012 160.526H188.482L188.482 162.308H190.012L190.012 160.526ZM200.294 173L200.294 167.096C200.294 165.188 198.962 163.838 197.216 163.838C195.938 163.838 194.858 164.594 194.264 165.44L194.264 164.072H192.788L192.788 173H194.318L194.318 166.52C194.876 165.728 195.848 165.134 196.856 165.134C197.972 165.134 198.764 165.962 198.764 167.204L198.764 173H200.294ZM210.958 168.554C210.958 165.818 209.14 163.838 206.638 163.838C204.136 163.838 202.3 165.818 202.3 168.554C202.3 171.254 204.136 173.234 206.638 173.234C209.14 173.234 210.958 171.254 210.958 168.554ZM203.92 168.554C203.92 166.574 205.054 165.116 206.638 165.116C208.204 165.116 209.338 166.574 209.338 168.554C209.338 170.498 208.204 171.938 206.638 171.938C205.054 171.938 203.92 170.498 203.92 168.554ZM214.586 173L214.586 167.672C214.73 166.484 215.45 165.368 216.836 165.368C217.142 165.368 217.574 165.422 217.826 165.494L217.826 163.982C217.646 163.91 217.214 163.838 216.908 163.838C215.864 163.838 214.892 164.756 214.532 165.89L214.532 164.072H213.056L213.056 173H214.586ZM230.234 170.804L228.938 170.3C228.506 171.29 227.786 171.92 226.796 171.92C225.338 171.92 224.276 170.534 224.276 168.608C224.276 166.592 225.302 165.134 226.724 165.134C227.624 165.134 228.398 165.692 228.83 166.736L230.162 166.196C229.532 164.756 228.326 163.838 226.688 163.838C224.348 163.838 222.656 165.836 222.656 168.608C222.656 171.29 224.366 173.234 226.742 173.234C228.38 173.234 229.658 172.208 230.234 170.804ZM240.085 168.554C240.085 165.818 238.267 163.838 235.765 163.838C233.263 163.838 231.427 165.818 231.427 168.554C231.427 171.254 233.263 173.234 235.765 173.234C238.267 173.234 240.085 171.254 240.085 168.554ZM233.047 168.554C233.047 166.574 234.181 165.116 235.765 165.116C237.331 165.116 238.465 166.574 238.465 168.554C238.465 170.498 237.331 171.938 235.765 171.938C234.181 171.938 233.047 170.498 233.047 168.554ZM249.689 173L249.689 167.096C249.689 165.188 248.357 163.838 246.611 163.838C245.333 163.838 244.253 164.594 243.659 165.44L243.659 164.072H242.183L242.183 173H243.713L243.713 166.52C244.271 165.728 245.243 165.134 246.251 165.134C247.367 165.134 248.159 165.962 248.159 167.204L248.159 173H249.689ZM259.183 170.552C259.183 168.896 257.779 168.212 255.763 167.78C254.251 167.438 253.387 167.168 253.387 166.376C253.387 165.62 254.233 165.098 255.421 165.098C256.663 165.098 257.491 165.62 257.905 166.484L259.129 165.998C258.607 164.9 257.509 163.838 255.439 163.838C253.333 163.838 251.893 164.954 251.893 166.466C251.893 168.014 253.351 168.734 255.331 169.148C256.861 169.472 257.707 169.778 257.707 170.624C257.707 171.434 256.951 171.992 255.637 171.992C254.143 171.992 253.189 171.326 252.739 170.444L251.479 170.93C252.091 172.334 253.531 173.234 255.565 173.234C257.833 173.234 259.183 172.136 259.183 170.552ZM268.473 173L268.473 164.072H266.943L266.943 170.228C266.493 171.218 265.629 171.938 264.567 171.938C263.469 171.938 262.677 171.074 262.677 169.868L262.677 164.072H261.147L261.147 169.976C261.147 171.866 262.407 173.234 264.135 173.234C265.449 173.234 266.475 172.478 266.997 171.524L266.997 173H268.473ZM283.768 173L283.768 167.096C283.768 165.188 282.472 163.838 280.798 163.838C279.61 163.838 278.566 164.558 277.936 165.512C277.45 164.486 276.514 163.838 275.416 163.838C274.228 163.838 273.238 164.594 272.716 165.44L272.716 164.072H271.24L271.24 173H272.77L272.77 166.484C273.274 165.728 274.138 165.134 275.02 165.134C276.01 165.134 276.73 165.962 276.73 167.204L276.73 173H278.26L278.26 167.096C278.26 166.826 278.242 166.574 278.188 166.322C278.728 165.638 279.592 165.134 280.456 165.134C281.482 165.134 282.238 165.962 282.238 167.204L282.238 173H283.768ZM294.401 168.554C294.401 165.818 292.583 163.838 290.081 163.838C287.579 163.838 285.743 165.818 285.743 168.554C285.743 171.254 287.579 173.234 290.081 173.234C292.583 173.234 294.401 171.254 294.401 168.554ZM287.363 168.554C287.363 166.574 288.497 165.116 290.081 165.116C291.647 165.116 292.781 166.574 292.781 168.554C292.781 170.498 291.647 171.938 290.081 171.938C288.497 171.938 287.363 170.498 287.363 168.554Z" fill="white"/>
<path d="M99.032 235.848C99.032 233.328 96.92 231.696 93.752 231.696C92.168 231.696 90.944 232.104 90.032 232.632L90.272 230.304H98.384L98.384 227.208H87.512L87.104 234.672L89.624 235.272C90.224 234.864 91.376 234.552 92.504 234.552C93.992 234.552 94.904 235.128 94.904 235.992C94.904 236.856 93.968 237.504 92.504 237.504C91.136 237.504 89.912 237 89.24 236.184L86.552 237.648C87.752 239.4 90.056 240.36 92.888 240.36C96.488 240.36 99.032 238.44 99.032 235.848ZM100.431 233.568C100.431 237.456 103.095 240.336 106.815 240.336C110.559 240.336 113.247 237.456 113.247 233.568C113.247 229.728 110.559 226.896 106.815 226.896C103.095 226.896 100.431 229.728 100.431 233.568ZM104.559 233.616C104.559 231.432 105.519 229.992 106.839 229.992C108.207 229.992 109.119 231.432 109.119 233.616C109.119 235.8 108.207 237.24 106.839 237.24C105.519 237.24 104.559 235.8 104.559 233.616ZM129.431 240L129.431 233.7H124.571L124.571 235.968H126.515L126.515 236.634C126.263 237.138 125.219 237.696 124.067 237.696C122.465 237.696 121.313 236.292 121.313 234.33C121.313 232.296 122.465 230.82 124.067 230.82C125.129 230.82 126.137 231.558 126.461 232.584L129.251 231.594C128.531 229.578 126.335 228.138 124.013 228.138C120.503 228.138 117.947 230.766 117.965 234.402C117.965 237.822 120.359 240.288 123.563 240.288C125.165 240.288 126.335 239.694 126.965 238.812L127.055 240H129.431ZM144.819 240L144.819 234.24C144.819 232.17 143.505 230.748 141.831 230.748C140.733 230.748 139.761 231.342 139.077 232.368C138.591 231.36 137.691 230.748 136.647 230.748C135.603 230.748 134.667 231.36 134.037 232.332L134.037 231H131.193L131.193 240H134.163L134.163 233.808C134.451 233.448 134.955 233.16 135.459 233.16C136.071 233.16 136.521 233.7 136.521 234.528L136.521 240H139.491L139.491 234.24C139.491 234.078 139.491 233.916 139.473 233.772C139.779 233.43 140.265 233.16 140.769 233.16C141.399 233.16 141.849 233.7 141.849 234.528L141.849 240H144.819ZM154.941 237.516L152.439 236.562C152.115 237.3 151.665 237.822 150.909 237.822C149.973 237.822 149.289 236.868 149.289 235.554C149.289 234.168 149.973 233.178 150.927 233.178C151.629 233.178 152.097 233.628 152.367 234.384L154.905 233.412C154.275 231.828 152.799 230.73 150.711 230.73C148.083 230.73 146.193 232.746 146.193 235.572C146.193 238.308 148.065 240.27 150.639 240.27C152.727 240.27 154.311 239.1 154.941 237.516ZM154.766 243.42L156.206 244.032L163.442 227.22L162.002 226.626L154.766 243.42ZM172.35 240.09L172.476 238.092C172.332 238.11 172.116 238.128 171.99 238.128C171.594 238.128 171.432 237.858 171.432 237.336L171.432 234.276C171.432 231.936 170.028 230.73 167.652 230.73C165.564 230.73 164.196 231.774 163.566 233.268L165.672 234.15C166.014 233.484 166.572 232.962 167.328 232.962C168.048 232.962 168.516 233.448 168.516 234.168L168.516 234.546L166.644 234.852C164.484 235.23 163.242 236.292 163.242 237.822C163.242 239.262 164.358 240.27 165.924 240.27C167.166 240.27 168.156 239.64 168.768 238.776C169.236 239.856 170.154 240.27 171.234 240.27C171.648 240.27 172.044 240.198 172.35 240.09ZM167.166 238.2C166.59 238.2 166.212 237.84 166.212 237.354C166.212 236.778 166.698 236.418 167.436 236.292L168.516 236.112L168.516 237.552C168.174 237.93 167.688 238.2 167.166 238.2ZM188.179 240L188.179 234.024H184.237L184.237 235.41H186.613L186.613 236.868C186.325 237.768 184.921 238.758 183.283 238.758C181.033 238.758 179.395 236.886 179.395 234.294C179.395 231.576 181.033 229.614 183.283 229.614C184.651 229.614 186.037 230.532 186.595 231.828L188.035 231.27C187.333 229.47 185.317 228.156 183.229 228.156C179.989 228.156 177.631 230.766 177.649 234.312C177.667 237.732 179.971 240.216 183.103 240.216C184.795 240.216 186.163 239.442 186.757 238.506L186.847 240H188.179ZM198.014 240.144L198.086 238.974C197.978 238.992 197.798 239.01 197.69 239.01C197.15 239.01 196.88 238.632 196.88 238.146L196.88 234.042C196.88 231.972 195.62 230.838 193.676 230.838C192.128 230.838 190.778 231.702 190.13 233.106L191.318 233.592C191.768 232.746 192.47 232.116 193.532 232.116C194.63 232.116 195.35 232.872 195.35 233.988L195.35 234.69L193.262 234.942C191.282 235.194 189.878 236.148 189.878 237.804C189.878 239.226 191.012 240.234 192.596 240.234C193.856 240.234 194.846 239.622 195.422 238.668C195.638 239.694 196.304 240.234 197.312 240.234C197.582 240.234 197.798 240.198 198.014 240.144ZM193.01 238.992C192.11 238.992 191.48 238.452 191.48 237.696C191.48 236.778 192.344 236.238 193.532 236.094L195.35 235.878L195.35 237.516C194.882 238.38 194 238.992 193.01 238.992ZM206.544 237.552C206.544 235.896 205.14 235.212 203.124 234.78C201.612 234.438 200.748 234.168 200.748 233.376C200.748 232.62 201.594 232.098 202.782 232.098C204.024 232.098 204.852 232.62 205.266 233.484L206.49 232.998C205.968 231.9 204.87 230.838 202.8 230.838C200.694 230.838 199.254 231.954 199.254 233.466C199.254 235.014 200.712 235.734 202.692 236.148C204.222 236.472 205.068 236.778 205.068 237.624C205.068 238.434 204.312 238.992 202.998 238.992C201.504 238.992 200.55 238.326 200.1 237.444L198.84 237.93C199.452 239.334 200.892 240.234 202.926 240.234C205.194 240.234 206.544 239.136 206.544 237.552ZM220.288 240L220.288 234.096C220.288 232.188 218.956 230.838 217.21 230.838C215.932 230.838 214.852 231.594 214.258 232.44L214.258 231.072H212.782L212.782 240H214.312L214.312 233.52C214.87 232.728 215.842 232.134 216.85 232.134C217.966 232.134 218.758 232.962 218.758 234.204L218.758 240H220.288ZM230.358 240.144L230.43 238.974C230.322 238.992 230.142 239.01 230.034 239.01C229.494 239.01 229.224 238.632 229.224 238.146L229.224 234.042C229.224 231.972 227.964 230.838 226.02 230.838C224.472 230.838 223.122 231.702 222.474 233.106L223.662 233.592C224.112 232.746 224.814 232.116 225.876 232.116C226.974 232.116 227.694 232.872 227.694 233.988L227.694 234.69L225.606 234.942C223.626 235.194 222.222 236.148 222.222 237.804C222.222 239.226 223.356 240.234 224.94 240.234C226.2 240.234 227.19 239.622 227.766 238.668C227.982 239.694 228.648 240.234 229.656 240.234C229.926 240.234 230.142 240.198 230.358 240.144ZM225.354 238.992C224.454 238.992 223.824 238.452 223.824 237.696C223.824 236.778 224.688 236.238 225.876 236.094L227.694 235.878L227.694 237.516C227.226 238.38 226.344 238.992 225.354 238.992ZM237.142 239.946L237.142 238.668C236.764 238.812 236.134 238.92 235.576 238.92C234.442 238.92 233.992 238.362 233.992 237.516L233.992 232.332H237.088L237.088 231.072H233.992L233.992 228.894H232.462L232.462 231.072H231.148L231.148 232.332H232.462L232.462 237.768C232.462 239.334 233.524 240.234 235.306 240.234C235.972 240.234 236.746 240.09 237.142 239.946ZM246.051 240L246.051 231.072H244.521L244.521 237.228C244.071 238.218 243.207 238.938 242.145 238.938C241.047 238.938 240.255 238.074 240.255 236.868L240.255 231.072H238.725L238.725 236.976C238.725 238.866 239.985 240.234 241.713 240.234C243.027 240.234 244.053 239.478 244.575 238.524L244.575 240H246.051ZM250.348 240L250.348 234.672C250.492 233.484 251.212 232.368 252.598 232.368C252.904 232.368 253.336 232.422 253.588 232.494L253.588 230.982C253.408 230.91 252.976 230.838 252.67 230.838C251.626 230.838 250.654 231.756 250.294 232.89L250.294 231.072H248.818L248.818 240H250.348ZM262.526 240.144L262.598 238.974C262.49 238.992 262.31 239.01 262.202 239.01C261.662 239.01 261.392 238.632 261.392 238.146L261.392 234.042C261.392 231.972 260.132 230.838 258.188 230.838C256.64 230.838 255.29 231.702 254.642 233.106L255.83 233.592C256.28 232.746 256.982 232.116 258.044 232.116C259.142 232.116 259.862 232.872 259.862 233.988L259.862 234.69L257.774 234.942C255.794 235.194 254.39 236.148 254.39 237.804C254.39 239.226 255.524 240.234 257.108 240.234C258.368 240.234 259.358 239.622 259.934 238.668C260.15 239.694 260.816 240.234 261.824 240.234C262.094 240.234 262.31 240.198 262.526 240.144ZM257.522 238.992C256.622 238.992 255.992 238.452 255.992 237.696C255.992 236.778 256.856 236.238 258.044 236.094L259.862 235.878L259.862 237.516C259.394 238.38 258.512 238.992 257.522 238.992ZM265.764 227.328H264.234L264.234 240H265.764L265.764 227.328ZM275.704 237.966L274.48 237.498C274.012 238.416 273.148 238.974 272.176 238.974C270.682 238.974 269.602 237.732 269.494 235.86H275.686C275.74 235.626 275.776 235.14 275.776 234.744C275.776 232.458 274.21 230.838 272.032 230.838C269.656 230.838 267.892 232.854 267.892 235.608C267.892 238.308 269.656 240.234 272.086 240.234C273.688 240.234 275.074 239.388 275.704 237.966ZM272.05 232.08C273.31 232.08 274.192 233.088 274.246 234.636H269.584C269.854 233.088 270.808 232.08 272.05 232.08ZM283.605 227.328H282.075L282.075 240H283.605L283.605 227.328ZM287.912 231.072H286.382L286.382 240H287.912L287.912 231.072ZM287.912 227.526H286.382L286.382 229.308H287.912L287.912 227.526ZM294.343 238.956C292.813 238.956 291.661 237.606 291.661 235.608C291.661 233.574 292.795 232.098 294.397 232.098C295.279 232.098 296.143 232.584 296.665 233.286L296.665 237.678C296.233 238.38 295.333 238.956 294.343 238.956ZM298.195 243.276L298.195 231.072H296.701L296.701 232.206C296.125 231.378 295.117 230.838 294.001 230.838C291.841 230.838 290.041 232.782 290.041 235.59C290.041 238.29 291.751 240.234 293.947 240.234C295.081 240.234 296.089 239.694 296.665 238.884L296.665 243.276H298.195ZM308.172 240L308.172 231.072H306.642L306.642 237.228C306.192 238.218 305.328 238.938 304.266 238.938C303.168 238.938 302.376 238.074 302.376 236.868L302.376 231.072H300.846L300.846 236.976C300.846 238.866 302.106 240.234 303.834 240.234C305.148 240.234 306.174 239.478 306.696 238.524L306.696 240H308.172ZM318.103 237.966L316.879 237.498C316.411 238.416 315.547 238.974 314.575 238.974C313.081 238.974 312.001 237.732 311.893 235.86H318.085C318.139 235.626 318.175 235.14 318.175 234.744C318.175 232.458 316.609 230.838 314.431 230.838C312.055 230.838 310.291 232.854 310.291 235.608C310.291 238.308 312.055 240.234 314.485 240.234C316.087 240.234 317.473 239.388 318.103 237.966ZM314.449 232.08C315.709 232.08 316.591 233.088 316.645 234.636H311.983C312.253 233.088 313.207 232.08 314.449 232.08ZM325.458 232.332L325.458 231.072H322.2L322.2 230.712C322.2 229.236 322.938 228.372 324.126 228.372C324.612 228.372 325.206 228.462 325.602 228.624L325.638 227.346C325.224 227.22 324.504 227.094 323.964 227.094C321.912 227.094 320.67 228.444 320.67 230.73L320.67 231.072H319.518L319.518 232.332H320.67L320.67 240H322.2L322.2 232.332H325.458ZM334.245 240.144L334.317 238.974C334.209 238.992 334.029 239.01 333.921 239.01C333.381 239.01 333.111 238.632 333.111 238.146L333.111 234.042C333.111 231.972 331.851 230.838 329.907 230.838C328.359 230.838 327.009 231.702 326.361 233.106L327.549 233.592C327.999 232.746 328.701 232.116 329.763 232.116C330.861 232.116 331.581 232.872 331.581 233.988L331.581 234.69L329.493 234.942C327.513 235.194 326.109 236.148 326.109 237.804C326.109 239.226 327.243 240.234 328.827 240.234C330.087 240.234 331.077 239.622 331.653 238.668C331.869 239.694 332.535 240.234 333.543 240.234C333.813 240.234 334.029 240.198 334.245 240.144ZM329.241 238.992C328.341 238.992 327.711 238.452 327.711 237.696C327.711 236.778 328.575 236.238 329.763 236.094L331.581 235.878L331.581 237.516C331.113 238.38 330.231 238.992 329.241 238.992ZM341.028 239.946L341.028 238.668C340.65 238.812 340.02 238.92 339.462 238.92C338.328 238.92 337.878 238.362 337.878 237.516L337.878 232.332H340.974L340.974 231.072H337.878L337.878 228.894H336.348L336.348 231.072H335.034L335.034 232.332H336.348L336.348 237.768C336.348 239.334 337.41 240.234 339.192 240.234C339.858 240.234 340.632 240.09 341.028 239.946ZM347.814 239.946L347.814 238.668C347.436 238.812 346.806 238.92 346.248 238.92C345.114 238.92 344.664 238.362 344.664 237.516L344.664 232.332H347.76L347.76 231.072H344.664L344.664 228.894H343.134L343.134 231.072H341.82L341.82 232.332H343.134L343.134 237.768C343.134 239.334 344.196 240.234 345.978 240.234C346.644 240.234 347.418 240.09 347.814 239.946ZM357.427 235.554C357.427 232.818 355.609 230.838 353.107 230.838C350.605 230.838 348.769 232.818 348.769 235.554C348.769 238.254 350.605 240.234 353.107 240.234C355.609 240.234 357.427 238.254 357.427 235.554ZM350.389 235.554C350.389 233.574 351.523 232.116 353.107 232.116C354.673 232.116 355.807 233.574 355.807 235.554C355.807 237.498 354.673 238.938 353.107 238.938C351.523 238.938 350.389 237.498 350.389 235.554Z" fill="white"/>
<path d="M98.624 308L98.624 304.808H92.36L94.544 303.512C96.224 302.528 97.856 301.208 97.856 299.048C97.856 296.624 95.624 294.896 92.6 294.896C89.792 294.896 87.56 296.384 86.552 298.616L89.288 299.96C89.72 298.856 90.8 298.016 91.976 298.016C92.96 298.016 93.728 298.616 93.728 299.432C93.728 300.344 92.816 301.088 91.448 302.072L86.792 305.384L86.792 308H98.624ZM100.009 301.568C100.009 305.456 102.673 308.336 106.393 308.336C110.137 308.336 112.825 305.456 112.825 301.568C112.825 297.728 110.137 294.896 106.393 294.896C102.673 294.896 100.009 297.728 100.009 301.568ZM104.137 301.616C104.137 299.432 105.097 297.992 106.417 297.992C107.785 297.992 108.697 299.432 108.697 301.616C108.697 303.8 107.785 305.24 106.417 305.24C105.097 305.24 104.137 303.8 104.137 301.616ZM129.009 308L129.009 301.7H124.149L124.149 303.968H126.093L126.093 304.634C125.841 305.138 124.797 305.696 123.645 305.696C122.043 305.696 120.891 304.292 120.891 302.33C120.891 300.296 122.043 298.82 123.645 298.82C124.707 298.82 125.715 299.558 126.039 300.584L128.829 299.594C128.109 297.578 125.913 296.138 123.591 296.138C120.081 296.138 117.525 298.766 117.543 302.402C117.543 305.822 119.937 308.288 123.141 308.288C124.743 308.288 125.913 307.694 126.543 306.812L126.633 308H129.009ZM144.397 308L144.397 302.24C144.397 300.17 143.083 298.748 141.409 298.748C140.311 298.748 139.339 299.342 138.655 300.368C138.169 299.36 137.269 298.748 136.225 298.748C135.181 298.748 134.245 299.36 133.615 300.332L133.615 299H130.771L130.771 308H133.741L133.741 301.808C134.029 301.448 134.533 301.16 135.037 301.16C135.649 301.16 136.099 301.7 136.099 302.528L136.099 308H139.069L139.069 302.24C139.069 302.078 139.069 301.916 139.051 301.772C139.357 301.43 139.843 301.16 140.347 301.16C140.977 301.16 141.427 301.7 141.427 302.528L141.427 308H144.397ZM154.519 305.516L152.017 304.562C151.693 305.3 151.243 305.822 150.487 305.822C149.551 305.822 148.867 304.868 148.867 303.554C148.867 302.168 149.551 301.178 150.505 301.178C151.207 301.178 151.675 301.628 151.945 302.384L154.483 301.412C153.853 299.828 152.377 298.73 150.289 298.73C147.661 298.73 145.771 300.746 145.771 303.572C145.771 306.308 147.643 308.27 150.217 308.27C152.305 308.27 153.889 307.1 154.519 305.516ZM154.344 311.42L155.784 312.032L163.02 295.22L161.58 294.626L154.344 311.42ZM171.928 308.09L172.054 306.092C171.91 306.11 171.694 306.128 171.568 306.128C171.172 306.128 171.01 305.858 171.01 305.336L171.01 302.276C171.01 299.936 169.606 298.73 167.23 298.73C165.142 298.73 163.774 299.774 163.144 301.268L165.25 302.15C165.592 301.484 166.15 300.962 166.906 300.962C167.626 300.962 168.094 301.448 168.094 302.168L168.094 302.546L166.222 302.852C164.062 303.23 162.82 304.292 162.82 305.822C162.82 307.262 163.936 308.27 165.502 308.27C166.744 308.27 167.734 307.64 168.346 306.776C168.814 307.856 169.732 308.27 170.812 308.27C171.226 308.27 171.622 308.198 171.928 308.09ZM166.744 306.2C166.168 306.2 165.79 305.84 165.79 305.354C165.79 304.778 166.276 304.418 167.014 304.292L168.094 304.112L168.094 305.552C167.752 305.93 167.266 306.2 166.744 306.2ZM179.621 297.776H181.853C183.383 297.776 184.391 298.64 184.391 299.936C184.391 301.322 183.365 302.24 181.835 302.24H179.621L179.621 297.776ZM179.621 308L179.621 303.662H181.835C182.141 303.662 182.429 303.644 182.699 303.608L185.021 308H186.839L184.229 303.122C185.399 302.492 186.101 301.358 186.101 299.936C186.101 297.794 184.445 296.354 181.961 296.354H177.965L177.965 308H179.621ZM190.283 299.072H188.753L188.753 308H190.283L190.283 299.072ZM190.283 295.526H188.753L188.753 297.308H190.283L190.283 295.526ZM200.566 308L200.566 302.096C200.566 300.188 199.234 298.838 197.488 298.838C196.21 298.838 195.13 299.594 194.536 300.44L194.536 299.072H193.06L193.06 308H194.59L194.59 301.52C195.148 300.728 196.12 300.134 197.128 300.134C198.244 300.134 199.036 300.962 199.036 302.204L199.036 308H200.566ZM210.744 308L210.744 302.096C210.744 300.188 209.412 298.838 207.666 298.838C206.388 298.838 205.308 299.594 204.714 300.44L204.714 299.072H203.238L203.238 308H204.768L204.768 301.52C205.326 300.728 206.298 300.134 207.306 300.134C208.422 300.134 209.214 300.962 209.214 302.204L209.214 308H210.744ZM221.407 303.554C221.407 300.818 219.589 298.838 217.087 298.838C214.585 298.838 212.749 300.818 212.749 303.554C212.749 306.254 214.585 308.234 217.087 308.234C219.589 308.234 221.407 306.254 221.407 303.554ZM214.369 303.554C214.369 301.574 215.503 300.116 217.087 300.116C218.653 300.116 219.787 301.574 219.787 303.554C219.787 305.498 218.653 306.938 217.087 306.938C215.503 306.938 214.369 305.498 214.369 303.554ZM222.339 299.072L225.561 308H227.145L230.349 299.072H228.801L226.425 306.02H226.371L223.995 299.072H222.339ZM239.323 308.144L239.395 306.974C239.287 306.992 239.107 307.01 238.999 307.01C238.459 307.01 238.189 306.632 238.189 306.146L238.189 302.042C238.189 299.972 236.929 298.838 234.985 298.838C233.437 298.838 232.087 299.702 231.439 301.106L232.627 301.592C233.077 300.746 233.779 300.116 234.841 300.116C235.939 300.116 236.659 300.872 236.659 301.988L236.659 302.69L234.571 302.942C232.591 303.194 231.187 304.148 231.187 305.804C231.187 307.226 232.321 308.234 233.905 308.234C235.165 308.234 236.155 307.622 236.731 306.668C236.947 307.694 237.613 308.234 238.621 308.234C238.891 308.234 239.107 308.198 239.323 308.144ZM234.319 306.992C233.419 306.992 232.789 306.452 232.789 305.696C232.789 304.778 233.653 304.238 234.841 304.094L236.659 303.878L236.659 305.516C236.191 306.38 235.309 306.992 234.319 306.992ZM249.185 303.5C249.185 300.8 247.583 298.838 245.387 298.838C244.361 298.838 243.227 299.414 242.561 300.26L242.561 295.328H241.031L241.031 308H242.471L242.471 306.92C243.155 307.694 244.271 308.234 245.243 308.234C247.529 308.234 249.185 306.254 249.185 303.5ZM244.883 306.956C243.947 306.956 243.047 306.47 242.561 305.804L242.561 301.358C243.047 300.62 244.001 300.134 244.973 300.134C246.467 300.134 247.565 301.538 247.565 303.482C247.565 305.48 246.431 306.956 244.883 306.956ZM252.844 299.072H251.314L251.314 308H252.844L252.844 299.072ZM252.844 295.526H251.314L251.314 297.308H252.844L252.844 295.526ZM257.15 295.328H255.62L255.62 308H257.15L257.15 295.328ZM261.457 299.072H259.927L259.927 308H261.457L261.457 299.072ZM261.457 295.526H259.927L259.927 297.308H261.457L261.457 295.526Z" fill="white"/>
<path d="M91.424 326.232L86.504 328.176L87.512 330.888L90.536 329.808L90.536 335.904H87.056L87.056 339H97.568L97.568 335.904H94.496L94.496 326.232H91.424ZM98.6497 332.568C98.6497 336.456 101.314 339.336 105.034 339.336C108.778 339.336 111.466 336.456 111.466 332.568C111.466 328.728 108.778 325.896 105.034 325.896C101.314 325.896 98.6497 328.728 98.6497 332.568ZM102.778 332.616C102.778 330.432 103.738 328.992 105.058 328.992C106.426 328.992 107.338 330.432 107.338 332.616C107.338 334.8 106.426 336.24 105.058 336.24C103.738 336.24 102.778 334.8 102.778 332.616ZM127.649 339L127.649 332.7H122.789L122.789 334.968H124.733L124.733 335.634C124.481 336.138 123.437 336.696 122.285 336.696C120.683 336.696 119.531 335.292 119.531 333.33C119.531 331.296 120.683 329.82 122.285 329.82C123.347 329.82 124.355 330.558 124.679 331.584L127.469 330.594C126.749 328.578 124.553 327.138 122.231 327.138C118.721 327.138 116.165 329.766 116.183 333.402C116.183 336.822 118.577 339.288 121.781 339.288C123.383 339.288 124.553 338.694 125.183 337.812L125.273 339H127.649ZM143.038 339L143.038 333.24C143.038 331.17 141.724 329.748 140.05 329.748C138.952 329.748 137.98 330.342 137.296 331.368C136.81 330.36 135.91 329.748 134.866 329.748C133.822 329.748 132.886 330.36 132.256 331.332L132.256 330H129.412L129.412 339H132.382L132.382 332.808C132.67 332.448 133.174 332.16 133.678 332.16C134.29 332.16 134.74 332.7 134.74 333.528L134.74 339H137.71L137.71 333.24C137.71 333.078 137.71 332.916 137.692 332.772C137.998 332.43 138.484 332.16 138.988 332.16C139.618 332.16 140.068 332.7 140.068 333.528L140.068 339H143.038ZM153.159 336.516L150.657 335.562C150.333 336.3 149.883 336.822 149.127 336.822C148.191 336.822 147.507 335.868 147.507 334.554C147.507 333.168 148.191 332.178 149.145 332.178C149.847 332.178 150.315 332.628 150.585 333.384L153.123 332.412C152.493 330.828 151.017 329.73 148.929 329.73C146.301 329.73 144.411 331.746 144.411 334.572C144.411 337.308 146.283 339.27 148.857 339.27C150.945 339.27 152.529 338.1 153.159 336.516ZM152.984 342.42L154.424 343.032L161.66 326.22L160.22 325.626L152.984 342.42ZM170.568 339.09L170.694 337.092C170.55 337.11 170.334 337.128 170.208 337.128C169.812 337.128 169.65 336.858 169.65 336.336L169.65 333.276C169.65 330.936 168.246 329.73 165.87 329.73C163.782 329.73 162.414 330.774 161.784 332.268L163.89 333.15C164.232 332.484 164.79 331.962 165.546 331.962C166.266 331.962 166.734 332.448 166.734 333.168L166.734 333.546L164.862 333.852C162.702 334.23 161.46 335.292 161.46 336.822C161.46 338.262 162.576 339.27 164.142 339.27C165.384 339.27 166.374 338.64 166.986 337.776C167.454 338.856 168.372 339.27 169.452 339.27C169.866 339.27 170.262 339.198 170.568 339.09ZM165.384 337.2C164.808 337.2 164.43 336.84 164.43 336.354C164.43 335.778 164.916 335.418 165.654 335.292L166.734 335.112L166.734 336.552C166.392 336.93 165.906 337.2 165.384 337.2ZM186.397 339L186.397 333.024H182.455L182.455 334.41H184.831L184.831 335.868C184.543 336.768 183.139 337.758 181.501 337.758C179.251 337.758 177.613 335.886 177.613 333.294C177.613 330.576 179.251 328.614 181.501 328.614C182.869 328.614 184.255 329.532 184.813 330.828L186.253 330.27C185.551 328.47 183.535 327.156 181.447 327.156C178.207 327.156 175.849 329.766 175.867 333.312C175.885 336.732 178.189 339.216 181.321 339.216C183.013 339.216 184.381 338.442 184.975 337.506L185.065 339H186.397ZM196.233 339.144L196.305 337.974C196.197 337.992 196.017 338.01 195.909 338.01C195.369 338.01 195.099 337.632 195.099 337.146L195.099 333.042C195.099 330.972 193.839 329.838 191.895 329.838C190.347 329.838 188.997 330.702 188.349 332.106L189.537 332.592C189.987 331.746 190.689 331.116 191.751 331.116C192.849 331.116 193.569 331.872 193.569 332.988L193.569 333.69L191.481 333.942C189.501 334.194 188.097 335.148 188.097 336.804C188.097 338.226 189.231 339.234 190.815 339.234C192.075 339.234 193.065 338.622 193.641 337.668C193.857 338.694 194.523 339.234 195.531 339.234C195.801 339.234 196.017 339.198 196.233 339.144ZM191.229 337.992C190.329 337.992 189.699 337.452 189.699 336.696C189.699 335.778 190.563 335.238 191.751 335.094L193.569 334.878L193.569 336.516C193.101 337.38 192.219 337.992 191.229 337.992ZM204.763 336.552C204.763 334.896 203.359 334.212 201.343 333.78C199.831 333.438 198.967 333.168 198.967 332.376C198.967 331.62 199.813 331.098 201.001 331.098C202.243 331.098 203.071 331.62 203.485 332.484L204.709 331.998C204.187 330.9 203.089 329.838 201.019 329.838C198.913 329.838 197.473 330.954 197.473 332.466C197.473 334.014 198.931 334.734 200.911 335.148C202.441 335.472 203.287 335.778 203.287 336.624C203.287 337.434 202.531 337.992 201.217 337.992C199.723 337.992 198.769 337.326 198.319 336.444L197.059 336.93C197.671 338.334 199.111 339.234 201.145 339.234C203.413 339.234 204.763 338.136 204.763 336.552ZM218.507 339L218.507 333.096C218.507 331.188 217.175 329.838 215.429 329.838C214.151 329.838 213.071 330.594 212.477 331.44L212.477 330.072H211.001L211.001 339H212.531L212.531 332.52C213.089 331.728 214.061 331.134 215.069 331.134C216.185 331.134 216.977 331.962 216.977 333.204L216.977 339H218.507ZM229.171 334.554C229.171 331.818 227.353 329.838 224.851 329.838C222.349 329.838 220.513 331.818 220.513 334.554C220.513 337.254 222.349 339.234 224.851 339.234C227.353 339.234 229.171 337.254 229.171 334.554ZM222.133 334.554C222.133 332.574 223.267 331.116 224.851 331.116C226.417 331.116 227.551 332.574 227.551 334.554C227.551 336.498 226.417 337.938 224.851 337.938C223.267 337.938 222.133 336.498 222.133 334.554ZM238.775 339L238.775 333.096C238.775 331.188 237.443 329.838 235.697 329.838C234.419 329.838 233.339 330.594 232.745 331.44L232.745 330.072H231.269L231.269 339H232.799L232.799 332.52C233.357 331.728 234.329 331.134 235.337 331.134C236.453 331.134 237.245 331.962 237.245 333.204L237.245 339H238.775ZM247.449 328.776H249.681C251.211 328.776 252.219 329.64 252.219 330.936C252.219 332.322 251.193 333.24 249.663 333.24H247.449L247.449 328.776ZM247.449 339L247.449 334.662H249.663C249.969 334.662 250.257 334.644 250.527 334.608L252.849 339H254.667L252.057 334.122C253.227 333.492 253.929 332.358 253.929 330.936C253.929 328.794 252.273 327.354 249.789 327.354H245.793L245.793 339H247.449ZM263.676 339L263.676 330.072H262.146L262.146 336.228C261.696 337.218 260.832 337.938 259.77 337.938C258.672 337.938 257.88 337.074 257.88 335.868L257.88 330.072H256.35L256.35 335.976C256.35 337.866 257.61 339.234 259.338 339.234C260.652 339.234 261.678 338.478 262.2 337.524L262.2 339H263.676ZM273.265 336.552C273.265 334.896 271.861 334.212 269.845 333.78C268.333 333.438 267.469 333.168 267.469 332.376C267.469 331.62 268.315 331.098 269.503 331.098C270.745 331.098 271.573 331.62 271.987 332.484L273.211 331.998C272.689 330.9 271.591 329.838 269.521 329.838C267.415 329.838 265.975 330.954 265.975 332.466C265.975 334.014 267.433 334.734 269.413 335.148C270.943 335.472 271.789 335.778 271.789 336.624C271.789 337.434 271.033 337.992 269.719 337.992C268.225 337.992 267.271 337.326 266.821 336.444L265.561 336.93C266.173 338.334 267.613 339.234 269.647 339.234C271.915 339.234 273.265 338.136 273.265 336.552ZM282.177 336.552C282.177 334.896 280.773 334.212 278.757 333.78C277.245 333.438 276.381 333.168 276.381 332.376C276.381 331.62 277.227 331.098 278.415 331.098C279.657 331.098 280.485 331.62 280.899 332.484L282.123 331.998C281.601 330.9 280.503 329.838 278.433 329.838C276.327 329.838 274.887 330.954 274.887 332.466C274.887 334.014 276.345 334.734 278.325 335.148C279.855 335.472 280.701 335.778 280.701 336.624C280.701 337.434 279.945 337.992 278.631 337.992C277.137 337.992 276.183 337.326 275.733 336.444L274.473 336.93C275.085 338.334 276.525 339.234 278.559 339.234C280.827 339.234 282.177 338.136 282.177 336.552ZM292.259 334.554C292.259 331.818 290.441 329.838 287.939 329.838C285.437 329.838 283.601 331.818 283.601 334.554C283.601 337.254 285.437 339.234 287.939 339.234C290.441 339.234 292.259 337.254 292.259 334.554ZM285.221 334.554C285.221 332.574 286.355 331.116 287.939 331.116C289.505 331.116 290.639 332.574 290.639 334.554C290.639 336.498 289.505 337.938 287.939 337.938C286.355 337.938 285.221 336.498 285.221 334.554Z" fill="white"/>
<defs>
<filter id="filter0_d_1104_1103" x="0" y="265" width="480" height="143" filterUnits="userSpaceOnUse" color-interpolation-filters="sRGB">
<feFlood flood-opacity="0" result="BackgroundImageFix"/>
<feColorMatrix in="SourceAlpha" type="matrix" values="0 0 0 0 0 0 0 0 0 0 0 0 0 0 0 0 0 0 127 0" result="hardAlpha"/>
<feOffset dy="4"/>
<feGaussianBlur stdDeviation="31.5"/>
<feComposite in2="hardAlpha" operator="out"/>
<feColorMatrix type="matrix" values="0 0 0 0 0 0 0 0 0 0 0 0 0 0 0 0 0 0 0.6 0"/>
<feBlend mode="normal" in2="BackgroundImageFix" result="effect1_dropShadow_1104_1103"/>
<feBlend mode="normal" in="SourceGraphic" in2="effect1_dropShadow_1104_1103" result="shape"/>
</filter>
<filter id="filter1_d_1104_1103" x="0" y="226" width="480" height="155" filterUnits="userSpaceOnUse" color-interpolation-filters="sRGB">
<feFlood flood-opacity="0" result="BackgroundImageFix"/>
<feColorMatrix in="SourceAlpha" type="matrix" values="0 0 0 0 0 0 0 0 0 0 0 0 0 0 0 0 0 0 127 0" result="hardAlpha"/>
<feOffset dy="4"/>
<feGaussianBlur stdDeviation="31.5"/>
<feComposite in2="hardAlpha" operator="out"/>
<feColorMatrix type="matrix" values="0 0 0 0 0 0 0 0 0 0 0 0 0 0 0 0 0 0 0.6 0"/>
<feBlend mode="normal" in2="BackgroundImageFix" result="effect1_dropShadow_1104_1103"/>
<feBlend mode="normal" in="SourceGraphic" in2="effect1_dropShadow_1104_1103" result="shape"/>
</filter>
<filter id="filter2_d_1104_1103" x="0" y="137" width="480" height="205" filterUnits="userSpaceOnUse" color-interpolation-filters="sRGB">
<feFlood flood-opacity="0" result="BackgroundImageFix"/>
<feColorMatrix in="SourceAlpha" type="matrix" values="0 0 0 0 0 0 0 0 0 0 0 0 0 0 0 0 0 0 127 0" result="hardAlpha"/>
<feOffset dy="4"/>
<feGaussianBlur stdDeviation="31.5"/>
<feComposite in2="hardAlpha" operator="out"/>
<feColorMatrix type="matrix" values="0 0 0 0 0 0 0 0 0 0 0 0 0 0 0 0 0 0 0.6 0"/>
<feBlend mode="normal" in2="BackgroundImageFix" result="effect1_dropShadow_1104_1103"/>
<feBlend mode="normal" in="SourceGraphic" in2="effect1_dropShadow_1104_1103" result="shape"/>
</filter>
<filter id="filter3_d_1104_1103" x="0" y="86" width="480" height="167" filterUnits="userSpaceOnUse" color-interpolation-filters="sRGB">
<feFlood flood-opacity="0" result="BackgroundImageFix"/>
<feColorMatrix in="SourceAlpha" type="matrix" values="0 0 0 0 0 0 0 0 0 0 0 0 0 0 0 0 0 0 127 0" result="hardAlpha"/>
<feOffset dy="4"/>
<feGaussianBlur stdDeviation="31.5"/>
<feComposite in2="hardAlpha" operator="out"/>
<feColorMatrix type="matrix" values="0 0 0 0 0 0 0 0 0 0 0 0 0 0 0 0 0 0 0.6 0"/>
<feBlend mode="normal" in2="BackgroundImageFix" result="effect1_dropShadow_1104_1103"/>
<feBlend mode="normal" in="SourceGraphic" in2="effect1_dropShadow_1104_1103" result="shape"/>
</filter>
<filter id="filter4_d_1104_1103" x="0" y="0" width="480" height="202" filterUnits="userSpaceOnUse" color-interpolation-filters="sRGB">
<feFlood flood-opacity="0" result="BackgroundImageFix"/>
<feColorMatrix in="SourceAlpha" type="matrix" values="0 0 0 0 0 0 0 0 0 0 0 0 0 0 0 0 0 0 127 0" result="hardAlpha"/>
<feOffset dy="4"/>
<feGaussianBlur stdDeviation="31.5"/>
<feComposite in2="hardAlpha" operator="out"/>
<feColorMatrix type="matrix" values="0 0 0 0 0 0 0 0 0 0 0 0 0 0 0 0 0 0 0.6 0"/>
<feBlend mode="normal" in2="BackgroundImageFix" result="effect1_dropShadow_1104_1103"/>
<feBlend mode="normal" in="SourceGraphic" in2="effect1_dropShadow_1104_1103" result="shape"/>
</filter>
</defs>
</svg>
