<svg width="414" height="552" viewBox="0 0 414 552" fill="none" xmlns="http://www.w3.org/2000/svg">
<g filter="url(#filter0_d_875_795)">
<path d="M65 66C65 63.2386 67.2386 61 70 61L344 61C346.761 61 349 63.2386 349 66L349 478C349 480.761 346.761 483 344 483L70 483C67.2386 483 65 480.761 65 478L65 66Z" fill="#1767D2"/>
<path d="M65 66C65 63.2386 67.2386 61 70 61L344 61C346.761 61 349 63.2386 349 66L349 478C349 480.761 346.761 483 344 483L70 483C67.2386 483 65 480.761 65 478L65 66Z" stroke="#1767D2" stroke-width="3"/>
</g>
<path d="M106.07 126V115.5H97.97V119.28H101.21V120.39C100.79 121.23 99.05 122.16 97.13 122.16C94.46 122.16 92.54 119.82 92.54 116.55C92.54 113.16 94.46 110.7 97.13 110.7C98.9 110.7 100.58 111.93 101.12 113.64L105.77 111.99C104.57 108.63 100.91 106.23 97.04 106.23C91.19 106.23 86.93 110.61 86.96 116.67C86.96 122.37 90.95 126.48 96.29 126.48C98.96 126.48 100.91 125.49 101.96 124.02L102.11 126H106.07ZM122.507 122.52L118.997 121.02C118.337 122.16 117.287 122.85 116.177 122.85C114.527 122.85 113.357 121.62 113.087 119.52H122.657C122.717 119.13 122.837 118.2 122.837 117.39C122.837 113.31 119.927 110.55 115.817 110.55C111.347 110.55 108.137 114.06 108.137 118.74C108.137 123.3 111.287 126.45 115.757 126.45C118.877 126.45 121.457 124.92 122.507 122.52ZM115.787 114.06C117.167 114.06 118.037 115.08 118.157 116.82H113.177C113.537 115.08 114.497 114.06 115.787 114.06ZM130.246 126V118.83C130.516 116.52 131.656 115.14 133.906 115.14C134.326 115.14 134.926 115.23 135.346 115.35V110.79C134.926 110.64 134.416 110.55 133.846 110.55C132.136 110.55 130.666 112.35 130.036 114.39V111H125.296V126H130.246ZM160.194 126V116.4C160.194 112.95 158.004 110.58 155.214 110.58C153.384 110.58 151.764 111.57 150.624 113.28C149.814 111.6 148.314 110.58 146.574 110.58C144.834 110.58 143.274 111.6 142.224 113.22V111H137.484V126H142.434V115.68C142.914 115.08 143.754 114.6 144.594 114.6C145.614 114.6 146.364 115.5 146.364 116.88V126H151.314V116.4C151.314 116.13 151.314 115.86 151.284 115.62C151.794 115.05 152.604 114.6 153.444 114.6C154.494 114.6 155.244 115.5 155.244 116.88V126H160.194ZM177.543 126.15L177.753 122.82C177.513 122.85 177.153 122.88 176.943 122.88C176.283 122.88 176.013 122.43 176.013 121.56V116.46C176.013 112.56 173.673 110.55 169.713 110.55C166.233 110.55 163.953 112.29 162.903 114.78L166.413 116.25C166.983 115.14 167.913 114.27 169.173 114.27C170.373 114.27 171.153 115.08 171.153 116.28V116.91L168.033 117.42C164.433 118.05 162.363 119.82 162.363 122.37C162.363 124.77 164.223 126.45 166.833 126.45C168.903 126.45 170.553 125.4 171.573 123.96C172.353 125.76 173.883 126.45 175.683 126.45C176.373 126.45 177.033 126.33 177.543 126.15ZM168.903 123C167.943 123 167.313 122.4 167.313 121.59C167.313 120.63 168.123 120.03 169.353 119.82L171.153 119.52V121.92C170.583 122.55 169.773 123 168.903 123ZM193.951 126V116.37C193.951 113.01 191.791 110.55 188.971 110.55C187.081 110.55 185.461 111.57 184.441 113.16V111H179.701V126H184.651V115.59C185.221 115.02 186.121 114.57 187.021 114.57C188.221 114.57 189.001 115.44 189.001 116.82V126H193.951ZM202.053 111H197.103V126H202.053V111ZM202.053 105.36H197.103V109.2H202.053V105.36ZM219.555 126.15L219.765 122.82C219.525 122.85 219.165 122.88 218.955 122.88C218.295 122.88 218.025 122.43 218.025 121.56V116.46C218.025 112.56 215.685 110.55 211.725 110.55C208.245 110.55 205.965 112.29 204.915 114.78L208.425 116.25C208.995 115.14 209.925 114.27 211.185 114.27C212.385 114.27 213.165 115.08 213.165 116.28V116.91L210.045 117.42C206.445 118.05 204.375 119.82 204.375 122.37C204.375 124.77 206.235 126.45 208.845 126.45C210.915 126.45 212.565 125.4 213.585 123.96C214.365 125.76 215.895 126.45 217.695 126.45C218.385 126.45 219.045 126.33 219.555 126.15ZM210.915 123C209.955 123 209.325 122.4 209.325 121.59C209.325 120.63 210.135 120.03 211.365 119.82L213.165 119.52V121.92C212.595 122.55 211.785 123 210.915 123Z" fill="white"/>
<path d="M89.24 300.354H87.584V312H89.24V300.354ZM93.7324 299.328H92.2024V312H93.7324V299.328ZM119.167 306.66C119.167 303.69 116.497 301.53 112.777 301.53C110.977 301.53 109.267 302.07 108.097 302.88C108.457 300.48 109.807 299.07 111.907 299.07C113.377 299.07 114.727 299.73 115.537 300.72L118.747 298.77C117.517 297.09 115.057 295.62 111.697 295.62C106.477 295.62 102.937 299.19 102.937 304.23C102.907 309.3 106.477 312.42 111.427 312.42C115.807 312.42 119.167 309.99 119.167 306.66ZM111.397 308.97C109.747 308.97 108.577 307.89 108.157 306C108.997 305.28 110.167 304.89 111.337 304.89C113.077 304.89 114.007 305.73 114.007 306.84C114.007 308.1 112.867 308.97 111.397 308.97ZM137.097 306.66C137.097 303.69 134.427 301.53 130.707 301.53C128.907 301.53 127.197 302.07 126.027 302.88C126.387 300.48 127.737 299.07 129.837 299.07C131.307 299.07 132.657 299.73 133.467 300.72L136.677 298.77C135.447 297.09 132.987 295.62 129.627 295.62C124.407 295.62 120.867 299.19 120.867 304.23C120.837 309.3 124.407 312.42 129.357 312.42C133.737 312.42 137.097 309.99 137.097 306.66ZM129.327 308.97C127.677 308.97 126.507 307.89 126.087 306C126.927 305.28 128.097 304.89 129.267 304.89C131.007 304.89 131.937 305.73 131.937 306.84C131.937 308.1 130.797 308.97 129.327 308.97ZM158.296 293.55L156.886 292.14C155.506 293.28 153.406 294 151.276 294C149.716 294 148.006 293.7 146.806 293.28C145.966 292.56 144.856 292.14 143.596 292.14C140.716 292.14 138.646 294.3 138.646 297.27C138.646 300.24 140.716 302.37 143.596 302.37C146.476 302.37 148.546 300.24 148.546 297.27C148.546 296.67 148.456 296.07 148.306 295.56C149.236 295.98 150.286 296.22 151.216 296.22C152.086 296.19 153.046 295.92 154.006 295.41L140.206 311.01L141.676 312.45L158.296 293.55ZM159.976 307.35C159.976 304.38 157.906 302.22 155.026 302.22C152.146 302.22 150.076 304.38 150.076 307.35C150.076 310.32 152.146 312.45 155.026 312.45C157.906 312.45 159.976 310.32 159.976 307.35ZM153.346 307.35C153.346 305.94 154.066 304.92 155.026 304.92C156.016 304.92 156.706 305.94 156.706 307.35C156.706 308.73 156.016 309.72 155.026 309.72C154.066 309.72 153.346 308.73 153.346 307.35ZM141.916 297.27C141.916 295.86 142.636 294.84 143.596 294.84C144.586 294.84 145.276 295.86 145.276 297.27C145.276 298.65 144.586 299.64 143.596 299.64C142.636 299.64 141.916 298.65 141.916 297.27ZM172.871 310.956C172.025 310.956 171.089 310.506 170.549 309.858V305.52C171.017 304.8 171.899 304.098 172.943 304.098C174.437 304.098 175.553 305.448 175.553 307.5C175.553 309.534 174.437 310.956 172.871 310.956ZM177.173 307.5C177.173 304.764 175.445 302.838 173.339 302.838C171.971 302.838 170.963 303.666 170.495 304.404V303.072H169.019V315.276H170.549V311.064C171.125 311.766 172.115 312.234 173.177 312.234C175.427 312.234 177.173 310.236 177.173 307.5ZM180.814 312V306.672C180.958 305.484 181.678 304.368 183.064 304.368C183.37 304.368 183.802 304.422 184.054 304.494V302.982C183.874 302.91 183.442 302.838 183.136 302.838C182.092 302.838 181.12 303.756 180.76 304.89V303.072H179.284V312H180.814ZM192.724 309.966L191.5 309.498C191.032 310.416 190.168 310.974 189.196 310.974C187.702 310.974 186.622 309.732 186.514 307.86H192.706C192.76 307.626 192.796 307.14 192.796 306.744C192.796 304.458 191.23 302.838 189.052 302.838C186.676 302.838 184.912 304.854 184.912 307.608C184.912 310.308 186.676 312.234 189.106 312.234C190.708 312.234 192.094 311.388 192.724 309.966ZM189.07 304.08C190.33 304.08 191.212 305.088 191.266 306.636H186.604C186.874 305.088 187.828 304.08 189.07 304.08ZM201.769 309.552C201.769 307.896 200.365 307.212 198.349 306.78C196.837 306.438 195.973 306.168 195.973 305.376C195.973 304.62 196.819 304.098 198.007 304.098C199.249 304.098 200.077 304.62 200.491 305.484L201.715 304.998C201.193 303.9 200.095 302.838 198.025 302.838C195.919 302.838 194.479 303.954 194.479 305.466C194.479 307.014 195.937 307.734 197.917 308.148C199.447 308.472 200.293 308.778 200.293 309.624C200.293 310.434 199.537 310.992 198.223 310.992C196.729 310.992 195.775 310.326 195.325 309.444L194.065 309.93C194.677 311.334 196.117 312.234 198.151 312.234C200.419 312.234 201.769 311.136 201.769 309.552ZM211.059 312V303.072H209.529V309.228C209.079 310.218 208.215 310.938 207.153 310.938C206.055 310.938 205.263 310.074 205.263 308.868V303.072H203.733V308.976C203.733 310.866 204.993 312.234 206.721 312.234C208.035 312.234 209.061 311.478 209.583 310.524V312H211.059ZM226.353 312V306.096C226.353 304.188 225.057 302.838 223.383 302.838C222.195 302.838 221.151 303.558 220.521 304.512C220.035 303.486 219.099 302.838 218.001 302.838C216.813 302.838 215.823 303.594 215.301 304.44V303.072H213.825V312H215.355V305.484C215.859 304.728 216.723 304.134 217.605 304.134C218.595 304.134 219.315 304.962 219.315 306.204V312H220.845V306.096C220.845 305.826 220.827 305.574 220.773 305.322C221.313 304.638 222.177 304.134 223.041 304.134C224.067 304.134 224.823 304.962 224.823 306.204V312H226.353ZM236.159 309.966L234.935 309.498C234.467 310.416 233.603 310.974 232.631 310.974C231.137 310.974 230.057 309.732 229.949 307.86H236.141C236.195 307.626 236.231 307.14 236.231 306.744C236.231 304.458 234.665 302.838 232.487 302.838C230.111 302.838 228.347 304.854 228.347 307.608C228.347 310.308 230.111 312.234 232.541 312.234C234.143 312.234 235.529 311.388 236.159 309.966ZM232.505 304.08C233.765 304.08 234.647 305.088 234.701 306.636H230.039C230.309 305.088 231.263 304.08 232.505 304.08ZM249.461 309.804L248.165 309.3C247.733 310.29 247.013 310.92 246.023 310.92C244.565 310.92 243.503 309.534 243.503 307.608C243.503 305.592 244.529 304.134 245.951 304.134C246.851 304.134 247.625 304.692 248.057 305.736L249.389 305.196C248.759 303.756 247.553 302.838 245.915 302.838C243.575 302.838 241.883 304.836 241.883 307.608C241.883 310.29 243.593 312.234 245.969 312.234C247.607 312.234 248.885 311.208 249.461 309.804ZM258.826 312V306.114C258.826 304.188 257.494 302.838 255.748 302.838C254.506 302.838 253.444 303.54 252.85 304.368V299.328H251.32V312H252.85V305.52C253.408 304.728 254.38 304.134 255.388 304.134C256.504 304.134 257.296 304.962 257.296 306.204V312H258.826ZM268.661 309.966L267.437 309.498C266.969 310.416 266.105 310.974 265.133 310.974C263.639 310.974 262.559 309.732 262.451 307.86H268.643C268.697 307.626 268.733 307.14 268.733 306.744C268.733 304.458 267.167 302.838 264.989 302.838C262.613 302.838 260.849 304.854 260.849 307.608C260.849 310.308 262.613 312.234 265.043 312.234C266.645 312.234 268.031 311.388 268.661 309.966ZM265.007 304.08C266.267 304.08 267.149 305.088 267.203 306.636H262.541C262.811 305.088 263.765 304.08 265.007 304.08ZM88.916 321.328H87.386V334H88.916V321.328ZM99.0906 334.144L99.1626 332.974C99.0546 332.992 98.8746 333.01 98.7666 333.01C98.2266 333.01 97.9566 332.632 97.9566 332.146V328.042C97.9566 325.972 96.6966 324.838 94.7526 324.838C93.2046 324.838 91.8546 325.702 91.2066 327.106L92.3946 327.592C92.8446 326.746 93.5466 326.116 94.6086 326.116C95.7066 326.116 96.4266 326.872 96.4266 327.988V328.69L94.3386 328.942C92.3586 329.194 90.9546 330.148 90.9546 331.804C90.9546 333.226 92.0886 334.234 93.6726 334.234C94.9326 334.234 95.9226 333.622 96.4986 332.668C96.7146 333.694 97.3806 334.234 98.3886 334.234C98.6586 334.234 98.8746 334.198 99.0906 334.144ZM94.0866 332.992C93.1866 332.992 92.5566 332.452 92.5566 331.696C92.5566 330.778 93.4206 330.238 94.6086 330.094L96.4266 329.878V331.516C95.9586 332.38 95.0766 332.992 94.0866 332.992ZM108.799 332.956C107.953 332.956 107.017 332.506 106.477 331.858V327.52C106.945 326.8 107.827 326.098 108.871 326.098C110.365 326.098 111.481 327.448 111.481 329.5C111.481 331.534 110.365 332.956 108.799 332.956ZM113.101 329.5C113.101 326.764 111.373 324.838 109.267 324.838C107.899 324.838 106.891 325.666 106.423 326.404V325.072H104.947V337.276H106.477V333.064C107.053 333.766 108.043 334.234 109.105 334.234C111.355 334.234 113.101 332.236 113.101 329.5ZM123.204 329.554C123.204 326.818 121.386 324.838 118.884 324.838C116.382 324.838 114.546 326.818 114.546 329.554C114.546 332.254 116.382 334.234 118.884 334.234C121.386 334.234 123.204 332.254 123.204 329.554ZM116.166 329.554C116.166 327.574 117.3 326.116 118.884 326.116C120.45 326.116 121.584 327.574 121.584 329.554C121.584 331.498 120.45 332.938 118.884 332.938C117.3 332.938 116.166 331.498 116.166 329.554ZM126.832 321.328H125.302V334H126.832V321.328ZM131.139 325.072H129.609V334H131.139V325.072ZM131.139 321.526H129.609V323.308H131.139V321.526ZM138.991 333.946V332.668C138.613 332.812 137.983 332.92 137.425 332.92C136.291 332.92 135.841 332.362 135.841 331.516V326.332H138.937V325.072H135.841V322.894H134.311V325.072H132.997V326.332H134.311V331.768C134.311 333.334 135.373 334.234 137.155 334.234C137.821 334.234 138.595 334.09 138.991 333.946ZM142.23 325.072H140.7V334H142.23V325.072ZM142.23 321.526H140.7V323.308H142.23V321.526ZM151.937 331.804L150.641 331.3C150.209 332.29 149.489 332.92 148.499 332.92C147.041 332.92 145.979 331.534 145.979 329.608C145.979 327.592 147.005 326.134 148.427 326.134C149.327 326.134 150.101 326.692 150.533 327.736L151.865 327.196C151.235 325.756 150.029 324.838 148.391 324.838C146.051 324.838 144.359 326.836 144.359 329.608C144.359 332.29 146.069 334.234 148.445 334.234C150.083 334.234 151.361 333.208 151.937 331.804ZM161.194 334.144L161.266 332.974C161.158 332.992 160.978 333.01 160.87 333.01C160.33 333.01 160.06 332.632 160.06 332.146V328.042C160.06 325.972 158.8 324.838 156.856 324.838C155.308 324.838 153.958 325.702 153.31 327.106L154.498 327.592C154.948 326.746 155.65 326.116 156.712 326.116C157.81 326.116 158.53 326.872 158.53 327.988V328.69L156.442 328.942C154.462 329.194 153.058 330.148 153.058 331.804C153.058 333.226 154.192 334.234 155.776 334.234C157.036 334.234 158.026 333.622 158.602 332.668C158.818 333.694 159.484 334.234 160.492 334.234C160.762 334.234 160.978 334.198 161.194 334.144ZM156.19 332.992C155.29 332.992 154.66 332.452 154.66 331.696C154.66 330.778 155.524 330.238 156.712 330.094L158.53 329.878V331.516C158.062 332.38 157.18 332.992 156.19 332.992ZM173.98 331.804L172.684 331.3C172.252 332.29 171.532 332.92 170.542 332.92C169.084 332.92 168.022 331.534 168.022 329.608C168.022 327.592 169.048 326.134 170.47 326.134C171.37 326.134 172.144 326.692 172.576 327.736L173.908 327.196C173.278 325.756 172.072 324.838 170.434 324.838C168.094 324.838 166.402 326.836 166.402 329.608C166.402 332.29 168.112 334.234 170.488 334.234C172.126 334.234 173.404 333.208 173.98 331.804ZM177.369 321.328H175.839V334H177.369V321.328ZM181.676 325.072H180.146V334H181.676V325.072ZM181.676 321.526H180.146V323.308H181.676V321.526ZM196.98 334V328.096C196.98 326.188 195.684 324.838 194.01 324.838C192.822 324.838 191.778 325.558 191.148 326.512C190.662 325.486 189.726 324.838 188.628 324.838C187.44 324.838 186.45 325.594 185.928 326.44V325.072H184.452V334H185.982V327.484C186.486 326.728 187.35 326.134 188.232 326.134C189.222 326.134 189.942 326.962 189.942 328.204V334H191.472V328.096C191.472 327.826 191.454 327.574 191.4 327.322C191.94 326.638 192.804 326.134 193.668 326.134C194.694 326.134 195.45 326.962 195.45 328.204V334H196.98ZM207.02 334.144L207.092 332.974C206.984 332.992 206.804 333.01 206.696 333.01C206.156 333.01 205.886 332.632 205.886 332.146V328.042C205.886 325.972 204.626 324.838 202.682 324.838C201.134 324.838 199.784 325.702 199.136 327.106L200.324 327.592C200.774 326.746 201.476 326.116 202.538 326.116C203.636 326.116 204.356 326.872 204.356 327.988V328.69L202.268 328.942C200.288 329.194 198.884 330.148 198.884 331.804C198.884 333.226 200.018 334.234 201.602 334.234C202.862 334.234 203.852 333.622 204.428 332.668C204.644 333.694 205.31 334.234 206.318 334.234C206.588 334.234 206.804 334.198 207.02 334.144ZM202.016 332.992C201.116 332.992 200.486 332.452 200.486 331.696C200.486 330.778 201.35 330.238 202.538 330.094L204.356 329.878V331.516C203.888 332.38 203.006 332.992 202.016 332.992ZM213.804 333.946V332.668C213.426 332.812 212.796 332.92 212.238 332.92C211.104 332.92 210.654 332.362 210.654 331.516V326.332H213.75V325.072H210.654V322.894H209.124V325.072H207.81V326.332H209.124V331.768C209.124 333.334 210.186 334.234 211.968 334.234C212.634 334.234 213.408 334.09 213.804 333.946ZM217.043 325.072H215.513V334H217.043V325.072ZM217.043 321.526H215.513V323.308H217.043V321.526ZM226.75 331.804L225.454 331.3C225.022 332.29 224.302 332.92 223.312 332.92C221.854 332.92 220.792 331.534 220.792 329.608C220.792 327.592 221.818 326.134 223.24 326.134C224.14 326.134 224.914 326.692 225.346 327.736L226.678 327.196C226.048 325.756 224.842 324.838 223.204 324.838C220.864 324.838 219.172 326.836 219.172 329.608C219.172 332.29 220.882 334.234 223.258 334.234C224.896 334.234 226.174 333.208 226.75 331.804ZM236.007 334.144L236.079 332.974C235.971 332.992 235.791 333.01 235.683 333.01C235.143 333.01 234.873 332.632 234.873 332.146V328.042C234.873 325.972 233.613 324.838 231.669 324.838C230.121 324.838 228.771 325.702 228.123 327.106L229.311 327.592C229.761 326.746 230.463 326.116 231.525 326.116C232.623 326.116 233.343 326.872 233.343 327.988V328.69L231.255 328.942C229.275 329.194 227.871 330.148 227.871 331.804C227.871 333.226 229.005 334.234 230.589 334.234C231.849 334.234 232.839 333.622 233.415 332.668C233.631 333.694 234.297 334.234 235.305 334.234C235.575 334.234 235.791 334.198 236.007 334.144ZM231.003 332.992C230.103 332.992 229.473 332.452 229.473 331.696C229.473 330.778 230.337 330.238 231.525 330.094L233.343 329.878V331.516C232.875 332.38 231.993 332.992 231.003 332.992ZM88.916 356V350.672C89.06 349.484 89.78 348.368 91.166 348.368C91.472 348.368 91.904 348.422 92.156 348.494V346.982C91.976 346.91 91.544 346.838 91.238 346.838C90.194 346.838 89.222 347.756 88.862 348.89V347.072H87.386V356H88.916ZM95.4375 347.072H93.9075V356H95.4375V347.072ZM95.4375 343.526H93.9075V345.308H95.4375V343.526ZM101.76 354.956C100.266 354.956 99.2041 353.534 99.2041 351.59C99.2041 349.592 100.32 348.134 101.868 348.134C102.822 348.134 103.704 348.566 104.172 349.25V353.66C103.65 354.434 102.696 354.956 101.76 354.956ZM105.702 356V343.328H104.172V348.044C103.56 347.324 102.516 346.838 101.544 346.838C99.2401 346.838 97.5661 348.836 97.5661 351.608C97.5661 354.29 99.1861 356.234 101.418 356.234C102.444 356.234 103.596 355.604 104.262 354.722V356H105.702ZM115.68 356V347.072H114.15V353.228C113.7 354.218 112.836 354.938 111.774 354.938C110.676 354.938 109.884 354.074 109.884 352.868V347.072H108.354V352.976C108.354 354.866 109.614 356.234 111.342 356.234C112.656 356.234 113.682 355.478 114.204 354.524V356H115.68ZM119.977 356V350.672C120.121 349.484 120.841 348.368 122.227 348.368C122.533 348.368 122.965 348.422 123.217 348.494V346.982C123.037 346.91 122.605 346.838 122.299 346.838C121.255 346.838 120.283 347.756 119.923 348.89V347.072H118.447V356H119.977ZM126.498 356V350.672C126.642 349.484 127.362 348.368 128.748 348.368C129.054 348.368 129.486 348.422 129.738 348.494V346.982C129.558 346.91 129.126 346.838 128.82 346.838C127.776 346.838 126.804 347.756 126.444 348.89V347.072H124.968V356H126.498ZM138.677 356.144L138.749 354.974C138.641 354.992 138.461 355.01 138.353 355.01C137.813 355.01 137.543 354.632 137.543 354.146V350.042C137.543 347.972 136.283 346.838 134.339 346.838C132.791 346.838 131.441 347.702 130.793 349.106L131.981 349.592C132.431 348.746 133.133 348.116 134.195 348.116C135.293 348.116 136.013 348.872 136.013 349.988V350.69L133.925 350.942C131.945 351.194 130.541 352.148 130.541 353.804C130.541 355.226 131.675 356.234 133.259 356.234C134.519 356.234 135.509 355.622 136.085 354.668C136.301 355.694 136.967 356.234 137.975 356.234C138.245 356.234 138.461 356.198 138.677 356.144ZM133.673 354.992C132.773 354.992 132.143 354.452 132.143 353.696C132.143 352.778 133.007 352.238 134.195 352.094L136.013 351.878V353.516C135.545 354.38 134.663 354.992 133.673 354.992ZM135.527 345.146L132.827 342.662L131.783 343.904L134.753 346.082L135.527 345.146ZM146.062 347.072H144.532V356H146.062V347.072ZM146.062 343.526H144.532V345.308H146.062V343.526ZM150.369 343.328H148.839V356H150.369V343.328ZM161.146 354.956C160.3 354.956 159.364 354.506 158.824 353.858V349.52C159.292 348.8 160.174 348.098 161.218 348.098C162.712 348.098 163.828 349.448 163.828 351.5C163.828 353.534 162.712 354.956 161.146 354.956ZM165.448 351.5C165.448 348.764 163.72 346.838 161.614 346.838C160.246 346.838 159.238 347.666 158.77 348.404V347.072H157.294V359.276H158.824V355.064C159.4 355.766 160.39 356.234 161.452 356.234C163.702 356.234 165.448 354.236 165.448 351.5ZM169.09 356V350.672C169.234 349.484 169.954 348.368 171.34 348.368C171.646 348.368 172.078 348.422 172.33 348.494V346.982C172.15 346.91 171.718 346.838 171.412 346.838C170.368 346.838 169.396 347.756 169.036 348.89V347.072H167.56V356H169.09ZM181.827 351.554C181.827 348.818 180.009 346.838 177.507 346.838C175.005 346.838 173.169 348.818 173.169 351.554C173.169 354.254 175.005 356.234 177.507 356.234C180.009 356.234 181.827 354.254 181.827 351.554ZM174.789 351.554C174.789 349.574 175.923 348.116 177.507 348.116C179.073 348.116 180.207 349.574 180.207 351.554C180.207 353.498 179.073 354.938 177.507 354.938C175.923 354.938 174.789 353.498 174.789 351.554ZM187.777 354.956C186.931 354.956 185.995 354.506 185.455 353.858V349.52C185.923 348.8 186.805 348.098 187.849 348.098C189.343 348.098 190.459 349.448 190.459 351.5C190.459 353.534 189.343 354.956 187.777 354.956ZM192.079 351.5C192.079 348.764 190.351 346.838 188.245 346.838C186.877 346.838 185.869 347.666 185.401 348.404V347.072H183.925V359.276H185.455V355.064C186.031 355.766 187.021 356.234 188.083 356.234C190.333 356.234 192.079 354.236 192.079 351.5ZM195.721 356V350.672C195.865 349.484 196.585 348.368 197.971 348.368C198.277 348.368 198.709 348.422 198.961 348.494V346.982C198.781 346.91 198.349 346.838 198.043 346.838C196.999 346.838 196.027 347.756 195.667 348.89V347.072H194.191V356H195.721ZM202.242 347.072H200.712V356H202.242V347.072ZM202.242 343.526H200.712V345.308H202.242V343.526ZM213.011 351.554C213.011 348.818 211.193 346.838 208.691 346.838C206.189 346.838 204.353 348.818 204.353 351.554C204.353 354.254 206.189 356.234 208.691 356.234C211.193 356.234 213.011 354.254 213.011 351.554ZM205.973 351.554C205.973 349.574 207.107 348.116 208.691 348.116C210.257 348.116 211.391 349.574 211.391 351.554C211.391 353.498 210.257 354.938 208.691 354.938C207.107 354.938 205.973 353.498 205.973 351.554ZM223.109 354.956C222.263 354.956 221.327 354.506 220.787 353.858V349.52C221.255 348.8 222.137 348.098 223.181 348.098C224.675 348.098 225.791 349.448 225.791 351.5C225.791 353.534 224.675 354.956 223.109 354.956ZM227.411 351.5C227.411 348.764 225.683 346.838 223.577 346.838C222.209 346.838 221.201 347.666 220.733 348.404V347.072H219.257V359.276H220.787V355.064C221.363 355.766 222.353 356.234 223.415 356.234C225.665 356.234 227.411 354.236 227.411 351.5ZM237.515 351.554C237.515 348.818 235.697 346.838 233.195 346.838C230.693 346.838 228.857 348.818 228.857 351.554C228.857 354.254 230.693 356.234 233.195 356.234C235.697 356.234 237.515 354.254 237.515 351.554ZM230.477 351.554C230.477 349.574 231.611 348.116 233.195 348.116C234.761 348.116 235.895 349.574 235.895 351.554C235.895 353.498 234.761 354.938 233.195 354.938C231.611 354.938 230.477 353.498 230.477 351.554ZM244.566 355.946V354.668C244.188 354.812 243.558 354.92 243 354.92C241.866 354.92 241.416 354.362 241.416 353.516V348.332H244.512V347.072H241.416V344.894H239.886V347.072H238.572V348.332H239.886V353.768C239.886 355.334 240.948 356.234 242.73 356.234C243.396 356.234 244.17 356.09 244.566 355.946ZM253.351 353.966L252.127 353.498C251.659 354.416 250.795 354.974 249.823 354.974C248.329 354.974 247.249 353.732 247.141 351.86H253.333C253.387 351.626 253.423 351.14 253.423 350.744C253.423 348.458 251.857 346.838 249.679 346.838C247.303 346.838 245.539 348.854 245.539 351.608C245.539 354.308 247.303 356.234 249.733 356.234C251.335 356.234 252.721 355.388 253.351 353.966ZM249.697 348.08C250.957 348.08 251.839 349.088 251.893 350.636H247.231C247.501 349.088 248.455 348.08 249.697 348.08ZM257.104 356V350.672C257.248 349.484 257.968 348.368 259.354 348.368C259.66 348.368 260.092 348.422 260.344 348.494V346.982C260.164 346.91 259.732 346.838 259.426 346.838C258.382 346.838 257.41 347.756 257.05 348.89V347.072H255.574V356H257.104ZM269.013 353.966L267.789 353.498C267.321 354.416 266.457 354.974 265.485 354.974C263.991 354.974 262.911 353.732 262.803 351.86H268.995C269.049 351.626 269.085 351.14 269.085 350.744C269.085 348.458 267.519 346.838 265.341 346.838C262.965 346.838 261.201 348.854 261.201 351.608C261.201 354.308 262.965 356.234 265.395 356.234C266.997 356.234 268.383 355.388 269.013 353.966ZM265.359 348.08C266.619 348.08 267.501 349.088 267.555 350.636H262.893C263.163 349.088 264.117 348.08 265.359 348.08ZM90.932 376.956C89.438 376.956 88.376 375.534 88.376 373.59C88.376 371.592 89.492 370.134 91.04 370.134C91.994 370.134 92.876 370.566 93.344 371.25V375.66C92.822 376.434 91.868 376.956 90.932 376.956ZM94.874 378V365.328H93.344V370.044C92.732 369.324 91.688 368.838 90.716 368.838C88.412 368.838 86.738 370.836 86.738 373.608C86.738 376.29 88.358 378.234 90.59 378.234C91.616 378.234 92.768 377.604 93.434 376.722V378H94.874ZM97.4536 370.728H98.4616L98.6056 366.156H97.3096L97.4536 370.728ZM108.231 378.144L108.303 376.974C108.195 376.992 108.015 377.01 107.907 377.01C107.367 377.01 107.097 376.632 107.097 376.146V372.042C107.097 369.972 105.837 368.838 103.893 368.838C102.345 368.838 100.995 369.702 100.347 371.106L101.535 371.592C101.985 370.746 102.687 370.116 103.749 370.116C104.847 370.116 105.567 370.872 105.567 371.988V372.69L103.479 372.942C101.499 373.194 100.095 374.148 100.095 375.804C100.095 377.226 101.229 378.234 102.813 378.234C104.073 378.234 105.063 377.622 105.639 376.668C105.855 377.694 106.521 378.234 107.529 378.234C107.799 378.234 108.015 378.198 108.231 378.144ZM103.227 376.992C102.327 376.992 101.697 376.452 101.697 375.696C101.697 374.778 102.561 374.238 103.749 374.094L105.567 373.878V375.516C105.099 376.38 104.217 376.992 103.227 376.992ZM116.869 375.804L115.573 375.3C115.141 376.29 114.421 376.92 113.431 376.92C111.973 376.92 110.911 375.534 110.911 373.608C110.911 371.592 111.937 370.134 113.359 370.134C114.259 370.134 115.033 370.692 115.465 371.736L116.797 371.196C116.167 369.756 114.961 368.838 113.323 368.838C110.983 368.838 109.291 370.836 109.291 373.608C109.291 376.29 111.001 378.234 113.377 378.234C115.015 378.234 116.293 377.208 116.869 375.804ZM122.382 376.956C120.852 376.956 119.7 375.606 119.7 373.608C119.7 371.574 120.834 370.098 122.436 370.098C123.318 370.098 124.182 370.584 124.704 371.286V375.678C124.272 376.38 123.372 376.956 122.382 376.956ZM126.234 381.276V369.072H124.74V370.206C124.164 369.378 123.156 368.838 122.04 368.838C119.88 368.838 118.08 370.782 118.08 373.59C118.08 376.29 119.79 378.234 121.986 378.234C123.12 378.234 124.128 377.694 124.704 376.884V381.276H126.234ZM136.211 378V369.072H134.681V375.228C134.231 376.218 133.367 376.938 132.305 376.938C131.207 376.938 130.415 376.074 130.415 374.868V369.072H128.885V374.976C128.885 376.866 130.145 378.234 131.873 378.234C133.187 378.234 134.213 377.478 134.735 376.524V378H136.211ZM140.508 369.072H138.978V378H140.508V369.072ZM140.508 365.526H138.978V367.308H140.508V365.526ZM150.106 375.552C150.106 373.896 148.702 373.212 146.686 372.78C145.174 372.438 144.31 372.168 144.31 371.376C144.31 370.62 145.156 370.098 146.344 370.098C147.586 370.098 148.414 370.62 148.828 371.484L150.052 370.998C149.53 369.9 148.432 368.838 146.362 368.838C144.256 368.838 142.816 369.954 142.816 371.466C142.816 373.014 144.274 373.734 146.254 374.148C147.784 374.472 148.63 374.778 148.63 375.624C148.63 376.434 147.874 376.992 146.56 376.992C145.066 376.992 144.112 376.326 143.662 375.444L142.402 375.93C143.014 377.334 144.454 378.234 146.488 378.234C148.756 378.234 150.106 377.136 150.106 375.552ZM157.202 377.946V376.668C156.824 376.812 156.194 376.92 155.636 376.92C154.502 376.92 154.052 376.362 154.052 375.516V370.332H157.148V369.072H154.052V366.894H152.522V369.072H151.208V370.332H152.522V375.768C152.522 377.334 153.584 378.234 155.366 378.234C156.032 378.234 156.806 378.09 157.202 377.946ZM166.816 373.554C166.816 370.818 164.998 368.838 162.496 368.838C159.994 368.838 158.158 370.818 158.158 373.554C158.158 376.254 159.994 378.234 162.496 378.234C164.998 378.234 166.816 376.254 166.816 373.554ZM159.778 373.554C159.778 371.574 160.912 370.116 162.496 370.116C164.062 370.116 165.196 371.574 165.196 373.554C165.196 375.498 164.062 376.938 162.496 376.938C160.912 376.938 159.778 375.498 159.778 373.554Z" fill="white"/>
<path d="M88.916 162.328H87.386V175H88.916V162.328ZM111.261 175.03V172.63H113.511V168.76H111.261V159.04H106.581L97.7307 169.03V172.63H106.311V175.03H111.261ZM106.461 168.82H102.111L106.461 163.9V168.82ZM123.12 166.09C121.47 166.09 120.57 165.28 120.57 164.2C120.57 162.97 121.68 162.07 123.09 162.07C124.71 162.07 125.85 163.12 126.3 165.01C125.46 165.73 124.29 166.09 123.12 166.09ZM115.38 164.38C115.38 167.32 118.05 169.45 121.68 169.45C123.51 169.45 125.22 168.91 126.42 168.1C126.12 170.68 124.83 171.97 122.43 171.97C120.78 171.97 119.19 171.31 118.23 170.29L115.02 172.27C116.37 173.95 119.01 175.42 122.64 175.42C128.13 175.42 131.55 172.06 131.55 166.84C131.55 161.8 127.92 158.62 123.06 158.62C118.8 158.62 115.38 161.11 115.38 164.38ZM152.836 156.55L151.426 155.14C150.046 156.28 147.946 157 145.816 157C144.256 157 142.546 156.7 141.346 156.28C140.506 155.56 139.396 155.14 138.136 155.14C135.256 155.14 133.186 157.3 133.186 160.27C133.186 163.24 135.256 165.37 138.136 165.37C141.016 165.37 143.086 163.24 143.086 160.27C143.086 159.67 142.996 159.07 142.846 158.56C143.776 158.98 144.826 159.22 145.756 159.22C146.626 159.19 147.586 158.92 148.546 158.41L134.746 174.01L136.216 175.45L152.836 156.55ZM154.516 170.35C154.516 167.38 152.446 165.22 149.566 165.22C146.686 165.22 144.616 167.38 144.616 170.35C144.616 173.32 146.686 175.45 149.566 175.45C152.446 175.45 154.516 173.32 154.516 170.35ZM147.886 170.35C147.886 168.94 148.606 167.92 149.566 167.92C150.556 167.92 151.246 168.94 151.246 170.35C151.246 171.73 150.556 172.72 149.566 172.72C148.606 172.72 147.886 171.73 147.886 170.35ZM136.456 160.27C136.456 158.86 137.176 157.84 138.136 157.84C139.126 157.84 139.816 158.86 139.816 160.27C139.816 161.65 139.126 162.64 138.136 162.64C137.176 162.64 136.456 161.65 136.456 160.27ZM165.903 173.956C164.409 173.956 163.347 172.534 163.347 170.59C163.347 168.592 164.463 167.134 166.011 167.134C166.965 167.134 167.847 167.566 168.315 168.25V172.66C167.793 173.434 166.839 173.956 165.903 173.956ZM169.845 175V162.328H168.315V167.044C167.703 166.324 166.659 165.838 165.687 165.838C163.383 165.838 161.709 167.836 161.709 170.608C161.709 173.29 163.329 175.234 165.561 175.234C166.587 175.234 167.739 174.604 168.405 173.722V175H169.845ZM179.786 172.966L178.562 172.498C178.094 173.416 177.23 173.974 176.258 173.974C174.764 173.974 173.684 172.732 173.576 170.86H179.768C179.822 170.626 179.858 170.14 179.858 169.744C179.858 167.458 178.292 165.838 176.114 165.838C173.738 165.838 171.974 167.854 171.974 170.608C171.974 173.308 173.738 175.234 176.168 175.234C177.77 175.234 179.156 174.388 179.786 172.966ZM176.132 167.08C177.392 167.08 178.274 168.088 178.328 169.636H173.666C173.936 168.088 174.89 167.08 176.132 167.08ZM183.539 166.072H182.009V175H183.539V166.072ZM183.539 162.526H182.009V164.308H183.539V162.526ZM197.394 172.804L196.098 172.3C195.666 173.29 194.946 173.92 193.956 173.92C192.498 173.92 191.436 172.534 191.436 170.608C191.436 168.592 192.462 167.134 193.884 167.134C194.784 167.134 195.558 167.692 195.99 168.736L197.322 168.196C196.692 166.756 195.486 165.838 193.848 165.838C191.508 165.838 189.816 167.836 189.816 170.608C189.816 173.29 191.526 175.234 193.902 175.234C195.54 175.234 196.818 174.208 197.394 172.804ZM200.783 166.072H199.253V175H200.783V166.072ZM200.783 162.526H199.253V164.308H200.783V162.526ZM208.636 174.946V173.668C208.258 173.812 207.628 173.92 207.07 173.92C205.936 173.92 205.486 173.362 205.486 172.516V167.332H208.582V166.072H205.486V163.894H203.956V166.072H202.642V167.332H203.956V172.768C203.956 174.334 205.018 175.234 206.8 175.234C207.466 175.234 208.24 175.09 208.636 174.946ZM215.421 174.946V173.668C215.043 173.812 214.413 173.92 213.855 173.92C212.721 173.92 212.271 173.362 212.271 172.516V167.332H215.367V166.072H212.271V163.894H210.741V166.072H209.427V167.332H210.741V172.768C210.741 174.334 211.803 175.234 213.585 175.234C214.251 175.234 215.025 175.09 215.421 174.946ZM224.528 175.144L224.6 173.974C224.492 173.992 224.312 174.01 224.204 174.01C223.664 174.01 223.394 173.632 223.394 173.146V169.042C223.394 166.972 222.134 165.838 220.19 165.838C218.642 165.838 217.292 166.702 216.644 168.106L217.832 168.592C218.282 167.746 218.984 167.116 220.046 167.116C221.144 167.116 221.864 167.872 221.864 168.988V169.69L219.776 169.942C217.796 170.194 216.392 171.148 216.392 172.804C216.392 174.226 217.526 175.234 219.11 175.234C220.37 175.234 221.36 174.622 221.936 173.668C222.152 174.694 222.818 175.234 223.826 175.234C224.096 175.234 224.312 175.198 224.528 175.144ZM219.524 173.992C218.624 173.992 217.994 173.452 217.994 172.696C217.994 171.778 218.858 171.238 220.046 171.094L221.864 170.878V172.516C221.396 173.38 220.514 173.992 219.524 173.992ZM229.782 173.956C228.288 173.956 227.226 172.534 227.226 170.59C227.226 168.592 228.342 167.134 229.89 167.134C230.844 167.134 231.726 167.566 232.194 168.25V172.66C231.672 173.434 230.718 173.956 229.782 173.956ZM233.724 175V162.328H232.194V167.044C231.582 166.324 230.538 165.838 229.566 165.838C227.262 165.838 225.588 167.836 225.588 170.608C225.588 173.29 227.208 175.234 229.44 175.234C230.466 175.234 231.618 174.604 232.284 173.722V175H233.724ZM238.031 166.072H236.501V175H238.031V166.072ZM238.031 162.526H236.501V164.308H238.031V162.526ZM248.314 175V169.096C248.314 167.188 246.982 165.838 245.236 165.838C243.958 165.838 242.878 166.594 242.284 167.44V166.072H240.808V175H242.338V168.52C242.896 167.728 243.868 167.134 244.876 167.134C245.992 167.134 246.784 167.962 246.784 169.204V175H248.314ZM252.516 166.072H250.986V175H252.516V166.072ZM252.516 162.526H250.986V164.308H252.516V162.526ZM88.916 197V191.672C89.06 190.484 89.78 189.368 91.166 189.368C91.472 189.368 91.904 189.422 92.156 189.494V187.982C91.976 187.91 91.544 187.838 91.238 187.838C90.194 187.838 89.222 188.756 88.862 189.89V188.072H87.386V197H88.916ZM95.4375 188.072H93.9075V197H95.4375V188.072ZM95.4375 184.526H93.9075V186.308H95.4375V184.526ZM103.29 196.946V195.668C102.912 195.812 102.282 195.92 101.724 195.92C100.59 195.92 100.14 195.362 100.14 194.516V189.332H103.236V188.072H100.14V185.894H98.6101V188.072H97.2961V189.332H98.6101V194.768C98.6101 196.334 99.6721 197.234 101.454 197.234C102.12 197.234 102.894 197.09 103.29 196.946ZM106.529 188.072H104.999V197H106.529V188.072ZM106.529 184.526H104.999V186.308H106.529V184.526ZM116.47 194.966L115.246 194.498C114.778 195.416 113.914 195.974 112.942 195.974C111.448 195.974 110.368 194.732 110.26 192.86H116.452C116.506 192.626 116.542 192.14 116.542 191.744C116.542 189.458 114.976 187.838 112.798 187.838C110.422 187.838 108.658 189.854 108.658 192.608C108.658 195.308 110.422 197.234 112.852 197.234C114.454 197.234 115.84 196.388 116.47 194.966ZM112.816 189.08C114.076 189.08 114.958 190.088 115.012 191.636H110.35C110.62 190.088 111.574 189.08 112.816 189.08ZM126.199 197V191.096C126.199 189.188 124.867 187.838 123.121 187.838C121.843 187.838 120.763 188.594 120.169 189.44V188.072H118.693V197H120.223V190.52C120.781 189.728 121.753 189.134 122.761 189.134C123.877 189.134 124.669 189.962 124.669 191.204V197H126.199ZM136.034 194.966L134.81 194.498C134.342 195.416 133.478 195.974 132.506 195.974C131.012 195.974 129.932 194.732 129.824 192.86H136.016C136.07 192.626 136.106 192.14 136.106 191.744C136.106 189.458 134.54 187.838 132.362 187.838C129.986 187.838 128.222 189.854 128.222 192.608C128.222 195.308 129.986 197.234 132.416 197.234C134.018 197.234 135.404 196.388 136.034 194.966ZM132.38 189.08C133.64 189.08 134.522 190.088 134.576 191.636H129.914C130.184 190.088 131.138 189.08 132.38 189.08ZM149.336 194.804L148.04 194.3C147.608 195.29 146.888 195.92 145.898 195.92C144.44 195.92 143.378 194.534 143.378 192.608C143.378 190.592 144.404 189.134 145.826 189.134C146.726 189.134 147.5 189.692 147.932 190.736L149.264 190.196C148.634 188.756 147.428 187.838 145.79 187.838C143.45 187.838 141.758 189.836 141.758 192.608C141.758 195.29 143.468 197.234 145.844 197.234C147.482 197.234 148.76 196.208 149.336 194.804ZM158.701 197V191.114C158.701 189.188 157.369 187.838 155.623 187.838C154.381 187.838 153.319 188.54 152.725 189.368V184.328H151.195V197H152.725V190.52C153.283 189.728 154.255 189.134 155.263 189.134C156.379 189.134 157.171 189.962 157.171 191.204V197H158.701ZM168.536 194.966L167.312 194.498C166.844 195.416 165.98 195.974 165.008 195.974C163.514 195.974 162.434 194.732 162.326 192.86H168.518C168.572 192.626 168.608 192.14 168.608 191.744C168.608 189.458 167.042 187.838 164.864 187.838C162.488 187.838 160.724 189.854 160.724 192.608C160.724 195.308 162.488 197.234 164.918 197.234C166.52 197.234 167.906 196.388 168.536 194.966ZM164.882 189.08C166.142 189.08 167.024 190.088 167.078 191.636H162.416C162.686 190.088 163.64 189.08 164.882 189.08ZM176.437 184.328H174.907V197H176.437V184.328ZM186.612 197.144L186.684 195.974C186.576 195.992 186.396 196.01 186.288 196.01C185.748 196.01 185.478 195.632 185.478 195.146V191.042C185.478 188.972 184.218 187.838 182.274 187.838C180.726 187.838 179.376 188.702 178.728 190.106L179.916 190.592C180.366 189.746 181.068 189.116 182.13 189.116C183.228 189.116 183.948 189.872 183.948 190.988V191.69L181.86 191.942C179.88 192.194 178.476 193.148 178.476 194.804C178.476 196.226 179.61 197.234 181.194 197.234C182.454 197.234 183.444 196.622 184.02 195.668C184.236 196.694 184.902 197.234 185.91 197.234C186.18 197.234 186.396 197.198 186.612 197.144ZM181.608 195.992C180.708 195.992 180.078 195.452 180.078 194.696C180.078 193.778 180.942 193.238 182.13 193.094L183.948 192.878V194.516C183.48 195.38 182.598 195.992 181.608 195.992ZM196.32 195.956C195.474 195.956 194.538 195.506 193.998 194.858V190.52C194.466 189.8 195.348 189.098 196.392 189.098C197.886 189.098 199.002 190.448 199.002 192.5C199.002 194.534 197.886 195.956 196.32 195.956ZM200.622 192.5C200.622 189.764 198.894 187.838 196.788 187.838C195.42 187.838 194.412 188.666 193.944 189.404V188.072H192.468V200.276H193.998V196.064C194.574 196.766 195.564 197.234 196.626 197.234C198.876 197.234 200.622 195.236 200.622 192.5ZM210.726 192.554C210.726 189.818 208.908 187.838 206.406 187.838C203.904 187.838 202.068 189.818 202.068 192.554C202.068 195.254 203.904 197.234 206.406 197.234C208.908 197.234 210.726 195.254 210.726 192.554ZM203.688 192.554C203.688 190.574 204.822 189.116 206.406 189.116C207.972 189.116 209.106 190.574 209.106 192.554C209.106 194.498 207.972 195.938 206.406 195.938C204.822 195.938 203.688 194.498 203.688 192.554ZM214.354 184.328H212.824V197H214.354V184.328ZM218.66 188.072H217.13V197H218.66V188.072ZM218.66 184.526H217.13V186.308H218.66V184.526ZM226.513 196.946V195.668C226.135 195.812 225.505 195.92 224.947 195.92C223.813 195.92 223.363 195.362 223.363 194.516V189.332H226.459V188.072H223.363V185.894H221.833V188.072H220.519V189.332H221.833V194.768C221.833 196.334 222.895 197.234 224.677 197.234C225.343 197.234 226.117 197.09 226.513 196.946ZM229.752 188.072H228.222V197H229.752V188.072ZM229.752 184.526H228.222V186.308H229.752V184.526ZM239.459 194.804L238.163 194.3C237.731 195.29 237.011 195.92 236.021 195.92C234.563 195.92 233.501 194.534 233.501 192.608C233.501 190.592 234.527 189.134 235.949 189.134C236.849 189.134 237.623 189.692 238.055 190.736L239.387 190.196C238.757 188.756 237.551 187.838 235.913 187.838C233.573 187.838 231.881 189.836 231.881 192.608C231.881 195.29 233.591 197.234 235.967 197.234C237.605 197.234 238.883 196.208 239.459 194.804ZM248.716 197.144L248.788 195.974C248.68 195.992 248.5 196.01 248.392 196.01C247.852 196.01 247.582 195.632 247.582 195.146V191.042C247.582 188.972 246.322 187.838 244.378 187.838C242.83 187.838 241.48 188.702 240.832 190.106L242.02 190.592C242.47 189.746 243.172 189.116 244.234 189.116C245.332 189.116 246.052 189.872 246.052 190.988V191.69L243.964 191.942C241.984 192.194 240.58 193.148 240.58 194.804C240.58 196.226 241.714 197.234 243.298 197.234C244.558 197.234 245.548 196.622 246.124 195.668C246.34 196.694 247.006 197.234 248.014 197.234C248.284 197.234 248.5 197.198 248.716 197.144ZM243.712 195.992C242.812 195.992 242.182 195.452 242.182 194.696C242.182 193.778 243.046 193.238 244.234 193.094L246.052 192.878V194.516C245.584 195.38 244.702 195.992 243.712 195.992ZM94.316 216.804L93.02 216.3C92.588 217.29 91.868 217.92 90.878 217.92C89.42 217.92 88.358 216.534 88.358 214.608C88.358 212.592 89.384 211.134 90.806 211.134C91.706 211.134 92.48 211.692 92.912 212.736L94.244 212.196C93.614 210.756 92.408 209.838 90.77 209.838C88.43 209.838 86.738 211.836 86.738 214.608C86.738 217.29 88.448 219.234 90.824 219.234C92.462 219.234 93.74 218.208 94.316 216.804ZM97.7051 206.328H96.1751V219H97.7051V206.328ZM102.012 210.072H100.482V219H102.012V210.072ZM102.012 206.526H100.482V208.308H102.012V206.526ZM117.316 219V213.096C117.316 211.188 116.02 209.838 114.346 209.838C113.158 209.838 112.114 210.558 111.484 211.512C110.998 210.486 110.062 209.838 108.964 209.838C107.776 209.838 106.786 210.594 106.264 211.44V210.072H104.788V219H106.318V212.484C106.822 211.728 107.686 211.134 108.568 211.134C109.558 211.134 110.278 211.962 110.278 213.204V219H111.808V213.096C111.808 212.826 111.79 212.574 111.736 212.322C112.276 211.638 113.14 211.134 114.004 211.134C115.03 211.134 115.786 211.962 115.786 213.204V219H117.316ZM127.356 219.144L127.428 217.974C127.32 217.992 127.14 218.01 127.032 218.01C126.492 218.01 126.222 217.632 126.222 217.146V213.042C126.222 210.972 124.962 209.838 123.018 209.838C121.47 209.838 120.12 210.702 119.472 212.106L120.66 212.592C121.11 211.746 121.812 211.116 122.874 211.116C123.972 211.116 124.692 211.872 124.692 212.988V213.69L122.604 213.942C120.624 214.194 119.22 215.148 119.22 216.804C119.22 218.226 120.354 219.234 121.938 219.234C123.198 219.234 124.188 218.622 124.764 217.668C124.98 218.694 125.646 219.234 126.654 219.234C126.924 219.234 127.14 219.198 127.356 219.144ZM122.352 217.992C121.452 217.992 120.822 217.452 120.822 216.696C120.822 215.778 121.686 215.238 122.874 215.094L124.692 214.878V216.516C124.224 217.38 123.342 217.992 122.352 217.992ZM134.14 218.946V217.668C133.762 217.812 133.132 217.92 132.574 217.92C131.44 217.92 130.99 217.362 130.99 216.516V211.332H134.086V210.072H130.99V207.894H129.46V210.072H128.146V211.332H129.46V216.768C129.46 218.334 130.522 219.234 132.304 219.234C132.97 219.234 133.744 219.09 134.14 218.946ZM137.379 210.072H135.849V219H137.379V210.072ZM137.379 206.526H135.849V208.308H137.379V206.526ZM147.086 216.804L145.79 216.3C145.358 217.29 144.638 217.92 143.648 217.92C142.19 217.92 141.128 216.534 141.128 214.608C141.128 212.592 142.154 211.134 143.576 211.134C144.476 211.134 145.25 211.692 145.682 212.736L147.014 212.196C146.384 210.756 145.178 209.838 143.54 209.838C141.2 209.838 139.508 211.836 139.508 214.608C139.508 217.29 141.218 219.234 143.594 219.234C145.232 219.234 146.51 218.208 147.086 216.804ZM156.343 219.144L156.415 217.974C156.307 217.992 156.127 218.01 156.019 218.01C155.479 218.01 155.209 217.632 155.209 217.146V213.042C155.209 210.972 153.949 209.838 152.005 209.838C150.457 209.838 149.107 210.702 148.459 212.106L149.647 212.592C150.097 211.746 150.799 211.116 151.861 211.116C152.959 211.116 153.679 211.872 153.679 212.988V213.69L151.591 213.942C149.611 214.194 148.207 215.148 148.207 216.804C148.207 218.226 149.341 219.234 150.925 219.234C152.185 219.234 153.175 218.622 153.751 217.668C153.967 218.694 154.633 219.234 155.641 219.234C155.911 219.234 156.127 219.198 156.343 219.144ZM151.339 217.992C150.439 217.992 149.809 217.452 149.809 216.696C149.809 215.778 150.673 215.238 151.861 215.094L153.679 214.878V216.516C153.211 217.38 152.329 217.992 151.339 217.992ZM169.021 216.552C169.021 214.896 167.617 214.212 165.601 213.78C164.089 213.438 163.225 213.168 163.225 212.376C163.225 211.62 164.071 211.098 165.259 211.098C166.501 211.098 167.329 211.62 167.743 212.484L168.967 211.998C168.445 210.9 167.347 209.838 165.277 209.838C163.171 209.838 161.731 210.954 161.731 212.466C161.731 214.014 163.188 214.734 165.169 215.148C166.699 215.472 167.545 215.778 167.545 216.624C167.545 217.434 166.789 217.992 165.475 217.992C163.981 217.992 163.027 217.326 162.577 216.444L161.317 216.93C161.929 218.334 163.369 219.234 165.403 219.234C167.671 219.234 169.021 218.136 169.021 216.552ZM176.116 218.946V217.668C175.738 217.812 175.108 217.92 174.55 217.92C173.416 217.92 172.966 217.362 172.966 216.516V211.332H176.062V210.072H172.966V207.894H171.436V210.072H170.122V211.332H171.436V216.768C171.436 218.334 172.498 219.234 174.28 219.234C174.946 219.234 175.72 219.09 176.116 218.946ZM179.355 210.072H177.825V219H179.355V210.072ZM179.355 206.526H177.825V208.308H179.355V206.526ZM194.66 219V213.096C194.66 211.188 193.364 209.838 191.69 209.838C190.502 209.838 189.458 210.558 188.828 211.512C188.342 210.486 187.406 209.838 186.308 209.838C185.12 209.838 184.13 210.594 183.608 211.44V210.072H182.132V219H183.662V212.484C184.166 211.728 185.03 211.134 185.912 211.134C186.902 211.134 187.622 211.962 187.622 213.204V219H189.152V213.096C189.152 212.826 189.134 212.574 189.08 212.322C189.62 211.638 190.484 211.134 191.348 211.134C192.374 211.134 193.13 211.962 193.13 213.204V219H194.66ZM205.294 214.554C205.294 211.818 203.476 209.838 200.974 209.838C198.472 209.838 196.636 211.818 196.636 214.554C196.636 217.254 198.472 219.234 200.974 219.234C203.476 219.234 205.294 217.254 205.294 214.554ZM198.256 214.554C198.256 212.574 199.39 211.116 200.974 211.116C202.54 211.116 203.674 212.574 203.674 214.554C203.674 216.498 202.54 217.938 200.974 217.938C199.39 217.938 198.256 216.498 198.256 214.554ZM208.922 206.328H207.392V219H208.922V206.328ZM218.863 216.966L217.639 216.498C217.171 217.416 216.307 217.974 215.335 217.974C213.841 217.974 212.761 216.732 212.653 214.86H218.845C218.899 214.626 218.935 214.14 218.935 213.744C218.935 211.458 217.369 209.838 215.191 209.838C212.815 209.838 211.051 211.854 211.051 214.608C211.051 217.308 212.815 219.234 215.245 219.234C216.847 219.234 218.233 218.388 218.863 216.966ZM215.209 211.08C216.469 211.08 217.351 212.088 217.405 213.636H212.743C213.013 212.088 213.967 211.08 215.209 211.08ZM222.615 219V213.672C222.759 212.484 223.479 211.368 224.865 211.368C225.171 211.368 225.603 211.422 225.855 211.494V209.982C225.675 209.91 225.243 209.838 224.937 209.838C223.893 209.838 222.921 210.756 222.561 211.89V210.072H221.085V219H222.615ZM234.794 219.144L234.866 217.974C234.758 217.992 234.578 218.01 234.47 218.01C233.93 218.01 233.66 217.632 233.66 217.146V213.042C233.66 210.972 232.4 209.838 230.456 209.838C228.908 209.838 227.558 210.702 226.91 212.106L228.098 212.592C228.548 211.746 229.25 211.116 230.312 211.116C231.41 211.116 232.13 211.872 232.13 212.988V213.69L230.042 213.942C228.062 214.194 226.658 215.148 226.658 216.804C226.658 218.226 227.792 219.234 229.376 219.234C230.636 219.234 231.626 218.622 232.202 217.668C232.418 218.694 233.084 219.234 234.092 219.234C234.362 219.234 234.578 219.198 234.794 219.144ZM229.79 217.992C228.89 217.992 228.26 217.452 228.26 216.696C228.26 215.778 229.124 215.238 230.312 215.094L232.13 214.878V216.516C231.662 217.38 230.78 217.992 229.79 217.992ZM231.644 208.146L228.944 205.662L227.9 206.904L230.87 209.082L231.644 208.146ZM242.18 206.328H240.65V219H242.18V206.328ZM252.354 219.144L252.426 217.974C252.318 217.992 252.138 218.01 252.03 218.01C251.49 218.01 251.22 217.632 251.22 217.146V213.042C251.22 210.972 249.96 209.838 248.016 209.838C246.468 209.838 245.118 210.702 244.47 212.106L245.658 212.592C246.108 211.746 246.81 211.116 247.872 211.116C248.97 211.116 249.69 211.872 249.69 212.988V213.69L247.602 213.942C245.622 214.194 244.218 215.148 244.218 216.804C244.218 218.226 245.352 219.234 246.936 219.234C248.196 219.234 249.186 218.622 249.762 217.668C249.978 218.694 250.644 219.234 251.652 219.234C251.922 219.234 252.138 219.198 252.354 219.144ZM247.35 217.992C246.45 217.992 245.82 217.452 245.82 216.696C245.82 215.778 246.684 215.238 247.872 215.094L249.69 214.878V216.516C249.222 217.38 248.34 217.992 247.35 217.992ZM94.316 238.804L93.02 238.3C92.588 239.29 91.868 239.92 90.878 239.92C89.42 239.92 88.358 238.534 88.358 236.608C88.358 234.592 89.384 233.134 90.806 233.134C91.706 233.134 92.48 233.692 92.912 234.736L94.244 234.196C93.614 232.756 92.408 231.838 90.77 231.838C88.43 231.838 86.738 233.836 86.738 236.608C86.738 239.29 88.448 241.234 90.824 241.234C92.462 241.234 93.74 240.208 94.316 238.804ZM97.7051 241V235.672C97.8491 234.484 98.5691 233.368 99.9551 233.368C100.261 233.368 100.693 233.422 100.945 233.494V231.982C100.765 231.91 100.333 231.838 100.027 231.838C98.9831 231.838 98.0111 232.756 97.6511 233.89V232.072H96.1751V241H97.7051ZM109.614 238.966L108.39 238.498C107.922 239.416 107.058 239.974 106.086 239.974C104.592 239.974 103.512 238.732 103.404 236.86H109.596C109.65 236.626 109.686 236.14 109.686 235.744C109.686 233.458 108.12 231.838 105.942 231.838C103.566 231.838 101.802 233.854 101.802 236.608C101.802 239.308 103.566 241.234 105.996 241.234C107.598 241.234 108.984 240.388 109.614 238.966ZM105.96 233.08C107.22 233.08 108.102 234.088 108.156 235.636H103.494C103.764 234.088 104.718 233.08 105.96 233.08ZM118.659 238.552C118.659 236.896 117.255 236.212 115.239 235.78C113.727 235.438 112.863 235.168 112.863 234.376C112.863 233.62 113.709 233.098 114.897 233.098C116.139 233.098 116.967 233.62 117.381 234.484L118.605 233.998C118.083 232.9 116.985 231.838 114.915 231.838C112.809 231.838 111.369 232.954 111.369 234.466C111.369 236.014 112.827 236.734 114.807 237.148C116.337 237.472 117.183 237.778 117.183 238.624C117.183 239.434 116.427 239.992 115.113 239.992C113.619 239.992 112.665 239.326 112.215 238.444L110.955 238.93C111.567 240.334 113.007 241.234 115.041 241.234C117.309 241.234 118.659 240.136 118.659 238.552ZM127.679 238.804L126.383 238.3C125.951 239.29 125.231 239.92 124.241 239.92C122.783 239.92 121.721 238.534 121.721 236.608C121.721 234.592 122.747 233.134 124.169 233.134C125.069 233.134 125.843 233.692 126.275 234.736L127.607 234.196C126.977 232.756 125.771 231.838 124.133 231.838C121.793 231.838 120.101 233.836 120.101 236.608C120.101 239.29 121.811 241.234 124.187 241.234C125.825 241.234 127.103 240.208 127.679 238.804ZM131.068 232.072H129.538V241H131.068V232.072ZM131.068 228.526H129.538V230.308H131.068V228.526ZM138.921 240.946V239.668C138.543 239.812 137.913 239.92 137.355 239.92C136.221 239.92 135.771 239.362 135.771 238.516V233.332H138.867V232.072H135.771V229.894H134.241V232.072H132.927V233.332H134.241V238.768C134.241 240.334 135.303 241.234 137.085 241.234C137.751 241.234 138.525 241.09 138.921 240.946ZM148.028 241.144L148.1 239.974C147.992 239.992 147.812 240.01 147.704 240.01C147.164 240.01 146.894 239.632 146.894 239.146V235.042C146.894 232.972 145.634 231.838 143.69 231.838C142.142 231.838 140.792 232.702 140.144 234.106L141.332 234.592C141.782 233.746 142.484 233.116 143.546 233.116C144.644 233.116 145.364 233.872 145.364 234.988V235.69L143.276 235.942C141.296 236.194 139.892 237.148 139.892 238.804C139.892 240.226 141.026 241.234 142.61 241.234C143.87 241.234 144.86 240.622 145.436 239.668C145.652 240.694 146.318 241.234 147.326 241.234C147.596 241.234 147.812 241.198 148.028 241.144ZM143.024 239.992C142.124 239.992 141.494 239.452 141.494 238.696C141.494 237.778 142.358 237.238 143.546 237.094L145.364 236.878V238.516C144.896 239.38 144.014 239.992 143.024 239.992ZM161.048 238.966L159.824 238.498C159.356 239.416 158.492 239.974 157.52 239.974C156.026 239.974 154.946 238.732 154.838 236.86H161.03C161.084 236.626 161.12 236.14 161.12 235.744C161.12 233.458 159.554 231.838 157.376 231.838C155 231.838 153.236 233.854 153.236 236.608C153.236 239.308 155 241.234 157.43 241.234C159.032 241.234 160.418 240.388 161.048 238.966ZM157.394 233.08C158.654 233.08 159.536 234.088 159.59 235.636H154.928C155.198 234.088 156.152 233.08 157.394 233.08ZM170.201 238.804L168.905 238.3C168.473 239.29 167.753 239.92 166.763 239.92C165.305 239.92 164.243 238.534 164.243 236.608C164.243 234.592 165.269 233.134 166.691 233.134C167.591 233.134 168.365 233.692 168.797 234.736L170.129 234.196C169.499 232.756 168.293 231.838 166.655 231.838C164.315 231.838 162.623 233.836 162.623 236.608C162.623 239.29 164.333 241.234 166.709 241.234C168.347 241.234 169.625 240.208 170.201 238.804ZM180.052 236.554C180.052 233.818 178.234 231.838 175.732 231.838C173.23 231.838 171.394 233.818 171.394 236.554C171.394 239.254 173.23 241.234 175.732 241.234C178.234 241.234 180.052 239.254 180.052 236.554ZM173.014 236.554C173.014 234.574 174.148 233.116 175.732 233.116C177.298 233.116 178.432 234.574 178.432 236.554C178.432 238.498 177.298 239.938 175.732 239.938C174.148 239.938 173.014 238.498 173.014 236.554ZM189.656 241V235.096C189.656 233.188 188.324 231.838 186.578 231.838C185.3 231.838 184.22 232.594 183.626 233.44V232.072H182.15V241H183.68V234.52C184.238 233.728 185.21 233.134 186.218 233.134C187.334 233.134 188.126 233.962 188.126 235.204V241H189.656ZM200.319 236.554C200.319 233.818 198.501 231.838 195.999 231.838C193.497 231.838 191.661 233.818 191.661 236.554C191.661 239.254 193.497 241.234 195.999 241.234C198.501 241.234 200.319 239.254 200.319 236.554ZM193.281 236.554C193.281 234.574 194.415 233.116 195.999 233.116C197.565 233.116 198.699 234.574 198.699 236.554C198.699 238.498 197.565 239.938 195.999 239.938C194.415 239.938 193.281 238.498 193.281 236.554ZM214.945 241V235.096C214.945 233.188 213.649 231.838 211.975 231.838C210.787 231.838 209.743 232.558 209.113 233.512C208.627 232.486 207.691 231.838 206.593 231.838C205.405 231.838 204.415 232.594 203.893 233.44V232.072H202.417V241H203.947V234.484C204.451 233.728 205.315 233.134 206.197 233.134C207.187 233.134 207.907 233.962 207.907 235.204V241H209.437V235.096C209.437 234.826 209.419 234.574 209.365 234.322C209.905 233.638 210.769 233.134 211.633 233.134C212.659 233.134 213.415 233.962 213.415 235.204V241H214.945ZM219.117 232.072H217.587V241H219.117V232.072ZM219.117 228.526H217.587V230.308H219.117V228.526ZM228.824 238.804L227.528 238.3C227.096 239.29 226.376 239.92 225.386 239.92C223.928 239.92 222.866 238.534 222.866 236.608C222.866 234.592 223.892 233.134 225.314 233.134C226.214 233.134 226.988 233.692 227.42 234.736L228.752 234.196C228.122 232.756 226.916 231.838 225.278 231.838C222.938 231.838 221.246 233.836 221.246 236.608C221.246 239.29 222.956 241.234 225.332 241.234C226.97 241.234 228.248 240.208 228.824 238.804ZM238.081 241.144L238.153 239.974C238.045 239.992 237.865 240.01 237.757 240.01C237.217 240.01 236.947 239.632 236.947 239.146V235.042C236.947 232.972 235.687 231.838 233.743 231.838C232.195 231.838 230.845 232.702 230.197 234.106L231.385 234.592C231.835 233.746 232.537 233.116 233.599 233.116C234.697 233.116 235.417 233.872 235.417 234.988V235.69L233.329 235.942C231.349 236.194 229.945 237.148 229.945 238.804C229.945 240.226 231.079 241.234 232.663 241.234C233.923 241.234 234.913 240.622 235.489 239.668C235.705 240.694 236.371 241.234 237.379 241.234C237.649 241.234 237.865 241.198 238.081 241.144ZM233.077 239.992C232.177 239.992 231.547 239.452 231.547 238.696C231.547 237.778 232.411 237.238 233.599 237.094L235.417 236.878V238.516C234.949 239.38 234.067 239.992 233.077 239.992Z" fill="white"/>
<mask id="mask0_875_795" style="mask-type:alpha" maskUnits="userSpaceOnUse" x="268" y="153" width="67" height="332">
<path fill-rule="evenodd" clip-rule="evenodd" d="M335 254.848C335 243.914 325.858 234.632 313.073 231.078L312.661 207.987L308.109 207.836L307.972 202.049L305.08 200.025L303.618 153H301.498V153.713L301.495 153H299.293L297.924 200.022L295.032 201.994L294.895 207.807L290.339 207.979L289.927 231.073C277.142 234.627 268 243.911 268 254.845C268 266.617 278.593 276.19 292.922 279.039L292.867 283.562H286.744V294.753H292.044L284.205 485H318.784L310.949 294.753L316.252 294.751V283.559H310.205L310.081 279.037C324.406 276.193 335 266.622 335 254.848Z" fill="white" fill-opacity="0.2"/>
</mask>
<g mask="url(#mask0_875_795)">
<rect x="65" y="103" width="284" height="422" fill="#C4C4C4"/>
</g>
<defs>
<filter id="filter0_d_875_795" x="0.5" y="0.5" width="413" height="551" filterUnits="userSpaceOnUse" color-interpolation-filters="sRGB">
<feFlood flood-opacity="0" result="BackgroundImageFix"/>
<feColorMatrix in="SourceAlpha" type="matrix" values="0 0 0 0 0 0 0 0 0 0 0 0 0 0 0 0 0 0 127 0" result="hardAlpha"/>
<feOffset dy="4"/>
<feGaussianBlur stdDeviation="31.5"/>
<feComposite in2="hardAlpha" operator="out"/>
<feColorMatrix type="matrix" values="0 0 0 0 0 0 0 0 0 0 0 0 0 0 0 0 0 0 0.6 0"/>
<feBlend mode="normal" in2="BackgroundImageFix" result="effect1_dropShadow_875_795"/>
<feBlend mode="normal" in="SourceGraphic" in2="effect1_dropShadow_875_795" result="shape"/>
</filter>
</defs>
</svg>
