<svg width="414" height="552" viewBox="0 0 414 552" fill="none" xmlns="http://www.w3.org/2000/svg">
<g filter="url(#filter0_d_1098_1100)">
<path d="M65 66C65 63.2386 67.2386 61 70 61L344 61C346.761 61 349 63.2386 349 66L349 478C349 480.761 346.761 483 344 483L70 483C67.2386 483 65 480.761 65 478L65 66Z" fill="#1767D2"/>
<path d="M65 66C65 63.2386 67.2386 61 70 61L344 61C346.761 61 349 63.2386 349 66L349 478C349 480.761 346.761 483 344 483L70 483C67.2386 483 65 480.761 65 478L65 66Z" stroke="#1767D2" stroke-width="3"/>
</g>
<path d="M106.07 126V115.5H97.97V119.28H101.21V120.39C100.79 121.23 99.05 122.16 97.13 122.16C94.46 122.16 92.54 119.82 92.54 116.55C92.54 113.16 94.46 110.7 97.13 110.7C98.9 110.7 100.58 111.93 101.12 113.64L105.77 111.99C104.57 108.63 100.91 106.23 97.04 106.23C91.19 106.23 86.93 110.61 86.96 116.67C86.96 122.37 90.95 126.48 96.29 126.48C98.96 126.48 100.91 125.49 101.96 124.02L102.11 126H106.07ZM113.957 126V118.83C114.227 116.52 115.367 115.14 117.617 115.14C118.037 115.14 118.637 115.23 119.057 115.35V110.79C118.637 110.64 118.127 110.55 117.557 110.55C115.847 110.55 114.377 112.35 113.747 114.39V111H109.007V126H113.957ZM134.402 122.52L130.892 121.02C130.232 122.16 129.182 122.85 128.072 122.85C126.422 122.85 125.252 121.62 124.982 119.52H134.552C134.612 119.13 134.732 118.2 134.732 117.39C134.732 113.31 131.822 110.55 127.712 110.55C123.242 110.55 120.032 114.06 120.032 118.74C120.032 123.3 123.182 126.45 127.652 126.45C130.772 126.45 133.352 124.92 134.402 122.52ZM127.682 114.06C129.062 114.06 129.932 115.08 130.052 116.82H125.072C125.432 115.08 126.392 114.06 127.682 114.06ZM150.901 121.86L146.731 120.27C146.191 121.5 145.441 122.37 144.181 122.37C142.621 122.37 141.481 120.78 141.481 118.59C141.481 116.28 142.621 114.63 144.211 114.63C145.381 114.63 146.161 115.38 146.611 116.64L150.841 115.02C149.791 112.38 147.331 110.55 143.851 110.55C139.471 110.55 136.321 113.91 136.321 118.62C136.321 123.18 139.441 126.45 143.731 126.45C147.211 126.45 149.851 124.5 150.901 121.86ZM157.844 111H152.894V126H157.844V111ZM157.844 105.36H152.894V109.2H157.844V105.36ZM175.346 126.15L175.556 122.82C175.316 122.85 174.956 122.88 174.746 122.88C174.086 122.88 173.816 122.43 173.816 121.56V116.46C173.816 112.56 171.476 110.55 167.516 110.55C164.036 110.55 161.756 112.29 160.706 114.78L164.216 116.25C164.786 115.14 165.716 114.27 166.976 114.27C168.176 114.27 168.956 115.08 168.956 116.28V116.91L165.836 117.42C162.236 118.05 160.166 119.82 160.166 122.37C160.166 124.77 162.026 126.45 164.636 126.45C166.706 126.45 168.356 125.4 169.376 123.96C170.156 125.76 171.686 126.45 173.486 126.45C174.176 126.45 174.836 126.33 175.346 126.15ZM166.706 123C165.746 123 165.116 122.4 165.116 121.59C165.116 120.63 165.926 120.03 167.156 119.82L168.956 119.52V121.92C168.386 122.55 167.576 123 166.706 123Z" fill="white"/>
<path d="M89.24 300.354H87.584V312H89.24V300.354ZM93.7324 299.328H92.2024V312H93.7324V299.328ZM115.561 306.81C115.561 303.66 112.921 301.62 108.961 301.62C106.981 301.62 105.451 302.13 104.311 302.79L104.611 299.88H114.751V296.01H101.161L100.651 305.34L103.801 306.09C104.551 305.58 105.991 305.19 107.401 305.19C109.261 305.19 110.401 305.91 110.401 306.99C110.401 308.07 109.231 308.88 107.401 308.88C105.691 308.88 104.161 308.25 103.321 307.23L99.9615 309.06C101.461 311.25 104.341 312.45 107.881 312.45C112.381 312.45 115.561 310.05 115.561 306.81ZM131.26 299.85V296.04H116.95V300.24H126.07L119.02 312H124.57L131.26 299.85ZM152.308 293.55L150.898 292.14C149.518 293.28 147.418 294 145.288 294C143.728 294 142.018 293.7 140.818 293.28C139.978 292.56 138.868 292.14 137.608 292.14C134.728 292.14 132.658 294.3 132.658 297.27C132.658 300.24 134.728 302.37 137.608 302.37C140.488 302.37 142.558 300.24 142.558 297.27C142.558 296.67 142.468 296.07 142.318 295.56C143.248 295.98 144.298 296.22 145.228 296.22C146.098 296.19 147.058 295.92 148.018 295.41L134.218 311.01L135.688 312.45L152.308 293.55ZM153.988 307.35C153.988 304.38 151.918 302.22 149.038 302.22C146.158 302.22 144.088 304.38 144.088 307.35C144.088 310.32 146.158 312.45 149.038 312.45C151.918 312.45 153.988 310.32 153.988 307.35ZM147.358 307.35C147.358 305.94 148.078 304.92 149.038 304.92C150.028 304.92 150.718 305.94 150.718 307.35C150.718 308.73 150.028 309.72 149.038 309.72C148.078 309.72 147.358 308.73 147.358 307.35ZM135.928 297.27C135.928 295.86 136.648 294.84 137.608 294.84C138.598 294.84 139.288 295.86 139.288 297.27C139.288 298.65 138.598 299.64 137.608 299.64C136.648 299.64 135.928 298.65 135.928 297.27ZM161.795 312V306.672C161.939 305.484 162.659 304.368 164.045 304.368C164.351 304.368 164.783 304.422 165.035 304.494V302.982C164.855 302.91 164.423 302.838 164.117 302.838C163.073 302.838 162.101 303.756 161.741 304.89V303.072H160.265V312H161.795ZM168.316 303.072H166.786V312H168.316V303.072ZM168.316 299.526H166.786V301.308H168.316V299.526ZM176.169 311.946V310.668C175.791 310.812 175.161 310.92 174.603 310.92C173.469 310.92 173.019 310.362 173.019 309.516V304.332H176.115V303.072H173.019V300.894H171.489V303.072H170.175V304.332H171.489V309.768C171.489 311.334 172.551 312.234 174.333 312.234C174.999 312.234 175.773 312.09 176.169 311.946ZM179.408 303.072H177.878V312H179.408V303.072ZM179.408 299.526H177.878V301.308H179.408V299.526ZM189.349 309.966L188.125 309.498C187.657 310.416 186.793 310.974 185.821 310.974C184.327 310.974 183.247 309.732 183.139 307.86H189.331C189.385 307.626 189.421 307.14 189.421 306.744C189.421 304.458 187.855 302.838 185.677 302.838C183.301 302.838 181.537 304.854 181.537 307.608C181.537 310.308 183.301 312.234 185.731 312.234C187.333 312.234 188.719 311.388 189.349 309.966ZM185.695 304.08C186.955 304.08 187.837 305.088 187.891 306.636H183.229C183.499 305.088 184.453 304.08 185.695 304.08ZM199.078 312V306.096C199.078 304.188 197.746 302.838 196 302.838C194.722 302.838 193.642 303.594 193.048 304.44V303.072H191.572V312H193.102V305.52C193.66 304.728 194.632 304.134 195.64 304.134C196.756 304.134 197.548 304.962 197.548 306.204V312H199.078ZM208.913 309.966L207.689 309.498C207.221 310.416 206.357 310.974 205.385 310.974C203.891 310.974 202.811 309.732 202.703 307.86H208.895C208.949 307.626 208.985 307.14 208.985 306.744C208.985 304.458 207.419 302.838 205.241 302.838C202.865 302.838 201.101 304.854 201.101 307.608C201.101 310.308 202.865 312.234 205.295 312.234C206.897 312.234 208.283 311.388 208.913 309.966ZM205.259 304.08C206.519 304.08 207.401 305.088 207.455 306.636H202.793C203.063 305.088 204.017 304.08 205.259 304.08ZM222.214 309.804L220.918 309.3C220.486 310.29 219.766 310.92 218.776 310.92C217.318 310.92 216.256 309.534 216.256 307.608C216.256 305.592 217.282 304.134 218.704 304.134C219.604 304.134 220.378 304.692 220.81 305.736L222.142 305.196C221.512 303.756 220.306 302.838 218.668 302.838C216.328 302.838 214.636 304.836 214.636 307.608C214.636 310.29 216.346 312.234 218.722 312.234C220.36 312.234 221.638 311.208 222.214 309.804ZM231.58 312V306.114C231.58 304.188 230.248 302.838 228.502 302.838C227.26 302.838 226.198 303.54 225.604 304.368V299.328H224.074V312H225.604V305.52C226.162 304.728 227.134 304.134 228.142 304.134C229.258 304.134 230.05 304.962 230.05 306.204V312H231.58ZM241.415 309.966L240.191 309.498C239.723 310.416 238.859 310.974 237.887 310.974C236.393 310.974 235.313 309.732 235.205 307.86H241.397C241.451 307.626 241.487 307.14 241.487 306.744C241.487 304.458 239.921 302.838 237.743 302.838C235.367 302.838 233.603 304.854 233.603 307.608C233.603 310.308 235.367 312.234 237.797 312.234C239.399 312.234 240.785 311.388 241.415 309.966ZM237.761 304.08C239.021 304.08 239.903 305.088 239.957 306.636H235.295C235.565 305.088 236.519 304.08 237.761 304.08ZM249.316 299.328H247.786V312H249.316V299.328ZM259.257 309.966L258.033 309.498C257.565 310.416 256.701 310.974 255.729 310.974C254.235 310.974 253.155 309.732 253.047 307.86H259.239C259.293 307.626 259.329 307.14 259.329 306.744C259.329 304.458 257.763 302.838 255.585 302.838C253.209 302.838 251.445 304.854 251.445 307.608C251.445 310.308 253.209 312.234 255.639 312.234C257.241 312.234 258.627 311.388 259.257 309.966ZM255.603 304.08C256.863 304.08 257.745 305.088 257.799 306.636H253.137C253.407 305.088 254.361 304.08 255.603 304.08ZM91.238 332.956C90.392 332.956 89.456 332.506 88.916 331.858V327.52C89.384 326.8 90.266 326.098 91.31 326.098C92.804 326.098 93.92 327.448 93.92 329.5C93.92 331.534 92.804 332.956 91.238 332.956ZM95.54 329.5C95.54 326.764 93.812 324.838 91.706 324.838C90.338 324.838 89.33 325.666 88.862 326.404V325.072H87.386V337.276H88.916V333.064C89.492 333.766 90.482 334.234 91.544 334.234C93.794 334.234 95.54 332.236 95.54 329.5ZM105.644 329.554C105.644 326.818 103.826 324.838 101.324 324.838C98.8216 324.838 96.9856 326.818 96.9856 329.554C96.9856 332.254 98.8216 334.234 101.324 334.234C103.826 334.234 105.644 332.254 105.644 329.554ZM98.6056 329.554C98.6056 327.574 99.7396 326.116 101.324 326.116C102.89 326.116 104.024 327.574 104.024 329.554C104.024 331.498 102.89 332.938 101.324 332.938C99.7396 332.938 98.6056 331.498 98.6056 329.554ZM109.271 321.328H107.741V334H109.271V321.328ZM113.578 325.072H112.048V334H113.578V325.072ZM113.578 321.526H112.048V323.308H113.578V321.526ZM121.431 333.946V332.668C121.053 332.812 120.423 332.92 119.865 332.92C118.731 332.92 118.281 332.362 118.281 331.516V326.332H121.377V325.072H118.281V322.894H116.751V325.072H115.437V326.332H116.751V331.768C116.751 333.334 117.813 334.234 119.595 334.234C120.261 334.234 121.035 334.09 121.431 333.946ZM124.67 325.072H123.14V334H124.67V325.072ZM124.67 321.526H123.14V323.308H124.67V321.526ZM134.377 331.804L133.081 331.3C132.649 332.29 131.929 332.92 130.939 332.92C129.481 332.92 128.419 331.534 128.419 329.608C128.419 327.592 129.445 326.134 130.867 326.134C131.767 326.134 132.541 326.692 132.973 327.736L134.305 327.196C133.675 325.756 132.469 324.838 130.831 324.838C128.491 324.838 126.799 326.836 126.799 329.608C126.799 332.29 128.509 334.234 130.885 334.234C132.523 334.234 133.801 333.208 134.377 331.804ZM143.742 334V328.114C143.742 326.188 142.41 324.838 140.664 324.838C139.422 324.838 138.36 325.54 137.766 326.368V321.328H136.236V334H137.766V327.52C138.324 326.728 139.296 326.134 140.304 326.134C141.42 326.134 142.212 326.962 142.212 328.204V334H143.742ZM153.577 331.966L152.353 331.498C151.885 332.416 151.021 332.974 150.049 332.974C148.555 332.974 147.475 331.732 147.367 329.86H153.559C153.613 329.626 153.649 329.14 153.649 328.744C153.649 326.458 152.083 324.838 149.905 324.838C147.529 324.838 145.765 326.854 145.765 329.608C145.765 332.308 147.529 334.234 149.959 334.234C151.561 334.234 152.947 333.388 153.577 331.966ZM149.923 326.08C151.183 326.08 152.065 327.088 152.119 328.636H147.457C147.727 327.088 148.681 326.08 149.923 326.08ZM163.801 332.956C162.955 332.956 162.019 332.506 161.479 331.858V327.52C161.947 326.8 162.829 326.098 163.873 326.098C165.367 326.098 166.483 327.448 166.483 329.5C166.483 331.534 165.367 332.956 163.801 332.956ZM168.103 329.5C168.103 326.764 166.375 324.838 164.269 324.838C162.901 324.838 161.893 325.666 161.425 326.404V325.072H159.949V337.276H161.479V333.064C162.055 333.766 163.045 334.234 164.107 334.234C166.357 334.234 168.103 332.236 168.103 329.5ZM177.378 331.966L176.154 331.498C175.686 332.416 174.822 332.974 173.85 332.974C172.356 332.974 171.276 331.732 171.168 329.86H177.36C177.414 329.626 177.45 329.14 177.45 328.744C177.45 326.458 175.884 324.838 173.706 324.838C171.33 324.838 169.566 326.854 169.566 329.608C169.566 332.308 171.33 334.234 173.76 334.234C175.362 334.234 176.748 333.388 177.378 331.966ZM173.724 326.08C174.984 326.08 175.866 327.088 175.92 328.636H171.258C171.528 327.088 172.482 326.08 173.724 326.08ZM181.131 334V328.672C181.275 327.484 181.995 326.368 183.381 326.368C183.687 326.368 184.119 326.422 184.371 326.494V324.982C184.191 324.91 183.759 324.838 183.453 324.838C182.409 324.838 181.437 325.756 181.077 326.89V325.072H179.601V334H181.131ZM197.247 334.144L197.319 332.974C197.211 332.992 197.031 333.01 196.923 333.01C196.383 333.01 196.113 332.632 196.113 332.146V328.042C196.113 325.972 194.853 324.838 192.909 324.838C191.361 324.838 190.011 325.702 189.363 327.106L190.551 327.592C191.001 326.746 191.703 326.116 192.765 326.116C193.863 326.116 194.583 326.872 194.583 327.988V328.69L192.495 328.942C190.515 329.194 189.111 330.148 189.111 331.804C189.111 333.226 190.245 334.234 191.829 334.234C193.089 334.234 194.079 333.622 194.655 332.668C194.871 333.694 195.537 334.234 196.545 334.234C196.815 334.234 197.031 334.198 197.247 334.144ZM192.243 332.992C191.343 332.992 190.713 332.452 190.713 331.696C190.713 330.778 191.577 330.238 192.765 330.094L194.583 329.878V331.516C194.115 332.38 193.233 332.992 192.243 332.992ZM204.192 326.332V325.072H200.934V324.712C200.934 323.236 201.672 322.372 202.86 322.372C203.346 322.372 203.94 322.462 204.336 322.624L204.372 321.346C203.958 321.22 203.238 321.094 202.698 321.094C200.646 321.094 199.404 322.444 199.404 324.73V325.072H198.252V326.332H199.404V334H200.934V326.332H204.192ZM211.013 326.332V325.072H207.755V324.712C207.755 323.236 208.493 322.372 209.681 322.372C210.167 322.372 210.761 322.462 211.157 322.624L211.193 321.346C210.779 321.22 210.059 321.094 209.519 321.094C207.467 321.094 206.225 322.444 206.225 324.73V325.072H205.073V326.332H206.225V334H207.755V326.332H211.013ZM214.125 334V328.672C214.269 327.484 214.989 326.368 216.375 326.368C216.681 326.368 217.113 326.422 217.365 326.494V324.982C217.185 324.91 216.753 324.838 216.447 324.838C215.403 324.838 214.431 325.756 214.071 326.89V325.072H212.595V334H214.125ZM226.862 329.554C226.862 326.818 225.044 324.838 222.542 324.838C220.04 324.838 218.204 326.818 218.204 329.554C218.204 332.254 220.04 334.234 222.542 334.234C225.044 334.234 226.862 332.254 226.862 329.554ZM219.824 329.554C219.824 327.574 220.958 326.116 222.542 326.116C224.108 326.116 225.242 327.574 225.242 329.554C225.242 331.498 224.108 332.938 222.542 332.938C220.958 332.938 219.824 331.498 219.824 329.554ZM236.466 334V328.096C236.466 326.188 235.134 324.838 233.388 324.838C232.11 324.838 231.03 325.594 230.436 326.44V325.072H228.96V334H230.49V327.52C231.048 326.728 232.02 326.134 233.028 326.134C234.144 326.134 234.936 326.962 234.936 328.204V334H236.466ZM244.108 333.946V332.668C243.73 332.812 243.1 332.92 242.542 332.92C241.408 332.92 240.958 332.362 240.958 331.516V326.332H244.054V325.072H240.958V322.894H239.428V325.072H238.114V326.332H239.428V331.768C239.428 333.334 240.49 334.234 242.272 334.234C242.938 334.234 243.712 334.09 244.108 333.946ZM253.216 334.144L253.288 332.974C253.18 332.992 253 333.01 252.892 333.01C252.352 333.01 252.082 332.632 252.082 332.146V328.042C252.082 325.972 250.822 324.838 248.878 324.838C247.33 324.838 245.98 325.702 245.332 327.106L246.52 327.592C246.97 326.746 247.672 326.116 248.734 326.116C249.832 326.116 250.552 326.872 250.552 327.988V328.69L248.464 328.942C246.484 329.194 245.08 330.148 245.08 331.804C245.08 333.226 246.214 334.234 247.798 334.234C249.058 334.234 250.048 333.622 250.624 332.668C250.84 333.694 251.506 334.234 252.514 334.234C252.784 334.234 253 334.198 253.216 334.144ZM248.212 332.992C247.312 332.992 246.682 332.452 246.682 331.696C246.682 330.778 247.546 330.238 248.734 330.094L250.552 329.878V331.516C250.084 332.38 249.202 332.992 248.212 332.992ZM256.453 334V328.672C256.597 327.484 257.317 326.368 258.703 326.368C259.009 326.368 259.441 326.422 259.693 326.494V324.982C259.513 324.91 259.081 324.838 258.775 324.838C257.731 324.838 256.759 325.756 256.399 326.89V325.072H254.923V334H256.453ZM268.363 331.966L267.139 331.498C266.671 332.416 265.807 332.974 264.835 332.974C263.341 332.974 262.261 331.732 262.153 329.86H268.345C268.399 329.626 268.435 329.14 268.435 328.744C268.435 326.458 266.869 324.838 264.691 324.838C262.315 324.838 260.551 326.854 260.551 329.608C260.551 332.308 262.315 334.234 264.745 334.234C266.347 334.234 267.733 333.388 268.363 331.966ZM264.709 326.08C265.969 326.08 266.851 327.088 266.905 328.636H262.243C262.513 327.088 263.467 326.08 264.709 326.08ZM88.916 347.072H87.386V356H88.916V347.072ZM88.916 343.526H87.386V345.308H88.916V343.526ZM93.2226 343.328H91.6926V356H93.2226V343.328ZM107.078 353.804L105.782 353.3C105.35 354.29 104.63 354.92 103.64 354.92C102.182 354.92 101.12 353.534 101.12 351.608C101.12 349.592 102.146 348.134 103.568 348.134C104.468 348.134 105.242 348.692 105.674 349.736L107.006 349.196C106.376 347.756 105.17 346.838 103.532 346.838C101.192 346.838 99.4997 348.836 99.4997 351.608C99.4997 354.29 101.21 356.234 103.586 356.234C105.224 356.234 106.502 355.208 107.078 353.804ZM116.335 356.144L116.407 354.974C116.299 354.992 116.119 355.01 116.011 355.01C115.471 355.01 115.201 354.632 115.201 354.146V350.042C115.201 347.972 113.941 346.838 111.997 346.838C110.449 346.838 109.099 347.702 108.451 349.106L109.639 349.592C110.089 348.746 110.791 348.116 111.853 348.116C112.951 348.116 113.671 348.872 113.671 349.988V350.69L111.583 350.942C109.603 351.194 108.199 352.148 108.199 353.804C108.199 355.226 109.333 356.234 110.917 356.234C112.177 356.234 113.167 355.622 113.743 354.668C113.959 355.694 114.625 356.234 115.633 356.234C115.903 356.234 116.119 356.198 116.335 356.144ZM111.331 354.992C110.431 354.992 109.801 354.452 109.801 353.696C109.801 352.778 110.665 352.238 111.853 352.094L113.671 351.878V353.516C113.203 354.38 112.321 354.992 111.331 354.992ZM130.57 356V350.096C130.57 348.188 129.274 346.838 127.6 346.838C126.412 346.838 125.368 347.558 124.738 348.512C124.252 347.486 123.316 346.838 122.218 346.838C121.03 346.838 120.04 347.594 119.518 348.44V347.072H118.042V356H119.572V349.484C120.076 348.728 120.94 348.134 121.822 348.134C122.812 348.134 123.532 348.962 123.532 350.204V356H125.062V350.096C125.062 349.826 125.044 349.574 124.99 349.322C125.53 348.638 126.394 348.134 127.258 348.134C128.284 348.134 129.04 348.962 129.04 350.204V356H130.57ZM141.366 351.5C141.366 348.8 139.764 346.838 137.568 346.838C136.542 346.838 135.408 347.414 134.742 348.26V343.328H133.212V356H134.652V354.92C135.336 355.694 136.452 356.234 137.424 356.234C139.71 356.234 141.366 354.254 141.366 351.5ZM137.064 354.956C136.128 354.956 135.228 354.47 134.742 353.804V349.358C135.228 348.62 136.182 348.134 137.154 348.134C138.648 348.134 139.746 349.538 139.746 351.482C139.746 353.48 138.612 354.956 137.064 354.956ZM145.025 347.072H143.495V356H145.025V347.072ZM145.025 343.526H143.495V345.308H145.025V343.526ZM155.2 356.144L155.272 354.974C155.164 354.992 154.984 355.01 154.876 355.01C154.336 355.01 154.066 354.632 154.066 354.146V350.042C154.066 347.972 152.806 346.838 150.862 346.838C149.314 346.838 147.964 347.702 147.316 349.106L148.504 349.592C148.954 348.746 149.656 348.116 150.718 348.116C151.816 348.116 152.536 348.872 152.536 349.988V350.69L150.448 350.942C148.468 351.194 147.064 352.148 147.064 353.804C147.064 355.226 148.198 356.234 149.782 356.234C151.042 356.234 152.032 355.622 152.608 354.668C152.824 355.694 153.49 356.234 154.498 356.234C154.768 356.234 154.984 356.198 155.2 356.144ZM150.196 354.992C149.296 354.992 148.666 354.452 148.666 353.696C148.666 352.778 149.53 352.238 150.718 352.094L152.536 351.878V353.516C152.068 354.38 151.186 354.992 150.196 354.992ZM169.435 356V350.096C169.435 348.188 168.139 346.838 166.465 346.838C165.277 346.838 164.233 347.558 163.603 348.512C163.117 347.486 162.181 346.838 161.083 346.838C159.895 346.838 158.905 347.594 158.383 348.44V347.072H156.907V356H158.437V349.484C158.941 348.728 159.805 348.134 160.687 348.134C161.677 348.134 162.397 348.962 162.397 350.204V356H163.927V350.096C163.927 349.826 163.909 349.574 163.855 349.322C164.395 348.638 165.259 348.134 166.123 348.134C167.149 348.134 167.905 348.962 167.905 350.204V356H169.435ZM179.241 353.966L178.017 353.498C177.549 354.416 176.685 354.974 175.713 354.974C174.219 354.974 173.139 353.732 173.031 351.86H179.223C179.277 351.626 179.313 351.14 179.313 350.744C179.313 348.458 177.747 346.838 175.569 346.838C173.193 346.838 171.429 348.854 171.429 351.608C171.429 354.308 173.193 356.234 175.623 356.234C177.225 356.234 178.611 355.388 179.241 353.966ZM175.587 348.08C176.847 348.08 177.729 349.088 177.783 350.636H173.121C173.391 349.088 174.345 348.08 175.587 348.08ZM188.97 356V350.096C188.97 348.188 187.638 346.838 185.892 346.838C184.614 346.838 183.534 347.594 182.94 348.44V347.072H181.464V356H182.994V349.52C183.552 348.728 184.524 348.134 185.532 348.134C186.648 348.134 187.44 348.962 187.44 350.204V356H188.97ZM196.612 355.946V354.668C196.234 354.812 195.604 354.92 195.046 354.92C193.912 354.92 193.462 354.362 193.462 353.516V348.332H196.558V347.072H193.462V344.894H191.932V347.072H190.618V348.332H191.932V353.768C191.932 355.334 192.994 356.234 194.776 356.234C195.442 356.234 196.216 356.09 196.612 355.946ZM206.226 351.554C206.226 348.818 204.408 346.838 201.906 346.838C199.404 346.838 197.568 348.818 197.568 351.554C197.568 354.254 199.404 356.234 201.906 356.234C204.408 356.234 206.226 354.254 206.226 351.554ZM199.188 351.554C199.188 349.574 200.322 348.116 201.906 348.116C203.472 348.116 204.606 349.574 204.606 351.554C204.606 353.498 203.472 354.938 201.906 354.938C200.322 354.938 199.188 353.498 199.188 351.554ZM94.316 375.804L93.02 375.3C92.588 376.29 91.868 376.92 90.878 376.92C89.42 376.92 88.358 375.534 88.358 373.608C88.358 371.592 89.384 370.134 90.806 370.134C91.706 370.134 92.48 370.692 92.912 371.736L94.244 371.196C93.614 369.756 92.408 368.838 90.77 368.838C88.43 368.838 86.738 370.836 86.738 373.608C86.738 376.29 88.448 378.234 90.824 378.234C92.462 378.234 93.74 377.208 94.316 375.804ZM97.7051 365.328H96.1751V378H97.7051V365.328ZM102.012 369.072H100.482V378H102.012V369.072ZM102.012 365.526H100.482V367.308H102.012V365.526ZM117.316 378V372.096C117.316 370.188 116.02 368.838 114.346 368.838C113.158 368.838 112.114 369.558 111.484 370.512C110.998 369.486 110.062 368.838 108.964 368.838C107.776 368.838 106.786 369.594 106.264 370.44V369.072H104.788V378H106.318V371.484C106.822 370.728 107.686 370.134 108.568 370.134C109.558 370.134 110.278 370.962 110.278 372.204V378H111.808V372.096C111.808 371.826 111.79 371.574 111.736 371.322C112.276 370.638 113.14 370.134 114.004 370.134C115.03 370.134 115.786 370.962 115.786 372.204V378H117.316ZM127.356 378.144L127.428 376.974C127.32 376.992 127.14 377.01 127.032 377.01C126.492 377.01 126.222 376.632 126.222 376.146V372.042C126.222 369.972 124.962 368.838 123.018 368.838C121.47 368.838 120.12 369.702 119.472 371.106L120.66 371.592C121.11 370.746 121.812 370.116 122.874 370.116C123.972 370.116 124.692 370.872 124.692 371.988V372.69L122.604 372.942C120.624 373.194 119.22 374.148 119.22 375.804C119.22 377.226 120.354 378.234 121.938 378.234C123.198 378.234 124.188 377.622 124.764 376.668C124.98 377.694 125.646 378.234 126.654 378.234C126.924 378.234 127.14 378.198 127.356 378.144ZM122.352 376.992C121.452 376.992 120.822 376.452 120.822 375.696C120.822 374.778 121.686 374.238 122.874 374.094L124.692 373.878V375.516C124.224 376.38 123.342 376.992 122.352 376.992ZM134.14 377.946V376.668C133.762 376.812 133.132 376.92 132.574 376.92C131.44 376.92 130.99 376.362 130.99 375.516V370.332H134.086V369.072H130.99V366.894H129.46V369.072H128.146V370.332H129.46V375.768C129.46 377.334 130.522 378.234 132.304 378.234C132.97 378.234 133.744 378.09 134.14 377.946ZM137.379 369.072H135.849V378H137.379V369.072ZM137.379 365.526H135.849V367.308H137.379V365.526ZM147.086 375.804L145.79 375.3C145.358 376.29 144.638 376.92 143.648 376.92C142.19 376.92 141.128 375.534 141.128 373.608C141.128 371.592 142.154 370.134 143.576 370.134C144.476 370.134 145.25 370.692 145.682 371.736L147.014 371.196C146.384 369.756 145.178 368.838 143.54 368.838C141.2 368.838 139.508 370.836 139.508 373.608C139.508 376.29 141.218 378.234 143.594 378.234C145.232 378.234 146.51 377.208 147.086 375.804ZM156.937 373.554C156.937 370.818 155.119 368.838 152.617 368.838C150.115 368.838 148.279 370.818 148.279 373.554C148.279 376.254 150.115 378.234 152.617 378.234C155.119 378.234 156.937 376.254 156.937 373.554ZM149.899 373.554C149.899 371.574 151.033 370.116 152.617 370.116C154.183 370.116 155.317 371.574 155.317 373.554C155.317 375.498 154.183 376.938 152.617 376.938C151.033 376.938 149.899 375.498 149.899 373.554ZM170.113 375.804L168.817 375.3C168.385 376.29 167.665 376.92 166.675 376.92C165.217 376.92 164.155 375.534 164.155 373.608C164.155 371.592 165.181 370.134 166.603 370.134C167.503 370.134 168.277 370.692 168.709 371.736L170.041 371.196C169.411 369.756 168.205 368.838 166.567 368.838C164.227 368.838 162.535 370.836 162.535 373.608C162.535 376.29 164.245 378.234 166.621 378.234C168.259 378.234 169.537 377.208 170.113 375.804ZM173.502 378V372.672C173.646 371.484 174.366 370.368 175.752 370.368C176.058 370.368 176.49 370.422 176.742 370.494V368.982C176.562 368.91 176.13 368.838 175.824 368.838C174.78 368.838 173.808 369.756 173.448 370.89V369.072H171.972V378H173.502ZM185.411 375.966L184.187 375.498C183.719 376.416 182.855 376.974 181.883 376.974C180.389 376.974 179.309 375.732 179.201 373.86H185.393C185.447 373.626 185.483 373.14 185.483 372.744C185.483 370.458 183.917 368.838 181.739 368.838C179.363 368.838 177.599 370.854 177.599 373.608C177.599 376.308 179.363 378.234 181.793 378.234C183.395 378.234 184.781 377.388 185.411 375.966ZM181.757 370.08C183.017 370.08 183.899 371.088 183.953 372.636H179.291C179.561 371.088 180.515 370.08 181.757 370.08ZM194.798 375.966L193.574 375.498C193.106 376.416 192.242 376.974 191.27 376.974C189.776 376.974 188.696 375.732 188.588 373.86H194.78C194.834 373.626 194.87 373.14 194.87 372.744C194.87 370.458 193.304 368.838 191.126 368.838C188.75 368.838 186.986 370.854 186.986 373.608C186.986 376.308 188.75 378.234 191.18 378.234C192.782 378.234 194.168 377.388 194.798 375.966ZM191.144 370.08C192.404 370.08 193.286 371.088 193.34 372.636H188.678C188.948 371.088 189.902 370.08 191.144 370.08ZM198.551 378V372.672C198.695 371.484 199.415 370.368 200.801 370.368C201.107 370.368 201.539 370.422 201.791 370.494V368.982C201.611 368.91 201.179 368.838 200.873 368.838C199.829 368.838 198.857 369.756 198.497 370.89V369.072H197.021V378H198.551ZM210.729 378.144L210.801 376.974C210.693 376.992 210.513 377.01 210.405 377.01C209.865 377.01 209.595 376.632 209.595 376.146V372.042C209.595 369.972 208.335 368.838 206.391 368.838C204.843 368.838 203.493 369.702 202.845 371.106L204.033 371.592C204.483 370.746 205.185 370.116 206.247 370.116C207.345 370.116 208.065 370.872 208.065 371.988V372.69L205.977 372.942C203.997 373.194 202.593 374.148 202.593 375.804C202.593 377.226 203.727 378.234 205.311 378.234C206.571 378.234 207.561 377.622 208.137 376.668C208.353 377.694 209.019 378.234 210.027 378.234C210.297 378.234 210.513 378.198 210.729 378.144ZM205.725 376.992C204.825 376.992 204.195 376.452 204.195 375.696C204.195 374.778 205.059 374.238 206.247 374.094L208.065 373.878V375.516C207.597 376.38 206.715 376.992 205.725 376.992ZM219.943 378V372.096C219.943 370.188 218.611 368.838 216.865 368.838C215.587 368.838 214.507 369.594 213.913 370.44V369.072H212.437V378H213.967V371.52C214.525 370.728 215.497 370.134 216.505 370.134C217.621 370.134 218.413 370.962 218.413 372.204V378H219.943ZM230.121 378V372.096C230.121 370.188 228.789 368.838 227.043 368.838C225.765 368.838 224.685 369.594 224.091 370.44V369.072H222.615V378H224.145V371.52C224.703 370.728 225.675 370.134 226.683 370.134C227.799 370.134 228.591 370.962 228.591 372.204V378H230.121ZM240.784 373.554C240.784 370.818 238.966 368.838 236.464 368.838C233.962 368.838 232.126 370.818 232.126 373.554C232.126 376.254 233.962 378.234 236.464 378.234C238.966 378.234 240.784 376.254 240.784 373.554ZM233.746 373.554C233.746 371.574 234.88 370.116 236.464 370.116C238.03 370.116 239.164 371.574 239.164 373.554C239.164 375.498 238.03 376.938 236.464 376.938C234.88 376.938 233.746 375.498 233.746 373.554ZM250.883 376.956C250.037 376.956 249.101 376.506 248.561 375.858V371.52C249.029 370.8 249.911 370.098 250.955 370.098C252.449 370.098 253.565 371.448 253.565 373.5C253.565 375.534 252.449 376.956 250.883 376.956ZM255.185 373.5C255.185 370.764 253.457 368.838 251.351 368.838C249.983 368.838 248.975 369.666 248.507 370.404V369.072H247.031V381.276H248.561V377.064C249.137 377.766 250.127 378.234 251.189 378.234C253.439 378.234 255.185 376.236 255.185 373.5ZM258.826 369.072H257.296V378H258.826V369.072ZM258.826 365.526H257.296V367.308H258.826V365.526ZM268.803 378V369.072H267.273V375.228C266.823 376.218 265.959 376.938 264.897 376.938C263.799 376.938 263.007 376.074 263.007 374.868V369.072H261.477V374.976C261.477 376.866 262.737 378.234 264.465 378.234C265.779 378.234 266.805 377.478 267.327 376.524V378H268.803ZM266.373 367.146L263.673 364.662L262.629 365.904L265.599 368.082L266.373 367.146ZM91.238 398.956C90.392 398.956 89.456 398.506 88.916 397.858V393.52C89.384 392.8 90.266 392.098 91.31 392.098C92.804 392.098 93.92 393.448 93.92 395.5C93.92 397.534 92.804 398.956 91.238 398.956ZM95.54 395.5C95.54 392.764 93.812 390.838 91.706 390.838C90.338 390.838 89.33 391.666 88.862 392.404V391.072H87.386V403.276H88.916V399.064C89.492 399.766 90.482 400.234 91.544 400.234C93.794 400.234 95.54 398.236 95.54 395.5ZM105.644 395.554C105.644 392.818 103.826 390.838 101.324 390.838C98.8216 390.838 96.9856 392.818 96.9856 395.554C96.9856 398.254 98.8216 400.234 101.324 400.234C103.826 400.234 105.644 398.254 105.644 395.554ZM98.6056 395.554C98.6056 393.574 99.7396 392.116 101.324 392.116C102.89 392.116 104.024 393.574 104.024 395.554C104.024 397.498 102.89 398.938 101.324 398.938C99.7396 398.938 98.6056 397.498 98.6056 395.554ZM114.563 397.552C114.563 395.896 113.159 395.212 111.143 394.78C109.631 394.438 108.767 394.168 108.767 393.376C108.767 392.62 109.613 392.098 110.801 392.098C112.043 392.098 112.871 392.62 113.285 393.484L114.509 392.998C113.987 391.9 112.889 390.838 110.819 390.838C108.713 390.838 107.273 391.954 107.273 393.466C107.273 395.014 108.731 395.734 110.711 396.148C112.241 396.472 113.087 396.778 113.087 397.624C113.087 398.434 112.331 398.992 111.017 398.992C109.523 398.992 108.569 398.326 108.119 397.444L106.859 397.93C107.471 399.334 108.911 400.234 110.945 400.234C113.213 400.234 114.563 399.136 114.563 397.552ZM121.659 399.946V398.668C121.281 398.812 120.651 398.92 120.093 398.92C118.959 398.92 118.509 398.362 118.509 397.516V392.332H121.605V391.072H118.509V388.894H116.979V391.072H115.665V392.332H116.979V397.768C116.979 399.334 118.041 400.234 119.823 400.234C120.489 400.234 121.263 400.09 121.659 399.946ZM124.898 391.072H123.368V400H124.898V391.072ZM124.898 387.526H123.368V389.308H124.898V387.526ZM135.37 398.956C133.876 398.956 132.813 397.534 132.813 395.59C132.813 393.592 133.93 392.134 135.478 392.134C136.432 392.134 137.314 392.566 137.782 393.25V397.66C137.26 398.434 136.306 398.956 135.37 398.956ZM139.312 400V387.328H137.782V392.044C137.17 391.324 136.126 390.838 135.154 390.838C132.85 390.838 131.176 392.836 131.176 395.608C131.176 398.29 132.796 400.234 135.028 400.234C136.054 400.234 137.206 399.604 137.872 398.722V400H139.312ZM143.619 391.072H142.089V400H143.619V391.072ZM143.619 387.526H142.089V389.308H143.619V387.526ZM152.074 387.328H150.544V400H152.074V387.328ZM162.249 400.144L162.321 398.974C162.213 398.992 162.033 399.01 161.925 399.01C161.385 399.01 161.115 398.632 161.115 398.146V394.042C161.115 391.972 159.855 390.838 157.911 390.838C156.363 390.838 155.013 391.702 154.365 393.106L155.553 393.592C156.003 392.746 156.705 392.116 157.767 392.116C158.865 392.116 159.585 392.872 159.585 393.988V394.69L157.497 394.942C155.517 395.194 154.113 396.148 154.113 397.804C154.113 399.226 155.247 400.234 156.831 400.234C158.091 400.234 159.081 399.622 159.657 398.668C159.873 399.694 160.539 400.234 161.547 400.234C161.817 400.234 162.033 400.198 162.249 400.144ZM157.245 398.992C156.345 398.992 155.715 398.452 155.715 397.696C155.715 396.778 156.579 396.238 157.767 396.094L159.585 395.878V397.516C159.117 398.38 158.235 398.992 157.245 398.992ZM162.755 391.072L165.977 400H167.561L170.765 391.072H169.217L166.841 398.02H166.787L164.411 391.072H162.755ZM180.386 395.554C180.386 392.818 178.568 390.838 176.066 390.838C173.564 390.838 171.728 392.818 171.728 395.554C171.728 398.254 173.564 400.234 176.066 400.234C178.568 400.234 180.386 398.254 180.386 395.554ZM173.348 395.554C173.348 393.574 174.482 392.116 176.066 392.116C177.632 392.116 178.766 393.574 178.766 395.554C178.766 397.498 177.632 398.938 176.066 398.938C174.482 398.938 173.348 397.498 173.348 395.554ZM184.014 400V394.672C184.158 393.484 184.878 392.368 186.264 392.368C186.57 392.368 187.002 392.422 187.254 392.494V390.982C187.074 390.91 186.642 390.838 186.336 390.838C185.292 390.838 184.32 391.756 183.96 392.89V391.072H182.484V400H184.014ZM196.751 395.554C196.751 392.818 194.933 390.838 192.431 390.838C189.929 390.838 188.093 392.818 188.093 395.554C188.093 398.254 189.929 400.234 192.431 400.234C194.933 400.234 196.751 398.254 196.751 395.554ZM189.713 395.554C189.713 393.574 190.847 392.116 192.431 392.116C193.997 392.116 195.131 393.574 195.131 395.554C195.131 397.498 193.997 398.938 192.431 398.938C190.847 398.938 189.713 397.498 189.713 395.554ZM206.543 398.956C205.049 398.956 203.987 397.534 203.987 395.59C203.987 393.592 205.103 392.134 206.651 392.134C207.605 392.134 208.487 392.566 208.955 393.25V397.66C208.433 398.434 207.479 398.956 206.543 398.956ZM210.485 400V387.328H208.955V392.044C208.343 391.324 207.299 390.838 206.327 390.838C204.023 390.838 202.349 392.836 202.349 395.608C202.349 398.29 203.969 400.234 206.201 400.234C207.227 400.234 208.379 399.604 209.045 398.722V400H210.485ZM214.793 391.072H213.263V400H214.793V391.072ZM214.793 387.526H213.263V389.308H214.793V387.526ZM225.372 398.956C223.842 398.956 222.69 397.606 222.69 395.608C222.69 393.574 223.824 392.098 225.426 392.098C226.308 392.098 227.172 392.584 227.694 393.286V397.678C227.262 398.38 226.362 398.956 225.372 398.956ZM229.224 403.276V391.072H227.73V392.206C227.154 391.378 226.146 390.838 225.03 390.838C222.87 390.838 221.07 392.782 221.07 395.59C221.07 398.29 222.78 400.234 224.976 400.234C226.11 400.234 227.118 399.694 227.694 398.884V403.276H229.224ZM239.201 400V391.072H237.671V397.228C237.221 398.218 236.357 398.938 235.295 398.938C234.197 398.938 233.405 398.074 233.405 396.868V391.072H231.875V396.976C231.875 398.866 233.135 400.234 234.863 400.234C236.177 400.234 237.203 399.478 237.725 398.524V400H239.201ZM249.366 400.144L249.438 398.974C249.33 398.992 249.15 399.01 249.042 399.01C248.502 399.01 248.232 398.632 248.232 398.146V394.042C248.232 391.972 246.972 390.838 245.028 390.838C243.48 390.838 242.13 391.702 241.482 393.106L242.67 393.592C243.12 392.746 243.822 392.116 244.884 392.116C245.982 392.116 246.702 392.872 246.702 393.988V394.69L244.614 394.942C242.634 395.194 241.23 396.148 241.23 397.804C241.23 399.226 242.364 400.234 243.948 400.234C245.208 400.234 246.198 399.622 246.774 398.668C246.99 399.694 247.656 400.234 248.664 400.234C248.934 400.234 249.15 400.198 249.366 400.144ZM244.362 398.992C243.462 398.992 242.832 398.452 242.832 397.696C242.832 396.778 243.696 396.238 244.884 396.094L246.702 395.878V397.516C246.234 398.38 245.352 398.992 244.362 398.992ZM258.58 400V394.096C258.58 392.188 257.248 390.838 255.502 390.838C254.224 390.838 253.144 391.594 252.55 392.44V391.072H251.074V400H252.604V393.52C253.162 392.728 254.134 392.134 255.142 392.134C256.258 392.134 257.05 392.962 257.05 394.204V400H258.58ZM266.222 399.946V398.668C265.844 398.812 265.214 398.92 264.656 398.92C263.522 398.92 263.072 398.362 263.072 397.516V392.332H266.168V391.072H263.072V388.894H261.542V391.072H260.228V392.332H261.542V397.768C261.542 399.334 262.604 400.234 264.386 400.234C265.052 400.234 265.826 400.09 266.222 399.946ZM269.461 391.072H267.931V400H269.461V391.072ZM269.461 387.526H267.931V389.308H269.461V387.526ZM94.892 422V416.096C94.892 414.188 93.56 412.838 91.814 412.838C90.536 412.838 89.456 413.594 88.862 414.44V413.072H87.386V422H88.916V415.52C89.474 414.728 90.446 414.134 91.454 414.134C92.57 414.134 93.362 414.962 93.362 416.204V422H94.892ZM104.728 419.966L103.504 419.498C103.036 420.416 102.172 420.974 101.2 420.974C99.7057 420.974 98.6257 419.732 98.5177 417.86H104.71C104.764 417.626 104.8 417.14 104.8 416.744C104.8 414.458 103.234 412.838 101.056 412.838C98.6797 412.838 96.9157 414.854 96.9157 417.608C96.9157 420.308 98.6797 422.234 101.11 422.234C102.712 422.234 104.098 421.388 104.728 419.966ZM101.074 414.08C102.334 414.08 103.216 415.088 103.27 416.636H98.6077C98.8777 415.088 99.8317 414.08 101.074 414.08ZM118.263 419.966L117.039 419.498C116.571 420.416 115.707 420.974 114.735 420.974C113.241 420.974 112.161 419.732 112.053 417.86H118.245C118.299 417.626 118.335 417.14 118.335 416.744C118.335 414.458 116.769 412.838 114.591 412.838C112.215 412.838 110.451 414.854 110.451 417.608C110.451 420.308 112.215 422.234 114.645 422.234C116.247 422.234 117.633 421.388 118.263 419.966ZM114.609 414.08C115.869 414.08 116.751 415.088 116.805 416.636H112.143C112.413 415.088 113.367 414.08 114.609 414.08ZM122.016 409.328H120.486V422H122.016V409.328ZM126.322 413.072H124.792V422H126.322V413.072ZM126.322 409.526H124.792V411.308H126.322V409.526ZM141.627 422V416.096C141.627 414.188 140.331 412.838 138.657 412.838C137.469 412.838 136.425 413.558 135.795 414.512C135.309 413.486 134.373 412.838 133.275 412.838C132.087 412.838 131.097 413.594 130.575 414.44V413.072H129.099V422H130.629V415.484C131.133 414.728 131.997 414.134 132.879 414.134C133.869 414.134 134.589 414.962 134.589 416.204V422H136.119V416.096C136.119 415.826 136.101 415.574 136.047 415.322C136.587 414.638 137.451 414.134 138.315 414.134C139.341 414.134 140.097 414.962 140.097 416.204V422H141.627ZM145.799 413.072H144.269V422H145.799V413.072ZM145.799 409.526H144.269V411.308H145.799V409.526ZM156.081 422V416.096C156.081 414.188 154.749 412.838 153.003 412.838C151.725 412.838 150.645 413.594 150.051 414.44V413.072H148.575V422H150.105V415.52C150.663 414.728 151.635 414.134 152.643 414.134C153.759 414.134 154.551 414.962 154.551 416.204V422H156.081ZM165.917 419.966L164.693 419.498C164.225 420.416 163.361 420.974 162.389 420.974C160.895 420.974 159.815 419.732 159.707 417.86H165.899C165.953 417.626 165.989 417.14 165.989 416.744C165.989 414.458 164.423 412.838 162.245 412.838C159.869 412.838 158.105 414.854 158.105 417.608C158.105 420.308 159.869 422.234 162.299 422.234C163.901 422.234 165.287 421.388 165.917 419.966ZM162.263 414.08C163.523 414.08 164.405 415.088 164.459 416.636H159.797C160.067 415.088 161.021 414.08 162.263 414.08ZM169.67 422V416.672C169.814 415.484 170.534 414.368 171.92 414.368C172.226 414.368 172.658 414.422 172.91 414.494V412.982C172.73 412.91 172.298 412.838 171.992 412.838C170.948 412.838 169.976 413.756 169.616 414.89V413.072H168.14V422H169.67ZM181.848 422.144L181.92 420.974C181.812 420.992 181.632 421.01 181.524 421.01C180.984 421.01 180.714 420.632 180.714 420.146V416.042C180.714 413.972 179.454 412.838 177.51 412.838C175.962 412.838 174.612 413.702 173.964 415.106L175.152 415.592C175.602 414.746 176.304 414.116 177.366 414.116C178.464 414.116 179.184 414.872 179.184 415.988V416.69L177.096 416.942C175.116 417.194 173.712 418.148 173.712 419.804C173.712 421.226 174.846 422.234 176.43 422.234C177.69 422.234 178.68 421.622 179.256 420.668C179.472 421.694 180.138 422.234 181.146 422.234C181.416 422.234 181.632 422.198 181.848 422.144ZM176.844 420.992C175.944 420.992 175.314 420.452 175.314 419.696C175.314 418.778 176.178 418.238 177.366 418.094L179.184 417.878V419.516C178.716 420.38 177.834 420.992 176.844 420.992ZM191.062 422V416.096C191.062 414.188 189.73 412.838 187.984 412.838C186.706 412.838 185.626 413.594 185.032 414.44V413.072H183.556V422H185.086V415.52C185.644 414.728 186.616 414.134 187.624 414.134C188.74 414.134 189.532 414.962 189.532 416.204V422H191.062ZM201.24 422V416.096C201.24 414.188 199.908 412.838 198.162 412.838C196.884 412.838 195.804 413.594 195.21 414.44V413.072H193.734V422H195.264V415.52C195.822 414.728 196.794 414.134 197.802 414.134C198.918 414.134 199.71 414.962 199.71 416.204V422H201.24ZM211.903 417.554C211.903 414.818 210.085 412.838 207.583 412.838C205.081 412.838 203.245 414.818 203.245 417.554C203.245 420.254 205.081 422.234 207.583 422.234C210.085 422.234 211.903 420.254 211.903 417.554ZM204.865 417.554C204.865 415.574 205.999 414.116 207.583 414.116C209.149 414.116 210.283 415.574 210.283 417.554C210.283 419.498 209.149 420.938 207.583 420.938C205.999 420.938 204.865 419.498 204.865 417.554Z" fill="white"/>
<path d="M89.24 163.354H87.584V175H89.24V163.354ZM93.7324 162.328H92.2024V175H93.7324V162.328ZM116.401 169.66C116.401 166.69 113.731 164.53 110.011 164.53C108.211 164.53 106.501 165.07 105.331 165.88C105.691 163.48 107.041 162.07 109.141 162.07C110.611 162.07 111.961 162.73 112.771 163.72L115.981 161.77C114.751 160.09 112.291 158.62 108.931 158.62C103.711 158.62 100.171 162.19 100.171 167.23C100.141 172.3 103.711 175.42 108.661 175.42C113.041 175.42 116.401 172.99 116.401 169.66ZM108.631 171.97C106.981 171.97 105.811 170.89 105.391 169C106.231 168.28 107.401 167.89 108.571 167.89C110.311 167.89 111.241 168.73 111.241 169.84C111.241 171.1 110.101 171.97 108.631 171.97ZM132.051 162.85V159.04H117.741V163.24H126.861L119.811 175H125.361L132.051 162.85ZM153.099 156.55L151.689 155.14C150.309 156.28 148.209 157 146.079 157C144.519 157 142.809 156.7 141.609 156.28C140.769 155.56 139.659 155.14 138.399 155.14C135.519 155.14 133.449 157.3 133.449 160.27C133.449 163.24 135.519 165.37 138.399 165.37C141.279 165.37 143.349 163.24 143.349 160.27C143.349 159.67 143.259 159.07 143.109 158.56C144.039 158.98 145.089 159.22 146.019 159.22C146.889 159.19 147.849 158.92 148.809 158.41L135.009 174.01L136.479 175.45L153.099 156.55ZM154.779 170.35C154.779 167.38 152.709 165.22 149.829 165.22C146.949 165.22 144.879 167.38 144.879 170.35C144.879 173.32 146.949 175.45 149.829 175.45C152.709 175.45 154.779 173.32 154.779 170.35ZM148.149 170.35C148.149 168.94 148.869 167.92 149.829 167.92C150.819 167.92 151.509 168.94 151.509 170.35C151.509 171.73 150.819 172.72 149.829 172.72C148.869 172.72 148.149 171.73 148.149 170.35ZM136.719 160.27C136.719 158.86 137.439 157.84 138.399 157.84C139.389 157.84 140.079 158.86 140.079 160.27C140.079 161.65 139.389 162.64 138.399 162.64C137.439 162.64 136.719 161.65 136.719 160.27ZM164.602 173.956C163.108 173.956 162.046 172.534 162.046 170.59C162.046 168.592 163.162 167.134 164.71 167.134C165.664 167.134 166.546 167.566 167.014 168.25V172.66C166.492 173.434 165.538 173.956 164.602 173.956ZM168.544 175V162.328H167.014V167.044C166.402 166.324 165.358 165.838 164.386 165.838C162.082 165.838 160.408 167.836 160.408 170.608C160.408 173.29 162.028 175.234 164.26 175.234C165.286 175.234 166.438 174.604 167.104 173.722V175H168.544ZM178.486 172.966L177.262 172.498C176.794 173.416 175.93 173.974 174.958 173.974C173.464 173.974 172.384 172.732 172.276 170.86H178.468C178.522 170.626 178.558 170.14 178.558 169.744C178.558 167.458 176.992 165.838 174.814 165.838C172.438 165.838 170.674 167.854 170.674 170.608C170.674 173.308 172.438 175.234 174.868 175.234C176.47 175.234 177.856 174.388 178.486 172.966ZM174.832 167.08C176.092 167.08 176.974 168.088 177.028 169.636H172.366C172.636 168.088 173.59 167.08 174.832 167.08ZM182.238 166.072H180.708V175H182.238V166.072ZM182.238 162.526H180.708V164.308H182.238V162.526ZM196.093 172.804L194.797 172.3C194.365 173.29 193.645 173.92 192.655 173.92C191.197 173.92 190.135 172.534 190.135 170.608C190.135 168.592 191.161 167.134 192.583 167.134C193.483 167.134 194.257 167.692 194.689 168.736L196.021 168.196C195.391 166.756 194.185 165.838 192.547 165.838C190.207 165.838 188.515 167.836 188.515 170.608C188.515 173.29 190.225 175.234 192.601 175.234C194.239 175.234 195.517 174.208 196.093 172.804ZM199.482 166.072H197.952V175H199.482V166.072ZM199.482 162.526H197.952V164.308H199.482V162.526ZM207.335 174.946V173.668C206.957 173.812 206.327 173.92 205.769 173.92C204.635 173.92 204.185 173.362 204.185 172.516V167.332H207.281V166.072H204.185V163.894H202.655V166.072H201.341V167.332H202.655V172.768C202.655 174.334 203.717 175.234 205.499 175.234C206.165 175.234 206.939 175.09 207.335 174.946ZM214.12 174.946V173.668C213.742 173.812 213.112 173.92 212.554 173.92C211.42 173.92 210.97 173.362 210.97 172.516V167.332H214.066V166.072H210.97V163.894H209.44V166.072H208.126V167.332H209.44V172.768C209.44 174.334 210.502 175.234 212.284 175.234C212.95 175.234 213.724 175.09 214.12 174.946ZM223.227 175.144L223.299 173.974C223.191 173.992 223.011 174.01 222.903 174.01C222.363 174.01 222.093 173.632 222.093 173.146V169.042C222.093 166.972 220.833 165.838 218.889 165.838C217.341 165.838 215.991 166.702 215.343 168.106L216.531 168.592C216.981 167.746 217.683 167.116 218.745 167.116C219.843 167.116 220.563 167.872 220.563 168.988V169.69L218.475 169.942C216.495 170.194 215.091 171.148 215.091 172.804C215.091 174.226 216.225 175.234 217.809 175.234C219.069 175.234 220.059 174.622 220.635 173.668C220.851 174.694 221.517 175.234 222.525 175.234C222.795 175.234 223.011 175.198 223.227 175.144ZM218.223 173.992C217.323 173.992 216.693 173.452 216.693 172.696C216.693 171.778 217.557 171.238 218.745 171.094L220.563 170.878V172.516C220.095 173.38 219.213 173.992 218.223 173.992ZM228.481 173.956C226.987 173.956 225.925 172.534 225.925 170.59C225.925 168.592 227.041 167.134 228.589 167.134C229.543 167.134 230.425 167.566 230.893 168.25V172.66C230.371 173.434 229.417 173.956 228.481 173.956ZM232.423 175V162.328H230.893V167.044C230.281 166.324 229.237 165.838 228.265 165.838C225.961 165.838 224.287 167.836 224.287 170.608C224.287 173.29 225.907 175.234 228.139 175.234C229.165 175.234 230.317 174.604 230.983 173.722V175H232.423ZM236.73 166.072H235.2V175H236.73V166.072ZM236.73 162.526H235.2V164.308H236.73V162.526ZM247.013 175V169.096C247.013 167.188 245.681 165.838 243.935 165.838C242.657 165.838 241.577 166.594 240.983 167.44V166.072H239.507V175H241.037V168.52C241.595 167.728 242.567 167.134 243.575 167.134C244.691 167.134 245.483 167.962 245.483 169.204V175H247.013ZM251.215 166.072H249.685V175H251.215V166.072ZM251.215 162.526H249.685V164.308H251.215V162.526ZM88.916 197V191.672C89.06 190.484 89.78 189.368 91.166 189.368C91.472 189.368 91.904 189.422 92.156 189.494V187.982C91.976 187.91 91.544 187.838 91.238 187.838C90.194 187.838 89.222 188.756 88.862 189.89V188.072H87.386V197H88.916ZM95.4375 188.072H93.9075V197H95.4375V188.072ZM95.4375 184.526H93.9075V186.308H95.4375V184.526ZM103.29 196.946V195.668C102.912 195.812 102.282 195.92 101.724 195.92C100.59 195.92 100.14 195.362 100.14 194.516V189.332H103.236V188.072H100.14V185.894H98.6101V188.072H97.2961V189.332H98.6101V194.768C98.6101 196.334 99.6721 197.234 101.454 197.234C102.12 197.234 102.894 197.09 103.29 196.946ZM106.529 188.072H104.999V197H106.529V188.072ZM106.529 184.526H104.999V186.308H106.529V184.526ZM116.47 194.966L115.246 194.498C114.778 195.416 113.914 195.974 112.942 195.974C111.448 195.974 110.368 194.732 110.26 192.86H116.452C116.506 192.626 116.542 192.14 116.542 191.744C116.542 189.458 114.976 187.838 112.798 187.838C110.422 187.838 108.658 189.854 108.658 192.608C108.658 195.308 110.422 197.234 112.852 197.234C114.454 197.234 115.84 196.388 116.47 194.966ZM112.816 189.08C114.076 189.08 114.958 190.088 115.012 191.636H110.35C110.62 190.088 111.574 189.08 112.816 189.08ZM126.199 197V191.096C126.199 189.188 124.867 187.838 123.121 187.838C121.843 187.838 120.763 188.594 120.169 189.44V188.072H118.693V197H120.223V190.52C120.781 189.728 121.753 189.134 122.761 189.134C123.877 189.134 124.669 189.962 124.669 191.204V197H126.199ZM136.034 194.966L134.81 194.498C134.342 195.416 133.478 195.974 132.506 195.974C131.012 195.974 129.932 194.732 129.824 192.86H136.016C136.07 192.626 136.106 192.14 136.106 191.744C136.106 189.458 134.54 187.838 132.362 187.838C129.986 187.838 128.222 189.854 128.222 192.608C128.222 195.308 129.986 197.234 132.416 197.234C134.018 197.234 135.404 196.388 136.034 194.966ZM132.38 189.08C133.64 189.08 134.522 190.088 134.576 191.636H129.914C130.184 190.088 131.138 189.08 132.38 189.08ZM149.336 194.804L148.04 194.3C147.608 195.29 146.888 195.92 145.898 195.92C144.44 195.92 143.378 194.534 143.378 192.608C143.378 190.592 144.404 189.134 145.826 189.134C146.726 189.134 147.5 189.692 147.932 190.736L149.264 190.196C148.634 188.756 147.428 187.838 145.79 187.838C143.45 187.838 141.758 189.836 141.758 192.608C141.758 195.29 143.468 197.234 145.844 197.234C147.482 197.234 148.76 196.208 149.336 194.804ZM158.701 197V191.114C158.701 189.188 157.369 187.838 155.623 187.838C154.381 187.838 153.319 188.54 152.725 189.368V184.328H151.195V197H152.725V190.52C153.283 189.728 154.255 189.134 155.263 189.134C156.379 189.134 157.171 189.962 157.171 191.204V197H158.701ZM168.536 194.966L167.312 194.498C166.844 195.416 165.98 195.974 165.008 195.974C163.514 195.974 162.434 194.732 162.326 192.86H168.518C168.572 192.626 168.608 192.14 168.608 191.744C168.608 189.458 167.042 187.838 164.864 187.838C162.488 187.838 160.724 189.854 160.724 192.608C160.724 195.308 162.488 197.234 164.918 197.234C166.52 197.234 167.906 196.388 168.536 194.966ZM164.882 189.08C166.142 189.08 167.024 190.088 167.078 191.636H162.416C162.686 190.088 163.64 189.08 164.882 189.08ZM176.437 184.328H174.907V197H176.437V184.328ZM186.378 194.966L185.154 194.498C184.686 195.416 183.822 195.974 182.85 195.974C181.356 195.974 180.276 194.732 180.168 192.86H186.36C186.414 192.626 186.45 192.14 186.45 191.744C186.45 189.458 184.884 187.838 182.706 187.838C180.33 187.838 178.566 189.854 178.566 192.608C178.566 195.308 180.33 197.234 182.76 197.234C184.362 197.234 185.748 196.388 186.378 194.966ZM182.724 189.08C183.984 189.08 184.866 190.088 184.92 191.636H180.258C180.528 190.088 181.482 189.08 182.724 189.08ZM196.601 195.956C195.755 195.956 194.819 195.506 194.279 194.858V190.52C194.747 189.8 195.629 189.098 196.673 189.098C198.167 189.098 199.283 190.448 199.283 192.5C199.283 194.534 198.167 195.956 196.601 195.956ZM200.903 192.5C200.903 189.764 199.175 187.838 197.069 187.838C195.701 187.838 194.693 188.666 194.225 189.404V188.072H192.749V200.276H194.279V196.064C194.855 196.766 195.845 197.234 196.907 197.234C199.157 197.234 200.903 195.236 200.903 192.5ZM211.007 192.554C211.007 189.818 209.189 187.838 206.687 187.838C204.185 187.838 202.349 189.818 202.349 192.554C202.349 195.254 204.185 197.234 206.687 197.234C209.189 197.234 211.007 195.254 211.007 192.554ZM203.969 192.554C203.969 190.574 205.103 189.116 206.687 189.116C208.253 189.116 209.387 190.574 209.387 192.554C209.387 194.498 208.253 195.938 206.687 195.938C205.103 195.938 203.969 194.498 203.969 192.554ZM214.635 184.328H213.105V197H214.635V184.328ZM218.941 188.072H217.411V197H218.941V188.072ZM218.941 184.526H217.411V186.308H218.941V184.526ZM226.794 196.946V195.668C226.416 195.812 225.786 195.92 225.228 195.92C224.094 195.92 223.644 195.362 223.644 194.516V189.332H226.74V188.072H223.644V185.894H222.114V188.072H220.8V189.332H222.114V194.768C222.114 196.334 223.176 197.234 224.958 197.234C225.624 197.234 226.398 197.09 226.794 196.946ZM230.033 188.072H228.503V197H230.033V188.072ZM230.033 184.526H228.503V186.308H230.033V184.526ZM239.74 194.804L238.444 194.3C238.012 195.29 237.292 195.92 236.302 195.92C234.844 195.92 233.782 194.534 233.782 192.608C233.782 190.592 234.808 189.134 236.23 189.134C237.13 189.134 237.904 189.692 238.336 190.736L239.668 190.196C239.038 188.756 237.832 187.838 236.194 187.838C233.854 187.838 232.162 189.836 232.162 192.608C232.162 195.29 233.872 197.234 236.248 197.234C237.886 197.234 239.164 196.208 239.74 194.804ZM249.105 197V191.114C249.105 189.188 247.773 187.838 246.027 187.838C244.785 187.838 243.723 188.54 243.129 189.368V184.328H241.599V197H243.129V190.52C243.687 189.728 244.659 189.134 245.667 189.134C246.783 189.134 247.575 189.962 247.575 191.204V197H249.105ZM258.941 194.966L257.717 194.498C257.249 195.416 256.385 195.974 255.413 195.974C253.919 195.974 252.839 194.732 252.731 192.86H258.923C258.977 192.626 259.013 192.14 259.013 191.744C259.013 189.458 257.447 187.838 255.269 187.838C252.893 187.838 251.129 189.854 251.129 192.608C251.129 195.308 252.893 197.234 255.323 197.234C256.925 197.234 258.311 196.388 258.941 194.966ZM255.287 189.08C256.547 189.08 257.429 190.088 257.483 191.636H252.821C253.091 190.088 254.045 189.08 255.287 189.08ZM94.316 216.804L93.02 216.3C92.588 217.29 91.868 217.92 90.878 217.92C89.42 217.92 88.358 216.534 88.358 214.608C88.358 212.592 89.384 211.134 90.806 211.134C91.706 211.134 92.48 211.692 92.912 212.736L94.244 212.196C93.614 210.756 92.408 209.838 90.77 209.838C88.43 209.838 86.738 211.836 86.738 214.608C86.738 217.29 88.448 219.234 90.824 219.234C92.462 219.234 93.74 218.208 94.316 216.804ZM97.7051 206.328H96.1751V219H97.7051V206.328ZM102.012 210.072H100.482V219H102.012V210.072ZM102.012 206.526H100.482V208.308H102.012V206.526ZM117.316 219V213.096C117.316 211.188 116.02 209.838 114.346 209.838C113.158 209.838 112.114 210.558 111.484 211.512C110.998 210.486 110.062 209.838 108.964 209.838C107.776 209.838 106.786 210.594 106.264 211.44V210.072H104.788V219H106.318V212.484C106.822 211.728 107.686 211.134 108.568 211.134C109.558 211.134 110.278 211.962 110.278 213.204V219H111.808V213.096C111.808 212.826 111.79 212.574 111.736 212.322C112.276 211.638 113.14 211.134 114.004 211.134C115.03 211.134 115.786 211.962 115.786 213.204V219H117.316ZM127.356 219.144L127.428 217.974C127.32 217.992 127.14 218.01 127.032 218.01C126.492 218.01 126.222 217.632 126.222 217.146V213.042C126.222 210.972 124.962 209.838 123.018 209.838C121.47 209.838 120.12 210.702 119.472 212.106L120.66 212.592C121.11 211.746 121.812 211.116 122.874 211.116C123.972 211.116 124.692 211.872 124.692 212.988V213.69L122.604 213.942C120.624 214.194 119.22 215.148 119.22 216.804C119.22 218.226 120.354 219.234 121.938 219.234C123.198 219.234 124.188 218.622 124.764 217.668C124.98 218.694 125.646 219.234 126.654 219.234C126.924 219.234 127.14 219.198 127.356 219.144ZM122.352 217.992C121.452 217.992 120.822 217.452 120.822 216.696C120.822 215.778 121.686 215.238 122.874 215.094L124.692 214.878V216.516C124.224 217.38 123.342 217.992 122.352 217.992ZM134.14 218.946V217.668C133.762 217.812 133.132 217.92 132.574 217.92C131.44 217.92 130.99 217.362 130.99 216.516V211.332H134.086V210.072H130.99V207.894H129.46V210.072H128.146V211.332H129.46V216.768C129.46 218.334 130.522 219.234 132.304 219.234C132.97 219.234 133.744 219.09 134.14 218.946ZM137.379 210.072H135.849V219H137.379V210.072ZM137.379 206.526H135.849V208.308H137.379V206.526ZM147.086 216.804L145.79 216.3C145.358 217.29 144.638 217.92 143.648 217.92C142.19 217.92 141.128 216.534 141.128 214.608C141.128 212.592 142.154 211.134 143.576 211.134C144.476 211.134 145.25 211.692 145.682 212.736L147.014 212.196C146.384 210.756 145.178 209.838 143.54 209.838C141.2 209.838 139.508 211.836 139.508 214.608C139.508 217.29 141.218 219.234 143.594 219.234C145.232 219.234 146.51 218.208 147.086 216.804ZM156.451 219V213.114C156.451 211.188 155.119 209.838 153.373 209.838C152.131 209.838 151.069 210.54 150.475 211.368V206.328H148.945V219H150.475V212.52C151.033 211.728 152.005 211.134 153.013 211.134C154.129 211.134 154.921 211.962 154.921 213.204V219H156.451ZM166.286 216.966L165.062 216.498C164.594 217.416 163.73 217.974 162.758 217.974C161.264 217.974 160.184 216.732 160.076 214.86H166.268C166.322 214.626 166.358 214.14 166.358 213.744C166.358 211.458 164.792 209.838 162.614 209.838C160.238 209.838 158.474 211.854 158.474 214.608C158.474 217.308 160.238 219.234 162.668 219.234C164.27 219.234 165.656 218.388 166.286 216.966ZM162.632 211.08C163.892 211.08 164.774 212.088 164.828 213.636H160.166C160.436 212.088 161.39 211.08 162.632 211.08ZM185.185 219V213.096C185.185 211.188 183.889 209.838 182.215 209.838C181.027 209.838 179.983 210.558 179.353 211.512C178.867 210.486 177.931 209.838 176.833 209.838C175.645 209.838 174.655 210.594 174.133 211.44V210.072H172.657V219H174.187V212.484C174.691 211.728 175.555 211.134 176.437 211.134C177.427 211.134 178.147 211.962 178.147 213.204V219H179.677V213.096C179.677 212.826 179.659 212.574 179.605 212.322C180.145 211.638 181.009 211.134 181.873 211.134C182.899 211.134 183.655 211.962 183.655 213.204V219H185.185ZM189.357 210.072H187.827V219H189.357V210.072ZM189.357 206.526H187.827V208.308H189.357V206.526ZM199.874 219.594C199.874 218.298 198.92 217.614 196.886 217.434L195.626 217.326C194.366 217.218 193.916 217.002 193.916 216.732C193.916 216.516 194.114 216.21 194.294 216.012C194.6 216.084 194.942 216.12 195.266 216.12C197.21 216.12 198.794 214.86 198.794 213.114C198.794 212.466 198.596 211.854 198.218 211.332C198.704 211.08 199.478 210.864 200.198 210.864V209.496C199.1 209.496 198.236 210.018 197.696 210.756C197.048 210.198 196.166 209.838 195.158 209.838C193.16 209.838 191.594 211.206 191.594 213.006C191.594 214.284 192.386 215.256 193.502 215.76C192.926 216.156 192.44 216.768 192.44 217.182C192.44 217.542 192.692 217.848 193.142 218.082C192.026 218.55 191.216 219.36 191.216 220.17C191.216 221.646 192.854 222.51 195.356 222.51C198.128 222.51 199.874 221.286 199.874 219.594ZM195.374 221.34C193.7 221.34 192.746 220.728 192.746 219.936C192.746 219.324 193.304 218.73 194.06 218.406C194.42 218.496 194.834 218.568 195.302 218.604L196.562 218.712C198.002 218.838 198.362 219.18 198.362 219.828C198.362 220.674 197.192 221.34 195.374 221.34ZM193.124 213.024C193.124 211.89 193.988 211.008 195.176 211.008C196.364 211.008 197.264 211.89 197.264 213.024C197.264 214.14 196.364 214.95 195.176 214.95C193.988 214.95 193.124 214.14 193.124 213.024ZM203.42 206.328H201.89V219H203.42V206.328ZM207.727 210.072H206.197V219H207.727V210.072ZM207.727 206.526H206.197V208.308H207.727V206.526ZM218.495 214.554C218.495 211.818 216.677 209.838 214.175 209.838C211.673 209.838 209.837 211.818 209.837 214.554C209.837 217.254 211.673 219.234 214.175 219.234C216.677 219.234 218.495 217.254 218.495 214.554ZM211.457 214.554C211.457 212.574 212.591 211.116 214.175 211.116C215.741 211.116 216.875 212.574 216.875 214.554C216.875 216.498 215.741 217.938 214.175 217.938C212.591 217.938 211.457 216.498 211.457 214.554ZM222.123 219V213.672C222.267 212.484 222.987 211.368 224.373 211.368C224.679 211.368 225.111 211.422 225.363 211.494V209.982C225.183 209.91 224.751 209.838 224.445 209.838C223.401 209.838 222.429 210.756 222.069 211.89V210.072H220.593V219H222.123ZM234.032 216.966L232.808 216.498C232.34 217.416 231.476 217.974 230.504 217.974C229.01 217.974 227.93 216.732 227.822 214.86H234.014C234.068 214.626 234.104 214.14 234.104 213.744C234.104 211.458 232.538 209.838 230.36 209.838C227.984 209.838 226.22 211.854 226.22 214.608C226.22 217.308 227.984 219.234 230.414 219.234C232.016 219.234 233.402 218.388 234.032 216.966ZM230.378 211.08C231.638 211.08 232.52 212.088 232.574 213.636H227.912C228.182 212.088 229.136 211.08 230.378 211.08ZM237.785 219V213.672C237.929 212.484 238.649 211.368 240.035 211.368C240.341 211.368 240.773 211.422 241.025 211.494V209.982C240.845 209.91 240.413 209.838 240.107 209.838C239.063 209.838 238.091 210.756 237.731 211.89V210.072H236.255V219H237.785ZM249.964 219.144L250.036 217.974C249.928 217.992 249.748 218.01 249.64 218.01C249.1 218.01 248.83 217.632 248.83 217.146V213.042C248.83 210.972 247.57 209.838 245.626 209.838C244.078 209.838 242.728 210.702 242.08 212.106L243.268 212.592C243.718 211.746 244.42 211.116 245.482 211.116C246.58 211.116 247.3 211.872 247.3 212.988V213.69L245.212 213.942C243.232 214.194 241.828 215.148 241.828 216.804C241.828 218.226 242.962 219.234 244.546 219.234C245.806 219.234 246.796 218.622 247.372 217.668C247.588 218.694 248.254 219.234 249.262 219.234C249.532 219.234 249.748 219.198 249.964 219.144ZM244.96 217.992C244.06 217.992 243.43 217.452 243.43 216.696C243.43 215.778 244.294 215.238 245.482 215.094L247.3 214.878V216.516C246.832 217.38 245.95 217.992 244.96 217.992ZM259.177 219V213.096C259.177 211.188 257.845 209.838 256.099 209.838C254.821 209.838 253.741 210.594 253.147 211.44V210.072H251.671V219H253.201V212.52C253.759 211.728 254.731 211.134 255.739 211.134C256.855 211.134 257.647 211.962 257.647 213.204V219H259.177ZM269.355 219V213.096C269.355 211.188 268.023 209.838 266.277 209.838C264.999 209.838 263.919 210.594 263.325 211.44V210.072H261.849V219H263.379V212.52C263.937 211.728 264.909 211.134 265.917 211.134C267.033 211.134 267.825 211.962 267.825 213.204V219H269.355ZM280.019 214.554C280.019 211.818 278.201 209.838 275.699 209.838C273.197 209.838 271.361 211.818 271.361 214.554C271.361 217.254 273.197 219.234 275.699 219.234C278.201 219.234 280.019 217.254 280.019 214.554ZM272.981 214.554C272.981 212.574 274.115 211.116 275.699 211.116C277.265 211.116 278.399 212.574 278.399 214.554C278.399 216.498 277.265 217.938 275.699 217.938C274.115 217.938 272.981 216.498 272.981 214.554ZM88.916 228.328H87.386V241H88.916V228.328ZM99.0906 241.144L99.1626 239.974C99.0546 239.992 98.8746 240.01 98.7666 240.01C98.2266 240.01 97.9566 239.632 97.9566 239.146V235.042C97.9566 232.972 96.6966 231.838 94.7526 231.838C93.2046 231.838 91.8546 232.702 91.2066 234.106L92.3946 234.592C92.8446 233.746 93.5466 233.116 94.6086 233.116C95.7066 233.116 96.4266 233.872 96.4266 234.988V235.69L94.3386 235.942C92.3586 236.194 90.9546 237.148 90.9546 238.804C90.9546 240.226 92.0886 241.234 93.6726 241.234C94.9326 241.234 95.9226 240.622 96.4986 239.668C96.7146 240.694 97.3806 241.234 98.3886 241.234C98.6586 241.234 98.8746 241.198 99.0906 241.144ZM94.0866 239.992C93.1866 239.992 92.5566 239.452 92.5566 238.696C92.5566 237.778 93.4206 237.238 94.6086 237.094L96.4266 236.878V238.516C95.9586 239.38 95.0766 239.992 94.0866 239.992ZM108.799 239.956C107.953 239.956 107.017 239.506 106.477 238.858V234.52C106.945 233.8 107.827 233.098 108.871 233.098C110.365 233.098 111.481 234.448 111.481 236.5C111.481 238.534 110.365 239.956 108.799 239.956ZM113.101 236.5C113.101 233.764 111.373 231.838 109.267 231.838C107.899 231.838 106.891 232.666 106.423 233.404V232.072H104.947V244.276H106.477V240.064C107.053 240.766 108.043 241.234 109.105 241.234C111.355 241.234 113.101 239.236 113.101 236.5ZM116.742 241V235.672C116.886 234.484 117.606 233.368 118.992 233.368C119.298 233.368 119.73 233.422 119.982 233.494V231.982C119.802 231.91 119.37 231.838 119.064 231.838C118.02 231.838 117.048 232.756 116.688 233.89V232.072H115.212V241H116.742ZM129.48 236.554C129.48 233.818 127.662 231.838 125.16 231.838C122.658 231.838 120.822 233.818 120.822 236.554C120.822 239.254 122.658 241.234 125.16 241.234C127.662 241.234 129.48 239.254 129.48 236.554ZM122.442 236.554C122.442 234.574 123.576 233.116 125.16 233.116C126.726 233.116 127.86 234.574 127.86 236.554C127.86 238.498 126.726 239.938 125.16 239.938C123.576 239.938 122.442 238.498 122.442 236.554ZM135.429 239.956C134.583 239.956 133.647 239.506 133.107 238.858V234.52C133.575 233.8 134.457 233.098 135.501 233.098C136.995 233.098 138.111 234.448 138.111 236.5C138.111 238.534 136.995 239.956 135.429 239.956ZM139.731 236.5C139.731 233.764 138.003 231.838 135.897 231.838C134.529 231.838 133.521 232.666 133.053 233.404V232.072H131.577V244.276H133.107V240.064C133.683 240.766 134.673 241.234 135.735 241.234C137.985 241.234 139.731 239.236 139.731 236.5ZM143.373 241V235.672C143.517 234.484 144.237 233.368 145.623 233.368C145.929 233.368 146.361 233.422 146.613 233.494V231.982C146.433 231.91 146.001 231.838 145.695 231.838C144.651 231.838 143.679 232.756 143.319 233.89V232.072H141.843V241H143.373ZM149.895 232.072H148.365V241H149.895V232.072ZM149.895 228.526H148.365V230.308H149.895V228.526ZM160.069 241.144L160.141 239.974C160.033 239.992 159.853 240.01 159.745 240.01C159.205 240.01 158.935 239.632 158.935 239.146V235.042C158.935 232.972 157.675 231.838 155.731 231.838C154.183 231.838 152.833 232.702 152.185 234.106L153.373 234.592C153.823 233.746 154.525 233.116 155.587 233.116C156.685 233.116 157.405 233.872 157.405 234.988V235.69L155.317 235.942C153.337 236.194 151.933 237.148 151.933 238.804C151.933 240.226 153.067 241.234 154.651 241.234C155.911 241.234 156.901 240.622 157.477 239.668C157.693 240.694 158.359 241.234 159.367 241.234C159.637 241.234 159.853 241.198 160.069 241.144ZM155.065 239.992C154.165 239.992 153.535 239.452 153.535 238.696C153.535 237.778 154.399 237.238 155.587 237.094L157.405 236.878V238.516C156.937 239.38 156.055 239.992 155.065 239.992ZM169.579 239.956C168.049 239.956 166.897 238.606 166.897 236.608C166.897 234.574 168.031 233.098 169.633 233.098C170.515 233.098 171.379 233.584 171.901 234.286V238.678C171.469 239.38 170.569 239.956 169.579 239.956ZM173.431 244.276V232.072H171.937V233.206C171.361 232.378 170.353 231.838 169.237 231.838C167.077 231.838 165.277 233.782 165.277 236.59C165.277 239.29 166.987 241.234 169.183 241.234C170.317 241.234 171.325 240.694 171.901 239.884V244.276H173.431ZM183.408 241V232.072H181.878V238.228C181.428 239.218 180.564 239.938 179.502 239.938C178.404 239.938 177.612 239.074 177.612 237.868V232.072H176.082V237.976C176.082 239.866 177.342 241.234 179.07 241.234C180.384 241.234 181.41 240.478 181.932 239.524V241H183.408ZM193.573 241.144L193.645 239.974C193.537 239.992 193.357 240.01 193.249 240.01C192.709 240.01 192.439 239.632 192.439 239.146V235.042C192.439 232.972 191.179 231.838 189.235 231.838C187.687 231.838 186.337 232.702 185.689 234.106L186.877 234.592C187.327 233.746 188.029 233.116 189.091 233.116C190.189 233.116 190.909 233.872 190.909 234.988V235.69L188.821 235.942C186.841 236.194 185.437 237.148 185.437 238.804C185.437 240.226 186.571 241.234 188.155 241.234C189.415 241.234 190.405 240.622 190.981 239.668C191.197 240.694 191.863 241.234 192.871 241.234C193.141 241.234 193.357 241.198 193.573 241.144ZM188.569 239.992C187.669 239.992 187.039 239.452 187.039 238.696C187.039 237.778 187.903 237.238 189.091 237.094L190.909 236.878V238.516C190.441 239.38 189.559 239.992 188.569 239.992ZM196.811 228.328H195.281V241H196.811V228.328ZM201.117 232.072H199.587V241H201.117V232.072ZM201.117 228.526H199.587V230.308H201.117V228.526ZM208.97 240.946V239.668C208.592 239.812 207.962 239.92 207.404 239.92C206.27 239.92 205.82 239.362 205.82 238.516V233.332H208.916V232.072H205.82V229.894H204.29V232.072H202.976V233.332H204.29V238.768C204.29 240.334 205.352 241.234 207.134 241.234C207.8 241.234 208.574 241.09 208.97 240.946ZM218.077 241.144L218.149 239.974C218.041 239.992 217.861 240.01 217.753 240.01C217.213 240.01 216.943 239.632 216.943 239.146V235.042C216.943 232.972 215.683 231.838 213.739 231.838C212.191 231.838 210.841 232.702 210.193 234.106L211.381 234.592C211.831 233.746 212.533 233.116 213.595 233.116C214.693 233.116 215.413 233.872 215.413 234.988V235.69L213.325 235.942C211.345 236.194 209.941 237.148 209.941 238.804C209.941 240.226 211.075 241.234 212.659 241.234C213.919 241.234 214.909 240.622 215.485 239.668C215.701 240.694 216.367 241.234 217.375 241.234C217.645 241.234 217.861 241.198 218.077 241.144ZM213.073 239.992C212.173 239.992 211.543 239.452 211.543 238.696C211.543 237.778 212.407 237.238 213.595 237.094L215.413 236.878V238.516C214.945 239.38 214.063 239.992 213.073 239.992ZM214.927 230.146L212.227 227.662L211.183 228.904L214.153 231.082L214.927 230.146ZM227.479 239.956C225.985 239.956 224.923 238.534 224.923 236.59C224.923 234.592 226.039 233.134 227.587 233.134C228.541 233.134 229.423 233.566 229.891 234.25V238.66C229.369 239.434 228.415 239.956 227.479 239.956ZM231.421 241V228.328H229.891V233.044C229.279 232.324 228.235 231.838 227.263 231.838C224.959 231.838 223.285 233.836 223.285 236.608C223.285 239.29 224.905 241.234 227.137 241.234C228.163 241.234 229.315 240.604 229.981 239.722V241H231.421ZM235.729 232.072H234.199V241H235.729V232.072ZM235.729 228.526H234.199V230.308H235.729V228.526ZM241.312 232.072L244.534 241H246.118L249.322 232.072H247.774L245.398 239.02H245.344L242.968 232.072H241.312ZM252.639 232.072H251.109V241H252.639V232.072ZM252.639 228.526H251.109V230.308H252.639V228.526ZM260.491 240.946V239.668C260.113 239.812 259.483 239.92 258.925 239.92C257.791 239.92 257.341 239.362 257.341 238.516V233.332H260.437V232.072H257.341V229.894H255.811V232.072H254.497V233.332H255.811V238.768C255.811 240.334 256.873 241.234 258.655 241.234C259.321 241.234 260.095 241.09 260.491 240.946ZM269.598 241.144L269.67 239.974C269.562 239.992 269.382 240.01 269.274 240.01C268.734 240.01 268.464 239.632 268.464 239.146V235.042C268.464 232.972 267.204 231.838 265.26 231.838C263.712 231.838 262.362 232.702 261.714 234.106L262.902 234.592C263.352 233.746 264.054 233.116 265.116 233.116C266.214 233.116 266.934 233.872 266.934 234.988V235.69L264.846 235.942C262.866 236.194 261.462 237.148 261.462 238.804C261.462 240.226 262.596 241.234 264.18 241.234C265.44 241.234 266.43 240.622 267.006 239.668C267.222 240.694 267.888 241.234 268.896 241.234C269.166 241.234 269.382 241.198 269.598 241.144ZM264.594 239.992C263.694 239.992 263.064 239.452 263.064 238.696C263.064 237.778 263.928 237.238 265.116 237.094L266.934 236.878V238.516C266.466 239.38 265.584 239.992 264.594 239.992ZM272.818 241V238.606H271.018V241H272.818Z" fill="white"/>
<mask id="mask0_1098_1100" style="mask-type:alpha" maskUnits="userSpaceOnUse" x="153" y="279" width="212" height="221">
<path d="M362.318 479.169H351.619V466.147C351.619 464.984 350.69 464.286 349.759 464.286H167.669C166.506 464.286 165.809 465.216 165.809 466.147V479.169H155.11C153.947 479.169 153.25 480.099 153.25 481.03V497.774C153.25 498.937 154.179 499.635 155.11 499.635H362.781C363.944 499.635 364.641 498.705 364.641 497.774V481.03C364.411 480.099 363.48 479.169 362.319 479.169H362.318Z" fill="white" fill-opacity="0.2"/>
<path d="M156.74 352.893H360.457C362.55 352.893 364.41 351.264 364.41 348.94V342.196C364.41 340.336 363.247 338.475 361.62 337.546L261.855 279.872C259.762 278.709 257.436 278.709 255.343 279.872L155.81 337.546C154.181 338.475 153.02 340.104 153.02 342.196V348.94C152.786 351.266 154.647 352.893 156.739 352.893H156.74ZM258.599 308.708C264.18 308.708 268.598 313.126 268.598 318.707C268.598 324.288 264.179 328.706 258.599 328.706C253.017 328.706 248.6 324.287 248.6 318.707C248.6 313.126 253.017 308.708 258.599 308.708Z" fill="white" fill-opacity="0.2"/>
<path d="M198.6 367.544C199.763 367.544 200.46 366.614 200.46 365.683V359.637C200.46 358.474 199.531 357.776 198.6 357.776H177.902C176.739 357.776 176.042 358.706 176.042 359.637V365.683C176.042 366.846 176.971 367.544 177.902 367.544H180.46V449.635H177.902C176.739 449.635 176.042 450.565 176.042 451.496V457.542C176.042 458.705 176.971 459.402 177.902 459.402H198.6C199.763 459.402 200.46 458.473 200.46 457.542V451.496C200.46 450.333 199.531 449.635 198.6 449.635H196.041V367.544H198.6Z" fill="white" fill-opacity="0.2"/>
<path d="M339.062 367.544C340.225 367.544 340.923 366.614 340.923 365.683V359.637C340.923 358.474 339.993 357.776 339.062 357.776H318.365C317.202 357.776 316.504 358.706 316.504 359.637V365.683C316.504 366.846 317.434 367.544 318.365 367.544H320.923V449.635H318.365C317.202 449.635 316.504 450.565 316.504 451.496V457.542C316.504 458.705 317.434 459.402 318.365 459.402H339.062C340.225 459.402 340.923 458.473 340.923 457.542V451.496C340.923 450.333 339.993 449.635 339.062 449.635H336.504V367.544H339.062Z" fill="white" fill-opacity="0.2"/>
<path d="M303.947 367.544C305.11 367.544 305.807 366.614 305.807 365.683V359.637C305.807 358.474 304.878 357.776 303.947 357.776H283.249C282.086 357.776 281.389 358.706 281.389 359.637V365.683C281.389 366.846 282.318 367.544 283.249 367.544H285.808V449.635H283.249C282.086 449.635 281.389 450.565 281.389 451.496V457.542C281.389 458.705 282.318 459.402 283.249 459.402H303.947C305.11 459.402 305.807 458.473 305.807 457.542V451.496C305.807 450.333 304.878 449.635 303.947 449.635H301.389V367.544H303.947Z" fill="white" fill-opacity="0.2"/>
<path d="M268.831 367.544C269.994 367.544 270.691 366.614 270.691 365.683V359.637C270.691 358.474 269.762 357.776 268.831 357.776H248.133C246.97 357.776 246.273 358.706 246.273 359.637V365.683C246.273 366.846 247.202 367.544 248.133 367.544H250.692V449.635H248.133C246.97 449.635 246.273 450.565 246.273 451.496V457.542C246.273 458.705 247.202 459.402 248.133 459.402H268.831C269.994 459.402 270.691 458.473 270.691 457.542V451.496C270.691 450.333 269.762 449.635 268.831 449.635H266.273V367.544H268.831Z" fill="white" fill-opacity="0.2"/>
<path d="M233.715 367.544C234.878 367.544 235.576 366.614 235.576 365.683V359.637C235.576 358.474 234.646 357.776 233.715 357.776H213.018C211.855 357.776 211.157 358.706 211.157 359.637V365.683C211.157 366.846 212.087 367.544 213.018 367.544H215.576V449.635H213.018C211.855 449.635 211.157 450.565 211.157 451.496V457.542C211.157 458.705 212.087 459.402 213.018 459.402H233.715C234.878 459.402 235.576 458.473 235.576 457.542V451.496C235.576 450.333 234.646 449.635 233.715 449.635H231.157V367.544H233.715Z" fill="white" fill-opacity="0.2"/>
</mask>
<g mask="url(#mask0_1098_1100)">
<rect x="65" y="61" width="284" height="422" fill="#C4C4C4"/>
</g>
<defs>
<filter id="filter0_d_1098_1100" x="0.5" y="0.5" width="413" height="551" filterUnits="userSpaceOnUse" color-interpolation-filters="sRGB">
<feFlood flood-opacity="0" result="BackgroundImageFix"/>
<feColorMatrix in="SourceAlpha" type="matrix" values="0 0 0 0 0 0 0 0 0 0 0 0 0 0 0 0 0 0 127 0" result="hardAlpha"/>
<feOffset dy="4"/>
<feGaussianBlur stdDeviation="31.5"/>
<feComposite in2="hardAlpha" operator="out"/>
<feColorMatrix type="matrix" values="0 0 0 0 0 0 0 0 0 0 0 0 0 0 0 0 0 0 0.6 0"/>
<feBlend mode="normal" in2="BackgroundImageFix" result="effect1_dropShadow_1098_1100"/>
<feBlend mode="normal" in="SourceGraphic" in2="effect1_dropShadow_1098_1100" result="shape"/>
</filter>
</defs>
</svg>
