<svg width="414" height="552" viewBox="0 0 414 552" fill="none" xmlns="http://www.w3.org/2000/svg">
<g filter="url(#filter0_d_1098_1096)">
<path d="M65 66C65 63.2386 67.2386 61 70 61L344 61C346.761 61 349 63.2386 349 66L349 478C349 480.761 346.761 483 344 483L70 483C67.2386 483 65 480.761 65 478L65 66Z" fill="#1767D2"/>
<path d="M65 66C65 63.2386 67.2386 61 70 61L344 61C346.761 61 349 63.2386 349 66L349 478C349 480.761 346.761 483 344 483L70 483C67.2386 483 65 480.761 65 478L65 66Z" stroke="#1767D2" stroke-width="3"/>
</g>
<path d="M95.17 106.59H89.92V126H95.17V106.59ZM109.141 125.97V122.13C108.661 122.25 107.941 122.43 107.041 122.43C105.601 122.43 104.881 121.74 104.881 120.45V114.84H109.021V111H104.881V107.34H99.9313V111H97.6213V114.84H99.9313V121.71C99.9313 124.65 101.911 126.45 105.901 126.45C107.071 126.45 108.331 126.24 109.141 125.97ZM125.578 126.15L125.788 122.82C125.548 122.85 125.188 122.88 124.978 122.88C124.318 122.88 124.048 122.43 124.048 121.56V116.46C124.048 112.56 121.708 110.55 117.748 110.55C114.268 110.55 111.988 112.29 110.938 114.78L114.448 116.25C115.018 115.14 115.948 114.27 117.208 114.27C118.408 114.27 119.188 115.08 119.188 116.28V116.91L116.068 117.42C112.468 118.05 110.398 119.82 110.398 122.37C110.398 124.77 112.258 126.45 114.868 126.45C116.938 126.45 118.588 125.4 119.608 123.96C120.388 125.76 121.918 126.45 123.718 126.45C124.408 126.45 125.068 126.33 125.578 126.15ZM116.938 123C115.978 123 115.348 122.4 115.348 121.59C115.348 120.63 116.158 120.03 117.388 119.82L119.188 119.52V121.92C118.618 122.55 117.808 123 116.938 123ZM132.686 105.24H127.736V126H132.686V105.24ZM140.948 111H135.998V126H140.948V111ZM140.948 105.36H135.998V109.2H140.948V105.36ZM158.449 126.15L158.659 122.82C158.419 122.85 158.059 122.88 157.849 122.88C157.189 122.88 156.919 122.43 156.919 121.56V116.46C156.919 112.56 154.579 110.55 150.619 110.55C147.139 110.55 144.859 112.29 143.809 114.78L147.319 116.25C147.889 115.14 148.819 114.27 150.079 114.27C151.279 114.27 152.059 115.08 152.059 116.28V116.91L148.939 117.42C145.339 118.05 143.269 119.82 143.269 122.37C143.269 124.77 145.129 126.45 147.739 126.45C149.809 126.45 151.459 125.4 152.479 123.96C153.259 125.76 154.789 126.45 156.589 126.45C157.279 126.45 157.939 126.33 158.449 126.15ZM149.809 123C148.849 123 148.219 122.4 148.219 121.59C148.219 120.63 149.029 120.03 150.259 119.82L152.059 119.52V121.92C151.489 122.55 150.679 123 149.809 123Z" fill="white"/>
<path d="M91.24 163.354H89.584V175H91.24V163.354ZM95.7324 162.328H94.2024V175H95.7324V162.328ZM116.121 162.85V159.04H101.811V163.24H110.931L103.881 175H109.431L116.121 162.85ZM133.06 169.81C133.06 166.66 130.42 164.62 126.46 164.62C124.48 164.62 122.95 165.13 121.81 165.79L122.11 162.88H132.25V159.01H118.66L118.15 168.34L121.3 169.09C122.05 168.58 123.49 168.19 124.9 168.19C126.76 168.19 127.9 168.91 127.9 169.99C127.9 171.07 126.73 171.88 124.9 171.88C123.19 171.88 121.66 171.25 120.82 170.23L117.46 172.06C118.96 174.25 121.84 175.45 125.38 175.45C129.88 175.45 133.06 173.05 133.06 169.81ZM154.308 156.55L152.898 155.14C151.518 156.28 149.418 157 147.288 157C145.728 157 144.018 156.7 142.818 156.28C141.978 155.56 140.868 155.14 139.608 155.14C136.728 155.14 134.658 157.3 134.658 160.27C134.658 163.24 136.728 165.37 139.608 165.37C142.488 165.37 144.558 163.24 144.558 160.27C144.558 159.67 144.468 159.07 144.318 158.56C145.248 158.98 146.298 159.22 147.228 159.22C148.098 159.19 149.058 158.92 150.018 158.41L136.218 174.01L137.688 175.45L154.308 156.55ZM155.988 170.35C155.988 167.38 153.918 165.22 151.038 165.22C148.158 165.22 146.088 167.38 146.088 170.35C146.088 173.32 148.158 175.45 151.038 175.45C153.918 175.45 155.988 173.32 155.988 170.35ZM149.358 170.35C149.358 168.94 150.078 167.92 151.038 167.92C152.028 167.92 152.718 168.94 152.718 170.35C152.718 171.73 152.028 172.72 151.038 172.72C150.078 172.72 149.358 171.73 149.358 170.35ZM137.928 160.27C137.928 158.86 138.648 157.84 139.608 157.84C140.598 157.84 141.288 158.86 141.288 160.27C141.288 161.65 140.598 162.64 139.608 162.64C138.648 162.64 137.928 161.65 137.928 160.27ZM165.811 173.956C164.317 173.956 163.255 172.534 163.255 170.59C163.255 168.592 164.371 167.134 165.919 167.134C166.873 167.134 167.755 167.566 168.223 168.25V172.66C167.701 173.434 166.747 173.956 165.811 173.956ZM169.753 175V162.328H168.223V167.044C167.611 166.324 166.567 165.838 165.595 165.838C163.291 165.838 161.617 167.836 161.617 170.608C161.617 173.29 163.237 175.234 165.469 175.234C166.495 175.234 167.647 174.604 168.313 173.722V175H169.753ZM179.695 172.966L178.471 172.498C178.003 173.416 177.139 173.974 176.167 173.974C174.673 173.974 173.593 172.732 173.485 170.86H179.677C179.731 170.626 179.767 170.14 179.767 169.744C179.767 167.458 178.201 165.838 176.023 165.838C173.647 165.838 171.883 167.854 171.883 170.608C171.883 173.308 173.647 175.234 176.077 175.234C177.679 175.234 179.065 174.388 179.695 172.966ZM176.041 167.08C177.301 167.08 178.183 168.088 178.237 169.636H173.575C173.845 168.088 174.799 167.08 176.041 167.08ZM183.447 166.072H181.917V175H183.447V166.072ZM183.447 162.526H181.917V164.308H183.447V162.526ZM197.302 172.804L196.006 172.3C195.574 173.29 194.854 173.92 193.864 173.92C192.406 173.92 191.344 172.534 191.344 170.608C191.344 168.592 192.37 167.134 193.792 167.134C194.692 167.134 195.466 167.692 195.898 168.736L197.23 168.196C196.6 166.756 195.394 165.838 193.756 165.838C191.416 165.838 189.724 167.836 189.724 170.608C189.724 173.29 191.434 175.234 193.81 175.234C195.448 175.234 196.726 174.208 197.302 172.804ZM200.691 166.072H199.161V175H200.691V166.072ZM200.691 162.526H199.161V164.308H200.691V162.526ZM208.544 174.946V173.668C208.166 173.812 207.536 173.92 206.978 173.92C205.844 173.92 205.394 173.362 205.394 172.516V167.332H208.49V166.072H205.394V163.894H203.864V166.072H202.55V167.332H203.864V172.768C203.864 174.334 204.926 175.234 206.708 175.234C207.374 175.234 208.148 175.09 208.544 174.946ZM215.329 174.946V173.668C214.951 173.812 214.321 173.92 213.763 173.92C212.629 173.92 212.179 173.362 212.179 172.516V167.332H215.275V166.072H212.179V163.894H210.649V166.072H209.335V167.332H210.649V172.768C210.649 174.334 211.711 175.234 213.493 175.234C214.159 175.234 214.933 175.09 215.329 174.946ZM224.436 175.144L224.508 173.974C224.4 173.992 224.22 174.01 224.112 174.01C223.572 174.01 223.302 173.632 223.302 173.146V169.042C223.302 166.972 222.042 165.838 220.098 165.838C218.55 165.838 217.2 166.702 216.552 168.106L217.74 168.592C218.19 167.746 218.892 167.116 219.954 167.116C221.052 167.116 221.772 167.872 221.772 168.988V169.69L219.684 169.942C217.704 170.194 216.3 171.148 216.3 172.804C216.3 174.226 217.434 175.234 219.018 175.234C220.278 175.234 221.268 174.622 221.844 173.668C222.06 174.694 222.726 175.234 223.734 175.234C224.004 175.234 224.22 175.198 224.436 175.144ZM219.432 173.992C218.532 173.992 217.902 173.452 217.902 172.696C217.902 171.778 218.766 171.238 219.954 171.094L221.772 170.878V172.516C221.304 173.38 220.422 173.992 219.432 173.992ZM229.69 173.956C228.196 173.956 227.134 172.534 227.134 170.59C227.134 168.592 228.25 167.134 229.798 167.134C230.752 167.134 231.634 167.566 232.102 168.25V172.66C231.58 173.434 230.626 173.956 229.69 173.956ZM233.632 175V162.328H232.102V167.044C231.49 166.324 230.446 165.838 229.474 165.838C227.17 165.838 225.496 167.836 225.496 170.608C225.496 173.29 227.116 175.234 229.348 175.234C230.374 175.234 231.526 174.604 232.192 173.722V175H233.632ZM237.939 166.072H236.409V175H237.939V166.072ZM237.939 162.526H236.409V164.308H237.939V162.526ZM248.222 175V169.096C248.222 167.188 246.89 165.838 245.144 165.838C243.866 165.838 242.786 166.594 242.192 167.44V166.072H240.716V175H242.246V168.52C242.804 167.728 243.776 167.134 244.784 167.134C245.9 167.134 246.692 167.962 246.692 169.204V175H248.222ZM252.424 166.072H250.894V175H252.424V166.072ZM252.424 162.526H250.894V164.308H252.424V162.526ZM96.784 197.144L96.856 195.974C96.748 195.992 96.568 196.01 96.46 196.01C95.92 196.01 95.65 195.632 95.65 195.146V191.042C95.65 188.972 94.39 187.838 92.446 187.838C90.898 187.838 89.548 188.702 88.9 190.106L90.088 190.592C90.538 189.746 91.24 189.116 92.302 189.116C93.4 189.116 94.12 189.872 94.12 190.988V191.69L92.032 191.942C90.052 192.194 88.648 193.148 88.648 194.804C88.648 196.226 89.782 197.234 91.366 197.234C92.626 197.234 93.616 196.622 94.192 195.668C94.408 196.694 95.074 197.234 96.082 197.234C96.352 197.234 96.568 197.198 96.784 197.144ZM91.78 195.992C90.88 195.992 90.25 195.452 90.25 194.696C90.25 193.778 91.114 193.238 92.302 193.094L94.12 192.878V194.516C93.652 195.38 92.77 195.992 91.78 195.992ZM103.729 189.332V188.072H100.471V187.712C100.471 186.236 101.209 185.372 102.397 185.372C102.883 185.372 103.477 185.462 103.873 185.624L103.909 184.346C103.495 184.22 102.775 184.094 102.235 184.094C100.183 184.094 98.9415 185.444 98.9415 187.73V188.072H97.7895V189.332H98.9415V197H100.471V189.332H103.729ZM110.55 189.332V188.072H107.292V187.712C107.292 186.236 108.03 185.372 109.218 185.372C109.704 185.372 110.298 185.462 110.694 185.624L110.73 184.346C110.316 184.22 109.596 184.094 109.056 184.094C107.004 184.094 105.762 185.444 105.762 187.73V188.072H104.61V189.332H105.762V197H107.292V189.332H110.55ZM118.839 194.966L117.615 194.498C117.147 195.416 116.283 195.974 115.311 195.974C113.817 195.974 112.737 194.732 112.629 192.86H118.821C118.875 192.626 118.911 192.14 118.911 191.744C118.911 189.458 117.345 187.838 115.167 187.838C112.791 187.838 111.027 189.854 111.027 192.608C111.027 195.308 112.791 197.234 115.221 197.234C116.823 197.234 118.209 196.388 118.839 194.966ZM115.185 189.08C116.445 189.08 117.327 190.088 117.381 191.636H112.719C112.989 190.088 113.943 189.08 115.185 189.08ZM122.592 197V191.672C122.736 190.484 123.456 189.368 124.842 189.368C125.148 189.368 125.58 189.422 125.832 189.494V187.982C125.652 187.91 125.22 187.838 124.914 187.838C123.87 187.838 122.898 188.756 122.538 189.89V188.072H121.062V197H122.592ZM140.111 197V191.096C140.111 189.188 138.815 187.838 137.141 187.838C135.953 187.838 134.909 188.558 134.279 189.512C133.793 188.486 132.857 187.838 131.759 187.838C130.571 187.838 129.581 188.594 129.059 189.44V188.072H127.583V197H129.113V190.484C129.617 189.728 130.481 189.134 131.363 189.134C132.353 189.134 133.073 189.962 133.073 191.204V197H134.603V191.096C134.603 190.826 134.585 190.574 134.531 190.322C135.071 189.638 135.935 189.134 136.799 189.134C137.825 189.134 138.581 189.962 138.581 191.204V197H140.111ZM150.151 197.144L150.223 195.974C150.115 195.992 149.935 196.01 149.827 196.01C149.287 196.01 149.017 195.632 149.017 195.146V191.042C149.017 188.972 147.757 187.838 145.813 187.838C144.265 187.838 142.915 188.702 142.267 190.106L143.455 190.592C143.905 189.746 144.607 189.116 145.669 189.116C146.767 189.116 147.487 189.872 147.487 190.988V191.69L145.399 191.942C143.419 192.194 142.015 193.148 142.015 194.804C142.015 196.226 143.149 197.234 144.733 197.234C145.993 197.234 146.983 196.622 147.559 195.668C147.775 196.694 148.441 197.234 149.449 197.234C149.719 197.234 149.935 197.198 150.151 197.144ZM145.147 195.992C144.247 195.992 143.617 195.452 143.617 194.696C143.617 193.778 144.481 193.238 145.669 193.094L147.487 192.878V194.516C147.019 195.38 146.137 195.992 145.147 195.992ZM162.937 194.804L161.641 194.3C161.209 195.29 160.489 195.92 159.499 195.92C158.041 195.92 156.979 194.534 156.979 192.608C156.979 190.592 158.005 189.134 159.427 189.134C160.327 189.134 161.101 189.692 161.533 190.736L162.865 190.196C162.235 188.756 161.029 187.838 159.391 187.838C157.051 187.838 155.359 189.836 155.359 192.608C155.359 195.29 157.069 197.234 159.445 197.234C161.083 197.234 162.361 196.208 162.937 194.804ZM172.302 197V191.114C172.302 189.188 170.97 187.838 169.224 187.838C167.982 187.838 166.92 188.54 166.326 189.368V184.328H164.796V197H166.326V190.52C166.884 189.728 167.856 189.134 168.864 189.134C169.98 189.134 170.772 189.962 170.772 191.204V197H172.302ZM182.138 194.966L180.914 194.498C180.446 195.416 179.582 195.974 178.61 195.974C177.116 195.974 176.036 194.732 175.928 192.86H182.12C182.174 192.626 182.21 192.14 182.21 191.744C182.21 189.458 180.644 187.838 178.466 187.838C176.09 187.838 174.326 189.854 174.326 192.608C174.326 195.308 176.09 197.234 178.52 197.234C180.122 197.234 181.508 196.388 182.138 194.966ZM178.484 189.08C179.744 189.08 180.626 190.088 180.68 191.636H176.018C176.288 190.088 177.242 189.08 178.484 189.08ZM190.039 184.328H188.509V197H190.039V184.328ZM200.214 197.144L200.286 195.974C200.178 195.992 199.998 196.01 199.89 196.01C199.35 196.01 199.08 195.632 199.08 195.146V191.042C199.08 188.972 197.82 187.838 195.876 187.838C194.328 187.838 192.978 188.702 192.33 190.106L193.518 190.592C193.968 189.746 194.67 189.116 195.732 189.116C196.83 189.116 197.55 189.872 197.55 190.988V191.69L195.462 191.942C193.482 192.194 192.078 193.148 192.078 194.804C192.078 196.226 193.212 197.234 194.796 197.234C196.056 197.234 197.046 196.622 197.622 195.668C197.838 196.694 198.504 197.234 199.512 197.234C199.782 197.234 199.998 197.198 200.214 197.144ZM195.21 195.992C194.31 195.992 193.68 195.452 193.68 194.696C193.68 193.778 194.544 193.238 195.732 193.094L197.55 192.878V194.516C197.082 195.38 196.2 195.992 195.21 195.992ZM94.462 218.946V217.668C94.084 217.812 93.454 217.92 92.896 217.92C91.762 217.92 91.312 217.362 91.312 216.516V211.332H94.408V210.072H91.312V207.894H89.782V210.072H88.468V211.332H89.782V216.768C89.782 218.334 90.844 219.234 92.626 219.234C93.292 219.234 94.066 219.09 94.462 218.946ZM97.7012 219V213.672C97.8452 212.484 98.5652 211.368 99.9512 211.368C100.257 211.368 100.689 211.422 100.941 211.494V209.982C100.761 209.91 100.329 209.838 100.023 209.838C98.9792 209.838 98.0072 210.756 97.6472 211.89V210.072H96.1712V219H97.7012ZM109.88 219.144L109.952 217.974C109.844 217.992 109.664 218.01 109.556 218.01C109.016 218.01 108.746 217.632 108.746 217.146V213.042C108.746 210.972 107.486 209.838 105.542 209.838C103.994 209.838 102.644 210.702 101.996 212.106L103.184 212.592C103.634 211.746 104.336 211.116 105.398 211.116C106.496 211.116 107.216 211.872 107.216 212.988V213.69L105.128 213.942C103.148 214.194 101.744 215.148 101.744 216.804C101.744 218.226 102.878 219.234 104.462 219.234C105.722 219.234 106.712 218.622 107.288 217.668C107.504 218.694 108.17 219.234 109.178 219.234C109.448 219.234 109.664 219.198 109.88 219.144ZM104.876 217.992C103.976 217.992 103.346 217.452 103.346 216.696C103.346 215.778 104.21 215.238 105.398 215.094L107.216 214.878V216.516C106.748 217.38 105.866 217.992 104.876 217.992ZM119.093 219V213.096C119.093 211.188 117.761 209.838 116.015 209.838C114.737 209.838 113.657 210.594 113.063 211.44V210.072H111.587V219H113.117V212.52C113.675 211.728 114.647 211.134 115.655 211.134C116.771 211.134 117.563 211.962 117.563 213.204V219H119.093ZM128.587 216.552C128.587 214.896 127.183 214.212 125.167 213.78C123.655 213.438 122.791 213.168 122.791 212.376C122.791 211.62 123.637 211.098 124.825 211.098C126.067 211.098 126.895 211.62 127.309 212.484L128.533 211.998C128.011 210.9 126.913 209.838 124.843 209.838C122.737 209.838 121.297 210.954 121.297 212.466C121.297 214.014 122.755 214.734 124.735 215.148C126.265 215.472 127.111 215.778 127.111 216.624C127.111 217.434 126.355 217.992 125.041 217.992C123.547 217.992 122.593 217.326 122.143 216.444L120.883 216.93C121.495 218.334 122.935 219.234 124.969 219.234C127.237 219.234 128.587 218.136 128.587 216.552ZM132.207 210.072H130.677V219H132.207V210.072ZM132.207 206.526H130.677V208.308H132.207V206.526ZM134.372 211.404H139.178L134.246 217.812V219H141.23V217.668H136.082L141.14 211.26V210.072H134.372V211.404ZM144.775 210.072H143.245V219H144.775V210.072ZM144.775 206.526H143.245V208.308H144.775V206.526ZM155.544 214.554C155.544 211.818 153.726 209.838 151.224 209.838C148.722 209.838 146.886 211.818 146.886 214.554C146.886 217.254 148.722 219.234 151.224 219.234C153.726 219.234 155.544 217.254 155.544 214.554ZM148.506 214.554C148.506 212.574 149.64 211.116 151.224 211.116C152.79 211.116 153.924 212.574 153.924 214.554C153.924 216.498 152.79 217.938 151.224 217.938C149.64 217.938 148.506 216.498 148.506 214.554ZM165.148 219V213.096C165.148 211.188 163.816 209.838 162.07 209.838C160.792 209.838 159.712 210.594 159.118 211.44V210.072H157.642V219H159.172V212.52C159.73 211.728 160.702 211.134 161.71 211.134C162.826 211.134 163.618 211.962 163.618 213.204V219H165.148ZM174.984 216.966L173.76 216.498C173.292 217.416 172.428 217.974 171.456 217.974C169.962 217.974 168.882 216.732 168.774 214.86H174.966C175.02 214.626 175.056 214.14 175.056 213.744C175.056 211.458 173.49 209.838 171.312 209.838C168.936 209.838 167.172 211.854 167.172 214.608C167.172 217.308 168.936 219.234 171.366 219.234C172.968 219.234 174.354 218.388 174.984 216.966ZM171.33 211.08C172.59 211.08 173.472 212.088 173.526 213.636H168.864C169.134 212.088 170.088 211.08 171.33 211.08ZM180.013 210.072L183.235 219H184.819L188.023 210.072H186.475L184.099 217.02H184.045L181.669 210.072H180.013ZM196.816 216.966L195.592 216.498C195.124 217.416 194.26 217.974 193.288 217.974C191.794 217.974 190.714 216.732 190.606 214.86H196.798C196.852 214.626 196.888 214.14 196.888 213.744C196.888 211.458 195.322 209.838 193.144 209.838C190.768 209.838 189.004 211.854 189.004 214.608C189.004 217.308 190.768 219.234 193.198 219.234C194.8 219.234 196.186 218.388 196.816 216.966ZM193.162 211.08C194.422 211.08 195.304 212.088 195.358 213.636H190.696C190.966 212.088 191.92 211.08 193.162 211.08ZM200.568 219V213.672C200.712 212.484 201.432 211.368 202.818 211.368C203.124 211.368 203.556 211.422 203.808 211.494V209.982C203.628 209.91 203.196 209.838 202.89 209.838C201.846 209.838 200.874 210.756 200.514 211.89V210.072H199.038V219H200.568ZM208.877 217.956C207.383 217.956 206.321 216.534 206.321 214.59C206.321 212.592 207.437 211.134 208.985 211.134C209.939 211.134 210.821 211.566 211.289 212.25V216.66C210.767 217.434 209.813 217.956 208.877 217.956ZM212.819 219V206.328H211.289V211.044C210.677 210.324 209.633 209.838 208.661 209.838C206.357 209.838 204.683 211.836 204.683 214.608C204.683 217.29 206.303 219.234 208.535 219.234C209.561 219.234 210.713 218.604 211.379 217.722V219H212.819ZM222.761 216.966L221.537 216.498C221.069 217.416 220.205 217.974 219.233 217.974C217.739 217.974 216.659 216.732 216.551 214.86H222.743C222.797 214.626 222.833 214.14 222.833 213.744C222.833 211.458 221.267 209.838 219.089 209.838C216.713 209.838 214.949 211.854 214.949 214.608C214.949 217.308 216.713 219.234 219.143 219.234C220.745 219.234 222.131 218.388 222.761 216.966ZM219.107 211.08C220.367 211.08 221.249 212.088 221.303 213.636H216.641C216.911 212.088 217.865 211.08 219.107 211.08ZM96.208 238.552C96.208 236.896 94.804 236.212 92.788 235.78C91.276 235.438 90.412 235.168 90.412 234.376C90.412 233.62 91.258 233.098 92.446 233.098C93.688 233.098 94.516 233.62 94.93 234.484L96.154 233.998C95.632 232.9 94.534 231.838 92.464 231.838C90.358 231.838 88.918 232.954 88.918 234.466C88.918 236.014 90.376 236.734 92.356 237.148C93.886 237.472 94.732 237.778 94.732 238.624C94.732 239.434 93.976 239.992 92.662 239.992C91.168 239.992 90.214 239.326 89.764 238.444L88.504 238.93C89.116 240.334 90.556 241.234 92.59 241.234C94.858 241.234 96.208 240.136 96.208 238.552ZM105.696 241.144L105.768 239.974C105.66 239.992 105.48 240.01 105.372 240.01C104.832 240.01 104.562 239.632 104.562 239.146V235.042C104.562 232.972 103.302 231.838 101.358 231.838C99.8101 231.838 98.4601 232.702 97.8121 234.106L99.0001 234.592C99.4501 233.746 100.152 233.116 101.214 233.116C102.312 233.116 103.032 233.872 103.032 234.988V235.69L100.944 235.942C98.9641 236.194 97.5601 237.148 97.5601 238.804C97.5601 240.226 98.6941 241.234 100.278 241.234C101.538 241.234 102.528 240.622 103.104 239.668C103.32 240.694 103.986 241.234 104.994 241.234C105.264 241.234 105.48 241.198 105.696 241.144ZM100.692 239.992C99.7921 239.992 99.1621 239.452 99.1621 238.696C99.1621 237.778 100.026 237.238 101.214 237.094L103.032 236.878V238.516C102.564 239.38 101.682 239.992 100.692 239.992ZM108.934 241V235.672C109.078 234.484 109.798 233.368 111.184 233.368C111.49 233.368 111.922 233.422 112.174 233.494V231.982C111.994 231.91 111.562 231.838 111.256 231.838C110.212 231.838 109.24 232.756 108.88 233.89V232.072H107.404V241H108.934ZM121.112 241.144L121.184 239.974C121.076 239.992 120.896 240.01 120.788 240.01C120.248 240.01 119.978 239.632 119.978 239.146V235.042C119.978 232.972 118.718 231.838 116.774 231.838C115.226 231.838 113.876 232.702 113.228 234.106L114.416 234.592C114.866 233.746 115.568 233.116 116.63 233.116C117.728 233.116 118.448 233.872 118.448 234.988V235.69L116.36 235.942C114.38 236.194 112.976 237.148 112.976 238.804C112.976 240.226 114.11 241.234 115.694 241.234C116.954 241.234 117.944 240.622 118.52 239.668C118.736 240.694 119.402 241.234 120.41 241.234C120.68 241.234 120.896 241.198 121.112 241.144ZM116.108 239.992C115.208 239.992 114.578 239.452 114.578 238.696C114.578 237.778 115.442 237.238 116.63 237.094L118.448 236.878V238.516C117.98 239.38 117.098 239.992 116.108 239.992ZM117.962 230.146L115.262 227.662L114.218 228.904L117.188 231.082L117.962 230.146ZM134.168 241V232.072H132.638V238.228C132.188 239.218 131.324 239.938 130.262 239.938C129.164 239.938 128.372 239.074 128.372 237.868V232.072H126.842V237.976C126.842 239.866 128.102 241.234 129.83 241.234C131.144 241.234 132.17 240.478 132.692 239.524V241H134.168ZM144.441 241V235.096C144.441 233.188 143.109 231.838 141.363 231.838C140.085 231.838 139.005 232.594 138.411 233.44V232.072H136.935V241H138.465V234.52C139.023 233.728 139.995 233.134 141.003 233.134C142.119 233.134 142.911 233.962 142.911 235.204V241H144.441ZM154.511 241.144L154.583 239.974C154.475 239.992 154.295 240.01 154.187 240.01C153.647 240.01 153.377 239.632 153.377 239.146V235.042C153.377 232.972 152.117 231.838 150.173 231.838C148.625 231.838 147.275 232.702 146.627 234.106L147.815 234.592C148.265 233.746 148.967 233.116 150.029 233.116C151.127 233.116 151.847 233.872 151.847 234.988V235.69L149.759 235.942C147.779 236.194 146.375 237.148 146.375 238.804C146.375 240.226 147.509 241.234 149.093 241.234C150.353 241.234 151.343 240.622 151.919 239.668C152.135 240.694 152.801 241.234 153.809 241.234C154.079 241.234 154.295 241.198 154.511 241.144ZM149.507 239.992C148.607 239.992 147.977 239.452 147.977 238.696C147.977 237.778 148.841 237.238 150.029 237.094L151.847 236.878V238.516C151.379 239.38 150.497 239.992 149.507 239.992ZM165.604 233.332V232.072H162.346V231.712C162.346 230.236 163.084 229.372 164.272 229.372C164.758 229.372 165.352 229.462 165.748 229.624L165.784 228.346C165.37 228.22 164.65 228.094 164.11 228.094C162.058 228.094 160.816 229.444 160.816 231.73V232.072H159.664V233.332H160.816V241H162.346V233.332H165.604ZM174.722 236.554C174.722 233.818 172.904 231.838 170.402 231.838C167.9 231.838 166.064 233.818 166.064 236.554C166.064 239.254 167.9 241.234 170.402 241.234C172.904 241.234 174.722 239.254 174.722 236.554ZM167.684 236.554C167.684 234.574 168.818 233.116 170.402 233.116C171.968 233.116 173.102 234.574 173.102 236.554C173.102 238.498 171.968 239.938 170.402 239.938C168.818 239.938 167.684 238.498 167.684 236.554ZM184.326 241V235.096C184.326 233.188 182.994 231.838 181.248 231.838C179.97 231.838 178.89 232.594 178.296 233.44V232.072H176.82V241H178.35V234.52C178.908 233.728 179.88 233.134 180.888 233.134C182.004 233.134 182.796 233.962 182.796 235.204V241H184.326ZM191.968 240.946V239.668C191.59 239.812 190.96 239.92 190.402 239.92C189.268 239.92 188.818 239.362 188.818 238.516V233.332H191.914V232.072H188.818V229.894H187.288V232.072H185.974V233.332H187.288V238.768C187.288 240.334 188.35 241.234 190.132 241.234C190.798 241.234 191.572 241.09 191.968 240.946ZM200.753 238.966L199.529 238.498C199.061 239.416 198.197 239.974 197.225 239.974C195.731 239.974 194.651 238.732 194.543 236.86H200.735C200.789 236.626 200.825 236.14 200.825 235.744C200.825 233.458 199.259 231.838 197.081 231.838C194.705 231.838 192.941 233.854 192.941 236.608C192.941 239.308 194.705 241.234 197.135 241.234C198.737 241.234 200.123 240.388 200.753 238.966ZM197.099 233.08C198.359 233.08 199.241 234.088 199.295 235.636H194.633C194.903 234.088 195.857 233.08 197.099 233.08ZM210.67 239.956C209.176 239.956 208.114 238.534 208.114 236.59C208.114 234.592 209.23 233.134 210.778 233.134C211.732 233.134 212.614 233.566 213.082 234.25V238.66C212.56 239.434 211.606 239.956 210.67 239.956ZM214.612 241V228.328H213.082V233.044C212.47 232.324 211.426 231.838 210.454 231.838C208.15 231.838 206.476 233.836 206.476 236.608C206.476 239.29 208.096 241.234 210.328 241.234C211.354 241.234 212.506 240.604 213.172 239.722V241H214.612ZM218.92 232.072H217.39V241H218.92V232.072ZM218.92 228.526H217.39V230.308H218.92V228.526ZM96.316 260.804L95.02 260.3C94.588 261.29 93.868 261.92 92.878 261.92C91.42 261.92 90.358 260.534 90.358 258.608C90.358 256.592 91.384 255.134 92.806 255.134C93.706 255.134 94.48 255.692 94.912 256.736L96.244 256.196C95.614 254.756 94.408 253.838 92.77 253.838C90.43 253.838 88.738 255.836 88.738 258.608C88.738 261.29 90.448 263.234 92.824 263.234C94.462 263.234 95.74 262.208 96.316 260.804ZM99.7051 263V257.672C99.8491 256.484 100.569 255.368 101.955 255.368C102.261 255.368 102.693 255.422 102.945 255.494V253.982C102.765 253.91 102.333 253.838 102.027 253.838C100.983 253.838 100.011 254.756 99.6511 255.89V254.072H98.1751V263H99.7051ZM111.614 260.966L110.39 260.498C109.922 261.416 109.058 261.974 108.086 261.974C106.592 261.974 105.512 260.732 105.404 258.86H111.596C111.65 258.626 111.686 258.14 111.686 257.744C111.686 255.458 110.12 253.838 107.942 253.838C105.566 253.838 103.802 255.854 103.802 258.608C103.802 261.308 105.566 263.234 107.996 263.234C109.598 263.234 110.984 262.388 111.614 260.966ZM107.96 255.08C109.22 255.08 110.102 256.088 110.156 257.636H105.494C105.764 256.088 106.718 255.08 107.96 255.08ZM120.659 260.552C120.659 258.896 119.255 258.212 117.239 257.78C115.727 257.438 114.863 257.168 114.863 256.376C114.863 255.62 115.709 255.098 116.897 255.098C118.139 255.098 118.967 255.62 119.381 256.484L120.605 255.998C120.083 254.9 118.985 253.838 116.915 253.838C114.809 253.838 113.369 254.954 113.369 256.466C113.369 258.014 114.827 258.734 116.807 259.148C118.337 259.472 119.183 259.778 119.183 260.624C119.183 261.434 118.427 261.992 117.113 261.992C115.619 261.992 114.665 261.326 114.215 260.444L112.955 260.93C113.567 262.334 115.007 263.234 117.041 263.234C119.309 263.234 120.659 262.136 120.659 260.552ZM129.679 260.804L128.383 260.3C127.951 261.29 127.231 261.92 126.241 261.92C124.783 261.92 123.721 260.534 123.721 258.608C123.721 256.592 124.747 255.134 126.169 255.134C127.069 255.134 127.843 255.692 128.275 256.736L129.607 256.196C128.977 254.756 127.771 253.838 126.133 253.838C123.793 253.838 122.101 255.836 122.101 258.608C122.101 261.29 123.811 263.234 126.187 263.234C127.825 263.234 129.103 262.208 129.679 260.804ZM133.068 254.072H131.538V263H133.068V254.072ZM133.068 250.526H131.538V252.308H133.068V250.526ZM140.921 262.946V261.668C140.543 261.812 139.913 261.92 139.355 261.92C138.221 261.92 137.771 261.362 137.771 260.516V255.332H140.867V254.072H137.771V251.894H136.241V254.072H134.927V255.332H136.241V260.768C136.241 262.334 137.303 263.234 139.085 263.234C139.751 263.234 140.525 263.09 140.921 262.946ZM150.028 263.144L150.1 261.974C149.992 261.992 149.812 262.01 149.704 262.01C149.164 262.01 148.894 261.632 148.894 261.146V257.042C148.894 254.972 147.634 253.838 145.69 253.838C144.142 253.838 142.792 254.702 142.144 256.106L143.332 256.592C143.782 255.746 144.484 255.116 145.546 255.116C146.644 255.116 147.364 255.872 147.364 256.988V257.69L145.276 257.942C143.296 258.194 141.892 259.148 141.892 260.804C141.892 262.226 143.026 263.234 144.61 263.234C145.87 263.234 146.86 262.622 147.436 261.668C147.652 262.694 148.318 263.234 149.326 263.234C149.596 263.234 149.812 263.198 150.028 263.144ZM145.024 261.992C144.124 261.992 143.494 261.452 143.494 260.696C143.494 259.778 144.358 259.238 145.546 259.094L147.364 258.878V260.516C146.896 261.38 146.014 261.992 145.024 261.992ZM163.048 260.966L161.824 260.498C161.356 261.416 160.492 261.974 159.52 261.974C158.026 261.974 156.946 260.732 156.838 258.86H163.03C163.084 258.626 163.12 258.14 163.12 257.744C163.12 255.458 161.554 253.838 159.376 253.838C157 253.838 155.236 255.854 155.236 258.608C155.236 261.308 157 263.234 159.43 263.234C161.032 263.234 162.418 262.388 163.048 260.966ZM159.394 255.08C160.654 255.08 161.536 256.088 161.59 257.636H156.928C157.198 256.088 158.152 255.08 159.394 255.08ZM172.201 260.804L170.905 260.3C170.473 261.29 169.753 261.92 168.763 261.92C167.305 261.92 166.243 260.534 166.243 258.608C166.243 256.592 167.269 255.134 168.691 255.134C169.591 255.134 170.365 255.692 170.797 256.736L172.129 256.196C171.499 254.756 170.293 253.838 168.655 253.838C166.315 253.838 164.623 255.836 164.623 258.608C164.623 261.29 166.333 263.234 168.709 263.234C170.347 263.234 171.625 262.208 172.201 260.804ZM182.052 258.554C182.052 255.818 180.234 253.838 177.732 253.838C175.23 253.838 173.394 255.818 173.394 258.554C173.394 261.254 175.23 263.234 177.732 263.234C180.234 263.234 182.052 261.254 182.052 258.554ZM175.014 258.554C175.014 256.574 176.148 255.116 177.732 255.116C179.298 255.116 180.432 256.574 180.432 258.554C180.432 260.498 179.298 261.938 177.732 261.938C176.148 261.938 175.014 260.498 175.014 258.554ZM191.656 263V257.096C191.656 255.188 190.324 253.838 188.578 253.838C187.3 253.838 186.22 254.594 185.626 255.44V254.072H184.15V263H185.68V256.52C186.238 255.728 187.21 255.134 188.218 255.134C189.334 255.134 190.126 255.962 190.126 257.204V263H191.656ZM202.319 258.554C202.319 255.818 200.501 253.838 197.999 253.838C195.497 253.838 193.661 255.818 193.661 258.554C193.661 261.254 195.497 263.234 197.999 263.234C200.501 263.234 202.319 261.254 202.319 258.554ZM195.281 258.554C195.281 256.574 196.415 255.116 197.999 255.116C199.565 255.116 200.699 256.574 200.699 258.554C200.699 260.498 199.565 261.938 197.999 261.938C196.415 261.938 195.281 260.498 195.281 258.554ZM216.945 263V257.096C216.945 255.188 215.649 253.838 213.975 253.838C212.787 253.838 211.743 254.558 211.113 255.512C210.627 254.486 209.691 253.838 208.593 253.838C207.405 253.838 206.415 254.594 205.893 255.44V254.072H204.417V263H205.947V256.484C206.451 255.728 207.315 255.134 208.197 255.134C209.187 255.134 209.907 255.962 209.907 257.204V263H211.437V257.096C211.437 256.826 211.419 256.574 211.365 256.322C211.905 255.638 212.769 255.134 213.633 255.134C214.659 255.134 215.415 255.962 215.415 257.204V263H216.945ZM221.117 254.072H219.587V263H221.117V254.072ZM221.117 250.526H219.587V252.308H221.117V250.526ZM230.824 260.804L229.528 260.3C229.096 261.29 228.376 261.92 227.386 261.92C225.928 261.92 224.866 260.534 224.866 258.608C224.866 256.592 225.892 255.134 227.314 255.134C228.214 255.134 228.988 255.692 229.42 256.736L230.752 256.196C230.122 254.756 228.916 253.838 227.278 253.838C224.938 253.838 223.246 255.836 223.246 258.608C223.246 261.29 224.956 263.234 227.332 263.234C228.97 263.234 230.248 262.208 230.824 260.804ZM240.081 263.144L240.153 261.974C240.045 261.992 239.865 262.01 239.757 262.01C239.217 262.01 238.947 261.632 238.947 261.146V257.042C238.947 254.972 237.687 253.838 235.743 253.838C234.195 253.838 232.845 254.702 232.197 256.106L233.385 256.592C233.835 255.746 234.537 255.116 235.599 255.116C236.697 255.116 237.417 255.872 237.417 256.988V257.69L235.329 257.942C233.349 258.194 231.945 259.148 231.945 260.804C231.945 262.226 233.079 263.234 234.663 263.234C235.923 263.234 236.913 262.622 237.489 261.668C237.705 262.694 238.371 263.234 239.379 263.234C239.649 263.234 239.865 263.198 240.081 263.144ZM235.077 261.992C234.177 261.992 233.547 261.452 233.547 260.696C233.547 259.778 234.411 259.238 235.599 259.094L237.417 258.878V260.516C236.949 261.38 236.067 261.992 235.077 261.992Z" fill="white"/>
<path d="M91.24 300.354H89.584V312H91.24V300.354ZM95.7324 299.328H94.2024V312H95.7324V299.328ZM116.121 299.85V296.04H101.811V300.24H110.931L103.881 312H109.431L116.121 299.85ZM132.79 307.5C132.79 305.37 131.17 304.05 128.95 303.6V303.48C130.99 302.97 132.25 301.62 132.25 299.94C132.25 297.39 129.31 295.59 125.29 295.59C121.96 295.59 119.17 296.88 117.67 299.31L121.06 301.17C121.69 300.06 123.07 299.4 124.51 299.4C126.01 299.4 127.09 300.06 127.09 300.99C127.09 301.86 126.22 302.46 124.72 302.46H121.72V305.49H124.87C126.64 305.49 127.63 305.85 127.63 306.87C127.63 307.89 126.49 308.61 124.63 308.61C122.77 308.61 121.36 307.92 120.67 306.87L117.22 308.7C118.63 311.19 121.75 312.42 125.29 312.42C129.73 312.42 132.79 310.41 132.79 307.5ZM154.074 293.55L152.664 292.14C151.284 293.28 149.184 294 147.054 294C145.494 294 143.784 293.7 142.584 293.28C141.744 292.56 140.634 292.14 139.374 292.14C136.494 292.14 134.424 294.3 134.424 297.27C134.424 300.24 136.494 302.37 139.374 302.37C142.254 302.37 144.324 300.24 144.324 297.27C144.324 296.67 144.234 296.07 144.084 295.56C145.014 295.98 146.064 296.22 146.994 296.22C147.864 296.19 148.824 295.92 149.784 295.41L135.984 311.01L137.454 312.45L154.074 293.55ZM155.754 307.35C155.754 304.38 153.684 302.22 150.804 302.22C147.924 302.22 145.854 304.38 145.854 307.35C145.854 310.32 147.924 312.45 150.804 312.45C153.684 312.45 155.754 310.32 155.754 307.35ZM149.124 307.35C149.124 305.94 149.844 304.92 150.804 304.92C151.794 304.92 152.484 305.94 152.484 307.35C152.484 308.73 151.794 309.72 150.804 309.72C149.844 309.72 149.124 308.73 149.124 307.35ZM137.694 297.27C137.694 295.86 138.414 294.84 139.374 294.84C140.364 294.84 141.054 295.86 141.054 297.27C141.054 298.65 140.364 299.64 139.374 299.64C138.414 299.64 137.694 298.65 137.694 297.27ZM163.561 312V306.672C163.705 305.484 164.425 304.368 165.811 304.368C166.117 304.368 166.549 304.422 166.801 304.494V302.982C166.621 302.91 166.189 302.838 165.883 302.838C164.839 302.838 163.867 303.756 163.507 304.89V303.072H162.031V312H163.561ZM170.082 303.072H168.552V312H170.082V303.072ZM170.082 299.526H168.552V301.308H170.082V299.526ZM177.935 311.946V310.668C177.557 310.812 176.927 310.92 176.369 310.92C175.235 310.92 174.785 310.362 174.785 309.516V304.332H177.881V303.072H174.785V300.894H173.255V303.072H171.941V304.332H173.255V309.768C173.255 311.334 174.317 312.234 176.099 312.234C176.765 312.234 177.539 312.09 177.935 311.946ZM181.174 303.072H179.644V312H181.174V303.072ZM181.174 299.526H179.644V301.308H181.174V299.526ZM191.114 309.966L189.89 309.498C189.422 310.416 188.558 310.974 187.586 310.974C186.092 310.974 185.012 309.732 184.904 307.86H191.096C191.15 307.626 191.186 307.14 191.186 306.744C191.186 304.458 189.62 302.838 187.442 302.838C185.066 302.838 183.302 304.854 183.302 307.608C183.302 310.308 185.066 312.234 187.496 312.234C189.098 312.234 190.484 311.388 191.114 309.966ZM187.46 304.08C188.72 304.08 189.602 305.088 189.656 306.636H184.994C185.264 305.088 186.218 304.08 187.46 304.08ZM200.843 312V306.096C200.843 304.188 199.511 302.838 197.765 302.838C196.487 302.838 195.407 303.594 194.813 304.44V303.072H193.337V312H194.867V305.52C195.425 304.728 196.397 304.134 197.405 304.134C198.521 304.134 199.313 304.962 199.313 306.204V312H200.843ZM210.679 309.966L209.455 309.498C208.987 310.416 208.123 310.974 207.151 310.974C205.657 310.974 204.577 309.732 204.469 307.86H210.661C210.715 307.626 210.751 307.14 210.751 306.744C210.751 304.458 209.185 302.838 207.007 302.838C204.631 302.838 202.867 304.854 202.867 307.608C202.867 310.308 204.631 312.234 207.061 312.234C208.663 312.234 210.049 311.388 210.679 309.966ZM207.025 304.08C208.285 304.08 209.167 305.088 209.221 306.636H204.559C204.829 305.088 205.783 304.08 207.025 304.08ZM223.98 309.804L222.684 309.3C222.252 310.29 221.532 310.92 220.542 310.92C219.084 310.92 218.022 309.534 218.022 307.608C218.022 305.592 219.048 304.134 220.47 304.134C221.37 304.134 222.144 304.692 222.576 305.736L223.908 305.196C223.278 303.756 222.072 302.838 220.434 302.838C218.094 302.838 216.402 304.836 216.402 307.608C216.402 310.29 218.112 312.234 220.488 312.234C222.126 312.234 223.404 311.208 223.98 309.804ZM233.345 312V306.114C233.345 304.188 232.013 302.838 230.267 302.838C229.025 302.838 227.963 303.54 227.369 304.368V299.328H225.839V312H227.369V305.52C227.927 304.728 228.899 304.134 229.907 304.134C231.023 304.134 231.815 304.962 231.815 306.204V312H233.345ZM243.181 309.966L241.957 309.498C241.489 310.416 240.625 310.974 239.653 310.974C238.159 310.974 237.079 309.732 236.971 307.86H243.163C243.217 307.626 243.253 307.14 243.253 306.744C243.253 304.458 241.687 302.838 239.509 302.838C237.133 302.838 235.369 304.854 235.369 307.608C235.369 310.308 237.133 312.234 239.563 312.234C241.165 312.234 242.551 311.388 243.181 309.966ZM239.527 304.08C240.787 304.08 241.669 305.088 241.723 306.636H237.061C237.331 305.088 238.285 304.08 239.527 304.08ZM251.082 299.328H249.552V312H251.082V299.328ZM261.023 309.966L259.799 309.498C259.331 310.416 258.467 310.974 257.495 310.974C256.001 310.974 254.921 309.732 254.813 307.86H261.005C261.059 307.626 261.095 307.14 261.095 306.744C261.095 304.458 259.529 302.838 257.351 302.838C254.975 302.838 253.211 304.854 253.211 307.608C253.211 310.308 254.975 312.234 257.405 312.234C259.007 312.234 260.393 311.388 261.023 309.966ZM257.369 304.08C258.629 304.08 259.511 305.088 259.565 306.636H254.903C255.173 305.088 256.127 304.08 257.369 304.08ZM93.238 332.956C92.392 332.956 91.456 332.506 90.916 331.858V327.52C91.384 326.8 92.266 326.098 93.31 326.098C94.804 326.098 95.92 327.448 95.92 329.5C95.92 331.534 94.804 332.956 93.238 332.956ZM97.54 329.5C97.54 326.764 95.812 324.838 93.706 324.838C92.338 324.838 91.33 325.666 90.862 326.404V325.072H89.386V337.276H90.916V333.064C91.492 333.766 92.482 334.234 93.544 334.234C95.794 334.234 97.54 332.236 97.54 329.5ZM107.644 329.554C107.644 326.818 105.826 324.838 103.324 324.838C100.822 324.838 98.9856 326.818 98.9856 329.554C98.9856 332.254 100.822 334.234 103.324 334.234C105.826 334.234 107.644 332.254 107.644 329.554ZM100.606 329.554C100.606 327.574 101.74 326.116 103.324 326.116C104.89 326.116 106.024 327.574 106.024 329.554C106.024 331.498 104.89 332.938 103.324 332.938C101.74 332.938 100.606 331.498 100.606 329.554ZM111.271 321.328H109.741V334H111.271V321.328ZM115.578 325.072H114.048V334H115.578V325.072ZM115.578 321.526H114.048V323.308H115.578V321.526ZM123.431 333.946V332.668C123.053 332.812 122.423 332.92 121.865 332.92C120.731 332.92 120.281 332.362 120.281 331.516V326.332H123.377V325.072H120.281V322.894H118.751V325.072H117.437V326.332H118.751V331.768C118.751 333.334 119.813 334.234 121.595 334.234C122.261 334.234 123.035 334.09 123.431 333.946ZM126.67 325.072H125.14V334H126.67V325.072ZM126.67 321.526H125.14V323.308H126.67V321.526ZM136.377 331.804L135.081 331.3C134.649 332.29 133.929 332.92 132.939 332.92C131.481 332.92 130.419 331.534 130.419 329.608C130.419 327.592 131.445 326.134 132.867 326.134C133.767 326.134 134.541 326.692 134.973 327.736L136.305 327.196C135.675 325.756 134.469 324.838 132.831 324.838C130.491 324.838 128.799 326.836 128.799 329.608C128.799 332.29 130.509 334.234 132.885 334.234C134.523 334.234 135.801 333.208 136.377 331.804ZM145.742 334V328.114C145.742 326.188 144.41 324.838 142.664 324.838C141.422 324.838 140.36 325.54 139.766 326.368V321.328H138.236V334H139.766V327.52C140.324 326.728 141.296 326.134 142.304 326.134C143.42 326.134 144.212 326.962 144.212 328.204V334H145.742ZM155.577 331.966L154.353 331.498C153.885 332.416 153.021 332.974 152.049 332.974C150.555 332.974 149.475 331.732 149.367 329.86H155.559C155.613 329.626 155.649 329.14 155.649 328.744C155.649 326.458 154.083 324.838 151.905 324.838C149.529 324.838 147.765 326.854 147.765 329.608C147.765 332.308 149.529 334.234 151.959 334.234C153.561 334.234 154.947 333.388 155.577 331.966ZM151.923 326.08C153.183 326.08 154.065 327.088 154.119 328.636H149.457C149.727 327.088 150.681 326.08 151.923 326.08ZM165.495 332.956C164.001 332.956 162.938 331.534 162.938 329.59C162.938 327.592 164.055 326.134 165.603 326.134C166.557 326.134 167.439 326.566 167.907 327.25V331.66C167.385 332.434 166.431 332.956 165.495 332.956ZM169.437 334V321.328H167.907V326.044C167.295 325.324 166.251 324.838 165.279 324.838C162.975 324.838 161.301 326.836 161.301 329.608C161.301 332.29 162.921 334.234 165.153 334.234C166.179 334.234 167.331 333.604 167.997 332.722V334H169.437ZM173.744 325.072H172.214V334H173.744V325.072ZM173.744 321.526H172.214V323.308H173.744V321.526ZM187.599 331.804L186.303 331.3C185.871 332.29 185.151 332.92 184.161 332.92C182.703 332.92 181.641 331.534 181.641 329.608C181.641 327.592 182.667 326.134 184.089 326.134C184.989 326.134 185.763 326.692 186.195 327.736L187.527 327.196C186.897 325.756 185.691 324.838 184.053 324.838C181.713 324.838 180.021 326.836 180.021 329.608C180.021 332.29 181.731 334.234 184.107 334.234C185.745 334.234 187.023 333.208 187.599 331.804ZM197.45 329.554C197.45 326.818 195.632 324.838 193.13 324.838C190.628 324.838 188.792 326.818 188.792 329.554C188.792 332.254 190.628 334.234 193.13 334.234C195.632 334.234 197.45 332.254 197.45 329.554ZM190.412 329.554C190.412 327.574 191.546 326.116 193.13 326.116C194.696 326.116 195.83 327.574 195.83 329.554C195.83 331.498 194.696 332.938 193.13 332.938C191.546 332.938 190.412 331.498 190.412 329.554ZM207.054 334V328.096C207.054 326.188 205.722 324.838 203.976 324.838C202.698 324.838 201.618 325.594 201.024 326.44V325.072H199.548V334H201.078V327.52C201.636 326.728 202.608 326.134 203.616 326.134C204.732 326.134 205.524 326.962 205.524 328.204V334H207.054ZM214.696 333.946V332.668C214.318 332.812 213.688 332.92 213.13 332.92C211.996 332.92 211.546 332.362 211.546 331.516V326.332H214.642V325.072H211.546V322.894H210.016V325.072H208.702V326.332H210.016V331.768C210.016 333.334 211.078 334.234 212.86 334.234C213.526 334.234 214.3 334.09 214.696 333.946ZM217.936 334V328.672C218.08 327.484 218.8 326.368 220.186 326.368C220.492 326.368 220.924 326.422 221.176 326.494V324.982C220.996 324.91 220.564 324.838 220.258 324.838C219.214 324.838 218.242 325.756 217.882 326.89V325.072H216.406V334H217.936ZM230.114 334.144L230.186 332.974C230.078 332.992 229.898 333.01 229.79 333.01C229.25 333.01 228.98 332.632 228.98 332.146V328.042C228.98 325.972 227.72 324.838 225.776 324.838C224.228 324.838 222.878 325.702 222.23 327.106L223.418 327.592C223.868 326.746 224.57 326.116 225.632 326.116C226.73 326.116 227.45 326.872 227.45 327.988V328.69L225.362 328.942C223.382 329.194 221.978 330.148 221.978 331.804C221.978 333.226 223.112 334.234 224.696 334.234C225.956 334.234 226.946 333.622 227.522 332.668C227.738 333.694 228.404 334.234 229.412 334.234C229.682 334.234 229.898 334.198 230.114 334.144ZM225.11 332.992C224.21 332.992 223.58 332.452 223.58 331.696C223.58 330.778 224.444 330.238 225.632 330.094L227.45 329.878V331.516C226.982 332.38 226.1 332.992 225.11 332.992ZM238.644 331.552C238.644 329.896 237.24 329.212 235.224 328.78C233.712 328.438 232.848 328.168 232.848 327.376C232.848 326.62 233.694 326.098 234.882 326.098C236.124 326.098 236.952 326.62 237.366 327.484L238.59 326.998C238.068 325.9 236.97 324.838 234.9 324.838C232.794 324.838 231.354 325.954 231.354 327.466C231.354 329.014 232.812 329.734 234.792 330.148C236.322 330.472 237.168 330.778 237.168 331.624C237.168 332.434 236.412 332.992 235.098 332.992C233.604 332.992 232.65 332.326 232.2 331.444L230.94 331.93C231.552 333.334 232.992 334.234 235.026 334.234C237.294 334.234 238.644 333.136 238.644 331.552ZM245.739 333.946V332.668C245.361 332.812 244.731 332.92 244.173 332.92C243.039 332.92 242.589 332.362 242.589 331.516V326.332H245.685V325.072H242.589V322.894H241.059V325.072H239.745V326.332H241.059V331.768C241.059 333.334 242.121 334.234 243.903 334.234C244.569 334.234 245.343 334.09 245.739 333.946ZM255.353 329.554C255.353 326.818 253.535 324.838 251.033 324.838C248.531 324.838 246.695 326.818 246.695 329.554C246.695 332.254 248.531 334.234 251.033 334.234C253.535 334.234 255.353 332.254 255.353 329.554ZM248.315 329.554C248.315 327.574 249.449 326.116 251.033 326.116C252.599 326.116 253.733 327.574 253.733 329.554C253.733 331.498 252.599 332.938 251.033 332.938C249.449 332.938 248.315 331.498 248.315 329.554ZM92.932 354.956C91.438 354.956 90.376 353.534 90.376 351.59C90.376 349.592 91.492 348.134 93.04 348.134C93.994 348.134 94.876 348.566 95.344 349.25V353.66C94.822 354.434 93.868 354.956 92.932 354.956ZM96.874 356V343.328H95.344V348.044C94.732 347.324 93.688 346.838 92.716 346.838C90.412 346.838 88.738 348.836 88.738 351.608C88.738 354.29 90.358 356.234 92.59 356.234C93.616 356.234 94.768 355.604 95.434 354.722V356H96.874ZM106.816 353.966L105.592 353.498C105.124 354.416 104.26 354.974 103.288 354.974C101.794 354.974 100.714 353.732 100.606 351.86H106.798C106.852 351.626 106.888 351.14 106.888 350.744C106.888 348.458 105.322 346.838 103.144 346.838C100.768 346.838 99.0036 348.854 99.0036 351.608C99.0036 354.308 100.768 356.234 103.198 356.234C104.8 356.234 106.186 355.388 106.816 353.966ZM103.162 348.08C104.422 348.08 105.304 349.088 105.358 350.636H100.696C100.966 349.088 101.92 348.08 103.162 348.08ZM110.568 347.072H109.038V356H110.568V347.072ZM110.568 343.526H109.038V345.308H110.568V343.526ZM124.423 353.804L123.127 353.3C122.695 354.29 121.975 354.92 120.985 354.92C119.527 354.92 118.465 353.534 118.465 351.608C118.465 349.592 119.491 348.134 120.913 348.134C121.813 348.134 122.587 348.692 123.019 349.736L124.351 349.196C123.721 347.756 122.515 346.838 120.877 346.838C118.537 346.838 116.845 348.836 116.845 351.608C116.845 354.29 118.555 356.234 120.931 356.234C122.569 356.234 123.847 355.208 124.423 353.804ZM133.68 356.144L133.752 354.974C133.644 354.992 133.464 355.01 133.356 355.01C132.816 355.01 132.546 354.632 132.546 354.146V350.042C132.546 347.972 131.286 346.838 129.342 346.838C127.794 346.838 126.444 347.702 125.796 349.106L126.984 349.592C127.434 348.746 128.136 348.116 129.198 348.116C130.296 348.116 131.016 348.872 131.016 349.988V350.69L128.928 350.942C126.948 351.194 125.544 352.148 125.544 353.804C125.544 355.226 126.678 356.234 128.262 356.234C129.522 356.234 130.512 355.622 131.088 354.668C131.304 355.694 131.97 356.234 132.978 356.234C133.248 356.234 133.464 356.198 133.68 356.144ZM128.676 354.992C127.776 354.992 127.146 354.452 127.146 353.696C127.146 352.778 128.01 352.238 129.198 352.094L131.016 351.878V353.516C130.548 354.38 129.666 354.992 128.676 354.992ZM147.916 356V350.096C147.916 348.188 146.62 346.838 144.946 346.838C143.758 346.838 142.714 347.558 142.084 348.512C141.598 347.486 140.662 346.838 139.564 346.838C138.376 346.838 137.386 347.594 136.864 348.44V347.072H135.388V356H136.918V349.484C137.422 348.728 138.286 348.134 139.168 348.134C140.158 348.134 140.878 348.962 140.878 350.204V356H142.408V350.096C142.408 349.826 142.39 349.574 142.336 349.322C142.876 348.638 143.74 348.134 144.604 348.134C145.63 348.134 146.386 348.962 146.386 350.204V356H147.916ZM158.712 351.5C158.712 348.8 157.11 346.838 154.914 346.838C153.888 346.838 152.754 347.414 152.088 348.26V343.328H150.558V356H151.998V354.92C152.682 355.694 153.798 356.234 154.77 356.234C157.056 356.234 158.712 354.254 158.712 351.5ZM154.41 354.956C153.474 354.956 152.574 354.47 152.088 353.804V349.358C152.574 348.62 153.528 348.134 154.5 348.134C155.994 348.134 157.092 349.538 157.092 351.482C157.092 353.48 155.958 354.956 154.41 354.956ZM162.371 347.072H160.841V356H162.371V347.072ZM162.371 343.526H160.841V345.308H162.371V343.526ZM172.546 356.144L172.618 354.974C172.51 354.992 172.33 355.01 172.222 355.01C171.682 355.01 171.412 354.632 171.412 354.146V350.042C171.412 347.972 170.152 346.838 168.208 346.838C166.66 346.838 165.31 347.702 164.662 349.106L165.85 349.592C166.3 348.746 167.002 348.116 168.064 348.116C169.162 348.116 169.882 348.872 169.882 349.988V350.69L167.794 350.942C165.814 351.194 164.41 352.148 164.41 353.804C164.41 355.226 165.544 356.234 167.128 356.234C168.388 356.234 169.378 355.622 169.954 354.668C170.17 355.694 170.836 356.234 171.844 356.234C172.114 356.234 172.33 356.198 172.546 356.144ZM167.542 354.992C166.642 354.992 166.012 354.452 166.012 353.696C166.012 352.778 166.876 352.238 168.064 352.094L169.882 351.878V353.516C169.414 354.38 168.532 354.992 167.542 354.992ZM186.781 356V350.096C186.781 348.188 185.485 346.838 183.811 346.838C182.623 346.838 181.579 347.558 180.949 348.512C180.463 347.486 179.527 346.838 178.429 346.838C177.241 346.838 176.251 347.594 175.729 348.44V347.072H174.253V356H175.783V349.484C176.287 348.728 177.151 348.134 178.033 348.134C179.023 348.134 179.743 348.962 179.743 350.204V356H181.273V350.096C181.273 349.826 181.255 349.574 181.201 349.322C181.741 348.638 182.605 348.134 183.469 348.134C184.495 348.134 185.251 348.962 185.251 350.204V356H186.781ZM196.587 353.966L195.363 353.498C194.895 354.416 194.031 354.974 193.059 354.974C191.565 354.974 190.485 353.732 190.377 351.86H196.569C196.623 351.626 196.659 351.14 196.659 350.744C196.659 348.458 195.093 346.838 192.915 346.838C190.539 346.838 188.775 348.854 188.775 351.608C188.775 354.308 190.539 356.234 192.969 356.234C194.571 356.234 195.957 355.388 196.587 353.966ZM192.933 348.08C194.193 348.08 195.075 349.088 195.129 350.636H190.467C190.737 349.088 191.691 348.08 192.933 348.08ZM206.316 356V350.096C206.316 348.188 204.984 346.838 203.238 346.838C201.96 346.838 200.88 347.594 200.286 348.44V347.072H198.81V356H200.34V349.52C200.898 348.728 201.87 348.134 202.878 348.134C203.994 348.134 204.786 348.962 204.786 350.204V356H206.316ZM213.958 355.946V354.668C213.58 354.812 212.95 354.92 212.392 354.92C211.258 354.92 210.808 354.362 210.808 353.516V348.332H213.904V347.072H210.808V344.894H209.278V347.072H207.964V348.332H209.278V353.768C209.278 355.334 210.34 356.234 212.122 356.234C212.788 356.234 213.562 356.09 213.958 355.946ZM217.197 347.072H215.667V356H217.197V347.072ZM217.197 343.526H215.667V345.308H217.197V343.526ZM96.316 375.804L95.02 375.3C94.588 376.29 93.868 376.92 92.878 376.92C91.42 376.92 90.358 375.534 90.358 373.608C90.358 371.592 91.384 370.134 92.806 370.134C93.706 370.134 94.48 370.692 94.912 371.736L96.244 371.196C95.614 369.756 94.408 368.838 92.77 368.838C90.43 368.838 88.738 370.836 88.738 373.608C88.738 376.29 90.448 378.234 92.824 378.234C94.462 378.234 95.74 377.208 96.316 375.804ZM99.7051 365.328H98.1751V378H99.7051V365.328ZM104.012 369.072H102.482V378H104.012V369.072ZM104.012 365.526H102.482V367.308H104.012V365.526ZM119.316 378V372.096C119.316 370.188 118.02 368.838 116.346 368.838C115.158 368.838 114.114 369.558 113.484 370.512C112.998 369.486 112.062 368.838 110.964 368.838C109.776 368.838 108.786 369.594 108.264 370.44V369.072H106.788V378H108.318V371.484C108.822 370.728 109.686 370.134 110.568 370.134C111.558 370.134 112.278 370.962 112.278 372.204V378H113.808V372.096C113.808 371.826 113.79 371.574 113.736 371.322C114.276 370.638 115.14 370.134 116.004 370.134C117.03 370.134 117.786 370.962 117.786 372.204V378H119.316ZM129.356 378.144L129.428 376.974C129.32 376.992 129.14 377.01 129.032 377.01C128.492 377.01 128.222 376.632 128.222 376.146V372.042C128.222 369.972 126.962 368.838 125.018 368.838C123.47 368.838 122.12 369.702 121.472 371.106L122.66 371.592C123.11 370.746 123.812 370.116 124.874 370.116C125.972 370.116 126.692 370.872 126.692 371.988V372.69L124.604 372.942C122.624 373.194 121.22 374.148 121.22 375.804C121.22 377.226 122.354 378.234 123.938 378.234C125.198 378.234 126.188 377.622 126.764 376.668C126.98 377.694 127.646 378.234 128.654 378.234C128.924 378.234 129.14 378.198 129.356 378.144ZM124.352 376.992C123.452 376.992 122.822 376.452 122.822 375.696C122.822 374.778 123.686 374.238 124.874 374.094L126.692 373.878V375.516C126.224 376.38 125.342 376.992 124.352 376.992ZM136.14 377.946V376.668C135.762 376.812 135.132 376.92 134.574 376.92C133.44 376.92 132.99 376.362 132.99 375.516V370.332H136.086V369.072H132.99V366.894H131.46V369.072H130.146V370.332H131.46V375.768C131.46 377.334 132.522 378.234 134.304 378.234C134.97 378.234 135.744 378.09 136.14 377.946ZM139.379 369.072H137.849V378H139.379V369.072ZM139.379 365.526H137.849V367.308H139.379V365.526ZM149.086 375.804L147.79 375.3C147.358 376.29 146.638 376.92 145.648 376.92C144.19 376.92 143.128 375.534 143.128 373.608C143.128 371.592 144.154 370.134 145.576 370.134C146.476 370.134 147.25 370.692 147.682 371.736L149.014 371.196C148.384 369.756 147.178 368.838 145.54 368.838C143.2 368.838 141.508 370.836 141.508 373.608C141.508 376.29 143.218 378.234 145.594 378.234C147.232 378.234 148.51 377.208 149.086 375.804ZM152.475 369.072H150.945V378H152.475V369.072ZM152.475 365.526H150.945V367.308H152.475V365.526ZM166.33 375.804L165.034 375.3C164.602 376.29 163.882 376.92 162.892 376.92C161.434 376.92 160.372 375.534 160.372 373.608C160.372 371.592 161.398 370.134 162.82 370.134C163.72 370.134 164.494 370.692 164.926 371.736L166.258 371.196C165.628 369.756 164.422 368.838 162.784 368.838C160.444 368.838 158.752 370.836 158.752 373.608C158.752 376.29 160.462 378.234 162.838 378.234C164.476 378.234 165.754 377.208 166.33 375.804ZM169.719 378V372.672C169.863 371.484 170.583 370.368 171.969 370.368C172.275 370.368 172.707 370.422 172.959 370.494V368.982C172.779 368.91 172.347 368.838 172.041 368.838C170.997 368.838 170.025 369.756 169.665 370.89V369.072H168.189V378H169.719ZM181.628 375.966L180.404 375.498C179.936 376.416 179.072 376.974 178.1 376.974C176.606 376.974 175.526 375.732 175.418 373.86H181.61C181.664 373.626 181.7 373.14 181.7 372.744C181.7 370.458 180.134 368.838 177.956 368.838C175.58 368.838 173.816 370.854 173.816 373.608C173.816 376.308 175.58 378.234 178.01 378.234C179.612 378.234 180.998 377.388 181.628 375.966ZM177.974 370.08C179.234 370.08 180.116 371.088 180.17 372.636H175.508C175.778 371.088 176.732 370.08 177.974 370.08ZM191.015 375.966L189.791 375.498C189.323 376.416 188.459 376.974 187.487 376.974C185.993 376.974 184.913 375.732 184.805 373.86H190.997C191.051 373.626 191.087 373.14 191.087 372.744C191.087 370.458 189.521 368.838 187.343 368.838C184.967 368.838 183.203 370.854 183.203 373.608C183.203 376.308 184.967 378.234 187.397 378.234C188.999 378.234 190.385 377.388 191.015 375.966ZM187.361 370.08C188.621 370.08 189.503 371.088 189.557 372.636H184.895C185.165 371.088 186.119 370.08 187.361 370.08ZM194.768 378V372.672C194.912 371.484 195.632 370.368 197.018 370.368C197.324 370.368 197.756 370.422 198.008 370.494V368.982C197.828 368.91 197.396 368.838 197.09 368.838C196.046 368.838 195.074 369.756 194.714 370.89V369.072H193.238V378H194.768ZM206.946 378.144L207.018 376.974C206.91 376.992 206.73 377.01 206.622 377.01C206.082 377.01 205.812 376.632 205.812 376.146V372.042C205.812 369.972 204.552 368.838 202.608 368.838C201.06 368.838 199.71 369.702 199.062 371.106L200.25 371.592C200.7 370.746 201.402 370.116 202.464 370.116C203.562 370.116 204.282 370.872 204.282 371.988V372.69L202.194 372.942C200.214 373.194 198.81 374.148 198.81 375.804C198.81 377.226 199.944 378.234 201.528 378.234C202.788 378.234 203.778 377.622 204.354 376.668C204.57 377.694 205.236 378.234 206.244 378.234C206.514 378.234 206.73 378.198 206.946 378.144ZM201.942 376.992C201.042 376.992 200.412 376.452 200.412 375.696C200.412 374.778 201.276 374.238 202.464 374.094L204.282 373.878V375.516C203.814 376.38 202.932 376.992 201.942 376.992ZM216.16 378V372.096C216.16 370.188 214.828 368.838 213.082 368.838C211.804 368.838 210.724 369.594 210.13 370.44V369.072H208.654V378H210.184V371.52C210.742 370.728 211.714 370.134 212.722 370.134C213.838 370.134 214.63 370.962 214.63 372.204V378H216.16ZM226.337 378V372.096C226.337 370.188 225.005 368.838 223.259 368.838C221.981 368.838 220.901 369.594 220.307 370.44V369.072H218.831V378H220.361V371.52C220.919 370.728 221.891 370.134 222.899 370.134C224.015 370.134 224.807 370.962 224.807 372.204V378H226.337ZM237.001 373.554C237.001 370.818 235.183 368.838 232.681 368.838C230.179 368.838 228.343 370.818 228.343 373.554C228.343 376.254 230.179 378.234 232.681 378.234C235.183 378.234 237.001 376.254 237.001 373.554ZM229.963 373.554C229.963 371.574 231.097 370.116 232.681 370.116C234.247 370.116 235.381 371.574 235.381 373.554C235.381 375.498 234.247 376.938 232.681 376.938C231.097 376.938 229.963 375.498 229.963 373.554ZM93.238 398.956C92.392 398.956 91.456 398.506 90.916 397.858V393.52C91.384 392.8 92.266 392.098 93.31 392.098C94.804 392.098 95.92 393.448 95.92 395.5C95.92 397.534 94.804 398.956 93.238 398.956ZM97.54 395.5C97.54 392.764 95.812 390.838 93.706 390.838C92.338 390.838 91.33 391.666 90.862 392.404V391.072H89.386V403.276H90.916V399.064C91.492 399.766 92.482 400.234 93.544 400.234C95.794 400.234 97.54 398.236 97.54 395.5ZM101.182 391.072H99.6516V400H101.182V391.072ZM101.182 387.526H99.6516V389.308H101.182V387.526ZM111.158 400V391.072H109.628V397.228C109.178 398.218 108.314 398.938 107.252 398.938C106.154 398.938 105.362 398.074 105.362 396.868V391.072H103.832V396.976C103.832 398.866 105.092 400.234 106.82 400.234C108.134 400.234 109.16 399.478 109.682 398.524V400H111.158ZM108.728 389.146L106.028 386.662L104.984 387.904L107.954 390.082L108.728 389.146ZM121.926 398.956C121.08 398.956 120.144 398.506 119.604 397.858V393.52C120.072 392.8 120.954 392.098 121.998 392.098C123.492 392.098 124.608 393.448 124.608 395.5C124.608 397.534 123.492 398.956 121.926 398.956ZM126.228 395.5C126.228 392.764 124.5 390.838 122.394 390.838C121.026 390.838 120.018 391.666 119.55 392.404V391.072H118.074V403.276H119.604V399.064C120.18 399.766 121.17 400.234 122.232 400.234C124.482 400.234 126.228 398.236 126.228 395.5ZM136.331 395.554C136.331 392.818 134.513 390.838 132.011 390.838C129.509 390.838 127.673 392.818 127.673 395.554C127.673 398.254 129.509 400.234 132.011 400.234C134.513 400.234 136.331 398.254 136.331 395.554ZM129.293 395.554C129.293 393.574 130.427 392.116 132.011 392.116C133.577 392.116 134.711 393.574 134.711 395.554C134.711 397.498 133.577 398.938 132.011 398.938C130.427 398.938 129.293 397.498 129.293 395.554ZM145.251 397.552C145.251 395.896 143.847 395.212 141.831 394.78C140.319 394.438 139.455 394.168 139.455 393.376C139.455 392.62 140.301 392.098 141.489 392.098C142.731 392.098 143.559 392.62 143.973 393.484L145.197 392.998C144.675 391.9 143.577 390.838 141.507 390.838C139.401 390.838 137.961 391.954 137.961 393.466C137.961 395.014 139.419 395.734 141.399 396.148C142.929 396.472 143.775 396.778 143.775 397.624C143.775 398.434 143.019 398.992 141.705 398.992C140.211 398.992 139.257 398.326 138.807 397.444L137.547 397.93C138.159 399.334 139.599 400.234 141.633 400.234C143.901 400.234 145.251 399.136 145.251 397.552ZM152.347 399.946V398.668C151.969 398.812 151.339 398.92 150.781 398.92C149.647 398.92 149.197 398.362 149.197 397.516V392.332H152.293V391.072H149.197V388.894H147.667V391.072H146.353V392.332H147.667V397.768C147.667 399.334 148.729 400.234 150.511 400.234C151.177 400.234 151.951 400.09 152.347 399.946ZM155.586 391.072H154.056V400H155.586V391.072ZM155.586 387.526H154.056V389.308H155.586V387.526ZM166.057 398.956C164.563 398.956 163.501 397.534 163.501 395.59C163.501 393.592 164.617 392.134 166.165 392.134C167.119 392.134 168.001 392.566 168.469 393.25V397.66C167.947 398.434 166.993 398.956 166.057 398.956ZM169.999 400V387.328H168.469V392.044C167.857 391.324 166.813 390.838 165.841 390.838C163.537 390.838 161.863 392.836 161.863 395.608C161.863 398.29 163.483 400.234 165.715 400.234C166.741 400.234 167.893 399.604 168.559 398.722V400H169.999ZM174.307 391.072H172.777V400H174.307V391.072ZM174.307 387.526H172.777V389.308H174.307V387.526ZM182.762 387.328H181.232V400H182.762V387.328ZM192.936 400.144L193.008 398.974C192.9 398.992 192.72 399.01 192.612 399.01C192.072 399.01 191.802 398.632 191.802 398.146V394.042C191.802 391.972 190.542 390.838 188.598 390.838C187.05 390.838 185.7 391.702 185.052 393.106L186.24 393.592C186.69 392.746 187.392 392.116 188.454 392.116C189.552 392.116 190.272 392.872 190.272 393.988V394.69L188.184 394.942C186.204 395.194 184.8 396.148 184.8 397.804C184.8 399.226 185.934 400.234 187.518 400.234C188.778 400.234 189.768 399.622 190.344 398.668C190.56 399.694 191.226 400.234 192.234 400.234C192.504 400.234 192.72 400.198 192.936 400.144ZM187.932 398.992C187.032 398.992 186.402 398.452 186.402 397.696C186.402 396.778 187.266 396.238 188.454 396.094L190.272 395.878V397.516C189.804 398.38 188.922 398.992 187.932 398.992ZM193.442 391.072L196.664 400H198.248L201.452 391.072H199.904L197.528 398.02H197.474L195.098 391.072H193.442ZM211.073 395.554C211.073 392.818 209.255 390.838 206.753 390.838C204.251 390.838 202.415 392.818 202.415 395.554C202.415 398.254 204.251 400.234 206.753 400.234C209.255 400.234 211.073 398.254 211.073 395.554ZM204.035 395.554C204.035 393.574 205.169 392.116 206.753 392.116C208.319 392.116 209.453 393.574 209.453 395.554C209.453 397.498 208.319 398.938 206.753 398.938C205.169 398.938 204.035 397.498 204.035 395.554ZM214.701 400V394.672C214.845 393.484 215.565 392.368 216.951 392.368C217.257 392.368 217.689 392.422 217.941 392.494V390.982C217.761 390.91 217.329 390.838 217.023 390.838C215.979 390.838 215.007 391.756 214.647 392.89V391.072H213.171V400H214.701ZM227.439 395.554C227.439 392.818 225.621 390.838 223.119 390.838C220.617 390.838 218.781 392.818 218.781 395.554C218.781 398.254 220.617 400.234 223.119 400.234C225.621 400.234 227.439 398.254 227.439 395.554ZM220.401 395.554C220.401 393.574 221.535 392.116 223.119 392.116C224.685 392.116 225.819 393.574 225.819 395.554C225.819 397.498 224.685 398.938 223.119 398.938C221.535 398.938 220.401 397.498 220.401 395.554ZM92.932 420.956C91.438 420.956 90.376 419.534 90.376 417.59C90.376 415.592 91.492 414.134 93.04 414.134C93.994 414.134 94.876 414.566 95.344 415.25V419.66C94.822 420.434 93.868 420.956 92.932 420.956ZM96.874 422V409.328H95.344V414.044C94.732 413.324 93.688 412.838 92.716 412.838C90.412 412.838 88.738 414.836 88.738 417.608C88.738 420.29 90.358 422.234 92.59 422.234C93.616 422.234 94.768 421.604 95.434 420.722V422H96.874ZM101.182 413.072H99.6516V422H101.182V413.072ZM101.182 409.526H99.6516V411.308H101.182V409.526ZM111.761 420.956C110.231 420.956 109.079 419.606 109.079 417.608C109.079 415.574 110.213 414.098 111.815 414.098C112.697 414.098 113.561 414.584 114.083 415.286V419.678C113.651 420.38 112.751 420.956 111.761 420.956ZM115.613 425.276V413.072H114.119V414.206C113.543 413.378 112.535 412.838 111.419 412.838C109.259 412.838 107.459 414.782 107.459 417.59C107.459 420.29 109.169 422.234 111.365 422.234C112.499 422.234 113.507 421.694 114.083 420.884V425.276H115.613ZM125.59 422V413.072H124.06V419.228C123.61 420.218 122.746 420.938 121.684 420.938C120.586 420.938 119.794 420.074 119.794 418.868V413.072H118.264V418.976C118.264 420.866 119.524 422.234 121.252 422.234C122.566 422.234 123.592 421.478 124.114 420.524V422H125.59ZM135.755 422.144L135.827 420.974C135.719 420.992 135.539 421.01 135.431 421.01C134.891 421.01 134.621 420.632 134.621 420.146V416.042C134.621 413.972 133.361 412.838 131.417 412.838C129.869 412.838 128.519 413.702 127.871 415.106L129.059 415.592C129.509 414.746 130.211 414.116 131.273 414.116C132.371 414.116 133.091 414.872 133.091 415.988V416.69L131.003 416.942C129.023 417.194 127.619 418.148 127.619 419.804C127.619 421.226 128.753 422.234 130.337 422.234C131.597 422.234 132.587 421.622 133.163 420.668C133.379 421.694 134.045 422.234 135.053 422.234C135.323 422.234 135.539 422.198 135.755 422.144ZM130.751 420.992C129.851 420.992 129.221 420.452 129.221 419.696C129.221 418.778 130.085 418.238 131.273 418.094L133.091 417.878V419.516C132.623 420.38 131.741 420.992 130.751 420.992ZM144.968 422V416.096C144.968 414.188 143.636 412.838 141.89 412.838C140.612 412.838 139.532 413.594 138.938 414.44V413.072H137.462V422H138.992V415.52C139.55 414.728 140.522 414.134 141.53 414.134C142.646 414.134 143.438 414.962 143.438 416.204V422H144.968ZM152.61 421.946V420.668C152.232 420.812 151.602 420.92 151.044 420.92C149.91 420.92 149.46 420.362 149.46 419.516V414.332H152.556V413.072H149.46V410.894H147.93V413.072H146.616V414.332H147.93V419.768C147.93 421.334 148.992 422.234 150.774 422.234C151.44 422.234 152.214 422.09 152.61 421.946ZM155.85 413.072H154.32V422H155.85V413.072ZM155.85 409.526H154.32V411.308H155.85V409.526ZM170.281 422V416.096C170.281 414.188 168.949 412.838 167.203 412.838C165.925 412.838 164.845 413.594 164.251 414.44V413.072H162.775V422H164.305V415.52C164.863 414.728 165.835 414.134 166.843 414.134C167.959 414.134 168.751 414.962 168.751 416.204V422H170.281ZM180.116 419.966L178.892 419.498C178.424 420.416 177.56 420.974 176.588 420.974C175.094 420.974 174.014 419.732 173.906 417.86H180.098C180.152 417.626 180.188 417.14 180.188 416.744C180.188 414.458 178.622 412.838 176.444 412.838C174.068 412.838 172.304 414.854 172.304 417.608C172.304 420.308 174.068 422.234 176.498 422.234C178.1 422.234 179.486 421.388 180.116 419.966ZM176.462 414.08C177.722 414.08 178.604 415.088 178.658 416.636H173.996C174.266 415.088 175.22 414.08 176.462 414.08ZM96.55 441.966L95.326 441.498C94.858 442.416 93.994 442.974 93.022 442.974C91.528 442.974 90.448 441.732 90.34 439.86H96.532C96.586 439.626 96.622 439.14 96.622 438.744C96.622 436.458 95.056 434.838 92.878 434.838C90.502 434.838 88.738 436.854 88.738 439.608C88.738 442.308 90.502 444.234 92.932 444.234C94.534 444.234 95.92 443.388 96.55 441.966ZM92.896 436.08C94.156 436.08 95.038 437.088 95.092 438.636H90.43C90.7 437.088 91.654 436.08 92.896 436.08ZM100.303 431.328H98.7727V444H100.303V431.328ZM104.609 435.072H103.079V444H104.609V435.072ZM104.609 431.526H103.079V433.308H104.609V431.526ZM119.914 444V438.096C119.914 436.188 118.618 434.838 116.944 434.838C115.756 434.838 114.712 435.558 114.082 436.512C113.596 435.486 112.66 434.838 111.562 434.838C110.374 434.838 109.384 435.594 108.862 436.44V435.072H107.386V444H108.916V437.484C109.42 436.728 110.284 436.134 111.166 436.134C112.156 436.134 112.876 436.962 112.876 438.204V444H114.406V438.096C114.406 437.826 114.388 437.574 114.334 437.322C114.874 436.638 115.738 436.134 116.602 436.134C117.628 436.134 118.384 436.962 118.384 438.204V444H119.914ZM124.086 435.072H122.556V444H124.086V435.072ZM124.086 431.526H122.556V433.308H124.086V431.526ZM134.369 444V438.096C134.369 436.188 133.037 434.838 131.291 434.838C130.013 434.838 128.933 435.594 128.339 436.44V435.072H126.863V444H128.393V437.52C128.951 436.728 129.923 436.134 130.931 436.134C132.047 436.134 132.839 436.962 132.839 438.204V444H134.369ZM144.204 441.966L142.98 441.498C142.512 442.416 141.648 442.974 140.676 442.974C139.182 442.974 138.102 441.732 137.994 439.86H144.186C144.24 439.626 144.276 439.14 144.276 438.744C144.276 436.458 142.71 434.838 140.532 434.838C138.156 434.838 136.392 436.854 136.392 439.608C136.392 442.308 138.156 444.234 140.586 444.234C142.188 444.234 143.574 443.388 144.204 441.966ZM140.55 436.08C141.81 436.08 142.692 437.088 142.746 438.636H138.084C138.354 437.088 139.308 436.08 140.55 436.08ZM147.957 444V438.672C148.101 437.484 148.821 436.368 150.207 436.368C150.513 436.368 150.945 436.422 151.197 436.494V434.982C151.017 434.91 150.585 434.838 150.279 434.838C149.235 434.838 148.263 435.756 147.903 436.89V435.072H146.427V444H147.957ZM160.136 444.144L160.208 442.974C160.1 442.992 159.92 443.01 159.812 443.01C159.272 443.01 159.002 442.632 159.002 442.146V438.042C159.002 435.972 157.742 434.838 155.798 434.838C154.25 434.838 152.9 435.702 152.252 437.106L153.44 437.592C153.89 436.746 154.592 436.116 155.654 436.116C156.752 436.116 157.472 436.872 157.472 437.988V438.69L155.384 438.942C153.404 439.194 152 440.148 152 441.804C152 443.226 153.134 444.234 154.718 444.234C155.978 444.234 156.968 443.622 157.544 442.668C157.76 443.694 158.426 444.234 159.434 444.234C159.704 444.234 159.92 444.198 160.136 444.144ZM155.132 442.992C154.232 442.992 153.602 442.452 153.602 441.696C153.602 440.778 154.466 440.238 155.654 440.094L157.472 439.878V441.516C157.004 442.38 156.122 442.992 155.132 442.992ZM169.349 444V438.096C169.349 436.188 168.017 434.838 166.271 434.838C164.993 434.838 163.913 435.594 163.319 436.44V435.072H161.843V444H163.373V437.52C163.931 436.728 164.903 436.134 165.911 436.134C167.027 436.134 167.819 436.962 167.819 438.204V444H169.349ZM179.527 444V438.096C179.527 436.188 178.195 434.838 176.449 434.838C175.171 434.838 174.091 435.594 173.497 436.44V435.072H172.021V444H173.551V437.52C174.109 436.728 175.081 436.134 176.089 436.134C177.205 436.134 177.997 436.962 177.997 438.204V444H179.527ZM190.191 439.554C190.191 436.818 188.373 434.838 185.871 434.838C183.369 434.838 181.533 436.818 181.533 439.554C181.533 442.254 183.369 444.234 185.871 444.234C188.373 444.234 190.191 442.254 190.191 439.554ZM183.153 439.554C183.153 437.574 184.287 436.116 185.871 436.116C187.437 436.116 188.571 437.574 188.571 439.554C188.571 441.498 187.437 442.938 185.871 442.938C184.287 442.938 183.153 441.498 183.153 439.554Z" fill="white"/>
<mask id="mask0_1098_1096" style="mask-type:alpha" maskUnits="userSpaceOnUse" x="142" y="242" width="223" height="250">
<path fill-rule="evenodd" clip-rule="evenodd" d="M154.046 402.857C220.665 393.631 286.969 393.655 352.964 402.857V472.917H330.955V439.673C330.955 432.987 325.497 427.52 318.822 427.52C312.146 427.52 306.688 432.987 306.688 439.673V472.917H287.417V439.673C287.417 432.987 281.959 427.52 275.284 427.52C268.608 427.52 263.15 432.987 263.15 439.673V472.917H243.879V439.673C243.879 432.987 238.421 427.52 231.745 427.52C225.07 427.52 219.612 432.987 219.612 439.673V472.917H200.341V439.673C200.341 432.987 194.883 427.52 188.207 427.52C181.532 427.52 176.074 432.987 176.074 439.673V472.917H154.065V402.857H154.046ZM142 480.632H365V492H142V480.632ZM154.046 248.909C188.357 244.156 222.589 241.854 256.732 242.007L268.337 311.428C260.18 311.267 252.018 311.236 243.862 311.348V285.729C243.862 279.043 238.404 273.576 231.729 273.576C225.054 273.576 219.596 279.043 219.596 285.729V312.079C213.168 312.375 206.742 312.768 200.324 313.232V285.729C200.324 279.043 194.866 273.576 188.191 273.576C181.515 273.576 176.057 279.043 176.057 285.729V315.421C168.718 316.205 161.379 317.096 154.048 318.106V248.92L154.046 248.909ZM154.046 325.883C220.665 316.657 286.969 316.681 352.964 325.883V395.07C345.52 394.043 338.069 393.137 330.618 392.335V362.955C330.618 356.27 325.16 350.803 318.485 350.803C311.81 350.803 306.352 356.27 306.352 362.955V390.155C299.924 389.691 293.506 389.305 287.08 389.009V362.955C287.08 356.269 281.622 350.803 274.947 350.803C268.272 350.803 262.814 356.269 262.814 362.955V388.294C256.386 388.214 249.968 388.222 243.542 388.311V362.955C243.542 356.269 238.084 350.802 231.409 350.802C224.733 350.802 219.275 356.269 219.275 362.955V389.056C212.848 389.36 206.422 389.754 200.004 390.227V362.957C200.004 356.271 194.546 350.804 187.871 350.804C181.195 350.804 175.737 356.271 175.737 362.957V392.417C168.509 393.194 161.283 394.076 154.063 395.062V325.866L154.046 325.883Z" fill="white" fill-opacity="0.2"/>
</mask>
<g mask="url(#mask0_1098_1096)">
<rect x="65" y="61" width="284" height="422" fill="#C4C4C4"/>
</g>
<defs>
<filter id="filter0_d_1098_1096" x="0.5" y="0.5" width="413" height="551" filterUnits="userSpaceOnUse" color-interpolation-filters="sRGB">
<feFlood flood-opacity="0" result="BackgroundImageFix"/>
<feColorMatrix in="SourceAlpha" type="matrix" values="0 0 0 0 0 0 0 0 0 0 0 0 0 0 0 0 0 0 127 0" result="hardAlpha"/>
<feOffset dy="4"/>
<feGaussianBlur stdDeviation="31.5"/>
<feComposite in2="hardAlpha" operator="out"/>
<feColorMatrix type="matrix" values="0 0 0 0 0 0 0 0 0 0 0 0 0 0 0 0 0 0 0.6 0"/>
<feBlend mode="normal" in2="BackgroundImageFix" result="effect1_dropShadow_1098_1096"/>
<feBlend mode="normal" in="SourceGraphic" in2="effect1_dropShadow_1098_1096" result="shape"/>
</filter>
</defs>
</svg>
