<svg width="709" height="4849" viewBox="0 0 709 4849" fill="none" xmlns="http://www.w3.org/2000/svg">
<path d="M358 7C358 3.13401 354.866 1.68988e-07 351 0C347.134 -1.68988e-07 344 3.13401 344 7L358 7ZM344 4842C344 4845.87 347.134 4849 351 4849C354.866 4849 358 4845.87 358 4842L344 4842ZM344 7.4999C344 11.3659 347.134 14.4999 351 14.4999C354.866 14.4999 358 11.3659 358 7.4999L344 7.4999ZM358 32.4947C358 28.6287 354.866 25.4947 351 25.4947C347.134 25.4947 344 28.6287 344 32.4947L358 32.4947ZM344 33.4945C344 37.3605 347.134 40.4945 351 40.4945C354.866 40.4945 358 37.3605 358 33.4945L344 33.4945ZM358 58.4894C358 54.6234 354.866 51.4894 351 51.4894C347.134 51.4894 344 54.6234 344 58.4894L358 58.4894ZM344 59.4891C344 63.3551 347.134 66.4891 351 66.4891C354.866 66.4891 358 63.3551 358 59.4891L344 59.4891ZM358 84.484C358 80.618 354.866 77.484 351 77.484C347.134 77.484 344 80.618 344 84.484L358 84.484ZM344 85.4838C344 89.3498 347.134 92.4838 351 92.4838C354.866 92.4838 358 89.3498 358 85.4838L344 85.4838ZM358 110.479C358 106.613 354.866 103.479 351 103.479C347.134 103.479 344 106.613 344 110.479L358 110.479ZM344 111.478C344 115.344 347.134 118.478 351 118.478C354.866 118.478 358 115.344 358 111.478L344 111.478ZM358 136.473C358 132.607 354.866 129.473 351 129.473C347.134 129.473 344 132.607 344 136.473L358 136.473ZM344 137.473C344 141.339 347.134 144.473 351 144.473C354.866 144.473 358 141.339 358 137.473L344 137.473ZM358 162.468C358 158.602 354.866 155.468 351 155.468C347.134 155.468 344 158.602 344 162.468L358 162.468ZM344 163.468C344 167.334 347.134 170.468 351 170.468C354.866 170.468 358 167.334 358 163.468L344 163.468ZM358 188.462C358 184.596 354.866 181.462 351 181.462C347.134 181.462 344 184.596 344 188.462L358 188.462ZM344 189.462C344 193.328 347.134 196.462 351 196.462C354.866 196.462 358 193.328 358 189.462L344 189.462ZM358 214.457C358 210.591 354.866 207.457 351 207.457C347.134 207.457 344 210.591 344 214.457L358 214.457ZM344 215.457C344 219.323 347.134 222.457 351 222.457C354.866 222.457 358 219.323 358 215.457L344 215.457ZM358 240.452C358 236.586 354.866 233.452 351 233.452C347.134 233.452 344 236.586 344 240.452L358 240.452ZM344 241.451C344 245.317 347.134 248.451 351 248.451C354.866 248.451 358 245.317 358 241.451L344 241.451ZM358 266.446C358 262.58 354.866 259.446 351 259.446C347.134 259.446 344 262.58 344 266.446L358 266.446ZM344 267.446C344 271.312 347.134 274.446 351 274.446C354.866 274.446 358 271.312 358 267.446L344 267.446ZM358 292.441C358 288.575 354.866 285.441 351 285.441C347.134 285.441 344 288.575 344 292.441L358 292.441ZM344 293.441C344 297.307 347.134 300.441 351 300.441C354.866 300.441 358 297.307 358 293.441L344 293.441ZM358 318.436C358 314.57 354.866 311.436 351 311.436C347.134 311.436 344 314.57 344 318.436L358 318.436ZM344 319.435C344 323.301 347.134 326.435 351 326.435C354.866 326.435 358 323.301 358 319.435L344 319.435ZM358 344.43C358 340.564 354.866 337.43 351 337.43C347.134 337.43 344 340.564 344 344.43L358 344.43ZM344 345.43C344 349.296 347.134 352.43 351 352.43C354.866 352.43 358 349.296 358 345.43L344 345.43ZM358 370.425C358 366.559 354.866 363.425 351 363.425C347.134 363.425 344 366.559 344 370.425L358 370.425ZM344 371.425C344 375.291 347.134 378.425 351 378.425C354.866 378.425 358 375.291 358 371.425L344 371.425ZM358 396.419C358 392.553 354.866 389.419 351 389.419C347.134 389.419 344 392.553 344 396.419L358 396.419ZM344 397.419C344 401.285 347.134 404.419 351 404.419C354.866 404.419 358 401.285 358 397.419L344 397.419ZM358 422.414C358 418.548 354.866 415.414 351 415.414C347.134 415.414 344 418.548 344 422.414L358 422.414ZM344 423.414C344 427.28 347.134 430.414 351 430.414C354.866 430.414 358 427.28 358 423.414L344 423.414ZM358 448.409C358 444.543 354.866 441.409 351 441.409C347.134 441.409 344 444.543 344 448.409L358 448.409ZM344 449.409C344 453.275 347.134 456.409 351 456.409C354.866 456.409 358 453.275 358 449.409L344 449.409ZM358 474.403C358 470.537 354.866 467.403 351 467.403C347.134 467.403 344 470.537 344 474.403L358 474.403ZM344 475.403C344 479.269 347.134 482.403 351 482.403C354.866 482.403 358 479.269 358 475.403L344 475.403ZM358 500.398C358 496.532 354.866 493.398 351 493.398C347.134 493.398 344 496.532 344 500.398L358 500.398ZM344 501.398C344 505.264 347.134 508.398 351 508.398C354.866 508.398 358 505.264 358 501.398L344 501.398ZM358 526.393C358 522.527 354.866 519.393 351 519.393C347.134 519.393 344 522.527 344 526.393L358 526.393ZM344 527.392C344 531.258 347.134 534.392 351 534.392C354.866 534.392 358 531.258 358 527.392L344 527.392ZM358 552.387C358 548.521 354.866 545.387 351 545.387C347.134 545.387 344 548.521 344 552.387L358 552.387ZM344 553.387C344 557.253 347.134 560.387 351 560.387C354.866 560.387 358 557.253 358 553.387L344 553.387ZM358 578.382C358 574.516 354.866 571.382 351 571.382C347.134 571.382 344 574.516 344 578.382L358 578.382ZM344 579.382C344 583.248 347.134 586.382 351 586.382C354.866 586.382 358 583.248 358 579.382L344 579.382ZM358 604.376C358 600.51 354.866 597.376 351 597.376C347.134 597.376 344 600.51 344 604.376L358 604.376ZM344 605.376C344 609.242 347.134 612.376 351 612.376C354.866 612.376 358 609.242 358 605.376L344 605.376ZM358 630.371C358 626.505 354.866 623.371 351 623.371C347.134 623.371 344 626.505 344 630.371L358 630.371ZM344 631.371C344 635.237 347.134 638.371 351 638.371C354.866 638.371 358 635.237 358 631.371L344 631.371ZM358 656.366C358 652.5 354.866 649.366 351 649.366C347.134 649.366 344 652.5 344 656.366L358 656.366ZM344 657.366C344 661.232 347.134 664.366 351 664.366C354.866 664.366 358 661.232 358 657.366L344 657.366ZM358 682.36C358 678.494 354.866 675.36 351 675.36C347.134 675.36 344 678.494 344 682.36L358 682.36ZM344 683.36C344 687.226 347.134 690.36 351 690.36C354.866 690.36 358 687.226 358 683.36L344 683.36ZM358 708.355C358 704.489 354.866 701.355 351 701.355C347.134 701.355 344 704.489 344 708.355L358 708.355ZM344 709.355C344 713.221 347.134 716.355 351 716.355C354.866 716.355 358 713.221 358 709.355L344 709.355ZM358 734.35C358 730.484 354.866 727.35 351 727.35C347.134 727.35 344 730.484 344 734.35L358 734.35ZM344 735.349C344 739.215 347.134 742.349 351 742.349C354.866 742.349 358 739.215 358 735.349L344 735.349ZM358 760.344C358 756.478 354.866 753.344 351 753.344C347.134 753.344 344 756.478 344 760.344L358 760.344ZM344 761.344C344 765.21 347.134 768.344 351 768.344C354.866 768.344 358 765.21 358 761.344L344 761.344ZM358 786.339C358 782.473 354.866 779.339 351 779.339C347.134 779.339 344 782.473 344 786.339L358 786.339ZM344 787.339C344 791.205 347.134 794.339 351 794.339C354.866 794.339 358 791.205 358 787.339L344 787.339ZM358 812.333C358 808.468 354.866 805.333 351 805.333C347.134 805.333 344 808.468 344 812.333L358 812.333ZM344 813.333C344 817.199 347.134 820.333 351 820.333C354.866 820.333 358 817.199 358 813.333L344 813.333ZM358 838.328C358 834.462 354.866 831.328 351 831.328C347.134 831.328 344 834.462 344 838.328L358 838.328ZM344 839.328C344 843.194 347.134 846.328 351 846.328C354.866 846.328 358 843.194 358 839.328L344 839.328ZM358 864.323C358 860.457 354.866 857.323 351 857.323C347.134 857.323 344 860.457 344 864.323L358 864.323ZM344 865.323C344 869.189 347.134 872.323 351 872.323C354.866 872.323 358 869.189 358 865.323L344 865.323ZM358 890.317C358 886.451 354.866 883.317 351 883.317C347.134 883.317 344 886.451 344 890.317L358 890.317ZM344 891.317C344 895.183 347.134 898.317 351 898.317C354.866 898.317 358 895.183 358 891.317L344 891.317ZM358 916.312C358 912.446 354.866 909.312 351 909.312C347.134 909.312 344 912.446 344 916.312L358 916.312ZM344 917.312C344 921.178 347.134 924.312 351 924.312C354.866 924.312 358 921.178 358 917.312L344 917.312ZM358 942.307C358 938.441 354.866 935.307 351 935.307C347.134 935.307 344 938.441 344 942.307L358 942.307ZM344 943.306C344 947.172 347.134 950.306 351 950.306C354.866 950.306 358 947.172 358 943.306L344 943.306ZM358 968.301C358 964.435 354.866 961.301 351 961.301C347.134 961.301 344 964.435 344 968.301L358 968.301ZM344 969.301C344 973.167 347.134 976.301 351 976.301C354.866 976.301 358 973.167 358 969.301L344 969.301ZM358 994.296C358 990.43 354.866 987.296 351 987.296C347.134 987.296 344 990.43 344 994.296L358 994.296ZM344 995.296C344 999.162 347.134 1002.3 351 1002.3C354.866 1002.3 358 999.162 358 995.296L344 995.296ZM358 1020.29C358 1016.42 354.866 1013.29 351 1013.29C347.134 1013.29 344 1016.42 344 1020.29L358 1020.29ZM344 1021.29C344 1025.16 347.134 1028.29 351 1028.29C354.866 1028.29 358 1025.16 358 1021.29L344 1021.29ZM358 1046.29C358 1042.42 354.866 1039.29 351 1039.29C347.134 1039.29 344 1042.42 344 1046.29L358 1046.29ZM344 1047.28C344 1051.15 347.134 1054.28 351 1054.28C354.866 1054.28 358 1051.15 358 1047.28L344 1047.28ZM358 1072.28C358 1068.41 354.866 1065.28 351 1065.28C347.134 1065.28 344 1068.41 344 1072.28L358 1072.28ZM344 1073.28C344 1077.15 347.134 1080.28 351 1080.28C354.866 1080.28 358 1077.15 358 1073.28L344 1073.28ZM358 1098.27C358 1094.41 354.866 1091.27 351 1091.27C347.134 1091.27 344 1094.41 344 1098.27L358 1098.27ZM344 1099.27C344 1103.14 347.134 1106.27 351 1106.27C354.866 1106.27 358 1103.14 358 1099.27L344 1099.27ZM358 1124.27C358 1120.4 354.866 1117.27 351 1117.27C347.134 1117.27 344 1120.4 344 1124.27L358 1124.27ZM344 1125.27C344 1129.13 347.134 1132.27 351 1132.27C354.866 1132.27 358 1129.13 358 1125.27L344 1125.27ZM358 1150.26C358 1146.4 354.866 1143.26 351 1143.26C347.134 1143.26 344 1146.4 344 1150.26L358 1150.26ZM344 1151.26C344 1155.13 347.134 1158.26 351 1158.26C354.866 1158.26 358 1155.13 358 1151.26L344 1151.26ZM358 1176.26C358 1172.39 354.866 1169.26 351 1169.26C347.134 1169.26 344 1172.39 344 1176.26L358 1176.26ZM344 1177.26C344 1181.12 347.134 1184.26 351 1184.26C354.866 1184.26 358 1181.12 358 1177.26L344 1177.26ZM358 1202.25C358 1198.39 354.866 1195.25 351 1195.25C347.134 1195.25 344 1198.39 344 1202.25L358 1202.25ZM344 1203.25C344 1207.12 347.134 1210.25 351 1210.25C354.866 1210.25 358 1207.12 358 1203.25L344 1203.25ZM358 1228.25C358 1224.38 354.866 1221.25 351 1221.25C347.134 1221.25 344 1224.38 344 1228.25L358 1228.25ZM344 1229.25C344 1233.11 347.134 1236.25 351 1236.25C354.866 1236.25 358 1233.11 358 1229.25L344 1229.25ZM358 1254.24C358 1250.38 354.866 1247.24 351 1247.24C347.134 1247.24 344 1250.38 344 1254.24L358 1254.24ZM344 1255.24C344 1259.11 347.134 1262.24 351 1262.24C354.866 1262.24 358 1259.11 358 1255.24L344 1255.24ZM358 1280.24C358 1276.37 354.866 1273.24 351 1273.24C347.134 1273.24 344 1276.37 344 1280.24L358 1280.24ZM344 1281.24C344 1285.1 347.134 1288.24 351 1288.24C354.866 1288.24 358 1285.1 358 1281.24L344 1281.24ZM358 1306.23C358 1302.37 354.866 1299.23 351 1299.23C347.134 1299.23 344 1302.37 344 1306.23L358 1306.23ZM344 1307.23C344 1311.1 347.134 1314.23 351 1314.23C354.866 1314.23 358 1311.1 358 1307.23L344 1307.23ZM358 1332.23C358 1328.36 354.866 1325.23 351 1325.23C347.134 1325.23 344 1328.36 344 1332.23L358 1332.23ZM344 1333.23C344 1337.09 347.134 1340.23 351 1340.23C354.866 1340.23 358 1337.09 358 1333.23L344 1333.23ZM358 1358.22C358 1354.35 354.866 1351.22 351 1351.22C347.134 1351.22 344 1354.35 344 1358.22L358 1358.22ZM344 1359.22C344 1363.09 347.134 1366.22 351 1366.22C354.866 1366.22 358 1363.09 358 1359.22L344 1359.22ZM358 1384.22C358 1380.35 354.866 1377.22 351 1377.22C347.134 1377.22 344 1380.35 344 1384.22L358 1384.22ZM344 1385.22C344 1389.08 347.134 1392.22 351 1392.22C354.866 1392.22 358 1389.08 358 1385.22L344 1385.22ZM358 1410.21C358 1406.34 354.866 1403.21 351 1403.21C347.134 1403.21 344 1406.34 344 1410.21L358 1410.21ZM344 1411.21C344 1415.08 347.134 1418.21 351 1418.21C354.866 1418.21 358 1415.08 358 1411.21L344 1411.21ZM358 1436.2C358 1432.34 354.866 1429.2 351 1429.2C347.134 1429.2 344 1432.34 344 1436.2L358 1436.2ZM344 1437.2C344 1441.07 347.134 1444.2 351 1444.2C354.866 1444.2 358 1441.07 358 1437.2L344 1437.2ZM358 1462.2C358 1458.33 354.866 1455.2 351 1455.2C347.134 1455.2 344 1458.33 344 1462.2L358 1462.2ZM344 1463.2C344 1467.06 347.134 1470.2 351 1470.2C354.866 1470.2 358 1467.06 358 1463.2L344 1463.2ZM358 1488.19C358 1484.33 354.866 1481.19 351 1481.19C347.134 1481.19 344 1484.33 344 1488.19L358 1488.19ZM344 1489.19C344 1493.06 347.134 1496.19 351 1496.19C354.866 1496.19 358 1493.06 358 1489.19L344 1489.19ZM358 1514.19C358 1510.32 354.866 1507.19 351 1507.19C347.134 1507.19 344 1510.32 344 1514.19L358 1514.19ZM344 1515.19C344 1519.05 347.134 1522.19 351 1522.19C354.866 1522.19 358 1519.05 358 1515.19L344 1515.19ZM358 1540.18C358 1536.32 354.866 1533.18 351 1533.18C347.134 1533.18 344 1536.32 344 1540.18L358 1540.18ZM344 1541.18C344 1545.05 347.134 1548.18 351 1548.18C354.866 1548.18 358 1545.05 358 1541.18L344 1541.18ZM358 1566.18C358 1562.31 354.866 1559.18 351 1559.18C347.134 1559.18 344 1562.31 344 1566.18L358 1566.18ZM344 1567.18C344 1571.04 347.134 1574.18 351 1574.18C354.866 1574.18 358 1571.04 358 1567.18L344 1567.18ZM358 1592.17C358 1588.31 354.866 1585.17 351 1585.17C347.134 1585.17 344 1588.31 344 1592.17L358 1592.17ZM344 1593.17C344 1597.04 347.134 1600.17 351 1600.17C354.866 1600.17 358 1597.04 358 1593.17L344 1593.17ZM358 1618.17C358 1614.3 354.866 1611.17 351 1611.17C347.134 1611.17 344 1614.3 344 1618.17L358 1618.17ZM344 1619.17C344 1623.03 347.134 1626.17 351 1626.17C354.866 1626.17 358 1623.03 358 1619.17L344 1619.17ZM358 1644.16C358 1640.3 354.866 1637.16 351 1637.16C347.134 1637.16 344 1640.3 344 1644.16L358 1644.16ZM344 1645.16C344 1649.03 347.134 1652.16 351 1652.16C354.866 1652.16 358 1649.03 358 1645.16L344 1645.16ZM358 1670.16C358 1666.29 354.866 1663.16 351 1663.16C347.134 1663.16 344 1666.29 344 1670.16L358 1670.16ZM344 1671.16C344 1675.02 347.134 1678.16 351 1678.16C354.866 1678.16 358 1675.02 358 1671.16L344 1671.16ZM358 1696.15C358 1692.28 354.866 1689.15 351 1689.15C347.134 1689.15 344 1692.28 344 1696.15L358 1696.15ZM344 1697.15C344 1701.02 347.134 1704.15 351 1704.15C354.866 1704.15 358 1701.02 358 1697.15L344 1697.15ZM358 1722.15C358 1718.28 354.866 1715.15 351 1715.15C347.134 1715.15 344 1718.28 344 1722.15L358 1722.15ZM344 1723.15C344 1727.01 347.134 1730.15 351 1730.15C354.866 1730.15 358 1727.01 358 1723.15L344 1723.15ZM358 1748.14C358 1744.27 354.866 1741.14 351 1741.14C347.134 1741.14 344 1744.27 344 1748.14L358 1748.14ZM344 1749.14C344 1753.01 347.134 1756.14 351 1756.14C354.866 1756.14 358 1753.01 358 1749.14L344 1749.14ZM358 1774.13C358 1770.27 354.866 1767.13 351 1767.13C347.134 1767.13 344 1770.27 344 1774.13L358 1774.13ZM344 1775.13C344 1779 347.134 1782.13 351 1782.13C354.866 1782.13 358 1779 358 1775.13L344 1775.13ZM358 1800.13C358 1796.26 354.866 1793.13 351 1793.13C347.134 1793.13 344 1796.26 344 1800.13L358 1800.13ZM344 1801.13C344 1805 347.134 1808.13 351 1808.13C354.866 1808.13 358 1805 358 1801.13L344 1801.13ZM358 1826.12C358 1822.26 354.866 1819.12 351 1819.12C347.134 1819.12 344 1822.26 344 1826.12L358 1826.12ZM344 1827.12C344 1830.99 347.134 1834.12 351 1834.12C354.866 1834.12 358 1830.99 358 1827.12L344 1827.12ZM358 1852.12C358 1848.25 354.866 1845.12 351 1845.12C347.134 1845.12 344 1848.25 344 1852.12L358 1852.12ZM344 1853.12C344 1856.98 347.134 1860.12 351 1860.12C354.866 1860.12 358 1856.98 358 1853.12L344 1853.12ZM358 1878.11C358 1874.25 354.866 1871.11 351 1871.11C347.134 1871.11 344 1874.25 344 1878.11L358 1878.11ZM344 1879.11C344 1882.98 347.134 1886.11 351 1886.11C354.866 1886.11 358 1882.98 358 1879.11L344 1879.11ZM358 1904.11C358 1900.24 354.866 1897.11 351 1897.11C347.134 1897.11 344 1900.24 344 1904.11L358 1904.11ZM344 1905.11C344 1908.97 347.134 1912.11 351 1912.11C354.866 1912.11 358 1908.97 358 1905.11L344 1905.11ZM358 1930.1C358 1926.24 354.866 1923.1 351 1923.1C347.134 1923.1 344 1926.24 344 1930.1L358 1930.1ZM344 1931.1C344 1934.97 347.134 1938.1 351 1938.1C354.866 1938.1 358 1934.97 358 1931.1L344 1931.1ZM358 1956.1C358 1952.23 354.866 1949.1 351 1949.1C347.134 1949.1 344 1952.23 344 1956.1L358 1956.1ZM344 1957.1C344 1960.96 347.134 1964.1 351 1964.1C354.866 1964.1 358 1960.96 358 1957.1L344 1957.1ZM358 1982.09C358 1978.23 354.866 1975.09 351 1975.09C347.134 1975.09 344 1978.23 344 1982.09L358 1982.09ZM344 1983.09C344 1986.96 347.134 1990.09 351 1990.09C354.866 1990.09 358 1986.96 358 1983.09L344 1983.09ZM358 2008.09C358 2004.22 354.866 2001.09 351 2001.09C347.134 2001.09 344 2004.22 344 2008.09L358 2008.09ZM344 2009.09C344 2012.95 347.134 2016.09 351 2016.09C354.866 2016.09 358 2012.95 358 2009.09L344 2009.09ZM358 2034.08C358 2030.21 354.866 2027.08 351 2027.08C347.134 2027.08 344 2030.21 344 2034.08L358 2034.08ZM344 2035.08C344 2038.95 347.134 2042.08 351 2042.08C354.866 2042.08 358 2038.95 358 2035.08L344 2035.08ZM358 2060.08C358 2056.21 354.866 2053.08 351 2053.08C347.134 2053.08 344 2056.21 344 2060.08L358 2060.08ZM344 2061.08C344 2064.94 347.134 2068.08 351 2068.08C354.866 2068.08 358 2064.94 358 2061.08L344 2061.08ZM358 2086.07C358 2082.2 354.866 2079.07 351 2079.07C347.134 2079.07 344 2082.2 344 2086.07L358 2086.07ZM344 2087.07C344 2090.94 347.134 2094.07 351 2094.07C354.866 2094.07 358 2090.94 358 2087.07L344 2087.07ZM358 2112.06C358 2108.2 354.866 2105.06 351 2105.06C347.134 2105.06 344 2108.2 344 2112.06L358 2112.06ZM344 2113.06C344 2116.93 347.134 2120.06 351 2120.06C354.866 2120.06 358 2116.93 358 2113.06L344 2113.06ZM358 2138.06C358 2134.19 354.866 2131.06 351 2131.06C347.134 2131.06 344 2134.19 344 2138.06L358 2138.06ZM344 2139.06C344 2142.93 347.134 2146.06 351 2146.06C354.866 2146.06 358 2142.93 358 2139.06L344 2139.06ZM358 2164.05C358 2160.19 354.866 2157.05 351 2157.05C347.134 2157.05 344 2160.19 344 2164.05L358 2164.05ZM344 2165.05C344 2168.92 347.134 2172.05 351 2172.05C354.866 2172.05 358 2168.92 358 2165.05L344 2165.05ZM358 2190.05C358 2186.18 354.866 2183.05 351 2183.05C347.134 2183.05 344 2186.18 344 2190.05L358 2190.05ZM344 2191.05C344 2194.91 347.134 2198.05 351 2198.05C354.866 2198.05 358 2194.91 358 2191.05L344 2191.05ZM358 2216.04C358 2212.18 354.866 2209.04 351 2209.04C347.134 2209.04 344 2212.18 344 2216.04L358 2216.04ZM344 2217.04C344 2220.91 347.134 2224.04 351 2224.04C354.866 2224.04 358 2220.91 358 2217.04L344 2217.04ZM358 2242.04C358 2238.17 354.866 2235.04 351 2235.04C347.134 2235.04 344 2238.17 344 2242.04L358 2242.04ZM344 2243.04C344 2246.9 347.134 2250.04 351 2250.04C354.866 2250.04 358 2246.9 358 2243.04L344 2243.04ZM358 2268.03C358 2264.17 354.866 2261.03 351 2261.03C347.134 2261.03 344 2264.17 344 2268.03L358 2268.03ZM344 2269.03C344 2272.9 347.134 2276.03 351 2276.03C354.866 2276.03 358 2272.9 358 2269.03L344 2269.03ZM358 2294.03C358 2290.16 354.866 2287.03 351 2287.03C347.134 2287.03 344 2290.16 344 2294.03L358 2294.03ZM344 2295.03C344 2298.89 347.134 2302.03 351 2302.03C354.866 2302.03 358 2298.89 358 2295.03L344 2295.03ZM358 2320.02C358 2316.16 354.866 2313.02 351 2313.02C347.134 2313.02 344 2316.16 344 2320.02L358 2320.02ZM344 2321.02C344 2324.89 347.134 2328.02 351 2328.02C354.866 2328.02 358 2324.89 358 2321.02L344 2321.02ZM358 2346.02C358 2342.15 354.866 2339.02 351 2339.02C347.134 2339.02 344 2342.15 344 2346.02L358 2346.02ZM344 2347.02C344 2350.88 347.134 2354.02 351 2354.02C354.866 2354.02 358 2350.88 358 2347.02L344 2347.02ZM358 2372.01C358 2368.15 354.866 2365.01 351 2365.01C347.134 2365.01 344 2368.15 344 2372.01L358 2372.01ZM344 2373.01C344 2376.88 347.134 2380.01 351 2380.01C354.866 2380.01 358 2376.88 358 2373.01L344 2373.01ZM358 2398.01C358 2394.14 354.866 2391.01 351 2391.01C347.134 2391.01 344 2394.14 344 2398.01L358 2398.01ZM344 2399.01C344 2402.87 347.134 2406.01 351 2406.01C354.866 2406.01 358 2402.87 358 2399.01L344 2399.01ZM358 2424C358 2420.13 354.866 2417 351 2417C347.134 2417 344 2420.13 344 2424L358 2424ZM344 2425C344 2428.87 347.134 2432 351 2432C354.866 2432 358 2428.87 358 2425L344 2425ZM358 2450C358 2446.13 354.866 2443 351 2443C347.134 2443 344 2446.13 344 2450L358 2450ZM344 2450.99C344 2454.86 347.134 2457.99 351 2457.99C354.866 2457.99 358 2454.86 358 2450.99L344 2450.99ZM358 2475.99C358 2472.12 354.866 2468.99 351 2468.99C347.134 2468.99 344 2472.12 344 2475.99L358 2475.99ZM344 2476.99C344 2480.86 347.134 2483.99 351 2483.99C354.866 2483.99 358 2480.86 358 2476.99L344 2476.99ZM358 2501.98C358 2498.12 354.866 2494.98 351 2494.98C347.134 2494.98 344 2498.12 344 2501.98L358 2501.98ZM344 2502.98C344 2506.85 347.134 2509.98 351 2509.98C354.866 2509.98 358 2506.85 358 2502.98L344 2502.98ZM358 2527.98C358 2524.11 354.866 2520.98 351 2520.98C347.134 2520.98 344 2524.11 344 2527.98L358 2527.98ZM344 2528.98C344 2532.84 347.134 2535.98 351 2535.98C354.866 2535.98 358 2532.84 358 2528.98L344 2528.98ZM358 2553.97C358 2550.11 354.866 2546.97 351 2546.97C347.134 2546.97 344 2550.11 344 2553.97L358 2553.97ZM344 2554.97C344 2558.84 347.134 2561.97 351 2561.97C354.866 2561.97 358 2558.84 358 2554.97L344 2554.97ZM358 2579.97C358 2576.1 354.866 2572.97 351 2572.97C347.134 2572.97 344 2576.1 344 2579.97L358 2579.97ZM344 2580.97C344 2584.83 347.134 2587.97 351 2587.97C354.866 2587.97 358 2584.83 358 2580.97L344 2580.97ZM358 2605.96C358 2602.1 354.866 2598.96 351 2598.96C347.134 2598.96 344 2602.1 344 2605.96L358 2605.96ZM344 2606.96C344 2610.83 347.134 2613.96 351 2613.96C354.866 2613.96 358 2610.83 358 2606.96L344 2606.96ZM358 2631.96C358 2628.09 354.866 2624.96 351 2624.96C347.134 2624.96 344 2628.09 344 2631.96L358 2631.96ZM344 2632.96C344 2636.82 347.134 2639.96 351 2639.96C354.866 2639.96 358 2636.82 358 2632.96L344 2632.96ZM358 2657.95C358 2654.09 354.866 2650.95 351 2650.95C347.134 2650.95 344 2654.09 344 2657.95L358 2657.95ZM344 2658.95C344 2662.82 347.134 2665.95 351 2665.95C354.866 2665.95 358 2662.82 358 2658.95L344 2658.95ZM358 2683.95C358 2680.08 354.866 2676.95 351 2676.95C347.134 2676.95 344 2680.08 344 2683.95L358 2683.95ZM344 2684.95C344 2688.81 347.134 2691.95 351 2691.95C354.866 2691.95 358 2688.81 358 2684.95L344 2684.95ZM358 2709.94C358 2706.08 354.866 2702.94 351 2702.94C347.134 2702.94 344 2706.08 344 2709.94L358 2709.94ZM344 2710.94C344 2714.81 347.134 2717.94 351 2717.94C354.866 2717.94 358 2714.81 358 2710.94L344 2710.94ZM358 2735.94C358 2732.07 354.866 2728.94 351 2728.94C347.134 2728.94 344 2732.07 344 2735.94L358 2735.94ZM344 2736.94C344 2740.8 347.134 2743.94 351 2743.94C354.866 2743.94 358 2740.8 358 2736.94L344 2736.94ZM358 2761.93C358 2758.06 354.866 2754.93 351 2754.93C347.134 2754.93 344 2758.06 344 2761.93L358 2761.93ZM344 2762.93C344 2766.8 347.134 2769.93 351 2769.93C354.866 2769.93 358 2766.8 358 2762.93L344 2762.93ZM358 2787.93C358 2784.06 354.866 2780.93 351 2780.93C347.134 2780.93 344 2784.06 344 2787.93L358 2787.93ZM344 2788.93C344 2792.79 347.134 2795.93 351 2795.93C354.866 2795.93 358 2792.79 358 2788.93L344 2788.93ZM358 2813.92C358 2810.05 354.866 2806.92 351 2806.92C347.134 2806.92 344 2810.05 344 2813.92L358 2813.92ZM344 2814.92C344 2818.79 347.134 2821.92 351 2821.92C354.866 2821.92 358 2818.79 358 2814.92L344 2814.92ZM358 2839.91C358 2836.05 354.866 2832.91 351 2832.91C347.134 2832.91 344 2836.05 344 2839.91L358 2839.91ZM344 2840.91C344 2844.78 347.134 2847.91 351 2847.91C354.866 2847.91 358 2844.78 358 2840.91L344 2840.91ZM358 2865.91C358 2862.04 354.866 2858.91 351 2858.91C347.134 2858.91 344 2862.04 344 2865.91L358 2865.91ZM344 2866.91C344 2870.78 347.134 2873.91 351 2873.91C354.866 2873.91 358 2870.78 358 2866.91L344 2866.91ZM358 2891.9C358 2888.04 354.866 2884.9 351 2884.9C347.134 2884.9 344 2888.04 344 2891.9L358 2891.9ZM344 2892.9C344 2896.77 347.134 2899.9 351 2899.9C354.866 2899.9 358 2896.77 358 2892.9L344 2892.9ZM358 2917.9C358 2914.03 354.866 2910.9 351 2910.9C347.134 2910.9 344 2914.03 344 2917.9L358 2917.9ZM344 2918.9C344 2922.76 347.134 2925.9 351 2925.9C354.866 2925.9 358 2922.76 358 2918.9L344 2918.9ZM358 2943.89C358 2940.03 354.866 2936.89 351 2936.89C347.134 2936.89 344 2940.03 344 2943.89L358 2943.89ZM344 2944.89C344 2948.76 347.134 2951.89 351 2951.89C354.866 2951.89 358 2948.76 358 2944.89L344 2944.89ZM358 2969.89C358 2966.02 354.866 2962.89 351 2962.89C347.134 2962.89 344 2966.02 344 2969.89L358 2969.89ZM344 2970.89C344 2974.75 347.134 2977.89 351 2977.89C354.866 2977.89 358 2974.75 358 2970.89L344 2970.89ZM358 2995.88C358 2992.02 354.866 2988.88 351 2988.88C347.134 2988.88 344 2992.02 344 2995.88L358 2995.88ZM344 2996.88C344 3000.75 347.134 3003.88 351 3003.88C354.866 3003.88 358 3000.75 358 2996.88L344 2996.88ZM358 3021.88C358 3018.01 354.866 3014.88 351 3014.88C347.134 3014.88 344 3018.01 344 3021.88L358 3021.88ZM344 3022.88C344 3026.74 347.134 3029.88 351 3029.88C354.866 3029.88 358 3026.74 358 3022.88L344 3022.88ZM358 3047.87C358 3044.01 354.866 3040.87 351 3040.87C347.134 3040.87 344 3044.01 344 3047.87L358 3047.87ZM344 3048.87C344 3052.74 347.134 3055.87 351 3055.87C354.866 3055.87 358 3052.74 358 3048.87L344 3048.87ZM358 3073.87C358 3070 354.866 3066.87 351 3066.87C347.134 3066.87 344 3070 344 3073.87L358 3073.87ZM344 3074.87C344 3078.73 347.134 3081.87 351 3081.87C354.866 3081.87 358 3078.73 358 3074.87L344 3074.87ZM358 3099.86C358 3095.99 354.866 3092.86 351 3092.86C347.134 3092.86 344 3095.99 344 3099.86L358 3099.86ZM344 3100.86C344 3104.73 347.134 3107.86 351 3107.86C354.866 3107.86 358 3104.73 358 3100.86L344 3100.86ZM358 3125.86C358 3121.99 354.866 3118.86 351 3118.86C347.134 3118.86 344 3121.99 344 3125.86L358 3125.86ZM344 3126.86C344 3130.72 347.134 3133.86 351 3133.86C354.866 3133.86 358 3130.72 358 3126.86L344 3126.86ZM358 3151.85C358 3147.98 354.866 3144.85 351 3144.85C347.134 3144.85 344 3147.98 344 3151.85L358 3151.85ZM344 3152.85C344 3156.72 347.134 3159.85 351 3159.85C354.866 3159.85 358 3156.72 358 3152.85L344 3152.85ZM358 3177.84C358 3173.98 354.866 3170.84 351 3170.84C347.134 3170.84 344 3173.98 344 3177.84L358 3177.84ZM344 3178.84C344 3182.71 347.134 3185.84 351 3185.84C354.866 3185.84 358 3182.71 358 3178.84L344 3178.84ZM358 3203.84C358 3199.97 354.866 3196.84 351 3196.84C347.134 3196.84 344 3199.97 344 3203.84L358 3203.84ZM344 3204.84C344 3208.71 347.134 3211.84 351 3211.84C354.866 3211.84 358 3208.71 358 3204.84L344 3204.84ZM358 3229.83C358 3225.97 354.866 3222.83 351 3222.83C347.134 3222.83 344 3225.97 344 3229.83L358 3229.83ZM344 3230.83C344 3234.7 347.134 3237.83 351 3237.83C354.866 3237.83 358 3234.7 358 3230.83L344 3230.83ZM358 3255.83C358 3251.96 354.866 3248.83 351 3248.83C347.134 3248.83 344 3251.96 344 3255.83L358 3255.83ZM344 3256.83C344 3260.69 347.134 3263.83 351 3263.83C354.866 3263.83 358 3260.69 358 3256.83L344 3256.83ZM358 3281.82C358 3277.96 354.866 3274.82 351 3274.82C347.134 3274.82 344 3277.96 344 3281.82L358 3281.82ZM344 3282.82C344 3286.69 347.134 3289.82 351 3289.82C354.866 3289.82 358 3286.69 358 3282.82L344 3282.82ZM358 3307.82C358 3303.95 354.866 3300.82 351 3300.82C347.134 3300.82 344 3303.95 344 3307.82L358 3307.82ZM344 3308.82C344 3312.68 347.134 3315.82 351 3315.82C354.866 3315.82 358 3312.68 358 3308.82L344 3308.82ZM358 3333.81C358 3329.95 354.866 3326.81 351 3326.81C347.134 3326.81 344 3329.95 344 3333.81L358 3333.81ZM344 3334.81C344 3338.68 347.134 3341.81 351 3341.81C354.866 3341.81 358 3338.68 358 3334.81L344 3334.81ZM358 3359.81C358 3355.94 354.866 3352.81 351 3352.81C347.134 3352.81 344 3355.94 344 3359.81L358 3359.81ZM344 3360.81C344 3364.67 347.134 3367.81 351 3367.81C354.866 3367.81 358 3364.67 358 3360.81L344 3360.81ZM358 3385.8C358 3381.94 354.866 3378.8 351 3378.8C347.134 3378.8 344 3381.94 344 3385.8L358 3385.8ZM344 3386.8C344 3390.67 347.134 3393.8 351 3393.8C354.866 3393.8 358 3390.67 358 3386.8L344 3386.8ZM358 3411.8C358 3407.93 354.866 3404.8 351 3404.8C347.134 3404.8 344 3407.93 344 3411.8L358 3411.8ZM344 3412.8C344 3416.66 347.134 3419.8 351 3419.8C354.866 3419.8 358 3416.66 358 3412.8L344 3412.8ZM358 3437.79C358 3433.93 354.866 3430.79 351 3430.79C347.134 3430.79 344 3433.93 344 3437.79L358 3437.79ZM344 3438.79C344 3442.66 347.134 3445.79 351 3445.79C354.866 3445.79 358 3442.66 358 3438.79L344 3438.79ZM358 3463.79C358 3459.92 354.866 3456.79 351 3456.79C347.134 3456.79 344 3459.92 344 3463.79L358 3463.79ZM344 3464.79C344 3468.65 347.134 3471.79 351 3471.79C354.866 3471.79 358 3468.65 358 3464.79L344 3464.79ZM358 3489.78C358 3485.91 354.866 3482.78 351 3482.78C347.134 3482.78 344 3485.91 344 3489.78L358 3489.78ZM344 3490.78C344 3494.65 347.134 3497.78 351 3497.78C354.866 3497.78 358 3494.65 358 3490.78L344 3490.78ZM358 3515.77C358 3511.91 354.866 3508.77 351 3508.77C347.134 3508.77 344 3511.91 344 3515.77L358 3515.77ZM344 3516.77C344 3520.64 347.134 3523.77 351 3523.77C354.866 3523.77 358 3520.64 358 3516.77L344 3516.77ZM358 3541.77C358 3537.9 354.866 3534.77 351 3534.77C347.134 3534.77 344 3537.9 344 3541.77L358 3541.77ZM344 3542.77C344 3546.64 347.134 3549.77 351 3549.77C354.866 3549.77 358 3546.64 358 3542.77L344 3542.77ZM358 3567.76C358 3563.9 354.866 3560.76 351 3560.76C347.134 3560.76 344 3563.9 344 3567.76L358 3567.76ZM344 3568.76C344 3572.63 347.134 3575.76 351 3575.76C354.866 3575.76 358 3572.63 358 3568.76L344 3568.76ZM358 3593.76C358 3589.89 354.866 3586.76 351 3586.76C347.134 3586.76 344 3589.89 344 3593.76L358 3593.76ZM344 3594.76C344 3598.62 347.134 3601.76 351 3601.76C354.866 3601.76 358 3598.62 358 3594.76L344 3594.76ZM358 3619.75C358 3615.89 354.866 3612.75 351 3612.75C347.134 3612.75 344 3615.89 344 3619.75L358 3619.75ZM344 3620.75C344 3624.62 347.134 3627.75 351 3627.75C354.866 3627.75 358 3624.62 358 3620.75L344 3620.75ZM358 3645.75C358 3641.88 354.866 3638.75 351 3638.75C347.134 3638.75 344 3641.88 344 3645.75L358 3645.75ZM344 3646.75C344 3650.61 347.134 3653.75 351 3653.75C354.866 3653.75 358 3650.61 358 3646.75L344 3646.75ZM358 3671.74C358 3667.88 354.866 3664.74 351 3664.74C347.134 3664.74 344 3667.88 344 3671.74L358 3671.74ZM344 3672.74C344 3676.61 347.134 3679.74 351 3679.74C354.866 3679.74 358 3676.61 358 3672.74L344 3672.74ZM358 3697.74C358 3693.87 354.866 3690.74 351 3690.74C347.134 3690.74 344 3693.87 344 3697.74L358 3697.74ZM344 3698.74C344 3702.6 347.134 3705.74 351 3705.74C354.866 3705.74 358 3702.6 358 3698.74L344 3698.74ZM358 3723.73C358 3719.87 354.866 3716.73 351 3716.73C347.134 3716.73 344 3719.87 344 3723.73L358 3723.73ZM344 3724.73C344 3728.6 347.134 3731.73 351 3731.73C354.866 3731.73 358 3728.6 358 3724.73L344 3724.73ZM358 3749.73C358 3745.86 354.866 3742.73 351 3742.73C347.134 3742.73 344 3745.86 344 3749.73L358 3749.73ZM344 3750.73C344 3754.59 347.134 3757.73 351 3757.73C354.866 3757.73 358 3754.59 358 3750.73L344 3750.73ZM358 3775.72C358 3771.86 354.866 3768.72 351 3768.72C347.134 3768.72 344 3771.86 344 3775.72L358 3775.72ZM344 3776.72C344 3780.59 347.134 3783.72 351 3783.72C354.866 3783.72 358 3780.59 358 3776.72L344 3776.72ZM358 3801.72C358 3797.85 354.866 3794.72 351 3794.72C347.134 3794.72 344 3797.85 344 3801.72L358 3801.72ZM344 3802.72C344 3806.58 347.134 3809.72 351 3809.72C354.866 3809.72 358 3806.58 358 3802.72L344 3802.72ZM358 3827.71C358 3823.84 354.866 3820.71 351 3820.71C347.134 3820.71 344 3823.84 344 3827.71L358 3827.71ZM344 3828.71C344 3832.58 347.134 3835.71 351 3835.71C354.866 3835.71 358 3832.58 358 3828.71L344 3828.71ZM358 3853.7C358 3849.84 354.866 3846.7 351 3846.7C347.134 3846.7 344 3849.84 344 3853.7L358 3853.7ZM344 3854.71C344 3858.57 347.134 3861.71 351 3861.71C354.866 3861.71 358 3858.57 358 3854.71L344 3854.71ZM358 3879.7C358 3875.83 354.866 3872.7 351 3872.7C347.134 3872.7 344 3875.83 344 3879.7L358 3879.7ZM344 3880.7C344 3884.57 347.134 3887.7 351 3887.7C354.866 3887.7 358 3884.57 358 3880.7L344 3880.7ZM358 3905.69C358 3901.83 354.866 3898.69 351 3898.69C347.134 3898.69 344 3901.83 344 3905.69L358 3905.69ZM344 3906.69C344 3910.56 347.134 3913.69 351 3913.69C354.866 3913.69 358 3910.56 358 3906.69L344 3906.69ZM358 3931.69C358 3927.82 354.866 3924.69 351 3924.69C347.134 3924.69 344 3927.82 344 3931.69L358 3931.69ZM344 3932.69C344 3936.55 347.134 3939.69 351 3939.69C354.866 3939.69 358 3936.55 358 3932.69L344 3932.69ZM358 3957.68C358 3953.82 354.866 3950.68 351 3950.68C347.134 3950.68 344 3953.82 344 3957.68L358 3957.68ZM344 3958.68C344 3962.55 347.134 3965.68 351 3965.68C354.866 3965.68 358 3962.55 358 3958.68L344 3958.68ZM358 3983.68C358 3979.81 354.866 3976.68 351 3976.68C347.134 3976.68 344 3979.81 344 3983.68L358 3983.68ZM344 3984.68C344 3988.54 347.134 3991.68 351 3991.68C354.866 3991.68 358 3988.54 358 3984.68L344 3984.68ZM358 4009.67C358 4005.81 354.866 4002.67 351 4002.67C347.134 4002.67 344 4005.81 344 4009.67L358 4009.67ZM344 4010.67C344 4014.54 347.134 4017.67 351 4017.67C354.866 4017.67 358 4014.54 358 4010.67L344 4010.67ZM358 4035.67C358 4031.8 354.866 4028.67 351 4028.67C347.134 4028.67 344 4031.8 344 4035.67L358 4035.67ZM344 4036.67C344 4040.53 347.134 4043.67 351 4043.67C354.866 4043.67 358 4040.53 358 4036.67L344 4036.67ZM358 4061.66C358 4057.8 354.866 4054.66 351 4054.66C347.134 4054.66 344 4057.8 344 4061.66L358 4061.66ZM344 4062.66C344 4066.53 347.134 4069.66 351 4069.66C354.866 4069.66 358 4066.53 358 4062.66L344 4062.66ZM358 4087.66C358 4083.79 354.866 4080.66 351 4080.66C347.134 4080.66 344 4083.79 344 4087.66L358 4087.66ZM344 4088.66C344 4092.52 347.134 4095.66 351 4095.66C354.866 4095.66 358 4092.52 358 4088.66L344 4088.66ZM358 4113.65C358 4109.79 354.866 4106.65 351 4106.65C347.134 4106.65 344 4109.79 344 4113.65L358 4113.65ZM344 4114.65C344 4118.52 347.134 4121.65 351 4121.65C354.866 4121.65 358 4118.52 358 4114.65L344 4114.65ZM358 4139.65C358 4135.78 354.866 4132.65 351 4132.65C347.134 4132.65 344 4135.78 344 4139.65L358 4139.65ZM344 4140.65C344 4144.51 347.134 4147.65 351 4147.65C354.866 4147.65 358 4144.51 358 4140.65L344 4140.65ZM358 4165.64C358 4161.77 354.866 4158.64 351 4158.64C347.134 4158.64 344 4161.77 344 4165.64L358 4165.64ZM344 4166.64C344 4170.51 347.134 4173.64 351 4173.64C354.866 4173.64 358 4170.51 358 4166.64L344 4166.64ZM358 4191.64C358 4187.77 354.866 4184.64 351 4184.64C347.134 4184.64 344 4187.77 344 4191.64L358 4191.64ZM344 4192.64C344 4196.5 347.134 4199.64 351 4199.64C354.866 4199.64 358 4196.5 358 4192.64L344 4192.64ZM358 4217.63C358 4213.76 354.866 4210.63 351 4210.63C347.134 4210.63 344 4213.76 344 4217.63L358 4217.63ZM344 4218.63C344 4222.5 347.134 4225.63 351 4225.63C354.866 4225.63 358 4222.5 358 4218.63L344 4218.63ZM358 4243.62C358 4239.76 354.866 4236.62 351 4236.62C347.134 4236.62 344 4239.76 344 4243.62L358 4243.62ZM344 4244.62C344 4248.49 347.134 4251.62 351 4251.62C354.866 4251.62 358 4248.49 358 4244.62L344 4244.62ZM358 4269.62C358 4265.75 354.866 4262.62 351 4262.62C347.134 4262.62 344 4265.75 344 4269.62L358 4269.62ZM344 4270.62C344 4274.49 347.134 4277.62 351 4277.62C354.866 4277.62 358 4274.49 358 4270.62L344 4270.62ZM358 4295.61C358 4291.75 354.866 4288.61 351 4288.61C347.134 4288.61 344 4291.75 344 4295.61L358 4295.61ZM344 4296.61C344 4300.48 347.134 4303.61 351 4303.61C354.866 4303.61 358 4300.48 358 4296.61L344 4296.61ZM358 4321.61C358 4317.74 354.866 4314.61 351 4314.61C347.134 4314.61 344 4317.74 344 4321.61L358 4321.61ZM344 4322.61C344 4326.47 347.134 4329.61 351 4329.61C354.866 4329.61 358 4326.47 358 4322.61L344 4322.61ZM358 4347.6C358 4343.74 354.866 4340.6 351 4340.6C347.134 4340.6 344 4343.74 344 4347.6L358 4347.6ZM344 4348.6C344 4352.47 347.134 4355.6 351 4355.6C354.866 4355.6 358 4352.47 358 4348.6L344 4348.6ZM358 4373.6C358 4369.73 354.866 4366.6 351 4366.6C347.134 4366.6 344 4369.73 344 4373.6L358 4373.6ZM344 4374.6C344 4378.46 347.134 4381.6 351 4381.6C354.866 4381.6 358 4378.46 358 4374.6L344 4374.6ZM358 4399.59C358 4395.73 354.866 4392.59 351 4392.59C347.134 4392.59 344 4395.73 344 4399.59L358 4399.59ZM344 4400.59C344 4404.46 347.134 4407.59 351 4407.59C354.866 4407.59 358 4404.46 358 4400.59L344 4400.59ZM358 4425.59C358 4421.72 354.866 4418.59 351 4418.59C347.134 4418.59 344 4421.72 344 4425.59L358 4425.59ZM344 4426.59C344 4430.45 347.134 4433.59 351 4433.59C354.866 4433.59 358 4430.45 358 4426.59L344 4426.59ZM358 4451.58C358 4447.72 354.866 4444.58 351 4444.58C347.134 4444.58 344 4447.72 344 4451.58L358 4451.58ZM344 4452.58C344 4456.45 347.134 4459.58 351 4459.58C354.866 4459.58 358 4456.45 358 4452.58L344 4452.58ZM358 4477.58C358 4473.71 354.866 4470.58 351 4470.58C347.134 4470.58 344 4473.71 344 4477.58L358 4477.58ZM344 4478.58C344 4482.44 347.134 4485.58 351 4485.58C354.866 4485.58 358 4482.44 358 4478.58L344 4478.58ZM358 4503.57C358 4499.7 354.866 4496.57 351 4496.57C347.134 4496.57 344 4499.7 344 4503.57L358 4503.57ZM344 4504.57C344 4508.44 347.134 4511.57 351 4511.57C354.866 4511.57 358 4508.44 358 4504.57L344 4504.57ZM358 4529.57C358 4525.7 354.866 4522.57 351 4522.57C347.134 4522.57 344 4525.7 344 4529.57L358 4529.57ZM344 4530.57C344 4534.43 347.134 4537.57 351 4537.57C354.866 4537.57 358 4534.43 358 4530.57L344 4530.57ZM358 4555.56C358 4551.69 354.866 4548.56 351 4548.56C347.134 4548.56 344 4551.69 344 4555.56L358 4555.56ZM344 4556.56C344 4560.43 347.134 4563.56 351 4563.56C354.866 4563.56 358 4560.43 358 4556.56L344 4556.56ZM358 4581.55C358 4577.69 354.866 4574.55 351 4574.55C347.134 4574.55 344 4577.69 344 4581.55L358 4581.55ZM344 4582.55C344 4586.42 347.134 4589.55 351 4589.55C354.866 4589.55 358 4586.42 358 4582.55L344 4582.55ZM358 4607.55C358 4603.68 354.866 4600.55 351 4600.55C347.134 4600.55 344 4603.68 344 4607.55L358 4607.55ZM344 4608.55C344 4612.42 347.134 4615.55 351 4615.55C354.866 4615.55 358 4612.42 358 4608.55L344 4608.55ZM358 4633.54C358 4629.68 354.866 4626.54 351 4626.54C347.134 4626.54 344 4629.68 344 4633.54L358 4633.54ZM344 4634.54C344 4638.41 347.134 4641.54 351 4641.54C354.866 4641.54 358 4638.41 358 4634.54L344 4634.54ZM358 4659.54C358 4655.67 354.866 4652.54 351 4652.54C347.134 4652.54 344 4655.67 344 4659.54L358 4659.54ZM344 4660.54C344 4664.4 347.134 4667.54 351 4667.54C354.866 4667.54 358 4664.4 358 4660.54L344 4660.54ZM358 4685.53C358 4681.67 354.866 4678.53 351 4678.53C347.134 4678.53 344 4681.67 344 4685.53L358 4685.53ZM344 4686.53C344 4690.4 347.134 4693.53 351 4693.53C354.866 4693.53 358 4690.4 358 4686.53L344 4686.53ZM358 4711.53C358 4707.66 354.866 4704.53 351 4704.53C347.134 4704.53 344 4707.66 344 4711.53L358 4711.53ZM344 4712.53C344 4716.39 347.134 4719.53 351 4719.53C354.866 4719.53 358 4716.39 358 4712.53L344 4712.53ZM358 4737.52C358 4733.66 354.866 4730.52 351 4730.52C347.134 4730.52 344 4733.66 344 4737.52L358 4737.52ZM344 4738.52C344 4742.39 347.134 4745.52 351 4745.52C354.866 4745.52 358 4742.39 358 4738.52L344 4738.52ZM358 4763.52C358 4759.65 354.866 4756.52 351 4756.52C347.134 4756.52 344 4759.65 344 4763.52L358 4763.52ZM344 4764.52C344 4768.38 347.134 4771.52 351 4771.52C354.866 4771.52 358 4768.38 358 4764.52L344 4764.52ZM358 4789.51C358 4785.65 354.866 4782.51 351 4782.51C347.134 4782.51 344 4785.65 344 4789.51L358 4789.51ZM344 4790.51C344 4794.38 347.134 4797.51 351 4797.51C354.866 4797.51 358 4794.38 358 4790.51L344 4790.51ZM358 4815.51C358 4811.64 354.866 4808.51 351 4808.51C347.134 4808.51 344 4811.64 344 4815.51L358 4815.51ZM344 4816.51C344 4820.37 347.134 4823.51 351 4823.51C354.866 4823.51 358 4820.37 358 4816.51L344 4816.51ZM358 4841.5C358 4837.63 354.866 4834.5 351 4834.5C347.134 4834.5 344 4837.63 344 4841.5L358 4841.5ZM344 7L344 7.4999L358 7.4999L358 7L344 7ZM344 32.4947L344 33.4945L358 33.4945L358 32.4947L344 32.4947ZM344 58.4894L344 59.4891L358 59.4891L358 58.4894L344 58.4894ZM344 84.484L344 85.4838L358 85.4838L358 84.484L344 84.484ZM344 110.479L344 111.478L358 111.478L358 110.479L344 110.479ZM344 136.473L344 137.473L358 137.473L358 136.473L344 136.473ZM344 162.468L344 163.468L358 163.468L358 162.468L344 162.468ZM344 188.462L344 189.462L358 189.462L358 188.462L344 188.462ZM344 214.457L344 215.457L358 215.457L358 214.457L344 214.457ZM344 240.452L344 241.451L358 241.451L358 240.452L344 240.452ZM344 266.446L344 267.446L358 267.446L358 266.446L344 266.446ZM344 292.441L344 293.441L358 293.441L358 292.441L344 292.441ZM344 318.436L344 319.435L358 319.435L358 318.436L344 318.436ZM344 344.43L344 345.43L358 345.43L358 344.43L344 344.43ZM344 370.425L344 371.425L358 371.425L358 370.425L344 370.425ZM344 396.419L344 397.419L358 397.419L358 396.419L344 396.419ZM344 422.414L344 423.414L358 423.414L358 422.414L344 422.414ZM344 448.409L344 449.409L358 449.409L358 448.409L344 448.409ZM344 474.403L344 475.403L358 475.403L358 474.403L344 474.403ZM344 500.398L344 501.398L358 501.398L358 500.398L344 500.398ZM344 526.393L344 527.392L358 527.392L358 526.393L344 526.393ZM344 552.387L344 553.387L358 553.387L358 552.387L344 552.387ZM344 578.382L344 579.382L358 579.382L358 578.382L344 578.382ZM344 604.376L344 605.376L358 605.376L358 604.376L344 604.376ZM344 630.371L344 631.371L358 631.371L358 630.371L344 630.371ZM344 656.366L344 657.366L358 657.366L358 656.366L344 656.366ZM344 682.36L344 683.36L358 683.36L358 682.36L344 682.36ZM344 708.355L344 709.355L358 709.355L358 708.355L344 708.355ZM344 734.35L344 735.349L358 735.349L358 734.35L344 734.35ZM344 760.344L344 761.344L358 761.344L358 760.344L344 760.344ZM344 786.339L344 787.339L358 787.339L358 786.339L344 786.339ZM344 812.333L344 813.333L358 813.333L358 812.333L344 812.333ZM344 838.328L344 839.328L358 839.328L358 838.328L344 838.328ZM344 864.323L344 865.323L358 865.323L358 864.323L344 864.323ZM344 890.317L344 891.317L358 891.317L358 890.317L344 890.317ZM344 916.312L344 917.312L358 917.312L358 916.312L344 916.312ZM344 942.307L344 943.306L358 943.306L358 942.307L344 942.307ZM344 968.301L344 969.301L358 969.301L358 968.301L344 968.301ZM344 994.296L344 995.296L358 995.296L358 994.296L344 994.296ZM344 1020.29L344 1021.29L358 1021.29L358 1020.29L344 1020.29ZM344 1046.29L344 1047.28L358 1047.28L358 1046.29L344 1046.29ZM344 1072.28L344 1073.28L358 1073.28L358 1072.28L344 1072.28ZM344 1098.27L344 1099.27L358 1099.27L358 1098.27L344 1098.27ZM344 1124.27L344 1125.27L358 1125.27L358 1124.27L344 1124.27ZM344 1150.26L344 1151.26L358 1151.26L358 1150.26L344 1150.26ZM344 1176.26L344 1177.26L358 1177.26L358 1176.26L344 1176.26ZM344 1202.25L344 1203.25L358 1203.25L358 1202.25L344 1202.25ZM344 1228.25L344 1229.25L358 1229.25L358 1228.25L344 1228.25ZM344 1254.24L344 1255.24L358 1255.24L358 1254.24L344 1254.24ZM344 1280.24L344 1281.24L358 1281.24L358 1280.24L344 1280.24ZM344 1306.23L344 1307.23L358 1307.23L358 1306.23L344 1306.23ZM344 1332.23L344 1333.23L358 1333.23L358 1332.23L344 1332.23ZM344 1358.22L344 1359.22L358 1359.22L358 1358.22L344 1358.22ZM344 1384.22L344 1385.22L358 1385.22L358 1384.22L344 1384.22ZM344 1410.21L344 1411.21L358 1411.21L358 1410.21L344 1410.21ZM344 1436.2L344 1437.2L358 1437.2L358 1436.2L344 1436.2ZM344 1462.2L344 1463.2L358 1463.2L358 1462.2L344 1462.2ZM344 1488.19L344 1489.19L358 1489.19L358 1488.19L344 1488.19ZM344 1514.19L344 1515.19L358 1515.19L358 1514.19L344 1514.19ZM344 1540.18L344 1541.18L358 1541.18L358 1540.18L344 1540.18ZM344 1566.18L344 1567.18L358 1567.18L358 1566.18L344 1566.18ZM344 1592.17L344 1593.17L358 1593.17L358 1592.17L344 1592.17ZM344 1618.17L344 1619.17L358 1619.17L358 1618.17L344 1618.17ZM344 1644.16L344 1645.16L358 1645.16L358 1644.16L344 1644.16ZM344 1670.16L344 1671.16L358 1671.16L358 1670.16L344 1670.16ZM344 1696.15L344 1697.15L358 1697.15L358 1696.15L344 1696.15ZM344 1722.15L344 1723.15L358 1723.15L358 1722.15L344 1722.15ZM344 1748.14L344 1749.14L358 1749.14L358 1748.14L344 1748.14ZM344 1774.13L344 1775.13L358 1775.13L358 1774.13L344 1774.13ZM344 1800.13L344 1801.13L358 1801.13L358 1800.13L344 1800.13ZM344 1826.12L344 1827.12L358 1827.12L358 1826.12L344 1826.12ZM344 1852.12L344 1853.12L358 1853.12L358 1852.12L344 1852.12ZM344 1878.11L344 1879.11L358 1879.11L358 1878.11L344 1878.11ZM344 1904.11L344 1905.11L358 1905.11L358 1904.11L344 1904.11ZM344 1930.1L344 1931.1L358 1931.1L358 1930.1L344 1930.1ZM344 1956.1L344 1957.1L358 1957.1L358 1956.1L344 1956.1ZM344 1982.09L344 1983.09L358 1983.09L358 1982.09L344 1982.09ZM344 2008.09L344 2009.09L358 2009.09L358 2008.09L344 2008.09ZM344 2034.08L344 2035.08L358 2035.08L358 2034.08L344 2034.08ZM344 2060.08L344 2061.08L358 2061.08L358 2060.08L344 2060.08ZM344 2086.07L344 2087.07L358 2087.07L358 2086.07L344 2086.07ZM344 2112.06L344 2113.06L358 2113.06L358 2112.06L344 2112.06ZM344 2138.06L344 2139.06L358 2139.06L358 2138.06L344 2138.06ZM344 2164.05L344 2165.05L358 2165.05L358 2164.05L344 2164.05ZM344 2190.05L344 2191.05L358 2191.05L358 2190.05L344 2190.05ZM344 2216.04L344 2217.04L358 2217.04L358 2216.04L344 2216.04ZM344 2242.04L344 2243.04L358 2243.04L358 2242.04L344 2242.04ZM344 2268.03L344 2269.03L358 2269.03L358 2268.03L344 2268.03ZM344 2294.03L344 2295.03L358 2295.03L358 2294.03L344 2294.03ZM344 2320.02L344 2321.02L358 2321.02L358 2320.02L344 2320.02ZM344 2346.02L344 2347.02L358 2347.02L358 2346.02L344 2346.02ZM344 2372.01L344 2373.01L358 2373.01L358 2372.01L344 2372.01ZM344 2398.01L344 2399.01L358 2399.01L358 2398.01L344 2398.01ZM344 2424L344 2425L358 2425L358 2424L344 2424ZM344 2450L344 2450.99L358 2450.99L358 2450L344 2450ZM344 2475.99L344 2476.99L358 2476.99L358 2475.99L344 2475.99ZM344 2501.98L344 2502.98L358 2502.98L358 2501.98L344 2501.98ZM344 2527.98L344 2528.98L358 2528.98L358 2527.98L344 2527.98ZM344 2553.97L344 2554.97L358 2554.97L358 2553.97L344 2553.97ZM344 2579.97L344 2580.97L358 2580.97L358 2579.97L344 2579.97ZM344 2605.96L344 2606.96L358 2606.96L358 2605.96L344 2605.96ZM344 2631.96L344 2632.96L358 2632.96L358 2631.96L344 2631.96ZM344 2657.95L344 2658.95L358 2658.95L358 2657.95L344 2657.95ZM344 2683.95L344 2684.95L358 2684.95L358 2683.95L344 2683.95ZM344 2709.94L344 2710.94L358 2710.94L358 2709.94L344 2709.94ZM344 2735.94L344 2736.94L358 2736.94L358 2735.94L344 2735.94ZM344 2761.93L344 2762.93L358 2762.93L358 2761.93L344 2761.93ZM344 2787.93L344 2788.93L358 2788.93L358 2787.93L344 2787.93ZM344 2813.92L344 2814.92L358 2814.92L358 2813.92L344 2813.92ZM344 2839.91L344 2840.91L358 2840.91L358 2839.91L344 2839.91ZM344 2865.91L344 2866.91L358 2866.91L358 2865.91L344 2865.91ZM344 2891.9L344 2892.9L358 2892.9L358 2891.9L344 2891.9ZM344 2917.9L344 2918.9L358 2918.9L358 2917.9L344 2917.9ZM344 2943.89L344 2944.89L358 2944.89L358 2943.89L344 2943.89ZM344 2969.89L344 2970.89L358 2970.89L358 2969.89L344 2969.89ZM344 2995.88L344 2996.88L358 2996.88L358 2995.88L344 2995.88ZM344 3021.88L344 3022.88L358 3022.88L358 3021.88L344 3021.88ZM344 3047.87L344 3048.87L358 3048.87L358 3047.87L344 3047.87ZM344 3073.87L344 3074.87L358 3074.87L358 3073.87L344 3073.87ZM344 3099.86L344 3100.86L358 3100.86L358 3099.86L344 3099.86ZM344 3125.86L344 3126.86L358 3126.86L358 3125.86L344 3125.86ZM344 3151.85L344 3152.85L358 3152.85L358 3151.85L344 3151.85ZM344 3177.84L344 3178.84L358 3178.84L358 3177.84L344 3177.84ZM344 3203.84L344 3204.84L358 3204.84L358 3203.84L344 3203.84ZM344 3229.83L344 3230.83L358 3230.83L358 3229.83L344 3229.83ZM344 3255.83L344 3256.83L358 3256.83L358 3255.83L344 3255.83ZM344 3281.82L344 3282.82L358 3282.82L358 3281.82L344 3281.82ZM344 3307.82L344 3308.82L358 3308.82L358 3307.82L344 3307.82ZM344 3333.81L344 3334.81L358 3334.81L358 3333.81L344 3333.81ZM344 3359.81L344 3360.81L358 3360.81L358 3359.81L344 3359.81ZM344 3385.8L344 3386.8L358 3386.8L358 3385.8L344 3385.8ZM344 3411.8L344 3412.8L358 3412.8L358 3411.8L344 3411.8ZM344 3437.79L344 3438.79L358 3438.79L358 3437.79L344 3437.79ZM344 3463.79L344 3464.79L358 3464.79L358 3463.79L344 3463.79ZM344 3489.78L344 3490.78L358 3490.78L358 3489.78L344 3489.78ZM344 3515.77L344 3516.77L358 3516.77L358 3515.77L344 3515.77ZM344 3541.77L344 3542.77L358 3542.77L358 3541.77L344 3541.77ZM344 3567.76L344 3568.76L358 3568.76L358 3567.76L344 3567.76ZM344 3593.76L344 3594.76L358 3594.76L358 3593.76L344 3593.76ZM344 3619.75L344 3620.75L358 3620.75L358 3619.75L344 3619.75ZM344 3645.75L344 3646.75L358 3646.75L358 3645.75L344 3645.75ZM344 3671.74L344 3672.74L358 3672.74L358 3671.74L344 3671.74ZM344 3697.74L344 3698.74L358 3698.74L358 3697.74L344 3697.74ZM344 3723.73L344 3724.73L358 3724.73L358 3723.73L344 3723.73ZM344 3749.73L344 3750.73L358 3750.73L358 3749.73L344 3749.73ZM344 3775.72L344 3776.72L358 3776.72L358 3775.72L344 3775.72ZM344 3801.72L344 3802.72L358 3802.72L358 3801.72L344 3801.72ZM344 3827.71L344 3828.71L358 3828.71L358 3827.71L344 3827.71ZM344 3853.7L344 3854.71L358 3854.71L358 3853.7L344 3853.7ZM344 3879.7L344 3880.7L358 3880.7L358 3879.7L344 3879.7ZM344 3905.69L344 3906.69L358 3906.69L358 3905.69L344 3905.69ZM344 3931.69L344 3932.69L358 3932.69L358 3931.69L344 3931.69ZM344 3957.68L344 3958.68L358 3958.68L358 3957.68L344 3957.68ZM344 3983.68L344 3984.68L358 3984.68L358 3983.68L344 3983.68ZM344 4009.67L344 4010.67L358 4010.67L358 4009.67L344 4009.67ZM344 4035.67L344 4036.67L358 4036.67L358 4035.67L344 4035.67ZM344 4061.66L344 4062.66L358 4062.66L358 4061.66L344 4061.66ZM344 4087.66L344 4088.66L358 4088.66L358 4087.66L344 4087.66ZM344 4113.65L344 4114.65L358 4114.65L358 4113.65L344 4113.65ZM344 4139.65L344 4140.65L358 4140.65L358 4139.65L344 4139.65ZM344 4165.64L344 4166.64L358 4166.64L358 4165.64L344 4165.64ZM344 4191.64L344 4192.64L358 4192.64L358 4191.64L344 4191.64ZM344 4217.63L344 4218.63L358 4218.63L358 4217.63L344 4217.63ZM344 4243.62L344 4244.62L358 4244.62L358 4243.62L344 4243.62ZM344 4269.62L344 4270.62L358 4270.62L358 4269.62L344 4269.62ZM344 4295.61L344 4296.61L358 4296.61L358 4295.61L344 4295.61ZM344 4321.61L344 4322.61L358 4322.61L358 4321.61L344 4321.61ZM344 4347.6L344 4348.6L358 4348.6L358 4347.6L344 4347.6ZM344 4373.6L344 4374.6L358 4374.6L358 4373.6L344 4373.6ZM344 4399.59L344 4400.59L358 4400.59L358 4399.59L344 4399.59ZM344 4425.59L344 4426.59L358 4426.59L358 4425.59L344 4425.59ZM344 4451.58L344 4452.58L358 4452.58L358 4451.58L344 4451.58ZM344 4477.58L344 4478.58L358 4478.58L358 4477.58L344 4477.58ZM344 4503.57L344 4504.57L358 4504.57L358 4503.57L344 4503.57ZM344 4529.57L344 4530.57L358 4530.57L358 4529.57L344 4529.57ZM344 4555.56L344 4556.56L358 4556.56L358 4555.56L344 4555.56ZM344 4581.55L344 4582.55L358 4582.55L358 4581.55L344 4581.55ZM344 4607.55L344 4608.55L358 4608.55L358 4607.55L344 4607.55ZM344 4633.54L344 4634.54L358 4634.54L358 4633.54L344 4633.54ZM344 4659.54L344 4660.54L358 4660.54L358 4659.54L344 4659.54ZM344 4685.53L344 4686.53L358 4686.53L358 4685.53L344 4685.53ZM344 4711.53L344 4712.53L358 4712.53L358 4711.53L344 4711.53ZM344 4737.52L344 4738.52L358 4738.52L358 4737.52L344 4737.52ZM344 4763.52L344 4764.52L358 4764.52L358 4763.52L344 4763.52ZM344 4789.51L344 4790.51L358 4790.51L358 4789.51L344 4789.51ZM344 4815.51L344 4816.51L358 4816.51L358 4815.51L344 4815.51ZM344 4841.5L344 4842L358 4842L358 4841.5L344 4841.5Z" fill="#1767D2"/>
<path d="M417.248 421.494C422.123 421.483 425.666 418.026 425.656 413.276C425.646 408.651 422.089 405.308 417.214 405.319L412.039 405.33L412.073 421.504L417.248 421.494ZM414.995 407.848L417.12 407.844C420.245 407.837 422.524 410.108 422.531 413.283C422.538 416.582 420.268 418.962 417.143 418.969L415.018 418.973L414.995 407.848ZM431.197 409.014L428.447 409.02L428.473 421.47L431.223 421.464L431.197 409.014ZM431.187 404.164L428.437 404.17L428.442 406.895L431.192 406.889L431.187 404.164ZM444.916 418.26L442.564 417.39C442.042 418.642 441.143 419.468 439.893 419.471C438.093 419.475 436.815 417.728 436.81 415.303C436.804 412.778 438.05 410.975 439.8 410.971C440.95 410.969 441.902 411.667 442.43 412.991L444.803 412.061C443.898 409.988 442.146 408.666 439.671 408.671C436.296 408.679 433.876 411.459 433.885 415.334C433.892 419.084 436.348 421.804 439.723 421.796C442.198 421.791 444.07 420.287 444.916 418.26ZM457.543 418.534L455.441 417.713C454.843 418.89 453.745 419.592 452.545 419.594C450.695 419.598 449.367 418.101 449.187 415.802L457.562 415.784C457.636 415.459 457.685 414.734 457.683 414.134C457.676 410.884 455.447 408.638 452.297 408.645C448.847 408.652 446.328 411.483 446.336 415.358C446.344 419.107 448.874 421.777 452.349 421.77C454.674 421.765 456.672 420.536 457.543 418.534ZM452.301 410.745C453.851 410.742 454.904 411.965 455.008 413.864L449.283 413.876C449.654 411.951 450.826 410.748 452.301 410.745ZM478.307 421.365L478.289 413.215C478.284 410.49 476.455 408.594 474.13 408.599C472.53 408.602 471.107 409.53 470.21 410.882C469.532 409.484 468.23 408.612 466.73 408.615C465.155 408.618 463.807 409.596 463.034 410.797L463.03 408.947L460.38 408.953L460.407 421.403L463.157 421.397L463.138 412.472C463.761 411.596 464.81 410.894 465.885 410.891C467.085 410.889 467.962 411.912 467.965 413.462L467.982 421.387L470.732 421.381L470.714 413.231C470.714 412.906 470.688 412.581 470.637 412.281C471.286 411.48 472.31 410.878 473.36 410.876C474.61 410.873 475.537 411.896 475.54 413.446L475.557 421.371L478.307 421.365ZM493.459 415.084C493.451 411.284 491.245 408.563 488.195 408.57C486.795 408.573 485.297 409.351 484.374 410.503L484.36 403.828L481.61 403.833L481.647 421.358L484.247 421.353L484.244 419.828C485.121 420.901 486.673 421.698 488.048 421.695C491.197 421.688 493.467 418.909 493.459 415.084ZM487.243 419.447C486.093 419.449 485.017 418.901 484.39 418.078L484.378 412.253C485.001 411.401 486.125 410.824 487.325 410.821C489.2 410.817 490.553 412.565 490.559 415.04C490.564 417.59 489.168 419.443 487.243 419.447ZM498.899 421.322L498.884 414.322C499.105 412.622 500.052 411.195 501.952 411.191C502.352 411.19 502.928 411.264 503.278 411.363L503.297 408.738C503.022 408.613 502.447 408.54 502.022 408.541C500.572 408.544 499.25 409.896 498.778 411.522L498.773 408.872L496.123 408.878L496.149 421.328L498.899 421.322ZM515.55 418.412L513.449 417.592C512.851 418.768 511.752 419.47 510.552 419.473C508.702 419.477 507.374 417.979 507.194 415.68L515.569 415.662C515.644 415.337 515.692 414.612 515.691 414.012C515.684 410.762 513.454 408.517 510.304 408.523C506.854 408.53 504.335 411.361 504.344 415.236C504.351 418.986 506.882 421.655 510.357 421.648C512.682 421.643 514.679 420.414 515.55 418.412ZM510.309 410.623C511.859 410.62 512.911 411.843 513.015 413.742L507.29 413.754C507.661 411.829 508.834 410.626 510.309 410.623ZM534.884 421.247L534.879 418.922L527.004 418.938L530.224 416.756C531.872 415.628 533.918 413.999 533.914 411.699C533.909 409.349 531.655 407.628 528.805 407.634C526.18 407.64 523.933 409.12 522.963 411.322L525.065 412.292C525.587 410.891 526.985 409.888 528.485 409.885C529.86 409.882 531.012 410.755 531.014 411.955C531.017 413.18 529.919 414.082 528.571 415.11L523.129 419.196L523.134 421.271L534.884 421.247ZM536.644 414.568C536.653 418.618 539.309 421.562 542.984 421.555C546.659 421.547 549.303 418.591 549.294 414.541C549.286 410.516 546.63 407.597 542.955 407.605C539.28 407.612 536.636 410.543 536.644 414.568ZM539.544 414.562C539.539 411.812 540.959 409.834 542.959 409.83C544.984 409.825 546.414 411.797 546.419 414.547C546.425 417.347 545.004 419.325 542.979 419.33C540.979 419.334 539.55 417.362 539.544 414.562ZM555.928 407.877L551.132 409.862L551.912 411.936L555.309 410.629L555.327 418.979L551.527 418.987L551.531 421.212L561.381 421.191L561.377 418.966L558.077 418.973L558.053 407.873L555.928 407.877ZM568.69 414.451C566.84 414.454 565.838 413.532 565.835 412.282C565.832 410.832 567.205 409.704 568.88 409.7C570.63 409.696 571.907 410.869 572.411 412.768C571.489 413.895 570.165 414.447 568.69 414.451ZM562.96 412.288C562.966 414.763 565.119 416.583 568.144 416.577C569.819 416.573 571.493 416.02 572.616 414.942C572.472 417.668 571.075 419.371 568.6 419.376C567.05 419.379 565.574 418.682 564.572 417.684L562.724 418.988C563.927 420.436 566.155 421.506 568.705 421.501C572.83 421.492 575.474 418.661 575.465 414.461C575.456 410.311 572.725 407.542 568.875 407.55C565.575 407.557 562.955 409.588 562.96 412.288Z" fill="white"/>
<g filter="url(#filter0_f_1091_1098)">
<ellipse cx="331" cy="410" rx="4" ry="2" fill="black" fill-opacity="0.12"/>
</g>
<path fill-rule="evenodd" clip-rule="evenodd" d="M367.522 434.293C374.23 429.458 378.583 421.665 378.583 412.875C378.583 398.205 366.458 386.312 351.5 386.312C336.542 386.312 324.417 398.205 324.417 412.875C324.417 421.665 328.77 429.458 335.478 434.293C340.569 438.055 347.742 443.988 349.405 453.533C349.585 454.566 350.452 455.367 351.5 455.367C352.548 455.367 353.415 454.566 353.595 453.533C355.257 443.988 362.431 438.055 367.522 434.293Z" fill="#EA352B"/>
<ellipse cx="351.5" cy="412.875" rx="10.8333" ry="10.625" fill="black" fill-opacity="0.4"/>
<g filter="url(#filter1_f_1091_1098)">
<ellipse cx="331" cy="1102" rx="4" ry="2" fill="black" fill-opacity="0.12"/>
</g>
<path fill-rule="evenodd" clip-rule="evenodd" d="M367.522 1126.29C374.23 1121.46 378.583 1113.67 378.583 1104.88C378.583 1090.2 366.458 1078.31 351.5 1078.31C336.542 1078.31 324.417 1090.2 324.417 1104.88C324.417 1113.67 328.77 1121.46 335.478 1126.29C340.569 1130.06 347.742 1135.99 349.405 1145.53C349.585 1146.57 350.452 1147.37 351.5 1147.37C352.548 1147.37 353.415 1146.57 353.595 1145.53C355.257 1135.99 362.431 1130.06 367.522 1126.29Z" fill="#EA352B"/>
<ellipse cx="351.5" cy="1104.88" rx="10.8333" ry="10.625" fill="black" fill-opacity="0.4"/>
<g filter="url(#filter2_f_1091_1098)">
<ellipse cx="331" cy="1804" rx="4" ry="2" fill="black" fill-opacity="0.12"/>
</g>
<path fill-rule="evenodd" clip-rule="evenodd" d="M367.522 1829.55C374.23 1824.6 378.583 1816.62 378.583 1807.62C378.583 1792.61 366.458 1780.44 351.5 1780.44C336.542 1780.44 324.417 1792.61 324.417 1807.62C324.417 1816.62 328.77 1824.6 335.478 1829.55C340.576 1833.4 347.763 1839.49 349.412 1849.28C349.586 1850.31 350.452 1851.12 351.5 1851.12C352.548 1851.12 353.414 1850.31 353.588 1849.28C355.237 1839.49 362.424 1833.4 367.522 1829.55Z" fill="#EA352B"/>
<ellipse cx="351.5" cy="1807.62" rx="10.8333" ry="10.875" fill="black" fill-opacity="0.4"/>
<g filter="url(#filter3_f_1091_1098)">
<ellipse cx="329" cy="2533" rx="4" ry="2" fill="black" fill-opacity="0.12"/>
</g>
<path fill-rule="evenodd" clip-rule="evenodd" d="M367.762 2557.29C374.779 2552.46 379.333 2544.67 379.333 2535.88C379.333 2521.2 366.648 2509.31 351 2509.31C335.352 2509.31 322.667 2521.2 322.667 2535.88C322.667 2544.67 327.221 2552.46 334.238 2557.29C339.549 2561.04 347.026 2566.95 348.794 2576.45C348.994 2577.53 349.902 2578.37 351 2578.37C352.098 2578.37 353.006 2577.53 353.206 2576.45C354.974 2566.95 362.451 2561.04 367.762 2557.29Z" fill="#EA352B"/>
<ellipse cx="351" cy="2535.88" rx="11.3333" ry="10.625" fill="black" fill-opacity="0.4"/>
<g filter="url(#filter4_f_1091_1098)">
<ellipse cx="329" cy="3338" rx="4" ry="2" fill="black" fill-opacity="0.12"/>
</g>
<path fill-rule="evenodd" clip-rule="evenodd" d="M367.762 3362.29C374.779 3357.46 379.333 3349.67 379.333 3340.88C379.333 3326.2 366.648 3314.31 351 3314.31C335.352 3314.31 322.667 3326.2 322.667 3340.88C322.667 3349.67 327.221 3357.46 334.238 3362.29C339.549 3366.04 347.026 3371.95 348.794 3381.45C348.994 3382.53 349.902 3383.37 351 3383.37C352.098 3383.37 353.006 3382.53 353.206 3381.45C354.974 3371.95 362.451 3366.04 367.762 3362.29Z" fill="#EA352B"/>
<ellipse cx="351" cy="3340.88" rx="11.3333" ry="10.625" fill="black" fill-opacity="0.4"/>
<g filter="url(#filter5_f_1091_1098)">
<ellipse cx="329" cy="4143" rx="4" ry="2" fill="black" fill-opacity="0.12"/>
</g>
<path fill-rule="evenodd" clip-rule="evenodd" d="M367.762 4167.29C374.779 4162.46 379.333 4154.67 379.333 4145.88C379.333 4131.2 366.648 4119.31 351 4119.31C335.352 4119.31 322.667 4131.2 322.667 4145.88C322.667 4154.67 327.221 4162.46 334.238 4167.29C339.549 4171.04 347.026 4176.95 348.794 4186.45C348.994 4187.53 349.902 4188.37 351 4188.37C352.098 4188.37 353.006 4187.53 353.206 4186.45C354.974 4176.95 362.451 4171.04 367.762 4167.29Z" fill="#EA352B"/>
<ellipse cx="351" cy="4145.88" rx="11.3333" ry="10.625" fill="black" fill-opacity="0.4"/>
<path d="M163.137 1117V1105.62L167.537 1111.32H168.762L173.062 1105.47V1117H175.937V1100.82H173.187L168.187 1107.77L162.912 1100.82H160.362V1117H163.137ZM190.441 1117.18L190.566 1115.17C190.416 1115.2 190.141 1115.22 189.991 1115.22C189.316 1115.22 188.966 1114.75 188.966 1114.07V1108.8C188.966 1105.82 187.166 1104.22 184.266 1104.22C181.916 1104.22 180.016 1105.47 179.141 1107.47L181.191 1108.35C181.766 1107.25 182.666 1106.42 184.016 1106.42C185.366 1106.42 186.241 1107.32 186.241 1108.72V1109.52L183.466 1109.9C180.666 1110.3 178.766 1111.67 178.766 1113.95C178.766 1115.92 180.341 1117.35 182.541 1117.35C184.266 1117.35 185.641 1116.5 186.416 1115.22C186.841 1116.67 187.866 1117.35 189.316 1117.35C189.741 1117.35 190.091 1117.28 190.441 1117.18ZM183.441 1115.22C182.366 1115.22 181.591 1114.57 181.591 1113.65C181.591 1112.52 182.616 1111.85 184.041 1111.67L186.241 1111.37V1113.6C185.641 1114.55 184.616 1115.22 183.441 1115.22ZM195.405 1117V1110C195.63 1108.3 196.58 1106.87 198.48 1106.87C198.88 1106.87 199.455 1106.95 199.805 1107.05L199.83 1104.42C199.555 1104.3 198.98 1104.22 198.555 1104.22C197.105 1104.22 195.78 1105.57 195.305 1107.2V1104.55H192.655V1117H195.405ZM201.305 1106.85H207.58L201.155 1114.95V1117H211.18V1114.7H204.505L211.08 1106.6V1104.55H201.305V1106.85ZM225.226 1110.77C225.226 1106.97 222.626 1104.22 219.026 1104.22C215.401 1104.22 212.776 1106.97 212.776 1110.77C212.776 1114.57 215.401 1117.33 219.026 1117.33C222.626 1117.33 225.226 1114.57 225.226 1110.77ZM215.676 1110.77C215.676 1108.27 217.076 1106.45 219.026 1106.45C220.951 1106.45 222.326 1108.27 222.326 1110.77C222.326 1113.27 220.951 1115.07 219.026 1115.07C217.076 1115.07 215.676 1113.27 215.676 1110.77ZM244.33 1117V1114.67H236.455L239.68 1112.5C241.33 1111.37 243.38 1109.75 243.38 1107.45C243.38 1105.1 241.13 1103.37 238.28 1103.37C235.655 1103.37 233.405 1104.85 232.43 1107.05L234.53 1108.02C235.055 1106.62 236.455 1105.62 237.955 1105.62C239.33 1105.62 240.48 1106.5 240.48 1107.7C240.48 1108.92 239.38 1109.82 238.03 1110.85L232.58 1114.92V1117H244.33ZM246.104 1110.32C246.104 1114.37 248.754 1117.33 252.429 1117.33C256.104 1117.33 258.754 1114.37 258.754 1110.32C258.754 1106.3 256.104 1103.37 252.429 1103.37C248.754 1103.37 246.104 1106.3 246.104 1110.32ZM249.004 1110.32C249.004 1107.57 250.429 1105.6 252.429 1105.6C254.454 1105.6 255.879 1107.57 255.879 1110.32C255.879 1113.12 254.454 1115.1 252.429 1115.1C250.429 1115.1 249.004 1113.12 249.004 1110.32ZM272.552 1117V1114.67H264.677L267.902 1112.5C269.552 1111.37 271.602 1109.75 271.602 1107.45C271.602 1105.1 269.352 1103.37 266.502 1103.37C263.877 1103.37 261.627 1104.85 260.652 1107.05L262.752 1108.02C263.277 1106.62 264.677 1105.62 266.177 1105.62C267.552 1105.62 268.702 1106.5 268.702 1107.7C268.702 1108.92 267.602 1109.82 266.252 1110.85L260.802 1114.92V1117H272.552ZM274.327 1110.32C274.327 1114.37 276.977 1117.33 280.652 1117.33C284.327 1117.33 286.977 1114.37 286.977 1110.32C286.977 1106.3 284.327 1103.37 280.652 1103.37C276.977 1103.37 274.327 1106.3 274.327 1110.32ZM277.227 1110.32C277.227 1107.57 278.652 1105.6 280.652 1105.6C282.677 1105.6 284.102 1107.57 284.102 1110.32C284.102 1113.12 282.677 1115.1 280.652 1115.1C278.652 1115.1 277.227 1113.12 277.227 1110.32Z" fill="white"/>
<path d="M411.025 1803.82V1820H421.95V1817.47H413.975V1803.82H411.025ZM434.532 1820V1807.55H431.782V1816.07C431.207 1817.2 430.157 1818.05 428.907 1818.05C427.557 1818.05 426.607 1816.97 426.607 1815.47V1807.55H423.857V1815.7C423.857 1818.37 425.607 1820.33 427.982 1820.33C429.732 1820.33 431.132 1819.32 431.882 1817.97V1820H434.532ZM449.296 1820.68C449.296 1818.85 447.921 1817.85 445.046 1817.6L443.221 1817.47C441.521 1817.32 440.871 1817.07 440.871 1816.72C440.871 1816.47 441.071 1816.1 441.296 1815.82C441.746 1815.92 442.221 1815.97 442.696 1815.97C445.546 1815.97 447.796 1814.27 447.796 1811.77C447.796 1810.97 447.571 1810.22 447.146 1809.57C447.821 1809.27 448.846 1809 449.771 1809V1806.72C448.221 1806.72 447.021 1807.5 446.296 1808.57C445.371 1807.75 444.046 1807.22 442.521 1807.22C439.596 1807.22 437.321 1809.1 437.321 1811.62C437.321 1813.37 438.421 1814.7 439.971 1815.4C439.121 1816 438.396 1816.88 438.396 1817.47C438.396 1818 438.771 1818.47 439.421 1818.82C437.896 1819.45 436.771 1820.5 436.771 1821.63C436.771 1823.63 439.146 1824.8 442.696 1824.8C446.796 1824.8 449.296 1823.1 449.296 1820.68ZM442.846 1822.9C440.671 1822.9 439.421 1822.15 439.421 1821.18C439.421 1820.45 440.071 1819.77 440.946 1819.37C441.446 1819.5 442.021 1819.6 442.621 1819.65L444.396 1819.8C446.171 1819.95 446.646 1820.35 446.646 1821.13C446.646 1822.15 445.171 1822.9 442.846 1822.9ZM440.021 1811.65C440.021 1810.22 441.121 1809.15 442.546 1809.15C443.996 1809.15 445.146 1810.2 445.146 1811.65C445.146 1813.07 444.021 1814.05 442.571 1814.05C441.121 1814.05 440.021 1813.07 440.021 1811.65ZM454.638 1802.47H451.888V1820H454.638V1802.47ZM460.912 1807.55H458.162V1820H460.912V1807.55ZM460.912 1802.7H458.162V1805.42H460.912V1802.7ZM476.012 1813.77C476.012 1809.97 473.412 1807.22 469.812 1807.22C466.187 1807.22 463.562 1809.97 463.562 1813.77C463.562 1817.57 466.187 1820.33 469.812 1820.33C473.412 1820.33 476.012 1817.57 476.012 1813.77ZM466.462 1813.77C466.462 1811.27 467.862 1809.45 469.812 1809.45C471.737 1809.45 473.112 1811.27 473.112 1813.77C473.112 1816.27 471.737 1818.07 469.812 1818.07C467.862 1818.07 466.462 1816.27 466.462 1813.77ZM495.115 1820V1817.67H487.24L490.465 1815.5C492.115 1814.37 494.165 1812.75 494.165 1810.45C494.165 1808.1 491.915 1806.37 489.065 1806.37C486.44 1806.37 484.19 1807.85 483.215 1810.05L485.315 1811.02C485.84 1809.62 487.24 1808.62 488.74 1808.62C490.115 1808.62 491.265 1809.5 491.265 1810.7C491.265 1811.92 490.165 1812.82 488.815 1813.85L483.365 1817.92V1820H495.115ZM496.89 1813.32C496.89 1817.37 499.54 1820.33 503.215 1820.33C506.89 1820.33 509.54 1817.37 509.54 1813.32C509.54 1809.3 506.89 1806.37 503.215 1806.37C499.54 1806.37 496.89 1809.3 496.89 1813.32ZM499.79 1813.32C499.79 1810.57 501.215 1808.6 503.215 1808.6C505.24 1808.6 506.665 1810.57 506.665 1813.32C506.665 1816.12 505.24 1818.1 503.215 1818.1C501.215 1818.1 499.79 1816.12 499.79 1813.32ZM523.338 1820V1817.67H515.463L518.688 1815.5C520.338 1814.37 522.388 1812.75 522.388 1810.45C522.388 1808.1 520.138 1806.37 517.288 1806.37C514.663 1806.37 512.413 1807.85 511.438 1810.05L513.538 1811.02C514.063 1809.62 515.463 1808.62 516.963 1808.62C518.338 1808.62 519.488 1809.5 519.488 1810.7C519.488 1811.92 518.388 1812.82 517.038 1813.85L511.588 1817.92V1820H523.338ZM525.112 1813.32C525.112 1817.37 527.762 1820.33 531.437 1820.33C535.112 1820.33 537.762 1817.37 537.762 1813.32C537.762 1809.3 535.112 1806.37 531.437 1806.37C527.762 1806.37 525.112 1809.3 525.112 1813.32ZM528.012 1813.32C528.012 1810.57 529.437 1808.6 531.437 1808.6C533.462 1808.6 534.887 1810.57 534.887 1813.32C534.887 1816.12 533.462 1818.1 531.437 1818.1C529.437 1818.1 528.012 1816.12 528.012 1813.32Z" fill="white"/>
<path d="M421.694 3349C426.569 3349 430.119 3345.55 430.119 3340.8C430.119 3336.17 426.569 3332.82 421.694 3332.82H416.519V3349H421.694ZM419.469 3335.35H421.594C424.719 3335.35 426.994 3337.62 426.994 3340.8C426.994 3344.1 424.719 3346.47 421.594 3346.47H419.469V3335.35ZM435.669 3336.55H432.919V3349H435.669V3336.55ZM435.669 3331.7H432.919V3334.42H435.669V3331.7ZM449.368 3345.82L447.018 3344.95C446.493 3346.2 445.593 3347.02 444.343 3347.02C442.543 3347.02 441.268 3345.27 441.268 3342.85C441.268 3340.32 442.518 3338.52 444.268 3338.52C445.418 3338.52 446.368 3339.22 446.893 3340.55L449.268 3339.62C448.368 3337.55 446.618 3336.22 444.143 3336.22C440.768 3336.22 438.343 3339 438.343 3342.87C438.343 3346.62 440.793 3349.35 444.168 3349.35C446.643 3349.35 448.518 3347.85 449.368 3345.82ZM461.995 3346.12L459.895 3345.3C459.295 3346.47 458.195 3347.17 456.995 3347.17C455.145 3347.17 453.82 3345.67 453.645 3343.37H462.02C462.095 3343.05 462.145 3342.32 462.145 3341.72C462.145 3338.47 459.92 3336.22 456.77 3336.22C453.32 3336.22 450.795 3339.05 450.795 3342.92C450.795 3346.67 453.32 3349.35 456.795 3349.35C459.12 3349.35 461.12 3348.12 461.995 3346.12ZM456.77 3338.32C458.32 3338.32 459.37 3339.55 459.47 3341.45H453.745C454.12 3339.52 455.295 3338.32 456.77 3338.32ZM482.753 3349V3340.85C482.753 3338.12 480.928 3336.22 478.603 3336.22C477.003 3336.22 475.578 3337.15 474.678 3338.5C474.003 3337.1 472.703 3336.22 471.203 3336.22C469.628 3336.22 468.278 3337.2 467.503 3338.4V3336.55H464.853V3349H467.603V3340.07C468.228 3339.2 469.278 3338.5 470.353 3338.5C471.553 3338.5 472.428 3339.52 472.428 3341.07V3349H475.178V3340.85C475.178 3340.52 475.153 3340.2 475.103 3339.9C475.753 3339.1 476.778 3338.5 477.828 3338.5C479.078 3338.5 480.003 3339.52 480.003 3341.07V3349H482.753ZM497.918 3342.75C497.918 3338.95 495.718 3336.22 492.668 3336.22C491.268 3336.22 489.768 3337 488.843 3338.15V3331.47H486.093V3349H488.693V3347.47C489.568 3348.55 491.118 3349.35 492.493 3349.35C495.643 3349.35 497.918 3346.57 497.918 3342.75ZM491.693 3347.1C490.543 3347.1 489.468 3346.55 488.843 3345.72V3339.9C489.468 3339.05 490.593 3338.47 491.793 3338.47C493.668 3338.47 495.018 3340.22 495.018 3342.7C495.018 3345.25 493.618 3347.1 491.693 3347.1ZM503.345 3349V3342C503.57 3340.3 504.52 3338.87 506.42 3338.87C506.82 3338.87 507.395 3338.95 507.745 3339.05L507.77 3336.42C507.495 3336.3 506.92 3336.22 506.495 3336.22C505.045 3336.22 503.72 3337.57 503.245 3339.2V3336.55H500.595V3349H503.345ZM520.002 3346.12L517.902 3345.3C517.302 3346.47 516.202 3347.17 515.002 3347.17C513.152 3347.17 511.827 3345.67 511.652 3343.37H520.027C520.102 3343.05 520.152 3342.32 520.152 3341.72C520.152 3338.47 517.927 3336.22 514.777 3336.22C511.327 3336.22 508.802 3339.05 508.802 3342.92C508.802 3346.67 511.327 3349.35 514.802 3349.35C517.127 3349.35 519.127 3348.12 520.002 3346.12ZM514.777 3338.32C516.327 3338.32 517.377 3339.55 517.477 3341.45H511.752C512.127 3339.52 513.302 3338.32 514.777 3338.32ZM539.33 3349V3346.67H531.455L534.68 3344.5C536.33 3343.37 538.38 3341.75 538.38 3339.45C538.38 3337.1 536.13 3335.37 533.28 3335.37C530.655 3335.37 528.405 3336.85 527.43 3339.05L529.53 3340.02C530.055 3338.62 531.455 3337.62 532.955 3337.62C534.33 3337.62 535.48 3338.5 535.48 3339.7C535.48 3340.92 534.38 3341.82 533.03 3342.85L527.58 3346.92V3349H539.33ZM541.104 3342.32C541.104 3346.37 543.754 3349.33 547.429 3349.33C551.104 3349.33 553.754 3346.37 553.754 3342.32C553.754 3338.3 551.104 3335.37 547.429 3335.37C543.754 3335.37 541.104 3338.3 541.104 3342.32ZM544.004 3342.32C544.004 3339.57 545.429 3337.6 547.429 3337.6C549.454 3337.6 550.879 3339.57 550.879 3342.32C550.879 3345.12 549.454 3347.1 547.429 3347.1C545.429 3347.1 544.004 3345.12 544.004 3342.32ZM567.552 3349V3346.67H559.677L562.902 3344.5C564.552 3343.37 566.602 3341.75 566.602 3339.45C566.602 3337.1 564.352 3335.37 561.502 3335.37C558.877 3335.37 556.627 3336.85 555.652 3339.05L557.752 3340.02C558.277 3338.62 559.677 3337.62 561.177 3337.62C562.552 3337.62 563.702 3338.5 563.702 3339.7C563.702 3340.92 562.602 3341.82 561.252 3342.85L555.802 3346.92V3349H567.552ZM569.327 3342.32C569.327 3346.37 571.977 3349.33 575.652 3349.33C579.327 3349.33 581.977 3346.37 581.977 3342.32C581.977 3338.3 579.327 3335.37 575.652 3335.37C571.977 3335.37 569.327 3338.3 569.327 3342.32ZM572.227 3342.32C572.227 3339.57 573.652 3337.6 575.652 3337.6C577.677 3337.6 579.102 3339.57 579.102 3342.32C579.102 3345.12 577.677 3347.1 575.652 3347.1C573.652 3347.1 572.227 3345.12 572.227 3342.32Z" fill="white"/>
<path d="M119.007 2527.55C115.607 2527.55 112.832 2529.6 112.832 2532.45C112.832 2535.25 115.157 2536.37 118.457 2537.2C121.107 2537.85 122.282 2538.35 122.282 2539.65C122.282 2541.02 120.957 2541.9 119.132 2541.9C116.832 2541.9 115.432 2540.82 114.657 2539.2L112.182 2540.2C113.332 2542.72 115.732 2544.33 119.107 2544.33C122.707 2544.33 125.257 2542.3 125.257 2539.35C125.257 2536.52 122.907 2535.37 119.582 2534.52C116.907 2533.87 115.807 2533.4 115.807 2532.17C115.807 2530.9 117.257 2529.95 119.032 2529.95C120.832 2529.95 122.207 2530.9 122.932 2532.45L125.357 2531.4C124.307 2529.2 122.157 2527.55 119.007 2527.55ZM138.451 2541.12L136.351 2540.3C135.751 2541.47 134.651 2542.17 133.451 2542.17C131.601 2542.17 130.276 2540.67 130.101 2538.37H138.476C138.551 2538.05 138.601 2537.32 138.601 2536.72C138.601 2533.47 136.376 2531.22 133.226 2531.22C129.776 2531.22 127.251 2534.05 127.251 2537.92C127.251 2541.67 129.776 2544.35 133.251 2544.35C135.576 2544.35 137.576 2543.12 138.451 2541.12ZM133.226 2533.32C134.776 2533.32 135.826 2534.55 135.926 2536.45H130.201C130.576 2534.52 131.751 2533.32 133.226 2533.32ZM148.737 2543.95V2541.72C148.262 2541.87 147.462 2542.02 146.712 2542.02C145.237 2542.02 144.637 2541.32 144.637 2540.17V2533.77H148.687V2531.55H144.637V2528.52H141.887V2531.55H140.012V2533.77H141.887V2540.75C141.887 2543.02 143.412 2544.35 146.162 2544.35C147.087 2544.35 148.162 2544.15 148.737 2543.95ZM158.527 2543.95V2541.72C158.052 2541.87 157.252 2542.02 156.502 2542.02C155.027 2542.02 154.427 2541.32 154.427 2540.17V2533.77H158.477V2531.55H154.427V2528.52H151.677V2531.55H149.802V2533.77H151.677V2540.75C151.677 2543.02 153.202 2544.35 155.952 2544.35C156.877 2544.35 157.952 2544.15 158.527 2543.95ZM170.995 2541.12L168.895 2540.3C168.295 2541.47 167.195 2542.17 165.995 2542.17C164.145 2542.17 162.82 2540.67 162.645 2538.37H171.02C171.095 2538.05 171.145 2537.32 171.145 2536.72C171.145 2533.47 168.92 2531.22 165.77 2531.22C162.32 2531.22 159.795 2534.05 159.795 2537.92C159.795 2541.67 162.32 2544.35 165.795 2544.35C168.12 2544.35 170.12 2543.12 170.995 2541.12ZM165.77 2533.32C167.32 2533.32 168.37 2534.55 168.47 2536.45H162.745C163.12 2534.52 164.295 2533.32 165.77 2533.32ZM191.753 2544V2535.85C191.753 2533.12 189.928 2531.22 187.603 2531.22C186.003 2531.22 184.578 2532.15 183.678 2533.5C183.003 2532.1 181.703 2531.22 180.203 2531.22C178.628 2531.22 177.278 2532.2 176.503 2533.4V2531.55H173.853V2544H176.603V2535.07C177.228 2534.2 178.278 2533.5 179.353 2533.5C180.553 2533.5 181.428 2534.52 181.428 2536.07V2544H184.178V2535.85C184.178 2535.52 184.153 2535.2 184.103 2534.9C184.753 2534.1 185.778 2533.5 186.828 2533.5C188.078 2533.5 189.003 2534.52 189.003 2536.07V2544H191.753ZM206.918 2537.75C206.918 2533.95 204.718 2531.22 201.668 2531.22C200.268 2531.22 198.768 2532 197.843 2533.15V2526.47H195.093V2544H197.693V2542.47C198.568 2543.55 200.118 2544.35 201.493 2544.35C204.643 2544.35 206.918 2541.57 206.918 2537.75ZM200.693 2542.1C199.543 2542.1 198.468 2541.55 197.843 2540.72V2534.9C198.468 2534.05 199.593 2533.47 200.793 2533.47C202.668 2533.47 204.018 2535.22 204.018 2537.7C204.018 2540.25 202.618 2542.1 200.693 2542.1ZM212.345 2544V2537C212.57 2535.3 213.52 2533.87 215.42 2533.87C215.82 2533.87 216.395 2533.95 216.745 2534.05L216.77 2531.42C216.495 2531.3 215.92 2531.22 215.495 2531.22C214.045 2531.22 212.72 2532.57 212.245 2534.2V2531.55H209.595V2544H212.345ZM229.002 2541.12L226.902 2540.3C226.302 2541.47 225.202 2542.17 224.002 2542.17C222.152 2542.17 220.827 2540.67 220.652 2538.37H229.027C229.102 2538.05 229.152 2537.32 229.152 2536.72C229.152 2533.47 226.927 2531.22 223.777 2531.22C220.327 2531.22 217.802 2534.05 217.802 2537.92C217.802 2541.67 220.327 2544.35 223.802 2544.35C226.127 2544.35 228.127 2543.12 229.002 2541.12ZM223.777 2533.32C225.327 2533.32 226.377 2534.55 226.477 2536.45H220.752C221.127 2534.52 222.302 2533.32 223.777 2533.32ZM248.33 2544V2541.67H240.455L243.68 2539.5C245.33 2538.37 247.38 2536.75 247.38 2534.45C247.38 2532.1 245.13 2530.37 242.28 2530.37C239.655 2530.37 237.405 2531.85 236.43 2534.05L238.53 2535.02C239.055 2533.62 240.455 2532.62 241.955 2532.62C243.33 2532.62 244.48 2533.5 244.48 2534.7C244.48 2535.92 243.38 2536.82 242.03 2537.85L236.58 2541.92V2544H248.33ZM250.104 2537.32C250.104 2541.37 252.754 2544.33 256.429 2544.33C260.104 2544.33 262.754 2541.37 262.754 2537.32C262.754 2533.3 260.104 2530.37 256.429 2530.37C252.754 2530.37 250.104 2533.3 250.104 2537.32ZM253.004 2537.32C253.004 2534.57 254.429 2532.6 256.429 2532.6C258.454 2532.6 259.879 2534.57 259.879 2537.32C259.879 2540.12 258.454 2542.1 256.429 2542.1C254.429 2542.1 253.004 2540.12 253.004 2537.32ZM276.552 2544V2541.67H268.677L271.902 2539.5C273.552 2538.37 275.602 2536.75 275.602 2534.45C275.602 2532.1 273.352 2530.37 270.502 2530.37C267.877 2530.37 265.627 2531.85 264.652 2534.05L266.752 2535.02C267.277 2533.62 268.677 2532.62 270.177 2532.62C271.552 2532.62 272.702 2533.5 272.702 2534.7C272.702 2535.92 271.602 2536.82 270.252 2537.85L264.802 2541.92V2544H276.552ZM278.327 2537.32C278.327 2541.37 280.977 2544.33 284.652 2544.33C288.327 2544.33 290.977 2541.37 290.977 2537.32C290.977 2533.3 288.327 2530.37 284.652 2530.37C280.977 2530.37 278.327 2533.3 278.327 2537.32ZM281.227 2537.32C281.227 2534.57 282.652 2532.6 284.652 2532.6C286.677 2532.6 288.102 2534.57 288.102 2537.32C288.102 2540.12 286.677 2542.1 284.652 2542.1C282.652 2542.1 281.227 2540.12 281.227 2537.32Z" fill="white"/>
<path d="M144.854 4147.5V4145.07H138.479V4140.3H146.579V4137.82H135.529V4154H138.479V4147.5H144.854ZM158.592 4151.12L156.492 4150.3C155.892 4151.47 154.792 4152.17 153.592 4152.17C151.742 4152.17 150.417 4150.67 150.242 4148.37H158.617C158.692 4148.05 158.742 4147.32 158.742 4146.72C158.742 4143.47 156.517 4141.22 153.367 4141.22C149.917 4141.22 147.392 4144.05 147.392 4147.92C147.392 4151.67 149.917 4154.35 153.392 4154.35C155.717 4154.35 157.717 4153.12 158.592 4151.12ZM153.367 4143.32C154.917 4143.32 155.967 4144.55 156.067 4146.45H150.342C150.717 4144.52 151.892 4143.32 153.367 4143.32ZM173.275 4147.75C173.275 4143.95 171.075 4141.22 168.025 4141.22C166.625 4141.22 165.125 4142 164.2 4143.15V4136.47H161.45V4154H164.05V4152.47C164.925 4153.55 166.475 4154.35 167.85 4154.35C171 4154.35 173.275 4151.57 173.275 4147.75ZM167.05 4152.1C165.9 4152.1 164.825 4151.55 164.2 4150.72V4144.9C164.825 4144.05 165.95 4143.47 167.15 4143.47C169.025 4143.47 170.375 4145.22 170.375 4147.7C170.375 4150.25 168.975 4152.1 167.05 4152.1ZM187.777 4147.75C187.777 4143.95 185.577 4141.22 182.527 4141.22C181.127 4141.22 179.627 4142 178.702 4143.15V4136.47H175.952V4154H178.552V4152.47C179.427 4153.55 180.977 4154.35 182.352 4154.35C185.502 4154.35 187.777 4151.57 187.777 4147.75ZM181.552 4152.1C180.402 4152.1 179.327 4151.55 178.702 4150.72V4144.9C179.327 4144.05 180.452 4143.47 181.652 4143.47C183.527 4143.47 184.877 4145.22 184.877 4147.7C184.877 4150.25 183.477 4152.1 181.552 4152.1ZM193.204 4154V4147C193.429 4145.3 194.379 4143.87 196.279 4143.87C196.679 4143.87 197.254 4143.95 197.604 4144.05L197.629 4141.42C197.354 4141.3 196.779 4141.22 196.354 4141.22C194.904 4141.22 193.579 4142.57 193.104 4144.2V4141.55H190.454V4154H193.204ZM210.286 4154.18L210.411 4152.17C210.261 4152.2 209.986 4152.22 209.836 4152.22C209.161 4152.22 208.811 4151.75 208.811 4151.07V4145.8C208.811 4142.82 207.011 4141.22 204.111 4141.22C201.761 4141.22 199.861 4142.47 198.986 4144.47L201.036 4145.35C201.611 4144.25 202.511 4143.42 203.861 4143.42C205.211 4143.42 206.086 4144.32 206.086 4145.72V4146.52L203.311 4146.9C200.511 4147.3 198.611 4148.67 198.611 4150.95C198.611 4152.92 200.186 4154.35 202.386 4154.35C204.111 4154.35 205.486 4153.5 206.261 4152.22C206.686 4153.67 207.711 4154.35 209.161 4154.35C209.586 4154.35 209.936 4154.28 210.286 4154.18ZM203.286 4152.22C202.211 4152.22 201.436 4151.57 201.436 4150.65C201.436 4149.52 202.461 4148.85 203.886 4148.67L206.086 4148.37V4150.6C205.486 4151.55 204.461 4152.22 203.286 4152.22ZM215.25 4141.55H212.5V4154H215.25V4141.55ZM215.25 4136.7H212.5V4139.42H215.25V4136.7ZM230.349 4147.77C230.349 4143.97 227.749 4141.22 224.149 4141.22C220.524 4141.22 217.899 4143.97 217.899 4147.77C217.899 4151.57 220.524 4154.33 224.149 4154.33C227.749 4154.33 230.349 4151.57 230.349 4147.77ZM220.799 4147.77C220.799 4145.27 222.199 4143.45 224.149 4143.45C226.074 4143.45 227.449 4145.27 227.449 4147.77C227.449 4150.27 226.074 4152.07 224.149 4152.07C222.199 4152.07 220.799 4150.27 220.799 4147.77ZM249.453 4154V4151.67H241.578L244.803 4149.5C246.453 4148.37 248.503 4146.75 248.503 4144.45C248.503 4142.1 246.253 4140.37 243.403 4140.37C240.778 4140.37 238.528 4141.85 237.553 4144.05L239.653 4145.02C240.178 4143.62 241.578 4142.62 243.078 4142.62C244.453 4142.62 245.603 4143.5 245.603 4144.7C245.603 4145.92 244.503 4146.82 243.153 4147.85L237.703 4151.92V4154H249.453ZM251.228 4147.32C251.228 4151.37 253.878 4154.33 257.553 4154.33C261.228 4154.33 263.878 4151.37 263.878 4147.32C263.878 4143.3 261.228 4140.37 257.553 4140.37C253.878 4140.37 251.228 4143.3 251.228 4147.32ZM254.128 4147.32C254.128 4144.57 255.553 4142.6 257.553 4142.6C259.578 4142.6 261.003 4144.57 261.003 4147.32C261.003 4150.12 259.578 4152.1 257.553 4152.1C255.553 4152.1 254.128 4150.12 254.128 4147.32ZM277.675 4154V4151.67H269.8L273.025 4149.5C274.675 4148.37 276.725 4146.75 276.725 4144.45C276.725 4142.1 274.475 4140.37 271.625 4140.37C269 4140.37 266.75 4141.85 265.775 4144.05L267.875 4145.02C268.4 4143.62 269.8 4142.62 271.3 4142.62C272.675 4142.62 273.825 4143.5 273.825 4144.7C273.825 4145.92 272.725 4146.82 271.375 4147.85L265.925 4151.92V4154H277.675ZM291.225 4154V4151.67H283.35L286.575 4149.5C288.225 4148.37 290.275 4146.75 290.275 4144.45C290.275 4142.1 288.025 4140.37 285.175 4140.37C282.55 4140.37 280.3 4141.85 279.325 4144.05L281.425 4145.02C281.95 4143.62 283.35 4142.62 284.85 4142.62C286.225 4142.62 287.375 4143.5 287.375 4144.7C287.375 4145.92 286.275 4146.82 284.925 4147.85L279.475 4151.92V4154H291.225Z" fill="white"/>
<defs>
<filter id="filter0_f_1091_1098" x="325" y="406" width="12" height="8" filterUnits="userSpaceOnUse" color-interpolation-filters="sRGB">
<feFlood flood-opacity="0" result="BackgroundImageFix"/>
<feBlend mode="normal" in="SourceGraphic" in2="BackgroundImageFix" result="shape"/>
<feGaussianBlur stdDeviation="1" result="effect1_foregroundBlur_1091_1098"/>
</filter>
<filter id="filter1_f_1091_1098" x="325" y="1098" width="12" height="8" filterUnits="userSpaceOnUse" color-interpolation-filters="sRGB">
<feFlood flood-opacity="0" result="BackgroundImageFix"/>
<feBlend mode="normal" in="SourceGraphic" in2="BackgroundImageFix" result="shape"/>
<feGaussianBlur stdDeviation="1" result="effect1_foregroundBlur_1091_1098"/>
</filter>
<filter id="filter2_f_1091_1098" x="325" y="1800" width="12" height="8" filterUnits="userSpaceOnUse" color-interpolation-filters="sRGB">
<feFlood flood-opacity="0" result="BackgroundImageFix"/>
<feBlend mode="normal" in="SourceGraphic" in2="BackgroundImageFix" result="shape"/>
<feGaussianBlur stdDeviation="1" result="effect1_foregroundBlur_1091_1098"/>
</filter>
<filter id="filter3_f_1091_1098" x="323" y="2529" width="12" height="8" filterUnits="userSpaceOnUse" color-interpolation-filters="sRGB">
<feFlood flood-opacity="0" result="BackgroundImageFix"/>
<feBlend mode="normal" in="SourceGraphic" in2="BackgroundImageFix" result="shape"/>
<feGaussianBlur stdDeviation="1" result="effect1_foregroundBlur_1091_1098"/>
</filter>
<filter id="filter4_f_1091_1098" x="323" y="3334" width="12" height="8" filterUnits="userSpaceOnUse" color-interpolation-filters="sRGB">
<feFlood flood-opacity="0" result="BackgroundImageFix"/>
<feBlend mode="normal" in="SourceGraphic" in2="BackgroundImageFix" result="shape"/>
<feGaussianBlur stdDeviation="1" result="effect1_foregroundBlur_1091_1098"/>
</filter>
<filter id="filter5_f_1091_1098" x="323" y="4139" width="12" height="8" filterUnits="userSpaceOnUse" color-interpolation-filters="sRGB">
<feFlood flood-opacity="0" result="BackgroundImageFix"/>
<feBlend mode="normal" in="SourceGraphic" in2="BackgroundImageFix" result="shape"/>
<feGaussianBlur stdDeviation="1" result="effect1_foregroundBlur_1091_1098"/>
</filter>
</defs>
</svg>
