<svg width="478" height="88" viewBox="0 0 478 88" fill="none" xmlns="http://www.w3.org/2000/svg">
<g id="Group 84">
<g id="Rectangle 433">
<path d="M0 4C0 1.79086 1.79086 0 4 0H474C476.209 0 478 1.79086 478 4V84C478 86.2091 476.209 88 474 88H4C1.79086 88 0 86.2091 0 84V4Z" fill="#1767D2" fill-opacity="0.7"/>
<path d="M0 4C0 1.79086 1.79086 0 4 0H474C476.209 0 478 1.79086 478 4V84C478 86.2091 476.209 88 474 88H4C1.79086 88 0 86.2091 0 84V4Z" stroke="#1767D2"/>
</g>
<text id="Di questo passo, la Transizione verde appare lontana entro i tempi previsti" fill="white" xml:space="preserve" style="white-space: pre" font-family="Sole24Sans" font-size="18" letter-spacing="0em"><tspan x="27" y="28.03">Di questo passo, &#10;</tspan><tspan x="27" y="50.03">la Transizione verde appare &#10;</tspan><tspan x="27" y="72.03">lontana entro i tempi previsti</tspan></text>
<g id="Action Buttons">
<path id="Line 1" opacity="0.15" d="M395 0L395 88" stroke="white"/>
<text id="Heading" opacity="0.6" fill="white" xml:space="preserve" style="white-space: pre" font-family="Sole24Sans" font-size="12" letter-spacing="0px"><tspan x="416.166" y="49.28">Mostra</tspan></text>
</g>
</g>
</svg>
