<svg width="604" height="214" viewBox="0 0 604 214" fill="none" xmlns="http://www.w3.org/2000/svg">
<g filter="url(#filter0_d_1084_1097)">
<path d="M63 63C63 60.7909 64.7909 59 67 59H537C539.209 59 541 60.7909 541 63V143C541 145.209 539.209 147 537 147H67C64.7909 147 63 145.209 63 143V63Z" fill="#1767D2" fill-opacity="0.7" shape-rendering="crispEdges"/>
</g>
<path d="M95.058 87C98.532 87 101.052 84.516 101.052 81.078C101.052 77.766 98.532 75.354 95.058 75.354H91.584V87H95.058ZM93.24 76.776H94.968C97.488 76.776 99.306 78.576 99.306 81.078C99.306 83.688 97.488 85.578 94.968 85.578H93.24V76.776ZM104.816 78.072H103.286V87H104.816V78.072ZM104.816 74.526H103.286V76.308H104.816V74.526ZM115.395 85.956C113.865 85.956 112.713 84.606 112.713 82.608C112.713 80.574 113.847 79.098 115.449 79.098C116.331 79.098 117.195 79.584 117.717 80.286V84.678C117.285 85.38 116.385 85.956 115.395 85.956ZM119.247 90.276V78.072H117.753V79.206C117.177 78.378 116.169 77.838 115.053 77.838C112.893 77.838 111.093 79.782 111.093 82.59C111.093 85.29 112.803 87.234 114.999 87.234C116.133 87.234 117.141 86.694 117.717 85.884V90.276H119.247ZM129.225 87V78.072H127.695V84.228C127.245 85.218 126.381 85.938 125.319 85.938C124.221 85.938 123.429 85.074 123.429 83.868V78.072H121.899V83.976C121.899 85.866 123.159 87.234 124.887 87.234C126.201 87.234 127.227 86.478 127.749 85.524V87H129.225ZM139.155 84.966L137.931 84.498C137.463 85.416 136.599 85.974 135.627 85.974C134.133 85.974 133.053 84.732 132.945 82.86H139.137C139.191 82.626 139.227 82.14 139.227 81.744C139.227 79.458 137.661 77.838 135.483 77.838C133.107 77.838 131.343 79.854 131.343 82.608C131.343 85.308 133.107 87.234 135.537 87.234C137.139 87.234 138.525 86.388 139.155 84.966ZM135.501 79.08C136.761 79.08 137.643 80.088 137.697 81.636H133.035C133.305 80.088 134.259 79.08 135.501 79.08ZM148.2 84.552C148.2 82.896 146.796 82.212 144.78 81.78C143.268 81.438 142.404 81.168 142.404 80.376C142.404 79.62 143.25 79.098 144.438 79.098C145.68 79.098 146.508 79.62 146.922 80.484L148.146 79.998C147.624 78.9 146.526 77.838 144.456 77.838C142.35 77.838 140.91 78.954 140.91 80.466C140.91 82.014 142.368 82.734 144.348 83.148C145.878 83.472 146.724 83.778 146.724 84.624C146.724 85.434 145.968 85.992 144.654 85.992C143.16 85.992 142.206 85.326 141.756 84.444L140.496 84.93C141.108 86.334 142.548 87.234 144.582 87.234C146.85 87.234 148.2 86.136 148.2 84.552ZM155.296 86.946V85.668C154.918 85.812 154.288 85.92 153.73 85.92C152.596 85.92 152.146 85.362 152.146 84.516V79.332H155.242V78.072H152.146V75.894H150.616V78.072H149.302V79.332H150.616V84.768C150.616 86.334 151.678 87.234 153.46 87.234C154.126 87.234 154.9 87.09 155.296 86.946ZM164.909 82.554C164.909 79.818 163.091 77.838 160.589 77.838C158.087 77.838 156.251 79.818 156.251 82.554C156.251 85.254 158.087 87.234 160.589 87.234C163.091 87.234 164.909 85.254 164.909 82.554ZM157.871 82.554C157.871 80.574 159.005 79.116 160.589 79.116C162.155 79.116 163.289 80.574 163.289 82.554C163.289 84.498 162.155 85.938 160.589 85.938C159.005 85.938 157.871 84.498 157.871 82.554ZM175.008 85.956C174.162 85.956 173.226 85.506 172.686 84.858V80.52C173.154 79.8 174.036 79.098 175.08 79.098C176.574 79.098 177.69 80.448 177.69 82.5C177.69 84.534 176.574 85.956 175.008 85.956ZM179.31 82.5C179.31 79.764 177.582 77.838 175.476 77.838C174.108 77.838 173.1 78.666 172.632 79.404V78.072H171.156V90.276H172.686V86.064C173.262 86.766 174.252 87.234 175.314 87.234C177.564 87.234 179.31 85.236 179.31 82.5ZM188.819 87.144L188.891 85.974C188.783 85.992 188.603 86.01 188.495 86.01C187.955 86.01 187.685 85.632 187.685 85.146V81.042C187.685 78.972 186.425 77.838 184.481 77.838C182.933 77.838 181.583 78.702 180.935 80.106L182.123 80.592C182.573 79.746 183.275 79.116 184.337 79.116C185.435 79.116 186.155 79.872 186.155 80.988V81.69L184.067 81.942C182.087 82.194 180.683 83.148 180.683 84.804C180.683 86.226 181.817 87.234 183.401 87.234C184.661 87.234 185.651 86.622 186.227 85.668C186.443 86.694 187.109 87.234 188.117 87.234C188.387 87.234 188.603 87.198 188.819 87.144ZM183.815 85.992C182.915 85.992 182.285 85.452 182.285 84.696C182.285 83.778 183.149 83.238 184.337 83.094L186.155 82.878V84.516C185.687 85.38 184.805 85.992 183.815 85.992ZM197.349 84.552C197.349 82.896 195.945 82.212 193.929 81.78C192.417 81.438 191.553 81.168 191.553 80.376C191.553 79.62 192.399 79.098 193.587 79.098C194.829 79.098 195.657 79.62 196.071 80.484L197.295 79.998C196.773 78.9 195.675 77.838 193.605 77.838C191.499 77.838 190.059 78.954 190.059 80.466C190.059 82.014 191.517 82.734 193.497 83.148C195.027 83.472 195.873 83.778 195.873 84.624C195.873 85.434 195.117 85.992 193.803 85.992C192.309 85.992 191.355 85.326 190.905 84.444L189.645 84.93C190.257 86.334 191.697 87.234 193.731 87.234C195.999 87.234 197.349 86.136 197.349 84.552ZM206.261 84.552C206.261 82.896 204.857 82.212 202.841 81.78C201.329 81.438 200.465 81.168 200.465 80.376C200.465 79.62 201.311 79.098 202.499 79.098C203.741 79.098 204.569 79.62 204.983 80.484L206.207 79.998C205.685 78.9 204.587 77.838 202.517 77.838C200.411 77.838 198.971 78.954 198.971 80.466C198.971 82.014 200.429 82.734 202.409 83.148C203.939 83.472 204.785 83.778 204.785 84.624C204.785 85.434 204.029 85.992 202.715 85.992C201.221 85.992 200.267 85.326 199.817 84.444L198.557 84.93C199.169 86.334 200.609 87.234 202.643 87.234C204.911 87.234 206.261 86.136 206.261 84.552ZM216.343 82.554C216.343 79.818 214.525 77.838 212.023 77.838C209.521 77.838 207.685 79.818 207.685 82.554C207.685 85.254 209.521 87.234 212.023 87.234C214.525 87.234 216.343 85.254 216.343 82.554ZM209.305 82.554C209.305 80.574 210.439 79.116 212.023 79.116C213.589 79.116 214.723 80.574 214.723 82.554C214.723 84.498 213.589 85.938 212.023 85.938C210.439 85.938 209.305 84.498 209.305 82.554ZM219.953 86.604V84.606H218.153V86.892H218.999C218.999 87.81 218.693 88.494 218.009 89.232L218.639 89.826C219.521 88.926 219.953 87.846 219.953 86.604ZM92.916 96.328H91.386V109H92.916V96.328ZM103.091 109.144L103.163 107.974C103.055 107.992 102.875 108.01 102.767 108.01C102.227 108.01 101.957 107.632 101.957 107.146V103.042C101.957 100.972 100.697 99.838 98.7526 99.838C97.2046 99.838 95.8546 100.702 95.2066 102.106L96.3946 102.592C96.8446 101.746 97.5466 101.116 98.6086 101.116C99.7066 101.116 100.427 101.872 100.427 102.988V103.69L98.3386 103.942C96.3586 104.194 94.9546 105.148 94.9546 106.804C94.9546 108.226 96.0886 109.234 97.6726 109.234C98.9326 109.234 99.9226 108.622 100.499 107.668C100.715 108.694 101.381 109.234 102.389 109.234C102.659 109.234 102.875 109.198 103.091 109.144ZM98.0866 107.992C97.1866 107.992 96.5566 107.452 96.5566 106.696C96.5566 105.778 97.4206 105.238 98.6086 105.094L100.427 104.878V106.516C99.9586 107.38 99.0766 107.992 98.0866 107.992ZM116.573 98.776V97.354H107.357V98.776H111.137V109H112.793V98.776H116.573ZM118.756 109V103.672C118.9 102.484 119.62 101.368 121.006 101.368C121.312 101.368 121.744 101.422 121.996 101.494V99.982C121.816 99.91 121.384 99.838 121.078 99.838C120.034 99.838 119.062 100.756 118.702 101.89V100.072H117.226V109H118.756ZM130.934 109.144L131.006 107.974C130.898 107.992 130.718 108.01 130.61 108.01C130.07 108.01 129.8 107.632 129.8 107.146V103.042C129.8 100.972 128.54 99.838 126.596 99.838C125.048 99.838 123.698 100.702 123.05 102.106L124.238 102.592C124.688 101.746 125.39 101.116 126.452 101.116C127.55 101.116 128.27 101.872 128.27 102.988V103.69L126.182 103.942C124.202 104.194 122.798 105.148 122.798 106.804C122.798 108.226 123.932 109.234 125.516 109.234C126.776 109.234 127.766 108.622 128.342 107.668C128.558 108.694 129.224 109.234 130.232 109.234C130.502 109.234 130.718 109.198 130.934 109.144ZM125.93 107.992C125.03 107.992 124.4 107.452 124.4 106.696C124.4 105.778 125.264 105.238 126.452 105.094L128.27 104.878V106.516C127.802 107.38 126.92 107.992 125.93 107.992ZM140.148 109V103.096C140.148 101.188 138.816 99.838 137.07 99.838C135.792 99.838 134.712 100.594 134.118 101.44V100.072H132.642V109H134.172V102.52C134.73 101.728 135.702 101.134 136.71 101.134C137.826 101.134 138.618 101.962 138.618 103.204V109H140.148ZM149.642 106.552C149.642 104.896 148.238 104.212 146.222 103.78C144.71 103.438 143.846 103.168 143.846 102.376C143.846 101.62 144.692 101.098 145.88 101.098C147.122 101.098 147.95 101.62 148.364 102.484L149.588 101.998C149.066 100.9 147.968 99.838 145.898 99.838C143.792 99.838 142.352 100.954 142.352 102.466C142.352 104.014 143.81 104.734 145.79 105.148C147.32 105.472 148.166 105.778 148.166 106.624C148.166 107.434 147.41 107.992 146.096 107.992C144.602 107.992 143.648 107.326 143.198 106.444L141.938 106.93C142.55 108.334 143.99 109.234 146.024 109.234C148.292 109.234 149.642 108.136 149.642 106.552ZM153.262 100.072H151.732V109H153.262V100.072ZM153.262 96.526H151.732V98.308H153.262V96.526ZM155.426 101.404H160.232L155.3 107.812V109H162.284V107.668H157.136L162.194 101.26V100.072H155.426V101.404ZM165.83 100.072H164.3V109H165.83V100.072ZM165.83 96.526H164.3V98.308H165.83V96.526ZM176.599 104.554C176.599 101.818 174.781 99.838 172.279 99.838C169.777 99.838 167.941 101.818 167.941 104.554C167.941 107.254 169.777 109.234 172.279 109.234C174.781 109.234 176.599 107.254 176.599 104.554ZM169.561 104.554C169.561 102.574 170.695 101.116 172.279 101.116C173.845 101.116 174.979 102.574 174.979 104.554C174.979 106.498 173.845 107.938 172.279 107.938C170.695 107.938 169.561 106.498 169.561 104.554ZM186.203 109V103.096C186.203 101.188 184.871 99.838 183.125 99.838C181.847 99.838 180.767 100.594 180.173 101.44V100.072H178.697V109H180.227V102.52C180.785 101.728 181.757 101.134 182.765 101.134C183.881 101.134 184.673 101.962 184.673 103.204V109H186.203ZM196.038 106.966L194.814 106.498C194.346 107.416 193.482 107.974 192.51 107.974C191.016 107.974 189.936 106.732 189.828 104.86H196.02C196.074 104.626 196.11 104.14 196.11 103.744C196.11 101.458 194.544 99.838 192.366 99.838C189.99 99.838 188.226 101.854 188.226 104.608C188.226 107.308 189.99 109.234 192.42 109.234C194.022 109.234 195.408 108.388 196.038 106.966ZM192.384 101.08C193.644 101.08 194.526 102.088 194.58 103.636H189.918C190.188 102.088 191.142 101.08 192.384 101.08ZM201.067 100.072L204.289 109H205.873L209.077 100.072H207.529L205.153 107.02H205.099L202.723 100.072H201.067ZM217.87 106.966L216.646 106.498C216.178 107.416 215.314 107.974 214.342 107.974C212.848 107.974 211.768 106.732 211.66 104.86H217.852C217.906 104.626 217.942 104.14 217.942 103.744C217.942 101.458 216.376 99.838 214.198 99.838C211.822 99.838 210.058 101.854 210.058 104.608C210.058 107.308 211.822 109.234 214.252 109.234C215.854 109.234 217.24 108.388 217.87 106.966ZM214.216 101.08C215.476 101.08 216.358 102.088 216.412 103.636H211.75C212.02 102.088 212.974 101.08 214.216 101.08ZM221.623 109V103.672C221.767 102.484 222.487 101.368 223.873 101.368C224.179 101.368 224.611 101.422 224.863 101.494V99.982C224.683 99.91 224.251 99.838 223.945 99.838C222.901 99.838 221.929 100.756 221.569 101.89V100.072H220.093V109H221.623ZM229.932 107.956C228.438 107.956 227.376 106.534 227.376 104.59C227.376 102.592 228.492 101.134 230.04 101.134C230.994 101.134 231.876 101.566 232.344 102.25V106.66C231.822 107.434 230.868 107.956 229.932 107.956ZM233.874 109V96.328H232.344V101.044C231.732 100.324 230.688 99.838 229.716 99.838C227.412 99.838 225.738 101.836 225.738 104.608C225.738 107.29 227.358 109.234 229.59 109.234C230.616 109.234 231.768 108.604 232.434 107.722V109H233.874ZM243.816 106.966L242.592 106.498C242.124 107.416 241.26 107.974 240.288 107.974C238.794 107.974 237.714 106.732 237.606 104.86H243.798C243.852 104.626 243.888 104.14 243.888 103.744C243.888 101.458 242.322 99.838 240.144 99.838C237.768 99.838 236.004 101.854 236.004 104.608C236.004 107.308 237.768 109.234 240.198 109.234C241.8 109.234 243.186 108.388 243.816 106.966ZM240.162 101.08C241.422 101.08 242.304 102.088 242.358 103.636H237.696C237.966 102.088 238.92 101.08 240.162 101.08ZM257.585 109.144L257.657 107.974C257.549 107.992 257.369 108.01 257.261 108.01C256.721 108.01 256.451 107.632 256.451 107.146V103.042C256.451 100.972 255.191 99.838 253.247 99.838C251.699 99.838 250.349 100.702 249.701 102.106L250.889 102.592C251.339 101.746 252.041 101.116 253.103 101.116C254.201 101.116 254.921 101.872 254.921 102.988V103.69L252.833 103.942C250.853 104.194 249.449 105.148 249.449 106.804C249.449 108.226 250.583 109.234 252.167 109.234C253.427 109.234 254.417 108.622 254.993 107.668C255.209 108.694 255.875 109.234 256.883 109.234C257.153 109.234 257.369 109.198 257.585 109.144ZM252.581 107.992C251.681 107.992 251.051 107.452 251.051 106.696C251.051 105.778 251.915 105.238 253.103 105.094L254.921 104.878V106.516C254.453 107.38 253.571 107.992 252.581 107.992ZM263.144 107.956C262.298 107.956 261.362 107.506 260.822 106.858V102.52C261.29 101.8 262.172 101.098 263.216 101.098C264.71 101.098 265.826 102.448 265.826 104.5C265.826 106.534 264.71 107.956 263.144 107.956ZM267.446 104.5C267.446 101.764 265.718 99.838 263.612 99.838C262.244 99.838 261.236 100.666 260.768 101.404V100.072H259.292V112.276H260.822V108.064C261.398 108.766 262.388 109.234 263.45 109.234C265.7 109.234 267.446 107.236 267.446 104.5ZM273.41 107.956C272.564 107.956 271.628 107.506 271.088 106.858V102.52C271.556 101.8 272.438 101.098 273.482 101.098C274.976 101.098 276.092 102.448 276.092 104.5C276.092 106.534 274.976 107.956 273.41 107.956ZM277.712 104.5C277.712 101.764 275.984 99.838 273.878 99.838C272.51 99.838 271.502 100.666 271.034 101.404V100.072H269.558V112.276H271.088V108.064C271.664 108.766 272.654 109.234 273.716 109.234C275.966 109.234 277.712 107.236 277.712 104.5ZM287.222 109.144L287.294 107.974C287.186 107.992 287.006 108.01 286.898 108.01C286.358 108.01 286.088 107.632 286.088 107.146V103.042C286.088 100.972 284.828 99.838 282.884 99.838C281.336 99.838 279.986 100.702 279.338 102.106L280.526 102.592C280.976 101.746 281.678 101.116 282.74 101.116C283.838 101.116 284.558 101.872 284.558 102.988V103.69L282.47 103.942C280.49 104.194 279.086 105.148 279.086 106.804C279.086 108.226 280.22 109.234 281.804 109.234C283.063 109.234 284.054 108.622 284.63 107.668C284.846 108.694 285.512 109.234 286.52 109.234C286.79 109.234 287.006 109.198 287.222 109.144ZM282.218 107.992C281.318 107.992 280.688 107.452 280.688 106.696C280.688 105.778 281.552 105.238 282.74 105.094L284.558 104.878V106.516C284.09 107.38 283.208 107.992 282.218 107.992ZM290.459 109V103.672C290.603 102.484 291.323 101.368 292.709 101.368C293.015 101.368 293.447 101.422 293.699 101.494V99.982C293.519 99.91 293.087 99.838 292.781 99.838C291.737 99.838 290.765 100.756 290.405 101.89V100.072H288.929V109H290.459ZM302.368 106.966L301.144 106.498C300.676 107.416 299.812 107.974 298.84 107.974C297.346 107.974 296.266 106.732 296.158 104.86H302.35C302.404 104.626 302.44 104.14 302.44 103.744C302.44 101.458 300.874 99.838 298.696 99.838C296.32 99.838 294.556 101.854 294.556 104.608C294.556 107.308 296.32 109.234 298.75 109.234C300.352 109.234 301.738 108.388 302.368 106.966ZM298.714 101.08C299.974 101.08 300.856 102.088 300.91 103.636H296.248C296.518 102.088 297.472 101.08 298.714 101.08ZM92.916 118.328H91.386V131H92.916V118.328ZM103.685 126.554C103.685 123.818 101.867 121.838 99.3646 121.838C96.8626 121.838 95.0266 123.818 95.0266 126.554C95.0266 129.254 96.8626 131.234 99.3646 131.234C101.867 131.234 103.685 129.254 103.685 126.554ZM96.6466 126.554C96.6466 124.574 97.7806 123.116 99.3646 123.116C100.931 123.116 102.065 124.574 102.065 126.554C102.065 128.498 100.931 129.938 99.3646 129.938C97.7806 129.938 96.6466 128.498 96.6466 126.554ZM113.288 131V125.096C113.288 123.188 111.956 121.838 110.21 121.838C108.932 121.838 107.852 122.594 107.258 123.44V122.072H105.782V131H107.312V124.52C107.87 123.728 108.842 123.134 109.85 123.134C110.966 123.134 111.758 123.962 111.758 125.204V131H113.288ZM120.931 130.946V129.668C120.553 129.812 119.923 129.92 119.365 129.92C118.231 129.92 117.781 129.362 117.781 128.516V123.332H120.877V122.072H117.781V119.894H116.251V122.072H114.937V123.332H116.251V128.768C116.251 130.334 117.313 131.234 119.095 131.234C119.761 131.234 120.535 131.09 120.931 130.946ZM130.038 131.144L130.11 129.974C130.002 129.992 129.822 130.01 129.714 130.01C129.174 130.01 128.904 129.632 128.904 129.146V125.042C128.904 122.972 127.644 121.838 125.7 121.838C124.152 121.838 122.802 122.702 122.154 124.106L123.342 124.592C123.792 123.746 124.494 123.116 125.556 123.116C126.654 123.116 127.374 123.872 127.374 124.988V125.69L125.286 125.942C123.306 126.194 121.902 127.148 121.902 128.804C121.902 130.226 123.036 131.234 124.62 131.234C125.88 131.234 126.87 130.622 127.446 129.668C127.662 130.694 128.328 131.234 129.336 131.234C129.606 131.234 129.822 131.198 130.038 131.144ZM125.034 129.992C124.134 129.992 123.504 129.452 123.504 128.696C123.504 127.778 124.368 127.238 125.556 127.094L127.374 126.878V128.516C126.906 129.38 126.024 129.992 125.034 129.992ZM139.251 131V125.096C139.251 123.188 137.919 121.838 136.173 121.838C134.895 121.838 133.815 122.594 133.221 123.44V122.072H131.745V131H133.275V124.52C133.833 123.728 134.805 123.134 135.813 123.134C136.929 123.134 137.721 123.962 137.721 125.204V131H139.251ZM149.321 131.144L149.393 129.974C149.285 129.992 149.105 130.01 148.997 130.01C148.457 130.01 148.187 129.632 148.187 129.146V125.042C148.187 122.972 146.927 121.838 144.983 121.838C143.435 121.838 142.085 122.702 141.437 124.106L142.625 124.592C143.075 123.746 143.777 123.116 144.839 123.116C145.937 123.116 146.657 123.872 146.657 124.988V125.69L144.569 125.942C142.589 126.194 141.185 127.148 141.185 128.804C141.185 130.226 142.319 131.234 143.903 131.234C145.163 131.234 146.153 130.622 146.729 129.668C146.945 130.694 147.611 131.234 148.619 131.234C148.889 131.234 149.105 131.198 149.321 131.144ZM144.317 129.992C143.417 129.992 142.787 129.452 142.787 128.696C142.787 127.778 143.651 127.238 144.839 127.094L146.657 126.878V128.516C146.189 129.38 145.307 129.992 144.317 129.992ZM162.341 128.966L161.117 128.498C160.649 129.416 159.785 129.974 158.813 129.974C157.319 129.974 156.239 128.732 156.131 126.86H162.323C162.377 126.626 162.413 126.14 162.413 125.744C162.413 123.458 160.847 121.838 158.669 121.838C156.293 121.838 154.529 123.854 154.529 126.608C154.529 129.308 156.293 131.234 158.723 131.234C160.325 131.234 161.711 130.388 162.341 128.966ZM158.687 123.08C159.947 123.08 160.829 124.088 160.883 125.636H156.221C156.491 124.088 157.445 123.08 158.687 123.08ZM172.07 131V125.096C172.07 123.188 170.738 121.838 168.992 121.838C167.714 121.838 166.634 122.594 166.04 123.44V122.072H164.564V131H166.094V124.52C166.652 123.728 167.624 123.134 168.632 123.134C169.748 123.134 170.54 123.962 170.54 125.204V131H172.07ZM179.712 130.946V129.668C179.334 129.812 178.704 129.92 178.146 129.92C177.012 129.92 176.562 129.362 176.562 128.516V123.332H179.658V122.072H176.562V119.894H175.032V122.072H173.718V123.332H175.032V128.768C175.032 130.334 176.094 131.234 177.876 131.234C178.542 131.234 179.316 131.09 179.712 130.946ZM182.951 131V125.672C183.095 124.484 183.815 123.368 185.201 123.368C185.507 123.368 185.939 123.422 186.191 123.494V121.982C186.011 121.91 185.579 121.838 185.273 121.838C184.229 121.838 183.257 122.756 182.897 123.89V122.072H181.421V131H182.951ZM195.689 126.554C195.689 123.818 193.871 121.838 191.369 121.838C188.867 121.838 187.031 123.818 187.031 126.554C187.031 129.254 188.867 131.234 191.369 131.234C193.871 131.234 195.689 129.254 195.689 126.554ZM188.651 126.554C188.651 124.574 189.785 123.116 191.369 123.116C192.935 123.116 194.069 124.574 194.069 126.554C194.069 128.498 192.935 129.938 191.369 129.938C189.785 129.938 188.651 128.498 188.651 126.554ZM203.465 122.072H201.935V131H203.465V122.072ZM203.465 118.526H201.935V120.308H203.465V118.526ZM215.466 130.946V129.668C215.088 129.812 214.458 129.92 213.9 129.92C212.766 129.92 212.316 129.362 212.316 128.516V123.332H215.412V122.072H212.316V119.894H210.786V122.072H209.472V123.332H210.786V128.768C210.786 130.334 211.848 131.234 213.63 131.234C214.296 131.234 215.07 131.09 215.466 130.946ZM224.251 128.966L223.027 128.498C222.559 129.416 221.695 129.974 220.723 129.974C219.229 129.974 218.149 128.732 218.041 126.86H224.233C224.287 126.626 224.323 126.14 224.323 125.744C224.323 123.458 222.757 121.838 220.579 121.838C218.203 121.838 216.439 123.854 216.439 126.608C216.439 129.308 218.203 131.234 220.633 131.234C222.235 131.234 223.621 130.388 224.251 128.966ZM220.597 123.08C221.857 123.08 222.739 124.088 222.793 125.636H218.131C218.401 124.088 219.355 123.08 220.597 123.08ZM239.002 131V125.096C239.002 123.188 237.706 121.838 236.032 121.838C234.844 121.838 233.8 122.558 233.17 123.512C232.684 122.486 231.748 121.838 230.65 121.838C229.462 121.838 228.472 122.594 227.95 123.44V122.072H226.474V131H228.004V124.484C228.508 123.728 229.372 123.134 230.254 123.134C231.244 123.134 231.964 123.962 231.964 125.204V131H233.494V125.096C233.494 124.826 233.476 124.574 233.422 124.322C233.962 123.638 234.826 123.134 235.69 123.134C236.716 123.134 237.472 123.962 237.472 125.204V131H239.002ZM245.496 129.956C244.65 129.956 243.714 129.506 243.174 128.858V124.52C243.642 123.8 244.524 123.098 245.568 123.098C247.062 123.098 248.178 124.448 248.178 126.5C248.178 128.534 247.062 129.956 245.496 129.956ZM249.798 126.5C249.798 123.764 248.07 121.838 245.964 121.838C244.596 121.838 243.588 122.666 243.12 123.404V122.072H241.644V134.276H243.174V130.064C243.75 130.766 244.74 131.234 245.802 131.234C248.052 131.234 249.798 129.236 249.798 126.5ZM253.439 122.072H251.909V131H253.439V122.072ZM253.439 118.526H251.909V120.308H253.439V118.526ZM264.217 129.956C263.371 129.956 262.435 129.506 261.895 128.858V124.52C262.363 123.8 263.245 123.098 264.289 123.098C265.783 123.098 266.899 124.448 266.899 126.5C266.899 128.534 265.783 129.956 264.217 129.956ZM268.519 126.5C268.519 123.764 266.791 121.838 264.685 121.838C263.317 121.838 262.309 122.666 261.841 123.404V122.072H260.365V134.276H261.895V130.064C262.471 130.766 263.461 131.234 264.523 131.234C266.773 131.234 268.519 129.236 268.519 126.5ZM272.16 131V125.672C272.304 124.484 273.024 123.368 274.41 123.368C274.716 123.368 275.148 123.422 275.4 123.494V121.982C275.22 121.91 274.788 121.838 274.482 121.838C273.438 121.838 272.466 122.756 272.106 123.89V122.072H270.63V131H272.16ZM284.07 128.966L282.846 128.498C282.378 129.416 281.514 129.974 280.542 129.974C279.048 129.974 277.968 128.732 277.86 126.86H284.052C284.106 126.626 284.142 126.14 284.142 125.744C284.142 123.458 282.576 121.838 280.398 121.838C278.022 121.838 276.258 123.854 276.258 126.608C276.258 129.308 278.022 131.234 280.452 131.234C282.054 131.234 283.44 130.388 284.07 128.966ZM280.416 123.08C281.676 123.08 282.558 124.088 282.612 125.636H277.95C278.22 124.088 279.174 123.08 280.416 123.08ZM285.179 122.072L288.401 131H289.985L293.189 122.072H291.641L289.265 129.02H289.211L286.835 122.072H285.179ZM296.506 122.072H294.976V131H296.506V122.072ZM296.506 118.526H294.976V120.308H296.506V118.526ZM306.104 128.552C306.104 126.896 304.7 126.212 302.684 125.78C301.172 125.438 300.308 125.168 300.308 124.376C300.308 123.62 301.154 123.098 302.342 123.098C303.584 123.098 304.412 123.62 304.826 124.484L306.05 123.998C305.528 122.9 304.43 121.838 302.36 121.838C300.254 121.838 298.814 122.954 298.814 124.466C298.814 126.014 300.272 126.734 302.252 127.148C303.782 127.472 304.628 127.778 304.628 128.624C304.628 129.434 303.872 129.992 302.558 129.992C301.064 129.992 300.11 129.326 299.66 128.444L298.4 128.93C299.012 130.334 300.452 131.234 302.486 131.234C304.754 131.234 306.104 130.136 306.104 128.552ZM313.2 130.946V129.668C312.822 129.812 312.192 129.92 311.634 129.92C310.5 129.92 310.05 129.362 310.05 128.516V123.332H313.146V122.072H310.05V119.894H308.52V122.072H307.206V123.332H308.52V128.768C308.52 130.334 309.582 131.234 311.364 131.234C312.03 131.234 312.804 131.09 313.2 130.946ZM316.439 122.072H314.909V131H316.439V122.072ZM316.439 118.526H314.909V120.308H316.439V118.526Z" fill="white"/>
<path opacity="0.15" d="M458 59L458 147" stroke="white"/>
<path opacity="0.6" d="M481.254 108V102.072L483.57 105.072H484.098L486.342 102V108H487.41V100.236H486.39L483.858 103.764L481.206 100.236H480.222V108H481.254ZM494.664 105.036C494.664 103.212 493.452 101.892 491.784 101.892C490.116 101.892 488.892 103.212 488.892 105.036C488.892 106.836 490.116 108.156 491.784 108.156C493.452 108.156 494.664 106.836 494.664 105.036ZM489.972 105.036C489.972 103.716 490.728 102.744 491.784 102.744C492.828 102.744 493.584 103.716 493.584 105.036C493.584 106.332 492.828 107.292 491.784 107.292C490.728 107.292 489.972 106.332 489.972 105.036ZM500.61 106.368C500.61 105.264 499.674 104.808 498.33 104.52C497.322 104.292 496.746 104.112 496.746 103.584C496.746 103.08 497.31 102.732 498.102 102.732C498.93 102.732 499.482 103.08 499.758 103.656L500.574 103.332C500.226 102.6 499.494 101.892 498.114 101.892C496.71 101.892 495.75 102.636 495.75 103.644C495.75 104.676 496.722 105.156 498.042 105.432C499.062 105.648 499.626 105.852 499.626 106.416C499.626 106.956 499.122 107.328 498.246 107.328C497.25 107.328 496.614 106.884 496.314 106.296L495.474 106.62C495.882 107.556 496.842 108.156 498.198 108.156C499.71 108.156 500.61 107.424 500.61 106.368ZM505.341 107.964V107.112C505.089 107.208 504.669 107.28 504.297 107.28C503.541 107.28 503.241 106.908 503.241 106.344V102.888H505.305V102.048H503.241V100.596H502.221V102.048H501.345V102.888H502.221V106.512C502.221 107.556 502.929 108.156 504.117 108.156C504.561 108.156 505.077 108.06 505.341 107.964ZM507.5 108V104.448C507.596 103.656 508.076 102.912 509 102.912C509.204 102.912 509.492 102.948 509.66 102.996V101.988C509.54 101.94 509.252 101.892 509.048 101.892C508.352 101.892 507.704 102.504 507.464 103.26V102.048H506.48V108H507.5ZM515.619 108.096L515.667 107.316C515.595 107.328 515.475 107.34 515.403 107.34C515.043 107.34 514.863 107.088 514.863 106.764V104.028C514.863 102.648 514.023 101.892 512.727 101.892C511.695 101.892 510.795 102.468 510.363 103.404L511.155 103.728C511.455 103.164 511.923 102.744 512.631 102.744C513.363 102.744 513.843 103.248 513.843 103.992V104.46L512.451 104.628C511.131 104.796 510.195 105.432 510.195 106.536C510.195 107.484 510.951 108.156 512.007 108.156C512.847 108.156 513.507 107.748 513.891 107.112C514.035 107.796 514.479 108.156 515.151 108.156C515.331 108.156 515.475 108.132 515.619 108.096ZM512.283 107.328C511.683 107.328 511.263 106.968 511.263 106.464C511.263 105.852 511.839 105.492 512.631 105.396L513.843 105.252V106.344C513.531 106.92 512.943 107.328 512.283 107.328Z" fill="white"/>
<defs>
<filter id="filter0_d_1084_1097" x="0" y="0" width="604" height="214" filterUnits="userSpaceOnUse" color-interpolation-filters="sRGB">
<feFlood flood-opacity="0" result="BackgroundImageFix"/>
<feColorMatrix in="SourceAlpha" type="matrix" values="0 0 0 0 0 0 0 0 0 0 0 0 0 0 0 0 0 0 127 0" result="hardAlpha"/>
<feOffset dy="4"/>
<feGaussianBlur stdDeviation="31.5"/>
<feComposite in2="hardAlpha" operator="out"/>
<feColorMatrix type="matrix" values="0 0 0 0 0 0 0 0 0 0 0 0 0 0 0 0 0 0 0.6 0"/>
<feBlend mode="normal" in2="BackgroundImageFix" result="effect1_dropShadow_1084_1097"/>
<feBlend mode="normal" in="SourceGraphic" in2="effect1_dropShadow_1084_1097" result="shape"/>
</filter>
</defs>
</svg>
