<svg width="478" height="46" viewBox="0 0 478 46" fill="none" xmlns="http://www.w3.org/2000/svg">
<rect x="0.5" y="0.5" width="477" height="45" rx="3.5" stroke="white"/>
<path d="M29.816 29V21.336L35.448 29H36.696V18.648H35.288V26.376L29.672 18.648H28.408V29H29.816ZM45.9174 29.128L45.9814 28.088C45.8854 28.104 45.7254 28.12 45.6294 28.12C45.1494 28.12 44.9094 27.784 44.9094 27.352V23.704C44.9094 21.864 43.7894 20.856 42.0614 20.856C40.6854 20.856 39.4854 21.624 38.9094 22.872L39.9654 23.304C40.3654 22.552 40.9894 21.992 41.9334 21.992C42.9094 21.992 43.5494 22.664 43.5494 23.656V24.28L41.6934 24.504C39.9334 24.728 38.6854 25.576 38.6854 27.048C38.6854 28.312 39.6934 29.208 41.1014 29.208C42.2214 29.208 43.1014 28.664 43.6134 27.816C43.8054 28.728 44.3974 29.208 45.2934 29.208C45.5334 29.208 45.7254 29.176 45.9174 29.128ZM41.4694 28.104C40.6694 28.104 40.1094 27.624 40.1094 26.952C40.1094 26.136 40.8774 25.656 41.9334 25.528L43.5494 25.336V26.792C43.1334 27.56 42.3494 28.104 41.4694 28.104ZM46.3673 21.064L49.2313 29H50.6393L53.4873 21.064H52.1113L49.9993 27.24H49.9513L47.8393 21.064H46.3673ZM56.4358 21.064H55.0758V29H56.4358V21.064ZM56.4358 17.912H55.0758V19.496H56.4358V17.912ZM65.7839 29.528C65.7839 28.376 64.9359 27.768 63.1279 27.608L62.0079 27.512C60.8879 27.416 60.4879 27.224 60.4879 26.984C60.4879 26.792 60.6639 26.52 60.8239 26.344C61.0959 26.408 61.3999 26.44 61.6879 26.44C63.4159 26.44 64.8239 25.32 64.8239 23.768C64.8239 23.192 64.6479 22.648 64.3119 22.184C64.7439 21.96 65.4319 21.768 66.0719 21.768V20.552C65.0959 20.552 64.3279 21.016 63.8479 21.672C63.2719 21.176 62.4879 20.856 61.5919 20.856C59.8159 20.856 58.4239 22.072 58.4239 23.672C58.4239 24.808 59.1279 25.672 60.1199 26.12C59.6079 26.472 59.1759 27.016 59.1759 27.384C59.1759 27.704 59.3999 27.976 59.7999 28.184C58.8079 28.6 58.0879 29.32 58.0879 30.04C58.0879 31.352 59.5439 32.12 61.7679 32.12C64.2319 32.12 65.7839 31.032 65.7839 29.528ZM61.7839 31.08C60.2959 31.08 59.4479 30.536 59.4479 29.832C59.4479 29.288 59.9439 28.76 60.6159 28.472C60.9359 28.552 61.3039 28.616 61.7199 28.648L62.8399 28.744C64.1199 28.856 64.4399 29.16 64.4399 29.736C64.4399 30.488 63.3999 31.08 61.7839 31.08ZM59.7839 23.688C59.7839 22.68 60.5519 21.896 61.6079 21.896C62.6639 21.896 63.4639 22.68 63.4639 23.688C63.4639 24.68 62.6639 25.4 61.6079 25.4C60.5519 25.4 59.7839 24.68 59.7839 23.688ZM74.0736 29.128L74.1376 28.088C74.0416 28.104 73.8816 28.12 73.7856 28.12C73.3056 28.12 73.0656 27.784 73.0656 27.352V23.704C73.0656 21.864 71.9456 20.856 70.2176 20.856C68.8416 20.856 67.6416 21.624 67.0656 22.872L68.1216 23.304C68.5216 22.552 69.1456 21.992 70.0896 21.992C71.0656 21.992 71.7056 22.664 71.7056 23.656V24.28L69.8496 24.504C68.0896 24.728 66.8416 25.576 66.8416 27.048C66.8416 28.312 67.8496 29.208 69.2576 29.208C70.3776 29.208 71.2576 28.664 71.7696 27.816C71.9616 28.728 72.5536 29.208 73.4496 29.208C73.6896 29.208 73.8816 29.176 74.0736 29.128ZM69.6256 28.104C68.8256 28.104 68.2656 27.624 68.2656 26.952C68.2656 26.136 69.0336 25.656 70.0896 25.528L71.7056 25.336V26.792C71.2896 27.56 70.5056 28.104 69.6256 28.104ZM83.7909 28.952V27.816C83.4549 27.944 82.8949 28.04 82.3989 28.04C81.3909 28.04 80.9909 27.544 80.9909 26.792V22.184H83.7429V21.064H80.9909V19.128H79.6309V21.064H78.4629V22.184H79.6309V27.016C79.6309 28.408 80.5749 29.208 82.1589 29.208C82.7509 29.208 83.4389 29.08 83.7909 28.952ZM86.6701 29V24.264C86.7981 23.208 87.4381 22.216 88.6701 22.216C88.9421 22.216 89.3261 22.264 89.5501 22.328V20.984C89.3901 20.92 89.0061 20.856 88.7341 20.856C87.8061 20.856 86.9421 21.672 86.6221 22.68V21.064H85.3101V29H86.6701ZM97.4955 29.128L97.5595 28.088C97.4635 28.104 97.3035 28.12 97.2075 28.12C96.7275 28.12 96.4875 27.784 96.4875 27.352V23.704C96.4875 21.864 95.3675 20.856 93.6395 20.856C92.2635 20.856 91.0635 21.624 90.4875 22.872L91.5435 23.304C91.9435 22.552 92.5675 21.992 93.5115 21.992C94.4875 21.992 95.1275 22.664 95.1275 23.656V24.28L93.2715 24.504C91.5115 24.728 90.2635 25.576 90.2635 27.048C90.2635 28.312 91.2715 29.208 92.6795 29.208C93.7995 29.208 94.6795 28.664 95.1915 27.816C95.3835 28.728 95.9755 29.208 96.8715 29.208C97.1115 29.208 97.3035 29.176 97.4955 29.128ZM93.0475 28.104C92.2475 28.104 91.6875 27.624 91.6875 26.952C91.6875 26.136 92.4555 25.656 93.5115 25.528L95.1275 25.336V26.792C94.7115 27.56 93.9275 28.104 93.0475 28.104ZM104.061 17.736H102.701V29H104.061V17.736ZM112.897 27.192L111.809 26.776C111.393 27.592 110.625 28.088 109.761 28.088C108.433 28.088 107.473 26.984 107.377 25.32H112.881C112.929 25.112 112.961 24.68 112.961 24.328C112.961 22.296 111.569 20.856 109.633 20.856C107.521 20.856 105.953 22.648 105.953 25.096C105.953 27.496 107.521 29.208 109.681 29.208C111.105 29.208 112.337 28.456 112.897 27.192ZM109.649 21.96C110.769 21.96 111.553 22.856 111.601 24.232H107.457C107.697 22.856 108.545 21.96 109.649 21.96ZM123.216 22.184V21.064H120.32V20.744C120.32 19.432 120.976 18.664 122.032 18.664C122.464 18.664 122.992 18.744 123.344 18.888L123.376 17.752C123.008 17.64 122.368 17.528 121.888 17.528C120.064 17.528 118.96 18.728 118.96 20.76V21.064H117.936V22.184H118.96V29H120.32V22.184H123.216ZM131.32 25.048C131.32 22.616 129.704 20.856 127.48 20.856C125.256 20.856 123.624 22.616 123.624 25.048C123.624 27.448 125.256 29.208 127.48 29.208C129.704 29.208 131.32 27.448 131.32 25.048ZM125.064 25.048C125.064 23.288 126.072 21.992 127.48 21.992C128.872 21.992 129.88 23.288 129.88 25.048C129.88 26.776 128.872 28.056 127.48 28.056C126.072 28.056 125.064 26.776 125.064 25.048ZM139.857 29V23.752C139.857 22.056 138.673 20.856 137.121 20.856C135.985 20.856 135.025 21.528 134.497 22.28V21.064H133.185V29H134.545V23.24C135.041 22.536 135.905 22.008 136.801 22.008C137.793 22.008 138.497 22.744 138.497 23.848V29H139.857ZM146.65 28.952V27.816C146.314 27.944 145.754 28.04 145.258 28.04C144.25 28.04 143.85 27.544 143.85 26.792V22.184H146.602V21.064H143.85V19.128H142.49V21.064H141.322V22.184H142.49V27.016C142.49 28.408 143.434 29.208 145.018 29.208C145.61 29.208 146.298 29.08 146.65 28.952ZM149.53 21.064H148.17V29H149.53V21.064ZM149.53 17.912H148.17V19.496H149.53V17.912ZM162.053 27.192L160.965 26.776C160.549 27.592 159.781 28.088 158.917 28.088C157.589 28.088 156.629 26.984 156.533 25.32H162.037C162.085 25.112 162.117 24.68 162.117 24.328C162.117 22.296 160.725 20.856 158.789 20.856C156.677 20.856 155.109 22.648 155.109 25.096C155.109 27.496 156.677 29.208 158.837 29.208C160.261 29.208 161.493 28.456 162.053 27.192ZM158.805 21.96C159.925 21.96 160.709 22.856 160.757 24.232H156.613C156.853 22.856 157.701 21.96 158.805 21.96ZM170.701 29V23.752C170.701 22.056 169.517 20.856 167.965 20.856C166.829 20.856 165.869 21.528 165.341 22.28V21.064H164.029V29H165.389V23.24C165.885 22.536 166.749 22.008 167.645 22.008C168.637 22.008 169.341 22.744 169.341 23.848V29H170.701ZM179.444 27.192L178.356 26.776C177.94 27.592 177.172 28.088 176.308 28.088C174.98 28.088 174.02 26.984 173.924 25.32H179.428C179.476 25.112 179.508 24.68 179.508 24.328C179.508 22.296 178.116 20.856 176.18 20.856C174.068 20.856 172.5 22.648 172.5 25.096C172.5 27.496 174.068 29.208 176.228 29.208C177.652 29.208 178.884 28.456 179.444 27.192ZM176.196 21.96C177.316 21.96 178.1 22.856 178.148 24.232H174.004C174.244 22.856 175.092 21.96 176.196 21.96ZM182.78 29V24.264C182.908 23.208 183.548 22.216 184.78 22.216C185.052 22.216 185.436 22.264 185.66 22.328V20.984C185.5 20.92 185.116 20.856 184.844 20.856C183.916 20.856 183.052 21.672 182.732 22.68V21.064H181.42V29H182.78ZM193.956 29.528C193.956 28.376 193.108 27.768 191.3 27.608L190.18 27.512C189.06 27.416 188.66 27.224 188.66 26.984C188.66 26.792 188.836 26.52 188.996 26.344C189.268 26.408 189.572 26.44 189.86 26.44C191.588 26.44 192.996 25.32 192.996 23.768C192.996 23.192 192.82 22.648 192.484 22.184C192.916 21.96 193.604 21.768 194.244 21.768V20.552C193.268 20.552 192.5 21.016 192.02 21.672C191.444 21.176 190.66 20.856 189.764 20.856C187.988 20.856 186.596 22.072 186.596 23.672C186.596 24.808 187.3 25.672 188.292 26.12C187.78 26.472 187.348 27.016 187.348 27.384C187.348 27.704 187.572 27.976 187.972 28.184C186.98 28.6 186.26 29.32 186.26 30.04C186.26 31.352 187.716 32.12 189.94 32.12C192.404 32.12 193.956 31.032 193.956 29.528ZM189.956 31.08C188.468 31.08 187.62 30.536 187.62 29.832C187.62 29.288 188.116 28.76 188.788 28.472C189.108 28.552 189.476 28.616 189.892 28.648L191.012 28.744C192.292 28.856 192.612 29.16 192.612 29.736C192.612 30.488 191.572 31.08 189.956 31.08ZM187.956 23.688C187.956 22.68 188.724 21.896 189.78 21.896C190.836 21.896 191.636 22.68 191.636 23.688C191.636 24.68 190.836 25.4 189.78 25.4C188.724 25.4 187.956 24.68 187.956 23.688ZM201.913 27.192L200.825 26.776C200.409 27.592 199.641 28.088 198.777 28.088C197.449 28.088 196.489 26.984 196.393 25.32H201.897C201.945 25.112 201.977 24.68 201.977 24.328C201.977 22.296 200.585 20.856 198.649 20.856C196.537 20.856 194.969 22.648 194.969 25.096C194.969 27.496 196.537 29.208 198.697 29.208C200.121 29.208 201.353 28.456 201.913 27.192ZM198.665 21.96C199.785 21.96 200.569 22.856 200.617 24.232H196.473C196.713 22.856 197.561 21.96 198.665 21.96ZM208.322 28.952V27.816C207.986 27.944 207.426 28.04 206.93 28.04C205.922 28.04 205.522 27.544 205.522 26.792V22.184H208.274V21.064H205.522V19.128H204.162V21.064H202.994V22.184H204.162V27.016C204.162 28.408 205.106 29.208 206.69 29.208C207.282 29.208 207.97 29.08 208.322 28.952ZM211.201 21.064H209.841V29H211.201V21.064ZM211.201 17.912H209.841V19.496H211.201V17.912ZM219.83 27.048L218.678 26.6C218.294 27.48 217.654 28.04 216.774 28.04C215.478 28.04 214.534 26.808 214.534 25.096C214.534 23.304 215.446 22.008 216.71 22.008C217.51 22.008 218.198 22.504 218.582 23.432L219.766 22.952C219.206 21.672 218.134 20.856 216.678 20.856C214.598 20.856 213.094 22.632 213.094 25.096C213.094 27.48 214.614 29.208 216.726 29.208C218.182 29.208 219.318 28.296 219.83 27.048ZM228.154 29V23.768C228.154 22.056 226.97 20.856 225.418 20.856C224.314 20.856 223.37 21.48 222.842 22.216V17.736H221.482V29H222.842V23.24C223.338 22.536 224.202 22.008 225.098 22.008C226.09 22.008 226.794 22.744 226.794 23.848V29H228.154ZM236.897 27.192L235.809 26.776C235.393 27.592 234.625 28.088 233.761 28.088C232.433 28.088 231.473 26.984 231.377 25.32H236.881C236.929 25.112 236.961 24.68 236.961 24.328C236.961 22.296 235.569 20.856 233.633 20.856C231.521 20.856 229.953 22.648 229.953 25.096C229.953 27.496 231.521 29.208 233.681 29.208C235.105 29.208 236.337 28.456 236.897 27.192ZM233.649 21.96C234.769 21.96 235.553 22.856 235.601 24.232H231.457C231.697 22.856 232.545 21.96 233.649 21.96Z" fill="white"/>
<circle cx="448" cy="21" r="6" stroke="white" stroke-width="2"/>
<path d="M452 26L459 33" stroke="white" stroke-width="2" stroke-linecap="round"/>
</svg>
