<?xml version="1.0" encoding="utf-8"?>
<!-- Generator: Adobe Illustrator 23.1.1, SVG Export Plug-In . SVG Version: 6.00 Build 0)  -->
<svg version="1.1" id="Livello_1" xmlns="http://www.w3.org/2000/svg" xmlns:xlink="http://www.w3.org/1999/xlink" x="0px" y="0px"
	 viewBox="0 0 271.7 66.8" style="enable-background:new 0 0 271.7 66.8;" xml:space="preserve">
<style type="text/css">
	.st0{fill:#FFFFFF;}
</style>
<g>
	<path class="st0" d="M162.2,28.4c1.3,0.7,2.8,1,4.5,1c1.7,0,3.2-0.3,4.5-1s2.3-1.6,3-2.8c0.7-1.2,1-2.5,1-4V7.2h-2.6v14.2
		c0,1.1-0.2,2-0.7,2.8s-1.1,1.5-2,1.9c-0.9,0.5-1.9,0.7-3.1,0.7c-1.2,0-2.3-0.2-3.1-0.7c-0.9-0.5-1.5-1.1-2-1.9s-0.7-1.8-0.7-2.8
		V7.2h-2.6v14.4c0,1.5,0.3,2.8,1,4C159.9,26.9,160.9,27.8,162.2,28.4z"/>
	<polygon class="st0" points="197.7,7.2 195.1,7.2 195.1,24.4 194.9,24.4 183,7.2 180.4,7.2 180.4,29.1 183.1,29.1 183.1,11.9 
		183.3,11.9 195.2,29.1 197.7,29.1 	"/>
	<rect x="203" y="7.2" class="st0" width="2.6" height="21.8"/>
	<path class="st0" d="M221.6,20.1c0.3-0.1,0.6-0.2,0.9-0.4c1.1-0.6,1.9-1.3,2.4-2.3s0.8-2.1,0.8-3.4c0-1.3-0.3-2.4-0.8-3.4
		c-0.5-1-1.3-1.8-2.4-2.4c-1.1-0.6-2.5-0.9-4.2-0.9h-7.4v21.8h2.6v-8.5h4.8c0.2,0,0.4,0,0.5,0l4.6,8.5h3.1L221.6,20.1z M213.6,9.6
		h4.6c1.2,0,2.1,0.2,2.8,0.5c0.7,0.4,1.2,0.9,1.6,1.5c0.3,0.7,0.5,1.4,0.5,2.3c0,0.9-0.2,1.6-0.5,2.3c-0.3,0.6-0.8,1.1-1.6,1.5
		c-0.7,0.3-1.7,0.5-2.8,0.5h-4.7V9.6z"/>
	<path class="st0" d="M242.7,18.8c-0.6-0.5-1.3-0.8-2-1.1s-1.3-0.5-1.9-0.6l-2.2-0.6c-0.4-0.1-0.8-0.2-1.3-0.4
		c-0.5-0.2-0.9-0.4-1.4-0.7s-0.8-0.6-1.1-1c-0.3-0.4-0.4-0.9-0.4-1.5c0-0.7,0.2-1.3,0.6-1.9s1-1,1.7-1.3s1.6-0.5,2.5-0.5
		c1.3,0,2.4,0.3,3.3,0.9s1.4,1.4,1.6,2.5h2.6c0-1.1-0.4-2.1-1-3s-1.5-1.5-2.6-2.1s-2.3-0.8-3.8-0.8c-1.4,0-2.7,0.3-3.8,0.8
		c-1.1,0.5-2,1.2-2.7,2.1c-0.7,0.9-1,2-1,3.2c0,1.5,0.5,2.7,1.5,3.6c1,0.9,2.3,1.6,4,2.1l2.7,0.8c0.8,0.2,1.5,0.5,2.1,0.7
		c0.7,0.3,1.2,0.7,1.6,1.1c0.4,0.5,0.6,1,0.6,1.8c0,0.8-0.2,1.5-0.7,2.1c-0.5,0.6-1.1,1.1-1.9,1.4c-0.8,0.3-1.7,0.5-2.7,0.5
		c-0.9,0-1.7-0.1-2.4-0.4s-1.4-0.7-1.9-1.2s-0.8-1.2-0.8-2h-2.7c0.1,1.2,0.5,2.2,1.1,3.1c0.6,0.9,1.5,1.6,2.7,2.1s2.5,0.8,4.1,0.8
		c1.7,0,3.1-0.3,4.3-0.8c1.2-0.6,2.1-1.3,2.7-2.3c0.6-1,0.9-2,0.9-3.2c0-1-0.2-1.9-0.6-2.6S243.3,19.3,242.7,18.8z"/>
	<polygon class="st0" points="267.5,7.2 260.1,25.4 259.8,25.4 252.4,7.2 249.2,7.2 249.2,29.1 251.7,29.1 251.7,12.5 251.9,12.5 
		258.7,29.1 261.1,29.1 267.9,12.5 268.2,12.5 268.2,29.1 270.6,29.1 270.6,7.2 	"/>
	<path class="st0" d="M170.6,39.6c-1.5-0.9-3.3-1.3-5.4-1.3h-7v21.8h6.7c2.2,0,4.1-0.4,5.6-1.3c1.5-0.9,2.7-2.1,3.5-3.8
		s1.2-3.6,1.2-5.9c0-2.3-0.4-4.2-1.2-5.8S172.1,40.4,170.6,39.6z M171.9,53.7c-0.6,1.3-1.5,2.3-2.7,3c-1.2,0.7-2.7,1-4.5,1h-3.9
		V40.6h4.2c1.7,0,3.1,0.3,4.3,1s2,1.7,2.6,2.9c0.6,1.3,0.9,2.8,0.9,4.6C172.7,50.9,172.5,52.4,171.9,53.7z"/>
	<polygon class="st0" points="182.4,50.3 192.2,50.3 192.2,48 182.4,48 182.4,40.6 192.9,40.6 192.9,38.2 179.7,38.2 179.7,60.1 
		193.1,60.1 193.1,57.7 182.4,57.7 	"/>
	<path class="st0" d="M210.2,49.8c-0.6-0.5-1.3-0.8-2-1.1s-1.3-0.5-1.9-0.6l-2.2-0.6c-0.4-0.1-0.8-0.2-1.3-0.4s-0.9-0.4-1.4-0.7
		s-0.8-0.6-1.1-1c-0.3-0.4-0.4-0.9-0.4-1.5c0-0.7,0.2-1.3,0.6-1.9s1-1,1.7-1.3s1.6-0.5,2.5-0.5c1.3,0,2.4,0.3,3.3,0.9
		s1.4,1.4,1.6,2.5h2.6c0-1.1-0.4-2.1-1-3s-1.5-1.5-2.6-2.1s-2.3-0.8-3.8-0.8c-1.4,0-2.7,0.3-3.8,0.8c-1.1,0.5-2,1.2-2.7,2.1
		c-0.7,0.9-1,2-1,3.2c0,1.5,0.5,2.7,1.5,3.6s2.3,1.6,4,2.1l2.7,0.8c0.8,0.2,1.5,0.5,2.1,0.7c0.7,0.3,1.2,0.7,1.6,1.1
		c0.4,0.5,0.6,1,0.6,1.8c0,0.8-0.2,1.5-0.7,2.1c-0.5,0.6-1.1,1.1-1.9,1.4c-0.8,0.3-1.7,0.5-2.7,0.5c-0.9,0-1.7-0.1-2.4-0.4
		s-1.4-0.7-1.9-1.2s-0.8-1.2-0.8-2h-2.7c0.1,1.2,0.5,2.2,1.1,3.1c0.6,0.9,1.5,1.6,2.7,2.1s2.5,0.8,4.1,0.8c1.7,0,3.1-0.3,4.3-0.8
		c1.2-0.6,2.1-1.3,2.7-2.3c0.6-1,0.9-2,0.9-3.2c0-1-0.2-1.9-0.6-2.6S210.9,50.3,210.2,49.8z"/>
	<rect x="216.8" y="38.2" class="st0" width="2.6" height="21.8"/>
	<path class="st0" d="M234.2,51.5h5.7c0,1.3-0.3,2.4-0.8,3.3c-0.5,1-1.3,1.7-2.2,2.3s-2.1,0.8-3.3,0.8c-1.3,0-2.6-0.3-3.6-1
		c-1.1-0.7-1.9-1.7-2.6-3s-0.9-2.9-0.9-4.8c0-1.9,0.3-3.5,0.9-4.8s1.5-2.3,2.5-3c1.1-0.7,2.2-1,3.5-1c0.8,0,1.5,0.1,2.2,0.3
		s1.3,0.5,1.8,0.9c0.5,0.4,1,0.9,1.4,1.5c0.4,0.6,0.7,1.2,0.9,1.9h2.7c-0.2-1.1-0.6-2-1.1-2.9c-0.5-0.9-1.2-1.6-2-2.2
		c-0.8-0.6-1.7-1.1-2.7-1.5c-1-0.3-2.1-0.5-3.2-0.5c-1.4,0-2.7,0.3-3.8,0.8s-2.2,1.3-3,2.2s-1.5,2.2-2,3.5c-0.5,1.4-0.7,2.9-0.7,4.7
		c0,2.3,0.4,4.3,1.2,6c0.8,1.7,1.9,3,3.4,3.9s3.2,1.4,5.1,1.4c1.7,0,3.3-0.4,4.6-1.1c1.3-0.7,2.4-1.8,3.2-3.1s1.1-2.9,1.1-4.7v-2.3
		h-8.3V51.5z"/>
	<polygon class="st0" points="261.7,55.4 261.5,55.4 249.6,38.2 247,38.2 247,60.1 249.7,60.1 249.7,42.9 249.9,42.9 261.8,60.1 
		264.3,60.1 264.3,38.2 261.7,38.2 	"/>
</g>
<g id="Group_1567" transform="translate(0 56.157)">
	<g>
		<g id="Group_825" transform="translate(0 -55.522)">
			<g id="Group_823" transform="translate(0 0)">
				<path id="Path_482" class="st0" d="M0.5,32.8c0,18.1,14.6,32.7,32.7,32.7s32.7-14.6,32.7-32.7V0.1H0.5V32.8z"/>
			</g>
			<g id="Group_824" transform="translate(79.591)">
				<path id="Path_483" class="st0" d="M33.2,65.5c18.1,0,32.7-14.6,32.7-32.7l0,0c0-18.1-14.6-32.7-32.7-32.7l0,0H0.5v65.4H33.2z"
					/>
			</g>
		</g>
	</g>
</g>
</svg>
