<svg width="414" height="552" viewBox="0 0 414 552" fill="none" xmlns="http://www.w3.org/2000/svg">
<g filter="url(#filter0_d_1098_1099)">
<path d="M65 66C65 63.2386 67.2386 61 70 61L344 61C346.761 61 349 63.2386 349 66L349 478C349 480.761 346.761 483 344 483L70 483C67.2386 483 65 480.761 65 478L65 66Z" fill="#1767D2"/>
<path d="M65 66C65 63.2386 67.2386 61 70 61L344 61C346.761 61 349 63.2386 349 66L349 478C349 480.761 346.761 483 344 483L70 483C67.2386 483 65 480.761 65 478L65 66Z" stroke="#1767D2" stroke-width="3"/>
</g>
<path d="M95.09 106.23C90.74 106.23 87.23 108.84 87.23 112.65C87.23 115.74 89.72 117.36 93.77 118.44C96.86 119.25 98.09 119.67 98.09 120.69C98.09 121.74 97.01 122.37 95.39 122.37C93.05 122.37 91.46 121.23 90.59 119.73L86.66 121.65C88.28 124.59 91.13 126.42 95.45 126.42C100.1 126.42 103.28 123.78 103.28 120.06C103.28 116.64 100.46 115.14 96.41 114.09C93.47 113.34 92.45 112.89 92.45 111.99C92.45 111 93.62 110.31 95.18 110.31C96.86 110.31 98.42 111.24 99.38 112.83L103.31 110.85C101.72 108.03 98.93 106.23 95.09 106.23ZM113.221 122.55C112.411 122.55 111.541 122.19 110.911 121.65V115.62C111.511 114.96 112.411 114.45 113.341 114.45C115.051 114.45 116.281 116.07 116.281 118.44C116.281 120.84 115.021 122.55 113.221 122.55ZM121.441 118.47C121.441 113.88 118.771 110.55 115.201 110.55C113.311 110.55 111.631 111.57 110.761 112.95V111H105.961V131.19H110.911V124.5C111.811 125.67 113.431 126.42 115.051 126.42C118.711 126.42 121.441 123.09 121.441 118.47ZM138.08 126.15L138.29 122.82C138.05 122.85 137.69 122.88 137.48 122.88C136.82 122.88 136.55 122.43 136.55 121.56V116.46C136.55 112.56 134.21 110.55 130.25 110.55C126.77 110.55 124.49 112.29 123.44 114.78L126.95 116.25C127.52 115.14 128.45 114.27 129.71 114.27C130.91 114.27 131.69 115.08 131.69 116.28V116.91L128.57 117.42C124.97 118.05 122.9 119.82 122.9 122.37C122.9 124.77 124.76 126.45 127.37 126.45C129.44 126.45 131.09 125.4 132.11 123.96C132.89 125.76 134.42 126.45 136.22 126.45C136.91 126.45 137.57 126.33 138.08 126.15ZM129.44 123C128.48 123 127.85 122.4 127.85 121.59C127.85 120.63 128.66 120.03 129.89 119.82L131.69 119.52V121.92C131.12 122.55 130.31 123 129.44 123ZM155.178 126.51C155.178 124.26 153.438 122.91 149.808 122.67L147.318 122.52C145.428 122.4 144.468 122.19 144.468 121.8C144.468 121.59 144.648 121.26 144.798 120.99C145.398 121.11 146.028 121.17 146.658 121.17C150.438 121.17 153.378 119.22 153.378 116.04C153.378 115.35 153.228 114.66 152.898 114.03C153.738 113.79 154.878 113.58 155.808 113.58V109.92C153.888 109.92 152.388 110.91 151.578 112.29C150.348 111.24 148.578 110.55 146.388 110.55C142.548 110.55 139.548 112.77 139.548 115.83C139.548 117.87 140.838 119.4 142.698 120.3C141.528 121.08 140.598 122.19 140.598 122.97C140.598 123.72 141.138 124.38 142.008 124.92C140.088 125.55 138.768 126.57 138.768 128.01C138.768 130.29 141.918 131.64 146.388 131.64C151.878 131.64 155.178 129.6 155.178 126.51ZM146.928 128.76C144.708 128.76 143.328 128.07 143.328 127.2C143.328 126.69 143.718 126.18 144.288 125.85C144.888 126.03 145.518 126.12 146.178 126.18L148.428 126.36C149.958 126.48 150.528 126.72 150.528 127.41C150.528 128.28 149.058 128.76 146.928 128.76ZM144.198 115.89C144.198 114.51 145.308 113.61 146.478 113.61C147.648 113.61 148.788 114.45 148.788 115.89C148.788 117.33 147.678 118.14 146.508 118.14C145.338 118.14 144.198 117.33 144.198 115.89ZM171.978 126V116.37C171.978 113.01 169.818 110.55 166.998 110.55C165.108 110.55 163.488 111.57 162.468 113.16V111H157.728V126H162.678V115.59C163.248 115.02 164.148 114.57 165.048 114.57C166.248 114.57 167.028 115.44 167.028 116.82V126H171.978ZM189.32 126.15L189.53 122.82C189.29 122.85 188.93 122.88 188.72 122.88C188.06 122.88 187.79 122.43 187.79 121.56V116.46C187.79 112.56 185.45 110.55 181.49 110.55C178.01 110.55 175.73 112.29 174.68 114.78L178.19 116.25C178.76 115.14 179.69 114.27 180.95 114.27C182.15 114.27 182.93 115.08 182.93 116.28V116.91L179.81 117.42C176.21 118.05 174.14 119.82 174.14 122.37C174.14 124.77 176 126.45 178.61 126.45C180.68 126.45 182.33 125.4 183.35 123.96C184.13 125.76 185.66 126.45 187.46 126.45C188.15 126.45 188.81 126.33 189.32 126.15ZM180.68 123C179.72 123 179.09 122.4 179.09 121.59C179.09 120.63 179.9 120.03 181.13 119.82L182.93 119.52V121.92C182.36 122.55 181.55 123 180.68 123Z" fill="white"/>
<path d="M89.24 300.354H87.584V312H89.24V300.354ZM93.7324 299.328H92.2024V312H93.7324V299.328ZM116.401 306.66C116.401 303.69 113.731 301.53 110.011 301.53C108.211 301.53 106.501 302.07 105.331 302.88C105.691 300.48 107.041 299.07 109.141 299.07C110.611 299.07 111.961 299.73 112.771 300.72L115.981 298.77C114.751 297.09 112.291 295.62 108.931 295.62C103.711 295.62 100.171 299.19 100.171 304.23C100.141 309.3 103.711 312.42 108.661 312.42C113.041 312.42 116.401 309.99 116.401 306.66ZM108.631 308.97C106.981 308.97 105.811 307.89 105.391 306C106.231 305.28 107.401 304.89 108.571 304.89C110.311 304.89 111.241 305.73 111.241 306.84C111.241 308.1 110.101 308.97 108.631 308.97ZM131.241 312.03V309.63H133.491V305.76H131.241V296.04H126.561L117.711 306.03V309.63H126.291V312.03H131.241ZM126.441 305.82H122.091L126.441 300.9V305.82ZM154.711 293.55L153.301 292.14C151.921 293.28 149.821 294 147.691 294C146.131 294 144.421 293.7 143.221 293.28C142.381 292.56 141.271 292.14 140.011 292.14C137.131 292.14 135.061 294.3 135.061 297.27C135.061 300.24 137.131 302.37 140.011 302.37C142.891 302.37 144.961 300.24 144.961 297.27C144.961 296.67 144.871 296.07 144.721 295.56C145.651 295.98 146.701 296.22 147.631 296.22C148.501 296.19 149.461 295.92 150.421 295.41L136.621 311.01L138.091 312.45L154.711 293.55ZM156.391 307.35C156.391 304.38 154.321 302.22 151.441 302.22C148.561 302.22 146.491 304.38 146.491 307.35C146.491 310.32 148.561 312.45 151.441 312.45C154.321 312.45 156.391 310.32 156.391 307.35ZM149.761 307.35C149.761 305.94 150.481 304.92 151.441 304.92C152.431 304.92 153.121 305.94 153.121 307.35C153.121 308.73 152.431 309.72 151.441 309.72C150.481 309.72 149.761 308.73 149.761 307.35ZM138.331 297.27C138.331 295.86 139.051 294.84 140.011 294.84C141.001 294.84 141.691 295.86 141.691 297.27C141.691 298.65 141.001 299.64 140.011 299.64C139.051 299.64 138.331 298.65 138.331 297.27ZM170.065 312.144L170.137 310.974C170.029 310.992 169.849 311.01 169.741 311.01C169.201 311.01 168.931 310.632 168.931 310.146V306.042C168.931 303.972 167.671 302.838 165.727 302.838C164.179 302.838 162.829 303.702 162.181 305.106L163.369 305.592C163.819 304.746 164.521 304.116 165.583 304.116C166.681 304.116 167.401 304.872 167.401 305.988V306.69L165.313 306.942C163.333 307.194 161.929 308.148 161.929 309.804C161.929 311.226 163.063 312.234 164.647 312.234C165.907 312.234 166.897 311.622 167.473 310.668C167.689 311.694 168.355 312.234 169.363 312.234C169.633 312.234 169.849 312.198 170.065 312.144ZM165.061 310.992C164.161 310.992 163.531 310.452 163.531 309.696C163.531 308.778 164.395 308.238 165.583 308.094L167.401 307.878V309.516C166.933 310.38 166.051 310.992 165.061 310.992ZM177.011 304.332V303.072H173.753V302.712C173.753 301.236 174.491 300.372 175.679 300.372C176.165 300.372 176.759 300.462 177.155 300.624L177.191 299.346C176.777 299.22 176.057 299.094 175.517 299.094C173.465 299.094 172.223 300.444 172.223 302.73V303.072H171.071V304.332H172.223V312H173.753V304.332H177.011ZM183.831 304.332V303.072H180.573V302.712C180.573 301.236 181.311 300.372 182.499 300.372C182.985 300.372 183.579 300.462 183.975 300.624L184.011 299.346C183.597 299.22 182.877 299.094 182.337 299.094C180.285 299.094 179.043 300.444 179.043 302.73V303.072H177.891V304.332H179.043V312H180.573V304.332H183.831ZM192.12 309.966L190.896 309.498C190.428 310.416 189.564 310.974 188.592 310.974C187.098 310.974 186.018 309.732 185.91 307.86H192.102C192.156 307.626 192.192 307.14 192.192 306.744C192.192 304.458 190.626 302.838 188.448 302.838C186.072 302.838 184.308 304.854 184.308 307.608C184.308 310.308 186.072 312.234 188.502 312.234C190.104 312.234 191.49 311.388 192.12 309.966ZM188.466 304.08C189.726 304.08 190.608 305.088 190.662 306.636H186C186.27 305.088 187.224 304.08 188.466 304.08ZM195.873 312V306.672C196.017 305.484 196.737 304.368 198.123 304.368C198.429 304.368 198.861 304.422 199.113 304.494V302.982C198.933 302.91 198.501 302.838 198.195 302.838C197.151 302.838 196.179 303.756 195.819 304.89V303.072H194.343V312H195.873ZM213.393 312V306.096C213.393 304.188 212.097 302.838 210.423 302.838C209.235 302.838 208.191 303.558 207.561 304.512C207.075 303.486 206.139 302.838 205.041 302.838C203.853 302.838 202.863 303.594 202.341 304.44V303.072H200.865V312H202.395V305.484C202.899 304.728 203.763 304.134 204.645 304.134C205.635 304.134 206.355 304.962 206.355 306.204V312H207.885V306.096C207.885 305.826 207.867 305.574 207.813 305.322C208.353 304.638 209.217 304.134 210.081 304.134C211.107 304.134 211.863 304.962 211.863 306.204V312H213.393ZM223.432 312.144L223.504 310.974C223.396 310.992 223.216 311.01 223.108 311.01C222.568 311.01 222.298 310.632 222.298 310.146V306.042C222.298 303.972 221.038 302.838 219.094 302.838C217.546 302.838 216.196 303.702 215.548 305.106L216.736 305.592C217.186 304.746 217.888 304.116 218.95 304.116C220.048 304.116 220.768 304.872 220.768 305.988V306.69L218.68 306.942C216.7 307.194 215.296 308.148 215.296 309.804C215.296 311.226 216.43 312.234 218.014 312.234C219.274 312.234 220.264 311.622 220.84 310.668C221.056 311.694 221.722 312.234 222.73 312.234C223 312.234 223.216 312.198 223.432 312.144ZM218.428 310.992C217.528 310.992 216.898 310.452 216.898 309.696C216.898 308.778 217.762 308.238 218.95 308.094L220.768 307.878V309.516C220.3 310.38 219.418 310.992 218.428 310.992ZM236.218 309.804L234.922 309.3C234.49 310.29 233.77 310.92 232.78 310.92C231.322 310.92 230.26 309.534 230.26 307.608C230.26 305.592 231.286 304.134 232.708 304.134C233.608 304.134 234.382 304.692 234.814 305.736L236.146 305.196C235.516 303.756 234.31 302.838 232.672 302.838C230.332 302.838 228.64 304.836 228.64 307.608C228.64 310.29 230.35 312.234 232.726 312.234C234.364 312.234 235.642 311.208 236.218 309.804ZM245.583 312V306.114C245.583 304.188 244.251 302.838 242.505 302.838C241.263 302.838 240.201 303.54 239.607 304.368V299.328H238.077V312H239.607V305.52C240.165 304.728 241.137 304.134 242.145 304.134C243.261 304.134 244.053 304.962 244.053 306.204V312H245.583ZM255.419 309.966L254.195 309.498C253.727 310.416 252.863 310.974 251.891 310.974C250.397 310.974 249.317 309.732 249.209 307.86H255.401C255.455 307.626 255.491 307.14 255.491 306.744C255.491 304.458 253.925 302.838 251.747 302.838C249.371 302.838 247.607 304.854 247.607 307.608C247.607 310.308 249.371 312.234 251.801 312.234C253.403 312.234 254.789 311.388 255.419 309.966ZM251.765 304.08C253.025 304.08 253.907 305.088 253.961 306.636H249.299C249.569 305.088 250.523 304.08 251.765 304.08ZM263.32 299.328H261.79V312H263.32V299.328ZM273.495 312.144L273.567 310.974C273.459 310.992 273.279 311.01 273.171 311.01C272.631 311.01 272.361 310.632 272.361 310.146V306.042C272.361 303.972 271.101 302.838 269.157 302.838C267.609 302.838 266.259 303.702 265.611 305.106L266.799 305.592C267.249 304.746 267.951 304.116 269.013 304.116C270.111 304.116 270.831 304.872 270.831 305.988V306.69L268.743 306.942C266.763 307.194 265.359 308.148 265.359 309.804C265.359 311.226 266.493 312.234 268.077 312.234C269.337 312.234 270.327 311.622 270.903 310.668C271.119 311.694 271.785 312.234 272.793 312.234C273.063 312.234 273.279 312.198 273.495 312.144ZM268.491 310.992C267.591 310.992 266.961 310.452 266.961 309.696C266.961 308.778 267.825 308.238 269.013 308.094L270.831 307.878V309.516C270.363 310.38 269.481 310.992 268.491 310.992ZM92.462 333.946V332.668C92.084 332.812 91.454 332.92 90.896 332.92C89.762 332.92 89.312 332.362 89.312 331.516V326.332H92.408V325.072H89.312V322.894H87.782V325.072H86.468V326.332H87.782V331.768C87.782 333.334 88.844 334.234 90.626 334.234C91.292 334.234 92.066 334.09 92.462 333.946ZM95.7012 334V328.672C95.8452 327.484 96.5652 326.368 97.9512 326.368C98.2572 326.368 98.6892 326.422 98.9412 326.494V324.982C98.7612 324.91 98.3292 324.838 98.0232 324.838C96.9792 324.838 96.0072 325.756 95.6472 326.89V325.072H94.1712V334H95.7012ZM107.88 334.144L107.952 332.974C107.844 332.992 107.664 333.01 107.556 333.01C107.016 333.01 106.746 332.632 106.746 332.146V328.042C106.746 325.972 105.486 324.838 103.542 324.838C101.994 324.838 100.644 325.702 99.9957 327.106L101.184 327.592C101.634 326.746 102.336 326.116 103.398 326.116C104.496 326.116 105.216 326.872 105.216 327.988V328.69L103.128 328.942C101.148 329.194 99.7437 330.148 99.7437 331.804C99.7437 333.226 100.878 334.234 102.462 334.234C103.722 334.234 104.712 333.622 105.288 332.668C105.504 333.694 106.17 334.234 107.178 334.234C107.448 334.234 107.664 334.198 107.88 334.144ZM102.876 332.992C101.976 332.992 101.346 332.452 101.346 331.696C101.346 330.778 102.21 330.238 103.398 330.094L105.216 329.878V331.516C104.748 332.38 103.866 332.992 102.876 332.992ZM117.093 334V328.096C117.093 326.188 115.761 324.838 114.015 324.838C112.737 324.838 111.657 325.594 111.063 326.44V325.072H109.587V334H111.117V327.52C111.675 326.728 112.647 326.134 113.655 326.134C114.771 326.134 115.563 326.962 115.563 328.204V334H117.093ZM126.587 331.552C126.587 329.896 125.183 329.212 123.167 328.78C121.655 328.438 120.791 328.168 120.791 327.376C120.791 326.62 121.637 326.098 122.825 326.098C124.067 326.098 124.895 326.62 125.309 327.484L126.533 326.998C126.011 325.9 124.913 324.838 122.843 324.838C120.737 324.838 119.297 325.954 119.297 327.466C119.297 329.014 120.755 329.734 122.735 330.148C124.265 330.472 125.111 330.778 125.111 331.624C125.111 332.434 124.355 332.992 123.041 332.992C121.547 332.992 120.593 332.326 120.143 331.444L118.883 331.93C119.495 333.334 120.935 334.234 122.969 334.234C125.237 334.234 126.587 333.136 126.587 331.552ZM130.207 325.072H128.677V334H130.207V325.072ZM130.207 321.526H128.677V323.308H130.207V321.526ZM132.372 326.404H137.178L132.246 332.812V334H139.23V332.668H134.082L139.14 326.26V325.072H132.372V326.404ZM142.775 325.072H141.245V334H142.775V325.072ZM142.775 321.526H141.245V323.308H142.775V321.526ZM153.544 329.554C153.544 326.818 151.726 324.838 149.224 324.838C146.722 324.838 144.886 326.818 144.886 329.554C144.886 332.254 146.722 334.234 149.224 334.234C151.726 334.234 153.544 332.254 153.544 329.554ZM146.506 329.554C146.506 327.574 147.64 326.116 149.224 326.116C150.79 326.116 151.924 327.574 151.924 329.554C151.924 331.498 150.79 332.938 149.224 332.938C147.64 332.938 146.506 331.498 146.506 329.554ZM163.148 334V328.096C163.148 326.188 161.816 324.838 160.07 324.838C158.792 324.838 157.712 325.594 157.118 326.44V325.072H155.642V334H157.172V327.52C157.73 326.728 158.702 326.134 159.71 326.134C160.826 326.134 161.618 326.962 161.618 328.204V334H163.148ZM172.984 331.966L171.76 331.498C171.292 332.416 170.428 332.974 169.456 332.974C167.962 332.974 166.882 331.732 166.774 329.86H172.966C173.02 329.626 173.056 329.14 173.056 328.744C173.056 326.458 171.49 324.838 169.312 324.838C166.936 324.838 165.172 326.854 165.172 329.608C165.172 332.308 166.936 334.234 169.366 334.234C170.968 334.234 172.354 333.388 172.984 331.966ZM169.33 326.08C170.59 326.08 171.472 327.088 171.526 328.636H166.864C167.134 327.088 168.088 326.08 169.33 326.08ZM186.519 331.966L185.295 331.498C184.827 332.416 183.963 332.974 182.991 332.974C181.497 332.974 180.417 331.732 180.309 329.86H186.501C186.555 329.626 186.591 329.14 186.591 328.744C186.591 326.458 185.025 324.838 182.847 324.838C180.471 324.838 178.707 326.854 178.707 329.608C178.707 332.308 180.471 334.234 182.901 334.234C184.503 334.234 185.889 333.388 186.519 331.966ZM182.865 326.08C184.125 326.08 185.007 327.088 185.061 328.636H180.399C180.669 327.088 181.623 326.08 182.865 326.08ZM195.671 331.804L194.375 331.3C193.943 332.29 193.223 332.92 192.233 332.92C190.775 332.92 189.713 331.534 189.713 329.608C189.713 327.592 190.739 326.134 192.161 326.134C193.061 326.134 193.835 326.692 194.267 327.736L195.599 327.196C194.969 325.756 193.763 324.838 192.125 324.838C189.785 324.838 188.093 326.836 188.093 329.608C188.093 332.29 189.803 334.234 192.179 334.234C193.817 334.234 195.095 333.208 195.671 331.804ZM205.523 329.554C205.523 326.818 203.705 324.838 201.203 324.838C198.701 324.838 196.865 326.818 196.865 329.554C196.865 332.254 198.701 334.234 201.203 334.234C203.705 334.234 205.523 332.254 205.523 329.554ZM198.485 329.554C198.485 327.574 199.619 326.116 201.203 326.116C202.769 326.116 203.903 327.574 203.903 329.554C203.903 331.498 202.769 332.938 201.203 332.938C199.619 332.938 198.485 331.498 198.485 329.554ZM209.15 321.328H207.62V334H209.15V321.328ZM219.919 329.554C219.919 326.818 218.101 324.838 215.599 324.838C213.097 324.838 211.261 326.818 211.261 329.554C211.261 332.254 213.097 334.234 215.599 334.234C218.101 334.234 219.919 332.254 219.919 329.554ZM212.881 329.554C212.881 327.574 214.015 326.116 215.599 326.116C217.165 326.116 218.299 327.574 218.299 329.554C218.299 331.498 217.165 332.938 215.599 332.938C214.015 332.938 212.881 331.498 212.881 329.554ZM229.757 334.594C229.757 333.298 228.803 332.614 226.769 332.434L225.509 332.326C224.249 332.218 223.799 332.002 223.799 331.732C223.799 331.516 223.997 331.21 224.177 331.012C224.483 331.084 224.825 331.12 225.149 331.12C227.093 331.12 228.677 329.86 228.677 328.114C228.677 327.466 228.479 326.854 228.101 326.332C228.587 326.08 229.361 325.864 230.081 325.864V324.496C228.983 324.496 228.119 325.018 227.579 325.756C226.931 325.198 226.049 324.838 225.041 324.838C223.043 324.838 221.477 326.206 221.477 328.006C221.477 329.284 222.269 330.256 223.385 330.76C222.809 331.156 222.323 331.768 222.323 332.182C222.323 332.542 222.575 332.848 223.025 333.082C221.909 333.55 221.099 334.36 221.099 335.17C221.099 336.646 222.737 337.51 225.239 337.51C228.011 337.51 229.757 336.286 229.757 334.594ZM225.257 336.34C223.583 336.34 222.629 335.728 222.629 334.936C222.629 334.324 223.187 333.73 223.943 333.406C224.303 333.496 224.717 333.568 225.185 333.604L226.445 333.712C227.885 333.838 228.245 334.18 228.245 334.828C228.245 335.674 227.075 336.34 225.257 336.34ZM223.007 328.024C223.007 326.89 223.871 326.008 225.059 326.008C226.247 326.008 227.147 326.89 227.147 328.024C227.147 329.14 226.247 329.95 225.059 329.95C223.871 329.95 223.007 329.14 223.007 328.024ZM233.303 325.072H231.773V334H233.303V325.072ZM233.303 321.526H231.773V323.308H233.303V321.526ZM243.009 331.804L241.713 331.3C241.281 332.29 240.561 332.92 239.571 332.92C238.113 332.92 237.051 331.534 237.051 329.608C237.051 327.592 238.077 326.134 239.499 326.134C240.399 326.134 241.173 326.692 241.605 327.736L242.937 327.196C242.307 325.756 241.101 324.838 239.463 324.838C237.123 324.838 235.431 326.836 235.431 329.608C235.431 332.29 237.141 334.234 239.517 334.234C241.155 334.234 242.433 333.208 243.009 331.804ZM252.266 334.144L252.338 332.974C252.23 332.992 252.05 333.01 251.942 333.01C251.402 333.01 251.132 332.632 251.132 332.146V328.042C251.132 325.972 249.872 324.838 247.928 324.838C246.38 324.838 245.03 325.702 244.382 327.106L245.57 327.592C246.02 326.746 246.722 326.116 247.784 326.116C248.882 326.116 249.602 326.872 249.602 327.988V328.69L247.514 328.942C245.534 329.194 244.13 330.148 244.13 331.804C244.13 333.226 245.264 334.234 246.848 334.234C248.108 334.234 249.098 333.622 249.674 332.668C249.89 333.694 250.556 334.234 251.564 334.234C251.834 334.234 252.05 334.198 252.266 334.144ZM247.262 332.992C246.362 332.992 245.732 332.452 245.732 331.696C245.732 330.778 246.596 330.238 247.784 330.094L249.602 329.878V331.516C249.134 332.38 248.252 332.992 247.262 332.992ZM94.208 353.552C94.208 351.896 92.804 351.212 90.788 350.78C89.276 350.438 88.412 350.168 88.412 349.376C88.412 348.62 89.258 348.098 90.446 348.098C91.688 348.098 92.516 348.62 92.93 349.484L94.154 348.998C93.632 347.9 92.534 346.838 90.464 346.838C88.358 346.838 86.918 347.954 86.918 349.466C86.918 351.014 88.376 351.734 90.356 352.148C91.886 352.472 92.732 352.778 92.732 353.624C92.732 354.434 91.976 354.992 90.662 354.992C89.168 354.992 88.214 354.326 87.764 353.444L86.504 353.93C87.116 355.334 88.556 356.234 90.59 356.234C92.858 356.234 94.208 355.136 94.208 353.552ZM103.696 356.144L103.768 354.974C103.66 354.992 103.48 355.01 103.372 355.01C102.832 355.01 102.562 354.632 102.562 354.146V350.042C102.562 347.972 101.302 346.838 99.3581 346.838C97.8101 346.838 96.4601 347.702 95.8121 349.106L97.0001 349.592C97.4501 348.746 98.1521 348.116 99.2141 348.116C100.312 348.116 101.032 348.872 101.032 349.988V350.69L98.9441 350.942C96.9641 351.194 95.5601 352.148 95.5601 353.804C95.5601 355.226 96.6941 356.234 98.2781 356.234C99.5381 356.234 100.528 355.622 101.104 354.668C101.32 355.694 101.986 356.234 102.994 356.234C103.264 356.234 103.48 356.198 103.696 356.144ZM98.6921 354.992C97.7921 354.992 97.1621 354.452 97.1621 353.696C97.1621 352.778 98.0261 352.238 99.2141 352.094L101.032 351.878V353.516C100.564 354.38 99.6821 354.992 98.6921 354.992ZM106.934 356V350.672C107.078 349.484 107.798 348.368 109.184 348.368C109.49 348.368 109.922 348.422 110.174 348.494V346.982C109.994 346.91 109.562 346.838 109.256 346.838C108.212 346.838 107.24 347.756 106.88 348.89V347.072H105.404V356H106.934ZM119.112 356.144L119.184 354.974C119.076 354.992 118.896 355.01 118.788 355.01C118.248 355.01 117.978 354.632 117.978 354.146V350.042C117.978 347.972 116.718 346.838 114.774 346.838C113.226 346.838 111.876 347.702 111.228 349.106L112.416 349.592C112.866 348.746 113.568 348.116 114.63 348.116C115.728 348.116 116.448 348.872 116.448 349.988V350.69L114.36 350.942C112.38 351.194 110.976 352.148 110.976 353.804C110.976 355.226 112.11 356.234 113.694 356.234C114.954 356.234 115.944 355.622 116.52 354.668C116.736 355.694 117.402 356.234 118.41 356.234C118.68 356.234 118.896 356.198 119.112 356.144ZM114.108 354.992C113.208 354.992 112.578 354.452 112.578 353.696C112.578 352.778 113.442 352.238 114.63 352.094L116.448 351.878V353.516C115.98 354.38 115.098 354.992 114.108 354.992ZM115.962 345.146L113.262 342.662L112.218 343.904L115.188 346.082L115.962 345.146ZM130.206 348.332V347.072H126.948V346.712C126.948 345.236 127.686 344.372 128.874 344.372C129.36 344.372 129.954 344.462 130.35 344.624L130.386 343.346C129.972 343.22 129.252 343.094 128.712 343.094C126.66 343.094 125.418 344.444 125.418 346.73V347.072H124.266V348.332H125.418V356H126.948V348.332H130.206ZM139.323 351.554C139.323 348.818 137.505 346.838 135.003 346.838C132.501 346.838 130.665 348.818 130.665 351.554C130.665 354.254 132.501 356.234 135.003 356.234C137.505 356.234 139.323 354.254 139.323 351.554ZM132.285 351.554C132.285 349.574 133.419 348.116 135.003 348.116C136.569 348.116 137.703 349.574 137.703 351.554C137.703 353.498 136.569 354.938 135.003 354.938C133.419 354.938 132.285 353.498 132.285 351.554ZM148.927 356V350.096C148.927 348.188 147.595 346.838 145.849 346.838C144.571 346.838 143.491 347.594 142.897 348.44V347.072H141.421V356H142.951V349.52C143.509 348.728 144.481 348.134 145.489 348.134C146.605 348.134 147.397 348.962 147.397 350.204V356H148.927ZM156.569 355.946V354.668C156.191 354.812 155.561 354.92 155.003 354.92C153.869 354.92 153.419 354.362 153.419 353.516V348.332H156.515V347.072H153.419V344.894H151.889V347.072H150.575V348.332H151.889V353.768C151.889 355.334 152.951 356.234 154.733 356.234C155.399 356.234 156.173 356.09 156.569 355.946ZM165.355 353.966L164.131 353.498C163.663 354.416 162.799 354.974 161.827 354.974C160.333 354.974 159.253 353.732 159.145 351.86H165.337C165.391 351.626 165.427 351.14 165.427 350.744C165.427 348.458 163.861 346.838 161.683 346.838C159.307 346.838 157.543 348.854 157.543 351.608C157.543 354.308 159.307 356.234 161.737 356.234C163.339 356.234 164.725 355.388 165.355 353.966ZM161.701 348.08C162.961 348.08 163.843 349.088 163.897 350.636H159.235C159.505 349.088 160.459 348.08 161.701 348.08ZM175.272 354.956C173.778 354.956 172.716 353.534 172.716 351.59C172.716 349.592 173.832 348.134 175.38 348.134C176.334 348.134 177.216 348.566 177.684 349.25V353.66C177.162 354.434 176.208 354.956 175.272 354.956ZM179.214 356V343.328H177.684V348.044C177.072 347.324 176.028 346.838 175.056 346.838C172.752 346.838 171.078 348.836 171.078 351.608C171.078 354.29 172.698 356.234 174.93 356.234C175.956 356.234 177.108 355.604 177.774 354.722V356H179.214ZM183.521 347.072H181.991V356H183.521V347.072ZM183.521 343.526H181.991V345.308H183.521V343.526ZM197.377 353.804L196.081 353.3C195.649 354.29 194.929 354.92 193.939 354.92C192.481 354.92 191.419 353.534 191.419 351.608C191.419 349.592 192.445 348.134 193.867 348.134C194.767 348.134 195.541 348.692 195.973 349.736L197.305 349.196C196.675 347.756 195.469 346.838 193.831 346.838C191.491 346.838 189.799 348.836 189.799 351.608C189.799 354.29 191.509 356.234 193.885 356.234C195.523 356.234 196.801 355.208 197.377 353.804ZM200.766 356V350.672C200.91 349.484 201.63 348.368 203.016 348.368C203.322 348.368 203.754 348.422 204.006 348.494V346.982C203.826 346.91 203.394 346.838 203.088 346.838C202.044 346.838 201.072 347.756 200.712 348.89V347.072H199.236V356H200.766ZM212.675 353.966L211.451 353.498C210.983 354.416 210.119 354.974 209.147 354.974C207.653 354.974 206.573 353.732 206.465 351.86H212.657C212.711 351.626 212.747 351.14 212.747 350.744C212.747 348.458 211.181 346.838 209.003 346.838C206.627 346.838 204.863 348.854 204.863 351.608C204.863 354.308 206.627 356.234 209.057 356.234C210.659 356.234 212.045 355.388 212.675 353.966ZM209.021 348.08C210.281 348.08 211.163 349.088 211.217 350.636H206.555C206.825 349.088 207.779 348.08 209.021 348.08ZM221.72 353.552C221.72 351.896 220.316 351.212 218.3 350.78C216.788 350.438 215.924 350.168 215.924 349.376C215.924 348.62 216.77 348.098 217.958 348.098C219.2 348.098 220.028 348.62 220.442 349.484L221.666 348.998C221.144 347.9 220.046 346.838 217.976 346.838C215.87 346.838 214.43 347.954 214.43 349.466C214.43 351.014 215.888 351.734 217.868 352.148C219.398 352.472 220.244 352.778 220.244 353.624C220.244 354.434 219.488 354.992 218.174 354.992C216.68 354.992 215.726 354.326 215.276 353.444L214.016 353.93C214.628 355.334 216.068 356.234 218.102 356.234C220.37 356.234 221.72 355.136 221.72 353.552ZM230.74 353.804L229.444 353.3C229.012 354.29 228.292 354.92 227.302 354.92C225.844 354.92 224.782 353.534 224.782 351.608C224.782 349.592 225.808 348.134 227.23 348.134C228.13 348.134 228.904 348.692 229.336 349.736L230.668 349.196C230.038 347.756 228.832 346.838 227.194 346.838C224.854 346.838 223.162 348.836 223.162 351.608C223.162 354.29 224.872 356.234 227.248 356.234C228.886 356.234 230.164 355.208 230.74 353.804ZM234.129 347.072H232.599V356H234.129V347.072ZM234.129 343.526H232.599V345.308H234.129V343.526ZM241.982 355.946V354.668C241.604 354.812 240.974 354.92 240.416 354.92C239.282 354.92 238.832 354.362 238.832 353.516V348.332H241.928V347.072H238.832V344.894H237.302V347.072H235.988V348.332H237.302V353.768C237.302 355.334 238.364 356.234 240.146 356.234C240.812 356.234 241.586 356.09 241.982 355.946ZM251.089 356.144L251.161 354.974C251.053 354.992 250.873 355.01 250.765 355.01C250.225 355.01 249.955 354.632 249.955 354.146V350.042C249.955 347.972 248.695 346.838 246.751 346.838C245.203 346.838 243.853 347.702 243.205 349.106L244.393 349.592C244.843 348.746 245.545 348.116 246.607 348.116C247.705 348.116 248.425 348.872 248.425 349.988V350.69L246.337 350.942C244.357 351.194 242.953 352.148 242.953 353.804C242.953 355.226 244.087 356.234 245.671 356.234C246.931 356.234 247.921 355.622 248.497 354.668C248.713 355.694 249.379 356.234 250.387 356.234C250.657 356.234 250.873 356.198 251.089 356.144ZM246.085 354.992C245.185 354.992 244.555 354.452 244.555 353.696C244.555 352.778 245.419 352.238 246.607 352.094L248.425 351.878V353.516C247.957 354.38 247.075 354.992 246.085 354.992ZM94.55 375.966L93.326 375.498C92.858 376.416 91.994 376.974 91.022 376.974C89.528 376.974 88.448 375.732 88.34 373.86H94.532C94.586 373.626 94.622 373.14 94.622 372.744C94.622 370.458 93.056 368.838 90.878 368.838C88.502 368.838 86.738 370.854 86.738 373.608C86.738 376.308 88.502 378.234 90.932 378.234C92.534 378.234 93.92 377.388 94.55 375.966ZM90.896 370.08C92.156 370.08 93.038 371.088 93.092 372.636H88.43C88.7 371.088 89.654 370.08 90.896 370.08ZM103.703 375.804L102.407 375.3C101.975 376.29 101.255 376.92 100.265 376.92C98.8067 376.92 97.7447 375.534 97.7447 373.608C97.7447 371.592 98.7707 370.134 100.193 370.134C101.093 370.134 101.867 370.692 102.299 371.736L103.631 371.196C103.001 369.756 101.795 368.838 100.157 368.838C97.8167 368.838 96.1247 370.836 96.1247 373.608C96.1247 376.29 97.8347 378.234 100.211 378.234C101.849 378.234 103.127 377.208 103.703 375.804ZM113.554 373.554C113.554 370.818 111.736 368.838 109.234 368.838C106.732 368.838 104.896 370.818 104.896 373.554C104.896 376.254 106.732 378.234 109.234 378.234C111.736 378.234 113.554 376.254 113.554 373.554ZM106.516 373.554C106.516 371.574 107.65 370.116 109.234 370.116C110.8 370.116 111.934 371.574 111.934 373.554C111.934 375.498 110.8 376.938 109.234 376.938C107.65 376.938 106.516 375.498 106.516 373.554ZM123.158 378V372.096C123.158 370.188 121.826 368.838 120.08 368.838C118.802 368.838 117.722 369.594 117.128 370.44V369.072H115.652V378H117.182V371.52C117.74 370.728 118.712 370.134 119.72 370.134C120.836 370.134 121.628 370.962 121.628 372.204V378H123.158ZM133.821 373.554C133.821 370.818 132.003 368.838 129.501 368.838C126.999 368.838 125.163 370.818 125.163 373.554C125.163 376.254 126.999 378.234 129.501 378.234C132.003 378.234 133.821 376.254 133.821 373.554ZM126.783 373.554C126.783 371.574 127.917 370.116 129.501 370.116C131.067 370.116 132.201 371.574 132.201 373.554C132.201 375.498 131.067 376.938 129.501 376.938C127.917 376.938 126.783 375.498 126.783 373.554ZM148.447 378V372.096C148.447 370.188 147.151 368.838 145.477 368.838C144.289 368.838 143.245 369.558 142.615 370.512C142.129 369.486 141.193 368.838 140.095 368.838C138.907 368.838 137.917 369.594 137.395 370.44V369.072H135.919V378H137.449V371.484C137.953 370.728 138.817 370.134 139.699 370.134C140.689 370.134 141.409 370.962 141.409 372.204V378H142.939V372.096C142.939 371.826 142.921 371.574 142.867 371.322C143.407 370.638 144.271 370.134 145.135 370.134C146.161 370.134 146.917 370.962 146.917 372.204V378H148.447ZM152.619 369.072H151.089V378H152.619V369.072ZM152.619 365.526H151.089V367.308H152.619V365.526ZM162.326 375.804L161.03 375.3C160.598 376.29 159.878 376.92 158.888 376.92C157.43 376.92 156.368 375.534 156.368 373.608C156.368 371.592 157.394 370.134 158.816 370.134C159.716 370.134 160.49 370.692 160.922 371.736L162.254 371.196C161.624 369.756 160.418 368.838 158.78 368.838C156.44 368.838 154.748 370.836 154.748 373.608C154.748 376.29 156.458 378.234 158.834 378.234C160.472 378.234 161.75 377.208 162.326 375.804ZM171.583 378.144L171.655 376.974C171.547 376.992 171.367 377.01 171.259 377.01C170.719 377.01 170.449 376.632 170.449 376.146V372.042C170.449 369.972 169.189 368.838 167.245 368.838C165.697 368.838 164.347 369.702 163.699 371.106L164.887 371.592C165.337 370.746 166.039 370.116 167.101 370.116C168.199 370.116 168.919 370.872 168.919 371.988V372.69L166.831 372.942C164.851 373.194 163.447 374.148 163.447 375.804C163.447 377.226 164.581 378.234 166.165 378.234C167.425 378.234 168.415 377.622 168.991 376.668C169.207 377.694 169.873 378.234 170.881 378.234C171.151 378.234 171.367 378.198 171.583 378.144ZM166.579 376.992C165.679 376.992 165.049 376.452 165.049 375.696C165.049 374.778 165.913 374.238 167.101 374.094L168.919 373.878V375.516C168.451 376.38 167.569 376.992 166.579 376.992ZM174.802 378V375.606H173.002V378H174.802Z" fill="white"/>
<path d="M89.24 163.354H87.584V175H89.24V163.354ZM93.7324 162.328H92.2024V175H93.7324V162.328ZM114.121 162.85V159.04H99.8115V163.24H108.931L101.881 175H107.431L114.121 162.85ZM115.67 166.96C115.67 171.82 119 175.42 123.65 175.42C128.33 175.42 131.69 171.82 131.69 166.96C131.69 162.16 128.33 158.62 123.65 158.62C119 158.62 115.67 162.16 115.67 166.96ZM120.83 167.02C120.83 164.29 122.03 162.49 123.68 162.49C125.39 162.49 126.53 164.29 126.53 167.02C126.53 169.75 125.39 171.55 123.68 171.55C122.03 171.55 120.83 169.75 120.83 167.02ZM152.982 156.55L151.572 155.14C150.192 156.28 148.092 157 145.962 157C144.402 157 142.692 156.7 141.492 156.28C140.652 155.56 139.542 155.14 138.282 155.14C135.402 155.14 133.332 157.3 133.332 160.27C133.332 163.24 135.402 165.37 138.282 165.37C141.162 165.37 143.232 163.24 143.232 160.27C143.232 159.67 143.142 159.07 142.992 158.56C143.922 158.98 144.972 159.22 145.902 159.22C146.772 159.19 147.732 158.92 148.692 158.41L134.892 174.01L136.362 175.45L152.982 156.55ZM154.662 170.35C154.662 167.38 152.592 165.22 149.712 165.22C146.832 165.22 144.762 167.38 144.762 170.35C144.762 173.32 146.832 175.45 149.712 175.45C152.592 175.45 154.662 173.32 154.662 170.35ZM148.032 170.35C148.032 168.94 148.752 167.92 149.712 167.92C150.702 167.92 151.392 168.94 151.392 170.35C151.392 171.73 150.702 172.72 149.712 172.72C148.752 172.72 148.032 171.73 148.032 170.35ZM136.602 160.27C136.602 158.86 137.322 157.84 138.282 157.84C139.272 157.84 139.962 158.86 139.962 160.27C139.962 161.65 139.272 162.64 138.282 162.64C137.322 162.64 136.602 161.65 136.602 160.27ZM164.485 173.956C162.991 173.956 161.929 172.534 161.929 170.59C161.929 168.592 163.045 167.134 164.593 167.134C165.547 167.134 166.429 167.566 166.897 168.25V172.66C166.375 173.434 165.421 173.956 164.485 173.956ZM168.427 175V162.328H166.897V167.044C166.285 166.324 165.241 165.838 164.269 165.838C161.965 165.838 160.291 167.836 160.291 170.608C160.291 173.29 161.911 175.234 164.143 175.234C165.169 175.234 166.321 174.604 166.987 173.722V175H168.427ZM178.368 172.966L177.144 172.498C176.676 173.416 175.812 173.974 174.84 173.974C173.346 173.974 172.266 172.732 172.158 170.86H178.35C178.404 170.626 178.44 170.14 178.44 169.744C178.44 167.458 176.874 165.838 174.696 165.838C172.32 165.838 170.556 167.854 170.556 170.608C170.556 173.308 172.32 175.234 174.75 175.234C176.352 175.234 177.738 174.388 178.368 172.966ZM174.714 167.08C175.974 167.08 176.856 168.088 176.91 169.636H172.248C172.518 168.088 173.472 167.08 174.714 167.08ZM182.121 166.072H180.591V175H182.121V166.072ZM182.121 162.526H180.591V164.308H182.121V162.526ZM195.976 172.804L194.68 172.3C194.248 173.29 193.528 173.92 192.538 173.92C191.08 173.92 190.018 172.534 190.018 170.608C190.018 168.592 191.044 167.134 192.466 167.134C193.366 167.134 194.14 167.692 194.572 168.736L195.904 168.196C195.274 166.756 194.068 165.838 192.43 165.838C190.09 165.838 188.398 167.836 188.398 170.608C188.398 173.29 190.108 175.234 192.484 175.234C194.122 175.234 195.4 174.208 195.976 172.804ZM199.365 166.072H197.835V175H199.365V166.072ZM199.365 162.526H197.835V164.308H199.365V162.526ZM207.218 174.946V173.668C206.84 173.812 206.21 173.92 205.652 173.92C204.518 173.92 204.068 173.362 204.068 172.516V167.332H207.164V166.072H204.068V163.894H202.538V166.072H201.224V167.332H202.538V172.768C202.538 174.334 203.6 175.234 205.382 175.234C206.048 175.234 206.822 175.09 207.218 174.946ZM214.003 174.946V173.668C213.625 173.812 212.995 173.92 212.437 173.92C211.303 173.92 210.853 173.362 210.853 172.516V167.332H213.949V166.072H210.853V163.894H209.323V166.072H208.009V167.332H209.323V172.768C209.323 174.334 210.385 175.234 212.167 175.234C212.833 175.234 213.607 175.09 214.003 174.946ZM223.11 175.144L223.182 173.974C223.074 173.992 222.894 174.01 222.786 174.01C222.246 174.01 221.976 173.632 221.976 173.146V169.042C221.976 166.972 220.716 165.838 218.772 165.838C217.224 165.838 215.874 166.702 215.226 168.106L216.414 168.592C216.864 167.746 217.566 167.116 218.628 167.116C219.726 167.116 220.446 167.872 220.446 168.988V169.69L218.358 169.942C216.378 170.194 214.974 171.148 214.974 172.804C214.974 174.226 216.108 175.234 217.692 175.234C218.952 175.234 219.942 174.622 220.518 173.668C220.734 174.694 221.4 175.234 222.408 175.234C222.678 175.234 222.894 175.198 223.11 175.144ZM218.106 173.992C217.206 173.992 216.576 173.452 216.576 172.696C216.576 171.778 217.44 171.238 218.628 171.094L220.446 170.878V172.516C219.978 173.38 219.096 173.992 218.106 173.992ZM228.364 173.956C226.87 173.956 225.808 172.534 225.808 170.59C225.808 168.592 226.924 167.134 228.472 167.134C229.426 167.134 230.308 167.566 230.776 168.25V172.66C230.254 173.434 229.3 173.956 228.364 173.956ZM232.306 175V162.328H230.776V167.044C230.164 166.324 229.12 165.838 228.148 165.838C225.844 165.838 224.17 167.836 224.17 170.608C224.17 173.29 225.79 175.234 228.022 175.234C229.048 175.234 230.2 174.604 230.866 173.722V175H232.306ZM236.613 166.072H235.083V175H236.613V166.072ZM236.613 162.526H235.083V164.308H236.613V162.526ZM246.896 175V169.096C246.896 167.188 245.564 165.838 243.818 165.838C242.54 165.838 241.46 166.594 240.866 167.44V166.072H239.39V175H240.92V168.52C241.478 167.728 242.45 167.134 243.458 167.134C244.574 167.134 245.366 167.962 245.366 169.204V175H246.896ZM251.098 166.072H249.568V175H251.098V166.072ZM251.098 162.526H249.568V164.308H251.098V162.526ZM91.238 195.956C90.392 195.956 89.456 195.506 88.916 194.858V190.52C89.384 189.8 90.266 189.098 91.31 189.098C92.804 189.098 93.92 190.448 93.92 192.5C93.92 194.534 92.804 195.956 91.238 195.956ZM95.54 192.5C95.54 189.764 93.812 187.838 91.706 187.838C90.338 187.838 89.33 188.666 88.862 189.404V188.072H87.386V200.276H88.916V196.064C89.492 196.766 90.482 197.234 91.544 197.234C93.794 197.234 95.54 195.236 95.54 192.5ZM104.816 194.966L103.592 194.498C103.124 195.416 102.26 195.974 101.288 195.974C99.7936 195.974 98.7136 194.732 98.6056 192.86H104.798C104.852 192.626 104.888 192.14 104.888 191.744C104.888 189.458 103.322 187.838 101.144 187.838C98.7676 187.838 97.0036 189.854 97.0036 192.608C97.0036 195.308 98.7676 197.234 101.198 197.234C102.8 197.234 104.186 196.388 104.816 194.966ZM101.162 189.08C102.422 189.08 103.304 190.088 103.358 191.636H98.6956C98.9656 190.088 99.9196 189.08 101.162 189.08ZM114.544 197V191.096C114.544 189.188 113.212 187.838 111.466 187.838C110.188 187.838 109.108 188.594 108.514 189.44V188.072H107.038V197H108.568V190.52C109.126 189.728 110.098 189.134 111.106 189.134C112.222 189.134 113.014 189.962 113.014 191.204V197H114.544ZM124.038 194.552C124.038 192.896 122.634 192.212 120.618 191.78C119.106 191.438 118.242 191.168 118.242 190.376C118.242 189.62 119.088 189.098 120.276 189.098C121.518 189.098 122.346 189.62 122.76 190.484L123.984 189.998C123.462 188.9 122.364 187.838 120.294 187.838C118.188 187.838 116.748 188.954 116.748 190.466C116.748 192.014 118.206 192.734 120.186 193.148C121.716 193.472 122.562 193.778 122.562 194.624C122.562 195.434 121.806 195.992 120.492 195.992C118.998 195.992 118.044 195.326 117.594 194.444L116.334 194.93C116.946 196.334 118.386 197.234 120.42 197.234C122.688 197.234 124.038 196.136 124.038 194.552ZM133.526 197.144L133.598 195.974C133.49 195.992 133.31 196.01 133.202 196.01C132.662 196.01 132.392 195.632 132.392 195.146V191.042C132.392 188.972 131.132 187.838 129.188 187.838C127.64 187.838 126.29 188.702 125.642 190.106L126.83 190.592C127.28 189.746 127.982 189.116 129.044 189.116C130.142 189.116 130.862 189.872 130.862 190.988V191.69L128.774 191.942C126.794 192.194 125.39 193.148 125.39 194.804C125.39 196.226 126.524 197.234 128.108 197.234C129.368 197.234 130.358 196.622 130.934 195.668C131.15 196.694 131.816 197.234 132.824 197.234C133.094 197.234 133.31 197.198 133.526 197.144ZM128.522 195.992C127.622 195.992 126.992 195.452 126.992 194.696C126.992 193.778 127.856 193.238 129.044 193.094L130.862 192.878V194.516C130.394 195.38 129.512 195.992 128.522 195.992ZM146.312 194.804L145.016 194.3C144.584 195.29 143.864 195.92 142.874 195.92C141.416 195.92 140.354 194.534 140.354 192.608C140.354 190.592 141.38 189.134 142.802 189.134C143.702 189.134 144.476 189.692 144.908 190.736L146.24 190.196C145.61 188.756 144.404 187.838 142.766 187.838C140.426 187.838 138.734 189.836 138.734 192.608C138.734 195.29 140.444 197.234 142.82 197.234C144.458 197.234 145.736 196.208 146.312 194.804ZM155.677 197V191.114C155.677 189.188 154.345 187.838 152.599 187.838C151.357 187.838 150.295 188.54 149.701 189.368V184.328H148.171V197H149.701V190.52C150.259 189.728 151.231 189.134 152.239 189.134C153.355 189.134 154.147 189.962 154.147 191.204V197H155.677ZM165.513 194.966L164.289 194.498C163.821 195.416 162.957 195.974 161.985 195.974C160.491 195.974 159.411 194.732 159.303 192.86H165.495C165.549 192.626 165.585 192.14 165.585 191.744C165.585 189.458 164.019 187.838 161.841 187.838C159.465 187.838 157.701 189.854 157.701 192.608C157.701 195.308 159.465 197.234 161.895 197.234C163.497 197.234 164.883 196.388 165.513 194.966ZM161.859 189.08C163.119 189.08 164.001 190.088 164.055 191.636H159.393C159.663 190.088 160.617 189.08 161.859 189.08ZM173.414 184.328H171.884V197H173.414V184.328ZM183.355 194.966L182.131 194.498C181.663 195.416 180.799 195.974 179.827 195.974C178.333 195.974 177.253 194.732 177.145 192.86H183.337C183.391 192.626 183.427 192.14 183.427 191.744C183.427 189.458 181.861 187.838 179.683 187.838C177.307 187.838 175.543 189.854 175.543 192.608C175.543 195.308 177.307 197.234 179.737 197.234C181.339 197.234 182.725 196.388 183.355 194.966ZM179.701 189.08C180.961 189.08 181.843 190.088 181.897 191.636H177.235C177.505 190.088 178.459 189.08 179.701 189.08ZM193.578 195.956C192.732 195.956 191.796 195.506 191.256 194.858V190.52C191.724 189.8 192.606 189.098 193.65 189.098C195.144 189.098 196.26 190.448 196.26 192.5C196.26 194.534 195.144 195.956 193.578 195.956ZM197.88 192.5C197.88 189.764 196.152 187.838 194.046 187.838C192.678 187.838 191.67 188.666 191.202 189.404V188.072H189.726V200.276H191.256V196.064C191.832 196.766 192.822 197.234 193.884 197.234C196.134 197.234 197.88 195.236 197.88 192.5ZM207.983 192.554C207.983 189.818 206.165 187.838 203.663 187.838C201.161 187.838 199.325 189.818 199.325 192.554C199.325 195.254 201.161 197.234 203.663 197.234C206.165 197.234 207.983 195.254 207.983 192.554ZM200.945 192.554C200.945 190.574 202.079 189.116 203.663 189.116C205.229 189.116 206.363 190.574 206.363 192.554C206.363 194.498 205.229 195.938 203.663 195.938C202.079 195.938 200.945 194.498 200.945 192.554ZM211.611 184.328H210.081V197H211.611V184.328ZM215.918 188.072H214.388V197H215.918V188.072ZM215.918 184.526H214.388V186.308H215.918V184.526ZM223.771 196.946V195.668C223.393 195.812 222.763 195.92 222.205 195.92C221.071 195.92 220.621 195.362 220.621 194.516V189.332H223.717V188.072H220.621V185.894H219.091V188.072H217.777V189.332H219.091V194.768C219.091 196.334 220.153 197.234 221.935 197.234C222.601 197.234 223.375 197.09 223.771 196.946ZM227.01 188.072H225.48V197H227.01V188.072ZM227.01 184.526H225.48V186.308H227.01V184.526ZM236.716 194.804L235.42 194.3C234.988 195.29 234.268 195.92 233.278 195.92C231.82 195.92 230.758 194.534 230.758 192.608C230.758 190.592 231.784 189.134 233.206 189.134C234.106 189.134 234.88 189.692 235.312 190.736L236.644 190.196C236.014 188.756 234.808 187.838 233.17 187.838C230.83 187.838 229.138 189.836 229.138 192.608C229.138 195.29 230.848 197.234 233.224 197.234C234.862 197.234 236.14 196.208 236.716 194.804ZM246.081 197V191.114C246.081 189.188 244.749 187.838 243.003 187.838C241.761 187.838 240.699 188.54 240.105 189.368V184.328H238.575V197H240.105V190.52C240.663 189.728 241.635 189.134 242.643 189.134C243.759 189.134 244.551 189.962 244.551 191.204V197H246.081ZM255.917 194.966L254.693 194.498C254.225 195.416 253.361 195.974 252.389 195.974C250.895 195.974 249.815 194.732 249.707 192.86H255.899C255.953 192.626 255.989 192.14 255.989 191.744C255.989 189.458 254.423 187.838 252.245 187.838C249.869 187.838 248.105 189.854 248.105 192.608C248.105 195.308 249.869 197.234 252.299 197.234C253.901 197.234 255.287 196.388 255.917 194.966ZM252.263 189.08C253.523 189.08 254.405 190.088 254.459 191.636H249.797C250.067 190.088 251.021 189.08 252.263 189.08ZM94.316 216.804L93.02 216.3C92.588 217.29 91.868 217.92 90.878 217.92C89.42 217.92 88.358 216.534 88.358 214.608C88.358 212.592 89.384 211.134 90.806 211.134C91.706 211.134 92.48 211.692 92.912 212.736L94.244 212.196C93.614 210.756 92.408 209.838 90.77 209.838C88.43 209.838 86.738 211.836 86.738 214.608C86.738 217.29 88.448 219.234 90.824 219.234C92.462 219.234 93.74 218.208 94.316 216.804ZM97.7051 206.328H96.1751V219H97.7051V206.328ZM102.012 210.072H100.482V219H102.012V210.072ZM102.012 206.526H100.482V208.308H102.012V206.526ZM117.316 219V213.096C117.316 211.188 116.02 209.838 114.346 209.838C113.158 209.838 112.114 210.558 111.484 211.512C110.998 210.486 110.062 209.838 108.964 209.838C107.776 209.838 106.786 210.594 106.264 211.44V210.072H104.788V219H106.318V212.484C106.822 211.728 107.686 211.134 108.568 211.134C109.558 211.134 110.278 211.962 110.278 213.204V219H111.808V213.096C111.808 212.826 111.79 212.574 111.736 212.322C112.276 211.638 113.14 211.134 114.004 211.134C115.03 211.134 115.786 211.962 115.786 213.204V219H117.316ZM127.356 219.144L127.428 217.974C127.32 217.992 127.14 218.01 127.032 218.01C126.492 218.01 126.222 217.632 126.222 217.146V213.042C126.222 210.972 124.962 209.838 123.018 209.838C121.47 209.838 120.12 210.702 119.472 212.106L120.66 212.592C121.11 211.746 121.812 211.116 122.874 211.116C123.972 211.116 124.692 211.872 124.692 212.988V213.69L122.604 213.942C120.624 214.194 119.22 215.148 119.22 216.804C119.22 218.226 120.354 219.234 121.938 219.234C123.198 219.234 124.188 218.622 124.764 217.668C124.98 218.694 125.646 219.234 126.654 219.234C126.924 219.234 127.14 219.198 127.356 219.144ZM122.352 217.992C121.452 217.992 120.822 217.452 120.822 216.696C120.822 215.778 121.686 215.238 122.874 215.094L124.692 214.878V216.516C124.224 217.38 123.342 217.992 122.352 217.992ZM134.14 218.946V217.668C133.762 217.812 133.132 217.92 132.574 217.92C131.44 217.92 130.99 217.362 130.99 216.516V211.332H134.086V210.072H130.99V207.894H129.46V210.072H128.146V211.332H129.46V216.768C129.46 218.334 130.522 219.234 132.304 219.234C132.97 219.234 133.744 219.09 134.14 218.946ZM137.379 210.072H135.849V219H137.379V210.072ZM137.379 206.526H135.849V208.308H137.379V206.526ZM147.086 216.804L145.79 216.3C145.358 217.29 144.638 217.92 143.648 217.92C142.19 217.92 141.128 216.534 141.128 214.608C141.128 212.592 142.154 211.134 143.576 211.134C144.476 211.134 145.25 211.692 145.682 212.736L147.014 212.196C146.384 210.756 145.178 209.838 143.54 209.838C141.2 209.838 139.508 211.836 139.508 214.608C139.508 217.29 141.218 219.234 143.594 219.234C145.232 219.234 146.51 218.208 147.086 216.804ZM156.451 219V213.114C156.451 211.188 155.119 209.838 153.373 209.838C152.131 209.838 151.069 210.54 150.475 211.368V206.328H148.945V219H150.475V212.52C151.033 211.728 152.005 211.134 153.013 211.134C154.129 211.134 154.921 211.962 154.921 213.204V219H156.451ZM166.286 216.966L165.062 216.498C164.594 217.416 163.73 217.974 162.758 217.974C161.264 217.974 160.184 216.732 160.076 214.86H166.268C166.322 214.626 166.358 214.14 166.358 213.744C166.358 211.458 164.792 209.838 162.614 209.838C160.238 209.838 158.474 211.854 158.474 214.608C158.474 217.308 160.238 219.234 162.668 219.234C164.27 219.234 165.656 218.388 166.286 216.966ZM162.632 211.08C163.892 211.08 164.774 212.088 164.828 213.636H160.166C160.436 212.088 161.39 211.08 162.632 211.08ZM185.185 219V213.096C185.185 211.188 183.889 209.838 182.215 209.838C181.027 209.838 179.983 210.558 179.353 211.512C178.867 210.486 177.931 209.838 176.833 209.838C175.645 209.838 174.655 210.594 174.133 211.44V210.072H172.657V219H174.187V212.484C174.691 211.728 175.555 211.134 176.437 211.134C177.427 211.134 178.147 211.962 178.147 213.204V219H179.677V213.096C179.677 212.826 179.659 212.574 179.605 212.322C180.145 211.638 181.009 211.134 181.873 211.134C182.899 211.134 183.655 211.962 183.655 213.204V219H185.185ZM189.357 210.072H187.827V219H189.357V210.072ZM189.357 206.526H187.827V208.308H189.357V206.526ZM199.874 219.594C199.874 218.298 198.92 217.614 196.886 217.434L195.626 217.326C194.366 217.218 193.916 217.002 193.916 216.732C193.916 216.516 194.114 216.21 194.294 216.012C194.6 216.084 194.942 216.12 195.266 216.12C197.21 216.12 198.794 214.86 198.794 213.114C198.794 212.466 198.596 211.854 198.218 211.332C198.704 211.08 199.478 210.864 200.198 210.864V209.496C199.1 209.496 198.236 210.018 197.696 210.756C197.048 210.198 196.166 209.838 195.158 209.838C193.16 209.838 191.594 211.206 191.594 213.006C191.594 214.284 192.386 215.256 193.502 215.76C192.926 216.156 192.44 216.768 192.44 217.182C192.44 217.542 192.692 217.848 193.142 218.082C192.026 218.55 191.216 219.36 191.216 220.17C191.216 221.646 192.854 222.51 195.356 222.51C198.128 222.51 199.874 221.286 199.874 219.594ZM195.374 221.34C193.7 221.34 192.746 220.728 192.746 219.936C192.746 219.324 193.304 218.73 194.06 218.406C194.42 218.496 194.834 218.568 195.302 218.604L196.562 218.712C198.002 218.838 198.362 219.18 198.362 219.828C198.362 220.674 197.192 221.34 195.374 221.34ZM193.124 213.024C193.124 211.89 193.988 211.008 195.176 211.008C196.364 211.008 197.264 211.89 197.264 213.024C197.264 214.14 196.364 214.95 195.176 214.95C193.988 214.95 193.124 214.14 193.124 213.024ZM203.42 206.328H201.89V219H203.42V206.328ZM207.727 210.072H206.197V219H207.727V210.072ZM207.727 206.526H206.197V208.308H207.727V206.526ZM218.495 214.554C218.495 211.818 216.677 209.838 214.175 209.838C211.673 209.838 209.837 211.818 209.837 214.554C209.837 217.254 211.673 219.234 214.175 219.234C216.677 219.234 218.495 217.254 218.495 214.554ZM211.457 214.554C211.457 212.574 212.591 211.116 214.175 211.116C215.741 211.116 216.875 212.574 216.875 214.554C216.875 216.498 215.741 217.938 214.175 217.938C212.591 217.938 211.457 216.498 211.457 214.554ZM222.123 219V213.672C222.267 212.484 222.987 211.368 224.373 211.368C224.679 211.368 225.111 211.422 225.363 211.494V209.982C225.183 209.91 224.751 209.838 224.445 209.838C223.401 209.838 222.429 210.756 222.069 211.89V210.072H220.593V219H222.123ZM234.032 216.966L232.808 216.498C232.34 217.416 231.476 217.974 230.504 217.974C229.01 217.974 227.93 216.732 227.822 214.86H234.014C234.068 214.626 234.104 214.14 234.104 213.744C234.104 211.458 232.538 209.838 230.36 209.838C227.984 209.838 226.22 211.854 226.22 214.608C226.22 217.308 227.984 219.234 230.414 219.234C232.016 219.234 233.402 218.388 234.032 216.966ZM230.378 211.08C231.638 211.08 232.52 212.088 232.574 213.636H227.912C228.182 212.088 229.136 211.08 230.378 211.08ZM237.785 219V213.672C237.929 212.484 238.649 211.368 240.035 211.368C240.341 211.368 240.773 211.422 241.025 211.494V209.982C240.845 209.91 240.413 209.838 240.107 209.838C239.063 209.838 238.091 210.756 237.731 211.89V210.072H236.255V219H237.785ZM249.964 219.144L250.036 217.974C249.928 217.992 249.748 218.01 249.64 218.01C249.1 218.01 248.83 217.632 248.83 217.146V213.042C248.83 210.972 247.57 209.838 245.626 209.838C244.078 209.838 242.728 210.702 242.08 212.106L243.268 212.592C243.718 211.746 244.42 211.116 245.482 211.116C246.58 211.116 247.3 211.872 247.3 212.988V213.69L245.212 213.942C243.232 214.194 241.828 215.148 241.828 216.804C241.828 218.226 242.962 219.234 244.546 219.234C245.806 219.234 246.796 218.622 247.372 217.668C247.588 218.694 248.254 219.234 249.262 219.234C249.532 219.234 249.748 219.198 249.964 219.144ZM244.96 217.992C244.06 217.992 243.43 217.452 243.43 216.696C243.43 215.778 244.294 215.238 245.482 215.094L247.3 214.878V216.516C246.832 217.38 245.95 217.992 244.96 217.992ZM259.177 219V213.096C259.177 211.188 257.845 209.838 256.099 209.838C254.821 209.838 253.741 210.594 253.147 211.44V210.072H251.671V219H253.201V212.52C253.759 211.728 254.731 211.134 255.739 211.134C256.855 211.134 257.647 211.962 257.647 213.204V219H259.177ZM269.355 219V213.096C269.355 211.188 268.023 209.838 266.277 209.838C264.999 209.838 263.919 210.594 263.325 211.44V210.072H261.849V219H263.379V212.52C263.937 211.728 264.909 211.134 265.917 211.134C267.033 211.134 267.825 211.962 267.825 213.204V219H269.355ZM280.019 214.554C280.019 211.818 278.201 209.838 275.699 209.838C273.197 209.838 271.361 211.818 271.361 214.554C271.361 217.254 273.197 219.234 275.699 219.234C278.201 219.234 280.019 217.254 280.019 214.554ZM272.981 214.554C272.981 212.574 274.115 211.116 275.699 211.116C277.265 211.116 278.399 212.574 278.399 214.554C278.399 216.498 277.265 217.938 275.699 217.938C274.115 217.938 272.981 216.498 272.981 214.554ZM88.916 228.328H87.386V241H88.916V228.328ZM99.0906 241.144L99.1626 239.974C99.0546 239.992 98.8746 240.01 98.7666 240.01C98.2266 240.01 97.9566 239.632 97.9566 239.146V235.042C97.9566 232.972 96.6966 231.838 94.7526 231.838C93.2046 231.838 91.8546 232.702 91.2066 234.106L92.3946 234.592C92.8446 233.746 93.5466 233.116 94.6086 233.116C95.7066 233.116 96.4266 233.872 96.4266 234.988V235.69L94.3386 235.942C92.3586 236.194 90.9546 237.148 90.9546 238.804C90.9546 240.226 92.0886 241.234 93.6726 241.234C94.9326 241.234 95.9226 240.622 96.4986 239.668C96.7146 240.694 97.3806 241.234 98.3886 241.234C98.6586 241.234 98.8746 241.198 99.0906 241.144ZM94.0866 239.992C93.1866 239.992 92.5566 239.452 92.5566 238.696C92.5566 237.778 93.4206 237.238 94.6086 237.094L96.4266 236.878V238.516C95.9586 239.38 95.0766 239.992 94.0866 239.992ZM106.477 228.328H104.947V241H106.477V228.328ZM117.245 236.554C117.245 233.818 115.427 231.838 112.925 231.838C110.423 231.838 108.587 233.818 108.587 236.554C108.587 239.254 110.423 241.234 112.925 241.234C115.427 241.234 117.245 239.254 117.245 236.554ZM110.207 236.554C110.207 234.574 111.341 233.116 112.925 233.116C114.491 233.116 115.625 234.574 115.625 236.554C115.625 238.498 114.491 239.938 112.925 239.938C111.341 239.938 110.207 238.498 110.207 236.554ZM120.873 241V235.672C121.017 234.484 121.737 233.368 123.123 233.368C123.429 233.368 123.861 233.422 124.113 233.494V231.982C123.933 231.91 123.501 231.838 123.195 231.838C122.151 231.838 121.179 232.756 120.819 233.89V232.072H119.343V241H120.873ZM133.61 236.554C133.61 233.818 131.792 231.838 129.29 231.838C126.788 231.838 124.952 233.818 124.952 236.554C124.952 239.254 126.788 241.234 129.29 241.234C131.792 241.234 133.61 239.254 133.61 236.554ZM126.572 236.554C126.572 234.574 127.706 233.116 129.29 233.116C130.856 233.116 131.99 234.574 131.99 236.554C131.99 238.498 130.856 239.938 129.29 239.938C127.706 239.938 126.572 238.498 126.572 236.554ZM143.511 239.956C141.981 239.956 140.829 238.606 140.829 236.608C140.829 234.574 141.963 233.098 143.565 233.098C144.447 233.098 145.311 233.584 145.833 234.286V238.678C145.401 239.38 144.501 239.956 143.511 239.956ZM147.363 244.276V232.072H145.869V233.206C145.293 232.378 144.285 231.838 143.169 231.838C141.009 231.838 139.209 233.782 139.209 236.59C139.209 239.29 140.919 241.234 143.115 241.234C144.249 241.234 145.257 240.694 145.833 239.884V244.276H147.363ZM157.34 241V232.072H155.81V238.228C155.36 239.218 154.496 239.938 153.434 239.938C152.336 239.938 151.544 239.074 151.544 237.868V232.072H150.014V237.976C150.014 239.866 151.274 241.234 153.002 241.234C154.316 241.234 155.342 240.478 155.864 239.524V241H157.34ZM167.505 241.144L167.577 239.974C167.469 239.992 167.289 240.01 167.181 240.01C166.641 240.01 166.371 239.632 166.371 239.146V235.042C166.371 232.972 165.111 231.838 163.167 231.838C161.619 231.838 160.269 232.702 159.621 234.106L160.809 234.592C161.259 233.746 161.961 233.116 163.023 233.116C164.121 233.116 164.841 233.872 164.841 234.988V235.69L162.753 235.942C160.773 236.194 159.369 237.148 159.369 238.804C159.369 240.226 160.503 241.234 162.087 241.234C163.347 241.234 164.337 240.622 164.913 239.668C165.129 240.694 165.795 241.234 166.803 241.234C167.073 241.234 167.289 241.198 167.505 241.144ZM162.501 239.992C161.601 239.992 160.971 239.452 160.971 238.696C160.971 237.778 161.835 237.238 163.023 237.094L164.841 236.878V238.516C164.373 239.38 163.491 239.992 162.501 239.992ZM170.742 228.328H169.212V241H170.742V228.328ZM175.049 232.072H173.519V241H175.049V232.072ZM175.049 228.526H173.519V230.308H175.049V228.526ZM182.901 240.946V239.668C182.523 239.812 181.893 239.92 181.335 239.92C180.201 239.92 179.751 239.362 179.751 238.516V233.332H182.847V232.072H179.751V229.894H178.221V232.072H176.907V233.332H178.221V238.768C178.221 240.334 179.283 241.234 181.065 241.234C181.731 241.234 182.505 241.09 182.901 240.946ZM192.009 241.144L192.081 239.974C191.973 239.992 191.793 240.01 191.685 240.01C191.145 240.01 190.875 239.632 190.875 239.146V235.042C190.875 232.972 189.615 231.838 187.671 231.838C186.123 231.838 184.773 232.702 184.125 234.106L185.313 234.592C185.763 233.746 186.465 233.116 187.527 233.116C188.625 233.116 189.345 233.872 189.345 234.988V235.69L187.257 235.942C185.277 236.194 183.873 237.148 183.873 238.804C183.873 240.226 185.007 241.234 186.591 241.234C187.851 241.234 188.841 240.622 189.417 239.668C189.633 240.694 190.299 241.234 191.307 241.234C191.577 241.234 191.793 241.198 192.009 241.144ZM187.005 239.992C186.105 239.992 185.475 239.452 185.475 238.696C185.475 237.778 186.339 237.238 187.527 237.094L189.345 236.878V238.516C188.877 239.38 187.995 239.992 187.005 239.992ZM188.859 230.146L186.159 227.662L185.115 228.904L188.085 231.082L188.859 230.146ZM201.411 239.956C199.917 239.956 198.855 238.534 198.855 236.59C198.855 234.592 199.971 233.134 201.519 233.134C202.473 233.134 203.355 233.566 203.823 234.25V238.66C203.301 239.434 202.347 239.956 201.411 239.956ZM205.353 241V228.328H203.823V233.044C203.211 232.324 202.167 231.838 201.195 231.838C198.891 231.838 197.217 233.836 197.217 236.608C197.217 239.29 198.837 241.234 201.069 241.234C202.095 241.234 203.247 240.604 203.913 239.722V241H205.353ZM209.66 232.072H208.13V241H209.66V232.072ZM209.66 228.526H208.13V230.308H209.66V228.526ZM215.243 232.072L218.465 241H220.049L223.253 232.072H221.705L219.329 239.02H219.275L216.899 232.072H215.243ZM226.57 232.072H225.04V241H226.57V232.072ZM226.57 228.526H225.04V230.308H226.57V228.526ZM234.423 240.946V239.668C234.045 239.812 233.415 239.92 232.857 239.92C231.723 239.92 231.273 239.362 231.273 238.516V233.332H234.369V232.072H231.273V229.894H229.743V232.072H228.429V233.332H229.743V238.768C229.743 240.334 230.805 241.234 232.587 241.234C233.253 241.234 234.027 241.09 234.423 240.946ZM243.53 241.144L243.602 239.974C243.494 239.992 243.314 240.01 243.206 240.01C242.666 240.01 242.396 239.632 242.396 239.146V235.042C242.396 232.972 241.136 231.838 239.192 231.838C237.644 231.838 236.294 232.702 235.646 234.106L236.834 234.592C237.284 233.746 237.986 233.116 239.048 233.116C240.146 233.116 240.866 233.872 240.866 234.988V235.69L238.778 235.942C236.798 236.194 235.394 237.148 235.394 238.804C235.394 240.226 236.528 241.234 238.112 241.234C239.372 241.234 240.362 240.622 240.938 239.668C241.154 240.694 241.82 241.234 242.828 241.234C243.098 241.234 243.314 241.198 243.53 241.144ZM238.526 239.992C237.626 239.992 236.996 239.452 236.996 238.696C236.996 237.778 237.86 237.238 239.048 237.094L240.866 236.878V238.516C240.398 239.38 239.516 239.992 238.526 239.992ZM246.75 241V238.606H244.95V241H246.75Z" fill="white"/>
<mask id="mask0_1098_1099" style="mask-type:alpha" maskUnits="userSpaceOnUse" x="155" y="269" width="219" height="218">
<path d="M370.455 438.659L358.666 434.572V354.627C358.15 350.495 361.884 328.029 345.437 305.867C345.432 305.86 345.427 305.853 345.422 305.846V294.087C345.422 292.239 343.921 290.738 342.073 290.738C340.223 290.738 338.724 292.24 338.724 294.087V305.821C322.294 328.069 325.998 350.508 325.476 354.629V423.017L320.62 421.341V334.533C320.112 330.518 323.799 307.955 307.364 285.712V273.99C307.364 272.141 305.864 270.641 304.016 270.641C302.165 270.641 300.667 272.143 300.667 273.99V285.76C300.665 285.764 300.662 285.767 300.66 285.771C284.212 307.935 287.915 330.419 287.397 334.531V363.434L267.783 337.429V326.456C267.783 324.604 266.283 323.107 264.434 323.107C262.584 323.107 261.085 324.606 261.085 326.456V337.261L261.073 337.278L241.849 363.836V332.856C241.333 328.779 245.032 306.328 228.602 284.083V272.349C228.602 270.497 227.101 269 225.253 269C223.403 269 221.904 270.499 221.904 272.349V284.109C221.899 284.116 221.894 284.123 221.889 284.13C205.484 306.326 209.179 328.744 208.66 332.856V421.374L203.402 423.182V354.627C202.885 350.531 206.587 328.029 190.139 305.866C190.137 305.864 190.135 305.861 190.134 305.859V294.085C190.134 292.236 188.633 290.736 186.785 290.736C184.935 290.736 183.436 292.238 183.436 294.085V305.803C167.001 328.048 170.7 350.508 170.178 354.629V434.604L158.389 438.657C155.777 439.562 154.371 442.407 155.274 445.02C156.228 447.75 159.169 449.074 161.67 448.134L164.851 447.03L160.966 480.218L160.599 480.22C158.757 480.22 157.25 481.695 157.25 483.569C157.25 485.412 158.757 486.918 160.599 486.918H368.242C370.083 486.918 371.59 485.412 371.59 483.569C371.59 481.695 370.083 480.22 368.242 480.22H367.907L363.988 447.032L367.136 448.135C369.749 449.042 372.628 447.668 373.533 445.054C374.438 442.443 373.064 439.564 370.453 438.659L370.455 438.659ZM347.816 480.221L343.328 465.954C339.818 455.004 328.96 455.315 328.625 455.204C321.483 455.204 315.722 460.109 313.922 465.954L309.435 480.221H294.934C294.853 479.877 290.482 461.304 290.747 462.438C288.512 457.947 289.6 430.286 264.424 430.286C239.903 430.286 239.787 458.344 238.502 460.763C238.421 461.106 233.646 481.512 233.947 480.219H219.445C219.337 479.877 215.097 466.497 215.359 467.326C215.12 466.992 212.686 455.202 200.255 455.202H200.053C193.717 455.202 187.591 459.46 185.552 465.952L181.031 480.219H167.734C168.158 476.579 166.195 493.406 171.887 444.619C172.271 444.488 265.31 412.481 264.956 412.602C291.284 421.766 325.352 433.612 356.958 444.587C362.695 493.421 360.716 476.578 361.144 480.221H347.814L347.816 480.221ZM176.877 357.978H196.703V425.466L176.877 432.298V357.978ZM242.418 374.491L264.421 344.115L287.395 374.524V409.79L266.599 402.555C265.561 402.187 264.389 402.187 263.317 402.555L242.418 409.756L242.418 374.491ZM294.094 373.419V337.885H313.92V419.001L294.094 412.102V373.419ZM332.174 357.979H351.968V432.227L332.174 425.362V357.979ZM215.357 336.21H235.149V412.236L215.357 419.068V336.21Z" fill="white" fill-opacity="0.2"/>
<path d="M186.793 366.086C184.951 366.086 183.444 367.594 183.444 369.435V412.706C183.444 414.548 184.951 416.055 186.793 416.055C188.635 416.055 190.142 414.548 190.142 412.706V369.435C190.142 367.594 188.635 366.086 186.793 366.086Z" fill="white" fill-opacity="0.2"/>
<path d="M342.088 366.086C340.212 366.086 338.739 367.594 338.739 369.435V412.706C338.739 414.548 340.212 416.055 342.088 416.055C343.929 416.055 345.437 414.548 345.437 412.706V369.435C345.437 367.594 343.929 366.086 342.088 366.086Z" fill="white" fill-opacity="0.2"/>
<path d="M225.241 345.121C223.399 345.121 221.892 346.628 221.892 348.469V403.229C221.892 405.07 223.399 406.577 225.241 406.577C227.116 406.577 228.59 405.07 228.59 403.229V348.469C228.59 346.628 227.116 345.121 225.241 345.121Z" fill="white" fill-opacity="0.2"/>
<path d="M304.01 346.43C302.168 346.43 300.661 347.935 300.661 349.779V403.229C300.661 405.071 302.168 406.578 304.01 406.578C305.852 406.578 307.359 405.071 307.359 403.229V349.779C307.359 347.935 305.852 346.43 304.01 346.43Z" fill="white" fill-opacity="0.2"/>
<path d="M278.454 380.955C278.454 373.218 272.192 366.92 264.421 366.92C256.685 366.92 250.421 373.218 250.421 380.955C250.421 388.691 256.683 394.988 264.421 394.988C272.19 394.988 278.454 388.691 278.454 380.955Z" fill="white" fill-opacity="0.2"/>
</mask>
<g mask="url(#mask0_1098_1099)">
<rect x="65" y="61" width="284" height="422" fill="#C4C4C4"/>
</g>
<defs>
<filter id="filter0_d_1098_1099" x="0.5" y="0.5" width="413" height="551" filterUnits="userSpaceOnUse" color-interpolation-filters="sRGB">
<feFlood flood-opacity="0" result="BackgroundImageFix"/>
<feColorMatrix in="SourceAlpha" type="matrix" values="0 0 0 0 0 0 0 0 0 0 0 0 0 0 0 0 0 0 127 0" result="hardAlpha"/>
<feOffset dy="4"/>
<feGaussianBlur stdDeviation="31.5"/>
<feComposite in2="hardAlpha" operator="out"/>
<feColorMatrix type="matrix" values="0 0 0 0 0 0 0 0 0 0 0 0 0 0 0 0 0 0 0.6 0"/>
<feBlend mode="normal" in2="BackgroundImageFix" result="effect1_dropShadow_1098_1099"/>
<feBlend mode="normal" in="SourceGraphic" in2="effect1_dropShadow_1098_1099" result="shape"/>
</filter>
</defs>
</svg>
