<svg width="726" height="46" viewBox="0 0 726 46" fill="none" xmlns="http://www.w3.org/2000/svg">
<g id="Group 128">
<rect id="Rectangle 308" width="726" height="46" rx="4" fill="#1767D2"/>
<g id="Group 13">
<circle id="Ellipse 571" cx="696" cy="21" r="6" stroke="white" stroke-width="2"/>
<path id="Vector 329" d="M700 26L707 33" stroke="white" stroke-width="2" stroke-linecap="round"/>
</g>
<g id="Solare 2%">
<text fill="white" xml:space="preserve" style="white-space: pre" font-family="Sole24Serif Text" font-size="30" letter-spacing="0em"><tspan x="130.621" y="33.05"> </tspan></text>
<text fill="white" xml:space="preserve" style="white-space: pre" font-family="Sole24Sans" font-size="30" letter-spacing="0em"><tspan x="137.799" y="33.05">2%&#10;</tspan></text>
<text fill="white" xml:space="preserve" style="white-space: pre" font-family="Sole24Sans" font-size="30" letter-spacing="0em"><tspan x="49" y="33.05">Solare</tspan></text>
</g>
<g id="Group">
<path id="Vector" d="M16.7667 17.5722C16.8972 17.7972 17.1323 17.9217 17.3733 17.9217C17.4925 17.9217 17.6124 17.8943 17.7228 17.8279C18.0575 17.6352 18.1718 17.2032 17.9778 16.8684L16.3144 13.9699C16.1197 13.6316 15.6931 13.5159 15.3583 13.7126C15.0233 13.9035 14.9084 14.3359 15.1024 14.6721L16.7667 17.5722Z" fill="white" fill-opacity="0.5"/>
<path id="Vector_2" d="M13.7304 24.7831C13.7304 24.3946 13.4165 24.0786 13.0303 24.0786L9.70013 24.0788C9.31371 24.0788 9 24.3944 9 24.7833C9 25.1721 9.31373 25.4892 9.70013 25.4892H13.0303C13.4165 25.4888 13.7304 25.1719 13.7304 24.7831V24.7831Z" fill="white" fill-opacity="0.5"/>
<path id="Vector_3" d="M14.5427 19.8091L11.6599 18.1333C11.3236 17.939 10.8955 18.0547 10.704 18.3923C10.5107 18.7304 10.6243 19.1606 10.9598 19.3518L13.8436 21.0269C13.9546 21.0902 14.0744 21.1189 14.1936 21.1189C14.4334 21.1189 14.6701 20.9967 14.7988 20.7676C14.9936 20.4345 14.879 20.0035 14.5427 19.8092L14.5427 19.8091Z" fill="white" fill-opacity="0.5"/>
<path id="Vector_4" d="M13.8438 28.5443L10.9597 30.2197C10.6245 30.4148 10.5107 30.8439 10.704 31.1808C10.8327 31.4087 11.0685 31.5314 11.3092 31.5314C11.4298 31.5314 11.5482 31.5042 11.6601 31.4376L14.543 29.7643C14.8793 29.5705 14.9935 29.1416 14.7988 28.7996C14.6071 28.4663 14.1783 28.3481 13.8438 28.5443L13.8438 28.5443Z" fill="white" fill-opacity="0.5"/>
<path id="Vector_5" d="M29.2439 21.1212C29.3614 21.1212 29.4822 21.0907 29.5935 21.0274L32.4775 19.3553C32.811 19.161 32.925 18.7307 32.7335 18.3928C32.54 18.0576 32.1118 17.9394 31.777 18.1339L28.8943 19.8097C28.5567 20.004 28.4438 20.4349 28.6367 20.7736C28.7669 20.9976 29.0025 21.1212 29.2439 21.1212L29.2439 21.1212Z" fill="white" fill-opacity="0.5"/>
<path id="Vector_6" d="M21.7191 16.7548C22.1055 16.7548 22.4194 16.4392 22.4194 16.0525V12.7023C22.4194 12.3152 22.1055 12 21.7191 12C21.3322 12 21.0188 12.3154 21.0188 12.7023V16.0523C21.019 16.4392 21.3322 16.7548 21.7191 16.7548V16.7548Z" fill="white" fill-opacity="0.5"/>
<path id="Vector_7" d="M25.7123 17.8296C25.822 17.8942 25.9431 17.9216 26.0601 17.9216C26.3033 17.9216 26.5379 17.7986 26.6666 17.5721L28.3321 14.672C28.5262 14.3356 28.4115 13.906 28.0771 13.7125C27.7406 13.5158 27.314 13.6319 27.121 13.9698L25.4549 16.8682C25.2625 17.2058 25.3758 17.6354 25.7123 17.8296L25.7123 17.8296Z" fill="white" fill-opacity="0.5"/>
<path id="Vector_8" d="M33.7361 24.0815H30.4057C30.018 24.0815 29.7056 24.3953 29.7056 24.7842C29.7056 25.1731 30.0179 25.4899 30.4041 25.4899H33.7361C34.122 25.4899 34.4355 25.1727 34.4355 24.7878C34.4355 24.3953 34.1222 24.0815 33.7361 24.0815H33.7361Z" fill="white" fill-opacity="0.5"/>
<path id="Vector_9" d="M21.7148 31.5426C25.4248 31.5426 28.4336 28.5171 28.4336 24.7881C28.4336 21.0562 25.425 18.0303 21.7148 18.0303C18.0027 18.0303 14.9966 21.0562 14.9966 24.7881C14.9968 28.517 18.0032 31.5426 21.7148 31.5426V31.5426Z" fill="white" fill-opacity="0.5"/>
<path id="Vector_10" d="M32.4775 30.2198L29.5936 28.5443C29.2582 28.3481 28.83 28.4663 28.6367 28.7994C28.4437 29.1414 28.557 29.5701 28.8942 29.7641L31.777 31.4374C31.8872 31.5042 32.0071 31.5349 32.1259 31.5349C32.3673 31.5349 32.6018 31.4085 32.7329 31.1823C32.9249 30.8441 32.8106 30.4148 32.4775 30.2198H32.4775Z" fill="white" fill-opacity="0.5"/>
<path id="Vector_11" d="M17.7216 31.7447C17.3868 31.5508 16.9586 31.6653 16.767 32.0019L15.1026 34.902C14.9088 35.2386 15.0224 35.6709 15.3564 35.8631C15.4666 35.9295 15.589 35.9591 15.7066 35.9591C15.9505 35.9591 16.1838 35.8326 16.315 35.6045L17.9784 32.7046C18.1724 32.3693 18.0577 31.9405 17.7216 31.7448L17.7216 31.7447Z" fill="white" fill-opacity="0.5"/>
<path id="Vector_12" d="M26.6666 32.0019C26.4747 31.6653 26.047 31.5508 25.7123 31.7447C25.3758 31.9405 25.2625 32.3693 25.4549 32.7045L27.121 35.6063C27.2508 35.8326 27.4854 35.9591 27.7264 35.9591C27.8474 35.9591 27.9674 35.9296 28.0771 35.8631C28.4113 35.6709 28.5262 35.2385 28.3321 34.902L26.6666 32.0019Z" fill="white" fill-opacity="0.5"/>
<path id="Vector_13" d="M21.7191 32.8198C21.3322 32.8198 21.0188 33.1354 21.0188 33.5252V36.8756C21.0188 37.2605 21.332 37.5777 21.7191 37.5777C22.1055 37.5777 22.4176 37.2605 22.4176 36.8756V33.5252C22.4176 33.1354 22.1055 32.8198 21.7191 32.8198Z" fill="white" fill-opacity="0.5"/>
</g>
</g>
</svg>
