<svg width="726" height="485" viewBox="0 0 726 485" fill="none" xmlns="http://www.w3.org/2000/svg">
<path d="M0.75 1.08301H255.957V483.917H4C2.20508 483.917 0.75 482.462 0.75 480.667V1.08301Z" fill="#202125" stroke="#1767D2" stroke-width="1.5"/>
<rect x="257.457" y="1.08301" width="343.45" height="482.834" fill="#202125" stroke="#1767D2" stroke-width="1.5"/>
<path d="M602.407 1.08301H725.25V480.667C725.25 482.462 723.795 483.917 722 483.917H602.407V1.08301Z" fill="#202125" stroke="#1767D2" stroke-width="1.5"/>
<g opacity="0.5">
<path d="M699.228 434.472H674.924C675.448 433.354 676.465 432.546 677.672 432.287C678.003 431.426 678.586 430.685 679.346 430.161C680.105 429.637 681.005 429.355 681.927 429.351C682.036 429.351 682.149 429.357 682.257 429.363C682.599 428.522 683.182 427.802 683.934 427.293C684.686 426.785 685.571 426.511 686.479 426.507C687.687 426.505 688.847 426.987 689.699 427.844C690.13 427.713 690.579 427.646 691.03 427.645C692.144 427.646 693.219 428.055 694.051 428.795C694.884 429.536 695.416 430.555 695.547 431.661C696.356 431.759 697.123 432.071 697.77 432.565C698.418 433.059 698.921 433.718 699.228 434.472L699.228 434.472ZM675.129 453.769C675.112 453.598 675.101 453.422 675.101 453.246C675.101 451.417 676.076 449.726 677.661 448.812C679.245 447.897 681.197 447.897 682.781 448.812C684.365 449.726 685.341 451.417 685.341 453.246C685.341 453.436 685.33 453.626 685.307 453.815H688.789H688.789C688.766 453.626 688.754 453.436 688.755 453.246C688.755 451.417 689.73 449.726 691.315 448.812C692.899 447.897 694.851 447.897 696.435 448.812C698.019 449.726 698.995 451.417 698.995 453.246C698.995 453.422 698.984 453.598 698.967 453.769C699.768 453.641 700.497 453.232 701.024 452.615C701.55 451.997 701.84 451.213 701.84 450.401V436.178C701.839 435.864 701.585 435.61 701.271 435.609H672.825C672.511 435.61 672.257 435.864 672.256 436.178V450.401C672.256 451.213 672.545 451.997 673.072 452.615C673.598 453.232 674.328 453.641 675.129 453.769H675.129ZM680.221 454.384C680.523 454.384 680.812 454.264 681.025 454.05C681.239 453.837 681.359 453.547 681.359 453.246C681.359 452.944 681.239 452.654 681.025 452.441C680.812 452.228 680.523 452.108 680.221 452.108C679.919 452.108 679.63 452.228 679.416 452.441C679.203 452.654 679.083 452.944 679.083 453.246C679.083 453.547 679.203 453.836 679.417 454.05C679.63 454.263 679.919 454.383 680.221 454.384L680.221 454.384ZM693.875 454.384C694.176 454.384 694.466 454.264 694.679 454.05C694.893 453.837 695.013 453.547 695.013 453.246C695.013 452.944 694.893 452.654 694.679 452.441C694.466 452.228 694.176 452.108 693.875 452.108C693.573 452.108 693.283 452.228 693.07 452.441C692.857 452.654 692.737 452.944 692.737 453.246C692.737 453.547 692.857 453.836 693.071 454.05C693.284 454.263 693.573 454.383 693.875 454.384L693.875 454.384ZM705.253 456.659V458.935C705.253 459.086 705.193 459.23 705.086 459.337C704.98 459.444 704.835 459.504 704.684 459.504H669.411C669.097 459.504 668.843 459.249 668.843 458.935V456.659C668.843 456.345 669.097 456.09 669.411 456.09H677.439C676.679 455.349 676.247 454.334 676.239 453.273C676.23 452.211 676.646 451.189 677.394 450.436C678.141 449.682 679.159 449.258 680.221 449.258C681.283 449.258 682.3 449.682 683.048 450.436C683.796 451.189 684.212 452.211 684.203 453.273C684.195 454.334 683.762 455.349 683.002 456.09H691.093C690.333 455.349 689.901 454.334 689.893 453.273C689.884 452.211 690.3 451.189 691.048 450.436C691.795 449.682 692.813 449.258 693.875 449.258C694.937 449.258 695.954 449.682 696.702 450.436C697.45 451.189 697.866 452.211 697.857 453.273C697.849 454.334 697.416 455.349 696.656 456.09H704.684C704.835 456.09 704.98 456.15 705.087 456.257C705.193 456.364 705.253 456.508 705.253 456.659H705.253ZM691.599 453.246C691.599 453.849 691.839 454.428 692.265 454.855C692.692 455.282 693.271 455.521 693.875 455.521C694.478 455.521 695.057 455.282 695.484 454.855C695.911 454.428 696.15 453.849 696.15 453.246C696.15 452.642 695.911 452.063 695.484 451.637C695.057 451.21 694.478 450.97 693.875 450.97C693.271 450.971 692.693 451.211 692.266 451.637C691.84 452.064 691.6 452.642 691.599 453.246ZM677.945 453.246C677.945 453.849 678.185 454.428 678.612 454.855C679.039 455.282 679.617 455.521 680.221 455.521C680.824 455.521 681.403 455.282 681.83 454.855C682.257 454.428 682.496 453.849 682.496 453.246C682.496 452.642 682.257 452.063 681.83 451.637C681.403 451.21 680.824 450.97 680.221 450.97C679.617 450.971 679.039 451.211 678.612 451.637C678.186 452.064 677.946 452.642 677.945 453.246Z" fill="white"/>
</g>
<g opacity="0.5">
<path d="M569.98 422.496C573.599 422.496 576.882 422.752 579.262 423.165C581.835 423.611 583.426 424.316 583.426 425.174C583.426 426.032 581.835 426.738 579.262 427.184C576.881 427.597 573.599 427.853 569.98 427.853C566.361 427.853 563.079 427.597 560.698 427.184C558.126 426.738 556.535 426.032 556.535 425.174C556.535 424.316 558.126 423.611 560.698 423.165C563.079 422.752 566.361 422.496 569.98 422.496V422.496Z" fill="white"/>
<path fill-rule="evenodd" clip-rule="evenodd" d="M566.943 443.193C567.924 443.222 568.94 443.238 569.981 443.238C571.02 443.238 572.035 443.222 573.015 443.193C573.764 443.164 574.488 443.123 575.183 443.073C576.844 442.954 578.339 442.779 579.592 442.561C580.921 442.331 581.985 442.035 582.7 441.69C583.033 441.529 583.279 441.368 583.426 441.21V426.635C582.315 427.477 580.379 427.839 579.405 428.008C578.001 428.251 576.568 428.402 575.147 428.507C573.429 428.633 571.703 428.689 569.981 428.689C568.258 428.689 566.532 428.633 564.814 428.507C563.393 428.402 561.96 428.251 560.556 428.008C559.582 427.839 557.646 427.477 556.535 426.635V441.21C556.683 441.368 556.928 441.529 557.261 441.69C557.976 442.035 559.04 442.33 560.37 442.561C561.622 442.779 563.118 442.954 564.778 443.073C565.472 443.123 566.195 443.164 566.943 443.193H566.943ZM566.743 438.58C566.462 437.835 566.416 436.9 566.734 435.78C567.11 434.451 568.005 432.842 569.645 430.96C569.798 430.75 570.127 430.726 570.296 430.932C571.945 432.821 572.846 434.435 573.225 435.769C573.544 436.891 573.498 437.828 573.217 438.575C572.928 439.343 572.394 439.903 571.746 440.255C570.673 440.838 569.287 440.841 568.212 440.258C567.567 439.908 567.033 439.349 566.743 438.581L566.743 438.58Z" fill="white"/>
<path fill-rule="evenodd" clip-rule="evenodd" d="M567.523 438.286C567.736 438.85 568.132 439.263 568.611 439.522C569.44 439.973 570.519 439.973 571.348 439.522C571.828 439.262 572.224 438.847 572.437 438.28C572.659 437.691 572.688 436.93 572.422 435.993C572.098 434.853 571.343 433.472 569.982 431.846C568.616 433.477 567.86 434.862 567.536 436.004C567.271 436.939 567.302 437.698 567.523 438.286H567.523Z" fill="white"/>
<path fill-rule="evenodd" clip-rule="evenodd" d="M572.422 452.098C572.098 450.957 571.343 449.576 569.982 447.95C568.616 449.582 567.86 450.966 567.536 452.109C567.271 453.044 567.302 453.802 567.523 454.39C567.736 454.955 568.132 455.367 568.611 455.627C569.44 456.077 570.519 456.077 571.348 455.627C571.828 455.366 572.224 454.952 572.437 454.384C572.659 453.795 572.688 453.035 572.422 452.098H572.422Z" fill="white"/>
<path fill-rule="evenodd" clip-rule="evenodd" d="M570.295 447.036C571.945 448.925 572.845 450.539 573.225 451.873C573.543 452.994 573.498 453.932 573.217 454.678C572.928 455.447 572.393 456.007 571.746 456.358C570.672 456.942 569.287 456.945 568.212 456.362C567.566 456.011 567.032 455.452 566.742 454.684C566.462 453.939 566.416 453.004 566.733 451.884C567.109 450.555 568.005 448.946 569.644 447.063C569.794 446.858 570.13 446.828 570.295 447.036L570.295 447.036ZM556.534 442.246V457.318C556.534 459.202 563.408 459.694 564.624 459.777C568.118 460.018 571.843 460.018 575.337 459.777C576.552 459.693 583.425 459.202 583.425 457.318V442.246C583.312 442.313 583.191 442.378 583.061 442.44C582.274 442.821 581.135 443.14 579.731 443.383C578.453 443.605 576.93 443.784 575.24 443.905C573.612 444.023 571.835 444.087 569.979 444.087C568.123 444.087 566.346 444.023 564.718 443.905C563.028 443.784 561.505 443.605 560.227 443.383C558.823 443.14 557.684 442.821 556.897 442.44C556.767 442.378 556.645 442.313 556.533 442.246H556.534Z" fill="white"/>
</g>
<g opacity="0.5">
<path fill-rule="evenodd" clip-rule="evenodd" d="M220.075 428.225H223.556V426.68H222.779C222.499 426.68 222.27 426.451 222.27 426.171V425.572C222.27 425.292 222.499 425.064 222.779 425.064H225.948C226.228 425.064 226.456 425.292 226.456 425.572V426.171C226.456 426.451 226.228 426.68 225.948 426.68H225.171V428.225H228.884V425.022C228.884 424.555 228.503 424.174 228.037 424.174H220.922C220.456 424.174 220.075 424.555 220.075 425.022V428.225H220.075ZM211.332 444.373H212.866V441.885H235.862V444.373H237.396C237.81 444.373 238.148 444.711 238.148 445.124V446.009C238.148 446.423 237.81 446.761 237.396 446.761H211.332C210.919 446.761 210.58 446.423 210.58 446.009V445.124C210.58 444.711 210.919 444.373 211.332 444.373H211.332ZM211.332 440.692H237.396C237.809 440.692 238.147 440.354 238.147 439.94V439.056C238.147 438.642 237.809 438.304 237.396 438.304H235.861V434.656C235.861 432.121 234.374 429.916 232.229 428.87V423.343C232.229 422.877 231.848 422.496 231.381 422.496H217.578C217.111 422.496 216.73 422.877 216.73 423.343V428.763C214.461 429.759 212.866 432.031 212.866 434.657V438.304H211.332C210.918 438.304 210.58 438.642 210.58 439.056V439.941C210.58 440.354 210.918 440.693 211.332 440.693L211.332 440.692ZM235.862 447.953V452.793C235.862 456.33 232.968 459.224 229.43 459.224H219.298C215.76 459.224 212.866 456.33 212.866 452.793V447.953H235.862H235.862Z" fill="white"/>
</g>
</svg>
