<svg width="483" height="586" viewBox="0 0 483 586" fill="none" xmlns="http://www.w3.org/2000/svg">
<rect x="5.5" y="1.5" width="472" height="158" rx="2.5" fill="#1767D2" stroke="#1767D2" stroke-width="3"/>
<g filter="url(#filter0_d_1090_1097)">
<rect x="4" y="154" width="475" height="424" rx="4" fill="#202125"/>
<rect x="5.5" y="155.5" width="472" height="421" rx="2.5" stroke="#1767D2" stroke-width="3"/>
</g>
<path d="M39.624 41V37.808H33.36L35.544 36.512C37.224 35.528 38.856 34.208 38.856 32.048C38.856 29.624 36.624 27.896 33.6 27.896C30.792 27.896 28.56 29.384 27.552 31.616L30.288 32.96C30.72 31.856 31.8 31.016 32.976 31.016C33.96 31.016 34.728 31.616 34.728 32.432C34.728 33.344 33.816 34.088 32.448 35.072L27.792 38.384V41H39.624ZM54.1611 37.256C54.1611 35.912 53.4411 34.952 51.6651 34.256C53.0571 33.656 53.8491 32.768 53.8491 31.568C53.8491 29.48 51.3291 27.896 47.7051 27.896C44.0331 27.896 41.3931 29.552 41.3931 31.928C41.3931 33.248 42.2091 34.184 43.6731 34.832C41.9211 35.384 40.9611 36.392 40.9611 37.664C40.9611 39.776 43.6011 41.336 47.5851 41.336C51.5211 41.336 54.1611 39.704 54.1611 37.256ZM48.5691 33.488C46.0491 33.08 45.3771 32.576 45.3771 31.928C45.3771 31.16 46.2651 30.632 47.5371 30.632C48.8571 30.632 49.8651 31.208 49.8651 32.168C49.8651 32.672 49.6011 33.176 49.0971 33.584C48.9291 33.56 48.7611 33.512 48.5691 33.488ZM47.6331 38.6C46.1211 38.6 45.0411 38.072 45.0411 37.184C45.0411 36.632 45.4251 36.032 46.1691 35.6C46.4811 35.648 46.7931 35.72 47.1291 35.768C49.3371 36.128 50.0811 36.608 50.0811 37.304C50.0811 38.096 49.0491 38.6 47.6331 38.6ZM59.8106 40.256V36.752H55.9706V40.76H57.6746C57.6746 41.84 57.0026 42.968 56.1866 43.88L57.6746 45.152C59.0426 43.784 59.8106 42.056 59.8106 40.256ZM72.7706 31.28V28.232H61.3226V31.592H68.6186L62.9786 41H67.4186L72.7706 31.28ZM85.5291 29.93L84.6831 29.084C83.8551 29.768 82.5951 30.2 81.3171 30.2C80.3811 30.2 79.3551 30.02 78.6351 29.768C78.1311 29.336 77.4651 29.084 76.7091 29.084C74.9811 29.084 73.7391 30.38 73.7391 32.162C73.7391 33.944 74.9811 35.222 76.7091 35.222C78.4371 35.222 79.6791 33.944 79.6791 32.162C79.6791 31.802 79.6251 31.442 79.5351 31.136C80.0931 31.388 80.7231 31.532 81.2811 31.532C81.8031 31.514 82.3791 31.352 82.9551 31.046L74.6751 40.406L75.5571 41.27L85.5291 29.93ZM86.5371 38.21C86.5371 36.428 85.2951 35.132 83.5671 35.132C81.8391 35.132 80.5971 36.428 80.5971 38.21C80.5971 39.992 81.8391 41.27 83.5671 41.27C85.2951 41.27 86.5371 39.992 86.5371 38.21ZM82.5591 38.21C82.5591 37.364 82.9911 36.752 83.5671 36.752C84.1611 36.752 84.5751 37.364 84.5751 38.21C84.5751 39.038 84.1611 39.632 83.5671 39.632C82.9911 39.632 82.5591 39.038 82.5591 38.21ZM75.7011 32.162C75.7011 31.316 76.1331 30.704 76.7091 30.704C77.3031 30.704 77.7171 31.316 77.7171 32.162C77.7171 32.99 77.3031 33.584 76.7091 33.584C76.1331 33.584 75.7011 32.99 75.7011 32.162Z" fill="white"/>
<path opacity="0.8" d="M35.064 60.068V58.682H30.24V54.776H36.288V53.354H28.584V65H30.24V60.068H35.064ZM45.6417 60.554C45.6417 57.818 43.8237 55.838 41.3217 55.838C38.8197 55.838 36.9837 57.818 36.9837 60.554C36.9837 63.254 38.8197 65.234 41.3217 65.234C43.8237 65.234 45.6417 63.254 45.6417 60.554ZM38.6037 60.554C38.6037 58.574 39.7377 57.116 41.3217 57.116C42.8877 57.116 44.0217 58.574 44.0217 60.554C44.0217 62.498 42.8877 63.938 41.3217 63.938C39.7377 63.938 38.6037 62.498 38.6037 60.554ZM55.2455 65V59.096C55.2455 57.188 53.9135 55.838 52.1675 55.838C50.8895 55.838 49.8095 56.594 49.2155 57.44V56.072H47.7395V65H49.2695V58.52C49.8275 57.728 50.7995 57.134 51.8075 57.134C52.9235 57.134 53.7155 57.962 53.7155 59.204V65H55.2455ZM62.8878 64.946V63.668C62.5098 63.812 61.8798 63.92 61.3218 63.92C60.1878 63.92 59.7378 63.362 59.7378 62.516V57.332H62.8338V56.072H59.7378V53.894H58.2078V56.072H56.8938V57.332H58.2078V62.768C58.2078 64.334 59.2698 65.234 61.0518 65.234C61.7178 65.234 62.4918 65.09 62.8878 64.946ZM66.1269 56.072H64.5969V65H66.1269V56.072ZM66.1269 52.526H64.5969V54.308H66.1269V52.526ZM80.45 65.144L80.522 63.974C80.414 63.992 80.234 64.01 80.126 64.01C79.586 64.01 79.316 63.632 79.316 63.146V59.042C79.316 56.972 78.056 55.838 76.112 55.838C74.564 55.838 73.214 56.702 72.566 58.106L73.754 58.592C74.204 57.746 74.906 57.116 75.968 57.116C77.066 57.116 77.786 57.872 77.786 58.988V59.69L75.698 59.942C73.718 60.194 72.314 61.148 72.314 62.804C72.314 64.226 73.448 65.234 75.032 65.234C76.292 65.234 77.282 64.622 77.858 63.668C78.074 64.694 78.74 65.234 79.748 65.234C80.018 65.234 80.234 65.198 80.45 65.144ZM75.446 63.992C74.546 63.992 73.916 63.452 73.916 62.696C73.916 61.778 74.78 61.238 75.968 61.094L77.786 60.878V62.516C77.318 63.38 76.436 63.992 75.446 63.992ZM94.4599 60.5C94.4599 57.8 92.8579 55.838 90.6619 55.838C89.6359 55.838 88.5019 56.414 87.8359 57.26V52.328H86.3059V65H87.7459V63.92C88.4299 64.694 89.5459 65.234 90.5179 65.234C92.8039 65.234 94.4599 63.254 94.4599 60.5ZM90.1579 63.956C89.2219 63.956 88.3219 63.47 87.8359 62.804V58.358C88.3219 57.62 89.2759 57.134 90.2479 57.134C91.7419 57.134 92.8399 58.538 92.8399 60.482C92.8399 62.48 91.7059 63.956 90.1579 63.956ZM103.987 65.144L104.059 63.974C103.951 63.992 103.771 64.01 103.663 64.01C103.123 64.01 102.853 63.632 102.853 63.146V59.042C102.853 56.972 101.593 55.838 99.6491 55.838C98.1011 55.838 96.7511 56.702 96.1031 58.106L97.2911 58.592C97.7411 57.746 98.4431 57.116 99.5051 57.116C100.603 57.116 101.323 57.872 101.323 58.988V59.69L99.2351 59.942C97.2551 60.194 95.8511 61.148 95.8511 62.804C95.8511 64.226 96.9851 65.234 98.5691 65.234C99.8291 65.234 100.819 64.622 101.395 63.668C101.611 64.694 102.277 65.234 103.285 65.234C103.555 65.234 103.771 65.198 103.987 65.144ZM98.9831 63.992C98.0831 63.992 97.4531 63.452 97.4531 62.696C97.4531 61.778 98.3171 61.238 99.5051 61.094L101.323 60.878V62.516C100.855 63.38 99.9731 63.992 98.9831 63.992ZM112.517 62.552C112.517 60.896 111.113 60.212 109.097 59.78C107.585 59.438 106.721 59.168 106.721 58.376C106.721 57.62 107.567 57.098 108.755 57.098C109.997 57.098 110.825 57.62 111.239 58.484L112.463 57.998C111.941 56.9 110.843 55.838 108.773 55.838C106.667 55.838 105.227 56.954 105.227 58.466C105.227 60.014 106.685 60.734 108.665 61.148C110.195 61.472 111.041 61.778 111.041 62.624C111.041 63.434 110.285 63.992 108.971 63.992C107.477 63.992 106.523 63.326 106.073 62.444L104.813 62.93C105.425 64.334 106.865 65.234 108.899 65.234C111.167 65.234 112.517 64.136 112.517 62.552ZM121.429 62.552C121.429 60.896 120.025 60.212 118.009 59.78C116.497 59.438 115.633 59.168 115.633 58.376C115.633 57.62 116.479 57.098 117.667 57.098C118.909 57.098 119.737 57.62 120.151 58.484L121.375 57.998C120.853 56.9 119.755 55.838 117.685 55.838C115.579 55.838 114.139 56.954 114.139 58.466C114.139 60.014 115.597 60.734 117.577 61.148C119.107 61.472 119.953 61.778 119.953 62.624C119.953 63.434 119.197 63.992 117.883 63.992C116.389 63.992 115.435 63.326 114.985 62.444L113.725 62.93C114.337 64.334 115.777 65.234 117.811 65.234C120.079 65.234 121.429 64.136 121.429 62.552ZM130.917 65.144L130.989 63.974C130.881 63.992 130.701 64.01 130.593 64.01C130.053 64.01 129.783 63.632 129.783 63.146V59.042C129.783 56.972 128.523 55.838 126.579 55.838C125.031 55.838 123.681 56.702 123.033 58.106L124.221 58.592C124.671 57.746 125.373 57.116 126.435 57.116C127.533 57.116 128.253 57.872 128.253 58.988V59.69L126.165 59.942C124.185 60.194 122.781 61.148 122.781 62.804C122.781 64.226 123.915 65.234 125.499 65.234C126.759 65.234 127.749 64.622 128.325 63.668C128.541 64.694 129.207 65.234 130.215 65.234C130.485 65.234 130.701 65.198 130.917 65.144ZM125.913 63.992C125.013 63.992 124.383 63.452 124.383 62.696C124.383 61.778 125.247 61.238 126.435 61.094L128.253 60.878V62.516C127.785 63.38 126.903 63.992 125.913 63.992ZM143.937 62.966L142.713 62.498C142.245 63.416 141.381 63.974 140.409 63.974C138.915 63.974 137.835 62.732 137.727 60.86H143.919C143.973 60.626 144.009 60.14 144.009 59.744C144.009 57.458 142.443 55.838 140.265 55.838C137.889 55.838 136.125 57.854 136.125 60.608C136.125 63.308 137.889 65.234 140.319 65.234C141.921 65.234 143.307 64.388 143.937 62.966ZM140.283 57.08C141.543 57.08 142.425 58.088 142.479 59.636H137.817C138.087 58.088 139.041 57.08 140.283 57.08ZM158.687 65V59.096C158.687 57.188 157.391 55.838 155.717 55.838C154.529 55.838 153.485 56.558 152.855 57.512C152.369 56.486 151.433 55.838 150.335 55.838C149.147 55.838 148.157 56.594 147.635 57.44V56.072H146.159V65H147.689V58.484C148.193 57.728 149.057 57.134 149.939 57.134C150.929 57.134 151.649 57.962 151.649 59.204V65H153.179V59.096C153.179 58.826 153.161 58.574 153.107 58.322C153.647 57.638 154.511 57.134 155.375 57.134C156.401 57.134 157.157 57.962 157.157 59.204V65H158.687ZM162.859 56.072H161.329V65H162.859V56.072ZM162.859 52.526H161.329V54.308H162.859V52.526ZM172.458 62.552C172.458 60.896 171.054 60.212 169.038 59.78C167.526 59.438 166.662 59.168 166.662 58.376C166.662 57.62 167.508 57.098 168.696 57.098C169.938 57.098 170.766 57.62 171.18 58.484L172.404 57.998C171.882 56.9 170.784 55.838 168.714 55.838C166.608 55.838 165.168 56.954 165.168 58.466C165.168 60.014 166.626 60.734 168.606 61.148C170.136 61.472 170.982 61.778 170.982 62.624C170.982 63.434 170.226 63.992 168.912 63.992C167.418 63.992 166.464 63.326 166.014 62.444L164.754 62.93C165.366 64.334 166.806 65.234 168.84 65.234C171.108 65.234 172.458 64.136 172.458 62.552ZM181.37 62.552C181.37 60.896 179.966 60.212 177.95 59.78C176.438 59.438 175.574 59.168 175.574 58.376C175.574 57.62 176.42 57.098 177.608 57.098C178.85 57.098 179.678 57.62 180.092 58.484L181.316 57.998C180.794 56.9 179.696 55.838 177.626 55.838C175.52 55.838 174.08 56.954 174.08 58.466C174.08 60.014 175.538 60.734 177.518 61.148C179.048 61.472 179.894 61.778 179.894 62.624C179.894 63.434 179.138 63.992 177.824 63.992C176.33 63.992 175.376 63.326 174.926 62.444L173.666 62.93C174.278 64.334 175.718 65.234 177.752 65.234C180.02 65.234 181.37 64.136 181.37 62.552ZM184.99 56.072H183.46V65H184.99V56.072ZM184.99 52.526H183.46V54.308H184.99V52.526ZM195.759 60.554C195.759 57.818 193.941 55.838 191.439 55.838C188.937 55.838 187.101 57.818 187.101 60.554C187.101 63.254 188.937 65.234 191.439 65.234C193.941 65.234 195.759 63.254 195.759 60.554ZM188.721 60.554C188.721 58.574 189.855 57.116 191.439 57.116C193.005 57.116 194.139 58.574 194.139 60.554C194.139 62.498 193.005 63.938 191.439 63.938C189.855 63.938 188.721 62.498 188.721 60.554ZM205.363 65V59.096C205.363 57.188 204.031 55.838 202.285 55.838C201.007 55.838 199.927 56.594 199.333 57.44V56.072H197.857V65H199.387V58.52C199.945 57.728 200.917 57.134 201.925 57.134C203.041 57.134 203.833 57.962 203.833 59.204V65H205.363ZM215.198 62.966L213.974 62.498C213.506 63.416 212.642 63.974 211.67 63.974C210.176 63.974 209.096 62.732 208.988 60.86H215.18C215.234 60.626 215.27 60.14 215.27 59.744C215.27 57.458 213.704 55.838 211.526 55.838C209.15 55.838 207.386 57.854 207.386 60.608C207.386 63.308 209.15 65.234 211.58 65.234C213.182 65.234 214.568 64.388 215.198 62.966ZM211.544 57.08C212.804 57.08 213.686 58.088 213.74 59.636H209.078C209.348 58.088 210.302 57.08 211.544 57.08ZM31.932 85.956C30.438 85.956 29.376 84.534 29.376 82.59C29.376 80.592 30.492 79.134 32.04 79.134C32.994 79.134 33.876 79.566 34.344 80.25V84.66C33.822 85.434 32.868 85.956 31.932 85.956ZM35.874 87V74.328H34.344V79.044C33.732 78.324 32.688 77.838 31.716 77.838C29.412 77.838 27.738 79.836 27.738 82.608C27.738 85.29 29.358 87.234 31.59 87.234C32.616 87.234 33.768 86.604 34.434 85.722V87H35.874ZM40.1816 78.072H38.6516V87H40.1816V78.072ZM40.1816 74.526H38.6516V76.308H40.1816V74.526ZM54.0367 84.804L52.7407 84.3C52.3087 85.29 51.5887 85.92 50.5987 85.92C49.1407 85.92 48.0787 84.534 48.0787 82.608C48.0787 80.592 49.1047 79.134 50.5267 79.134C51.4267 79.134 52.2007 79.692 52.6327 80.736L53.9647 80.196C53.3347 78.756 52.1287 77.838 50.4907 77.838C48.1507 77.838 46.4587 79.836 46.4587 82.608C46.4587 85.29 48.1687 87.234 50.5447 87.234C52.1827 87.234 53.4607 86.208 54.0367 84.804ZM63.2938 87.144L63.3658 85.974C63.2578 85.992 63.0778 86.01 62.9698 86.01C62.4298 86.01 62.1598 85.632 62.1598 85.146V81.042C62.1598 78.972 60.8998 77.838 58.9558 77.838C57.4078 77.838 56.0578 78.702 55.4098 80.106L56.5978 80.592C57.0478 79.746 57.7498 79.116 58.8118 79.116C59.9098 79.116 60.6298 79.872 60.6298 80.988V81.69L58.5418 81.942C56.5618 82.194 55.1578 83.148 55.1578 84.804C55.1578 86.226 56.2918 87.234 57.8758 87.234C59.1358 87.234 60.1258 86.622 60.7018 85.668C60.9178 86.694 61.5838 87.234 62.5918 87.234C62.8618 87.234 63.0778 87.198 63.2938 87.144ZM58.2898 85.992C57.3898 85.992 56.7598 85.452 56.7598 84.696C56.7598 83.778 57.6238 83.238 58.8118 83.094L60.6298 82.878V84.516C60.1618 85.38 59.2798 85.992 58.2898 85.992ZM66.5312 87V81.672C66.6752 80.484 67.3952 79.368 68.7812 79.368C69.0872 79.368 69.5192 79.422 69.7712 79.494V77.982C69.5912 77.91 69.1592 77.838 68.8532 77.838C67.8092 77.838 66.8372 78.756 66.4772 79.89V78.072H65.0012V87H66.5312ZM79.6767 82.5C79.6767 79.8 78.0747 77.838 75.8787 77.838C74.8527 77.838 73.7187 78.414 73.0527 79.26V74.328H71.5227V87H72.9627V85.92C73.6467 86.694 74.7627 87.234 75.7347 87.234C78.0207 87.234 79.6767 85.254 79.6767 82.5ZM75.3747 85.956C74.4387 85.956 73.5387 85.47 73.0527 84.804V80.358C73.5387 79.62 74.4927 79.134 75.4647 79.134C76.9587 79.134 78.0567 80.538 78.0567 82.482C78.0567 84.48 76.9227 85.956 75.3747 85.956ZM89.7979 82.554C89.7979 79.818 87.9799 77.838 85.4779 77.838C82.9759 77.838 81.1399 79.818 81.1399 82.554C81.1399 85.254 82.9759 87.234 85.4779 87.234C87.9799 87.234 89.7979 85.254 89.7979 82.554ZM82.7599 82.554C82.7599 80.574 83.8939 79.116 85.4779 79.116C87.0439 79.116 88.1779 80.574 88.1779 82.554C88.1779 84.498 87.0439 85.938 85.4779 85.938C83.8939 85.938 82.7599 84.498 82.7599 82.554ZM99.4018 87V81.096C99.4018 79.188 98.0698 77.838 96.3238 77.838C95.0458 77.838 93.9658 78.594 93.3718 79.44V78.072H91.8958V87H93.4258V80.52C93.9838 79.728 94.9558 79.134 95.9638 79.134C97.0798 79.134 97.8718 79.962 97.8718 81.204V87H99.4018ZM103.604 78.072H102.074V87H103.604V78.072ZM103.604 74.526H102.074V76.308H103.604V74.526ZM114.372 82.554C114.372 79.818 112.554 77.838 110.052 77.838C107.55 77.838 105.714 79.818 105.714 82.554C105.714 85.254 107.55 87.234 110.052 87.234C112.554 87.234 114.372 85.254 114.372 82.554ZM107.334 82.554C107.334 80.574 108.468 79.116 110.052 79.116C111.618 79.116 112.752 80.574 112.752 82.554C112.752 84.498 111.618 85.938 110.052 85.938C108.468 85.938 107.334 84.498 107.334 82.554Z" fill="white"/>
<g opacity="0.5">
<path d="M441.941 66.4903C441.569 66.1188 441.569 65.5156 441.942 65.1446C442.313 64.7731 442.916 64.7731 443.288 65.1446L446.71 68.5684V67.2227V67.2127L446.709 63.3597L441.944 58.5908C441.572 58.2183 441.574 57.6162 441.945 57.244C442.317 56.8726 442.919 56.8726 443.292 57.2451L446.709 60.665V59.3225V59.3168L446.707 52.7481C446.706 52.2223 447.133 51.7968 447.659 51.7968C448.184 51.7968 448.611 52.2223 448.611 52.7481L448.612 57.0187L452.034 53.5934C452.406 53.2209 453.009 53.2198 453.38 53.5923C453.753 53.9638 453.753 54.567 453.382 54.9392L448.613 59.7133L448.614 62.9459V62.9943V64.9174L452.038 61.4935C452.409 61.121 453.012 61.1221 453.383 61.4924C453.756 61.8649 453.756 62.467 453.384 62.8392L448.613 67.6113L448.616 70.864V70.8754L448.617 76.6039C454.854 73.862 459.003 67.4688 459 60.4647C459 53.237 454.58 46.6464 448.001 44.0661C447.778 43.9769 447.53 43.979 447.305 44.0661C440.731 46.6504 436.315 53.2419 436.317 60.4684C436.317 67.4734 440.472 73.8659 446.713 76.6048L446.712 71.2628L441.941 66.4903Z" fill="white"/>
<path d="M422.952 79.1974C422.427 79.1974 422 79.624 422 80.1498C422 80.6745 422.427 81.1011 422.952 81.1011H425.219C425.382 82.5769 426.62 83.7317 428.138 83.7317H431.192C432.82 83.7317 434.143 82.4078 434.143 80.7796V79.1086C435.837 79.187 436.299 79.6154 437.396 81.9611C438.604 84.5454 440.083 86.1436 441.792 86.7114C442.244 86.8625 442.702 86.9359 443.168 86.9359C443.97 86.9359 444.791 86.7132 445.62 86.2679C447.717 85.1439 448.724 82.0292 448.616 77.0068V76.6045C448.415 76.6927 448.216 76.7887 448.01 76.8703C447.899 76.9144 447.781 76.9351 447.663 76.9351C447.545 76.9351 447.427 76.9144 447.315 76.8703C447.11 76.7897 446.914 76.6937 446.712 76.6056V77.0276C446.712 77.0297 446.714 77.0308 446.714 77.0344C446.714 77.039 446.712 77.0433 446.712 77.0483C446.832 82.6159 445.517 84.1622 444.721 84.5898C443.879 85.0408 443.116 85.1429 442.393 84.9029C440.907 84.4104 439.795 82.5916 439.122 81.1534C437.738 78.192 436.757 77.3481 434.145 77.2102V75.2979C434.145 73.6711 432.821 72.3472 431.194 72.3472L428.138 72.3475C426.625 72.3475 425.388 73.4958 425.219 74.9651H422.952C422.427 74.9651 422 75.3917 422 75.9176C422 76.4423 422.427 76.8689 422.952 76.8689H425.186V79.1977H422.952L422.952 79.1974Z" fill="white"/>
</g>
<path d="M38.88 503.28V500.232H27.432V503.592H34.728L29.088 513H33.528L38.88 503.28ZM44.8224 500.232L39.9024 502.176L40.9104 504.888L43.9344 503.808V509.904H40.4544V513H50.9664V509.904H47.8944V500.232H44.8224ZM63.5141 501.93L62.6861 501.102C61.8941 501.768 60.6161 502.236 59.3741 502.236C58.4381 502.236 57.3581 502.056 56.6201 501.786C56.1161 501.354 55.4681 501.102 54.7121 501.102C53.0381 501.102 51.8141 502.38 51.8141 504.144C51.8141 505.908 53.0381 507.186 54.7121 507.186C56.4041 507.186 57.6281 505.908 57.6281 504.144C57.6281 503.748 57.5741 503.388 57.4661 503.064C58.0601 503.334 58.7261 503.478 59.3021 503.478C59.8601 503.46 60.4541 503.28 61.0301 502.974L52.6961 512.424L53.5601 513.252L63.5141 501.93ZM64.4501 510.21C64.4501 508.446 63.2441 507.168 61.5521 507.168C59.8601 507.168 58.6541 508.446 58.6541 510.21C58.6541 511.974 59.8601 513.252 61.5521 513.252C63.2441 513.252 64.4501 511.974 64.4501 510.21ZM60.4721 510.21C60.4721 509.31 60.9221 508.662 61.5521 508.662C62.1821 508.662 62.6501 509.31 62.6501 510.21C62.6501 511.11 62.1821 511.758 61.5521 511.758C60.9221 511.758 60.4721 511.11 60.4721 510.21ZM53.6321 504.144C53.6321 503.244 54.0821 502.596 54.7121 502.596C55.3601 502.596 55.8101 503.244 55.8101 504.144C55.8101 505.044 55.3601 505.692 54.7121 505.692C54.0821 505.692 53.6321 505.044 53.6321 504.144Z" fill="white"/>
<path d="M35.064 530.068V528.682H30.24V524.776H36.288V523.354H28.584V535H30.24V530.068H35.064ZM45.6417 530.554C45.6417 527.818 43.8237 525.838 41.3217 525.838C38.8197 525.838 36.9837 527.818 36.9837 530.554C36.9837 533.254 38.8197 535.234 41.3217 535.234C43.8237 535.234 45.6417 533.254 45.6417 530.554ZM38.6037 530.554C38.6037 528.574 39.7377 527.116 41.3217 527.116C42.8877 527.116 44.0217 528.574 44.0217 530.554C44.0217 532.498 42.8877 533.938 41.3217 533.938C39.7377 533.938 38.6037 532.498 38.6037 530.554ZM55.2455 535V529.096C55.2455 527.188 53.9135 525.838 52.1675 525.838C50.8895 525.838 49.8095 526.594 49.2155 527.44V526.072H47.7395V535H49.2695V528.52C49.8275 527.728 50.7995 527.134 51.8075 527.134C52.9235 527.134 53.7155 527.962 53.7155 529.204V535H55.2455ZM62.8878 534.946V533.668C62.5098 533.812 61.8798 533.92 61.3218 533.92C60.1878 533.92 59.7378 533.362 59.7378 532.516V527.332H62.8338V526.072H59.7378V523.894H58.2078V526.072H56.8938V527.332H58.2078V532.768C58.2078 534.334 59.2698 535.234 61.0518 535.234C61.7178 535.234 62.4918 535.09 62.8878 534.946ZM66.1269 526.072H64.5969V535H66.1269V526.072ZM66.1269 522.526H64.5969V524.308H66.1269V522.526ZM76.598 533.956C75.104 533.956 74.042 532.534 74.042 530.59C74.042 528.592 75.158 527.134 76.706 527.134C77.66 527.134 78.542 527.566 79.01 528.25V532.66C78.488 533.434 77.534 533.956 76.598 533.956ZM80.54 535V522.328H79.01V527.044C78.398 526.324 77.354 525.838 76.382 525.838C74.078 525.838 72.404 527.836 72.404 530.608C72.404 533.29 74.024 535.234 76.256 535.234C77.282 535.234 78.434 534.604 79.1 533.722V535H80.54ZM90.4816 532.966L89.2576 532.498C88.7896 533.416 87.9256 533.974 86.9536 533.974C85.4596 533.974 84.3796 532.732 84.2716 530.86H90.4636C90.5176 530.626 90.5536 530.14 90.5536 529.744C90.5536 527.458 88.9876 525.838 86.8096 525.838C84.4336 525.838 82.6696 527.854 82.6696 530.608C82.6696 533.308 84.4336 535.234 86.8636 535.234C88.4656 535.234 89.8516 534.388 90.4816 532.966ZM86.8276 527.08C88.0876 527.08 88.9696 528.088 89.0236 529.636H84.3616C84.6316 528.088 85.5856 527.08 86.8276 527.08ZM94.2344 535V529.672C94.3784 528.484 95.0984 527.368 96.4844 527.368C96.7904 527.368 97.2224 527.422 97.4744 527.494V525.982C97.2944 525.91 96.8624 525.838 96.5564 525.838C95.5124 525.838 94.5404 526.756 94.1804 527.89V526.072H92.7044V535H94.2344ZM100.756 526.072H99.2258V535H100.756V526.072ZM100.756 522.526H99.2258V524.308H100.756V522.526ZM102.524 526.072L105.746 535H107.33L110.534 526.072H108.986L106.61 533.02H106.556L104.18 526.072H102.524ZM119.509 535.144L119.581 533.974C119.473 533.992 119.293 534.01 119.185 534.01C118.645 534.01 118.375 533.632 118.375 533.146V529.042C118.375 526.972 117.115 525.838 115.171 525.838C113.623 525.838 112.273 526.702 111.625 528.106L112.813 528.592C113.263 527.746 113.965 527.116 115.027 527.116C116.125 527.116 116.845 527.872 116.845 528.988V529.69L114.757 529.942C112.777 530.194 111.373 531.148 111.373 532.804C111.373 534.226 112.507 535.234 114.091 535.234C115.351 535.234 116.341 534.622 116.917 533.668C117.133 534.694 117.799 535.234 118.807 535.234C119.077 535.234 119.293 535.198 119.509 535.144ZM114.505 533.992C113.605 533.992 112.975 533.452 112.975 532.696C112.975 531.778 113.839 531.238 115.027 531.094L116.845 530.878V532.516C116.377 533.38 115.495 533.992 114.505 533.992ZM126.292 534.946V533.668C125.914 533.812 125.284 533.92 124.726 533.92C123.592 533.92 123.142 533.362 123.142 532.516V527.332H126.238V526.072H123.142V523.894H121.612V526.072H120.298V527.332H121.612V532.768C121.612 534.334 122.674 535.234 124.456 535.234C125.122 535.234 125.896 535.09 126.292 534.946ZM135.077 532.966L133.853 532.498C133.385 533.416 132.521 533.974 131.549 533.974C130.055 533.974 128.975 532.732 128.867 530.86H135.059C135.113 530.626 135.149 530.14 135.149 529.744C135.149 527.458 133.583 525.838 131.405 525.838C129.029 525.838 127.265 527.854 127.265 530.608C127.265 533.308 129.029 535.234 131.459 535.234C133.061 535.234 134.447 534.388 135.077 532.966ZM131.423 527.08C132.683 527.08 133.565 528.088 133.619 529.636H128.957C129.227 528.088 130.181 527.08 131.423 527.08ZM144.995 533.956C143.501 533.956 142.438 532.534 142.438 530.59C142.438 528.592 143.555 527.134 145.103 527.134C146.057 527.134 146.939 527.566 147.407 528.25V532.66C146.885 533.434 145.931 533.956 144.995 533.956ZM148.937 535V522.328H147.407V527.044C146.795 526.324 145.751 525.838 144.779 525.838C142.475 525.838 140.801 527.836 140.801 530.608C140.801 533.29 142.421 535.234 144.653 535.234C145.679 535.234 146.831 534.604 147.497 533.722V535H148.937ZM159.112 535.144L159.184 533.974C159.076 533.992 158.896 534.01 158.788 534.01C158.248 534.01 157.978 533.632 157.978 533.146V529.042C157.978 526.972 156.718 525.838 154.774 525.838C153.226 525.838 151.876 526.702 151.228 528.106L152.416 528.592C152.866 527.746 153.568 527.116 154.63 527.116C155.728 527.116 156.448 527.872 156.448 528.988V529.69L154.36 529.942C152.38 530.194 150.976 531.148 150.976 532.804C150.976 534.226 152.11 535.234 153.694 535.234C154.954 535.234 155.944 534.622 156.52 533.668C156.736 534.694 157.402 535.234 158.41 535.234C158.68 535.234 158.896 535.198 159.112 535.144ZM154.108 533.992C153.208 533.992 152.578 533.452 152.578 532.696C152.578 531.778 153.442 531.238 154.63 531.094L156.448 530.878V532.516C155.98 533.38 155.098 533.992 154.108 533.992ZM171.898 532.804L170.602 532.3C170.17 533.29 169.45 533.92 168.46 533.92C167.002 533.92 165.94 532.534 165.94 530.608C165.94 528.592 166.966 527.134 168.388 527.134C169.288 527.134 170.062 527.692 170.494 528.736L171.826 528.196C171.196 526.756 169.99 525.838 168.352 525.838C166.012 525.838 164.32 527.836 164.32 530.608C164.32 533.29 166.03 535.234 168.406 535.234C170.044 535.234 171.322 534.208 171.898 532.804ZM181.749 530.554C181.749 527.818 179.931 525.838 177.429 525.838C174.927 525.838 173.091 527.818 173.091 530.554C173.091 533.254 174.927 535.234 177.429 535.234C179.931 535.234 181.749 533.254 181.749 530.554ZM174.711 530.554C174.711 528.574 175.845 527.116 177.429 527.116C178.995 527.116 180.129 528.574 180.129 530.554C180.129 532.498 178.995 533.938 177.429 533.938C175.845 533.938 174.711 532.498 174.711 530.554ZM196.375 535V529.096C196.375 527.188 195.079 525.838 193.405 525.838C192.217 525.838 191.173 526.558 190.543 527.512C190.057 526.486 189.121 525.838 188.023 525.838C186.835 525.838 185.845 526.594 185.323 527.44V526.072H183.847V535H185.377V528.484C185.881 527.728 186.745 527.134 187.627 527.134C188.617 527.134 189.337 527.962 189.337 529.204V535H190.867V529.096C190.867 528.826 190.849 528.574 190.795 528.322C191.335 527.638 192.199 527.134 193.063 527.134C194.089 527.134 194.845 527.962 194.845 529.204V535H196.375ZM207.171 530.5C207.171 527.8 205.569 525.838 203.373 525.838C202.347 525.838 201.213 526.414 200.547 527.26V522.328H199.017V535H200.457V533.92C201.141 534.694 202.257 535.234 203.229 535.234C205.515 535.234 207.171 533.254 207.171 530.5ZM202.869 533.956C201.933 533.956 201.033 533.47 200.547 532.804V528.358C201.033 527.62 201.987 527.134 202.959 527.134C204.453 527.134 205.551 528.538 205.551 530.482C205.551 532.48 204.417 533.956 202.869 533.956ZM216.5 535V526.072H214.97V532.228C214.52 533.218 213.656 533.938 212.594 533.938C211.496 533.938 210.704 533.074 210.704 531.868V526.072H209.174V531.976C209.174 533.866 210.434 535.234 212.162 535.234C213.476 535.234 214.502 534.478 215.024 533.524V535H216.5ZM226.089 532.552C226.089 530.896 224.685 530.212 222.669 529.78C221.157 529.438 220.293 529.168 220.293 528.376C220.293 527.62 221.139 527.098 222.327 527.098C223.569 527.098 224.397 527.62 224.811 528.484L226.035 527.998C225.513 526.9 224.415 525.838 222.345 525.838C220.239 525.838 218.799 526.954 218.799 528.466C218.799 530.014 220.257 530.734 222.237 531.148C223.767 531.472 224.613 531.778 224.613 532.624C224.613 533.434 223.857 533.992 222.543 533.992C221.049 533.992 220.095 533.326 219.645 532.444L218.385 532.93C218.997 534.334 220.437 535.234 222.471 535.234C224.739 535.234 226.089 534.136 226.089 532.552ZM233.185 534.946V533.668C232.807 533.812 232.177 533.92 231.619 533.92C230.485 533.92 230.035 533.362 230.035 532.516V527.332H233.131V526.072H230.035V523.894H228.505V526.072H227.191V527.332H228.505V532.768C228.505 534.334 229.567 535.234 231.349 535.234C232.015 535.234 232.789 535.09 233.185 534.946ZM236.424 526.072H234.894V535H236.424V526.072ZM236.424 522.526H234.894V524.308H236.424V522.526ZM247.354 530.5C247.354 527.8 245.752 525.838 243.556 525.838C242.53 525.838 241.396 526.414 240.73 527.26V522.328H239.2V535H240.64V533.92C241.324 534.694 242.44 535.234 243.412 535.234C245.698 535.234 247.354 533.254 247.354 530.5ZM243.052 533.956C242.116 533.956 241.216 533.47 240.73 532.804V528.358C241.216 527.62 242.17 527.134 243.142 527.134C244.636 527.134 245.734 528.538 245.734 530.482C245.734 532.48 244.6 533.956 243.052 533.956ZM251.014 526.072H249.484V535H251.014V526.072ZM251.014 522.526H249.484V524.308H251.014V522.526ZM255.32 522.328H253.79V535H255.32V522.328ZM259.627 526.072H258.097V535H259.627V526.072ZM259.627 522.526H258.097V524.308H259.627V522.526ZM33.624 549.332V548.072H30.366V547.712C30.366 546.236 31.104 545.372 32.292 545.372C32.778 545.372 33.372 545.462 33.768 545.624L33.804 544.346C33.39 544.22 32.67 544.094 32.13 544.094C30.078 544.094 28.836 545.444 28.836 547.73V548.072H27.684V549.332H28.836V557H30.366V549.332H33.624ZM42.7413 552.554C42.7413 549.818 40.9233 547.838 38.4213 547.838C35.9193 547.838 34.0833 549.818 34.0833 552.554C34.0833 555.254 35.9193 557.234 38.4213 557.234C40.9233 557.234 42.7413 555.254 42.7413 552.554ZM35.7033 552.554C35.7033 550.574 36.8373 549.116 38.4213 549.116C39.9873 549.116 41.1213 550.574 41.1213 552.554C41.1213 554.498 39.9873 555.938 38.4213 555.938C36.8373 555.938 35.7033 554.498 35.7033 552.554ZM51.6611 554.552C51.6611 552.896 50.2571 552.212 48.2411 551.78C46.7291 551.438 45.8651 551.168 45.8651 550.376C45.8651 549.62 46.7111 549.098 47.8991 549.098C49.1411 549.098 49.9691 549.62 50.3831 550.484L51.6071 549.998C51.0851 548.9 49.9871 547.838 47.9171 547.838C45.8111 547.838 44.3711 548.954 44.3711 550.466C44.3711 552.014 45.8291 552.734 47.8091 553.148C49.3391 553.472 50.1851 553.778 50.1851 554.624C50.1851 555.434 49.4291 555.992 48.1151 555.992C46.6211 555.992 45.6671 555.326 45.2171 554.444L43.9571 554.93C44.5691 556.334 46.0091 557.234 48.0431 557.234C50.3111 557.234 51.6611 556.136 51.6611 554.552ZM60.5732 554.552C60.5732 552.896 59.1692 552.212 57.1532 551.78C55.6412 551.438 54.7772 551.168 54.7772 550.376C54.7772 549.62 55.6232 549.098 56.8112 549.098C58.0532 549.098 58.8812 549.62 59.2952 550.484L60.5192 549.998C59.9972 548.9 58.8992 547.838 56.8292 547.838C54.7232 547.838 53.2832 548.954 53.2832 550.466C53.2832 552.014 54.7412 552.734 56.7212 553.148C58.2512 553.472 59.0972 553.778 59.0972 554.624C59.0972 555.434 58.3412 555.992 57.0272 555.992C55.5332 555.992 54.5792 555.326 54.1292 554.444L52.8692 554.93C53.4812 556.334 54.9212 557.234 56.9552 557.234C59.2232 557.234 60.5732 556.136 60.5732 554.552ZM64.1933 548.072H62.6633V557H64.1933V548.072ZM64.1933 544.526H62.6633V546.308H64.1933V544.526ZM68.5 544.328H66.97V557H68.5V544.328ZM72.8066 548.072H71.2766V557H72.8066V548.072ZM72.8066 544.526H71.2766V546.308H72.8066V544.526Z" fill="white"/>
<g opacity="0.5">
<path d="M456.935 554.428C457.142 554.428 457.348 554.453 457.549 554.502V534.911H454.736V553.708C454.9 553.952 455.074 554.191 455.255 554.428L456.935 554.428Z" fill="white"/>
<path d="M428.964 554.428C429.432 553.914 429.867 553.373 430.268 552.806V528.192H427.455V554.502C427.661 554.365 428.964 554.428 428.964 554.428V554.428Z" fill="white"/>
<path d="M455.255 554.427C455.074 554.191 454.9 553.952 454.736 553.707C451.797 549.323 451.498 543.815 451.484 542.016H445.352C445.328 543.813 445.117 545.601 444.722 547.354C445.591 549.832 446.919 552.358 448.947 554.427L455.255 554.427Z" fill="white"/>
<path d="M444.885 540.082H451.915C452.053 540.082 452.164 540.22 452.164 540.331V541.16C452.164 541.298 452.052 541.41 451.915 541.41H444.885C444.747 541.41 444.635 541.272 444.635 541.16V540.331C444.635 540.193 444.747 540.082 444.885 540.082Z" fill="white"/>
<path d="M447.357 554.428C442.272 548.519 441.908 540.096 441.913 537.729H434.597C434.595 539.842 434.275 547.174 430.267 552.806C429.866 553.373 429.431 553.914 428.964 554.428L447.357 554.428Z" fill="white"/>
<path d="M450.069 527.085C445.965 527.085 446.095 531.336 447.443 532.28C446.404 532.764 446.554 534.403 447.367 534.815C447.006 535.004 446.736 535.331 446.618 535.721C446.501 536.112 446.546 536.533 446.742 536.891C446.939 537.248 447.271 537.511 447.664 537.621C447.272 538.144 447.751 538.974 448.43 538.974V538.975C448.82 538.996 449.178 538.757 449.307 538.388C449.436 538.02 449.306 537.609 448.988 537.383C449.379 537.097 449.61 536.642 449.611 536.157C451.775 536.578 452.944 534.286 452.062 532.928C454.735 530.914 453.235 527.085 450.069 527.085L450.069 527.085Z" fill="white"/>
<path d="M430.676 513C426.572 513 426.702 517.251 428.05 518.194C427.011 518.679 427.161 520.318 427.974 520.729C427.612 520.919 427.343 521.245 427.225 521.636C427.108 522.027 427.152 522.448 427.349 522.806C427.546 523.163 427.878 523.426 428.271 523.535C427.879 524.059 428.358 524.889 429.037 524.889C429.427 524.911 429.785 524.672 429.914 524.303C430.043 523.934 429.913 523.524 429.595 523.298C429.986 523.012 430.217 522.557 430.218 522.072C432.382 522.493 433.551 520.201 432.669 518.843C435.341 516.829 433.841 513 430.676 513L430.676 513Z" fill="white"/>
<path d="M457.616 534.314C457.806 534.32 457.99 534.248 458.127 534.116C458.263 533.984 458.34 533.802 458.34 533.612C458.34 533.422 458.263 533.24 458.127 533.108C457.99 532.975 457.806 532.904 457.616 532.91H454.665C454.476 532.904 454.292 532.975 454.155 533.108C454.019 533.24 453.942 533.422 453.942 533.612C453.942 533.802 454.019 533.984 454.155 534.116C454.292 534.248 454.476 534.32 454.665 534.314H457.616Z" fill="white"/>
<path d="M433.773 535.47H442.551H442.551C442.723 535.47 442.863 535.61 442.863 535.782V536.817C442.863 536.99 442.723 537.13 442.551 537.13H433.773C433.6 537.13 433.46 536.99 433.46 536.817V535.782C433.46 535.61 433.6 535.47 433.773 535.47H433.773Z" fill="white"/>
<path d="M430.333 527.597C430.522 527.603 430.707 527.531 430.843 527.399C430.979 527.267 431.056 527.085 431.056 526.895C431.056 526.705 430.979 526.524 430.843 526.391C430.707 526.259 430.522 526.187 430.333 526.193H427.382C427.192 526.187 427.009 526.259 426.872 526.391C426.736 526.524 426.659 526.705 426.659 526.895C426.659 527.085 426.736 527.267 426.872 527.399C427.009 527.531 427.192 527.603 427.382 527.597H430.333Z" fill="white"/>
<path d="M456.87 559.161C459.753 559.161 459.667 555.028 456.87 555.028H428.13C425.247 555.028 425.333 559.161 428.13 559.161H456.87Z" fill="white"/>
</g>
<defs>
<filter id="filter0_d_1090_1097" x="0" y="154" width="483" height="432" filterUnits="userSpaceOnUse" color-interpolation-filters="sRGB">
<feFlood flood-opacity="0" result="BackgroundImageFix"/>
<feColorMatrix in="SourceAlpha" type="matrix" values="0 0 0 0 0 0 0 0 0 0 0 0 0 0 0 0 0 0 127 0" result="hardAlpha"/>
<feOffset dy="4"/>
<feGaussianBlur stdDeviation="2"/>
<feComposite in2="hardAlpha" operator="out"/>
<feColorMatrix type="matrix" values="0 0 0 0 0 0 0 0 0 0 0 0 0 0 0 0 0 0 0.25 0"/>
<feBlend mode="normal" in2="BackgroundImageFix" result="effect1_dropShadow_1090_1097"/>
<feBlend mode="normal" in="SourceGraphic" in2="effect1_dropShadow_1090_1097" result="shape"/>
</filter>
</defs>
</svg>
