<svg width="726" height="503" viewBox="0 0 726 503" fill="none" xmlns="http://www.w3.org/2000/svg">
<rect x="1.5" y="15.5" width="723" height="484" rx="2.5" fill="#202125" stroke="#1767D2" stroke-width="3"/>
<g opacity="0.5">
<path d="M698.302 452.943H674.065C674.588 451.828 675.601 451.022 676.805 450.764C677.135 449.906 677.717 449.166 678.474 448.644C679.232 448.122 680.129 447.84 681.049 447.837C681.157 447.837 681.27 447.842 681.378 447.848C681.719 447.01 682.3 446.291 683.05 445.784C683.8 445.277 684.683 445.004 685.588 445C686.793 444.998 687.949 445.478 688.799 446.333C689.229 446.203 689.677 446.136 690.126 446.135C691.237 446.136 692.309 446.544 693.139 447.282C693.969 448.02 694.5 449.037 694.631 450.14C695.437 450.238 696.203 450.549 696.848 451.041C697.494 451.534 697.996 452.191 698.302 452.943L698.302 452.943ZM674.269 472.187C674.252 472.017 674.241 471.841 674.241 471.665C674.241 469.841 675.214 468.155 676.794 467.243C678.374 466.331 680.32 466.331 681.9 467.243C683.48 468.155 684.453 469.841 684.453 471.665C684.453 471.855 684.442 472.044 684.419 472.233H687.891H687.891C687.868 472.044 687.857 471.855 687.857 471.665C687.857 469.841 688.83 468.155 690.41 467.243C691.99 466.331 693.936 466.331 695.516 467.243C697.096 468.155 698.069 469.841 698.069 471.665C698.069 471.841 698.058 472.017 698.041 472.187C698.84 472.06 699.568 471.652 700.093 471.036C700.618 470.42 700.906 469.638 700.906 468.828V454.645C700.905 454.332 700.652 454.078 700.339 454.077H671.971C671.658 454.078 671.405 454.332 671.404 454.645V468.828C671.404 469.638 671.693 470.42 672.218 471.036C672.743 471.652 673.47 472.06 674.269 472.187H674.269ZM679.347 472.8C679.648 472.8 679.937 472.68 680.149 472.468C680.362 472.255 680.482 471.966 680.482 471.665C680.482 471.364 680.362 471.076 680.149 470.863C679.937 470.65 679.648 470.531 679.347 470.531C679.046 470.531 678.757 470.65 678.545 470.863C678.332 471.076 678.212 471.364 678.212 471.665C678.213 471.966 678.332 472.254 678.545 472.467C678.758 472.68 679.046 472.799 679.347 472.8L679.347 472.8ZM692.963 472.8C693.264 472.8 693.553 472.68 693.766 472.468C693.978 472.255 694.098 471.966 694.098 471.665C694.098 471.364 693.978 471.076 693.766 470.863C693.553 470.65 693.264 470.531 692.963 470.531C692.662 470.531 692.374 470.65 692.161 470.863C691.948 471.076 691.829 471.364 691.829 471.665C691.829 471.966 691.949 472.254 692.161 472.467C692.374 472.68 692.662 472.799 692.963 472.8L692.963 472.8ZM704.31 475.069V477.339C704.31 477.489 704.25 477.633 704.144 477.74C704.038 477.846 703.893 477.906 703.743 477.906H668.567C668.254 477.906 668 477.652 668 477.339V475.069C668 474.756 668.254 474.502 668.567 474.502H676.573C675.815 473.762 675.384 472.751 675.376 471.692C675.367 470.633 675.782 469.615 676.527 468.863C677.273 468.111 678.288 467.688 679.347 467.688C680.406 467.688 681.421 468.111 682.166 468.863C682.912 469.615 683.327 470.633 683.318 471.692C683.31 472.751 682.879 473.762 682.121 474.502H690.19C689.432 473.762 689.001 472.751 688.992 471.692C688.984 470.633 689.398 469.615 690.144 468.863C690.89 468.111 691.904 467.688 692.963 467.688C694.022 467.688 695.037 468.111 695.783 468.863C696.529 469.615 696.943 470.633 696.935 471.692C696.926 472.751 696.495 473.762 695.737 474.502H703.743C703.893 474.502 704.038 474.562 704.144 474.668C704.251 474.774 704.31 474.919 704.31 475.069H704.31ZM690.694 471.665C690.694 472.267 690.933 472.844 691.358 473.27C691.784 473.695 692.361 473.935 692.963 473.935C693.565 473.935 694.142 473.695 694.568 473.27C694.993 472.844 695.233 472.267 695.233 471.665C695.233 471.063 694.993 470.486 694.568 470.06C694.142 469.635 693.565 469.396 692.963 469.396C692.361 469.396 691.785 469.636 691.359 470.061C690.934 470.487 690.694 471.063 690.694 471.665ZM677.078 471.665C677.078 472.267 677.317 472.844 677.742 473.27C678.168 473.695 678.745 473.935 679.347 473.935C679.949 473.935 680.526 473.695 680.952 473.27C681.377 472.844 681.616 472.267 681.616 471.665C681.616 471.063 681.377 470.486 680.952 470.06C680.526 469.635 679.949 469.396 679.347 469.396C678.745 469.396 678.168 469.636 677.743 470.061C677.317 470.487 677.078 471.063 677.078 471.665Z" fill="white"/>
</g>
<g opacity="0.5">
<path d="M569.41 441C573.019 441 576.292 441.255 578.666 441.667C581.232 442.112 582.818 442.815 582.818 443.671C582.818 444.527 581.232 445.23 578.666 445.675C576.292 446.087 573.019 446.342 569.41 446.342C565.801 446.342 562.528 446.087 560.154 445.675C557.588 445.23 556.002 444.527 556.002 443.671C556.002 442.815 557.588 442.112 560.154 441.667C562.528 441.255 565.801 441 569.41 441Z" fill="white"/>
<path fill-rule="evenodd" clip-rule="evenodd" d="M566.381 461.64C567.359 461.669 568.372 461.684 569.41 461.684C570.447 461.684 571.459 461.669 572.437 461.64C573.183 461.61 573.905 461.57 574.598 461.52C576.255 461.401 577.746 461.226 578.995 461.01C580.321 460.78 581.382 460.485 582.095 460.14C582.427 459.98 582.672 459.82 582.819 459.662V445.127C581.711 445.967 579.78 446.328 578.809 446.496C577.409 446.739 575.98 446.89 574.563 446.994C572.85 447.12 571.128 447.175 569.41 447.175C567.693 447.175 565.971 447.12 564.258 446.994C562.841 446.89 561.412 446.739 560.011 446.496C559.041 446.328 557.11 445.967 556.002 445.127V459.662C556.149 459.82 556.394 459.98 556.726 460.14C557.439 460.485 558.5 460.779 559.826 461.01C561.075 461.226 562.566 461.401 564.223 461.52C564.914 461.57 565.636 461.61 566.382 461.64H566.381ZM566.182 457.039C565.902 456.296 565.856 455.364 566.172 454.247C566.548 452.921 567.44 451.317 569.075 449.44C569.228 449.231 569.556 449.207 569.724 449.413C571.37 451.296 572.268 452.906 572.646 454.236C572.964 455.355 572.918 456.289 572.638 457.034C572.35 457.8 571.817 458.359 571.171 458.71C570.101 459.291 568.719 459.294 567.647 458.713C567.003 458.364 566.471 457.806 566.181 457.04L566.182 457.039Z" fill="white"/>
<path fill-rule="evenodd" clip-rule="evenodd" d="M566.96 456.746C567.172 457.309 567.567 457.721 568.044 457.98C568.872 458.429 569.947 458.429 570.774 457.98C571.252 457.72 571.647 457.307 571.86 456.741C572.081 456.154 572.111 455.395 571.845 454.46C571.522 453.323 570.769 451.946 569.411 450.324C568.049 451.951 567.295 453.332 566.973 454.471C566.709 455.404 566.739 456.161 566.96 456.746H566.96Z" fill="white"/>
<path fill-rule="evenodd" clip-rule="evenodd" d="M571.845 470.52C571.522 469.383 570.769 468.006 569.411 466.384C568.049 468.011 567.295 469.392 566.973 470.531C566.709 471.463 566.739 472.22 566.96 472.806C567.172 473.369 567.567 473.78 568.044 474.039C568.872 474.488 569.947 474.489 570.774 474.039C571.252 473.78 571.647 473.366 571.86 472.8C572.081 472.213 572.111 471.454 571.845 470.52H571.845Z" fill="white"/>
<path fill-rule="evenodd" clip-rule="evenodd" d="M569.724 465.472C571.369 467.355 572.267 468.965 572.645 470.295C572.963 471.414 572.918 472.349 572.638 473.093C572.35 473.859 571.816 474.418 571.171 474.769C570.1 475.351 568.718 475.353 567.647 474.772C567.003 474.423 566.47 473.865 566.181 473.099C565.901 472.356 565.855 471.423 566.171 470.307C566.547 468.981 567.44 467.377 569.074 465.499C569.224 465.294 569.56 465.264 569.724 465.472L569.724 465.472ZM556.001 460.695V475.726C556.001 477.604 562.856 478.095 564.068 478.178C567.552 478.418 571.267 478.418 574.752 478.178C575.964 478.094 582.817 477.604 582.817 475.726V460.695C582.705 460.762 582.585 460.827 582.455 460.889C581.67 461.268 580.534 461.587 579.134 461.83C577.859 462.051 576.34 462.229 574.655 462.35C573.032 462.467 571.26 462.532 569.409 462.532C567.558 462.532 565.785 462.467 564.162 462.35C562.477 462.229 560.958 462.051 559.684 461.83C558.284 461.587 557.148 461.268 556.362 460.889C556.233 460.827 556.112 460.762 556 460.695H556.001Z" fill="white"/>
</g>
<g opacity="0.5">
<path fill-rule="evenodd" clip-rule="evenodd" d="M220.469 446.713H223.94V445.172H223.165C222.886 445.172 222.658 444.944 222.658 444.665V444.067C222.658 443.789 222.886 443.561 223.165 443.561H226.326C226.604 443.561 226.832 443.789 226.832 444.067V444.665C226.832 444.944 226.604 445.172 226.326 445.172H225.551V446.713H229.254V443.518C229.254 443.054 228.873 442.673 228.408 442.673H221.314C220.849 442.673 220.468 443.054 220.468 443.518V446.713H220.469ZM211.75 462.816H213.28V460.335H236.212V462.816H237.742C238.154 462.816 238.492 463.153 238.492 463.566V464.448C238.492 464.861 238.154 465.198 237.742 465.198H211.75C211.338 465.198 211 464.861 211 464.448V463.566C211 463.153 211.338 462.816 211.75 462.816H211.75ZM211.75 459.146H237.742C238.154 459.146 238.491 458.808 238.491 458.396V457.514C238.491 457.102 238.154 456.764 237.742 456.764H236.212V453.127C236.212 450.598 234.728 448.4 232.589 447.357V441.845C232.589 441.38 232.209 441 231.744 441H217.978C217.513 441 217.133 441.38 217.133 441.845V447.25C214.87 448.243 213.28 450.508 213.28 453.127V456.765H211.75C211.337 456.765 211 457.102 211 457.514V458.396C211 458.809 211.337 459.146 211.75 459.146L211.75 459.146ZM236.212 466.387V471.213C236.212 474.741 233.326 477.627 229.798 477.627H219.693C216.166 477.627 213.28 474.741 213.28 471.213V466.387H236.212H236.212Z" fill="white"/>
</g>
<path d="M257 1.99999L257 501" stroke="#1767D2" stroke-width="3" stroke-linecap="round"/>
<path d="M601 2.00001L601 501" stroke="#1767D2" stroke-width="3" stroke-linecap="round"/>
</svg>
