<svg width="726" height="154" viewBox="0 0 726 154" fill="none" xmlns="http://www.w3.org/2000/svg">
<rect x="70" width="45" height="154" fill="#1767D2"/>
<path d="M0 4C0 1.79086 1.79086 0 4 0H68V154H0V4Z" fill="#1767D2"/>
<rect x="117" width="151" height="154" fill="#1767D2"/>
<rect x="270" width="196" height="154" fill="#1767D2"/>
<path d="M468 0H722C724.209 0 726 1.79086 726 4V154H468V0Z" fill="#1767D2"/>
<path d="M444.791 117.272L438.552 103.665C438.367 103.255 437.982 103 437.544 103C437.117 103 436.727 103.261 436.542 103.665L430.308 117.272C429.607 118.811 429 120.139 429 122.243C429 127.159 432.834 131.156 437.544 131.156C442.26 131.156 446.094 127.159 446.094 122.243C446.099 120.134 445.461 118.744 444.791 117.272ZM442.877 118.362L437.713 127.746C437.713 127.746 437.713 127.751 437.708 127.751C437.571 127.989 437.349 128.128 437.112 128.128C437.001 128.128 436.89 128.094 436.795 128.033C436.505 127.862 436.347 127.474 436.41 127.087L437.281 121.584H432.819C432.539 121.584 432.286 121.39 432.17 121.086C432.064 120.809 432.085 120.483 432.223 120.228L437.381 110.85C437.513 110.607 437.74 110.468 437.977 110.468C438.088 110.468 438.193 110.502 438.293 110.557C438.583 110.723 438.742 111.11 438.684 111.498L437.813 117.001H442.276C442.55 117.001 442.808 117.194 442.924 117.499C443.03 117.781 443.009 118.108 442.877 118.362Z" fill="white" fill-opacity="0.5"/>
<path d="M87.7668 110.573C87.8973 110.798 88.1324 110.922 88.3735 110.922C88.4926 110.922 88.6125 110.895 88.7229 110.828C89.0576 110.636 89.172 110.204 88.978 109.869L87.3146 106.97C87.1198 106.632 86.6932 106.516 86.3585 106.713C86.0234 106.904 85.9085 107.336 86.1025 107.673L87.7668 110.573Z" fill="white" fill-opacity="0.5"/>
<path d="M84.7304 117.784C84.7304 117.395 84.4165 117.079 84.0303 117.079L80.7001 117.079C80.3137 117.079 80 117.395 80 117.784C80 118.173 80.3137 118.49 80.7001 118.49H84.0303C84.4165 118.489 84.7304 118.172 84.7304 117.784V117.784Z" fill="white" fill-opacity="0.5"/>
<path d="M85.5426 112.81L82.6599 111.134C82.3235 110.94 81.8955 111.056 81.704 111.393C81.5107 111.731 81.6243 112.162 81.9597 112.353L84.8436 114.028C84.9545 114.091 85.0744 114.12 85.1936 114.12C85.4333 114.12 85.6701 113.998 85.7988 113.769C85.9935 113.435 85.879 113.005 85.5426 112.81L85.5426 112.81Z" fill="white" fill-opacity="0.5"/>
<path d="M84.8437 121.545L81.9597 123.22C81.6244 123.415 81.5106 123.844 81.7039 124.181C81.8326 124.409 82.0684 124.532 82.3091 124.532C82.4297 124.532 82.5482 124.505 82.66 124.438L85.5429 122.765C85.8793 122.571 85.9934 122.142 85.7987 121.8C85.607 121.467 85.1782 121.349 84.8437 121.545L84.8437 121.545Z" fill="white" fill-opacity="0.5"/>
<path d="M100.244 114.122C100.361 114.122 100.482 114.091 100.593 114.028L103.477 112.356C103.811 112.161 103.925 111.731 103.733 111.393C103.54 111.058 103.112 110.94 102.777 111.134L99.8942 112.81C99.5566 113.005 99.4437 113.435 99.6367 113.774C99.7668 113.998 100.002 114.122 100.244 114.122L100.244 114.122Z" fill="white" fill-opacity="0.5"/>
<path d="M92.7191 109.755C93.1055 109.755 93.4194 109.44 93.4194 109.053V105.703C93.4194 105.316 93.1055 105 92.7191 105C92.3321 105 92.0188 105.316 92.0188 105.703V109.053C92.0189 109.44 92.3321 109.755 92.7191 109.755V109.755Z" fill="white" fill-opacity="0.5"/>
<path d="M96.7123 110.83C96.8219 110.895 96.9431 110.922 97.0601 110.922C97.3033 110.922 97.5378 110.799 97.6665 110.573L99.3321 107.672C99.5261 107.336 99.4114 106.906 99.077 106.713C98.7405 106.516 98.3139 106.632 98.121 106.97L96.4548 109.869C96.2624 110.206 96.3757 110.636 96.7122 110.83L96.7123 110.83Z" fill="white" fill-opacity="0.5"/>
<path d="M104.736 117.082H101.406C101.018 117.082 100.706 117.396 100.706 117.785C100.706 118.174 101.018 118.49 101.404 118.49H104.736C105.122 118.49 105.436 118.173 105.436 117.788C105.436 117.396 105.122 117.082 104.736 117.082H104.736Z" fill="white" fill-opacity="0.5"/>
<path d="M92.7148 124.543C96.4248 124.543 99.4336 121.518 99.4336 117.789C99.4336 114.057 96.425 111.031 92.7148 111.031C89.0027 111.031 85.9966 114.057 85.9966 117.789C85.9968 121.518 89.0032 124.543 92.7148 124.543V124.543Z" fill="white" fill-opacity="0.5"/>
<path d="M103.477 123.22L100.594 121.545C100.258 121.349 99.8299 121.467 99.6366 121.8C99.4437 122.142 99.5569 122.571 99.8941 122.765L102.777 124.438C102.887 124.505 103.007 124.535 103.126 124.535C103.367 124.535 103.602 124.409 103.733 124.183C103.925 123.845 103.811 123.415 103.477 123.22H103.477Z" fill="white" fill-opacity="0.5"/>
<path d="M88.7217 124.745C88.387 124.551 87.9588 124.666 87.7671 125.002L86.1028 127.903C85.9089 128.239 86.0225 128.671 86.3565 128.864C86.4667 128.93 86.5891 128.96 86.7067 128.96C86.9506 128.96 87.1839 128.833 87.3151 128.605L88.9785 125.705C89.1725 125.37 89.0578 124.941 88.7217 124.745L88.7217 124.745Z" fill="white" fill-opacity="0.5"/>
<path d="M97.6665 125.002C97.4747 124.666 97.047 124.551 96.7122 124.745C96.3757 124.941 96.2624 125.37 96.4548 125.705L98.121 128.607C98.2507 128.833 98.4853 128.96 98.7263 128.96C98.8473 128.96 98.9674 128.93 99.077 128.864C99.4112 128.671 99.5261 128.239 99.3321 127.902L97.6665 125.002Z" fill="white" fill-opacity="0.5"/>
<path d="M92.7191 125.82C92.3321 125.82 92.0188 126.136 92.0188 126.526V129.876C92.0188 130.261 92.332 130.578 92.7191 130.578C93.1055 130.578 93.4176 130.261 93.4176 129.876V126.526C93.4176 126.136 93.1055 125.82 92.7191 125.82Z" fill="white" fill-opacity="0.5"/>
<path d="M232.813 95.7716C232.768 95.6708 232.756 95.5566 232.779 95.4453L234.492 87.415C234.543 87.1747 234.759 87.0005 235.002 87.0005H235.538C235.782 87.0005 235.996 87.1747 236.047 87.4161L237.762 95.4463C237.785 95.5556 237.774 95.6718 237.729 95.7726L236.63 98.2214C236.201 98.0714 235.749 97.9737 235.27 97.9737C234.791 97.9737 234.339 98.0735 233.91 98.2214L232.813 95.7716Z" fill="white" fill-opacity="0.5"/>
<path d="M230.986 107.513C230.922 107.603 230.829 107.669 230.723 107.706L222.949 110.228C222.715 110.298 222.457 110.205 222.336 109.991L222.069 109.525C221.947 109.312 221.99 109.039 222.171 108.874L228.233 103.366C228.315 103.292 228.421 103.245 228.53 103.232L231.175 102.966C231.354 103.906 231.855 104.726 232.549 105.331L230.986 107.513Z" fill="white" fill-opacity="0.5"/>
<path d="M236.495 131.063H234.049L234.977 106.342C235.077 106.349 235.172 106.371 235.273 106.371C235.374 106.371 235.469 106.349 235.568 106.342L236.495 131.063Z" fill="white" fill-opacity="0.5"/>
<path d="M248.474 109.525L248.207 109.991C248.085 110.201 247.826 110.298 247.596 110.228L239.82 107.706C239.714 107.671 239.622 107.601 239.557 107.512L237.994 105.33C238.689 104.726 239.19 103.906 239.368 102.965L242.012 103.232C242.124 103.245 242.228 103.292 242.31 103.367L248.372 108.873C248.555 109.039 248.598 109.312 248.474 109.525L248.474 109.525Z" fill="white" fill-opacity="0.5"/>
<path d="M235.271 99.0195C233.542 99.0195 232.137 100.435 232.137 102.172C232.137 103.909 233.542 105.322 235.271 105.322C236.999 105.322 238.404 103.909 238.404 102.172C238.404 100.435 236.997 99.0195 235.271 99.0195ZM235.271 103.559C234.51 103.559 233.891 102.936 233.891 102.174C233.891 101.409 234.51 100.787 235.271 100.787C236.031 100.787 236.648 101.41 236.648 102.174C236.648 102.936 236.031 103.559 235.271 103.559Z" fill="white" fill-opacity="0.5"/>
<path d="M235.608 102.172C235.608 102.623 234.935 102.623 234.935 102.172C234.935 101.721 235.608 101.721 235.608 102.172Z" fill="white" fill-opacity="0.5"/>
<path d="M35.0558 126.938C33.3742 126.938 31.9984 126.553 30.8902 125.747C30.6226 125.554 30.5845 125.209 30.7756 124.94C30.9667 124.67 31.3106 124.632 31.5783 124.824C32.4956 125.477 33.6038 125.785 35.0561 125.785C36.4701 125.785 37.6166 125.477 38.4955 124.824C38.7632 124.632 39.107 124.709 39.2982 124.94C39.4893 125.209 39.4128 125.554 39.1836 125.747C38.1132 126.553 36.7374 126.938 35.0559 126.938H35.0558Z" fill="white" fill-opacity="0.5"/>
<path d="M39.3396 127.014C39.1485 126.745 38.8046 126.707 38.5369 126.899C37.505 127.629 36.2057 127.745 35.0975 127.745C33.4924 127.745 32.4605 127.475 31.6197 126.861C31.352 126.669 31.0082 126.746 30.817 126.976C30.6259 127.245 30.7024 127.591 30.9316 127.783C31.5432 128.206 32.1547 128.475 32.8043 128.628C32.919 129.781 33.9125 130.703 35.0975 130.703C36.2822 130.703 37.276 129.781 37.3907 128.628C38.0403 128.475 38.6518 128.206 39.225 127.783C39.4543 127.629 39.5308 127.245 39.3396 127.014H39.3396ZM35.0594 129.55C34.5625 129.55 34.1804 129.243 33.9893 128.82C34.3332 128.859 34.7155 128.859 35.0594 128.859C35.4032 128.859 35.7471 128.859 36.1294 128.82C35.9767 129.243 35.5563 129.55 35.0594 129.55Z" fill="white" fill-opacity="0.5"/>
<path d="M35.4782 120.138C36.4717 118.985 37.9621 117.103 38.803 115.45C40.1788 112.684 39.873 109.687 39.6437 108.496C38.6118 108.765 36.2043 109.648 34.6374 112.722C33.5673 114.836 33.8731 117.218 34.4081 118.947C34.6374 116.565 35.3635 113.683 37.2362 111.224C37.4274 110.955 37.7713 110.916 38.0389 111.109C38.3066 111.301 38.3447 111.646 38.1536 111.916C36.1659 114.567 35.5928 117.756 35.4782 120.138L35.4782 120.138Z" fill="white" fill-opacity="0.5"/>
<path d="M35.0574 102C29.7834 102 26 105.92 26 111.337C26 114.488 27.414 116.525 28.637 118.292C29.5925 119.675 30.3952 120.866 30.3952 122.288C30.3952 124.056 33.0703 124.862 34.7138 124.978L34.5226 123.94C34.5226 123.825 34.3699 123.018 34.3315 121.75C34.255 121.596 34.1022 121.327 33.9492 120.943C32.2676 119.291 28.637 115.218 29.2102 111.029C29.2483 110.799 29.4014 110.607 29.6306 110.53C31.7707 110.03 33.2231 110.837 33.9874 111.452C36.3186 107.687 39.8726 107.265 40.0256 107.265C40.2933 107.226 40.5607 107.418 40.6372 107.687C40.6753 107.879 41.7838 112.068 39.8345 115.987C38.6114 118.446 36.1274 121.212 35.5159 121.904C35.554 123.057 35.6686 123.787 35.707 123.787L35.8982 124.901V124.939C37.5414 124.709 39.758 123.902 39.758 122.288C39.758 120.828 40.5988 119.637 41.5161 118.292C42.7392 116.524 44.1532 114.488 44.1532 111.337C44.1148 105.958 40.3314 102 35.0574 102Z" fill="white" fill-opacity="0.5"/>
<path d="M32.0763 112.721C32.1528 112.76 32.4967 113.067 32.9552 113.874C33.0699 113.413 33.2229 112.991 33.4137 112.529C32.9933 112.107 31.9233 111.376 30.2798 111.607C30.1271 114.066 31.6175 116.525 33.0314 118.293C32.8787 117.678 32.8022 117.025 32.7638 116.333L32.7257 116.295C32.076 114.22 31.3879 113.682 31.3879 113.682C31.1587 113.49 31.0822 113.144 31.2733 112.875C31.5031 112.606 31.847 112.568 32.0763 112.721L32.0763 112.721Z" fill="white" fill-opacity="0.5"/>
<path d="M687.365 104.985L686.25 105.413L689.253 113.263L690.368 112.83C691.865 112.252 693.351 112.249 694.852 112.832L695.966 113.263L698.969 105.413L697.853 104.985C694.452 103.672 690.765 103.672 687.366 104.985L687.365 104.985Z" fill="white" fill-opacity="0.5"/>
<path d="M686.446 119.672L686.261 118.487L678 119.797L678.184 120.98C678.746 124.581 680.605 127.827 683.421 130.118L684.348 130.873L689.618 124.321L688.693 123.567C687.482 122.58 686.685 121.198 686.446 119.672L686.446 119.672Z" fill="white" fill-opacity="0.5"/>
<path d="M692.608 114.494C690.306 114.494 688.432 116.378 688.432 118.693C688.432 121.009 690.306 122.892 692.608 122.892C694.911 122.892 696.785 121.009 696.785 118.693C696.785 116.378 694.911 114.494 692.608 114.494Z" fill="white" fill-opacity="0.5"/>
<path d="M698.772 119.67C698.534 121.197 697.736 122.581 696.527 123.565L695.602 124.319L700.871 130.873L701.799 130.119C704.613 127.827 706.473 124.582 707.035 120.98L707.219 119.795L698.957 118.485L698.772 119.67Z" fill="white" fill-opacity="0.5"/>
</svg>
