<svg width="196" height="154" viewBox="0 0 196 154" fill="none" xmlns="http://www.w3.org/2000/svg">
<rect width="196" height="154" fill="#1767D2"/>
<path d="M174.791 117.272L168.552 103.665C168.367 103.255 167.982 103 167.544 103C167.117 103 166.727 103.261 166.542 103.665L160.308 117.272C159.607 118.811 159 120.139 159 122.243C159 127.159 162.834 131.156 167.544 131.156C172.26 131.156 176.094 127.159 176.094 122.243C176.099 120.134 175.461 118.744 174.791 117.272ZM172.877 118.362L167.713 127.746C167.713 127.746 167.713 127.751 167.708 127.751C167.571 127.989 167.349 128.128 167.112 128.128C167.001 128.128 166.89 128.094 166.795 128.033C166.505 127.862 166.347 127.474 166.41 127.087L167.281 121.584H162.819C162.539 121.584 162.286 121.39 162.17 121.086C162.064 120.809 162.085 120.483 162.223 120.228L167.381 110.85C167.513 110.607 167.74 110.468 167.977 110.468C168.088 110.468 168.193 110.502 168.293 110.557C168.583 110.723 168.742 111.11 168.684 111.498L167.813 117.001H172.276C172.55 117.001 172.808 117.194 172.924 117.499C173.03 117.781 173.009 118.108 172.877 118.362Z" fill="white" fill-opacity="0.5"/>
</svg>
